<svg xmlns="http://www.w3.org/2000/svg" width="919" height="790" viewBox="0 0 919 790" fill="none">
<path opacity="0.2" d="M471.606 427.692V406.736L441.343 389.262V368.306L411.081 350.814V329.875L380.836 312.4L250.073 383.725L284.038 403.238V424.194L314.3 441.651V462.624L344.562 480.082V501.055L477.125 692.631C608.397 670.469 708.608 603.627 750.894 517.239C755.785 507.254 760.138 497.194 763.953 487.062L471.606 427.692Z" fill="#525248"/>
<path opacity="0.15" d="M285.21 19.1527C196.733 70.0992 125 206.636 125 324.186C125 394.034 150.337 441.465 189.532 457.768L205.716 448.427L364.839 356.571L381.43 346.993C420.337 285.772 445.487 209.438 445.487 139.811C445.419 22.2944 373.704 -31.7428 285.21 19.1527Z" fill="#525248"/>
<path opacity="0.15" d="M285.21 53.1509C210.862 95.9459 150.592 210.677 150.592 309.462C150.592 408.248 210.862 453.658 285.21 410.897C359.557 368.136 419.844 253.353 419.844 154.568C419.844 55.7832 359.574 10.3729 285.21 53.1509Z" fill="#525248"/>
<path opacity="0.15" d="M285.21 77.1127C221.051 114.168 169.035 213.547 169.035 299.086C169.035 384.625 221.051 423.973 285.21 386.935C349.368 349.897 401.385 250.5 401.385 164.944C401.385 79.3883 349.385 40.0407 285.21 77.1127Z" fill="#525248"/>
<path d="M216.704 303.145C216.704 229.035 261.774 142.936 317.357 110.822C341.862 96.6931 364.295 95.3855 381.736 104.692L359.133 91.6155C341.471 81.4262 318.376 82.2753 293.174 96.846C237.558 128.959 192.504 215.059 192.504 289.169C192.504 329.739 206.005 358.303 227.351 370.598C231.003 372.687 244.571 380.55 250.107 383.742C229.542 370.989 216.704 342.798 216.704 303.145Z" fill="#525248"/>
<path opacity="0.3" d="M216.704 303.145C216.704 229.035 261.774 142.936 317.357 110.822C341.862 96.6931 364.295 95.3855 381.736 104.692L359.133 91.6155C341.471 81.4262 318.376 82.2753 293.174 96.846C237.558 128.959 192.504 215.059 192.504 289.169C192.504 329.739 206.005 358.303 227.351 370.598C231.003 372.687 244.571 380.55 250.107 383.742C229.542 370.989 216.704 342.798 216.704 303.145Z" fill="#000000"/>
<path d="M356.908 126.361C365.688 138.079 370.392 156.725 369.339 180.976C366.809 240.413 330.654 311.127 288.606 338.791C275.835 347.197 263.965 350.678 253.742 349.744C266.512 366.726 287.91 369.155 312.805 352.767C354.87 325.103 391.025 254.44 393.556 194.935C395.288 153.532 380.31 128.45 356.908 126.361Z" fill="#525248"/>
<path opacity="0.15" d="M356.908 126.361C365.688 138.079 370.392 156.725 369.339 180.976C366.809 240.413 330.654 311.127 288.606 338.791C275.835 347.197 263.965 350.678 253.742 349.744C266.512 366.726 287.91 369.155 312.805 352.767C354.87 325.103 391.025 254.44 393.556 194.935C395.288 153.532 380.31 128.45 356.908 126.361Z" fill="#ffff00"/>
<path d="M242.347 144.566L266.546 158.542L268.482 155.944L244.283 141.934C243.62 142.834 242.992 143.632 242.347 144.566Z" fill="#525248"/>
<path d="M231.24 225.503L206.956 211.56C206.616 212.494 206.293 213.462 205.971 214.413L230.17 228.39C230.51 227.405 230.816 226.437 231.24 225.503Z" fill="#525248"/>
<path d="M341.624 85.451L365.841 99.4783C366.826 99.6481 367.811 99.818 368.779 100.022L344.562 86.0454C343.594 85.7907 342.609 85.6039 341.624 85.451Z" fill="#525248"/>
<path d="M220.117 266.549C220.304 265.496 220.508 264.426 220.711 263.373L196.512 249.397C196.291 250.449 196.087 251.502 195.9 252.572L220.117 266.549Z" fill="#525248"/>
<path d="M266.139 117.394L290.338 131.371C291.17 130.573 292.036 129.774 292.852 129.01L268.601 115.034C267.803 115.798 266.903 116.596 266.139 117.394Z" fill="#525248"/>
<path d="M220.236 336.413C220.015 335.479 219.811 334.528 219.607 333.577L219.421 333.153L195.34 319.244C195.561 320.331 195.782 321.401 196.036 322.454L220.236 336.413Z" fill="#525248"/>
<path d="M320.515 86.0793C319.497 86.2831 318.444 86.5548 317.408 86.8096L341.624 100.786C342.677 100.514 343.73 100.276 344.766 100.073L320.515 86.0793Z" fill="#525248"/>
<path d="M318.868 110.007L294.669 96.0818C294.159 96.3705 293.667 96.6082 293.174 96.8969L291.697 97.797L315.896 111.773L317.357 110.873L318.868 110.007Z" fill="#525248"/>
<path d="M221.832 177.596L246.032 191.572L247.458 188.923L223.259 174.947C222.749 175.796 222.291 176.679 221.832 177.596Z" fill="#525248"/>
<path d="M230.51 363.075C229.967 362.141 229.457 361.207 228.931 360.239L204.748 346.28C205.258 347.248 205.801 348.182 206.344 349.116L230.51 363.075Z" fill="#525248"/>
<path d="M192.504 289.441L216.704 303.434V303.145C216.704 302.109 216.704 301.039 216.704 299.986L192.487 286.01C192.487 287.063 192.487 288.133 192.487 289.169L192.504 289.441Z" fill="#525248"/>
<path d="M317.357 110.822C261.774 142.935 216.703 229.035 216.703 303.145C216.703 377.255 261.774 411.338 317.357 379.242C372.939 347.146 418.044 261.046 418.044 186.919C418.044 112.792 372.956 78.726 317.357 110.822ZM393.505 194.935C390.974 254.372 354.819 325.086 312.755 352.75C270.69 380.414 238.678 354.618 241.209 295.13C243.739 235.641 279.928 164.978 321.959 137.314C363.99 109.65 396.052 135.446 393.505 194.935Z" fill="#525248"/>
<g opacity="0.15">
<path d="M296.757 159.68C297.572 158.78 298.371 157.863 299.203 156.98L292.834 129.01C291.985 129.774 291.136 130.556 290.321 131.354L296.757 159.68Z" fill="#ffff00"/>
<path d="M315.879 111.705V141.696C316.864 140.932 317.849 140.184 318.851 139.471V109.99L317.357 110.822L315.879 111.705Z" fill="#ffff00"/>
<path d="M336.343 129.774C337.43 129.35 338.516 128.959 339.586 128.62L344.681 100.056C343.645 100.259 342.592 100.497 341.539 100.752L336.343 129.774Z" fill="#ffff00"/>
<path d="M254.285 232.975L255.355 230.156L231.24 225.486C230.901 226.437 230.561 227.388 230.238 228.339L254.285 232.975Z" fill="#ffff00"/>
<path d="M265.714 206.466L267.072 203.749L247.441 188.906L246.032 191.572L265.714 206.466Z" fill="#ffff00"/>
<path d="M413.917 151.325L392.571 171.347C392.741 172.536 392.893 173.741 393.029 174.998L414.783 154.619C414.461 153.533 414.206 152.412 413.917 151.325Z" fill="#ffff00"/>
<path d="M241.939 285.433L216.738 299.969C216.738 301.039 216.738 302.092 216.738 303.145V303.434L241.633 289.067C241.684 287.861 241.82 286.638 241.939 285.433Z" fill="#ffff00"/>
<path d="M246.015 260.809C246.269 259.739 246.541 258.669 246.796 257.582L220.694 263.339C220.491 264.392 220.287 265.462 220.1 266.515L246.015 260.809Z" fill="#ffff00"/>
<path d="M356.399 126.344C357.435 126.429 358.437 126.548 359.422 126.718L368.796 99.9368C367.811 99.733 366.826 99.5462 365.824 99.3763L356.399 126.344Z" fill="#ffff00"/>
<path d="M386.016 148.625C386.491 149.627 386.95 150.679 387.391 151.749L404.883 128.195C404.356 127.244 403.796 126.327 403.184 125.427L386.016 148.625Z" fill="#ffff00"/>
<path d="M373.652 132.848C374.451 133.46 375.232 134.105 375.996 134.801L389.174 109.566C388.376 108.937 387.578 108.343 386.746 107.766L373.652 132.848Z" fill="#ffff00"/>
<path d="M279.928 181.74L281.762 178.972L268.465 155.927L266.529 158.542L279.928 181.74Z" fill="#ffff00"/>
<path d="M338.483 329.807C337.684 330.741 336.784 331.641 336.054 332.524L342.422 360.579C343.271 359.815 344.121 358.982 344.936 358.184L338.483 329.807Z" fill="#ffff00"/>
<path d="M370.052 281.561C369.611 282.478 369.152 283.378 368.694 284.278L388.376 299.154L389.752 296.454L370.052 281.561Z" fill="#ffff00"/>
<path d="M355.685 307L353.851 309.785L367.182 332.881C367.828 332.015 368.49 331.183 369.118 330.283L355.685 307Z" fill="#ffff00"/>
<path d="M381.396 254.406C381.057 255.357 380.734 256.308 380.377 257.242L404.492 261.896C404.832 260.945 405.154 259.994 405.477 259.043L381.396 254.406Z" fill="#ffff00"/>
<path d="M389.361 226.233C389.14 227.303 388.92 228.373 388.665 229.426L414.647 223.737C414.834 222.667 415.004 221.614 415.191 220.561L389.361 226.233Z" fill="#ffff00"/>
<path d="M418.044 183.795L393.318 197.975C393.318 199.163 393.165 200.352 393.08 201.558L418.044 187.208V186.919C418.044 185.866 418.044 184.83 418.044 183.795Z" fill="#ffff00"/>
<path d="M318.851 378.342V348.386C317.866 349.15 316.864 349.897 315.879 350.61V380.091L317.357 379.242C317.849 378.953 318.359 378.631 318.851 378.342Z" fill="#ffff00"/>
<path d="M247.9 339.674C247.441 338.638 247 337.568 246.575 336.447L228.931 360.222C229.44 361.19 229.984 362.141 230.527 363.058L247.9 339.674Z" fill="#ffff00"/>
<path d="M260.008 356.401C259.227 355.756 258.463 355.077 257.715 354.346L244.469 379.684C245.251 380.329 246.049 380.94 246.864 381.535L260.008 356.401Z" fill="#ffff00"/>
<path d="M297.81 360.545C296.723 360.952 295.654 361.309 294.584 361.649L289.489 390.128C290.542 389.924 291.595 389.703 292.648 389.449L297.81 360.545Z" fill="#ffff00"/>
<path d="M277.347 363.652C276.328 363.551 275.343 363.398 274.358 363.211L265.086 389.873C266.071 390.111 267.056 390.297 268.041 390.467L277.347 363.652Z" fill="#ffff00"/>
<path d="M241.888 316.187C241.752 314.965 241.633 313.708 241.531 312.434L219.454 333.034C219.692 334.171 219.93 335.292 220.185 336.43L241.888 316.187Z" fill="#ffff00"/>
</g>
<path d="M344.528 501.072L229.491 434.655V371.77L253.708 385.746L284.004 403.255V424.211L314.266 441.668V462.641L344.528 480.099V501.072Z" fill="#272723"/>
<path d="M253.742 385.78L380.836 312.4L411.081 329.875L284.004 403.255L253.742 385.78Z" fill="#1d1d1d"/>
<path d="M284.004 403.255V424.211L411.081 350.831V329.875L284.004 403.255Z" fill="#2f2f2e"/>
<path d="M284.004 424.211L411.081 350.831L441.343 368.306L314.266 441.668L284.004 424.211Z" fill="#1d1d1d"/>
<path d="M314.266 441.669V462.642L441.343 389.262V368.306L314.266 441.669Z" fill="#2f2f2e"/>
<path d="M314.266 462.642L441.343 389.262L471.606 406.736L344.528 480.099L314.266 462.642Z" fill="#1d1d1d"/>
<path d="M344.528 480.099V501.072L471.606 427.692V406.736L344.528 480.099Z" fill="#2f2f2e"/>
<path d="M380.921 187.785C378.391 247.223 342.219 317.936 300.171 345.617C284.547 355.892 270.316 358.796 258.7 355.314C246.813 344.463 240.02 323.676 241.209 295.163C243.756 235.726 279.928 165.012 321.959 137.348C337.6 127.057 351.865 124.17 363.463 127.669C375.419 138.537 382.144 159.255 380.921 187.785Z" fill="#525248"/>
<path opacity="0.9" d="M380.921 187.785C378.391 247.223 342.219 317.936 300.171 345.617C284.547 355.892 270.316 358.796 258.7 355.314C246.813 344.463 240.02 323.676 241.209 295.163C243.756 235.726 279.928 165.012 321.959 137.348C337.6 127.057 351.865 124.17 363.463 127.669C375.419 138.537 382.144 159.255 380.921 187.785Z" fill="#000000"/>
<path opacity="0.1" d="M299.984 315.151C286.857 316.671 274.71 322.847 265.748 332.558C260.906 337.755 256.958 343.717 254.064 350.203C255.462 352.03 257.013 353.734 258.7 355.297C261.201 356.028 263.776 356.472 266.376 356.622C267.056 354.924 267.565 353.141 268.159 351.425C271.096 343.439 276.33 336.499 283.201 331.48C290.073 326.461 298.275 323.586 306.777 323.218C312.602 323.065 318.376 324.118 324.167 324.577C326.459 322.046 328.701 319.482 330.959 316.697C320.702 316.17 310.122 314.133 299.984 315.151ZM297.471 228.186C309.358 229.731 322.333 230.394 332.726 224.314C344.494 217.419 350.081 203.749 355.753 191.369C361.035 179.872 368.252 167.729 379.783 163.28C377.389 147.198 371.649 135.09 363.446 127.618C357.852 126.008 351.954 125.757 346.243 126.887C340.49 133.475 336.299 141.277 333.982 149.711C331.265 159.221 330.314 169.326 325.95 178.173C321.505 187.069 313.961 194.033 304.739 197.754C297.471 200.641 289.574 201.337 281.847 202.526C276.457 203.322 271.129 204.491 265.901 206.024C261.867 214.036 258.273 222.262 255.134 230.665C257.219 229.599 259.389 228.707 261.621 227.999C273.152 224.45 285.583 226.657 297.471 228.186ZM309.63 168.748C313.434 162.176 314.725 154.517 316.813 147.198C317.561 144.464 318.512 141.798 319.395 139.132C316.677 141.045 313.983 143.128 311.311 145.381C307.473 154.704 303.737 164.061 296.656 171.092C293.046 174.628 288.736 177.37 284.004 179.141C283.11 179.441 282.188 179.651 281.253 179.77C279.521 182.317 277.822 184.921 276.158 187.582C279.989 187.274 283.786 186.626 287.502 185.646C296.703 182.885 304.578 176.858 309.647 168.697L309.63 168.748ZM380.955 179.057C377.634 180.778 374.625 183.045 372.056 185.764C365.739 192.693 362.342 201.677 358.471 210.236C353.07 222.429 346.023 234.843 334.288 241.16C326.476 245.355 317.306 246.408 308.526 246.646C291.799 247.104 274.816 244.947 258.463 248.531C254.938 249.3 251.492 250.398 248.171 251.808C247.039 255.872 246.049 259.92 245.2 263.95C249.008 261.935 253.037 260.367 257.206 259.28C281.372 253.167 308.152 266.583 331.299 257.582C348.281 250.942 358.623 234.079 366.962 217.878C370.358 211.272 374.009 204.292 379.868 199.911C380.321 195.869 380.638 191.861 380.819 187.887C381.04 184.746 381.074 181.842 381.023 179.006L380.955 179.057ZM320.668 278.045C307.592 278.521 294.533 277.298 281.457 277.111C274.756 276.747 268.041 277.435 261.553 279.149C255.875 281.07 250.533 283.872 245.726 287.454C244.249 288.506 242.822 289.593 241.413 290.697C241.311 292.209 241.209 293.703 241.141 295.18C240.411 312.417 242.601 326.801 247.068 337.908C249.954 335.402 252.521 332.55 254.71 329.416C263.693 317.274 272.354 303.841 285.974 297.337C300.595 290.358 317.832 292.854 333.728 289.661C340.681 288.241 347.361 285.712 353.512 282.172C356.025 277.462 358.397 272.662 360.627 267.771C359.948 268.179 359.252 268.569 358.555 268.96C347.059 275.26 333.795 277.519 320.736 277.995L320.668 278.045Z" fill="#525248"/>
<path d="M459.033 161.895C459.033 167.669 457.946 172.798 450.881 174.037C458.115 174.343 458.625 179.132 459.033 185.823C459.27 179.183 459.899 174.343 466.454 174.037C459.695 172.916 459.033 167.669 459.033 161.895Z" fill="#525248"/>
<path d="M294.204 469.289C294.204 475.063 293.117 480.191 286.052 481.431C293.287 481.737 293.796 486.526 294.204 493.217C294.441 486.56 295.07 481.737 301.625 481.431C294.832 480.293 294.204 475.063 294.204 469.289Z" fill="#525248"/>
<path d="M241.1 291.384C241.1 293.914 240.625 296.139 237.534 296.682C240.693 296.818 240.931 298.941 241.1 301.777C241.202 298.873 241.474 296.682 244.344 296.682C241.372 296.19 241.1 293.914 241.1 291.384Z" fill="#525248"/>
<path d="M227.209 301.318C227.209 307.075 226.105 312.204 219.058 313.444C226.292 313.749 226.802 318.538 227.209 325.246C227.43 318.589 228.058 313.766 234.63 313.444C227.838 312.408 227.209 307.075 227.209 301.318Z" fill="#f6d0ac"/>
<path d="M220.586 272.381C220.586 275.353 220.026 277.968 216.409 278.613C220.111 278.766 220.382 281.246 220.586 284.659C220.705 281.263 221.028 278.766 224.407 278.613C220.909 278.036 220.586 275.353 220.586 272.381Z" fill="#f6d0ac"/>
<path d="M439.418 144.539C439.418 147.936 439.333 151.162 434.459 151.927C439.554 151.927 439.214 155.102 439.469 159.178C439.605 155.102 439.961 152.181 443.986 151.994C439.826 151.298 439.944 149.379 439.418 144.539Z" fill="#f6d0ac"/>
<path d="M481.772 301.709C481.415 308.077 480.906 310.828 475.149 311.593C481.007 311.915 481.5 315.804 481.84 321.221C482.026 315.804 482.502 311.864 487.851 311.593C482.349 310.71 482.213 308.162 481.772 301.709Z" fill="#f6d0ac"/>
<path d="M270.802 469.34C270.599 473.059 270.31 474.655 266.947 475.114C270.344 475.301 270.65 477.542 270.853 480.701C270.955 477.542 271.227 475.25 274.352 475.114C271.193 474.57 271.057 473.11 270.802 469.34Z" fill="#f6d0ac"/>
<path d="M469.748 155.985C469.748 158.04 469.748 160.01 466.742 160.469C469.867 160.469 469.629 162.388 469.782 164.85C469.867 162.388 470.071 160.621 472.499 160.502C469.986 160.078 470.054 158.923 469.748 155.985Z" fill="#f6d0ac"/>
<path d="M476.15 320.22C476.15 322.257 476.15 324.227 473.145 324.686C476.252 324.686 476.015 326.622 476.167 329.084C476.252 326.622 476.473 324.839 478.902 324.737C476.388 324.295 476.456 323.141 476.15 320.22Z" fill="#f6d0ac"/>
<path d="M286.477 461.239C286.477 463.277 286.477 465.247 283.471 465.706C286.596 465.706 286.358 467.625 286.511 470.087C286.596 467.625 286.816 465.859 289.245 465.74C286.765 465.332 286.833 464.16 286.477 461.239Z" fill="#f6d0ac"/>
<path d="M713.615 416.532L767.092 385.658L847.825 432.257L886.561 409.892L805.845 363.293L832.066 348.145L789.61 323.605L763.39 338.753L716.587 311.769L677.834 334.151L724.586 361.204L624.884 418.671L656.08 436.673L907.721 504.227L912.612 501.408C915.012 491.763 916.999 481.919 918.573 471.877L713.615 416.532Z" fill="#272723"/>
<path d="M718.642 179.648L716.638 180.803V115.557L692.421 101.581L662.465 118.869L687.174 25.9763L662.974 12L621.317 36.0467L554 287.756V323.843L578.2 337.819L653.753 294.175V320.175L677.97 334.151L716.587 311.769V257.834L742.791 242.702V193.624L718.642 179.648ZM653.753 217.161L633.256 229.049L653.753 151.916V217.161Z" fill="#525248"/>
<path opacity="0.3" d="M718.642 179.648L716.638 180.803V115.557L692.421 101.581L662.465 118.869L687.174 25.9763L662.974 12L621.317 36.0467L554 287.756V323.843L578.2 337.819L653.753 294.175V320.175L677.97 334.151L716.587 311.769V257.834L742.791 242.702V193.624L718.642 179.648ZM653.753 217.161L633.256 229.049L653.753 151.916V217.161Z" fill="#ffff00"/>
<path d="M716.621 208.755V115.557L677.885 137.923V231.138L624.391 262.011L687.174 25.9763L645.517 50.023L578.2 301.732V337.752L677.885 280.216V334.151L716.621 311.769V257.834L742.841 242.702V193.624L716.621 208.755Z" fill="#525248"/>
<path opacity="0.3" d="M716.621 208.755V115.557L677.885 137.923V231.138L624.391 262.011L687.174 25.9763L645.517 50.023L578.2 301.732V337.752L677.885 280.216V334.151L716.621 311.769V257.834L742.841 242.702V193.624L716.621 208.755Z" fill="#000000"/>
<path d="M687.174 25.9763L662.974 12L621.317 36.0467L645.517 50.023L687.174 25.9763Z" fill="#525248"/>
<path opacity="0.5" d="M687.174 25.9763L662.974 12L621.317 36.0467L645.517 50.023L687.174 25.9763Z" fill="#000000"/>
<path d="M692.422 101.581L716.621 115.557L677.885 137.923L660.122 127.665L662.465 118.869L692.422 101.581Z" fill="#525248"/>
<path opacity="0.5" d="M692.422 101.581L716.621 115.557L677.885 137.923L660.122 127.665L662.465 118.869L692.422 101.581Z" fill="#000000"/>
<path d="M677.885 231.138L653.668 217.161L633.171 228.998L624.391 262.011L677.885 231.138Z" fill="#525248"/>
<path opacity="0.5" d="M677.885 231.138L653.668 217.161L633.171 228.998L624.391 262.011L677.885 231.138Z" fill="#000000"/>
<path d="M742.842 193.624L718.642 179.648L716.621 180.803V208.755L742.842 193.624Z" fill="#525248"/>
<path opacity="0.5" d="M716.621 208.755L742.842 193.624L718.642 179.648L716.621 180.803V208.755Z" fill="#000000"/>
<path d="M578.2 301.732L554 287.756L621.317 36.0468L645.517 50.0231L578.2 301.732Z" fill="#525248"/>
<path opacity="0.15" d="M578.2 301.732L554 287.756L621.317 36.0468L645.517 50.0231L578.2 301.732Z" fill="#ffff00"/>
<path d="M278.066 633.162L235.559 608.622L209.356 623.753L162.638 596.786L123.885 619.151L170.603 646.119L70.9174 703.671L102.114 721.689L353.772 789.244L395.429 765.198L159.615 701.549L213.109 670.658L293.825 717.274L332.578 694.892L251.845 648.293L278.066 633.162Z" fill="#272723"/>
<path d="M164.642 464.648L162.638 465.819V400.506L138.421 386.53L108.465 403.902L133.174 311.01L108.974 297.034L67.3171 321.047L-0.00012207 572.773V608.792L24.2674 622.768L99.753 579.192V605.175L123.953 619.151L162.706 596.786V542.833L188.909 527.702V478.624L164.642 464.648ZM99.6851 502.161L79.1876 514.049L99.6851 436.984V502.161Z" fill="#525248"/>
<path opacity="0.3" d="M164.642 464.648L162.638 465.819V400.506L138.421 386.53L108.465 403.902L133.174 311.01L108.974 297.034L67.3171 321.047L-0.00012207 572.773V608.792L24.2674 622.768L99.753 579.192V605.175L123.953 619.151L162.706 596.786V542.833L188.909 527.702V478.624L164.642 464.648ZM99.6851 502.161L79.1876 514.049L99.6851 436.984V502.161Z" fill="#ffff00"/>
<path d="M162.638 493.772V400.557L123.885 422.923V516.138L70.3909 547.011L133.191 310.976L91.5337 335.023L24.1995 586.732V622.768L123.885 565.216V619.151L162.638 596.786V542.833L188.841 527.702V478.624L162.638 493.772Z" fill="#525248"/>
<path opacity="0.3" d="M162.638 493.772V400.557L123.885 422.923V516.138L70.3909 547.011L133.191 310.976L91.5337 335.023L24.1995 586.732V622.768L123.885 565.216V619.151L162.638 596.786V542.833L188.841 527.702V478.624L162.638 493.772Z" fill="#000000"/>
<path d="M133.191 310.976L108.974 297L67.3173 321.047L91.5338 335.023L133.191 310.976Z" fill="#525248"/>
<path opacity="0.5" d="M133.191 310.976L108.974 297L67.3173 321.047L91.5338 335.023L133.191 310.976Z" fill="#000000"/>
<path d="M138.422 386.581L162.638 400.557L123.885 422.923L106.121 412.682L108.465 403.886L138.422 386.581Z" fill="#525248"/>
<path opacity="0.5" d="M138.422 386.581L162.638 400.557L123.885 422.923L106.121 412.682L108.465 403.886L138.422 386.581Z" fill="#000000"/>
<path d="M123.885 516.138L99.6852 502.161L79.1877 513.998L70.391 547.011L123.885 516.138Z" fill="#525248"/>
<path opacity="0.5" d="M123.885 516.138L99.6852 502.161L79.1877 513.998L70.391 547.011L123.885 516.138Z" fill="#000000"/>
<path d="M188.842 478.624L164.642 464.648L162.638 465.819V493.772L188.842 478.624Z" fill="#525248"/>
<path opacity="0.5" d="M162.638 493.772L188.842 478.624L164.642 464.648L162.638 465.819V493.772Z" fill="#000000"/>
<path d="M24.1994 586.732L-0.00012207 572.773L67.3171 321.047L91.5337 335.023L24.1994 586.732Z" fill="#525248"/>
<path opacity="0.15" d="M24.1994 586.732L-0.00012207 572.773L67.3171 321.047L91.5337 335.023L24.1994 586.732Z" fill="#ffff00"/>
<path d="M573.068 595.364C566.295 592.274 559.129 590.131 551.772 588.996C547.271 588.25 542.674 588.29 538.186 589.115C534.991 589.768 531.896 590.842 528.982 592.308C518.997 597.266 517.553 602.786 517.23 607.456C516.908 612.126 519.489 618.375 527.742 624.149L669.39 723.376C695.173 709.64 719.135 692.73 740.715 673.041C679.172 644.443 578.74 597.793 573.068 595.364Z" fill="#272723"/>
<path d="M618.393 386.535C627.088 388.233 630.484 388.828 634.645 396.028C638.806 403.228 645.87 429.992 647.806 435.546C649.742 441.099 650.319 443.12 649.504 449.301C648.672 455.754 644.868 467.217 643.272 473.501C642.525 476.405 642.032 479.241 641.489 482.212C640.737 485.254 639.773 488.239 638.602 491.145C638.101 492.562 637.226 493.818 636.071 494.779C635.358 495.408 634.373 495.476 633.694 496.053C633.015 496.63 632.828 497.649 631.877 498.125C630.926 498.6 629.601 498.328 628.667 498.872C627.746 499.547 626.788 500.171 625.797 500.74C624.885 501.005 624.052 501.489 623.369 502.15C622.757 502.812 622.18 504.306 621.076 504.187C619.972 504.068 619.65 502.88 619.599 501.861C619.638 499.861 620.316 497.927 621.535 496.342C622.618 494.576 623.803 492.875 625.084 491.247C626.331 489.737 627.225 487.967 627.699 486.067C628.09 484.794 627.971 483.18 626.324 483.911C624.405 484.794 622.367 486.628 620.057 486.22C618.461 485.949 618.359 484.692 619.293 483.639C620.829 481.904 622.236 480.059 623.505 478.12C624.795 476.133 625.865 474.044 627.207 472.108C627.931 471.102 628.72 470.143 629.567 469.238C631.911 466.691 631.809 463.209 632.081 459.966C632.454 455.466 632.777 443.918 632.777 443.918L622.248 417.986L618.393 386.535Z" fill="#797474"/>
<path d="M632.098 459.966C632.199 454.616 632.42 449.267 632.624 443.918C629.228 435.664 625.593 426.579 622.265 417.986C625.933 426.579 629.499 435.212 632.964 443.884C632.692 449.25 632.454 454.616 632.098 459.966Z" fill="#000000"/>
<path d="M559.686 587.926C562.675 586.873 564.899 586.771 564.865 588.249C564.46 590.07 563.815 591.829 562.946 593.479L560.569 596.757L559.431 599.984C559.431 599.984 558.038 601.682 557.954 601.852C557.869 602.021 557.41 595.823 557.41 595.823C557.41 595.823 555.729 588.69 559.686 587.926Z" fill="#272723"/>
<path d="M591.782 461.851C591.782 461.851 584.989 469.917 580.964 485.031C577.251 499.078 574.415 513.342 572.473 527.741C571.505 534.178 569.943 542.295 567.633 554.913C565.85 564.627 560.246 594.413 560.246 594.413C560.246 594.413 563.473 599.78 567.379 601.41C572.983 603.754 578.383 602.684 579.096 597.674C579.096 597.674 582.798 591.764 588.419 576.514C591.122 569.513 593.279 562.314 594.873 554.981C595.429 550.378 595.594 545.737 595.365 541.106L617.918 501.895C620.41 497.599 623.397 493.609 626.816 490.007C628.929 487.845 630.586 485.281 631.69 482.467C635.426 472.278 629.992 458.573 629.992 458.573L591.782 461.851Z" fill="#272723"/>
<path d="M572.558 527.725C568.924 550.056 564.763 572.303 560.331 594.481C564.237 572.201 568.415 549.971 572.558 527.725Z" fill="#000000"/>
<path d="M563.761 611.65L562.556 611.413C562.641 610.954 571.675 564.457 577.992 544.928C584.31 525.398 600.867 486.611 601.037 486.22L602.175 486.713C602.005 487.086 585.482 525.857 579.181 545.318C572.881 564.78 563.863 611.192 563.761 611.65Z" fill="#ffff00"/>
<path d="M621.467 474.91H584.429C583.073 478.199 581.939 481.575 581.032 485.015C577.608 497.948 574.971 511.076 573.135 524.328C574.036 530.391 575.055 536.623 575.989 540.903C578.485 552.213 580.047 560.194 582.017 564.865C583.919 568.812 586.163 572.586 588.725 576.141C591.362 569.282 593.469 562.23 595.026 555.049C595.582 550.446 595.746 545.805 595.518 541.174L617.595 502.88L619.174 496.851C624.659 487.732 624.031 480.888 621.467 474.91Z" fill="#ffff00"/>
<path d="M529.322 602.989C528.659 602.684 527.844 605.282 527.776 606.216C527.708 607.15 529.475 610.954 534.111 613.756C538.747 616.558 546.711 618.121 549.7 619.055C552.689 619.989 555.084 622.451 559.023 624.37C562.522 626.068 567.803 626.968 570.113 625.932C570.558 625.667 570.941 625.307 571.234 624.879C571.528 624.451 571.724 623.965 571.811 623.453C572.439 621.534 572.388 621.092 572.151 621.025L529.322 602.989Z" fill="#2f2f2e"/>
<path d="M573.798 616.779C573.493 618.74 572.844 620.632 571.879 622.366C571.204 622.874 570.434 623.243 569.614 623.45C568.795 623.657 567.943 623.699 567.107 623.572C563.511 623.314 560.048 622.107 557.071 620.074C554.797 618.594 552.343 617.413 549.768 616.558C546.226 615.704 542.747 614.603 539.358 613.264C536.83 612.196 534.477 610.753 532.378 608.984C530.68 607.388 529.101 605.588 529.271 603.346C529.652 601.935 530.46 600.676 531.585 599.743C532.71 598.809 534.097 598.247 535.554 598.133C538.344 597.991 541.133 598.413 543.757 599.372C546.305 600.235 548.942 600.805 551.619 601.071C553.453 601.223 555.61 602.769 557.037 601.155C558.735 599.287 559.397 594.872 560.535 592.664C560.722 592.308 560.976 591.917 561.367 591.832C561.758 591.747 562.403 592.223 562.76 592.698C564.422 594.773 566.552 596.426 568.975 597.521C575.53 600.765 578.57 599.05 578.57 599.05L579.181 597.691C579.181 597.691 580.489 598.421 578.825 601.478C577.421 603.991 576.239 606.622 575.292 609.341C574.466 611.743 573.964 614.244 573.798 616.779Z" fill="#1d1d1d"/>
<path d="M529.322 603.346C531.376 595.738 540.003 597.776 545.574 599.695C547.547 600.39 549.592 600.863 551.67 601.104C549.57 601.01 547.492 600.639 545.489 600.001C539.986 598.302 531.716 596.129 529.322 603.397V603.346Z" fill="#000000"/>
<path d="M544.979 599.712C542.177 599.967 541.413 604.501 541.413 604.501C543.923 605.849 546.656 606.735 549.479 607.116C551.443 607.456 553.463 607.051 555.143 605.98C556.824 604.909 558.044 603.249 558.565 601.325C559.754 597.538 558.667 592.24 558.446 590.525C558.317 589.935 558.422 589.319 558.739 588.806C559.056 588.293 559.56 587.922 560.144 587.773C559.663 587.818 559.197 587.962 558.774 588.195C558.351 588.428 557.981 588.745 557.686 589.127C557.391 589.51 557.179 589.949 557.061 590.417C556.943 590.885 556.923 591.373 557.002 591.849C557.087 593.887 557.002 597.912 556.136 599.253C555.27 600.595 550.94 601.189 544.979 599.712Z" fill="#1d1d1d"/>
<path d="M615.183 461.851C619.263 466.671 621.649 472.696 621.976 479.003C622.256 485.129 620.335 491.153 616.559 495.985C615.149 516.635 611.074 556.39 611.074 556.39C616.525 561.995 617.867 565.629 621.093 575.682C623.012 581.796 630.213 601.444 631.996 606.912C622.452 608.084 617.255 617.577 617.255 617.577C617.255 617.577 600.443 592.749 592.359 578.145C586.365 567.344 583.597 563.404 581.814 557.019C579.606 549.054 579.011 544.945 577.042 531.546C575.072 518.147 573.187 501.097 572.219 487.884C571.251 474.672 570.52 460.713 570.52 460.713L615.183 461.851Z" fill="#272723"/>
<path d="M617.323 617.526C607.524 603.091 597.913 588.487 589.489 573.203C586.719 568.746 584.338 564.058 582.374 559.192C580.802 554.193 579.599 549.084 578.774 543.909C574.439 516.318 571.695 488.5 570.554 460.594L571.981 481.482C573.271 502.387 575.87 523.19 579.198 543.841C580.404 550.633 581.661 557.647 584.751 563.896C594.664 582.341 605.536 600.253 617.323 617.56V617.526Z" fill="#000000"/>
<path d="M593.565 562.827C588.623 550.226 582.697 481.635 583.002 457.928H581.763C581.661 465.859 582.255 478.782 583.274 492.962C579.249 490.924 576.651 487.188 576.651 468.406H575.411C575.411 487.29 577.874 491.858 583.376 494.389C585.448 522.477 589.15 554.964 592.41 563.302C597.25 575.631 622.503 617.288 622.74 617.645L623.81 617C623.556 616.626 598.371 575.071 593.565 562.827Z" fill="#ffff00"/>
<path d="M615.93 615.42C614.419 617.56 612.704 619.072 617 621.925C620.397 624.115 620.516 625.881 621.552 628.225C622.226 630.51 622.502 632.894 622.367 635.273C622.367 635.273 628.073 626.663 626.409 621.109C624.744 615.556 615.93 615.42 615.93 615.42Z" fill="#1d1d1d"/>
<path d="M634.22 610.496C635.828 612.191 637.718 613.593 639.807 614.639C641.251 615.539 642.745 616.337 643.204 618.036C643.204 618.222 642.355 619.241 642.372 619.428C642.445 620.238 642.417 621.054 642.287 621.857C641.964 624.659 640.436 626.731 640.096 629.516C639.985 630.628 639.786 631.729 639.502 632.81C639.257 634.126 639.149 635.463 639.179 636.801C639.094 638.193 638.992 639.586 638.924 640.979C638.848 641.57 638.848 642.17 638.924 642.762C639.043 643.356 629.567 648.128 625.746 649.962C625.52 650.071 625.287 650.168 625.05 650.251C622.719 650.885 620.236 650.643 618.07 649.572C610.462 646.803 610.938 644.052 610.938 644.052C610.977 642.913 611.337 641.808 611.977 640.864C612.617 639.921 613.511 639.177 614.555 638.72C615.018 638.45 615.507 638.228 616.015 638.058C617.909 637.355 619.973 637.254 621.925 637.769C622.311 636.638 622.489 635.447 622.452 634.254C622.607 632.469 622.636 630.676 622.537 628.887C622.199 626.866 621.416 624.946 620.244 623.266C618.631 621.041 616.848 618.172 615.778 616.609C614.708 615.047 614.419 611.277 620.753 606.743C626.833 602.412 631.282 603.346 632.148 605.129C632.631 606.992 633.326 608.792 634.22 610.496Z" fill="#1d1d1d"/>
<path d="M610.836 644.069C610.836 638.822 617.527 636.19 621.891 637.735C617.425 636.903 611.481 638.975 610.836 644.069Z" fill="#000000"/>
<path opacity="0.1" d="M617.867 640.486C618.374 639.191 619.333 638.123 620.567 637.48C621.014 637.532 621.457 637.617 621.891 637.735C621.127 638.465 618.393 639.552 617.867 640.486Z" fill="#ffff00"/>
<path d="M644.087 619.683C645.785 620.396 644.376 623.079 642.389 627.24C640.593 630.315 639.876 633.901 640.351 637.429C640.758 641.114 639.892 642.915 638.296 644.222C636.7 645.53 624.846 650.709 624.846 650.709C627.665 647.15 629.298 642.797 629.516 638.261C630.162 630.144 630.943 624.93 634.985 621.381C636.241 620.364 637.732 619.676 639.321 619.38C640.91 619.083 642.548 619.188 644.087 619.683Z" fill="#ffff00"/>
<path d="M610.836 644.052C611.023 645.649 615.557 648.875 620.906 648.807C626.256 648.739 626.714 647.602 627.546 641.335C628.378 635.069 628.956 626.357 631.673 622.655C634.39 618.953 637.956 616.711 643.17 618.07C643.764 618.358 645.378 619.972 644.783 621.466C644.783 621.466 644.783 620.277 642.643 619.649C640.809 619.123 638.619 619.173 635.562 621.823C631.979 624.896 631.18 632.148 630.773 638.363C630.365 644.579 628.429 650.539 623.284 651.1C621.063 651.401 618.803 651.213 616.661 650.55C614.52 649.887 612.55 648.765 610.887 647.262C610.565 646.219 610.547 645.105 610.836 644.052Z" fill="#2f2f2e"/>
<path d="M580.166 347.544C579.473 346.568 579.046 345.429 578.927 344.238C578.808 343.046 579.001 341.845 579.487 340.751C580.353 338.543 582.153 336.217 587.401 333.5C593.65 330.273 610.802 327.964 619.293 339.189C620.516 340.887 603.636 372.559 604.468 379.131C600.086 374.529 585.635 358.345 585.635 358.345C582.238 356.884 580.132 355.644 579.402 352.418C579.138 350.753 579.405 349.048 580.166 347.544Z" fill="#272723"/>
<path d="M585.634 358.26C580.54 356.918 577.296 352.452 580.166 347.493C577.992 352.588 580.896 356.29 585.634 358.26Z" fill="#000000"/>
<path d="M580.166 347.544C578.026 345.2 578.553 341.43 580.166 338.917C582.04 336.479 584.54 334.594 587.401 333.466C586.096 334.217 584.837 335.045 583.631 335.945C580.081 338.408 577.432 343.587 580.234 347.544H580.166Z" fill="#000000"/>
<path d="M582.747 356.562C582.747 356.562 578.111 364.119 578.638 364.747C579.704 365.595 580.84 366.35 582.034 367.006L582.747 356.562Z" fill="#bbbbb3"/>
<path d="M582.747 356.562C581.593 358.99 580.2 361.283 579.062 363.694C578.91 364.085 578.587 364.543 578.808 364.815C579.099 365.151 579.443 365.438 579.827 365.664C579.368 365.409 578.604 365.205 578.502 364.594C579.437 361.689 580.874 358.97 582.747 356.562Z" fill="#000000"/>
<path d="M588.487 342.738C585.38 344.216 582.696 346.593 581.695 353.403C581.44 355.186 582.832 357.614 582.204 359.975C579.504 370.164 582.713 378.655 584.683 380.438C586.008 381.695 592.971 382.256 596.571 381.237C601.139 379.963 611.074 375.48 615.812 368.33C621.382 359.839 622.605 348.631 616.474 344.097C607.83 337.711 591.799 341.176 588.487 342.738Z" fill="#797474"/>
<path d="M581.729 353.403C581.729 355.712 583.087 357.971 582.306 360.332C580.862 366.904 580.761 374.715 584.717 380.438C580.37 374.902 580.37 366.853 582.034 360.264C582.815 358.022 581.525 355.729 581.729 353.471V353.403Z" fill="#000000"/>
<path d="M612.245 373.136L614.045 385.652C616.848 386.246 617.102 389.558 615.744 392.054L616.406 395.587L597.25 399.017L595.11 381.508L612.245 373.136Z" fill="#797474"/>
<path d="M585.091 380.693C586.789 381.593 590.271 382.255 595.128 381.576L594.839 379.097C593.298 379.675 591.714 380.129 590.101 380.455C588.452 380.782 586.764 380.862 585.091 380.693Z" fill="#bbbbb3"/>
<path d="M583.902 346.372C583.773 347.842 584.158 349.31 584.991 350.527C585.824 351.745 587.054 352.635 588.47 353.046C587.714 354.673 587.432 356.48 587.655 358.26C587.719 359.311 588.082 360.322 588.702 361.174C589.322 362.025 590.173 362.682 591.154 363.066C592.495 363.524 592.852 362.93 593.378 361.86C594.058 360.349 594.924 358.039 598.167 358.464C601.886 358.973 602.871 364.577 600.698 368.245C600.28 369.021 599.68 369.683 598.949 370.174C598.218 370.665 597.379 370.971 596.503 371.064C596.021 371.057 595.546 370.947 595.11 370.742C594.673 370.537 594.286 370.242 593.973 369.876C593.973 369.876 594.21 374.766 600.511 377.67C604.451 379.766 609.016 380.369 613.366 379.369C616.295 376.115 619.055 372.715 621.636 369.179C628.429 359.262 629.873 341.108 618.24 337.847C617.68 337.694 607.1 336.149 601.937 337.338C586.025 340.734 583.936 345.608 583.902 346.372Z" fill="#272723"/>
<path d="M612.619 336.574C611.212 337.587 610.246 339.1 609.919 340.802C609.773 341.651 609.854 342.523 610.152 343.331C610.45 344.138 610.955 344.854 611.617 345.404C615.014 348.07 620.312 344.963 620.94 341.023C621.654 336.37 616.049 334.026 612.619 336.574Z" fill="#525248"/>
<path d="M615.387 338.051C611.906 340.191 609.732 345.234 611.583 348.869C612.093 349.854 612.806 350.737 613.281 351.773C614.623 355.084 612.67 358.735 612.246 362.285C611.955 365.102 612.443 367.945 613.655 370.504C614.81 372.389 617.357 372.864 618.376 374.834C619.072 376.193 618.597 377.857 618.869 379.369C619.463 382.612 623.301 384.175 626.612 384.242C628.012 384.366 629.423 384.181 630.743 383.7C632.064 383.219 633.262 382.453 634.254 381.457C635.014 380.278 635.842 379.144 636.734 378.061C638.704 376.21 641.828 376.363 644.002 374.665C644.806 373.955 645.436 373.069 645.842 372.077C646.249 371.084 646.421 370.011 646.346 368.942C646.145 366.798 645.57 364.705 644.647 362.76C643.238 359.364 644.359 357.173 645.072 353.726C645.406 351.864 645.098 349.943 644.197 348.28C643.295 346.617 641.856 345.309 640.113 344.572C637.719 343.621 634.798 343.774 632.862 342.059C631.944 340.972 631.082 339.838 630.281 338.662C626.646 334.672 619.48 335.555 615.387 338.051Z" fill="#272723"/>
<path d="M629.058 395.892C628.295 393.816 627.085 391.933 625.516 390.375C623.946 388.817 622.054 387.622 619.972 386.875C618.274 386.365 614.046 385.652 614.046 385.652C615.014 387.86 613.383 389.32 610.513 389.982C606.828 390.848 601.207 390.933 597.386 388.403L595.824 387.435C591.654 388.46 587.539 389.696 583.495 391.137C582.663 391.528 578.06 393.073 570.826 409.325C567.735 416.271 568.652 423.318 574.341 428.328C574.664 432.726 571.828 442.627 571.828 442.627C570.386 450.89 570.055 459.308 570.843 467.659C570.843 467.659 574.239 476.659 601.173 476.557C622.01 476.557 632.488 466.368 632.488 466.368C632.233 461.273 624.218 443.391 625.016 437.38C626.256 428.617 634.288 412.908 629.058 395.892Z" fill="#525248"/>
<path d="M583.495 391.137C588.98 395.603 589.404 401.734 588.589 410.004C587.774 418.275 579.47 444.121 577.772 449.742C576.074 455.364 573.645 457.317 569.366 461.868C565.086 466.419 555.084 473.653 550.108 477.797C547.798 479.716 545.743 481.72 543.553 483.809C541.159 485.827 538.629 487.677 535.979 489.345C534.74 490.192 533.298 490.696 531.801 490.805C530.85 490.805 530.018 490.364 529.118 490.432C528.218 490.5 527.42 491.213 526.435 491.043C525.45 490.873 524.465 489.871 523.395 489.752C522.261 489.768 521.127 489.717 519.998 489.6C519.104 489.268 518.14 489.169 517.196 489.311C516.313 489.481 514.972 490.347 514.14 489.617C513.307 488.886 513.766 487.715 514.309 486.848C515.511 485.228 517.202 484.037 519.132 483.452C521.043 482.662 523 481.987 524.991 481.431C526.865 480.928 528.605 480.018 530.086 478.765C531.139 477.967 531.988 476.574 530.239 476.218C528.167 475.793 525.433 476.082 523.785 474.401C522.665 473.246 523.327 472.176 524.703 471.87C526.963 471.371 529.183 470.701 531.343 469.866C533.55 469.017 535.639 467.947 537.864 467.166C539.05 466.783 540.258 466.471 541.481 466.232C544.877 465.536 546.83 462.666 548.936 460.203C551.891 456.807 556.969 450.32 560.416 445.667L565.629 420.448C568.924 406.761 570.079 395.281 583.495 391.137Z" fill="#797474"/>
<path d="M588.555 410.004C587.23 417.476 585.409 424.851 583.104 432.081C582.934 432.676 582.747 433.253 582.578 433.779C580.489 440.861 578.468 447.246 577.721 449.726C576.192 454.82 574.036 456.926 570.452 460.662L569.314 461.851C564.848 466.589 555.033 473.637 550.057 477.797C547.764 479.716 545.692 481.703 543.519 483.792C541.12 485.816 538.583 487.672 535.928 489.345C534.687 490.187 533.246 490.685 531.75 490.789C530.799 490.873 529.967 490.347 529.067 490.415C528.167 490.483 527.369 491.196 526.384 491.026C525.399 490.856 524.414 489.854 523.344 489.753C522.209 489.763 521.075 489.706 519.947 489.583C519.051 489.259 518.089 489.16 517.145 489.294C516.874 489.294 516.551 489.481 516.211 489.6L515.787 489.736C515.595 489.807 515.396 489.852 515.192 489.871C515.002 489.91 514.806 489.905 514.618 489.858C514.43 489.811 514.255 489.723 514.106 489.6C513.172 488.785 513.715 487.715 514.258 486.849C515.459 485.227 517.15 484.036 519.081 483.452C520.992 482.657 522.948 481.976 524.94 481.414C526.814 480.911 528.554 480.001 530.035 478.748C531.088 477.95 531.937 476.574 530.188 476.201C528.116 475.776 525.382 476.065 523.751 474.401C522.614 473.229 523.276 472.159 524.651 471.853C526.913 471.356 529.133 470.686 531.291 469.849C533.499 469 535.605 467.931 537.813 467.166C538.995 466.772 540.204 466.46 541.43 466.232C544.826 465.536 546.779 462.649 548.885 460.204C551.84 456.807 556.918 450.303 560.382 445.65L565.578 420.431C568.873 406.676 570.079 395.196 583.444 391.069C584.823 392.187 585.976 393.559 586.84 395.111C589.116 399.119 589.167 403.993 588.555 410.004Z" fill="#797474"/>
<path d="M514.038 489.617C513.721 489.296 513.533 488.87 513.507 488.42C513.482 487.969 513.623 487.526 513.902 487.171C515.175 484.709 517.944 483.656 520.389 482.824C522.015 482.06 523.725 481.49 525.484 481.126C527.153 480.61 528.721 479.811 530.12 478.765C528.796 479.953 527.249 480.865 525.569 481.448C522.177 482.28 518.919 483.584 515.889 485.32C514.768 486.22 512.815 488.105 514.106 489.549L514.038 489.617Z" fill="#000000"/>
<path d="M523.785 474.468C521.68 472.057 525.755 471.751 527.284 471.242C531.325 470.206 534.892 467.981 538.866 466.861C540.903 466.549 542.852 465.814 544.589 464.704C547.357 462.513 550.329 458.115 552.621 455.347L560.263 445.616C561.961 437.125 564.661 423.896 566.682 415.269C568.839 405.079 572.151 394.194 583.495 391.137C572.32 394.313 569.06 405.13 566.988 415.337C564.95 424.099 562.505 436.921 560.586 445.905L552.876 455.618C550.515 458.403 547.611 462.717 544.741 464.975C542.982 466.089 541.01 466.824 538.951 467.132C534.977 468.236 531.359 470.41 527.318 471.378C525.772 471.87 521.731 472.091 523.785 474.519V474.468Z" fill="#000000"/>
<path opacity="0.3" d="M621.891 501.606C621.891 502.266 622.073 502.912 622.418 503.474C622.774 503.033 623.08 502.489 623.386 502.15C624.069 501.489 624.902 501.005 625.814 500.74C626.805 500.171 627.763 499.547 628.684 498.872C629.601 498.329 630.824 498.651 631.894 498.125C632.964 497.598 632.998 496.664 633.711 496.053C634.424 495.442 635.409 495.408 636.088 494.779C637.243 493.818 638.117 492.562 638.619 491.145C639.789 488.239 640.754 485.254 641.506 482.213C642.049 479.241 642.542 476.405 643.289 473.501C644.885 467.217 648.689 455.754 649.521 449.301C650.319 443.12 649.742 441.082 647.823 435.546C645.904 430.009 638.822 403.28 634.662 396.028C630.722 389.235 627.444 388.318 619.701 386.79L619.242 386.671L618.461 386.501L617.85 386.365L617.068 386.212L616.61 386.128L615.489 385.907L614.64 385.754H614.419H614.062L613.162 379.488H613.383C614.759 377.789 616.27 376.176 617.85 374.274C618.042 374.497 618.208 374.742 618.342 375.004C619.055 376.363 618.563 378.01 618.834 379.522C619.429 382.782 623.267 384.327 626.578 384.412C627.979 384.529 629.389 384.339 630.709 383.855C632.029 383.371 633.227 382.605 634.22 381.61C634.985 380.435 635.813 379.301 636.7 378.214C638.67 376.363 641.794 376.516 643.985 374.817C644.787 374.103 645.415 373.214 645.818 372.219C646.221 371.224 646.39 370.149 646.312 369.077C646.119 366.932 645.544 364.839 644.613 362.896C643.204 359.5 644.325 357.309 645.038 353.878C645.375 352.016 645.069 350.095 644.171 348.429C643.273 346.763 641.837 345.451 640.096 344.708C637.685 343.757 634.764 343.927 632.828 342.195C631.915 341.108 631.059 339.974 630.263 338.798C627.546 335.826 622.876 335.572 618.97 336.659C618.005 335.989 616.85 335.65 615.676 335.691C610.377 331.581 603.466 330.596 597.539 331.071C595.308 332.008 593.292 333.389 591.612 335.13C586.28 340.412 583.121 348.172 584.514 355.509C584.785 356.884 585.21 358.209 585.431 359.584C585.991 363.1 585.21 366.683 585.227 370.249C585.244 373.815 586.365 377.755 589.455 379.505C591.799 380.812 594.669 380.557 597.335 380.897C601.716 381.457 601.207 384.158 601.377 387.877C601.451 388.446 601.404 389.025 601.241 389.575C601.174 389.773 601.07 389.958 600.935 390.118C599.798 391.528 596.571 392.088 595.144 392.564C592.317 393.249 589.555 394.181 586.891 395.349C585.668 395.97 584.608 396.872 583.8 397.981C580.557 402.532 579.181 407.95 577.806 413.265C576.532 418.19 575.19 423.115 573.781 428.006C572.513 432.444 571.188 436.859 569.807 441.252C568.732 445.249 567.121 449.082 565.018 452.647C562.386 456.671 558.616 459.796 555.219 463.227C547.526 471.004 541.09 480.956 530.799 484.692C526.842 486.118 522.597 486.509 518.538 487.596C517.128 487.969 515.532 488.717 515.141 490.024C515.345 490.005 515.545 489.96 515.736 489.888L516.16 489.753C516.5 489.634 516.823 489.515 517.094 489.447C518.038 489.312 519 489.412 519.897 489.736C521.024 489.859 522.158 489.916 523.293 489.905C524.363 490.007 525.161 490.992 526.333 491.179C527.504 491.366 528.031 490.636 529.016 490.568C530.001 490.5 530.714 491.026 531.699 490.941C533.195 490.837 534.636 490.339 535.877 489.498C538.532 487.824 541.069 485.969 543.468 483.945C545.641 481.856 547.713 479.869 550.006 477.95C554.982 473.789 564.797 466.742 569.264 462.004L570.401 460.815C573.968 457.096 576.124 455.007 577.653 449.896C578.4 447.416 580.421 441.031 582.51 433.949L583.036 432.251C583.82 433.206 584.23 434.413 584.191 435.648C584.819 443.901 586.789 452.256 588.131 460.475C589.082 466.334 590.05 472.193 590.491 478.103C590.831 482.382 590.882 486.594 590.95 490.941L591.357 521.509C591.357 523.207 591.357 524.906 591.442 526.706C591.464 531.516 591.793 536.321 592.427 541.09C592.981 545.293 593.896 549.44 595.161 553.487C595.467 554.472 595.79 555.457 596.146 556.442C599.662 566.206 605.181 575.122 610.496 583.919C615.889 593.318 620.726 603.026 624.982 612.992C625.854 614.735 626.494 616.585 626.884 618.494C627.427 621.789 626.527 625.134 626.273 628.463C626.018 631.791 626.392 634.984 626.273 638.244C626.346 641.526 625.396 644.749 623.556 647.466C622.228 649.176 620.39 650.42 618.308 651.015C619.94 651.299 621.604 651.351 623.25 651.168C624.199 651.081 625.114 650.766 625.916 650.251C630.118 648.479 634.222 646.483 638.211 644.273C639.807 643 640.674 641.182 640.283 637.48C639.792 633.953 640.504 630.364 642.304 627.291C643.393 625.424 644.227 623.419 644.783 621.33C645.208 619.887 643.713 618.392 643.085 618.104C642.66 616.405 641.166 615.59 639.689 614.707C637.604 613.662 635.719 612.259 634.118 610.564C633.199 608.854 632.486 607.041 631.996 605.163C631.778 604.75 631.441 604.413 631.028 604.195C628.412 596.672 622.723 581.032 621.042 575.716C617.883 565.646 616.474 562.012 611.023 556.408C611.023 556.408 614.029 527.062 615.778 505.716L617.883 502.031C618.104 501.64 618.325 501.266 618.563 500.893C620.921 497.049 623.676 493.463 626.782 490.194C627.088 489.871 627.393 489.498 627.699 489.141C627.241 489.905 626.799 490.67 626.29 491.417C624.269 494.508 621.738 497.819 621.891 501.606ZM632.284 466.589L632.488 466.402C632.386 465.297 632.175 464.205 631.86 463.142C631.469 461.698 630.926 459.983 630.331 458.132C630.145 457.554 629.941 456.96 629.737 456.434C629.041 454.362 628.294 452.154 627.614 450.014C627.393 449.352 627.19 448.69 627.003 448.044C626.816 447.399 626.561 446.618 626.375 445.939C626.188 445.259 626.103 444.971 625.984 444.495C625.984 444.342 625.899 444.173 625.865 444.02C625.831 443.867 625.712 443.391 625.644 443.103C625.508 442.542 625.39 442.016 625.305 441.506L625.203 440.946C625.194 440.816 625.194 440.685 625.203 440.555C625.153 440.309 625.119 440.059 625.101 439.808V439.299C625.085 438.993 625.085 438.687 625.101 438.382C625.083 438.088 625.083 437.793 625.101 437.499C625.56 434.862 626.19 432.259 626.986 429.704C627.529 427.734 628.141 425.628 628.684 423.386C630.297 426.392 631.86 429.398 633.422 432.421C634.764 434.811 635.901 437.31 636.819 439.893C638.687 445.769 638.228 452.137 637.515 458.268C636.769 465.261 635.219 472.144 632.896 478.782C633.393 474.713 633.186 470.588 632.284 466.589Z" fill="#ffff00"/>
</svg>