<svg class="svg-icon" style="width: 1em; height: 1em;vertical-align: middle;fill: currentColor;overflow: hidden;" viewBox="0 0 1024 1024" version="1.1" xmlns="http://www.w3.org/2000/svg"><path d="M284.624 277.724v-0.084l-102-58.656-101.796 58.992 0.124 117.64 101.656 58.7V337.004z" fill="#FFD552" /><path d="M284.624 277.724l-102.016 59.28v117.312l102.184-58.992z" fill="#F68F6F" /><path d="M311.64 262.004L182.596 187.74l-128.84 74.644 0.196 148.892 128.652 74.264 129.232-74.636-0.196-148.9zM182.616 202.156L293.144 265.76 182.608 329.792l-110.16-63.816 110.168-63.82zM66.252 276.808L176.368 340.6v126.928l-109.94-63.46-0.176-127.26z m122.596 190.716V340.6l110.332-63.916 0.172 127.024-110.504 63.816zM519.232 350.132h-12.48v-12.48h12.48v12.48z m0-24.96h-12.48v-12.48h12.48v12.48zM189.228 536.272h-12.48v-12.48h12.48v12.48z m0-24.96h-12.48v-12.48h12.48v12.48zM847.632 536.272h-12.48v-12.48h12.48v12.48z m0-24.96h-12.48v-12.48h12.48v12.48zM322.384 265.076l-6.092-10.892 10.892-6.092 6.092 10.892-10.892 6.092z m21.784-12.184L338.076 242l10.892-6.092 6.092 10.892-10.892 6.092z m21.78-12.184l-6.088-10.892 10.892-6.092 6.088 10.892-10.892 6.092zM374.364 806.288l-10.892-6.092 6.092-10.892 10.892 6.092-6.092 10.892z m-21.784-12.184l-10.892-6.092 6.092-10.892 10.892 6.092-6.092 10.892z m-21.784-12.184l-10.892-6.092 6.092-10.892 10.892 6.092-6.092 10.892zM651.788 806.288l-6.092-10.892 10.892-6.092 6.092 10.892-10.892 6.092z m21.78-12.184l-6.092-10.892 10.892-6.092 6.092 10.892-10.892 6.092z m21.788-12.184l-6.092-10.892 10.892-6.092 6.092 10.892-10.892 6.092zM703.976 265.076l-10.892-6.092 6.092-10.892 10.892 6.092-6.092 10.892z m-21.784-12.184l-10.892-6.092 6.092-10.892 10.892 6.092-6.092 10.892z m-21.784-12.184l-10.892-6.092 6.092-10.892 10.892 6.092-6.092 10.892zM519.232 714.664h-12.48v-12.48h12.48v12.48z m0-24.96h-12.48v-12.48h12.48v12.48z" fill="#4A555F" /><path d="M411.36 207.888l-0.16-117.676 101.832-58.988 101.976 58.684 0.156 117.676-101.824 58.992z" fill="#FFD552" /><path d="M615.376 89.984l-102 59.28-0.036 117.312 101.824-58.992z" fill="#F68F6F" /><path d="M642.028 74.256L512.98 0l-128.84 74.64 0.2 148.9 129.048 74.256 128.836-74.64-0.196-148.9zM513.004 14.408l110.612 63.556-110.624 64.084-110.16-63.82 110.172-63.82zM396.64 89.068l110.496 64.012v126.724L396.812 216.316l-0.172-127.248z m233.096 126.904l-110.12 63.796V152.636l110.12-63.796v127.132z" fill="#4A555F" /><path d="M410.32 215.896l-6.092-10.892 10.892-6.092 6.092 10.892-10.892 6.092z m21.788-12.184l-6.092-10.892 10.892-6.092 6.092 10.892-10.892 6.092zM616.04 215.896l-10.892-6.092 6.092-10.892 10.892 6.092-6.092 10.892z m-21.78-12.184l-10.896-6.092 6.092-10.892 10.896 6.092-6.092 10.892z" fill="#4A555F" /><path d="M411.36 570.992l-0.16-117.68 101.832-58.988 101.976 58.684 0.156 117.676-101.824 58.992z" fill="#71CDE1" /><path d="M615.376 453.084l-102 59.28-0.036 117.312 101.824-58.988z" fill="#F68F6F" /><path d="M512.98 363.1l-128.84 74.644v148.896l129.248 74.26 128.836-74.644V437.36l-129.244-74.26z m0.024 14.412l110.528 63.604-110.54 64.036-110.16-63.816 110.172-63.824zM396.64 453.8l110.496 62.464v126.64l-110.324-63.488-0.172-125.616z m122.976 189.064v-127.124l109.952-63.696 0.168 127.028-110.12 63.792z" fill="#4A555F" /><path d="M519.232 450.44h-12.48v-12.48h12.48v12.48z m0-24.96h-12.48v-12.48h12.48v12.48z m0-24.96h-12.48v-12.48h12.48v12.48z" fill="#4A555F" /><path d="M411.36 934.092l-0.16-117.676 101.832-58.988 101.976 58.684 0.156 117.676-101.824 58.988z" fill="#FFD552" /><path d="M615.376 816.188l-102 59.28-0.036 117.308 101.824-58.988z" fill="#F68F6F" /><path d="M642.028 800.46l-129.048-74.26-128.84 74.64 0.2 148.9L513.388 1024l128.836-74.64-0.196-148.9z m-129.024-59.848l110.528 63.604-110.54 64.04-110.16-63.82 110.172-63.824zM396.64 815.272l110.496 64.012v126.724L396.812 942.52l-0.172-127.248z m122.976 190.696V878.84l109.952-63.696 0.168 127.032-110.12 63.792z" fill="#4A555F" /><path d="M519.232 814.972h-12.48v-12.48h12.48v12.48z m0-24.96h-12.48v-12.48h12.48v12.48z m0-24.96h-12.48v-12.48h12.48v12.48z" fill="#4A555F" /><path d="M739.38 395.632l-0.16-117.676 101.832-58.992 102.132 58.688v117.676l-102.172 58.988z" fill="#FFD552" /><path d="M943.184 277.724l-102.172 59.28v117.312l102.172-58.992z" fill="#F68F6F" /><path d="M970.044 262.004L841 187.74l-128.84 74.644 0.2 148.892 128.652 74.264 129.228-74.636-0.196-148.9z m-129.016-59.848l110.524 63.604-110.536 64.032-110.16-63.816 110.172-63.82z m-116.368 74.652l110.116 63.792v126.928l-109.94-63.46-0.176-127.26z m122.592 190.716V340.6l110.328-63.916 0.172 127.024-110.5 63.816z" fill="#4A555F" /><path d="M739.38 753.728l-0.16-117.676 101.832-58.992 102.132 58.684v117.676l-102.044 58.992z" fill="#FFD552" /><path d="M943.184 635.976l-102.044 59.276v117.312l102.044-58.988z" fill="#F68F6F" /><path d="M970.044 620.096l-129.044-74.26-128.84 74.644 0.2 148.896 129.044 74.26 128.84-74.644-0.2-148.896z m-129.016-59.848l110.528 63.604-110.416 64.032-110.28-63.82 110.168-63.816z m-116.368 74.652l110.248 63.804 0.228 126.924-110.3-63.476-0.176-127.252z m122.952 190.712l-0.228-126.92 110.196-63.908 0.172 127.02-110.14 63.808z" fill="#4A555F" /><path d="M847.632 636.58h-12.48v-12.48h12.48v12.48z m0-24.96h-12.48v-12.48h12.48v12.48z m0-24.96h-12.48v-12.48h12.48v12.48zM739.72 757.104l-6.092-10.892 10.892-6.092 6.092 10.892-10.892 6.092z m21.784-12.18l-6.092-10.892 10.896-6.092 6.092 10.892-10.896 6.092z" fill="#4A555F" /><path d="M80.972 753.728l-0.156-117.676 101.824-58.992 101.98 58.684 0.16 117.676-101.828 58.992z" fill="#FFD552" /><path d="M284.716 635.976l-102 59.276-0.036 117.312 101.824-58.988z" fill="#F68F6F" /><path d="M311.64 620.096l-129.044-74.26-128.84 74.644 0.196 148.896 129.044 74.26 128.84-74.644-0.196-148.896z m-129.024-59.848l110.528 63.604-110.536 64.036-110.16-63.816 110.168-63.824z m-116.364 74.656l110.496 64.012v126.72l-110.324-63.484-0.172-127.248z m122.976 190.7v-127.128l109.948-63.696 0.172 127.028-110.12 63.796z" fill="#4A555F" /><path d="M189.228 636.58h-12.48v-12.48h12.48v12.48z m0-24.96h-12.48v-12.48h12.48v12.48z m0-24.96h-12.48v-12.48h12.48v12.48zM286.428 757.104l-10.892-6.092 6.092-10.892 10.892 6.092-6.092 10.892z m-21.784-12.184l-10.892-6.092 6.092-10.892 10.892 6.092-6.092 10.892z" fill="#4A555F" /></svg>