<svg version="1.1" xmlns="http://www.w3.org/2000/svg" xmlns:xlink="http://www.w3.org/1999/xlink" width="32.000000pt" height="32.000000pt" viewBox="0,0,256,256"><g fill="#FFED00" fill-rule="nonzero" stroke="none" stroke-width="1" stroke-linecap="butt" stroke-linejoin="miter" stroke-miterlimit="10" stroke-dasharray="" stroke-dashoffset="0" font-family="none" font-weight="none" font-size="none" text-anchor="none" style="mix-blend-mode: normal"><g transform="translate(0,4.26117) scale(8,8)"><g transform="translate(0,32) scale(0.1,-0.1)"><path d="M128,304c-16,-8 -28,-17 -28,-19c0,-2 14,-11 30,-20c27,-14 33,-14 60,0c17,9 30,18 30,20c0,4 -56,35 -62,35c-2,-1 -15,-8 -30,-16z"></path><path d="M80,225c0,-28 5,-37 30,-50c39,-20 40,-20 40,19c0,25 -7,39 -22,50c-35,25 -48,20 -48,-19z"></path><path d="M192,244c-15,-11 -22,-25 -22,-50c0,-38 0,-38 34,-23c18,9 25,21 28,50c4,43 -5,48 -40,23z"></path><path d="M41,151l-35,-18l33,-18c28,-14 38,-15 62,-4c42,17 44,26 10,44c-36,18 -28,18 -70,-4z"></path><path d="M207,154c-32,-17 -29,-26 12,-43c24,-11 34,-10 62,4l33,18l-35,18c-41,22 -37,22 -72,3z"></path><path d="M0,76c0,-25 7,-39 22,-50c35,-25 48,-20 48,19c0,28 -5,37 -30,50c-39,20 -40,20 -40,-19z"></path><path d="M113,98c-15,-7 -22,-21 -25,-49c-4,-43 5,-48 40,-23c15,11 22,25 22,50c0,36 -3,38 -37,22z"></path><path d="M170,76c0,-25 7,-39 22,-50c35,-25 44,-20 40,23c-3,29 -10,41 -28,50c-34,15 -34,15 -34,-23z"></path><path d="M278,94c-22,-12 -28,-22 -28,-49c0,-39 13,-44 48,-19c15,11 22,25 22,50c0,38 -3,40 -42,18z"></path></g></g></g></svg>