<svg xmlns="http://www.w3.org/2000/svg" width="44" height="44" version="1.1"  viewBox="0 0 32 32" enable-background="new 0 0 32 32" xml:space="preserve"><g><path d="M5,5v9c0,0.6,0.4,1,1,1h2v-2.8c-0.6-0.5-1-1.3-1-2.2c0-1.7,1.3-3,3-3s3,1.3,3,3c0,0.9-0.4,1.7-1,2.2V15h2c0.6,0,1-0.4,1-1   V6c0-0.6-0.4-1-1-1H5z" fill="#ffed00"/><polygon points="14,4 12,2 3,2 5,4  " fill="#ffed00"/><polygon points="4,5 2,3 2,12 4,14  " fill="#ffed00"/><path d="M18,15h2v-2.8c-0.6-0.5-1-1.3-1-2.2c0-1.7,1.3-3,3-3s3,1.3,3,3c0,0.9-0.4,1.7-1,2.2V15h2c0.6,0,1-0.4,1-1V5h-9   c-0.6,0-1,0.4-1,1v8C17,14.6,17.4,15,18,15z" fill="#ffed00"/><polygon points="29,2 20,2 18,4 27,4  " fill="#ffed00"/><polygon points="28,5 28,14 30,12 30,3  " fill="#ffed00"/><path d="M24,20c-1.6,0-3,0.8-4,2h-3v-4h5c0.6,0,1-0.4,1-1v-5.3c0.6-0.3,1-1,1-1.7c0-1.1-0.9-2-2-2s-2,0.9-2,2c0,0.7,0.4,1.4,1,1.7   V16H11v-4.3c0.6-0.3,1-1,1-1.7c0-1.1-0.9-2-2-2s-2,0.9-2,2c0,0.7,0.4,1.4,1,1.7V17c0,0.6,0.4,1,1,1h5v4H7c-0.2,0-0.4,0.1-0.6,0.2   l-3,2C3.2,24.4,3,24.7,3,25h15v1H3.7l2.7,1.8C6.6,27.9,6.8,28,7,28h1.5l1.8,0.9c0.3,0.1,0.6,0.1,0.9,0l1.6-0.8l1.6,0.8   c0.3,0.1,0.6,0.1,0.9,0L17,28h3c0.9,1.2,2.4,2,4,2c2.8,0,5-2.2,5-5S26.8,20,24,20z M24,27c-1.1,0-2-0.9-2-2c0-1.1,0.9-2,2-2   s2,0.9,2,2C26,26.1,25.1,27,24,27z" fill="#ffed00"/></g></svg>