<svg xmlns="http://www.w3.org/2000/svg" width="44" height="44" version="1.1" x="0px" y="0px" viewBox="0 0 32 40" enable-background="new 0 0 32 32" xml:space="preserve"><g><path d="M29.7067261,5.2926636l-2.9996948-2.9996948C26.5195313,2.1054688,26.2651367,2,26,2h-8c-0.5522461,0-1,0.4477539-1,1v8   c0,0.2651367,0.1054688,0.5195313,0.2929688,0.7070313l3,3C20.4804688,14.8945313,20.7348633,15,21,15h3v1H8v-1h3   c0.2651367,0,0.5195313-0.1054688,0.7070313-0.2929688l3-3C14.8945313,11.5195313,15,11.2651367,15,11V3   c0-0.5522461-0.4477539-1-1-1H6C5.7348633,2,5.4804688,2.1054688,5.2929688,2.2929688L2.2932739,5.2926636   C2.1121216,5.4736328,2,5.7236938,2,6v8c0,0.5522461,0.4477539,1,1,1h1c0.5522461,0,1-0.4477539,1-1s-0.4477539-1-1-1V7h6v6H8   v-1.2781372C8.5949097,11.375,9,10.7371216,9,10c0-1.1030273-0.8969727-2-2-2s-2,0.8969727-2,2   c0,0.7371216,0.4050903,1.375,1,1.7218628V17c0,0.5522461,0.4477539,1,1,1h8v4H7   c-0.1972656,0-0.390625,0.0585938-0.5546875,0.1679688l-3,2C3.1669922,24.3535156,3,24.6655273,3,25   s0.1669922,0.6464844,0.4453125,0.8320313l3,2C6.609375,27.9414063,6.8027344,28,7,28h2.7641602l1.7885742,0.8945313   c0.28125,0.140625,0.6132813,0.140625,0.8945313,0L14,28.1181641l1.5527344,0.7763672   c0.28125,0.140625,0.6132813,0.140625,0.8945313,0L18.2358398,28h1.784668C20.9594727,29.2460938,22.4365234,30,24,30   c2.7568359,0,5-2.2431641,5-5s-2.2431641-5-5-5c-1.5634766,0-3.0405273,0.7539063-3.9794922,2H17v-4h8c0.5522461,0,1-0.4477539,1-1   v-5.2781372C26.5949097,11.375,27,10.7371216,27,10c0-1.1030273-0.8969727-2-2-2s-2,0.8969727-2,2   c0,0.7371216,0.4050903,1.375,1,1.7218628V13h-2V7h6v6c-0.5522461,0-1,0.4477539-1,1s0.4477539,1,1,1h1   c0.5522461,0,1-0.4477539,1-1V6C30,5.7236938,29.8878784,5.4736328,29.7067261,5.2926636z M12,11.5859375v-5.171875l1-1v5.171875   L12,11.5859375z M5.4140625,5l1-1h5.171875l-1,1H5.4140625z M20.5546875,24c0.355957,0,0.6850586-0.1894531,0.8642578-0.4970703   C21.9667969,22.5620117,22.9316406,22,24,22c1.6542969,0,3,1.3457031,3,3s-1.3457031,3-3,3   c-1.0683594,0-2.0332031-0.5620117-2.5810547-1.5029297C21.2397461,26.1894531,20.9106445,26,20.5546875,26H18   c-0.1552734,0-0.3085938,0.0361328-0.4472656,0.1054688L16,26.8818359l-1.5527344-0.7763672   c-0.28125-0.140625-0.6132813-0.140625-0.8945313,0L12,26.8818359l-1.5527344-0.7763672C10.3085938,26.0361328,10.1552734,26,10,26   H7.3027344l-1.5-1l1.5-1H20.5546875z M26.5859375,5h-5.171875l-1-1h5.171875L26.5859375,5z M19,5.4140625l1,1v5.171875l-1-1   V5.4140625z" fill="#ffed00"/><circle cx="24" cy="25" r="2" fill="#ffed00"/></g><text x="0" y="47" fill="#ffed00" font-size="5px" font-weight="bold" font-family="'Helvetica Neue', Helvetica, Arial-Unicode, Arial, Sans-serif">Created by M. Oki Orlando</text><text x="0" y="52" fill="#ffed00" font-size="5px" font-weight="bold" font-family="'Helvetica Neue', Helvetica, Arial-Unicode, Arial, Sans-serif">from the Noun Project</text></svg>