<svg xmlns="http://www.w3.org/2000/svg" xmlns:xlink="http://www.w3.org/1999/xlink" version="1.1" x="0px" y="0px" viewBox="0 0 32 40" enable-background="new 0 0 32 32" xml:space="preserve"><g><path d="M24,30c-3.3085938,0-6-2.6914063-6-6c0-0.1796875,0.0097656-0.3642578,0.0302734-0.5556641l-1.7373047-1.7373047   C16.1054688,21.5195313,16,21.265625,16,21v-1h-1c-0.5527344,0-1-0.4472656-1-1v-1h-1c-0.5527344,0-1-0.4472656-1-1v-1h-1   c-0.265625,0-0.5195313-0.1054688-0.7070313-0.2929688l-1-1C9.1054688,14.5195313,9,14.265625,9,14v-4c0-0.5527344,0.4472656-1,1-1   h4c0.265625,0,0.5195313,0.1054688,0.7070313,0.2929688l8.7373047,8.7373047C23.6357422,18.0097656,23.8203125,18,24,18   c3.3085938,0,6,2.6914063,6,6S27.3085938,30,24,30z M18,20.5859375l1.7988281,1.7988281   c0.2333984,0.2324219,0.3359375,0.5654297,0.2763672,0.8896484C20.0234375,23.5498047,20,23.78125,20,24   c0,2.2060547,1.7939453,4,4,4s4-1.7939453,4-4s-1.7939453-4-4-4c-0.21875,0-0.4501953,0.0234375-0.7255859,0.0751953   c-0.3242188,0.0576172-0.65625-0.0429688-0.8896484-0.2763672L13.5859375,11H11v2.5859375L11.4140625,14H13   c0.5527344,0,1,0.4472656,1,1v1h1c0.5527344,0,1,0.4472656,1,1v1h1c0.5527344,0,1,0.4472656,1,1V20.5859375z"/><path d="M19,26H7c-0.5527344,0-1-0.4472656-1-1V7c0-0.5527344,0.4472656-1,1-1h18c0.5527344,0,1,0.4472656,1,1v12   c0,0.5527344-0.4472656,1-1,1s-1-0.4472656-1-1V8H8v16h11c0.5527344,0,1,0.4472656,1,1S19.5527344,26,19,26z"/><path d="M7,26c-0.2558594,0-0.5117188-0.0976563-0.7070313-0.2929688l-4-4C2.1054688,21.5195313,2,21.265625,2,21V3   c0-0.5527344,0.4472656-1,1-1h18c0.265625,0,0.5195313,0.1054688,0.7070313,0.2929688l4,4   c0.390625,0.390625-1.0234375,1.8046875-1.4140625,1.4140625L20.5859375,4H4v16.5859375l3.7070313,3.7070313   C8.0976563,24.6835938,7.2558594,26,7,26z"/><path d="M7,8C6.7441406,8,6.4882813,7.9023438,6.2929688,7.7070313l-3-3c-0.390625-0.390625-0.390625-1.0234375,0-1.4140625   s1.0234375-0.390625,1.4140625,0l3,3c0.390625,0.390625,0.390625,1.0234375,0,1.4140625C7.5117188,7.9023438,7.2558594,8,7,8z"/><path d="M24,27c-1.6542969,0-3-1.3457031-3-3s1.3457031-3,3-3s3,1.3457031,3,3S25.6542969,27,24,27z M24,23   c-0.5517578,0-1,0.4482422-1,1s0.4482422,1,1,1s1-0.4482422,1-1S24.5517578,23,24,23z"/></g><text x="0" y="47" fill="#000000" font-size="5px" font-weight="bold" font-family="'Helvetica Neue', Helvetica, Arial-Unicode, Arial, Sans-serif">Created by M. Oki Orlando</text><text x="0" y="52" fill="#000000" font-size="5px" font-weight="bold" font-family="'Helvetica Neue', Helvetica, Arial-Unicode, Arial, Sans-serif">from the Noun Project</text></svg>