<?xml version="1.0" encoding="utf-8"?>
<!-- Generator: Adobe Illustrator 27.5.0, SVG Export Plug-In . SVG Version: 6.00 Build 0)  -->
<svg version="1.1" xmlns="http://www.w3.org/2000/svg" xmlns:xlink="http://www.w3.org/1999/xlink" x="0px" y="0px"
	 viewBox="0 0 500 500" style="enable-background:new 0 0 500 500;" xml:space="preserve">
<g id="BACKGROUND">
	<rect style="fill:#B1B74C;" width="500" height="500"/>
</g>
<g id="OBJECTS">
	<g>
		<defs>
			<rect id="SVGID_1_" width="500" height="500"/>
		</defs>
		<clipPath id="SVGID_00000075851582330844666030000005510118369831852705_">
			<use xlink:href="#SVGID_1_"  style="overflow:visible;"/>
		</clipPath>
		<g style="clip-path:url(#SVGID_00000075851582330844666030000005510118369831852705_);">
			<g>
				<g>
					<path style="fill:#E2C597;" d="M251.102,198.979c1.036,1.304,1.222,2.268-0.605,3.252c-2.672,1.439-3.94,4.528-4.879,7.414
						c-0.854,2.624-1.608,5.302-1.85,8.052c-0.243,2.749,0.047,5.591,1.205,8.097c0.825,1.786,2.184,3.413,3.926,4.362
						c0.883,0.481,1.739,0.536,2.666,0.813c0.842,0.252,1.31,0.722,2.035,1.298c3.243,2.578,7.065,4.347,10.956,5.705
						c4.073,1.405,8.622,2.471,13.908,3.259c4.408,0.657,9.069,1.089,14.251,1.321c2.816,0.131,5.703,0.195,8.825,0.195
						c1.747,0,3.597-0.021,5.497-0.063c2.194-0.043,4.538-0.127,7.166-0.255c0.65-0.03,1.298-0.057,1.944-0.084
						c8.697-0.364,17.061-1.264,25.424-3.897c1.479-0.466,2.945-0.972,4.411-1.478c0.949-0.327,1.925-0.671,2.673-1.34
						c0.875-0.783,1.335-1.918,1.733-3.022c1.323-3.665,2.768-7.873,2.83-11.801c0.057-3.584-0.583-7.188-1.488-10.643
						c-1.621-6.189-4.207-12.13-7.242-17.75l-0.051-0.094l-0.103-0.028c-0.942-0.256-1.947-0.386-2.988-0.386
						c-1.921,0-3.581,0.432-4.657,0.795l-0.061,0.036c-0.74,0.447-1.498,0.879-2.232,1.296l-0.353,0.201
						c-2.348,1.333-4.897,2.677-7.627,3.477c-0.02,0.006-0.038,0.009-0.056,0.009c-0.08,0-0.15-0.053-0.174-0.132
						c-0.03-0.098,0.024-0.198,0.124-0.228c2.704-0.842,5.19-2.211,7.475-3.564l0.798-0.477c2.089-1.247,4.249-2.536,6.061-4.151
						c0.415-0.364,0.806-0.756,1.162-1.162l0.08-0.092l-0.023-0.12c-0.031-0.165-0.014-0.323,0.052-0.471
						c2.379-5.174,2.78-9.617,1.191-13.204c-1.058-2.387-2.807-3.941-4.087-4.824c0,0-0.064-0.044-0.081-0.044
						c-0.257-0.136-0.539-0.274-0.839-0.408c-1.652-0.743-3.535-1.119-5.597-1.119c-0.743,0-1.51,0.05-2.278,0.15
						c-2.492,0.33-5.095,1.146-7.737,2.423c-2.691,1.307-4.804,2.946-6.28,4.873c-0.144,0.186-0.359,0.293-0.59,0.293
						c-0.166,0-0.324-0.055-0.458-0.158c-0.163-0.122-0.266-0.298-0.293-0.497c-0.027-0.198,0.026-0.394,0.148-0.552
						c1.658-2.08,3.972-3.819,6.888-5.176c2.787-1.297,5.537-2.107,8.173-2.408c0.715-0.08,1.431-0.121,2.128-0.121
						c0.917,0,1.82,0.07,2.685,0.209l0.416,0.067l-0.141-0.397c-2.728-7.686-2.552-16.652-1.553-24.6
						c0.157-1.25,0.43-2.499,0.724-3.724c0.517-2.155,1.204-4.271,2.092-6.302c4.714-10.781,0.623-21.389-1.354-25.45l-0.026-0.054
						l-0.056-0.052l-0.054-0.04c-5.336-6.791-11.513-10.401-18.358-10.73c-0.34-0.016-0.679-0.024-1.016-0.024
						c-12.571,0-23.166,10.955-23.272,11.066c-0.047,0.049-0.112,0.077-0.181,0.077c-0.049,0-0.097-0.014-0.138-0.041
						c-0.158-0.104-16.02-10.445-33.541-10.447c-12.903-0.001-23.263,5.56-30.797,16.527c-7.037,10.245-9.482,20.571-7.265,30.693
						c4.263,19.469,24.543,31.756,24.747,31.877c0.085,0.051,0.132,0.147,0.12,0.245l-1.73,14.418l-0.013,0.108l0.07,0.083
						c1.42,1.678,2.84,3.356,4.26,5.034c0.672,0.794,4.497,4.166,3.331,5.31c-0.384,0.377-1.317-0.285-1.854-0.256
						c-2.031,0.111-2.652,0.109-4.683,0.22c-2.976,0.162-7.45,1.992-9.219,4.39c-0.509,0.69-0.805,0.86-1.081,1.672
						c-1.582,4.669-2.774,8.636-1.261,13.328c1.229,3.813,4.586,8.462,7.139,11.55c1.033,1.249,2.833,2.168,4.056,3.231
						c1.188,1.032,1.785,2.208,3.082,3.099c2.746,1.887,5.511,3.784,8.547,5.155c2.826,1.277,5.865,2.081,8.953,2.37
						c5.574,0.522,11.633-0.859,15.418-4.985"/>
					<path style="fill:#0B1011;" d="M348.712,230.148c-0.68-0.436-1.419,0.408-1.971,0.997c-1.08,1.151-2.713,1.546-4.177,2.135
						c-2.266,0.911-4.263,2.373-6.421,3.515c-1.178,0.624-2.402,1.138-3.652,1.578l-50.761-4.102
						c-0.275-0.079-0.551-0.158-0.825-0.238c-8.278,0.378-15.791-5.992-24.077-5.843c-0.684,0.012-1.387,0.074-2.001,0.375
						c-0.458,0.225-0.843,0.571-1.222,0.913c-0.266,0.24-0.532,0.48-0.799,0.721c-0.86,0.776-1.185,1.345-0.717,2.471
						c0.406,0.976,1.199,1.76,1.971,2.455c6.2,5.573,13.687,9.562,21.47,12.549c7.783,2.986,15.895,5.011,23.983,7.029
						c2.867,0.715,5.752,1.434,8.703,1.696c1.428,0.127,2.751,0.115,4.152,0.418c1.457,0.315,2.956,0.514,4.449,0.427
						c3.849-0.223,7.446-1.941,10.79-3.86c3.344-1.919,6.586-4.088,10.223-5.368c1.614-0.568,3.3-0.957,4.832-1.719
						c1.676-0.832,2.924-2.073,3.506-3.862c0.294-0.903,0.937-1.06,1.356-1.811c0.475-0.854,0.651-2.002,0.877-2.94
						C348.991,235.224,349.101,232.648,348.712,230.148z"/>
					<g>
						<path style="fill:#F7E5B4;" d="M368.007,99.388c-0.298-0.841-1.334-1.102-1.63-1.141l0-0.001
							c-0.07-0.009-0.162-0.047-0.252-0.104c-1.713-1.246-4.036-1.886-6.88-1.886c-8.788,0-20.143,5.955-23.414,7.78l-0.436,0.243
							l0.243,0.436c0.891,1.602,3.827,7.402,4.197,14.774l0.038,0.762l0.683-0.339l0.332-0.165c0.684-0.339,1.367-0.678,2.053-1.022
							c1.76-0.996,4.151-2.232,6.755-3.493c3.093-1.668,5.843-3.285,8.338-4.909c-0.268,0.174-0.531,0.35-0.802,0.522l-0.031,0.019
							l-0.028,0.024c-0.665,0.572-1.767,1.741-3.044,3.094c-2.382,2.525-5.644,5.983-7.894,7.465
							c-1.021,0.673-3.285,3.095-3.277,4.627c-0.238,0.967-4.888,14.39-8.603,23.349l-0.152,0.152l0.089,0.227
							c-0.079,8.007,1.347,14.679,2.133,16.48l0.111,0.256l0.276,0.039c1.172,0.168,2.305,0.253,3.367,0.253
							c3.882,0,7.031-1.122,9.358-3.335c5.88-5.591,5.178-16.49,4.822-19.697c-0.684-6.337,2.273-11.762,6.21-18.194
							c3.271-5.358,3.361-5.625,3.204-9.517l-0.04-1.112c-0.12-3.382,0.467-6.597,0.828-8.213l0.305-1.365l-1.1,0.856
							c-1.764,1.381-3.683,2.739-5.704,4.053c2.494-1.625,4.736-3.258,6.814-4.957l0.085-0.07l0.048-0.1
							c0.023-0.049,0.032-0.072,0.046-0.093C368.019,101.882,368.296,100.219,368.007,99.388z"/>
						<path style="fill:#F7E5B4;" d="M339.079,246.858c-3.328,1.753-6.709,3.635-10.05,5.594l-0.143,0.084l-0.065,0.153
							c-3.336,7.912-11.061,10.069-11.778,10.254c-11.074-0.118-28.147-10.764-31.462-12.901l-0.061-0.039l-0.07-0.02
							c-8.452-2.465-15.183-5.144-21.183-8.433c-1.149-0.626-2.259-1.293-3.343-1.981c-0.789,0.32-1.689,0.321-2.494-0.209
							c-0.624-0.41-1.247-0.833-1.868-1.266c-0.446,1.836-2.349,3.287-4.279,1.925c-0.435-0.307-0.869-0.618-1.302-0.931
							c-0.494-0.001-1.018-0.14-1.551-0.496c-4.118-2.749-7.307-6.651-10.571-10.337c-0.728-0.822-1.401-1.658-2.014-2.516
							c-0.572-0.211-1.087-0.617-1.442-1.284c-1.225-2.305-1.786-4.643-2.278-7.192c-0.048-0.247-0.065-0.484-0.06-0.711
							c-0.301-1.482-0.467-2.995-0.376-4.586c0.052-0.916,0.408-1.606,0.915-2.087c0.281-1.487,0.85-2.932,1.842-4.299
							c1.043-1.437,2.384-2.422,3.884-3.121c2.799-2.379,6.526-3.411,10.767-1.838c0.159,0.059,0.301,0.131,0.441,0.204
							c0.131,0.026,0.262,0.053,0.393,0.081c0.585,0.065,1.171,0.169,1.756,0.324l-0.102-0.121l-9.354-11.055l1.718-14.318
							l0.038-0.314l-0.267-0.169c-2.092-1.321-20.556-13.436-24.595-31.867c-2.234-10.194,0.222-20.588,7.302-30.894
							c7.587-11.046,18.002-16.647,30.955-16.647c16.061,0,30.635,8.57,33.393,10.288l0.333,0.208l0.281-0.275
							c1.853-1.814,11.678-10.864,23.163-10.864c0.343,0,0.687,0.008,1.032,0.025c5.441,0.259,10.496,2.589,15.023,6.924
							l0.718-0.695c-4.57-5.152-15.125-12.512-20.069-15.685c-0.116-0.076-0.194-0.19-0.218-0.32
							c-0.04-0.181,0.02-0.319,0.077-0.406c1.082-1.557,4.493-3.267,9.595-4.804l1.194-0.36l-1.111-0.565
							c-7.215-3.667-17.903-5.473-18.355-5.548c-0.147-0.025-0.277-0.119-0.355-0.26c-0.072-0.13-0.079-0.287-0.017-0.43
							c1.923-4.542,11.851-9.537,16.031-11.473l1.222-0.566l-1.296-0.368c-7.697-2.188-16.544-3.298-26.296-3.298
							c-23.13,0-43.865,6.216-44.737,6.48l-0.038,0.012l-0.036,0.018l-52.53,25.72l-0.359,0.176l0.092,0.389
							c0.857,3.615,1.401,11.168,1.548,13.397l0.025,0.387l0.381,0.072c0.585,0.11,1.149,0.226,1.708,0.345
							c-0.588-0.125-1.184-0.246-1.801-0.361l-0.259-0.048c0,0-0.186,0.186-0.189,0.189c-0.062,0.058-0.179,0.138-0.343,0.138
							l-0.052-0.003c-1.841-0.152-3.631-0.23-5.32-0.23c-10.523,0-18.07,2.96-22.432,8.799c-1.486,1.987-2.613,4.338-3.351,6.985
							l-0.38,1.362l1.151-0.818c0.225-0.16,0.468-0.3,0.698-0.454c-0.569,0.381-1.136,0.766-1.675,1.185l-0.193,0.15v0.196
							c-2.399,11.135,1.904,23.782,2.793,26.207c3.456,9.434,7.673,18.395,15.104,25.39c4.79,4.509,10.161,7.307,16.372,9.209
							c2.813,0.861,2.468,2.39,2.548,5.348c0.104,3.889-0.285,7.784-0.985,11.608c-1.397,7.635-4.021,15.058-7.402,22.034
							c-0.002,0.003-0.594,1.225-0.594,1.225l1.246-0.55c2.81-1.24,6.076-1.573,7.013-1.645c0,0,0.049-0.004,0.052-0.004
							c0.191,0,0.352,0.099,0.44,0.251c0.097,0.168,0.091,0.365-0.015,0.526c-2.456,3.757-1.914,8.795-1.372,11.464l0.196,0.968
							l0.664-0.731c3.318-3.654,9.7-3.696,9.97-3.696c0.185,0,0.351,0.099,0.444,0.265c1.711,3.122,3.615,6.164,5.658,9.035
							l0.087,0.122l0.139,0.054c0.18,0.07,0.302,0.238,0.312,0.43l0.008,0.149l0.059,0.08l-0.308,2.874
							c-2.807,26.2-23.075,63.628-25.377,67.81l-0.177,0.321l0.253,0.265c4.862,5.1,10.147,9.941,15.723,14.4l-0.123-0.037
							l2.21,1.683c15.099,11.703,39.081,25.745,67.613,26.209c0.031,0.004,0.059,0.007,0.086,0.009
							c0.384,0.05,2.155,0.258,4.795,0.258c8.639,0,29.456-2.377,36.146-24.391l0.433-1.426l-0.045,0.032
							c0.297-1.103,0.553-2.224,0.764-3.339l0.029-0.153l-0.064-0.143l-0.08-0.18l-0.017-0.038l-0.023-0.034
							c-1.671-2.534-2.98-5.224-3.89-7.994l-0.292-0.888l-0.577,0.735c-1.736,2.213-5.684,5.924-12.619,5.924
							c-4.438,0-9.4-1.547-14.748-4.598c-4.405-2.513-9.03-4.937-13.502-7.281c-16.52-8.659-33.602-17.612-42.067-32.483
							c-8.611-15.128-12.287-29.317-13.468-34.715l-0.592-2.706c8.746,11.912,17.453,17.178,19.918,18.51l1.078,0.583l-0.237-0.765
							c0.073,0.23,0.146,0.47,0.22,0.692l0.025,0.076l0.047,0.064c0.034,0.046,0.051,0.074,0.057,0.096
							c0.106,0.275,2.389,5.881,13.516,17.631c5.038,5.327,12.571,8.174,19.396,10.362c7.277,2.333,14.798,3.932,22.346,5.092
							c11.884,1.826,23.988,1.056,33.134-7.843c5.719-5.565,8.758-12.8,10.054-20.559c0.513-3.076,1.534-5.911,1.933-9.062
							c0.288-2.275,0.576-4.549,0.864-6.824l0.121-0.953L339.079,246.858z M185.027,114.491c-1.864,0-3.705,0.146-5.504,0.427
							c1.805-0.284,3.645-0.439,5.505-0.439c1.161,0,2.333,0.074,3.502,0.186C187.364,114.554,186.188,114.491,185.027,114.491z
							 M213.386,141.73c-0.72,0.575-1.623,1.02-2.763,1.362c-0.461,0.149-0.941,0.252-1.405,0.351
							c-0.574,0.123-1.117,0.239-1.619,0.432c-0.997,0.364-1.673,1.262-2.279,2.151c-0.58,0.873-1.055,1.818-1.415,2.813
							c-0.562,1.547-1.076,3.882-0.332,6.218c0.094,0.314,0.22,0.591,0.353,0.884c0.082,0.18,0.168,0.369,0.253,0.584
							c0.045,0.125,0.119,0.396,0.058,0.656c-0.048,0.207-0.171,0.411-0.349,0.577c-0.317,0.291-0.722,0.494-1.309,0.656
							c-0.491,0.142-0.996,0.239-1.508,0.289c-0.263,0.025-0.533,0.038-0.8,0.038c-0.275,0-0.55-0.013-0.822-0.04l-0.874-0.706
							c-0.624-0.505-1.08-1.503-1.413-2.232l-0.027-0.06c-1.148-2.514-1.426-5.537-0.781-8.511
							c0.744-3.432,2.598-6.819,5.669-10.356c0.325-0.374,0.77-0.887,0.798-1.552c0.017-0.404-0.128-0.771-0.234-1.038
							c-2.915-7.344-7.555-14.061-13.42-19.424l-0.116-0.106c0.212,0.023,0.425,0.034,0.637,0.061
							c5.718,0.725,10.567,2.728,14.023,5.794c1.473,1.308,2.756,2.856,3.997,4.353c1.592,1.921,3.238,3.907,5.288,5.385
							c0.31,0.223,0.674,0.465,1.083,0.495l0.019,0.001l0.069,0.002c0.105,0,0.21-0.02,0.316-0.046l-0.653,0.198l0.484,0.58
							c1.098,1.316,1.72,3.062,1.706,4.792C216.008,138.416,215.024,140.435,213.386,141.73z M215.949,129.65
							c2.098-2.351,3.307-5.468,3.311-8.621C219.256,124.182,218.047,127.299,215.949,129.65z"/>
						<path style="fill:#754D2B;" d="M316.566,283.756L316.566,283.756C316.566,283.756,316.565,283.756,316.566,283.756
							c-0.002-0.005-0.004-0.009-0.005-0.013C316.562,283.747,316.564,283.752,316.566,283.756z"/>
						<path style="fill:#754D2B;" d="M234.141,233.466c-0.02,0.264-0.04,0.531-0.048,0.823
							C234.101,233.997,234.12,233.73,234.141,233.466z"/>
						<path style="fill:#754D2B;" d="M234.091,234.826c-0.001,0.219-0.005,0.432,0,0.665
							C234.086,235.258,234.09,235.045,234.091,234.826z"/>
						<path style="fill:#754D2B;" d="M236.058,228.792c0.054-0.079,0.107-0.158,0.163-0.236
							C236.165,228.635,236.112,228.713,236.058,228.792z"/>
						<path style="fill:#754D2B;" d="M234.353,232.198c0.073-0.262,0.163-0.527,0.269-0.794
							C234.517,231.671,234.425,231.936,234.353,232.198z"/>
						<path style="fill:#754D2B;" d="M234.737,231.128c0.105-0.243,0.217-0.487,0.345-0.732
							C234.955,230.641,234.841,230.885,234.737,231.128z"/>
						<path style="fill:#754D2B;" d="M235.297,230.006c0.081-0.144,0.165-0.287,0.253-0.431
							C235.463,229.719,235.378,229.863,235.297,230.006z"/>
						<path style="fill:#754D2B;" d="M234.31,232.374c-0.07,0.284-0.127,0.565-0.153,0.84
							C234.184,232.939,234.24,232.658,234.31,232.374z"/>
						<polygon style="fill:#754D2B;" points="173.24,151.423 173.24,151.423 173.24,151.422 						"/>
						<path style="fill:#754D2B;" d="M215.722,129.916c-0.121,0.128-0.239,0.238-0.356,0.338
							C215.482,130.153,215.599,130.046,215.722,129.916z"/>
						<path style="fill:#754D2B;" d="M214.839,130.619c-0.017,0.009-0.034,0.014-0.051,0.022
							C214.805,130.633,214.822,130.628,214.839,130.619z"/>
						<path style="fill:#754D2B;" d="M215.209,130.378c-0.057,0.043-0.113,0.083-0.169,0.119
							C215.096,130.461,215.152,130.422,215.209,130.378z"/>
						<path style="fill:#754D2B;" d="M234.144,236.803c-0.012-0.209-0.017-0.403-0.026-0.604
							C234.126,236.4,234.131,236.595,234.144,236.803z"/>
						<path style="fill:#754D2B;" d="M234.247,238.209c-0.016-0.181-0.027-0.353-0.041-0.53
							C234.22,237.856,234.232,238.028,234.247,238.209z"/>
						<path style="fill:#754D2B;" d="M200.484,104.756c-0.479-0.115-0.959-0.23-1.458-0.338
							C199.525,104.526,200.005,104.641,200.484,104.756z"/>
						<path style="fill:#754D2B;" d="M208.31,107.334c-0.176-0.078-0.347-0.16-0.526-0.235
							C207.963,107.174,208.134,107.256,208.31,107.334z"/>
						<path style="fill:#754D2B;" d="M207.003,106.788c-0.268-0.106-0.53-0.216-0.804-0.318
							C206.473,106.572,206.735,106.682,207.003,106.788z"/>
						<path style="fill:#754D2B;" d="M205.497,106.225c-0.318-0.112-0.631-0.227-0.957-0.334
							C204.867,105.998,205.18,106.113,205.497,106.225z"/>
						<path style="fill:#754D2B;" d="M203.874,105.687c-0.356-0.111-0.709-0.224-1.076-0.329
							C203.165,105.463,203.518,105.576,203.874,105.687z"/>
						<path style="fill:#754D2B;" d="M202.198,105.197c-0.408-0.111-0.812-0.224-1.234-0.329
							C201.386,104.973,201.791,105.086,202.198,105.197z"/>
						<path style="fill:#754D2B;" d="M168.704,118.589c-0.46,0.254-0.915,0.515-1.359,0.791
							C167.79,119.104,168.244,118.843,168.704,118.589z"/>
						<path style="fill:#754D2B;" d="M179.106,114.996c-0.729,0.123-1.453,0.263-2.166,0.431
							C177.654,115.258,178.378,115.12,179.106,114.996z"/>
						<path style="fill:#754D2B;" d="M176.124,115.644c-0.574,0.15-1.147,0.305-1.708,0.484
							C174.978,115.949,175.55,115.795,176.124,115.644z"/>
						<path style="fill:#754D2B;" d="M173.474,116.457c-0.509,0.18-1.016,0.362-1.513,0.566
							C172.458,116.82,172.965,116.637,173.474,116.457z"/>
						<path style="fill:#754D2B;" d="M171.018,117.437c-0.48,0.215-0.958,0.435-1.424,0.673
							C170.061,117.872,170.538,117.652,171.018,117.437z"/>
						<path style="fill:#754D2B;" d="M234.558,240.992c0.009,0.068,0.017,0.135,0.026,0.203
							C234.575,241.126,234.567,241.06,234.558,240.992z"/>
						<path style="fill:#754D2B;" d="M234.354,239.279c0.014,0.134,0.027,0.266,0.042,0.402
							C234.381,239.544,234.369,239.413,234.354,239.279z"/>
					</g>
				</g>
				<path style="fill:#B47742;" d="M352.359,209.439l1.646,10.976c0,0-15.256,19.976-51.256,16.683
					c-12.76-1.167-25.66-3.857-37.273-9.428c-2.654-1.273-5.24-2.701-7.684-4.343c-0.814-0.547-1.613-1.116-2.387-1.718
					c-0.291-0.226-0.568-0.489-0.871-0.698c-1.243-0.86-2.092,0-2.842,1.25c-0.871,1.452-0.717,3.299-0.272,4.933
					c0.111,0.408,0.411,1.072,0.317,1.497c-0.085,0.387-0.417,0.452-0.748,0.705c-0.618,0.472-1.12,1.098-1.437,1.809
					c-0.125,0.279-0.232,0.585-0.469,0.778c-0.665-0.406-1.074-0.945-1.562-1.527c-0.418-0.499-0.97-0.904-1.423-1.392
					c-1.021-1.101-1.903-2.318-2.833-3.494c-1.597-2.02-4.098-4.845-4.174-7.579c-0.11-3.951,0-9.768,10.646-8.122
					c10.646,1.646,21.732,10.646,38.305,13.61c16.573,2.964,25.573,7.024,38.195,2.524
					C338.859,221.402,352.359,209.439,352.359,209.439z"/>
				<path style="fill:#B47742;" d="M286.032,144.799c-0.765-1.656-1.447-3.351-2.042-5.076c-0.283-0.819-0.69-1.722-0.812-2.582
					c-0.079-0.555,0.022-1.086-0.096-1.652c-0.403-1.932-1.353-3.693-2.692-5.137c-2.503-2.698-6.064-4.241-9.557-5.194
					c-1.323-0.361-2.669-0.641-4.026-0.84c-0.496-0.073-1.127-0.251-1.632-0.191c-5.018,0.587-9.964,2.627-12.829,6.974
					c-0.509,0.772-0.905,1.601-1.235,2.46l-0.033-0.095c-0.855,1.997-1.299,4.164-1.443,6.337c-0.015,0.094-0.031,0.188-0.046,0.282
					c-0.174,1.08-0.306,2.17-0.596,3.225c-0.15,0.544-0.34,1.076-0.531,1.607c-0.263,0.731,0.184,0.266-0.079,0.997
					c0.444-0.078,0.122,0.861,0.507,0.626c1.316-0.801,2.006-0.831,3.443-0.831c1.395,0,2.791,0,4.187,0c5.726,0,11.451,0,17.177,0
					c3.31,0,6.619,0,9.929,0c0.837,0,2.125-0.245,2.882,0.119C286.359,145.482,286.191,145.142,286.032,144.799z"/>
				<path style="fill:#B47742;" d="M333.42,133.232c-0.287-0.906-0.714-1.763-1.211-2.57c-2.719-4.407-7.617-7.316-12.762-7.903
					c-5.145-0.586-10.45,1.071-14.55,4.234c-1.508,1.164-2.764,3.078-3.311,4.905c-0.301,1.008-0.124,2.243-0.274,3.295
					c-0.161,1.133-0.416,2.25-0.719,3.353c-0.171,0.624-0.358,1.244-0.551,1.862c-0.45,1.436-1.65,5.421-1.656,5.445
					c0.043,0.864,0.68-0.043,0.712-0.06c0.177,0.057-0.086-0.542,0.083-0.562h32.05c0.671,0,1.25,0.66,1.921,0.658
					c0.196-1.482,0.169-3.613,0.264-5.098c0.098-1.528,0.182-3.056,0.25-4.585C333.713,135.149,333.744,134.254,333.42,133.232z"/>
				<path style="fill:#E2C597;" d="M214.237,147.053c-0.694-3.851,1.467-7.753,0.964-11.633c-0.282-2.171-2.806-4.062-4.065-5.853
					c-4.765-6.785-10.731-11.701-18.798-13.617c-8.067-1.915-16.732-0.458-24.312,2.901c-1.261,0.559-2.365,1.278-3.156,2.409
					c-0.781,1.117-1.162,1.981-1.27,3.34c-1.109,14.071,3.429,28.664,10.834,40.426c0.961,1.527,1.926,3.059,3.1,4.429
					c2.274,2.655,5.244,4.605,8.197,6.475c1.615,1.023,3.238,2.033,4.868,3.031c2.466,1.509,4.999,3.01,7.809,3.692
					c3.658,0.887,7.656,0.275,10.881-1.665c5.558-3.345,7.061-9.632,8.367-15.548c0.416-1.886,1.176-3.954,1.178-5.901
					C218.84,154.877,215.029,151.447,214.237,147.053z"/>
				<path style="fill:#E2C597;" d="M340.102,120.98l24.951-15.073c0,0-1.244,9.22-1.024,12.585c0.219,3.366-4.829,9.585-4.829,9.585
					s-5.488,9.878-4.902,17.195c0.585,7.317,0.073,15-3.585,17.268c-3.659,2.268-4.39,5.195-9.659,4.61
					c-5.268-0.585-5.488-1.244-5.488-1.244l-1.683-19.39L340.102,120.98z"/>
				<path style="fill:#FFFFFF;" d="M254.62,145.561c-0.003,0.112-0.018,0.221-0.018,0.334c0,6.87,5.93,12.439,13.244,12.439
					c7.314,0,13.244-5.569,13.244-12.439c0-0.113-0.015-0.222-0.018-0.334H254.62z"/>
				<path style="fill:#FFFFFF;" d="M305.468,145.561c0.123,6.77,5.995,12.224,13.232,12.224c7.237,0,13.109-5.454,13.232-12.224
					H305.468z"/>
				<path style="fill:#E2C597;" d="M248.798,231.031c-1.85,6.714-3.161,10.842-3.545,17.796c-0.384,6.954,0.475,14.073,3.333,20.424
					c2.172,4.826,5.554,9.182,9.913,12.22c4.736,3.301,9.656,4.4,15.233,5.731c9.396,2.243,18.859,4.22,28.355,5.99
					c9.434,1.758,19.12-3.054,25.254-10.078c4.703-5.385,7.747-11.977,10.042-18.691c1.412-4.13,1.842-8.306,2.426-12.614
					l0.585-5.122l-11.509,5.848c0,0-7.661,6.883-18.052,4.981c-10.39-1.902-23.707-6.878-23.707-6.878l-12.439-4.098l-13.317-6.293
					c0,0-7.024-4.976-8.049-6.146C251.736,232.29,249.971,233.135,248.798,231.031z"/>
				<path style="fill:#FFFFFF;" d="M254.505,218.512l7.317-1.024l3.659,7.171l-2.122,5.854c0,0-6.732,3.585-9.073,1.39
					c-2.341-2.195-3-8.415-3-8.415L254.505,218.512z"/>
				<path style="fill:#0B1011;" d="M265.481,224.658l8.78-0.951l5.195,7.61l-1.463,4.39c0,0-5.854,3.659-8.195,3.146l-6.878-8.122
					L265.481,224.658z"/>
				<path style="fill:#FFFFFF;" d="M279.456,231.317l8.488-3.439c0,0,7.317,5.854,7.537,5.927c0.219,0.073-0.878,8.488-0.878,8.488
					l-8.854,1.098l-7.171-5.415L279.456,231.317z"/>
				<path style="fill:#FFFFFF;" d="M295.846,233.951l8.122-2.561l6.366,3.951l-0.439,6.585l-4.352,2.919
					c-1.376,0.923-3.057,1.272-4.684,0.961c-1.323-0.253-2.815-0.726-3.768-1.612c-2.049-1.902-2.268-4.024-2.268-4.024
					L295.846,233.951z"/>
				<path style="fill:#FFFFFF;" d="M314.743,244.952l-4.629-2.22l0.219-7.902c0,0,4.537-4.829,7.39-3.878
					c2.854,0.951,5.561,2.341,5.561,2.341l0.439,8.707l-4.073,2.638C318.182,245.59,316.322,245.709,314.743,244.952z"/>
				<path style="fill:#0B1011;" d="M323.285,233.293c0.439,0,4.317-7.61,7.61-5.415c3.293,2.195,5.561,2.488,5.561,2.488
					l0.951,2.927c0,0,1.537,8.707-3.293,10.024c-4.829,1.317-8.561,0.951-8.561,0.951L323.724,242L323.285,233.293z"/>
				<path style="fill:#FFFFFF;" d="M336.529,230.146c0,0,4.463-6.073,4.683-6.073s5.634,1.61,5.634,1.61s2.268,5.415-0.146,7.683
					c-2.415,2.268-3.146,6.439-8.927,5.415C337.773,238.781,337.92,232.561,336.529,230.146z"/>
				<path style="fill:#FFFFFF;" d="M346.7,225.408c0,0,1.427-4.665,2.689-5.104c1.262-0.439,3.128-0.494,3.128-0.494
					s3.732,3.183,2.25,8.616c-1.482,5.433-2.305,4.884-2.305,4.884l-4.555-1.427C347.907,231.884,348.292,227.494,346.7,225.408z"/>
				<path style="fill:#FFFFFF;" d="M346.267,243.683c0,0,1.152-5.488-1.866-6.86c0,0-2.524,2.195-4.774,2.085l-1.756,5.762
					l0.439,6.037C338.31,250.707,344.017,247.908,346.267,243.683z"/>
				<path style="fill:#FFFFFF;" d="M325.907,256.689c-0.162,0.029-0.549-8.726-0.549-8.726s1.756-3.347,5.707-4.006
					c3.951-0.659,6.64,0.823,6.64,0.823l0.329,6.037C338.035,250.817,331.999,255.592,325.907,256.689z"/>
				<path style="fill:#0B1011;" d="M325.359,247.963c0,0-1.097-4.071-5.707-3.325c-4.61,0.746-8.068,1.898-8.507,4.039
					c-0.439,2.14,0.11,9.659,0.11,9.659s5.986,1.61,11.748-0.75l2.905-0.897L325.359,247.963z"/>
				<path style="fill:#0B1011;" d="M310.871,248.402c0,0-2.14-4.226-5.159-3.677c0,0-3.348,2.195-6.476,0.658
					c0,0-2.305,1.921-2.744,3.457c-0.439,1.536-0.384,4.939-0.384,4.939l14.817,4.5L310.871,248.402z"/>
				<path style="fill:#FFFFFF;" d="M292.157,242.64c0,0,4.665,3.238,4.281,5.872c-0.384,2.634-0.659,4.994-0.659,4.994
					l-18.329-6.805c0,0,2.47-4.39,3.567-4.884c1.098-0.494,1.756-0.659,1.756-0.659l2.909,2.031L292.157,242.64z"/>
				<path style="fill:#FFFFFF;" d="M276.298,246.262c0,0,1.482-4.006,0.713-5.268c-0.768-1.262-3.073-3.402-3.073-3.402l-4.14,1.262
					l-2.829-3.402c0,0-2.36-0.055-3.238,1.427c-0.878,1.482-1.482,3.841-1.482,3.841L276.298,246.262z"/>
				<path style="fill:#FFFFFF;" d="M261.042,239.732l1.427-4.226c0,0-0.713-3.732-1.372-3.842c0,0-3.622,2.031-6.421,0.659
					l-2.634-4.555c0,0-2.579,0.878-3.073,3.842C248.968,231.61,254.127,237.976,261.042,239.732z"/>
				<g>
					<g>
						<g>
							<path style="fill:#754D2B;" d="M316.598,283.756L316.598,283.756C316.598,283.756,316.598,283.756,316.598,283.756
								c-0.002-0.005-0.004-0.009-0.005-0.013C316.595,283.747,316.596,283.752,316.598,283.756z"/>
						</g>
					</g>
					<g>
						<path style="fill:#13A7F1;" d="M326.82,337.083c-1.527,5.082-4.138,9.812-7.55,13.678c-3.359,3.818-7.574,6.971-12.527,9.372
							c-4.379,2.141-9.398,3.75-14.92,4.782c-5.424,0.982-10.942,1.48-16.399,1.48c-4.995,0-9.984-0.418-14.828-1.243
							c-5.091-0.859-10.204-2.174-15.196-3.91c-3.595-1.269-7.332-2.794-11.76-4.797l-0.76-0.344l0.446,0.705
							c6.895,10.911,11.548,21.024,14.237,27.586l0.072,0.176l0.189-0.022l9.804-1.151c0.029-0.003,0.058-0.005,0.087-0.005
							c0.171,0,0.332,0.056,0.466,0.161c0.157,0.124,0.256,0.302,0.28,0.501l1.05,8.941c0.023,0.199-0.032,0.395-0.156,0.552
							c-0.124,0.157-0.302,0.257-0.501,0.28l-17.319,2.034l-0.218,0.026l-0.003,0.22l-0.076,6.018l-0.003,0.277l0.275-0.024
							l12.042-1.063c0.026-0.003,0.048-0.004,0.07-0.004c0.072,0,0.147,0.012,0.222,0.035c3.474,1.095,85.467,27.22,116.884,60.899
							l0.303,0.325l0.12-0.428c0.611-2.178,1.321-4.256,2.11-6.178l0.015-0.036l0.003-0.039l0.015-0.197
							c0.096-1.223,0.427-5.453,0.825-10.503l0.006-0.077l-0.039-0.067c-3.208-5.59-13.55-9.069-16.644-10.002l-0.071-0.021
							l-0.071,0.021c-1.561,0.452-3.019,0.751-4.455,0.915c-1.02,0.121-2.078,0.182-3.146,0.182c-3.201,0-6.567-0.525-10.29-1.604
							c-4.226-1.223-8.233-2.923-12.658-4.857c4.444,1.879,8.463,3.543,12.695,4.726c3.617,1.014,6.887,1.507,9.998,1.507
							c1.148,0,2.282-0.07,3.37-0.209c4.015-0.495,8.25-2.045,12.587-4.607c3.777-2.227,7.333-4.988,10.369-7.401l0.084-0.067
							l0.009-0.107l0.036-0.41c0.007-0.069,0.023-0.138,0.048-0.204c0.136-0.35,13.44-35.537-0.544-70.82
							c-0.074-0.186-0.071-0.39,0.009-0.574c0.079-0.184,0.226-0.326,0.412-0.399c0.089-0.035,0.182-0.053,0.277-0.053
							c0.309,0,0.583,0.186,0.697,0.475c13.87,34.996,1.146,70.296,0.598,71.782l-0.012,0.031l-0.003,0.033
							c-0.457,5.09-2.602,32.526-2.621,32.783c-0.006,0.078-0.025,0.155-0.055,0.228c-0.216,0.522-0.423,1.054-0.625,1.591
							l-0.152,0.404l0.426-0.069c4.19-0.678,8.594-1.271,13.466-1.815c4.954-0.544,9.925-0.964,14.774-1.247
							c4.219-0.221,8.121-0.328,11.929-0.328c0.967,0,1.933,0.007,2.9,0.022c5.002,0.125,9.513,0.454,13.789,1.005l0.402,0.052
							l-0.134-0.383c-4.173-11.882-8.224-26.623-12.513-42.229c-6.829-24.85-13.892-50.546-21.534-64.042
							c-12.766-22.544-62.985-26.708-68.67-27.109l-0.289-0.02l0.022,0.289c0.166,2.184,0.124,4.434-0.128,6.881
							C328.097,331.996,327.576,334.584,326.82,337.083z M380.221,449.959c3.13-0.834,6.534-1.482,10.716-2.049
							c3.923-0.513,7.476-0.824,10.863-0.951c2.039-0.075,3.863-0.112,5.574-0.112c1.897,0,3.642,0.044,5.336,0.135
							c3.844,0.144,7.656,0.572,10.879,0.971c0.137,0.017,0.234,0.142,0.217,0.279c-0.016,0.125-0.122,0.219-0.248,0.219
							c-3.254-0.437-7.048-0.905-10.868-1.091c-2.087-0.136-4.286-0.202-6.717-0.202c-1.3,0-2.662,0.019-4.162,0.057
							c-3.381,0.089-6.932,0.36-10.857,0.829c-4.179,0.518-7.584,1.127-10.715,1.917l-0.013,0.003
							C380.228,449.964,380.223,449.964,380.221,449.959z"/>
						<polygon style="fill:#13A7F1;" points="241.078,402.192 241.273,396.179 241.283,395.889 240.994,395.923 223.064,398.029 
							222.813,398.058 222.846,398.31 223.553,403.719 223.584,403.957 223.823,403.936 240.85,402.433 241.071,402.414 						"/>
						<path style="fill:#40595E;" d="M152.797,325.766l0.042,0.014l0.044-0.001c0,0,0.001,0,0.001,0c0.186,0,0.34,0.055,0.471,0.163
							l0.034,0.028l0.042,0.015c7.372,2.594,14.215,5.873,20.34,9.745c14.326,9.059,31.503,25.883,31.984,54.587
							c0.007,0.747,0.009,1.488,0,2.236l-0.003,0.267l0.267-0.014c5.554-0.303,24.928-1.541,41.061-4.749l0.29-0.058l-0.105-0.276
							c-0.197-0.519-0.466-1.214-0.806-2.066c-6.753-16.717-32.482-71.537-80.068-75.128l-0.078-0.006l-0.067,0.039l-21.269,12.406
							l-0.528,0.308l0.592,0.15C146.728,323.856,149.443,324.609,152.797,325.766z"/>
						<path style="fill:#5C6A6D;" d="M231.331,353.728l0.05,0.075l0.086,0.026c0.029,0.009,0.058,0.014,0.087,0.019
							c5.522,2.651,10.052,4.604,14.285,6.154c4.907,1.771,9.938,3.128,14.953,4.035c5.094,0.931,10.326,1.404,15.55,1.404
							c5.133,0,10.29-0.456,15.326-1.356c5.456-0.991,10.415-2.552,14.74-4.641c4.877-2.334,9.032-5.409,12.348-9.138
							c6.494-7.242,9.924-17.789,9.173-28.212l-0.006-0.083l-0.054-0.063c-0.09-0.104-0.143-0.199-0.168-0.3l-1.024-4.096
							l-0.037-0.146l-0.147-0.036l-8.893-2.166l-0.484-0.118l0.194,0.458l3.32,7.824c0.058,0.135,0.074,0.283,0.048,0.428
							c-5.017,27.422-29.083,30.382-39.197,30.382c-2.429,0-4.018-0.17-4.311-0.205c-21.894-0.367-43.706-8.395-64.856-23.862
							l-0.318,0.384C218.849,336.909,225.354,344.724,231.331,353.728z"/>
						<path style="fill:#5C6A6D;" d="M200.643,321.374l0.306-0.394c-8.307-7.316-13.675-13.504-15.597-15.825l-0.161-0.195
							l-0.193,0.164c-2.005,1.702-4.342,4.211-4.888,6.148l-0.067,0.237l0.236,0.07C187.278,313.654,194.13,316.95,200.643,321.374z
							"/>
						<path style="fill:#F7BE27;" d="M233.013,413.019c-3.904,0-7.08,3.176-7.08,7.079c0,3.903,3.176,7.079,7.08,7.079
							c3.903,0,7.079-3.176,7.079-7.079C240.092,416.194,236.916,413.019,233.013,413.019z M236.263,419.769
							c0,1.65-1.343,2.993-2.994,2.993c-1.651,0-2.994-1.343-2.994-2.993c0-1.651,1.343-2.994,2.994-2.994
							C234.92,416.774,236.263,418.118,236.263,419.769z"/>
						<path style="fill:#13A7F1;" d="M191.197,428.417l-0.05,0.545l-0.011,0.122l0.09,0.083c0.766,0.703,2.083,1.828,4.002,3.19
							l0.064,0.046l0.034,0.001c2.472,1.552,5.055,3.006,7.679,4.32c1.55,0.764,3.254,1.523,5.365,2.39l0.279,0.115l0.061-0.296
							c3.729-18.221,5.555-33.406,5.572-33.555c0.041-0.351,0.327-0.629,0.679-0.66l8.212-0.725l0.254-0.022l-0.027-0.253
							l-0.582-5.405l-0.027-0.251l-0.251,0.029l-24.469,2.874c-0.031,0.004-0.06,0.005-0.089,0.005c-0.38,0-0.699-0.285-0.743-0.663
							l-1.05-8.94c-0.023-0.199,0.032-0.395,0.156-0.552c0.124-0.157,0.302-0.257,0.501-0.28l7.159-0.843l0.227-0.027l-0.007-0.229
							c-0.64-22.064-11.139-39.696-31.205-52.405c-1.841-1.166-3.788-2.299-5.787-3.367l-1.537-0.821l1.245,1.22
							c2.136,2.095,4.205,4.496,6.149,7.137c1.46,1.982,2.883,4.157,4.229,6.465c1.447,2.507,2.558,4.689,3.495,6.865
							c4.131,7.974,7.039,17.288,8.9,28.491c1.506,9.264,2.212,19.004,2.158,29.776c-0.036,5.146-0.242,10.165-0.613,14.918
							C191.241,427.949,191.219,428.183,191.197,428.417z"/>
						<path style="fill:#F7BE27;" d="M204.248,391.455l0-0.281l-0.279,0.033l-5.954,0.701l-0.248,0.029l0.029,0.248l0.817,6.954
							l0.029,0.248l0.248-0.029l58.793-6.907l0.248-0.029l-0.029-0.248l-0.816-6.954l-0.029-0.248l-0.248,0.029l-8.277,0.973
							l-0.321,0.038l0.117,0.301l0.03,0.078l0.023,0.059l0.125-0.021l0.009,0.024l-0.116,0.045l0.192,0.498
							c0.202,0.529,0.333,0.883,0.41,1.091l0.081,0.222c0.073,0.204,0.053,0.43-0.053,0.619c-0.106,0.189-0.289,0.323-0.502,0.367
							c-18.804,3.891-43.266,5.055-43.508,5.065c-0.002,0-0.004,0-0.006,0c-0.048,0-0.078-0.008-0.108-0.016l-0.073-0.018
							c-0.027-0.006-0.054-0.009-0.081-0.013c-0.139-0.045-0.223-0.099-0.292-0.167c-0.148-0.146-0.23-0.348-0.224-0.555
							c0.016-0.595,0.015-1.178,0.013-1.76L204.248,391.455z"/>
						<path style="fill:#40595E;" d="M240.627,416.08l0.026-0.791l0.36-11.083l0.009-0.282l-0.281,0.025l-16.702,1.474l-0.26,0.023
							l0.034,0.259l1.31,10.024l0.095,0.73l0.369-0.638c1.535-2.654,4.38-4.302,7.426-4.302c2.899,0,5.583,1.458,7.18,3.899
							L240.627,416.08z"/>
						<path style="fill:#0B1011;" d="M233.269,417.274c-1.375,0-2.494,1.119-2.494,2.494c0,1.375,1.119,2.493,2.494,2.493
							c1.375,0,2.494-1.118,2.494-2.493C235.763,418.393,234.644,417.274,233.269,417.274z"/>
						<path style="fill:#40595E;" d="M210.699,440.049c0.151,0.062,0.302,0.124,0.455,0.182c5.602,2.061,11.376,3.53,17.163,4.366
							c3.97,0.574,7.991,0.865,11.952,0.865c1.91,0,3.838-0.068,5.728-0.202c5.595-0.395,11.21-1.369,16.688-2.896l0.202-0.056
							l-0.02-0.208c-0.273-2.829-0.655-5.562-1.135-8.123c-3.602-19.215-7.825-29.152-8.635-30.949l-0.073-0.162l-0.177,0.016
							l-11.408,1.007l-0.225,0.02l-0.003,0.226l-0.163,12.94l-0.001,0.046l0.016,0.043c0.351,0.958,0.529,1.946,0.529,2.935
							c0,4.73-3.849,8.579-8.579,8.579c-4.731,0-8.58-3.849-8.58-8.579c0-0.895,0.143-1.786,0.424-2.649l0.017-0.051l-0.006-0.053
							l-1.253-11.638l-0.026-0.244l-0.244,0.021l-7.442,0.657l-0.202,0.018l-0.025,0.201c-0.462,3.751-2.223,17.234-5.505,33.256
							l-0.042,0.207l0.197,0.076C210.451,439.947,210.575,439.998,210.699,440.049z"/>
						<path style="fill:#5C6A6D;" d="M434.262,463.025c-0.805-1.986-1.617-4.125-2.414-6.357l-0.051-0.142l-0.15-0.021
							c-4.357-0.619-9.012-1.005-14.232-1.178c-1.482-0.035-3.007-0.052-4.537-0.052c-3.299,0-6.658,0.077-10.27,0.237
							c-4.849,0.243-9.819,0.622-14.773,1.125c-5,0.516-9.502,1.087-13.763,1.747l-0.146,0.023l-0.051,0.139
							c-0.62,1.706-1.161,3.453-1.61,5.191l-0.001,0.003l-0.009,0.036l-0.031,0.126l0.085,0.098
							c0.507,0.581,1.023,1.194,1.532,1.822l0.091,0.112l0.142-0.022l0.736-0.114l4.028-0.584c2.562-0.356,5.279-0.705,8.072-1.038
							c5.243-0.63,10.697-1.146,16.212-1.533c5.049-0.364,9.701-0.542,14.224-0.542c0.691,0,1.382,0.004,2.074,0.013
							c4.402,0.081,9.522,0.251,14.563,1.251l0.454,0.09L434.262,463.025z"/>
						<path style="fill:#40595E;" d="M369.251,495.639l-0.02-0.196l-0.195-0.026c-9.717-1.3-35.243-4.324-62.34-4.324
							c-16.117,0-30.316,1.066-42.205,3.168c-0.318,0.101-1.078,0.315-1.974,0.315c-1.072,0-1.956-0.303-2.629-0.901
							c-1.436-1.276-1.73-3.75-0.872-7.351c3.737-15.695,5.065-30.236,3.947-43.22l-0.026-0.298l-0.288,0.078
							c-5.467,1.472-11.061,2.397-16.625,2.752c-1.715,0.11-3.462,0.166-5.193,0.166c-4.162,0-8.384-0.32-12.551-0.952
							c-5.796-0.879-11.573-2.39-17.171-4.493c-0.128-0.049-0.255-0.103-0.383-0.156c-0.115-0.048-0.23-0.097-0.346-0.142
							l-0.276-0.108l-0.06,0.29c-4.537,21.972-12.382,50.497-23.987,61.612l-0.45,0.431l0.623,0l183.553-0.035h0.287l-0.04-0.285
							C369.715,499.734,369.461,497.665,369.251,495.639z"/>
						<path style="fill:#5C6A6D;" d="M373.221,494.488l0.017-0.272l1.501-24.661l0.005-0.089l-0.052-0.072
							c-0.57-0.796-1.219-1.641-1.982-2.583l-0.09-0.111l-0.142,0.021l-1.523,0.229l-0.149,0.022c-0.003,0-0.005,0-0.007,0
							c-0.161,0-0.267-0.093-0.286-0.216c-0.02-0.135,0.069-0.263,0.204-0.291c0.391-0.08,0.733-0.139,1.061-0.192l0.435-0.071
							l-0.284-0.337c-26.668-31.579-101.787-57.562-116.575-62.451l-0.519-0.171l0.209,0.504c1.397,3.371,4.99,13.039,8.161,29.951
							c2.889,15.407,1.97,33.23-2.731,52.973c-0.709,2.98-0.568,5.014,0.409,5.883c0.391,0.347,0.937,0.522,1.624,0.522
							c0.799,0,1.51-0.243,1.517-0.246c0.043-0.016,0.084-0.027,0.126-0.035c11.98-2.124,26.29-3.201,42.534-3.201
							c27.288,0,52.937,3.045,62.697,4.354l0.081,0.011l0.072-0.039c0.09-0.049,0.186-0.079,0.286-0.089
							c0.018-0.001,0.039-0.002,0.06-0.002c0.191,0,0.376,0.075,0.522,0.211l0.058,0.054l0.079,0.011
							c1.013,0.139,1.829,0.256,2.411,0.341L373.221,494.488z M266.916,412.718l-0.069-0.052l0.182-0.165l-0.014-0.017l-0.005-0.004
							c-0.001-0.002,0-0.005,0.002-0.007c0.032,0.031,0.054,0.092,0.057,0.105l0.046,0.163l0.063,0.266l0.113,0.538l0.204,1.081
							l0.373,2.169l0.688,4.349c0.421,2.768,0.833,5.619,1.257,8.714c0.824,6.013,1.553,11.893,2.166,17.479
							c0.744,6.812,1.241,12.386,1.566,17.544c0.212,3.432,0.318,6.229,0.333,8.803l-0.002,0.355
							c-0.016,2.599-0.032,5.286-0.595,7.917l-0.076,0.355l0.359-0.056c7.069-1.098,14.648-1.834,23.17-2.25
							c3.863-0.178,7.702-0.268,11.41-0.268c4.2,0,8.369,0.116,12.392,0.344c8.259,0.457,16.213,1.398,23.64,2.797
							c8.051,1.502,15.767,3.65,22.935,6.383c0.063,0.024,0.112,0.071,0.139,0.131c0.027,0.061,0.029,0.129,0.005,0.191
							c-0.037,0.096-0.131,0.161-0.234,0.161c-0.03,0-0.06-0.006-0.089-0.017c-7.137-2.746-14.82-4.908-22.838-6.427
							c-7.405-1.418-15.339-2.38-23.58-2.86c-4.231-0.253-8.623-0.381-13.053-0.381c-3.485,0-7.09,0.079-10.715,0.236
							c-8.764,0.401-16.503,1.137-23.658,2.25c-0.001,0-0.003,0-0.004,0c-0.072,0-0.119-0.042-0.128-0.096l0.001-0.002l0.003-0.048
							c0.677-2.734,0.699-5.673,0.72-8.515l0.001-0.199c-0.007-2.572-0.105-5.366-0.307-8.796
							c-0.309-5.158-0.79-10.732-1.513-17.541c-0.597-5.586-1.308-11.468-2.115-17.482c-0.415-3.092-0.818-5.944-1.232-8.719
							l-0.675-4.349l-0.366-2.17l-0.201-1.081l-0.111-0.538l-0.063-0.266c0.001-0.019-0.018-0.073-0.034-0.121
							c0,0.007,0.003,0.091-0.054,0.167l-0.04-0.03C266.965,412.738,266.95,412.719,266.916,412.718z M293.77,426.429
							c-0.147-0.042-0.224-0.181-0.186-0.313c0.03-0.107,0.129-0.181,0.24-0.181c0.023,0,0.046,0.003,0.069,0.01
							c7.334,2.137,14.566,4.816,21.496,7.961c7.344,3.417,13.981,6.898,20.289,10.641c6.556,3.896,13.024,8.087,19.224,12.456
							c6.884,4.872,12.828,9.431,18.173,13.94l-0.005,0.013c-0.002,0-0.003-0.001-0.005-0.002
							c-5.372-4.483-11.337-9.009-18.241-13.84c-6.219-4.333-12.704-8.487-19.275-12.345c-6.316-3.703-12.961-7.143-20.314-10.518
							C308.31,431.152,301.088,428.521,293.77,426.429z"/>
						<path style="fill:#F7E5B4;" d="M403.182,463.654c-5.504,0.304-10.951,0.738-16.189,1.288
							c-2.797,0.291-5.513,0.599-8.072,0.916l-4.027,0.523l-0.113,0.016l-0.428,0.06l0.265,0.341
							c0.583,0.751,1.075,1.412,1.504,2.019c0.098,0.139,0.146,0.308,0.136,0.477l-1.589,26.104
							c-0.013,0.21-0.114,0.407-0.279,0.539c-0.133,0.107-0.3,0.166-0.471,0.166c-0.038,0-0.077-0.003-0.116-0.009
							c-0.074-0.012-1.034-0.16-2.726-0.396l-0.317-0.044l0.034,0.318c0.206,1.932,0.455,3.915,0.76,6.064l0.03,0.215l0.217,0
							l36.821-0.007l0.243,0l0.007-0.243c0.166-5.655-1.311-13.269-1.953-16.279l-0.181-0.85l-0.298,0.817
							c-0.114,0.311-0.229,0.621-0.345,0.928c0.19-0.702,0.371-1.407,0.542-2.116l0.01-0.042l-0.004-0.042
							c-0.011-0.106-0.006-0.194,0.014-0.27l0.388-1.45l0.089-0.399c0.047-0.207,0.094-0.415,0.136-0.623
							c0.007-0.032,0.024-0.065,0.054-0.102l0.033-0.041l0.014-0.051l4.768-17.828l0.086-0.32l-0.331,0.005
							C409.016,463.381,406.085,463.488,403.182,463.654z"/>
						<path style="fill:#13A7F1;" d="M91.923,451.107c1.632,0,3.341,0.012,5.079,0.035c11.066,0.196,21.189,0.804,30.946,1.858
							c12.124,1.342,21.87,2.788,30.671,4.549c3.925,0.683,7.872,1.578,11.688,2.443c1.162,0.263,2.324,0.527,3.487,0.785
							c1.799,0.374,3.604,0.854,5.349,1.319c0.723,0.192,1.445,0.385,2.17,0.571l6.385,1.681l0.297,0.078l0.016-0.307l1.161-21.64
							l0.399-7.44c0.03-0.439,0.051-0.88,0.071-1.32c0.036-0.781,0.073-1.589,0.171-2.392c0.11-1.084,0.212-2.258,0.322-3.698
							c0.352-4.727,0.539-9.719,0.555-14.837c0.015-10.702-0.721-20.37-2.25-29.559c-1.878-11.073-4.781-20.255-8.876-28.071
							l-0.027-0.057c-0.901-2.079-2.06-4.337-3.45-6.722c-1.328-2.26-2.729-4.387-4.165-6.323c-3.24-4.374-6.766-7.998-10.48-10.773
							c-0.158-0.118-0.26-0.289-0.292-0.484l-0.022-0.133l-0.123-0.055c-2.672-1.195-5.429-2.293-8.196-3.263l-0.073-0.025
							l-0.074,0.02c-7.898,2.106-34.768,11.159-48.931,39.238c-13.777,27.311-30.397,69.247-36.287,85.277l-0.138,0.375l0.397-0.04
							C75.032,451.464,82.954,451.107,91.923,451.107z M182.387,454.891c-0.018,0-0.036-0.002-0.054-0.006l-13.263-2.936
							c-1.582-0.302-3.154-0.613-4.727-0.924c-2.818-0.558-5.731-1.135-8.611-1.635c-1.365-0.223-2.726-0.457-4.087-0.69
							c-3.047-0.522-6.198-1.063-9.319-1.47l-6.715-0.95l-6.745-0.786c-9.971-1.082-18.83-1.708-27.083-1.914
							c-2.609-0.048-4.716-0.071-6.631-0.071c-2.532,0-4.804,0.039-6.948,0.12c-5.478,0.18-9.65,0.509-13.524,1.064l-0.014,0.002
							c-0.001,0-0.006-0.001-0.007-0.006c3.879-0.582,8.054-0.929,13.544-1.135c2.453-0.103,5.106-0.154,8.11-0.154
							c1.612,0,3.352,0.014,5.476,0.044c8.258,0.169,17.124,0.756,27.105,1.794l6.754,0.756l6.729,0.921
							c3.123,0.393,6.279,0.92,9.331,1.429c1.365,0.228,2.729,0.456,4.096,0.673c2.881,0.488,5.801,1.052,8.626,1.599
							c1.576,0.305,3.153,0.609,4.731,0.903l13.28,2.878c0.135,0.029,0.221,0.162,0.191,0.297
							C182.606,454.808,182.503,454.891,182.387,454.891z"/>
						<path style="fill:#5C6A6D;" d="M93.658,456.805l0.061,0.002l0.055-0.026c0.121-0.058,0.232-0.086,0.339-0.086
							c0.036,0,0.073,0.003,0.11,0.01c0.208,0.038,0.385,0.165,0.501,0.357l0.071,0.118l0.138,0.003l0.211,0.004l0.22,0.004
							c9.497,0.223,19.727,1.05,31.274,2.529c9.78,1.253,19.907,2.918,30.959,5.089c10.77,2.136,20.49,4.35,29.714,6.768
							l0.297,0.078l0.016-0.306l0.333-6.212l0.011-0.203l-0.196-0.052l-6.577-1.759c-0.723-0.188-1.443-0.383-2.163-0.578
							c-1.744-0.472-3.547-0.96-5.349-1.341c-1.159-0.262-2.32-0.53-3.481-0.798c-3.806-0.879-7.741-1.787-11.657-2.484
							c-8.778-1.793-18.51-3.275-30.621-4.664c-9.747-1.092-19.862-1.739-30.923-1.979c-2.204-0.038-4.356-0.058-6.397-0.058
							c-8.529,0-16.101,0.335-23.147,1.023l-0.156,0.015l-0.054,0.148c-1.127,3.082-1.893,5.301-2.213,6.417l-0.111,0.388
							l0.397-0.073c3.36-0.616,6.89-1.089,10.493-1.406c4.952-0.65,9.862-0.979,14.603-0.979
							C91.501,456.752,92.592,456.77,93.658,456.805z"/>
						<path style="fill:#F7E5B4;" d="M179.791,470.88l0.035-0.226l-0.222-0.055c-7.059-1.741-14.313-3.359-22.176-4.947
							c-11.027-2.206-21.131-3.904-30.888-5.189c-11.516-1.516-21.719-2.377-31.192-2.633l-0.183-0.004l-0.167-0.003l-0.214-0.006
							l-0.039,0.211l-4.116,22.501l-3.884,21.48l-0.053,0.295l0.299,0l89.187-0.017h0.277l-0.029-0.276
							c-0.304-2.942,0.08-7.891,0.456-11.525l0.233-2.254l-0.719,2.149c-0.052,0.154-0.104,0.308-0.156,0.462
							c0.441-1.593,0.843-3.201,1.205-4.82L179.791,470.88z"/>
						<path style="fill:#13A7F1;" d="M208.222,441.298l-0.719,1.057l-18.791,27.63l-0.039,0.057l-0.004,0.069l-0.125,2.183
							c-0.015,0.257-0.228,0.458-0.485,0.458c-0.062-0.003-0.1-0.01-0.132-0.018l-0.082-0.021l-0.077-0.02l-0.186-0.05l-0.096,0.168
							c-1.824,3.202-5.175,4.224-7.01,4.549l-0.176,0.031l-0.027,0.177l-1.544,9.966c-0.014,0.108-1.312,10.239-0.787,14.533
							l0.027,0.22h0.221l4.981-0.001h0.085l0.068-0.052c11.739-9.078,19.873-37.468,24.63-59.685L208.222,441.298z M187.865,472.976
							L187.865,472.976L187.865,472.976C187.864,472.976,187.864,472.976,187.865,472.976
							C187.865,472.976,187.865,472.976,187.865,472.976z"/>
					</g>
				</g>
				<path style="fill:#F7BE27;" d="M292.105,106.341c0,0,19.314-21.951,42.436-2.78l-22.428-18.515l11.892-5.631l-20.924-5.905
					c0,0,13.167-10.339,18.582-12.388c0,0-14.488-6.439-40.537-3.805l-33.805,5.707l-18.878,9.659c0,0,11.561-2.049,20.78-1.024
					c9.22,1.024,22.683,5.561,29.561,13.171C278.785,84.829,290.352,97.853,292.105,106.341z"/>
			</g>
			<g>
				<g>
					<g>
						<path style="fill:#0B1011;" d="M74.595,444.434c4.509-0.667,9.032-0.959,13.565-1.13c4.531-0.191,9.066-0.174,13.598-0.11
							c9.066,0.186,18.113,0.858,27.127,1.795l6.756,0.756l6.735,0.922c4.498,0.566,8.956,1.391,13.432,2.102
							c4.468,0.757,8.908,1.674,13.363,2.503l13.287,2.879c0.27,0.058,0.441,0.325,0.383,0.595c-0.059,0.27-0.325,0.441-0.594,0.383
							l-0.002-0.001l-0.013-0.003l-13.249-2.933c-4.443-0.847-8.87-1.783-13.326-2.557c-4.463-0.73-8.91-1.573-13.396-2.158
							l-6.718-0.951l-6.739-0.785c-8.991-0.976-18.017-1.687-27.06-1.912c-4.521-0.084-9.045-0.121-13.563,0.049
							c-4.514,0.149-9.044,0.423-13.498,1.062l-0.013,0.002c-0.141,0.02-0.271-0.078-0.291-0.218
							C74.358,444.584,74.455,444.454,74.595,444.434z"/>
					</g>
					<g>
						<path style="fill:#0B1011;" d="M380.13,449.708c3.541-0.935,7.129-1.556,10.741-2.046c3.612-0.473,7.244-0.817,10.887-0.953
							c3.641-0.134,7.291-0.172,10.933,0.024c3.645,0.137,7.276,0.524,10.897,0.973c0.274,0.034,0.469,0.284,0.435,0.558
							c-0.034,0.274-0.284,0.469-0.558,0.435c-0.001,0-0.002,0-0.003,0l-0.016-0.002c-3.585-0.484-7.183-0.909-10.8-1.085
							c-3.614-0.235-7.239-0.238-10.86-0.144c-3.622,0.095-7.237,0.397-10.834,0.827c-3.592,0.446-7.185,1.029-10.683,1.911
							l-0.011,0.003c-0.138,0.035-0.278-0.049-0.313-0.187C379.912,449.883,379.994,449.744,380.13,449.708z"/>
					</g>
					<path style="fill:#0B1011;" d="M185.385,302.899c0,0,9.314,1.693,9.06,1.778c-0.254,0.085-4.403,5.419-4.403,5.419
						L185.385,302.899z"/>
					<path style="fill:#0B1011;" d="M94.15,456.571l-5.175,23.714c0,0-19.157-6.257-24.564-20.702
						C64.41,459.583,77.928,455.953,94.15,456.571z"/>
					<path style="fill:#0B1011;" d="M435.922,465.141c0,0-11.974,12.422-27.753,16.227c0,0,4.812-15.331,4.812-18.465
						C412.981,462.903,430.326,462.119,435.922,465.141z"/>
					<path style="fill:#0B1011;" d="M179.382,477.746c0,0,6.248-0.257,8.645-5.478l-7.532-2.397L179.382,477.746z"/>
					<path style="fill:#0B1011;" d="M209.577,439.702l-21.253,31.248l2.363-42.617C190.688,428.334,196.7,434.659,209.577,439.702z"
						/>
					<path style="fill:#0B1011;" d="M374.785,448.492l1.61-25.463c0,0-12.395,10.884-20.04,11.968
						C356.355,434.997,374.785,439.858,374.785,448.492z"/>
					<path style="fill:none;stroke:#0B1011;stroke-width:2;stroke-linecap:round;stroke-linejoin:round;stroke-miterlimit:10;" d="
						M152.859,326.512c-6.271,1.622-34.971,10.28-49.829,39.736c-16.683,33.073-39.805,93.073-38.927,93.366
						c0.878,0.293,4.683,13.463,25.756,20.78l-4.098,22.659l323.781-0.062c0.488-7.315-2.194-18.653-2.194-18.653l5.608-20.97"/>
					<path style="fill:none;stroke:#0B1011;stroke-width:2;stroke-linecap:round;stroke-linejoin:round;stroke-miterlimit:10;" d="
						M408.59,481.566c21.366-6.732,27.22-16.683,27.22-16.683c-12.293-28.683-24-91.61-37.756-115.902
						c-13.756-24.293-69.659-27.512-69.659-27.512l-1.171-4.683l-11.415-2.78l4.098,9.659c-6.293,34.39-42.732,29.561-42.732,29.561
						c-54.293-0.878-91.902-49.317-91.902-49.317s-6.037,4.66-6.069,8.127"/>
					<g>
						<path style="fill:#0B1011;" d="M370.635,466.221c0.801-0.163,1.397-0.241,2.09-0.36l2.013-0.312l4.03-0.584
							c2.689-0.373,5.382-0.717,8.078-1.039c5.392-0.648,10.802-1.153,16.224-1.534c5.422-0.391,10.863-0.597,16.318-0.529
							c5.449,0.1,10.938,0.336,16.368,1.635c0.537,0.128,0.868,0.668,0.74,1.205c-0.128,0.537-0.668,0.868-1.205,0.74
							c-0.003-0.001-0.007-0.002-0.01-0.003l-0.018-0.005c-5.121-1.311-10.544-1.642-15.911-1.816
							c-5.385-0.148-10.791-0.025-16.188,0.284c-5.398,0.298-10.794,0.721-16.177,1.287c-2.692,0.28-5.381,0.583-8.068,0.915
							l-4.026,0.522l-2.009,0.28l-1.924,0.289l-0.149,0.022c-0.277,0.042-0.536-0.149-0.577-0.426
							C370.194,466.526,370.372,466.275,370.635,466.221z"/>
					</g>
					<path style="fill:none;stroke:#0B1011;stroke-width:2;stroke-linecap:round;stroke-linejoin:round;stroke-miterlimit:10;" d="
						M371.498,463.581c0.653-2.536,1.471-5.038,2.482-7.479c0,0,2.195-28.098,2.634-32.927c0,0,13.723-35.368-0.546-71.368"/>
					<path style="fill:none;stroke:#0B1011;stroke-width:2;stroke-linecap:round;stroke-linejoin:round;stroke-miterlimit:10;" d="
						M370.877,502.85c-0.38-2.618-0.735-5.39-1.014-8.27"/>
					<g>
						<path style="fill:#0B1011;" d="M328.639,321.501c0.289,2.668,0.217,5.289-0.053,7.915c-0.274,2.62-0.795,5.214-1.559,7.739
							c-1.518,5.05-4.1,9.803-7.602,13.771c-3.498,3.975-7.867,7.134-12.606,9.432c-4.741,2.318-9.827,3.839-14.983,4.803
							c-10.319,1.868-20.957,2.001-31.315,0.238c-5.177-0.874-10.276-2.196-15.236-3.92c-4.964-1.753-9.747-3.832-14.49-6.044
							c-0.5-0.233-0.717-0.829-0.483-1.329c0.233-0.5,0.829-0.717,1.329-0.483c0.002,0.001,0.004,0.002,0.006,0.003l0.011,0.005
							c4.657,2.241,9.406,4.369,14.235,6.137c4.847,1.749,9.837,3.106,14.911,4.024c10.14,1.854,20.629,1.863,30.788,0.048
							c5.068-0.921,10.05-2.386,14.675-4.62c4.625-2.214,8.867-5.253,12.27-9.079c6.851-7.64,9.937-18.35,9.083-28.5l-0.003-0.04
							c-0.024-0.283,0.186-0.532,0.469-0.556C328.363,321.02,328.609,321.224,328.639,321.501z"/>
					</g>
					<g>
						<path style="fill:#0B1011;" d="M319.597,327.007c-1.978,1.63-4.1,3.053-6.371,4.253c-2.273,1.173-4.729,2.129-7.387,2.305
							c-0.276,0.018-0.514-0.19-0.532-0.466c-0.018-0.276,0.19-0.514,0.466-0.532c0.005,0,0.01,0,0.014-0.001l0.017-0.001
							c2.428-0.08,4.833-0.907,7.082-1.983c2.246-1.095,4.399-2.442,6.381-3.972l0.009-0.007c0.112-0.087,0.274-0.066,0.361,0.046
							C319.722,326.762,319.703,326.919,319.597,327.007z"/>
					</g>
					<g>
						<path style="fill:#0B1011;" d="M207.07,324.809c0.189,0.017,0.404,0.051,0.586,0.099l0.431,0.124l0.86,0.249l1.714,0.504
							l3.429,0.996c2.287,0.659,4.579,1.298,6.878,1.915c4.596,1.237,9.212,2.393,13.85,3.451c4.642,1.038,9.305,1.98,13.991,2.772
							c4.691,0.758,9.404,1.369,14.134,1.708l0.007,0c0.276,0.02,0.483,0.259,0.463,0.534c-0.02,0.275-0.259,0.483-0.535,0.463
							l-0.004,0c-4.771-0.382-9.506-1.038-14.212-1.839c-4.7-0.836-9.369-1.82-14.014-2.9c-4.64-1.1-9.256-2.298-13.848-3.576
							c-2.296-0.638-4.587-1.298-6.871-1.976l-3.423-1.026l-1.709-0.519l-0.853-0.255l-0.426-0.127
							c-0.107-0.024-0.183-0.057-0.283-0.109l-0.266-0.14c-0.091-0.048-0.125-0.16-0.078-0.25
							C206.925,324.839,206.998,324.803,207.07,324.809z"/>
					</g>
					<g>
						<path style="fill:#0B1011;" d="M285.043,340.021c1.283,1.255,2.674,2.427,4.129,3.479c1.456,1.046,3.013,1.985,4.676,2.541
							c0.827,0.269,1.694,0.425,2.509,0.316c0.815-0.101,1.54-0.504,2.058-1.134c0.512-0.632,0.887-1.412,1.094-2.257
							c0.138-0.408,0.183-0.854,0.28-1.277l0.157-1.315l0.005-0.039c0.033-0.274,0.281-0.47,0.556-0.437
							c0.274,0.033,0.47,0.281,0.437,0.555c0,0.003-0.001,0.008-0.001,0.011l-0.197,1.388c-0.114,0.459-0.172,0.924-0.334,1.377
							c-0.249,0.911-0.684,1.811-1.333,2.571c-0.649,0.763-1.63,1.277-2.625,1.37c-0.997,0.107-1.959-0.103-2.846-0.41
							c-1.777-0.64-3.346-1.646-4.812-2.747c-1.465-1.111-2.836-2.318-4.122-3.633c-0.099-0.102-0.098-0.265,0.004-0.364
							c0.1-0.098,0.26-0.098,0.36,0L285.043,340.021z"/>
					</g>
					
						<line style="fill:none;stroke:#0B1011;stroke-width:2;stroke-linecap:round;stroke-linejoin:round;stroke-miterlimit:10;" x1="89.859" y1="480.395" x2="94.057" y2="457.442"/>
					<path style="fill:none;stroke:#0B1011;stroke-width:2;stroke-linecap:round;stroke-linejoin:round;stroke-miterlimit:10;" d="
						M180.574,470.48"/>
					<path style="fill:none;stroke:#0B1011;stroke-width:2;stroke-linecap:round;stroke-linejoin:round;stroke-miterlimit:10;" d="
						M180.521,470.858l-2.565,16.562c0,0-1.361,10.477-0.775,14.867"/>
					<g>
						<path style="fill:#0B1011;" d="M64.002,459.109c5.159-1.016,10.386-1.59,15.619-1.918c5.234-0.334,10.48-0.389,15.717-0.25
							c10.476,0.246,20.918,1.201,31.299,2.531c10.383,1.331,20.708,3.075,30.976,5.092c10.267,2.037,20.474,4.315,30.611,6.995
							l-0.929,0.668l1.597-29.76l0.399-7.44c0.086-1.244,0.09-2.471,0.243-3.729c0.124-1.224,0.227-2.456,0.321-3.687
							c0.367-4.928,0.538-9.875,0.554-14.819c0.014-9.886-0.628-19.784-2.247-29.517c-1.646-9.706-4.304-19.317-8.85-27.996
							l-0.031-0.064l-0.008-0.02c-0.979-2.26-2.169-4.518-3.432-6.685c-1.275-2.17-2.652-4.281-4.149-6.3
							c-2.988-4.034-6.439-7.741-10.429-10.721l-0.004-0.003c-0.443-0.331-0.533-0.957-0.203-1.4c0.33-0.442,0.957-0.533,1.4-0.203
							l0.003,0.002c4.182,3.146,7.739,7.004,10.804,11.167c1.535,2.084,2.942,4.255,4.243,6.487
							c1.296,2.244,2.486,4.509,3.528,6.933l-0.039-0.083c4.651,8.961,7.303,18.752,8.937,28.592
							c1.604,9.866,2.211,19.854,2.161,29.818c-0.034,4.984-0.226,9.965-0.614,14.936c-0.1,1.243-0.208,2.485-0.339,3.73
							c-0.153,1.206-0.164,2.467-0.253,3.698l-0.425,7.429l-1.699,29.717c-0.023,0.406-0.371,0.716-0.777,0.693
							c-0.05-0.003-0.106-0.013-0.152-0.025c-10.062-2.699-20.259-5.014-30.486-7.079c-10.234-2.048-20.526-3.823-30.871-5.186
							c-10.343-1.362-20.744-2.35-31.166-2.631c-5.21-0.157-10.425-0.12-15.623,0.194c-5.196,0.307-10.38,0.859-15.483,1.845
							c-0.279,0.056-0.55-0.125-0.606-0.404C63.541,459.437,63.723,459.165,64.002,459.109z"/>
					</g>
					<g>
						<path style="fill:#0B1011;" d="M65.972,452.115c10.304-1.129,20.658-1.362,31.001-1.223
							c10.342,0.184,20.682,0.748,30.969,1.86c10.28,1.138,20.545,2.521,30.693,4.552c5.099,0.887,10.129,2.108,15.18,3.23
							c2.534,0.526,5.021,1.249,7.527,1.892l7.507,1.976c0.267,0.07,0.426,0.344,0.356,0.611c-0.07,0.267-0.344,0.426-0.611,0.356
							l-0.002-0.001l-0.018-0.005l-7.478-1.999c-2.497-0.651-4.974-1.381-7.499-1.916c-5.033-1.138-10.046-2.376-15.129-3.281
							c-10.116-2.066-20.352-3.486-30.606-4.662c-10.261-1.149-20.579-1.753-30.9-1.977c-10.317-0.18-20.671,0.015-30.924,1.098
							l-0.011,0.001c-0.141,0.015-0.268-0.088-0.283-0.229C65.729,452.257,65.83,452.13,65.972,452.115z"/>
					</g>
					<g>
						<path style="fill:#0B1011;" d="M373.059,458.263c4.884-0.819,9.786-1.463,14.702-2.011c4.916-0.54,9.847-0.96,14.787-1.248
							c4.942-0.258,9.893-0.382,14.847-0.306c4.953,0.124,9.907,0.446,14.831,1.13c0.274,0.038,0.464,0.29,0.426,0.564
							c-0.038,0.273-0.29,0.464-0.564,0.427l-0.004-0.001l-0.008-0.001c-4.862-0.715-9.778-1.076-14.702-1.24
							c-4.927-0.115-9.859-0.033-14.788,0.184c-4.927,0.247-9.849,0.625-14.759,1.124c-4.908,0.506-9.813,1.109-14.682,1.886
							c-0.14,0.025-0.274-0.069-0.298-0.209C372.823,458.422,372.92,458.289,373.059,458.263z"/>
					</g>
					<g>
						<path style="fill:#0B1011;" d="M195.376,432.159c2.498,1.571,5.072,3.019,7.71,4.341c2.647,1.304,5.363,2.461,8.124,3.497
							c5.536,2.036,11.277,3.509,17.111,4.353c5.832,0.843,11.752,1.078,17.627,0.661c5.875-0.414,11.703-1.454,17.358-3.085
							c0.265-0.077,0.543,0.076,0.619,0.341c0.077,0.265-0.076,0.543-0.341,0.619l-0.004,0.001c-5.734,1.611-11.634,2.621-17.574,3
							c-5.94,0.381-11.918,0.103-17.797-0.788c-5.881-0.891-11.659-2.416-17.222-4.506c-2.775-1.063-5.503-2.247-8.159-3.578
							c-2.647-1.348-5.228-2.824-7.731-4.422c-0.12-0.077-0.155-0.236-0.078-0.355C195.095,432.118,195.256,432.084,195.376,432.159
							z"/>
					</g>
					<g>
						<path style="fill:#0B1011;" d="M326.823,429.433c4.154,1.772,8.327,3.518,12.658,4.729c4.316,1.21,8.836,1.856,13.269,1.29
							c4.435-0.547,8.642-2.301,12.491-4.574c3.865-2.279,7.426-5.051,10.954-7.865c0.216-0.172,0.53-0.137,0.703,0.079
							c0.172,0.216,0.137,0.53-0.079,0.703l-0.004,0.003c-3.56,2.788-7.179,5.557-11.132,7.84
							c-3.935,2.278-8.269,4.045-12.842,4.567c-4.571,0.541-9.179-0.168-13.534-1.431c-4.372-1.265-8.548-3.059-12.689-4.868
							c-0.13-0.057-0.19-0.209-0.133-0.339C326.542,429.437,326.693,429.377,326.823,429.433z"/>
					</g>
					<g>
						<path style="fill:#0B1011;" d="M407.961,481.869c-1.011,3.298-2.235,6.519-3.661,9.637c1.116-3.241,2.015-6.545,2.691-9.883
							c0.055-0.271,0.319-0.446,0.59-0.391c0.271,0.055,0.446,0.319,0.391,0.59C407.969,481.838,407.965,481.854,407.961,481.869z"
							/>
					</g>
					<g>
						<path style="fill:#0B1011;" d="M178.912,482.471c-1.388,5.727-3.291,11.312-5.672,16.669
							c2.073-5.484,3.644-11.141,4.694-16.877c0.05-0.272,0.31-0.452,0.582-0.402c0.272,0.05,0.452,0.31,0.402,0.582
							C178.917,482.452,178.914,482.463,178.912,482.471z"/>
					</g>
				</g>
				<g>
					<path style="fill:#0B1011;" d="M195.861,147.085c0.86-3.969,3.118-7.511,5.78-10.578c0.316-0.364,0.656-0.764,0.676-1.245
						c0.012-0.287-0.094-0.565-0.2-0.833c-2.973-7.49-7.71-14.273-13.718-19.642c6.548,0.053,13.016,3.073,17.26,8.061
						c1.356,1.593,2.5,3.38,4.046,4.789c1.638,1.493,3.709,2.546,5.002,4.346c1.353,1.883,1.65,4.458,0.831,6.627
						s-2.708,3.887-4.924,4.571c-1.244,0.384-2.581,0.463-3.769,0.993c-2.093,0.934-2.858,4.299-3.202,6.565
						c-0.344,2.266,0.051,3.647,0.675,5.853c0.141,0.499-0.094,1.023-0.45,1.401c-0.16,0.169-0.48,0.13-0.701,0.204
						c-1.284,0.431-3.185,1.084-4.51,0.449c-0.967-0.463-1.561-1.814-1.982-2.736C195.427,153.175,195.228,150.005,195.861,147.085z
						"/>
					<path style="fill:#0B1011;" d="M216.904,171.563c0,0-2.738,25.884-16.302,23.022l-0.404-11.798
						C200.198,182.787,212.051,185.501,216.904,171.563z"/>
					<path style="fill:#0B1011;" d="M284.795,259.132c0.265,0.177,20.075,13.442,32.633,13.531c0,0,8.982-2.734,12.431-11.931
						c0,0-6.845,4.772-13.829,4.463c-7.572-0.334-16.731-2.26-16.731-2.26L284.795,259.132z"/>
					<path style="fill:#0B1011;" d="M315.663,314.297c0,0-8.049,14.488-28.829,2.634c-20.781-11.854-44.927-20.927-55.756-39.951
						c-10.829-19.024-13.902-36.732-13.902-36.732s7.448,11.689,21.204,17.836c0,0,6.162,15.823,18.455,23.433
						c0,0,18.146,8.927,36.146,10.829l12.439,1.463l9.572-1.876C314.991,291.934,313.322,308.883,315.663,314.297z"/>
					<path style="fill:#0B1011;" d="M274.208,196.842c0,0-9.489-3.882-14.018-1.941l6.398-4.313L274.208,196.842z"/>
					<path style="fill:#0B1011;" d="M335.815,193.319c0,0,4.96-2.372,9.705-0.359l-3.235-4.888L335.815,193.319z"/>
					<path style="fill:#0B1011;" d="M357.517,111.248c-2.81,0.871-15.51,6.939-17.699,8.904c0.876,2.05,0.139,2.845-0.627,4.938
						c-7.332,20.022-4.926,25.834-4.774,25.475c3.86-9.136,9.055-24.125,9.04-24.454c-0.057-1.236,2.018-3.566,3.051-4.247
						C350.012,119.557,355.648,112.843,357.517,111.248z"/>
					<path style="fill:none;stroke:#0B1011;stroke-width:2;stroke-linecap:round;stroke-linejoin:round;stroke-miterlimit:10;" d="
						M350.163,233.256c-0.535,0.771-0.745,1.095-1.427,1.797c0,0,0.18,6.487-3.694,9.67c-1.074,0.882-1.929,2.002-2.562,3.24l0,0
						c-0.309,2.433-2.689,3.577-3.024,5.973c-1.237,8.821-3.04,17.327-8.236,25.054c-0.654,0.973-1.346,1.92-2.073,2.839
						c-1.776,2.245-3.768,4.332-6.044,6.068c-9.398,7.172-20.666,5.709-31.517,3.9c-10.73-1.788-21.835-4.285-31.552-9.328
						c-3.02-1.567-5.97-3.444-8.322-5.929c-11.634-12.293-13.61-17.78-13.61-17.78s-15.146-6.805-27.439-29.195
						c0,0-8.341,0-10.756,5.268c0,0-2.854-8.341,0.878-14.049c0,0-7.463,0.439-10.098,3.951c0,0,12.951-22.61,9.659-41.707
						c0,0-22.61-1.976-33.366-35.122c0,0-18.659-48.073,29.195-44.122c0,0-0.659-10.756-1.756-14.268l53.341-26.122
						c0,0,41.707-12.951,73.976-2.415c0,0-15.805,6.585-18.22,12.293c0,0,13.39,2.195,20.634,6.805c0,0-9.659,2.415-11.634,5.268
						c0,0,20.195,12.951,22.39,19.098c0,0,8.341,13.61,2.195,27.659c-6.146,14.049-2.195,32.927-0.878,34.902
						c0,0,13.829,4.39,6.366,20.634c0,0,11.91,17.863,11.579,33.325"/>
					<path style="fill:none;stroke:#0B1011;stroke-width:2;stroke-linecap:round;stroke-linejoin:round;stroke-miterlimit:10;" d="
						M335.098,103.885c0,0,21.976-12.947,31.345-6.133c0,0,5.451,0.681-1.022,7.666c0,0-1.363,4.6-1.193,9.54
						c0.17,4.94,0.511,4.77-3.237,10.903c-3.748,6.133-6.814,11.584-6.133,17.887c0.681,6.303,1.061,26.412-18.635,23.257"/>
					<path style="fill:none;stroke:#0B1011;stroke-linecap:round;stroke-linejoin:round;stroke-miterlimit:10;" d="M252.883,201.468
						l-9.659-11.415l1.756-14.634c0,0-43.133-25.702-17.561-62.927c23.122-33.659,64.683-6.146,64.683-6.146
						s23.707-24.878,43.024-0.293"/>
					<path style="fill:none;stroke:#0B1011;stroke-linecap:round;stroke-linejoin:round;stroke-miterlimit:10;" d="M267.224,190.346
						c0,0-11.707,4.678-14.488,10.971"/>
					<g>
						<path style="fill:#0B1011;" d="M286.311,201.976c-2.935-0.762-5.82-1.719-8.63-2.864c-2.774-1.154-5.652-2.391-8.038-4.461
							c-2.368-2.033-4.24-4.658-5.326-7.607c-1.092-2.934-1.4-6.214-0.645-9.315c0.74-3.079,2.502-5.971,5.107-7.887
							c2.587-1.931,5.787-2.832,8.923-2.947c3.163-0.137,6.295,0.586,9.169,1.721c2.888,1.143,5.554,2.699,8.096,4.366
							c0.462,0.303,0.591,0.923,0.288,1.385c-0.303,0.462-0.923,0.591-1.385,0.288c-0.002-0.001-0.009-0.006-0.011-0.007
							c-2.461-1.653-5.002-3.166-7.697-4.266c-2.691-1.095-5.541-1.778-8.401-1.684c-2.846,0.072-5.707,0.862-7.971,2.518
							c-2.273,1.629-3.867,4.157-4.558,6.9c-0.701,2.746-0.469,5.716,0.503,8.414c0.961,2.707,2.662,5.153,4.831,7.056
							c2.156,1.921,4.878,3.144,7.618,4.316c2.744,1.153,5.565,2.123,8.439,2.903c0.323,0.087,0.514,0.42,0.427,0.743
							C286.962,201.869,286.632,202.059,286.311,201.976z"/>
					</g>
					<g>
						<path style="fill:#0B1011;" d="M314.821,174.089c1.872-2.348,4.369-4.027,6.968-5.24c2.602-1.206,5.365-2.098,8.255-2.428
							c2.874-0.322,5.901-0.052,8.603,1.215c2.665,1.244,4.979,3.367,6.178,6.131c0.593,1.374,0.834,2.92,0.812,4.347
							c-0.021,1.425-0.03,2.799-0.2,4.252c-0.16,1.439-0.614,2.913-1.378,4.176c-0.741,1.282-1.754,2.354-2.829,3.301
							c-2.184,1.877-4.667,3.226-7.074,4.613c-2.426,1.378-4.947,2.695-7.678,3.498c-0.23,0.068-0.471-0.064-0.538-0.294
							c-0.067-0.227,0.063-0.466,0.288-0.537c2.608-0.815,5.041-2.133,7.423-3.541c2.384-1.425,4.801-2.804,6.818-4.603
							c2.025-1.782,3.492-4.099,3.684-6.763c0.135-1.314,0.125-2.731,0.121-4.087c-0.008-1.354-0.238-2.607-0.763-3.789
							c-1.064-2.353-3.138-4.215-5.519-5.272c-2.377-1.07-5.115-1.285-7.743-0.943c-2.643,0.344-5.234,1.225-7.656,2.399
							c-2.41,1.173-4.618,2.744-6.194,4.794c-0.335,0.439-0.962,0.524-1.402,0.189c-0.439-0.335-0.524-0.962-0.189-1.402
							C314.81,174.102,314.819,174.092,314.821,174.089z"/>
					</g>
					<path style="fill:none;stroke:#0B1011;stroke-linecap:round;stroke-linejoin:round;stroke-miterlimit:10;" d="M164.178,121.616
						c6.983-5.758,16.525-7.978,25.504-6.841c5.094,0.646,10.182,2.386,14.023,5.794c3.362,2.983,5.639,7.11,9.285,9.738
						c0.326,0.235,0.682,0.465,1.083,0.495c0.644,0.049,1.204-0.419,1.647-0.888c2.24-2.374,3.531-5.619,3.536-8.884
						c0.005-3.264-1.277-6.513-3.51-8.894c-1.415-1.509-3.171-2.659-4.998-3.629c-4.685-2.489-9.888-3.862-15.119-4.745"/>
					<path style="fill:none;stroke:#0B1011;stroke-linecap:round;stroke-linejoin:round;stroke-miterlimit:10;" d="M339.438,120.467
						c9.416-4.668,18.945-9.411,26.882-16.3"/>
					<path style="fill:none;stroke:#0B1011;stroke-linecap:round;stroke-linejoin:round;stroke-miterlimit:10;" d="M199.471,182.549
						c2.784,0.135,5.656,0.257,8.272-0.706c3.697-1.36,6.33-4.702,8.069-8.236c1.914-3.89,2.982-8.193,3.109-12.527"/>
					<g>
						<path style="fill:#0B1011;" d="M192.104,152.116c0.43,1.974,1.617,3.769,3.245,4.954c1.627,1.186,3.707,1.707,5.703,1.497
							c0.499-0.054,0.992-0.153,1.471-0.296c0.479-0.133,0.926-0.333,1.242-0.63c0.318-0.303,0.395-0.652,0.232-1.073
							c-0.163-0.408-0.453-0.927-0.614-1.444c-0.686-2.099-0.431-4.358,0.273-6.368c0.355-1.012,0.828-1.981,1.415-2.883
							c0.3-0.449,0.604-0.885,0.987-1.296c0.373-0.41,0.87-0.782,1.406-0.993c1.08-0.413,2.089-0.497,3.05-0.824
							c0.961-0.298,1.878-0.711,2.63-1.325c1.517-1.219,2.445-3.164,2.429-5.105c0-1.949-0.845-3.907-2.311-5.167
							c-0.21-0.18-0.234-0.495-0.054-0.705c0.18-0.21,0.495-0.234,0.705-0.054c0.001,0.001,0.004,0.003,0.005,0.004
							c1.69,1.487,2.613,3.713,2.595,5.925c-0.01,2.233-1.076,4.41-2.821,5.789c-0.875,0.699-1.903,1.141-2.929,1.448
							c-1.02,0.33-2.117,0.436-2.989,0.771c-0.862,0.315-1.476,1.131-2.046,1.966c-0.558,0.839-1.014,1.751-1.358,2.702
							c-0.686,1.89-0.929,4.001-0.326,5.896c0.145,0.482,0.374,0.876,0.595,1.435c0.099,0.275,0.159,0.62,0.08,0.954
							c-0.077,0.334-0.271,0.619-0.495,0.828c-0.453,0.415-0.999,0.629-1.518,0.773c-0.52,0.15-1.054,0.251-1.591,0.305
							c-2.15,0.205-4.37-0.375-6.107-1.666c-1.731-1.287-2.97-3.203-3.408-5.312c-0.029-0.139,0.061-0.275,0.2-0.304
							C191.938,151.889,192.074,151.978,192.104,152.116z"/>
					</g>
					<g>
						<path style="fill:#0B1011;" d="M342.704,248.159c-4.14,3.049-8.479,5.921-13.238,8c-4.738,2.069-9.932,3.335-15.163,3.039
							c-5.237-0.296-10.188-2.054-15.001-3.794c-4.828-1.75-9.623-3.591-14.437-5.382l-14.424-5.415
							c-4.794-1.827-9.632-3.696-14.095-6.359c-2.227-1.318-4.337-2.902-6.226-4.662c-1.91-1.745-3.71-3.611-5.366-5.604
							c-1.656-1.991-3.17-4.113-4.411-6.412c-0.612-1.153-1.152-2.355-1.534-3.625c-0.373-1.268-0.595-2.623-0.414-4.002
							c0.12-0.685,0.335-1.365,0.703-1.977c0.388-0.592,0.874-1.129,1.458-1.515c1.152-0.811,2.507-1.128,3.801-1.316
							c2.622-0.403,5.277-0.133,7.814,0.434c5.093,1.166,9.795,3.458,14.313,5.904c1.132,0.604,2.249,1.258,3.378,1.748
							c1.166,0.484,2.372,0.923,3.575,1.351c2.413,0.849,4.849,1.64,7.301,2.378c4.904,1.478,9.867,2.762,14.878,3.801
							c5.009,1.041,10.078,1.819,15.17,2.135c5.07,0.284,10.266,0.149,15.053-1.432c4.813-1.68,9.449-3.873,13.793-6.537
							c4.3-2.699,8.428-5.836,11.791-9.578l0.027-0.03c0.185-0.205,0.5-0.222,0.706-0.038c0.205,0.184,0.222,0.5,0.038,0.705l0,0
							c-3.513,3.903-7.66,7.029-12.04,9.783c-4.411,2.701-9.112,4.922-13.995,6.623c-2.491,0.842-5.083,1.257-7.669,1.458
							c-2.589,0.197-5.183,0.177-7.762,0.017c-5.158-0.324-10.267-1.112-15.308-2.163c-5.044-1.049-10.031-2.343-14.959-3.831
							c-2.464-0.743-4.912-1.54-7.342-2.396c-1.215-0.433-2.423-0.873-3.628-1.374c-1.226-0.535-2.327-1.187-3.459-1.79
							c-4.488-2.436-9.124-4.688-14.067-5.821c-2.459-0.552-5.005-0.805-7.466-0.427c-1.231,0.174-2.451,0.476-3.413,1.159
							c-0.492,0.324-0.878,0.76-1.195,1.235c-0.296,0.493-0.473,1.051-0.578,1.629c-0.29,2.384,0.69,4.852,1.845,7.056
							c1.198,2.222,2.678,4.304,4.303,6.259c1.625,1.957,3.397,3.797,5.276,5.515c1.868,1.74,3.887,3.255,6.077,4.556
							c4.369,2.612,9.159,4.47,13.948,6.297l14.415,5.421c4.81,1.793,9.601,3.636,14.427,5.388
							c4.807,1.744,9.681,3.464,14.749,3.751c5.056,0.29,10.121-0.933,14.768-2.959c4.668-2.035,8.957-4.866,13.076-7.896
							c0.191-0.14,0.459-0.099,0.599,0.091S342.895,248.018,342.704,248.159z"/>
					</g>
					<g>
						<path style="fill:#0B1011;" d="M315.492,265.204c-1.306,6.119-0.755,12.598,1.534,18.368c0.102,0.257-0.024,0.547-0.28,0.649
							c-0.257,0.102-0.547-0.024-0.649-0.28c-0.001-0.003-0.003-0.009-0.005-0.012c-2.209-6.016-2.588-12.654-1.102-18.839
							c0.033-0.138,0.172-0.223,0.31-0.19C315.437,264.933,315.521,265.068,315.492,265.204z"/>
					</g>
					<g>
						<path style="fill:#0B1011;" d="M308.373,199.957c0.097,1.035,0.609,2.001,1.297,2.799c0.689,0.806,1.565,1.437,2.488,2.006
							c1.867,1.091,3.869,2.18,5.552,3.652c3.426,2.869,6.096,6.652,7.615,10.885c0.093,0.26-0.042,0.546-0.302,0.639
							c-0.26,0.093-0.546-0.042-0.639-0.302c-0.001-0.002-0.003-0.007-0.003-0.01c-1.381-4.085-3.891-7.794-7.162-10.637
							c-1.618-1.465-3.492-2.527-5.399-3.69c-0.936-0.6-1.86-1.287-2.589-2.173c-0.726-0.874-1.281-1.953-1.37-3.127
							c-0.011-0.142,0.095-0.265,0.237-0.276C308.237,199.713,308.359,199.818,308.373,199.957z"/>
					</g>
					<g>
						<path style="fill:none;" d="M258.536,218.585"/>
					</g>
					<g>
						<path style="fill:#0B1011;" d="M197.388,169.397c1.486,1.308,3.382,2.12,5.343,2.355c1.956,0.222,3.993-0.047,5.747-0.924
							c1.762-0.853,3.179-2.299,4.245-3.965c1.085-1.663,1.88-3.52,2.673-5.387c0.107-0.255,0.4-0.374,0.655-0.267
							c0.255,0.107,0.374,0.4,0.267,0.655c-0.001,0.002-0.004,0.008-0.005,0.011c-0.833,1.857-1.682,3.748-2.859,5.476
							c-1.152,1.728-2.716,3.275-4.652,4.162c-1.917,0.908-4.089,1.147-6.156,0.87c-2.072-0.291-4.062-1.189-5.607-2.606
							c-0.105-0.096-0.112-0.259-0.016-0.364c0.095-0.103,0.255-0.112,0.36-0.019L197.388,169.397z"/>
					</g>
					<g>
						<path style="fill:#0B1011;" d="M173.481,151.6c4.196,12.758,14.643,23.238,27.302,27.476c0.262,0.088,0.403,0.371,0.316,0.633
							c-0.088,0.262-0.371,0.403-0.633,0.316c-0.001,0-0.005-0.002-0.006-0.002c-12.917-4.505-23.371-15.297-27.469-28.265
							c-0.043-0.136,0.032-0.28,0.168-0.323C173.293,151.392,173.437,151.466,173.481,151.6z"/>
					</g>
					<path style="fill:none;stroke:#0B1011;stroke-width:2;stroke-linecap:round;stroke-linejoin:round;stroke-miterlimit:10;" d="
						M255.386,145.671c0.034,1.329,0.26,2.601,0.666,3.802c1.72,5.05,6.49,8.68,12.12,8.68c5.88,0,10.83-3.95,12.34-9.35
						c0.282-0.999,0.432-2.049,0.459-3.132H255.386z"/>
					<path style="fill:#0B1011;" d="M280.971,145.671c-0.027,1.083-0.177,2.133-0.459,3.132l6.18-3.09l-0.053-0.042H280.971z"/>
					<path style="fill:#0B1011;" d="M249.749,144.719l-2.136,1.582c0,0,5.53,1.44,8.44,2.22c-0.406-1.201-0.633-2.472-0.666-3.802
						H249.749z"/>
					<path style="fill:#0B1011;" d="M262.206,145.671c0.579,3.67,3.747,6.48,7.58,6.48c3.833,0,7.001-2.81,7.58-6.48H262.206z"/>
					<path style="fill:#FFFFFF;" d="M269.591,145.671c0.837,1.065,2.487,1.799,4.411,1.799c1.923,0,3.573-0.734,4.41-1.799H269.591z
						"/>
					<path style="fill:none;stroke:#0B1011;stroke-width:2;stroke-linecap:round;stroke-linejoin:round;stroke-miterlimit:10;" d="
						M305.435,145.671c0.034,1.329,0.26,2.601,0.667,3.802c1.72,5.05,6.49,8.68,12.12,8.68c5.88,0,10.83-3.95,12.34-9.35
						c0.281-0.999,0.432-2.049,0.459-3.132H305.435z"/>
					<path style="fill:#0B1011;" d="M330.801,144.683c-0.027,1.083-0.178,2.133-0.459,3.132l6.18-3.09l-0.053-0.042H330.801z"/>
					<path style="fill:#0B1011;" d="M299.798,144.719l-2.137,1.582c0,0,5.53,1.44,8.44,2.22c-0.406-1.201-0.633-2.472-0.667-3.802
						H299.798z"/>
					<path style="fill:#0B1011;" d="M312.255,145.671c0.579,3.67,3.747,6.48,7.579,6.48c3.833,0,7.001-2.81,7.58-6.48H312.255z"/>
					<path style="fill:#FFFFFF;" d="M319.64,145.671c0.837,1.065,2.487,1.799,4.41,1.799s3.573-0.734,4.41-1.799H319.64z"/>
					<g>
						<path style="fill:#0B1011;" d="M250.744,133.571c1.302-3.348,3.979-6.082,7.188-7.654c3.209-1.598,6.859-2.194,10.416-1.918
							c3.552,0.284,7.097,1.453,9.965,3.674c1.427,1.108,2.655,2.493,3.556,4.075c0.905,1.58,1.469,3.348,1.701,5.148
							c0.037,0.274-0.156,0.525-0.429,0.562c-0.274,0.037-0.525-0.156-0.562-0.429c0-0.003-0.001-0.01-0.002-0.013
							c-0.363-3.379-2.115-6.548-4.808-8.652c-2.677-2.126-6.062-3.298-9.485-3.61c-3.427-0.307-6.965,0.23-10.071,1.734
							c-3.107,1.48-5.698,4.065-6.992,7.276c-0.053,0.132-0.203,0.196-0.335,0.143C250.756,133.854,250.693,133.702,250.744,133.571
							z"/>
					</g>
					<g>
						<path style="fill:#0B1011;" d="M292.884,119.077c0.03,1.633,0.264,3.261,0.694,4.834c0.218,0.786,0.48,1.558,0.793,2.312
							c0.311,0.756,0.67,1.527,0.863,2.381c0.19,0.855,0.196,1.711,0.195,2.543c-0.006,0.837-0.047,1.671-0.104,2.501
							c-0.114,1.66-0.293,3.305-0.378,4.944c-0.345,6.55,0.91,13.171,3.623,19.122c0.115,0.251,0.004,0.548-0.247,0.662
							c-0.251,0.115-0.548,0.004-0.662-0.248c0-0.001-0.002-0.005-0.003-0.006c-2.706-6.133-3.899-12.907-3.467-19.575
							c0.107-1.666,0.306-3.311,0.439-4.952c0.106-1.626,0.265-3.313-0.018-4.857c-0.162-0.768-0.493-1.514-0.803-2.289
							c-0.312-0.779-0.573-1.58-0.787-2.391c-0.423-1.625-0.643-3.301-0.653-4.978c-0.001-0.142,0.114-0.258,0.256-0.259
							C292.766,118.822,292.881,118.936,292.884,119.077z"/>
					</g>
					<g>
						<path style="fill:#0B1011;" d="M309.844,168.989c0.802-1.091,1.818-2.019,2.945-2.756c1.122-0.749,2.343-1.324,3.58-1.821
							c1.242-0.493,2.503-0.904,3.77-1.294c1.266-0.382,2.656-0.732,4.107-0.485c0.272,0.046,0.455,0.305,0.409,0.577
							c-0.046,0.272-0.305,0.455-0.577,0.409c-0.005-0.001-0.013-0.003-0.019-0.003c-1.166-0.242-2.432,0.008-3.679,0.348
							c-1.261,0.347-2.521,0.714-3.742,1.157c-1.219,0.447-2.413,0.966-3.506,1.649c-1.099,0.672-2.084,1.519-2.876,2.529
							c-0.086,0.113-0.247,0.135-0.361,0.049C309.785,169.262,309.764,169.102,309.844,168.989z"/>
					</g>
					<g>
						<path style="fill:#0B1011;" d="M299.126,169.039c-4.395-3.063-9.764-4.662-15.066-4.519c-0.276,0.007-0.506-0.21-0.513-0.486
							c-0.008-0.276,0.21-0.506,0.486-0.513c0.004,0,0.011,0,0.015,0c5.522,0.018,10.986,1.842,15.378,5.101
							c0.114,0.085,0.138,0.246,0.053,0.36C299.397,169.093,299.239,169.118,299.126,169.039z"/>
					</g>
					<path style="fill:#0B1011;" d="M297.665,187.935c-6.813-3.504-10.809-12.338-18.959-11.07c-2.47,0.252-4.899,1.687-4.973,4.361
						c0.568,11.63,17.52,13.466,26.621,12.257c1.103-0.165,3.165-0.671,4.296-1.587c0.927-0.751,0.325-2.232-0.868-2.249
						C301.708,189.618,299.59,188.925,297.665,187.935z"/>
					<path style="fill:#0B1011;" d="M316.323,186.354c6.19-4.514,8.774-13.859,17.022-13.865c2.479-0.133,5.1,0.91,5.587,3.541
						c1.235,11.578-15.23,16.01-24.409,16.221c-1.116,0.008-3.23-0.174-4.489-0.905c-1.032-0.599-0.666-2.155,0.51-2.356
						C312.588,188.641,314.574,187.629,316.323,186.354z"/>
					<g>
						<path style="fill:#0B1011;" d="M259.103,159.294c1.445-0.401,2.896-0.625,4.363-0.792c1.466-0.161,2.94-0.235,4.415-0.247
							c1.474,0.012,2.95,0.055,4.419,0.203c1.471,0.126,2.931,0.345,4.387,0.592c0.272,0.046,0.456,0.304,0.409,0.577
							c-0.046,0.272-0.304,0.455-0.577,0.409c-0.004-0.001-0.007-0.001-0.011-0.002l-0.014-0.003c-1.42-0.281-2.847-0.537-4.287-0.7
							c-1.438-0.186-2.886-0.267-4.335-0.32c-1.449-0.028-2.901,0.005-4.346,0.123c-1.439,0.122-2.895,0.31-4.279,0.653
							l-0.015,0.004c-0.138,0.034-0.277-0.05-0.311-0.188C258.888,159.469,258.969,159.331,259.103,159.294z"/>
					</g>
					<g>
						<path style="fill:#0B1011;" d="M301.378,131.742c1.302-3.348,3.979-6.082,7.188-7.654c3.209-1.598,6.859-2.194,10.416-1.918
							c3.552,0.284,7.097,1.453,9.965,3.674c1.427,1.108,2.655,2.493,3.555,4.075c0.905,1.58,1.469,3.348,1.701,5.148
							c0.037,0.274-0.156,0.525-0.429,0.562c-0.274,0.037-0.525-0.156-0.562-0.429c0-0.003-0.001-0.01-0.002-0.013
							c-0.363-3.379-2.116-6.548-4.808-8.652c-2.677-2.126-6.062-3.298-9.484-3.609c-3.427-0.307-6.965,0.23-10.071,1.734
							c-3.107,1.48-5.698,4.065-6.992,7.276c-0.053,0.132-0.203,0.196-0.335,0.143C301.39,132.024,301.327,131.873,301.378,131.742z
							"/>
					</g>
					<g>
						<path style="fill:#0B1011;" d="M309.737,159.66c1.445-0.401,2.895-0.625,4.363-0.792c1.466-0.161,2.94-0.235,4.415-0.247
							c1.474,0.012,2.95,0.055,4.419,0.203c1.471,0.126,2.931,0.346,4.387,0.592c0.272,0.046,0.456,0.304,0.409,0.577
							c-0.046,0.272-0.304,0.456-0.577,0.409c-0.004-0.001-0.008-0.001-0.011-0.002l-0.014-0.003c-1.42-0.281-2.847-0.537-4.287-0.7
							c-1.438-0.186-2.886-0.267-4.335-0.32c-1.449-0.028-2.901,0.005-4.346,0.123c-1.44,0.122-2.895,0.31-4.279,0.653l-0.015,0.004
							c-0.138,0.034-0.277-0.05-0.312-0.188C309.523,159.835,309.603,159.697,309.737,159.66z"/>
					</g>
					<path style="fill:none;stroke:#0B1011;stroke-width:2;stroke-linecap:round;stroke-linejoin:round;stroke-miterlimit:10;" d="
						M191.036,310.006c0,0,24.237-43.343,25.773-71.002"/>
					<path style="fill:none;stroke:#0B1011;stroke-width:2;stroke-linecap:round;stroke-linejoin:round;stroke-miterlimit:10;" d="
						M314.938,292.68c0.439,1.537-3.374,18.489,4.968,30.782"/>
					<g>
						<path style="fill:#0B1011;" d="M349.915,148.919c0.189-0.032,0.406,0.092,0.484,0.219c0.092,0.125,0.13,0.245,0.159,0.362
							c0.054,0.25,0.029,0.44,0.038,0.632c0.003,0.389-0.009,0.779-0.032,1.168c-0.048,0.778-0.147,1.554-0.302,2.32
							c-0.309,1.532-0.848,3.028-1.633,4.397c-1.562,2.731-4.168,4.944-7.301,5.766c-0.267,0.07-0.54-0.09-0.611-0.357
							c-0.07-0.267,0.09-0.54,0.357-0.611c0.004-0.001,0.011-0.003,0.015-0.004c2.849-0.663,5.351-2.645,6.887-5.18
							c0.774-1.272,1.328-2.683,1.663-4.147c0.168-0.732,0.284-1.477,0.35-2.228c0.033-0.375,0.054-0.752,0.061-1.129
							c-0.001-0.19,0.018-0.388-0.011-0.514c-0.031-0.162-0.102-0.204-0.068-0.183c-0.141,0.016-0.269-0.086-0.284-0.227
							C349.672,149.063,349.773,148.935,349.915,148.919z"/>
					</g>
					<g>
						<path style="fill:#0B1011;" d="M359.761,117.289c-3.97,3.877-6.567,9.097-7.276,14.545c-0.036,0.274-0.286,0.467-0.56,0.431
							c-0.274-0.036-0.467-0.286-0.431-0.56c0.001-0.004,0.002-0.011,0.002-0.015c0.903-5.652,3.745-10.932,7.911-14.774
							c0.105-0.096,0.267-0.09,0.364,0.015C359.865,117.033,359.86,117.192,359.761,117.289z"/>
					</g>
					<g>
						<path style="fill:#0B1011;" d="M201.343,91.318c10.03-0.795,20.186-0.115,30.043,2.018c0.27,0.058,0.441,0.325,0.383,0.594
							c-0.058,0.27-0.325,0.441-0.594,0.383c-0.002,0-0.006-0.001-0.008-0.002c-9.725-2.27-19.796-3.111-29.787-2.48
							c-0.142,0.009-0.264-0.099-0.273-0.241C201.097,91.45,201.203,91.329,201.343,91.318z"/>
					</g>
					<g>
						<path style="fill:#0B1011;" d="M303.978,73.797c-4.929,0.571-9.73,1.975-14.432,3.572c-4.706,1.615-9.319,3.494-13.943,5.364
							c-0.256,0.104-0.548-0.02-0.651-0.276c-0.104-0.256,0.02-0.548,0.276-0.651c0.002-0.001,0.006-0.002,0.008-0.003
							c4.652-1.794,9.313-3.605,14.07-5.152c4.756-1.53,9.615-2.868,14.62-3.366c0.142-0.014,0.268,0.089,0.282,0.231
							C304.222,73.655,304.117,73.781,303.978,73.797z"/>
					</g>
					<g>
						<path style="fill:#0B1011;" d="M312.318,85.423c-4.587,0.635-9.13,1.56-13.557,2.887c-4.429,1.321-8.735,3.023-12.974,4.881
							c-0.253,0.111-0.548-0.004-0.659-0.257c-0.111-0.253,0.004-0.548,0.257-0.659c0.002-0.001,0.006-0.003,0.008-0.003
							c4.292-1.793,8.665-3.434,13.157-4.689c4.49-1.261,9.084-2.113,13.701-2.67c0.141-0.017,0.269,0.083,0.286,0.225
							C312.555,85.277,312.456,85.404,312.318,85.423z"/>
					</g>
					<g>
						<path style="fill:#0B1011;" d="M255.903,72.322c4.455-3.486,9.651-5.293,14.851-6.876c1.305-0.387,2.613-0.761,3.942-1.049
							c1.326-0.299,2.638-0.662,3.979-0.883l4.005-0.75l4.032-0.57c1.341-0.211,2.691-0.352,4.042-0.474l4.05-0.398
							c2.707-0.164,5.414-0.342,8.122-0.455c2.71-0.042,5.421-0.132,8.13-0.134l8.128,0.133c0.142,0.002,0.255,0.119,0.253,0.262
							c-0.002,0.141-0.118,0.254-0.26,0.253l-0.009,0l-8.112-0.072c-2.703,0.022-5.405,0.132-8.107,0.194
							c-2.699,0.133-5.394,0.33-8.089,0.514l-4.029,0.427c-1.344,0.132-2.686,0.281-4.018,0.502l-4.004,0.597l-3.971,0.774
							c-1.33,0.229-2.628,0.599-3.94,0.905c-1.316,0.295-2.607,0.675-3.895,1.068c-2.591,0.737-5.106,1.699-7.575,2.746
							c-1.211,0.573-2.428,1.135-3.582,1.805c-1.147,0.652-2.317,1.382-3.254,2.205l-0.053,0.047
							c-0.207,0.182-0.523,0.162-0.705-0.046c-0.182-0.207-0.162-0.523,0.046-0.705C255.888,72.334,255.896,72.327,255.903,72.322z"
							/>
					</g>
					<g>
						<path style="fill:#0B1011;" d="M334.392,215.137c-0.236-1.81-0.822-3.584-1.714-5.196c-0.446-0.807-0.97-1.568-1.562-2.282
							c-0.594-0.717-1.249-1.408-1.834-2.175c-0.086-0.113-0.064-0.275,0.049-0.361c0.11-0.084,0.267-0.064,0.354,0.041
							c0.592,0.713,1.268,1.367,1.912,2.079c0.645,0.714,1.232,1.49,1.736,2.317c1.009,1.653,1.713,3.501,2.049,5.427
							c0.047,0.272-0.135,0.531-0.407,0.578c-0.272,0.047-0.531-0.135-0.579-0.407C334.394,215.153,334.393,215.144,334.392,215.137
							z"/>
					</g>
					<g>
						<path style="fill:#0B1011;" d="M343.237,210.8c-0.512-1.718-1.387-3.339-2.552-4.725c-0.58-0.698-1.244-1.307-1.952-1.921
							c-0.699-0.615-1.418-1.265-1.966-2.073c-0.08-0.118-0.049-0.278,0.069-0.358c0.114-0.078,0.27-0.049,0.352,0.061
							c0.533,0.717,1.233,1.303,1.956,1.884c0.725,0.575,1.467,1.197,2.11,1.906c1.294,1.411,2.304,3.092,2.935,4.92
							c0.09,0.261-0.048,0.546-0.309,0.636c-0.261,0.09-0.546-0.048-0.636-0.309C343.241,210.815,343.239,210.806,343.237,210.8z"/>
					</g>
					<g>
						<path style="fill:#0B1011;" d="M287.574,217.68c-0.553-0.975-0.443-1.986-0.417-2.847c0.04-0.89,0.116-1.778,0.218-2.662
							c0.207-1.768,0.539-3.518,0.989-5.234c0.036-0.137,0.177-0.22,0.314-0.184c0.134,0.035,0.215,0.17,0.187,0.303
							c-0.366,1.712-0.612,3.445-0.736,5.186c-0.06,0.87-0.095,1.741-0.094,2.612c-0.005,0.872,0.007,1.732,0.389,2.299
							c0.155,0.229,0.094,0.54-0.135,0.695c-0.229,0.155-0.54,0.094-0.695-0.135C287.588,217.703,287.58,217.691,287.574,217.68z"/>
					</g>
					<g>
						<path style="fill:#0B1011;" d="M270.323,212.679c-0.621-3.099,0.122-6.386,1.954-8.875c0.084-0.115,0.246-0.139,0.36-0.055
							c0.111,0.081,0.137,0.236,0.062,0.349c-1.615,2.456-2.119,5.581-1.402,8.358c0.069,0.268-0.092,0.54-0.359,0.609
							c-0.267,0.069-0.54-0.092-0.609-0.359C270.327,212.698,270.324,212.687,270.323,212.679z"/>
					</g>
					<g>
						<path style="fill:#0B1011;" d="M305.42,219.652c-0.809-3.402-0.907-6.951-0.299-10.36c0.025-0.14,0.159-0.233,0.299-0.208
							c0.136,0.024,0.227,0.152,0.21,0.287c-0.437,3.363-0.173,6.801,0.757,10.027c0.077,0.265-0.077,0.543-0.342,0.619
							c-0.265,0.077-0.543-0.077-0.619-0.342C305.424,219.669,305.421,219.659,305.42,219.652z"/>
					</g>
				</g>
				<path style="fill:none;stroke:#0B1011;stroke-linecap:round;stroke-linejoin:round;stroke-miterlimit:10;" d="M246.582,236.783
					c-2.487,9.368-5.088,28.583,9.52,42.977"/>
				<g>
					<path style="fill:#0B1011;" d="M261.006,306.17c2.783,8.72,6.989,16.97,12.393,24.325c0.164,0.223,0.116,0.535-0.107,0.699
						c-0.223,0.163-0.536,0.116-0.699-0.107c-0.001-0.002-0.004-0.006-0.005-0.007c-5.336-7.538-9.428-15.936-12.073-24.757
						c-0.041-0.136,0.036-0.28,0.173-0.321C260.822,305.961,260.964,306.036,261.006,306.17z"/>
				</g>
				<g>
					<path style="fill:#0B1011;" d="M252.487,201.294c-3.558-0.744-7.387-0.843-10.881,0.181c-1.734,0.535-3.38,1.372-4.696,2.603
						c-1.343,1.2-2.31,2.775-2.93,4.474c-0.625,1.703-0.912,3.528-1.003,5.36c-0.109,1.848,0.054,3.649,0.596,5.402
						c1.048,3.508,3.15,6.644,5.538,9.455c4.854,5.619,10.878,10.149,17.082,14.253c6.245,4.069,12.794,7.714,19.53,10.883
						l0.037,0.019l0.006,0.003c5.696,3.18,11.754,5.807,17.974,7.816c6.223,1.962,12.71,3.35,19.222,3.181
						c6.479-0.202,12.946-2.054,18.472-5.452c2.765-1.696,5.291-3.782,7.483-6.173c1.096-1.195,2.113-2.463,3.018-3.804
						c0.894-1.334,1.742-2.759,2.267-4.214l0.009-0.024c0.094-0.26,0.38-0.394,0.64-0.301c0.26,0.094,0.394,0.38,0.301,0.64l0,0.001
						c-0.597,1.642-1.461,3.062-2.391,4.456c-0.936,1.385-1.984,2.689-3.112,3.917c-2.256,2.457-4.854,4.598-7.698,6.339
						c-5.693,3.49-12.304,5.377-18.962,5.581c-6.675,0.165-13.246-1.255-19.537-3.243c-6.296-2.041-12.369-4.678-18.157-7.915
						l0.043,0.022c-6.801-3.207-13.356-6.864-19.646-10.969c-3.135-2.063-6.198-4.246-9.112-6.624
						c-2.912-2.377-5.694-4.937-8.149-7.813c-2.433-2.872-4.603-6.092-5.706-9.785c-0.569-1.826-0.743-3.809-0.626-5.693
						c0.096-1.899,0.394-3.811,1.061-5.623c0.66-1.806,1.707-3.514,3.163-4.813c1.428-1.331,3.201-2.226,5.035-2.79
						c3.713-1.072,7.601-0.964,11.338-0.183c0.231,0.048,0.38,0.275,0.331,0.507c-0.048,0.231-0.275,0.38-0.507,0.331
						L252.487,201.294z"/>
				</g>
				<path style="fill:none;stroke:#0B1011;stroke-linecap:round;stroke-linejoin:round;stroke-miterlimit:10;" d="M254.505,218.512
					l7.317-1.024l3.659,7.171l-2.122,5.854c0,0-6.732,3.585-9.073,1.39c-2.341-2.195-3-8.415-3-8.415L254.505,218.512z"/>
				<path style="fill:none;stroke:#0B1011;stroke-linecap:round;stroke-linejoin:round;stroke-miterlimit:10;" d="M265.481,224.658
					l8.78-0.951l5.195,7.61l-1.463,4.39c0,0-5.854,3.659-8.195,3.146l-6.878-8.122L265.481,224.658z"/>
				<path style="fill:none;stroke:#0B1011;stroke-linecap:round;stroke-linejoin:round;stroke-miterlimit:10;" d="M279.456,231.317
					l8.488-3.439c0,0,7.317,5.854,7.537,5.927c0.219,0.073-0.878,8.488-0.878,8.488l-8.854,1.098l-7.171-5.415L279.456,231.317z"/>
				<path style="fill:none;stroke:#0B1011;stroke-linecap:round;stroke-linejoin:round;stroke-miterlimit:10;" d="M295.846,233.951
					l8.122-2.561l6.366,3.951l-0.439,6.585l-4.352,2.919c-1.376,0.923-3.057,1.272-4.684,0.961
					c-1.323-0.253-2.815-0.726-3.768-1.612c-2.049-1.902-2.268-4.024-2.268-4.024L295.846,233.951z"/>
				<path style="fill:none;stroke:#0B1011;stroke-linecap:round;stroke-linejoin:round;stroke-miterlimit:10;" d="M314.743,244.952
					l-4.629-2.22l0.219-7.902c0,0,4.537-4.829,7.39-3.878c2.854,0.951,5.561,2.341,5.561,2.341l0.439,8.707l-4.073,2.638
					C318.182,245.59,316.322,245.709,314.743,244.952z"/>
				<path style="fill:none;stroke:#0B1011;stroke-linecap:round;stroke-linejoin:round;stroke-miterlimit:10;" d="M323.285,233.293
					c0.439,0,4.317-7.61,7.61-5.415c3.293,2.195,5.561,2.488,5.561,2.488l0.951,2.927c0,0,1.537,8.707-3.293,10.024
					c-4.829,1.317-8.561,0.951-8.561,0.951L323.724,242L323.285,233.293z"/>
				<path style="fill:none;stroke:#0B1011;stroke-linecap:round;stroke-linejoin:round;stroke-miterlimit:10;" d="M336.529,230.146
					c0,0,4.463-6.073,4.683-6.073s5.634,1.61,5.634,1.61s2.268,5.415-0.146,7.683c-2.415,2.268-3.146,6.439-8.927,5.415
					C337.773,238.781,337.92,232.561,336.529,230.146z"/>
				<path style="fill:none;stroke:#0B1011;stroke-linecap:round;stroke-linejoin:round;stroke-miterlimit:10;" d="M346.7,225.408
					c0,0,1.427-4.665,2.689-5.104c1.262-0.439,3.128-0.494,3.128-0.494s3.732,3.183,2.25,8.616
					c-1.482,5.433-2.305,4.884-2.305,4.884l-4.555-1.427C347.907,231.884,348.292,227.494,346.7,225.408z"/>
				<path style="fill:none;stroke:#0B1011;stroke-linecap:round;stroke-linejoin:round;stroke-miterlimit:10;" d="M346.267,243.683
					c0,0,1.152-5.488-1.866-6.86c0,0-2.524,2.195-4.774,2.085l-1.756,5.762l0.439,6.037
					C338.31,250.707,344.017,247.908,346.267,243.683z"/>
				<path style="fill:none;stroke:#0B1011;stroke-linecap:round;stroke-linejoin:round;stroke-miterlimit:10;" d="M325.907,256.689
					c-0.162,0.029-0.549-8.726-0.549-8.726s1.756-3.347,5.707-4.006c3.951-0.659,6.64,0.823,6.64,0.823l0.329,6.037
					C338.035,250.817,331.999,255.592,325.907,256.689z"/>
				<path style="fill:none;stroke:#0B1011;stroke-linecap:round;stroke-linejoin:round;stroke-miterlimit:10;" d="M325.359,247.963
					c0,0-1.097-4.071-5.707-3.325c-4.61,0.746-8.068,1.898-8.507,4.039c-0.439,2.14,0.11,9.659,0.11,9.659s7.738,1.262,13.5-1.098
					l1.152-0.549L325.359,247.963z"/>
				<path style="fill:none;stroke:#0B1011;stroke-linecap:round;stroke-linejoin:round;stroke-miterlimit:10;" d="M310.871,248.402
					c0,0-2.14-4.226-5.159-3.677c0,0-3.348,2.195-6.476,0.658c0,0-2.305,1.921-2.744,3.457c-0.439,1.536-0.384,4.939-0.384,4.939
					l14.817,4.5L310.871,248.402z"/>
				<path style="fill:none;stroke:#0B1011;stroke-linecap:round;stroke-linejoin:round;stroke-miterlimit:10;" d="M292.157,242.64
					c0,0,4.665,3.238,4.281,5.872c-0.384,2.634-0.659,4.994-0.659,4.994l-18.329-6.805c0,0,2.47-4.39,3.567-4.884
					c1.098-0.494,1.756-0.659,1.756-0.659l2.909,2.031L292.157,242.64z"/>
				<path style="fill:none;stroke:#0B1011;stroke-linecap:round;stroke-linejoin:round;stroke-miterlimit:10;" d="M276.298,246.262
					c0,0,1.482-4.006,0.713-5.268c-0.768-1.262-3.073-3.402-3.073-3.402l-4.14,1.262l-2.829-3.402c0,0-2.36-0.055-3.238,1.427
					c-0.878,1.482-1.482,3.841-1.482,3.841L276.298,246.262z"/>
				<path style="fill:none;stroke:#0B1011;stroke-linecap:round;stroke-linejoin:round;stroke-miterlimit:10;" d="M261.042,239.732
					l1.427-4.226c0,0-0.713-3.732-1.372-3.842c0,0-3.622,2.031-6.421,0.659l-2.634-4.555c0,0-2.579,0.878-3.073,3.842
					C248.968,231.61,254.127,237.976,261.042,239.732z"/>
				<path style="fill:#0B1011;" d="M254.505,218.512c0,0-4.768-6.22-9.085-4.317c-4.317,1.902-1.171,10.39,4.537,14.195l2.085-0.622
					l-0.756-4.281L254.505,218.512z"/>
				<path style="fill:none;stroke:#0B1011;stroke-width:2;stroke-linecap:round;stroke-linejoin:round;stroke-miterlimit:10;" d="
					M204.952,393.61c0.03-1.11,0.03-2.2,0.02-3.28c-0.92-54.92-62.58-66.74-62.58-66.74l23.71-13.83
					c48.96,3.46,75.24,61.31,81.02,75.62c0.81,2.03,1.22,3.18,1.22,3.18C229.252,392.51,204.952,393.61,204.952,393.61z"/>
				<path style="fill:none;stroke:#0B1011;stroke-width:2;stroke-linecap:round;stroke-linejoin:round;stroke-miterlimit:10;" d="
					M258.732,393.08l-60.78,7.14l-1.05-8.94l8.07-0.95c0.01,1.08,0.01,2.17-0.02,3.28c0,0,24.3-1.1,43.39-5.05
					c0,0-0.41-1.15-1.22-3.18l10.56-1.24L258.732,393.08z"/>
				<g>
					<path style="fill:#0B1011;" d="M241.543,395.042l-0.306,24.371c-0.004,0.276-0.23,0.497-0.506,0.494
						c-0.276-0.004-0.497-0.23-0.494-0.506c0-0.002,0-0.007,0-0.01l0.791-24.36c0.005-0.142,0.124-0.254,0.266-0.249
						C241.434,394.786,241.544,394.903,241.543,395.042z"/>
				</g>
				<g>
					<path style="fill:#0B1011;" d="M222.992,397.75l2.765,21.154c0.036,0.274-0.157,0.525-0.431,0.561
						c-0.274,0.036-0.525-0.157-0.561-0.431c0-0.003-0.001-0.008-0.001-0.011l-2.284-21.212c-0.015-0.141,0.087-0.268,0.228-0.284
						C222.849,397.512,222.974,397.612,222.992,397.75z"/>
				</g>
				
					<ellipse transform="matrix(0.2305 -0.9731 0.9731 0.2305 -229.5103 549.9594)" style="fill:none;stroke:#0B1011;stroke-width:2;stroke-linecap:round;stroke-linejoin:round;stroke-miterlimit:10;" cx="232.981" cy="420.098" rx="7.829" ry="7.829"/>
				
					<circle style="fill:none;stroke:#0B1011;stroke-linecap:round;stroke-linejoin:round;stroke-miterlimit:10;" cx="233.237" cy="419.768" r="2.744"/>
				<path style="fill:none;stroke:#0B1011;stroke-width:2;stroke-linecap:round;stroke-linejoin:round;stroke-miterlimit:10;" d="
					M183.445,503.069c22.018-16.343,31.551-97.605,31.551-97.605l38.588-3.405c0,0,95.789,30.189,121.893,67.188l-1.589,26.104
					c0,0-63.557-9.987-109.635-1.816c0,0-6.81,2.497-4.54-7.037c2.27-9.533,6.81-30.87,2.724-52.661
					c-4.086-21.791-8.871-31.513-8.871-31.513"/>
				<g>
					<path style="fill:#0B1011;" d="M267.167,412.295c0.075,0.096,0.109,0.202,0.114,0.23l0.042,0.147l0.066,0.276l0.114,0.545
						l0.205,1.086l0.373,2.173l0.689,4.352c0.442,2.904,0.859,5.81,1.258,8.72c0.797,5.818,1.526,11.646,2.167,17.485
						c0.638,5.839,1.198,11.688,1.567,17.555c0.181,2.934,0.316,5.872,0.334,8.818c-0.019,2.944,0.002,5.903-0.715,8.853
						l-0.409-0.453c7.865-1.247,15.781-1.939,23.718-2.326c7.936-0.366,15.892-0.375,23.828,0.076
						c7.935,0.439,15.854,1.328,23.672,2.801c7.82,1.459,15.531,3.555,22.978,6.395c0.258,0.098,0.387,0.387,0.289,0.645
						c-0.098,0.258-0.387,0.387-0.645,0.289l-0.006-0.002c-7.371-2.836-15.02-4.94-22.79-6.413
						c-7.767-1.487-15.647-2.396-23.548-2.856c-7.902-0.472-15.831-0.486-23.743-0.145c-7.906,0.362-15.821,1.032-23.63,2.247
						c-0.199,0.031-0.386-0.105-0.417-0.305c-0.008-0.049-0.005-0.097,0.006-0.142l0.002-0.007c0.686-2.768,0.692-5.747,0.714-8.655
						c-0.008-2.925-0.134-5.854-0.307-8.78c-0.351-5.852-0.893-11.695-1.512-17.529c-0.624-5.834-1.334-11.66-2.114-17.476
						c-0.39-2.908-0.798-5.814-1.231-8.715l-0.675-4.347l-0.366-2.167l-0.2-1.077l-0.11-0.533l-0.061-0.259
						c-0.005-0.059-0.083-0.218-0.022-0.142c-0.1-0.101-0.1-0.264,0-0.364C266.904,412.194,267.067,412.194,267.167,412.295z"/>
				</g>
				<g>
					<path style="fill:#0B1011;" d="M372.867,471.141c-5.849-4.881-11.973-9.451-18.219-13.822
						c-6.257-4.36-12.684-8.474-19.258-12.334c-6.578-3.856-13.37-7.33-20.291-10.506c-6.954-3.112-14.118-5.719-21.43-7.809
						l-0.014-0.004c-0.265-0.076-0.419-0.353-0.343-0.618c0.076-0.265,0.353-0.419,0.618-0.343l0.003,0.001
						c7.362,2.146,14.557,4.809,21.528,7.973c6.938,3.228,13.736,6.751,20.313,10.654c6.573,3.906,12.993,8.064,19.24,12.467
						c6.239,4.415,12.341,9.019,18.19,13.953c0.109,0.092,0.122,0.254,0.031,0.363c-0.091,0.108-0.253,0.122-0.362,0.032
						L372.867,471.141z"/>
				</g>
				<polygon style="fill:#0B1011;" points="151.724,326.549 138.663,331.049 141.627,322.817 				"/>
				<g>
					<path style="fill:#0B1011;" d="M291.855,106.415c-0.982-3.1-2.369-6.102-3.969-8.952c-1.599-2.857-3.453-5.571-5.551-8.081
						c-4.179-5.026-9.338-9.264-15.198-12.154c-2.921-1.448-5.976-2.653-9.146-3.44c-0.782-0.237-1.579-0.41-2.382-0.562
						c-0.802-0.153-1.596-0.348-2.403-0.468c-1.62-0.205-3.231-0.488-4.866-0.552c-6.519-0.475-13.094,0.103-19.506,1.407
						c-0.271,0.055-0.535-0.12-0.59-0.39c-0.055-0.271,0.12-0.535,0.39-0.59l0.003-0.001c6.491-1.278,13.156-1.825,19.77-1.302
						c1.658,0.076,3.294,0.372,4.937,0.591c0.819,0.127,1.626,0.329,2.439,0.491c0.814,0.16,1.623,0.341,2.417,0.586
						c3.217,0.82,6.317,2.064,9.277,3.555c5.939,2.975,11.148,7.312,15.347,12.425c2.108,2.554,3.966,5.309,5.563,8.206
						c1.6,2.897,2.976,5.911,3.962,9.094c0.042,0.136-0.034,0.28-0.17,0.322c-0.135,0.042-0.279-0.033-0.321-0.168L291.855,106.415z
						"/>
				</g>
				<polygon style="fill:#0B1011;" points="259.834,169.354 255.883,169.354 255.883,167.402 250.724,167.402 250.724,169.354 
					246.773,169.354 246.773,171.658 250.724,171.658 250.724,180.463 255.883,180.463 255.883,171.658 259.834,171.658 				"/>
				<path style="fill:#0B1011;" d="M243.917,108.279c0.373-0.462,0.606-1.041,0.606-1.681c0-1.485-1.204-2.689-2.689-2.689
					c-1.485,0-2.689,1.204-2.689,2.689c0,1.485,1.204,2.689,2.689,2.689c0.289,0,0.562-0.057,0.822-0.142l1.488,6.238l-7.206-2.872
					c0.147-0.332,0.231-0.697,0.231-1.084c0-1.485-1.204-2.689-2.689-2.689c-1.485,0-2.689,1.204-2.689,2.689
					s1.204,2.689,2.689,2.689c0.488,0,0.939-0.14,1.334-0.367c1.639,2.558,4.075,6.385,4.075,6.526c0,0.15-4.286-0.228-6.824-0.464
					c0.164-0.347,0.262-0.731,0.262-1.14c0-1.485-1.204-2.689-2.689-2.689c-1.485,0-2.689,1.204-2.689,2.689
					s1.204,2.689,2.689,2.689c0.71,0,1.352-0.281,1.833-0.731l11.46,9.219c3.333-6.311,10.494-9.998,10.778-9.998L243.917,108.279z"
					/>
				<path style="fill:#F7BE27;" d="M209.343,176.987c0,2.3-1.865,4.165-4.165,4.165c-2.3,0-4.165-1.865-4.165-4.165
					c0-2.3,1.865-4.165,4.165-4.165C207.478,172.822,209.343,174.687,209.343,176.987z"/>
				<path style="fill:none;stroke:#0B1011;stroke-miterlimit:10;" d="M209.343,176.987c0,2.3-1.865,4.165-4.165,4.165
					c-2.3,0-4.165-1.865-4.165-4.165c0-2.3,1.865-4.165,4.165-4.165C207.478,172.822,209.343,174.687,209.343,176.987z"/>
				<g>
					<path style="fill:#0B1011;" d="M103.322,364.669c8.909-1.188,18.084-1.301,27.073-0.266c8.998,1.025,17.903,3.318,26.119,7.207
						c1.012,0.514,2.063,0.955,3.044,1.528l2.969,1.675l2.855,1.863c0.968,0.599,1.832,1.345,2.753,2.011
						c3.579,2.792,6.953,5.898,9.787,9.464c0.36,0.44,0.753,0.854,1.085,1.316l1,1.383c0.648,0.934,1.376,1.816,1.957,2.794
						l1.781,2.911l0.445,0.728l0.389,0.759l0.777,1.519c2.147,4.018,3.668,8.322,5.08,12.638c0.086,0.262-0.057,0.545-0.32,0.631
						c-0.262,0.086-0.545-0.057-0.631-0.32l-0.001-0.002l-0.008-0.024c-1.377-4.268-2.859-8.525-4.959-12.496l-0.759-1.501
						l-0.38-0.751l-0.436-0.719l-1.743-2.877c-0.569-0.967-1.283-1.838-1.917-2.762l-0.979-1.367
						c-0.325-0.457-0.711-0.866-1.064-1.301c-2.776-3.528-6.088-6.603-9.606-9.373c-0.906-0.661-1.754-1.402-2.707-1.997
						l-2.811-1.853l-2.926-1.668c-0.967-0.572-2.004-1.012-3.003-1.525c-8.109-3.883-16.931-6.2-25.868-7.258
						c-4.471-0.537-8.978-0.789-13.484-0.753c-4.521,0.029-8.976,0.314-13.514,0.902c-0.14,0.018-0.268-0.081-0.286-0.22
						c-0.018-0.14,0.08-0.268,0.22-0.286L103.322,364.669z"/>
				</g>
				<g>
					<path style="fill:#0B1011;" d="M380.528,405.621c0.021-3.83,0.968-7.543,2.383-11.049c1.428-3.507,3.43-6.76,5.789-9.72
						c1.259-1.411,2.465-2.878,3.894-4.124l1.033-0.973c0.336-0.334,0.692-0.645,1.073-0.926l2.232-1.753
						c0.724-0.613,1.535-1.101,2.325-1.621l2.377-1.548c1.641-0.934,3.323-1.797,4.984-2.699c0.243-0.132,0.546-0.042,0.677,0.201
						c0.132,0.242,0.042,0.546-0.201,0.677l-0.004,0.002l-0.041,0.022c-1.643,0.871-3.311,1.704-4.938,2.605l-2.354,1.498
						c-0.783,0.503-1.588,0.974-2.304,1.569l-2.212,1.699c-0.378,0.272-0.731,0.574-1.064,0.898l-1.025,0.945
						c-1.419,1.21-2.615,2.635-3.868,4.008c-2.345,2.88-4.346,6.052-5.785,9.481c-1.428,3.414-2.397,7.1-2.457,10.785l-0.001,0.027
						c-0.002,0.142-0.119,0.255-0.261,0.253C380.64,405.877,380.527,405.761,380.528,405.621z"/>
				</g>
			</g>
		</g>
	</g>
</g>
</svg>
