<?xml version="1.0" encoding="utf-8"?>
<!-- Generator: Adobe Illustrator 27.5.0, SVG Export Plug-In . SVG Version: 6.00 Build 0)  -->
<svg version="1.1" xmlns="http://www.w3.org/2000/svg" xmlns:xlink="http://www.w3.org/1999/xlink" x="0px" y="0px"
	 viewBox="0 0 500 500" style="enable-background:new 0 0 500 500;" xml:space="preserve">
<g id="BACKGROUND">
	<rect style="fill:#FFEEFF;" width="500" height="500"/>
</g>
<g id="OBJECTS">
	<g>
		<defs>
			<rect id="SVGID_1_" width="500" height="500"/>
		</defs>
		<clipPath id="SVGID_00000005249217056320748420000006962094097837356421_">
			<use xlink:href="#SVGID_1_"  style="overflow:visible;"/>
		</clipPath>
		<g style="clip-path:url(#SVGID_00000005249217056320748420000006962094097837356421_);">
			<g>
				<g>
					<path style="fill:#C6F4DE;" d="M160.234,135.413c0.042,0.063,0.074,0.131,0.095,0.203
						c13.718,46.299,43.764,48.872,44.065,48.892c0.002,0.007,0.029,0.015,0.059,0.02c0.048,0.007,0.091,0.021,0.135,0.036
						l0.036,0.013l0.038,0.002c0.548,0.021,1.106,0.037,1.667,0.037c2.187,0,3.878-0.248,5.323-0.78
						c3.975-1.462,6.507-5.218,7.932-8.112c1.891-3.846,2.957-8.142,3.082-12.424c0.004-0.137,0.119-0.241,0.267-0.243
						c0.127,0.004,0.237,0.12,0.233,0.258c-0.115,3.935-1.033,7.939-2.653,11.58l-0.014,0.032l-0.005,0.034
						c-0.748,5.115-3.958,21.805-13.857,21.805c-0.518,0-1.054-0.047-1.594-0.139l-0.267-0.046l-0.024,0.27
						c-0.251,2.778-0.565,5.744-0.843,8.36c-0.513,4.844-0.992,9.372-0.937,11.24c0.089,3.12,9.26,13.713,14.186,19.404
						c1.766,2.04,3.032,3.502,3.485,4.146c0.06,0.086,0.123,0.169,0.185,0.251c0.053,0.071,0.107,0.141,0.159,0.214l0.041,0.058
						l0.065,0.027c0.239,0.101,0.402,0.323,0.436,0.593l0.008,0.064l0.038,0.052c3.019,4.132,6.252,7.808,9.609,10.926
						c2.627,2.438,6.65,5.934,11.236,8.125c0.179,0.085,0.315,0.235,0.382,0.423c0.019,0.052,1.94,5.032,11.821,15.769l0.393-0.307
						c-7.039-10.705-6.908-23.182-5.559-31.763l0.026-0.167l-0.145-0.087c-2.527-1.502-4.473-3.547-5.629-5.914
						c-1.314-2.61-1.827-5.758-1.525-9.36c0.285-3.137,1.085-6.24,2.379-9.223l0.019-0.033c3.491-5.181,7.305-10.17,10.606-14.438
						c0.301-0.516,0.641-1.013,1.03-1.505l0.126-0.16l-0.131-0.156l-9.185-10.95c-0.045-0.053-0.065-0.122-0.057-0.19l1.718-14.318
						l0.019-0.157l-0.134-0.084c-2.101-1.326-20.645-13.494-24.706-32.026c-2.25-10.264,0.219-20.724,7.34-31.089
						c7.637-11.116,18.122-16.753,31.162-16.753c16.136,0,30.757,8.6,33.524,10.324l0.167,0.104l0.14-0.138
						c1.864-1.826,11.751-10.937,23.323-10.937c0.352,0,0.704,0.008,1.059,0.026c6.465,0.309,12.352,3.482,17.499,9.431l0.211,0.243
						l0.184-0.264c0.061-0.087,0.135-0.158,0.221-0.211c0.051-0.032,0.118-0.049,0.196-0.069l0.247-0.064l-0.059-0.248
						c-3.729-13.184-15.425-25.85-24.579-34.155l-0.049-0.044l-0.064-0.015l-0.037,0.131c-0.004-0.004-0.008-0.008-0.012-0.011
						c-0.004-0.001-0.006-0.005-0.01-0.006l0.009-0.121c-0.062-0.022-0.105-0.106-0.122-0.154l-0.021-0.06l-0.047-0.043
						c-0.333-0.3-0.657-0.587-0.981-0.874l-0.049-0.043l-0.064-0.014c-6.992-1.515-14.143-2.586-21.254-3.183l-0.722-0.06
						c-2.907-0.238-5.913-0.484-8.667-1.576c-3.389-1.344-6.141-3.879-8.387-6.181c-2.159-2.214-4.852-5.22-6.533-8.839
						c-1.477-3.18-1.976-6.439-1.441-9.427l0.037-0.208l-0.199-0.071c-8.087-2.897-16.489-4.951-24.972-6.103
						c-5.205-0.708-10.43-1.066-15.531-1.066c-14.974,0-28.335,2.986-38.639,8.636c-26.303,14.425-1.05,63.477-0.792,63.971
						c0.117,0.225,0.113,0.492-0.011,0.714c-0.124,0.222-0.35,0.365-0.604,0.382c-7.84,0.523-17.399,4.287-23.725,6.779
						l-0.065,0.026c-1.517,0.598-2.828,1.115-3.884,1.494c-3.376,1.216-8.414,1.471-12.046,1.471l-0.524-0.002l-0.739-0.005
						l0.584,0.453C152.199,123.442,159.909,134.927,160.234,135.413z M204.701,181.541c0.064,0.021,0.115,0.066,0.145,0.126
						c0.03,0.06,0.035,0.127,0.013,0.191c-0.034,0.102-0.129,0.171-0.237,0.171c-0.027,0-0.053-0.004-0.079-0.013
						c-12.781-4.457-23.247-15.226-27.316-28.105C181.445,166.687,191.967,177.276,204.701,181.541z M211.885,126.98
						c1.589,1.919,3.224,3.892,5.249,5.351c0.282,0.204,0.613,0.423,0.957,0.448c0.022,0.003,0.055,0.005,0.089,0.005
						c0.396,0,0.84-0.267,1.357-0.815c2.199-2.332,3.463-5.507,3.468-8.712c0.005-3.205-1.249-6.384-3.442-8.723
						c-1.226-1.306-2.793-2.444-4.933-3.579c-4.103-2.18-8.883-3.679-15.043-4.72c-0.136-0.023-0.228-0.152-0.205-0.288
						c0.02-0.119,0.127-0.208,0.25-0.208c6.254,1.053,11.083,2.569,15.233,4.775c2.192,1.163,3.801,2.332,5.063,3.679
						c2.279,2.429,3.583,5.734,3.578,9.066c-0.005,3.33-1.319,6.63-3.605,9.053c-0.446,0.475-0.866,0.766-1.284,0.893l-0.361,0.11
						l0.242,0.29c1.135,1.361,1.778,3.166,1.764,4.954c-0.009,2.162-1.029,4.254-2.726,5.596c-0.745,0.595-1.676,1.054-2.846,1.405
						c-0.468,0.152-0.954,0.256-1.424,0.356c-0.565,0.121-1.098,0.235-1.582,0.421c-0.932,0.34-1.579,1.203-2.163,2.059
						c-0.567,0.854-1.033,1.781-1.386,2.758c-0.549,1.511-1.051,3.788-0.329,6.057c0.091,0.301,0.213,0.571,0.343,0.856
						c0.083,0.183,0.171,0.377,0.258,0.596c0.07,0.195,0.141,0.499,0.069,0.805c-0.058,0.253-0.208,0.503-0.422,0.703
						c-0.453,0.416-1.024,0.607-1.413,0.714c-0.504,0.145-1.024,0.245-1.55,0.297c-0.272,0.026-0.55,0.039-0.825,0.039
						c-1.857,0-3.671-0.588-5.109-1.657c-1.683-1.251-2.89-3.133-3.313-5.162c0.454,2.014,1.672,3.874,3.357,5.101
						c0.875,0.638,1.884,1.094,2.998,1.354l0.214-0.438c-0.671-0.542-1.141-1.572-1.484-2.324l-0.027-0.059
						c-1.171-2.563-1.454-5.641-0.798-8.668c0.753-3.474,2.625-6.897,5.724-10.467c0.318-0.366,0.713-0.821,0.737-1.399
						c0.015-0.351-0.114-0.675-0.217-0.936c-2.901-7.309-7.52-13.994-13.357-19.332l-0.061-0.056l-0.082-0.009
						c-1.277-0.134-2.57-0.201-3.842-0.201c-7.801,0-15.142,2.51-20.671,7.069c-0.058,0.047-0.119,0.057-0.16,0.057
						c-0.075,0-0.145-0.033-0.192-0.091c-0.043-0.051-0.062-0.116-0.056-0.183c0.006-0.066,0.038-0.127,0.09-0.169
						c5.624-4.638,13.084-7.192,21.005-7.192c1.555,0,3.133,0.1,4.689,0.297c5.77,0.731,10.666,2.756,14.158,5.855
						C209.352,123.925,210.64,125.478,211.885,126.98z M206.699,174.228c0.444,0.05,0.891,0.076,1.331,0.076
						c1.641,0,3.218-0.354,4.558-1.024c1.658-0.802,3.161-2.204,4.344-4.054c1.118-1.714,1.954-3.685,2.692-5.424
						c0.039-0.094,0.13-0.154,0.231-0.154c0.033,0,0.066,0.007,0.097,0.02c0.062,0.026,0.11,0.074,0.135,0.136
						c0.025,0.062,0.025,0.13-0.001,0.191c-0.822,1.834-1.67,3.724-2.839,5.443c-1.251,1.876-2.823,3.284-4.549,4.076
						c-1.322,0.626-2.854,0.956-4.434,0.956c-0.524,0-1.057-0.036-1.585-0.107c-2.055-0.288-3.999-1.191-5.471-2.543
						C202.711,173.125,204.657,173.983,206.699,174.228z M202.387,99.858c-0.071,0.613-0.374,1.218-0.925,1.848
						c-1.374,1.574-3.603,2.514-5.964,2.514c-0.636,0-1.274-0.067-1.895-0.199c-2.501-0.531-4.947-2.062-7.073-4.428
						c-4.087-4.547-6.368-11.198-6.974-20.336c-0.131-1.977,0.273-3.422,1.233-4.419c1.428-1.482,3.8-1.686,6.152-1.686
						c0.491,0,0.99,0.01,1.494,0.024c2.529,0.074,4.525,0.734,5.932,1.96c1.91,1.664,2.633,4.291,3.215,6.402l4.569,16.603
						C202.294,98.667,202.456,99.258,202.387,99.858z M205.353,93.803c2.694-0.221,5.428-0.329,8.133-0.329
						c7.338,0,14.688,0.785,21.844,2.334c0.065,0.014,0.121,0.053,0.157,0.109c0.036,0.056,0.048,0.123,0.034,0.188
						c-0.025,0.114-0.127,0.197-0.244,0.197c-0.018,0-0.036-0.002-0.053-0.006c-7.651-1.786-15.522-2.691-23.4-2.691
						c-2.149,0-4.323,0.068-6.464,0.203l0,0.126c0,0,0,0,0,0V93.81C205.358,93.81,205.354,93.807,205.353,93.803z M294.779,99.572
						C294.779,99.572,294.778,99.572,294.779,99.572l-0.001-0.126c-0.129,0-0.239-0.101-0.249-0.23
						c-0.33-4.514-0.897-8.15-1.784-11.445c-1.086-4.076-2.755-7.56-4.962-10.354c-2.411-3.16-5.849-5.383-8.883-7.345
						c-3.05-1.996-6.302-3.971-9.943-6.038c-6.589-3.751-13.618-7.195-20.889-10.237c-7.01-2.935-14.402-5.514-21.971-7.665
						c7.585,2.098,14.993,4.64,22.023,7.54c7.293,3.006,14.346,6.417,20.963,10.138c3.656,2.051,6.924,4.012,9.99,5.995
						c3.065,1.962,6.539,4.184,9.005,7.374c2.257,2.828,3.969,6.351,5.091,10.475c0.912,3.32,1.503,6.982,1.859,11.524
						c0.005,0.067-0.016,0.131-0.059,0.182c-0.043,0.051-0.104,0.082-0.171,0.087l-0.01,0.124
						C294.785,99.57,294.782,99.572,294.779,99.572z"/>
					<path style="fill:#71DCA9;" d="M195.515,312.8l-0.048,0.041l-0.023,0.058c-0.045,0.115-0.103,0.205-0.178,0.275
						c-0.022,0.021-0.549,0.513-1.411,1.247l-0.489,0.417l0.642,0.024c5.67,0.209,11.341,0.412,17.01,0.6
						c1.092,0.036,1.913,0.053,2.66,0.053c3.091,0,6.636-0.263,9.49-2.214c1.206-0.826,2.228-1.927,3.068-2.896
						c2.583-2.979,4.353-5.784,5.41-8.575c1.286-3.393,1.519-6.919,0.654-9.926c-0.719-2.498-2.189-4.741-3.611-6.91l-0.22-0.336
						c-4.06-6.203-7.902-12.794-11.42-19.59l-0.277-0.536l-0.183,0.575c-7.365,23.164-20.353,46.512-20.902,47.495
						C195.651,312.668,195.596,312.732,195.515,312.8z"/>
					<path style="fill:#71DCA9;" d="M142.835,458.581c0.416,2.033,0.703,4.13,0.981,6.158c0.593,4.339,1.207,8.826,3.116,12.787
						l0.07,0.145l0.161-0.004c2.827-0.063,5.613-1.19,8.07-2.184c0.791-0.32,1.608-0.651,2.2-1.257
						c0.875-0.896,1.111-2.26,1.264-3.469c0.62-4.925,0.529-9.903-0.27-14.798c-0.234-1.434-0.568-3.099-1.267-4.581
						c-0.697-1.478-1.754-2.788-2.777-4.054l-0.476-0.592c-2.966-3.714-4.975-7.593-6.704-11.232
						c-0.386-0.811-1.152-2.18-1.951-2.244l-0.01-0.001l-0.043-0.001c-0.324,0-0.637,0.224-0.956,0.684
						c-0.766,1.106-1.089,3.03-1.375,4.727c-0.132,0.781-0.252,1.493-0.404,2.09c-0.666,2.635-1.352,5.346-1.335,8.088
						c0.015,2.419,0.582,4.836,1.13,7.174C142.481,456.966,142.665,457.757,142.835,458.581z"/>
					<path style="fill:#71DCA9;" d="M274.387,59.265c2.209,2.264,4.912,4.755,8.214,6.065c2.678,1.063,5.643,1.307,8.51,1.542
						l0.737,0.061c6.438,0.539,13.031,1.498,19.597,2.848l0.942,0.194l-0.728-0.628c-4.697-4.05-8.011-6.42-8.043-6.442
						c-10.923-9.299-23.297-16.531-36.761-21.481l-0.284-0.104l-0.049,0.299c-0.466,2.841,0.028,5.935,1.427,8.947
						C269.601,54.121,272.257,57.083,274.387,59.265z"/>
					<path style="fill:#4D9573;" d="M307.95,151.092l-0.049-0.173l-0.039-0.136l-0.137-0.036c-1.031-0.274-2.209-0.584-3.317-0.875
						l-0.198-0.052l-0.09,0.184c-0.886,1.821-1.521,3.271-1.898,4.166l-0.199,0.474l0.496-0.136l5.806-1.589l0.278-0.076
						l-0.115-0.265c-0.154-0.354-0.291-0.706-0.407-1.048C308.032,151.386,307.991,151.239,307.95,151.092z"/>
					<path style="fill:#0B1011;" d="M320.911,135.109c-5.036,0-9.579,3.17-11.305,7.888c-0.494,1.335-0.745,2.735-0.745,4.162
						c0,1.325,0.215,2.633,0.64,3.89c1.665,4.887,6.25,8.171,11.41,8.171c5.391,0,10.169-3.62,11.618-8.803
						c0.293-1.039,0.442-2.135,0.442-3.258c0-1.575-0.301-3.108-0.894-4.556C330.215,138.051,325.832,135.109,320.911,135.109z
						 M331.493,145.939c0,0.908-0.635,1.773-1.741,2.372l-0.09,0.049l-0.03,0.098c-0.961,3.146-3.817,5.26-7.109,5.26
						c-4.098,0-7.433-3.334-7.433-7.433c0-4.098,3.334-7.433,7.433-7.433c2.928,0,5.593,1.732,6.788,4.413l0.039,0.087l0.087,0.039
						C330.724,143.974,331.493,144.926,331.493,145.939z"/>
					<path style="fill:#71DCA9;" d="M201.517,496.387c-0.286-0.917-0.626-1.568-1.07-2.05c-0.688-0.746-1.755-1.174-2.926-1.174
						c-0.37,0-0.743,0.043-1.109,0.128c-1.021,0.24-2.063,0.819-3.099,1.722l-0.088,0.076l0.002,0.117
						c0.036,1.949-0.051,3.888-0.134,5.762l-0.02,0.436l-0.012,0.261h0.262h7.808h0.154l0.069-0.138
						C202.04,500.167,202.101,498.245,201.517,496.387z"/>
					<path style="fill:#71DCA9;" d="M102.025,409.192l0.027-0.128c0.01,0,0.017-0.002,0.027-0.002l0,0v0.125
						c0.084,0,0.197,0.124,0.199,0.251c0.001,0.067-0.024,0.117-0.046,0.148l0.331,0.359c0.583-0.342,1.143-0.843,1.51-1.203
						c2.805-2.75,6.456-4.587,9.658-6.094c7.883-3.713,16.157-6.879,24.159-9.94l0.679-0.26c4.753-1.817,9.667-3.697,13.774-6.917
						c6.78-5.315,10.611-14.289,9.76-22.862c-0.336-3.379-1.334-6.617-2.266-9.338c-1.714-5.004-3.816-9.922-5.85-14.678
						c-0.503-1.176-1.065-2.327-2.097-2.753c-0.302-0.124-0.633-0.185-1.012-0.185c-0.59,0-1.206,0.147-1.787,0.298
						c-3.849,1.001-7.735,2.281-11.553,3.803l-0.18,0.098l-0.161,0.09c-5.966,3.398-12.204,7.242-17.411,12.31
						c-0.38,0.37-0.756,0.748-1.123,1.132c-5.343,5.578-9.215,13.166-12.185,23.88c-3.35,12.086-4.944,21.356-5.167,30.058
						l-0.041,1.613l-0.008,0.316l0.309-0.065C101.75,409.213,101.894,409.194,102.025,409.192z"/>
					<path style="fill:#71DCA9;" d="M196.83,487.836c0.905-1.043,1.255-2.615,0.961-4.314c-0.27-1.549-0.995-2.989-1.697-4.381
						l-1.212-2.402c-0.311-0.618-0.633-1.258-1.057-1.812c-1.716-2.237-4.81-2.794-7.611-3.045l-0.244-0.022l-0.027,0.244
						c-0.344,3.153-0.752,6.427-1.211,9.73l-0.018,0.127l0.093,0.088l0.024,0.023l0.007,0.004c1.74,1.743,3.02,2.646,5.395,4.126
						l0.088,0.054c0.582,0.361,1.239,0.77,1.695,1.42c0.404,0.575,0.568,1.222,0.674,1.778l0.047,0.246l0.246-0.047
						C194.254,489.408,195.839,488.98,196.83,487.836z"/>
					<path style="fill:#C6F4DE;" d="M102.112,410.173l-0.104-0.48c-0.189,0.006-0.384,0.046-0.599,0.122l-0.162,0.058l-0.004,0.171
						l-0.007,0.287l0.285-0.004C101.723,410.304,101.922,410.252,102.112,410.173z"/>
					<path style="fill:#C6F4DE;" d="M190.789,488.538c-0.282-0.402-0.757-0.696-1.259-1.007l-0.088-0.055
						c-1.668-1.039-3.069-1.946-4.637-3.365l-0.348-0.315l-0.067,0.465c-0.844,5.831-1.8,11.671-2.707,17.115l-0.049,0.291h0.295
						h9.392h0.239l0.011-0.239l0.024-0.525c0.172-3.87,0.309-6.927-0.3-10.733C191.193,489.525,191.084,488.958,190.789,488.538z"/>
					<path style="fill:#71DCA9;" d="M197.1,81.677c-0.564-2.048-1.265-4.596-3.061-6.163c-1.32-1.149-3.21-1.767-5.619-1.837
						c-0.515-0.016-1.024-0.027-1.522-0.027c-2.112,0-4.446,0.182-5.748,1.535c-0.858,0.89-1.216,2.211-1.095,4.04
						c0.598,9.021,2.837,15.575,6.847,20.035c1.433,1.595,3.776,3.631,6.804,4.273c0.593,0.126,1.199,0.19,1.802,0.19
						c2.245,0,4.278-0.855,5.578-2.345c0.482-0.552,0.745-1.068,0.804-1.577c0.059-0.504-0.084-1.023-0.222-1.525L197.1,81.677z"/>
					<path style="fill:#71DCA9;" d="M259.676,281.195c1.375,0.985,2.902,1.903,4.703,2.838c10.083,5.233,21.495,7.615,31.329,9.254
						c5.292,0.882,9.684,1.469,13.922,1.469c6.937,0,12.344-1.661,17.017-5.226c2.063-1.575,3.996-3.517,5.911-5.937
						c0.708-0.896,1.394-1.836,2.038-2.794c6.19-9.202,7.48-19.463,8.846-30.326l0.116-0.924l0.06-0.476l-0.424,0.223
						c-5.551,2.92-10.878,6.059-14.898,8.468c-2.446,1.332-5.382,2.039-8.481,2.039c-0.206,0-0.412-0.003-0.618-0.009
						c-1.696-0.051-3.297-0.302-4.631-0.726l-4.502-1.228c-1.063-0.283-2.123-0.576-3.182-0.868
						c-1.902-0.525-3.869-1.067-5.816-1.545c-3.123-0.687-6.169-1.434-9.06-2.223c-6.477-1.778-12.12-3.736-17.251-5.985
						l-0.061-0.027l-0.066,0.007c-3.14,0.346-5.952,0.514-8.598,0.514c-2.205,0-4.342-0.121-6.352-0.359
						c-3.533-0.419-6.53-1.249-9.161-2.536c-0.044-0.022-0.087-0.046-0.131-0.07l-0.122-0.066l-0.309-0.158l-0.052,0.343
						C248.332,255.221,248.755,269.926,259.676,281.195z M319.231,267.376c-1.293,6.132-0.744,12.706,1.561,18.516
						c0.025,0.062,0.023,0.13-0.003,0.191c-0.026,0.061-0.075,0.109-0.137,0.133c-0.03,0.012-0.061,0.018-0.092,0.018
						c-0.103,0-0.194-0.062-0.233-0.158C318.148,280.141,317.759,273.502,319.231,267.376z"/>
					<path style="fill:#C6F4DE;" d="M368.357,109.031c0.025-0.055,0.051-0.111,0.074-0.167l0.368-0.886l-0.754,0.593
						c-2.064,1.624-4.315,3.211-6.69,4.716c-0.685,0.586-1.781,1.748-3.05,3.094c-2.39,2.534-5.663,6.004-7.938,7.502
						c-0.97,0.639-3.228,3.051-3.163,4.467c-0.098,0.588-4.897,14.422-8.653,23.467l-0.019,0.045l-0.001,0.048
						c-0.094,7.988,1.324,14.683,2.104,16.492l0.056,0.129l0.139,0.02c1.161,0.165,2.283,0.249,3.334,0.249
						c3.826,0,6.92-1.097,9.196-3.26c5.769-5.482,5.095-16.299,4.751-19.484c-0.694-6.416,2.279-11.881,6.238-18.358
						c3.329-5.448,3.323-5.596,3.169-9.388l-0.042-1.1c-0.118-3.408,0.126-5.923,0.77-7.914
						C368.277,109.205,368.317,109.118,368.357,109.031z M363.574,119.327c-4.007,3.935-6.617,9.152-7.339,14.702
						c-0.016,0.124-0.122,0.218-0.247,0.218l-0.033-0.002c-0.066-0.009-0.125-0.042-0.166-0.095
						c-0.041-0.053-0.058-0.118-0.05-0.185C356.635,128.356,359.417,123.161,363.574,119.327z M345.262,165.769
						c-0.021,0.005-0.042,0.008-0.064,0.008c-0.113,0-0.213-0.077-0.242-0.187c-0.017-0.065-0.008-0.132,0.026-0.19
						c0.034-0.058,0.088-0.099,0.152-0.116c2.846-0.662,5.413-2.591,7.052-5.295c0.773-1.269,1.342-2.689,1.693-4.221
						c0.169-0.732,0.288-1.494,0.355-2.262c0.035-0.404,0.055-0.779,0.062-1.146c0-0.061,0.001-0.116,0.003-0.17
						c0.003-0.109,0.006-0.214-0.004-0.31l0.032-0.003c0.015,0.106,0.014,0.205,0.013,0.308c0,0.063-0.001,0.125,0.002,0.186
						c0.003,0.355-0.008,0.742-0.032,1.141c-0.047,0.774-0.147,1.543-0.298,2.286c-0.314,1.559-0.854,3.013-1.605,4.322
						C350.796,162.942,348.191,165.001,345.262,165.769z M353.934,151.404c0.01-0.001,0.02-0.001,0.029-0.001
						c0.013,0,0.026,0.001,0.039,0.002l-0.01,0.001l-0.031-0.002H353.934z M354.113,151.439c0.036,0.019,0.061,0.042,0.072,0.059
						c0.001,0.001,0.002,0.003,0.003,0.004l-0.054-0.035L354.113,151.439z"/>
					<path style="fill:#71DCA9;" d="M341.48,240.781c-1.038-0.652-2.03-1.393-2.989-2.11c-0.681-0.509-1.385-1.036-2.092-1.519
						l-0.159-0.109l-0.146,0.126c-3.561,3.091-7.393,4.659-11.388,4.659c-2.539,0-6.494-0.665-10.91-3.835l-0.103-0.074l-0.12,0.039
						c-6.192,2.009-11.402,3.55-16.396,4.849c-6.782,1.779-12.853,3.051-18.559,3.889c-0.744,0.106-1.49,0.206-2.238,0.301
						l-0.932,0.118l0.867,0.361c4.841,2.017,10.009,3.761,15.798,5.332c2.931,0.79,5.893,1.507,9.055,2.193
						c1.945,0.473,3.913,1.013,5.816,1.535c1.062,0.291,2.124,0.583,3.188,0.865l4.5,1.221c1.348,0.424,2.793,0.65,4.538,0.708
						c0.193,0.006,0.385,0.008,0.578,0.008c3.033,0,5.9-0.691,8.291-1.999c4.606-2.77,10.083-6,15.84-8.995l0.045-0.023l0.056-0.064
						l6.059-3.86l0.657-0.419l-0.778-0.041C347.321,243.798,344.707,242.824,341.48,240.781z M325.343,254.84
						c0.024,0.063,0.021,0.131-0.006,0.191s-0.077,0.107-0.14,0.131c-1.941,0.63-3.955,0.947-6,0.947
						c-1.451,0-2.895-0.162-4.292-0.482c1.11,0.185,2.247,0.286,3.382,0.286c2.324,0,4.589-0.41,6.733-1.219
						c0.029-0.011,0.058-0.016,0.088-0.016h0C325.213,254.678,325.307,254.743,325.343,254.84z"/>
					<path style="fill:#71DCA9;" d="M332.022,331.81l0.199,0.238c1.401,1.674,3.456,2.758,5.269,3.715l6.032,3.183
						c1.768,0.932,3.596,1.895,5.508,2.526c1.998,0.658,4.191,0.992,6.52,0.992c1.616,0,3.324-0.161,5.077-0.48
						c4.026-0.732,7.914-2.205,11.242-3.529c0.242-0.097,0.344-0.158,0.4-0.243c0.158-0.23-0.137-0.637-0.237-0.775l-2.777-3.834
						l-0.047-0.065l-0.076-0.025c-4.687-1.568-9.824-2.961-17.178-4.657c-1.209-0.279-3.385-0.837-6.468-1.66l-0.054-0.014
						l-0.055,0.01c-4.581,0.814-8.982,2.32-13.082,4.476L332.022,331.81z"/>
					<path style="fill:#71DCA9;" d="M405.905,379.342c-0.936,2.293-1.905,4.664-2.612,7.084c-2.241,7.668-1.848,15.864,1.106,23.078
						c0.16,0.391,0.344,0.789,0.668,0.973c0.141,0.081,0.316,0.123,0.518,0.123c0.212,0,0.462-0.046,0.744-0.137
						c1.459-0.47,2.702-1.513,3.417-2.865l0,0l0.024-0.035l0.026-0.043l0.007-0.049c1.347-9.048,0.193-20.766,0.181-20.882
						c-0.118-1.2-0.225-2.398-0.332-3.593c-0.263-2.941-0.56-6.273-1.06-9.436l-0.484-0.039
						C407.45,375.523,406.658,377.494,405.905,379.342z"/>
					<path style="fill:#4D9573;" d="M270.093,133.609c3.702,0,7.154,1.455,9.72,4.097l0.374-0.332
						c-7.321-9.03-14.712-14.565-21.97-16.448l-0.031-0.008h-0.032c-0.143-0.019-0.586-0.064-1.202-0.064
						c-1.673,0-4.785,0.336-6.826,2.588c-2.244,2.476-2.669,6.586-1.261,12.217l3.59,11.147l0.107,0.331l0.28-0.207l4.038-2.99
						l0.071-0.053l0.022-0.086c0.127-0.496,0.26-0.928,0.405-1.323C259.323,137.174,264.432,133.609,270.093,133.609z"/>
					<path style="fill:#0B1011;" d="M281.711,150.417c0.294-1.04,0.443-2.136,0.443-3.258c0-1.573-0.301-3.106-0.895-4.556
						c-1.862-4.553-6.245-7.494-11.166-7.494c-5.036,0-9.579,3.17-11.305,7.888c-0.494,1.337-0.745,2.737-0.745,4.162
						c0,1.325,0.215,2.633,0.64,3.89c1.666,4.887,6.251,8.171,11.41,8.171C275.485,159.22,280.262,155.6,281.711,150.417z
						 M280.676,145.939c0,0.908-0.635,1.773-1.741,2.372l-0.09,0.049l-0.03,0.098c-0.961,3.146-3.817,5.26-7.108,5.26
						c-4.099,0-7.433-3.334-7.433-7.433c0-4.098,3.334-7.433,7.433-7.433c2.928,0,5.592,1.732,6.787,4.413l0.039,0.087l0.087,0.039
						C279.907,143.974,280.676,144.926,280.676,145.939z"/>
					<path style="fill:#4D9573;" d="M283.385,149.864l-0.025,0.118c-0.06,0.283-0.128,0.564-0.206,0.841
						c-0.421,1.507-1.108,2.93-2.043,4.228l-0.227,0.315l0.381,0.076c4.283,0.852,7.371,1.284,9.176,1.284
						c0.869,0,1.384-0.101,1.573-0.309l0.056-0.061l0.008-0.082c0.004-0.041,0.022-0.077,0.058-0.118l0.113-0.127l-0.077-0.152
						c-0.707-1.394-2.231-4.275-4.49-7.907l-0.12-0.193l-0.204,0.102l-3.865,1.933L283.385,149.864z"/>
					<path style="fill:#71DCA9;" d="M290.461,203.973c-0.03,0-0.06-0.004-0.089-0.011c-2.92-0.758-5.813-1.718-8.598-2.853
						c-2.314-0.962-4.557-1.942-6.561-3.337l-0.032-0.022l-0.037-0.011c-2.067-0.635-5.086-1.391-7.731-1.391
						c-0.734,0-1.41,0.059-2.008,0.175l-0.051,0.01l-0.043,0.029c-3.397,2.317-6.025,4.478-7.809,6.421l-0.04,0.044l-0.016,0.058
						c-0.009,0.033-0.023,0.062-0.042,0.086l-1.185,1.529l-0.585,0.755l-0.048,0.077l-0.044,0.075l-0.006,0.005l-0.052,0.042
						c-4.04,5.213-7.354,9.613-10.475,14.237c-1.273,2.923-2.077,6.04-2.347,9.056c-0.298,3.518,0.196,6.583,1.469,9.112
						c1.288,2.637,3.63,4.895,6.594,6.354c2.548,1.249,5.579,2.089,9.011,2.497c2.004,0.24,4.141,0.361,6.351,0.361
						c2.53,0,5.204-0.153,8.175-0.468l0.06-0.006l0.05-0.033c0.031-0.02,0.065-0.031,0.099-0.031c0.019,0,0.039,0.004,0.058,0.011
						l0.057,0.022l0.061-0.007c1.347-0.148,2.663-0.313,3.912-0.491c5.691-0.83,11.747-2.094,18.516-3.864
						c5.518-1.431,11.285-3.147,18.148-5.399c2.702-0.874,5.907-1.846,9.177-2.428c1.49-0.252,2.954-0.478,4.448-0.478
						c0.1,0,0.2,0.001,0.3,0.003c1.615,0.051,3.222,0.432,4.647,1.101c1.836,0.832,3.43,2.031,4.971,3.189
						c0.944,0.71,1.92,1.443,2.928,2.073c1.528,0.978,2.849,1.668,4.156,2.171c1.695,0.647,3.164,0.961,4.491,0.961
						c0.378,0,0.721-0.029,1.099-0.089l0.051-0.008l0.044-0.028l1.578-1.007c0.022-0.014,0.044-0.027,0.068-0.039
						c1.64-0.82,2.516-1.776,2.601-2.841c0.125-1.543,0.443-3.072,0.947-4.544l0.014-0.041l-0.001-0.044
						c-0.009-0.602-0.035-1.207-0.076-1.798c-0.135-1.754-0.359-3.274-0.688-4.649c-0.025-0.105,0.034-0.201,0.13-0.224
						c0.005,0,0.01,0,0.015,0c0.115,0,0.181,0.055,0.2,0.132c0.335,1.4,0.556,2.881,0.697,4.661l0.073,0.915l0.401-0.826
						c0.03-0.062,0.058-0.126,0.085-0.19c0.03-0.07,0.06-0.14,0.095-0.208c5.951-11.443-2.901-28.718-8.708-37.998l-0.048-0.077
						l-0.086-0.028c-1.085-0.356-2.256-0.537-3.483-0.537c-1.946,0-3.629,0.445-4.699,0.817c-0.86,0.505-1.679,0.977-2.493,1.445
						l-0.126,0.073c-2.338,1.328-4.881,2.668-7.624,3.475c-0.017,0.005-0.035,0.008-0.052,0.008c-0.081,0-0.153-0.054-0.176-0.132
						c-0.028-0.095,0.027-0.197,0.123-0.227c2.692-0.841,5.184-2.21,7.476-3.564l0.651-0.388c2.141-1.275,4.355-2.592,6.207-4.243
						c0.388-0.342,0.771-0.726,1.168-1.173l0.082-0.092l-0.023-0.121c-0.031-0.162-0.015-0.32,0.047-0.456
						c2.378-5.174,2.78-9.617,1.194-13.204c-0.841-1.902-2.224-3.529-4.111-4.834c-0.315-0.173-0.609-0.318-0.898-0.447
						c-1.642-0.739-3.519-1.114-5.578-1.114c-0.75,0-1.524,0.051-2.299,0.152c-2.482,0.323-5.084,1.138-7.733,2.422
						c-2.696,1.313-4.81,2.95-6.283,4.867c-0.144,0.189-0.361,0.296-0.598,0.296c-0.165,0-0.322-0.053-0.454-0.154
						c-0.329-0.251-0.392-0.722-0.142-1.051c1.66-2.082,3.974-3.822,6.888-5.182c2.839-1.316,5.514-2.103,8.177-2.406
						c0.702-0.079,1.409-0.119,2.1-0.119c0.924,0,1.836,0.071,2.71,0.212l0.417,0.067l-0.142-0.398
						c-1.085-3.037-2.603-11.103-2.061-19.821l0.027-0.433l-0.388,0.194l-2.422,1.211l-0.108,0.054l-0.025,0.118
						c-0.06,0.283-0.128,0.564-0.206,0.841c-1.22,4.365-4.543,7.814-8.89,9.228l0.055,0.487c1.24,0.111,2.549,0.288,4.246,0.576
						c0.066,0.011,0.123,0.047,0.162,0.102s0.054,0.121,0.043,0.187c-0.021,0.121-0.124,0.208-0.246,0.208l-0.008-0.001
						l-0.056-0.005c-1.178-0.234-2.735-0.525-4.304-0.703c-1.013-0.131-2.024-0.198-2.791-0.242
						c-0.483,0.042-0.887,0.061-1.272,0.061c-0.58,0-1.181-0.044-1.839-0.133c-1.123,0.012-2.01,0.05-2.827,0.117
						c-1.722,0.146-3.094,0.356-4.319,0.66c1.216-0.353,2.55-0.595,4.306-0.795c0.071-0.008,0.143-0.013,0.215-0.018
						c0.065-0.005,0.13-0.009,0.195-0.015l0.053-0.486c-3.406-1.115-6.186-3.487-7.829-6.678l-0.093-0.18l-0.195,0.054l-6.821,1.867
						c-0.017,0.005-0.033,0.007-0.05,0.007c-0.053,0-0.105-0.023-0.142-0.063c-0.047-0.051-0.061-0.128-0.035-0.194
						c0.08-0.207,0.82-2.102,2.147-4.871l0.131-0.273l-0.293-0.077c-1.095-0.287-2.045-0.535-2.596-0.679l5.287-3.914l0.043-0.032
						l0.026-0.047c4.688-8.43,12.36-19.086,22.284-21.976c-0.001,0-0.001,0,0,0c0.008,0,0.489-0.083,1.213-0.083
						c1.312,0,3.78,0.282,5.572,2.172c2.241,2.363,2.734,6.443,1.468,12.125l-1.969,6.855l-0.047,0.162l0.133,0.104l2.04,1.596
						l0.35,0.274l0.052-0.441c0.518-4.351,1.542-8.296,3.042-11.724c1.044-2.387,1.727-4.925,2.029-7.545l0.007-0.059l-0.021-0.056
						c-0.847-2.302-2.289-4.295-4.169-5.764c-2.591-2.058-5.917-3.325-9.616-3.661c-0.622-0.056-1.253-0.084-1.875-0.084
						c-2.959,0-5.839,0.637-8.328,1.842c-3.248,1.547-5.841,4.248-7.115,7.407c1.226-3.195,3.801-5.936,7.052-7.529
						c2.572-1.281,5.556-1.957,8.632-1.957c0.549,0,1.105,0.022,1.655,0.064c3.76,0.301,7.16,1.553,9.832,3.623
						c1.422,1.104,2.629,2.487,3.491,4.001c0.026,0.045,0.048,0.092,0.07,0.139c0.022,0.046,0.044,0.092,0.069,0.137l0.431,0.798
						l0.038-0.907c0.311-7.401-2.363-13.587-3.528-15.904l-0.029-0.058l-0.054-0.037c-0.023-0.016-0.05-0.034-0.058-0.045
						c-5.337-6.792-11.514-10.403-18.359-10.732c-0.327-0.015-0.652-0.022-0.976-0.022c-12.572,0-23.205,10.953-23.311,11.064
						c-0.048,0.05-0.113,0.078-0.182,0.078c-0.049,0-0.097-0.014-0.139-0.042c-0.155-0.104-16.154-10.446-33.541-10.448
						c-12.903-0.001-23.263,5.56-30.796,16.527c-7.038,10.245-9.482,20.571-7.266,30.693c4.264,19.472,24.544,31.756,24.748,31.878
						c0.084,0.051,0.132,0.147,0.12,0.245l-1.73,14.419l-0.013,0.107l0.07,0.083l8.933,10.65l0.187,0.223l0.192-0.218
						c3.757-4.258,10.536-8.438,13.277-10.037l0.224-0.131l-0.139-0.219c-0.691-1.089-1.256-2.222-1.678-3.368
						c-1.118-3.005-1.344-6.261-0.637-9.17c0.764-3.179,2.543-5.929,5.012-7.745c3.001-2.24,6.433-2.813,8.784-2.899
						c0.256-0.011,0.51-0.017,0.764-0.017c2.62,0,5.414,0.579,8.304,1.721c2.461,0.974,5.019,2.354,8.051,4.342
						c0.346,0.227,0.443,0.693,0.216,1.039c-0.139,0.212-0.374,0.339-0.628,0.339c-0.146,0-0.288-0.042-0.41-0.123
						c-2.931-1.969-5.391-3.333-7.75-4.296c-2.79-1.136-5.472-1.711-7.97-1.711c-0.178,0-0.355,0.003-0.533,0.009
						c-3.073,0.077-5.954,0.989-8.111,2.566c-2.233,1.6-3.929,4.167-4.653,7.041c-0.688,2.694-0.507,5.734,0.51,8.56
						c0.41,1.154,0.975,2.299,1.679,3.4l0.046,0.072l0.081,0.029c0.043,0.015,0.103,0.047,0.138,0.111
						c0.012,0.022,0.027,0.06,0.021,0.138l-0.007,0.088l0.05,0.073c0.825,1.196,1.798,2.289,2.892,3.249
						c2.137,1.904,4.744,3.1,7.684,4.358c2.742,1.152,5.592,2.133,8.472,2.914c0.092,0.025,0.169,0.084,0.216,0.166
						c0.047,0.082,0.06,0.178,0.035,0.27C290.763,203.865,290.622,203.973,290.461,203.973z M288.044,166.623
						C288.044,166.623,288.044,166.623,288.044,166.623l-0.001-0.125c-0.134,0-0.246-0.109-0.25-0.243
						c-0.002-0.067,0.022-0.13,0.068-0.179c0.046-0.048,0.108-0.076,0.175-0.078c5.462,0.017,10.871,1.812,15.238,5.052
						c-4.24-2.937-9.409-4.561-14.563-4.561c-0.22,0-0.441,0.003-0.661,0.009l-0.003,0.125
						C288.046,166.623,288.045,166.623,288.044,166.623z M308.49,193.93c-1.088,0.881-3.137,1.379-4.175,1.534
						c-1.558,0.207-3.317,0.317-5.081,0.317c-9.984,0-20.81-3.241-21.254-12.339c0.075-2.671,2.605-3.881,4.749-4.1
						c0.527-0.082,1.04-0.122,1.538-0.122c4.259,0,7.332,2.887,10.587,5.943c2.06,1.935,4.19,3.935,6.694,5.223
						c2.192,1.128,4.287,1.713,6.228,1.74c0.565,0.008,0.9,0.4,1.016,0.734C308.932,193.263,308.819,193.663,308.49,193.93z
						 M297.334,126.205c0.226,0.815,0.496,1.602,0.803,2.342l0.161,0.385c0.262,0.623,0.533,1.267,0.689,1.955
						c0.191,0.86,0.19,1.762,0.189,2.487c-0.005,0.742-0.038,1.532-0.103,2.484c-0.047,0.687-0.106,1.372-0.164,2.054
						c-0.081,0.949-0.164,1.93-0.215,2.894c-0.347,6.595,0.914,13.247,3.645,19.238c0.057,0.126,0.001,0.274-0.124,0.332
						c-0.033,0.015-0.068,0.023-0.103,0.023c-0.098,0-0.187-0.057-0.228-0.146c-2.686-6.088-3.878-12.817-3.447-19.461
						c0.063-0.973,0.159-1.956,0.251-2.906c0.066-0.682,0.133-1.363,0.188-2.042l0.034-0.503c0.101-1.476,0.205-3.002-0.055-4.419
						c-0.143-0.677-0.4-1.309-0.672-1.978l-0.145-0.358c-0.3-0.748-0.561-1.542-0.778-2.362c-0.418-1.605-0.635-3.259-0.645-4.915
						C296.661,122.962,296.898,124.609,297.334,126.205z M278.771,161.402c-0.021,0.121-0.124,0.208-0.246,0.208l-0.008-0.001
						l-0.056-0.005c-1.178-0.234-2.735-0.525-4.304-0.703c-1.013-0.131-2.024-0.198-2.791-0.242
						c-0.482,0.042-0.886,0.061-1.272,0.061c-0.58,0-1.181-0.044-1.838-0.133c-1.123,0.012-2.01,0.05-2.827,0.117
						c-1.722,0.146-3.094,0.356-4.319,0.66l-0.017,0.004c0,0-0.006,0-0.007-0.005c1.239-0.351,2.573-0.593,4.33-0.793
						c0.07-0.008,0.142-0.013,0.214-0.018c0.066-0.005,0.131-0.009,0.197-0.016l0.053-0.486c-4.027-1.319-7.248-4.503-8.616-8.517
						c-0.049-0.144-0.089-0.29-0.13-0.437l-0.049-0.175l-0.039-0.136l-0.137-0.036c-2.387-0.634-5.582-1.468-6.806-1.787
						l1.892-1.401l0.144-0.107l-0.055-0.171l-3.699-11.484c-1.453-5.81-0.992-10.087,1.376-12.696
						c2.174-2.394,5.397-2.752,7.125-2.752c0.828,0,1.372,0.079,1.432,0.088c12.656,3.286,23.065,16.398,29.564,26.818l0.023,0.037
						l0.035,0.027l0.208,0.163l-0.097,0.048l0.143,0.233c2.92,4.738,4.594,8.212,4.776,8.593c0.029,0.06,0.033,0.128,0.01,0.19
						c-0.022,0.063-0.068,0.113-0.129,0.142c-0.034,0.016-0.07,0.025-0.107,0.025c-0.004-0.001-0.029-0.011-0.048-0.019
						l-0.163-0.066l-0.148,0.118c-0.044,0.049-0.083,0.085-0.125,0.116c-0.33,0.241-0.955,0.359-1.909,0.359
						c-1.9,0-5.066-0.454-9.679-1.389l-0.145-0.029l-0.095,0.112c-1.639,1.925-3.771,3.355-6.168,4.134l0.055,0.487
						c1.24,0.111,2.549,0.288,4.246,0.576c0.066,0.011,0.124,0.047,0.162,0.102C278.767,161.27,278.782,161.336,278.771,161.402z
						 M275.514,127.748c0.009,0.067-0.009,0.133-0.049,0.186c-0.041,0.053-0.099,0.087-0.166,0.096c-0.002,0-0.004,0-0.006,0
						c-0.155,0-0.259-0.092-0.275-0.215c-0.372-3.469-2.16-6.684-4.904-8.829c-2.592-2.058-5.917-3.325-9.616-3.661
						c-0.622-0.056-1.253-0.084-1.875-0.084c-2.959,0-5.839,0.637-8.328,1.841c-3.248,1.547-5.841,4.247-7.115,7.407l-0.007,0.005
						c-0.001,0-0.001,0-0.003-0.001c1.236-3.199,3.811-5.94,7.062-7.533c2.572-1.281,5.557-1.957,8.632-1.957
						c0.549,0,1.105,0.022,1.655,0.064c3.76,0.301,7.16,1.553,9.832,3.623c1.422,1.104,2.629,2.487,3.491,4.001
						C274.703,124.193,275.28,125.941,275.514,127.748z M314.058,171.371l-0.008,0.006c-0.002,0-0.003-0.001-0.005-0.002
						c0.76-1.046,1.729-1.953,2.879-2.705c0.967-0.646,2.09-1.217,3.536-1.799c1.297-0.516,2.624-0.94,3.751-1.287
						c0.893-0.269,1.939-0.557,3.034-0.557c0.328,0,0.65,0.027,0.958,0.079c0.066,0.011,0.123,0.047,0.162,0.102
						c0.039,0.055,0.054,0.121,0.042,0.187c-0.021,0.12-0.124,0.208-0.246,0.208l-0.004-0.001l-0.046-0.004
						c-0.327-0.068-0.677-0.102-1.044-0.102c-0.962,0-1.932,0.229-2.754,0.453c-1.13,0.311-2.46,0.692-3.762,1.163
						c-1.45,0.532-2.579,1.063-3.553,1.672C315.837,169.493,314.847,170.364,314.058,171.371z M337.759,174.956
						c2.082,0,4.469,0.879,4.925,3.347c0.316,2.971-0.56,5.669-2.606,7.998c-4.578,5.212-14.387,7.762-21.563,7.927l-0.061,0
						c-1.29,0-3.189-0.228-4.297-0.871c-0.366-0.213-0.539-0.591-0.464-1.012c0.063-0.347,0.333-0.787,0.89-0.882
						c1.914-0.327,3.894-1.229,5.885-2.681c2.275-1.659,4.07-3.964,5.807-6.194c3.052-3.918,5.935-7.619,11.068-7.623
						C337.49,174.96,337.624,174.956,337.759,174.956z M314.24,205.93c0.929,0.819,2.035,1.453,3.106,2.067l0.566,0.326
						c2.568,1.481,4.831,3.384,6.727,5.656c1.922,2.298,3.398,4.87,4.387,7.642c0.988,2.777,1.469,5.71,1.43,8.716
						c-0.002,0.136-0.114,0.247-0.25,0.247v0.125c-0.001,0-0.001,0-0.002,0l-0.002-0.125c-0.137-0.002-0.248-0.115-0.246-0.253
						c0.079-2.955-0.354-5.842-1.288-8.586c-0.937-2.748-2.36-5.306-4.228-7.602c-1.849-2.279-4.07-4.197-6.599-5.703
						c-0.196-0.118-0.394-0.235-0.593-0.353c-1.047-0.619-2.13-1.259-3.061-2.102c-0.874-0.795-1.944-2.097-2.082-3.777
						C312.243,203.508,312.995,204.83,314.24,205.93z M312.114,201.949L312.114,201.949L312.114,201.949L312.114,201.949z"/>
					<path style="fill:#C6F4DE;" d="M341.224,108.468c0.039,0.197-0.004,0.398-0.118,0.566l-0.079,0.116l0.058,0.128
						c1.245,2.758,2.783,7.149,3.04,12.404l0.019,0.382l0.342-0.17l0.385-0.191c0.65-0.323,1.3-0.645,1.952-0.971
						c1.758-0.995,4.16-2.237,6.776-3.504c6.894-3.717,12.119-7.192,16.455-10.939l0.126-0.15c0.116-0.145,0.232-0.289,0.349-0.432
						c0.443-0.54,0.901-1.099,1.264-1.65c1.47-2.24,2.81-4.597,3.982-7.005c0.554-1.137,1.088-2.325,1.587-3.53
						c0.058-0.14,0.125-0.373,0.209-0.668l0.048-0.168l0.023-0.081l0.035-0.121l0.134-0.474l-0.461,0.171
						c-2.915,1.079-6.07,1.424-9.12,1.756c-2.136,0.233-4.344,0.474-6.421,0.964c-3.983,0.939-18.718,4.771-22.527,6.291
						l-0.232,0.093l0.092,0.232C340.09,103.905,340.791,106.243,341.224,108.468z"/>
					<path style="fill:#4D9573;" d="M283.144,143.507l0.022,0.079l0.065,0.05l2.188,1.712l0.362-0.335
						c-1.209-1.818-2.486-3.614-3.794-5.337l-0.411,0.284c0.427,0.683,0.788,1.382,1.073,2.077
						C282.825,142.469,282.988,142.95,283.144,143.507z"/>
					<path style="fill:#4D9573;" d="M333.96,143.506l0.022,0.079l0.065,0.05l0.137,0.107l0.292,0.228l0.102-0.356l1.868-6.503
						c1.235-5.546,0.772-9.499-1.371-11.765c-1.69-1.788-4.076-2.056-5.348-2.056c-0.574,0-0.968,0.052-1.075,0.067
						c-5.404,1.572-10.71,5.715-15.807,12.323l0.341,0.358c2.289-1.589,4.96-2.429,7.725-2.429c5.533,0,10.461,3.307,12.555,8.426
						C333.642,142.468,333.804,142.95,333.96,143.506z"/>
					<path style="fill:#71DCA9;" d="M322.511,354.105c0.119,0.627,0.279,1.342,0.669,1.909c0.514,0.748,1.392,1.2,2.167,1.599
						c2.968,1.528,5.725,3.458,8.391,5.324c2.481,1.738,5.019,3.516,7.734,4.989c0.63,0.342,1.202,0.63,1.821,0.685
						c0.054,0.005,0.108,0.007,0.164,0.007c0.482,0,1.092-0.181,1.362-0.688c0.164-0.306,0.177-0.698,0.167-1.04
						c-0.024-0.917-0.191-1.821-0.436-2.897c-1.453-6.388-3.916-11.631-7.321-15.583c-3.919-4.549-9.192-7.354-14.466-7.695
						l-0.242-0.016l-0.023,0.241C322.124,344.802,321.661,349.609,322.511,354.105z"/>
					<path style="fill:#71DCA9;" d="M239.382,405.322l17.664,6.997c1.207,0.479,2.456,0.975,3.771,1.078
						c0.155,0.012,0.31,0.017,0.466,0.017c1.98,0,4.047-0.902,5.672-2.474c1.44-1.393,2.606-3.309,3.564-5.858
						c0.359-0.958,0.68-1.984,0.598-3.003c-0.085-1.039-0.574-2-1.11-2.974c-2.603-4.719-5.768-9.119-9.408-13.078
						c-0.314-0.342-0.582-0.614-0.925-0.746c-0.172-0.065-0.372-0.097-0.612-0.097c-0.207,0-0.418,0.023-0.622,0.045l-3.962,0.443
						c-2.197,0.245-4.469,0.498-6.651,1.025c-3.265,0.788-5.888,2.11-7.796,3.93c-2.614,2.498-4.126,6.055-4.935,8.598
						C234.26,401.854,235.662,403.848,239.382,405.322z"/>
					<path style="fill:#4D9573;" d="M239.86,424.096c3.091,0,5.606-1.944,5.606-4.333c0-2.389-2.515-4.333-5.606-4.333
						c-3.091,0-5.606,1.944-5.606,4.333C234.254,422.152,236.769,424.096,239.86,424.096z M237.053,419.763
						c0-1.181,1.259-2.143,2.807-2.143c1.548,0,2.807,0.961,2.807,2.143s-1.259,2.143-2.807,2.143
						C238.312,421.905,237.053,420.944,237.053,419.763z"/>
					<path style="fill:#71DCA9;" d="M256.582,313.593c-0.904-1.316-1.963-2.569-2.988-3.781l-0.806-0.958
						c-0.219-0.263-0.512-0.673-0.823-1.108c-1.102-1.545-2.247-3.069-3.074-3.253c-0.062-0.013-0.119-0.02-0.176-0.02
						c-1.18,0-2.398,2.569-3.948,8.331c-0.194,0.726-0.338,1.257-0.444,1.57c-0.445,1.31-0.948,2.794-0.726,4.242
						c0.27,1.75,1.536,3.327,3.982,4.965c1.371,0.917,2.835,1.745,4.252,2.546l0.053,0.03c1.192,0.674,2.27,1.231,3.393,1.231
						c0.12,0,0.241-0.006,0.361-0.02c1.841-0.2,3.084-2.011,3.589-3.501c0.698-2.06,0.623-4.394-0.205-6.404
						C258.449,316.076,257.541,314.841,256.582,313.593z"/>
					<path style="fill:#71DCA9;" d="M165.675,396.676c0.715,1.301,3.425,2.112,5.403,2.705c0.673,0.201,1.309,0.391,1.786,0.577
						c1.426,0.558,3.202,1.253,4.943,1.253c0.373,0,0.736-0.032,1.079-0.096c0.955-0.18,1.94-0.629,3.015-1.373
						c2.673-1.852,4.836-4.683,6.427-8.414c1.419-3.323,2.207-6.914,2.97-10.387l1.125-5.122c0.107-0.482,0.188-1.073-0.135-1.364
						c-0.193-0.174-0.497-0.211-0.845-0.239c-1.863-0.146-3.789-0.296-5.713-0.296c-1.304,0-2.471,0.069-3.569,0.211
						c-2.384,0.308-5.763,1.175-8.321,3.553c-2.75,2.558-3.958,6.179-5.126,9.68c-0.425,1.276-0.864,2.593-1.373,3.838
						c-0.157,0.384-0.395,0.825-0.647,1.292C165.963,393.854,165.052,395.546,165.675,396.676z"/>
					<path style="fill:#4D9573;" d="M371.732,419.896c3.091,0,5.605-1.944,5.605-4.333s-2.515-4.333-5.605-4.333
						c-3.091,0-5.605,1.944-5.605,4.333S368.641,419.896,371.732,419.896z M368.925,415.563c0-1.181,1.259-2.143,2.807-2.143
						c1.548,0,2.807,0.961,2.807,2.143c0,1.181-1.259,2.143-2.807,2.143C370.184,417.705,368.925,416.744,368.925,415.563z"/>
					<path style="fill:#71DCA9;" d="M179.038,334.776c-0.517-0.738-1.103-1.431-1.882-1.51c-0.047-0.005-0.096-0.006-0.143-0.006
						c-0.427,0-0.854,0.174-1.254,0.353c-2.314,1.032-4.437,2.42-6.31,4.126c-1.699,1.546-2.52,2.924-2.586,4.339
						c-0.052,1.149,0.43,2.283,0.909,3.241c1.702,3.402,4.542,7.457,8.409,7.457c0.747,0,1.512-0.153,2.275-0.454
						c2.142-0.844,3.775-2.691,4.96-4.204c0.413-0.528,0.795-1.052,0.943-1.658c0.222-0.91-0.128-1.901-0.474-2.758
						C182.618,340.557,180.987,337.554,179.038,334.776z"/>
					<path style="fill:#C6F4DE;" d="M407.75,472.548c-1.753-1.074-3.74-2.291-5.032-4.117c-1.081-1.532-1.599-3.369-2.076-5.275
						c-1.644-6.562-2.912-13.286-3.768-19.986c-0.238-1.865-0.412-3.68,0.061-5.393c0.983-3.562,4.374-5.728,7.764-7.641
						l5.783-3.266l0.141-0.08l-0.016-0.162l-1.5-15.457c-0.009-0.088-0.002-0.174,0.02-0.257c0.106-0.414,0.201-0.841,0.292-1.275
						l0.168-0.803L409,409.41c-0.719,0.702-1.589,1.231-2.516,1.529c-0.334,0.108-0.638,0.163-0.903,0.163
						c-0.29,0-0.539-0.062-0.761-0.19c-0.462-0.263-0.69-0.746-0.884-1.218c-2.997-7.317-3.396-15.63-1.122-23.408
						c0.715-2.447,1.688-4.829,2.628-7.132c1.052-2.579,2.055-5.107,2.758-7.683l0.015-0.056l-0.011-0.057
						c-0.439-2.242-0.967-4.237-1.613-6.101c-2.153-6.202-5.726-11.942-10.333-16.599c-4.623-4.674-11.247-8.787-20.25-12.573
						c-1.648-0.694-3.36-1.352-5.233-2.013l-0.756-0.267l0.47,0.649l1.949,2.691c0.244,0.339,0.536,0.839,0.278,1.297
						c-0.157,0.278-0.46,0.398-0.66,0.479c-3.353,1.334-7.27,2.818-11.339,3.557c-1.785,0.323-3.524,0.487-5.167,0.487
						c-2.383,0-4.629-0.342-6.675-1.018c-1.945-0.641-3.781-1.608-5.556-2.543l-6.062-3.198c-2.039-1.076-4.347-2.294-5.806-4.334
						c-0.041-0.058-0.056-0.132-0.04-0.202c0.016-0.07,0.061-0.129,0.125-0.164c3.692-2.003,7.651-3.486,11.769-4.408l0.01-0.485
						c-7.47-2.014-16.986-4.669-20.73-5.717l-0.515-0.144l0.22,0.488c0.668,1.48,1.398,2.798,2.233,4.029
						c0.113,0.166,0.154,0.366,0.116,0.562c-0.038,0.197-0.15,0.367-0.315,0.479c-0.125,0.085-0.27,0.13-0.42,0.13
						c-0.249,0-0.482-0.123-0.621-0.329c-1.713-2.523-3.055-5.467-3.989-8.747l-0.139-0.487l-0.302,0.406
						c-1.409,1.891-5.498,6.29-13.026,6.29c-4.482,0-9.485-1.558-14.871-4.63c-4.401-2.511-9.024-4.933-13.494-7.277
						c-16.552-8.675-33.667-17.646-42.168-32.581c-8.632-15.164-12.314-29.386-13.497-34.796l-0.493,0.027
						c-0.602,5.629-2.046,12.171-4.29,19.445l-0.03,0.097l0.046,0.09c3.605,7.043,7.594,13.919,11.859,20.437l0.22,0.335
						c1.443,2.201,2.934,4.476,3.674,7.044c0.894,3.11,0.658,6.747-0.666,10.242c-1.079,2.849-2.879,5.703-5.5,8.726
						c-0.864,0.995-1.915,2.128-3.164,2.983c-2.993,2.045-6.775,2.307-9.736,2.307c-0.967,0-1.895-0.031-2.713-0.059
						c-5.832-0.194-11.764-0.403-18.135-0.64l-0.094-0.003l-0.073,0.059c-2.029,1.638-5.097,3.888-8.192,5.307
						c-3.198,1.466-5.624,2.221-9.642,3.472c-2.759,0.859-6.158,1.916-11.064,3.581c-6.601,2.239-13.317,5.168-20.531,8.952
						l0.193,0.459c1.972-0.638,3.771-1.167,5.5-1.617c0.585-0.151,1.264-0.313,1.918-0.313c0.444,0,0.836,0.073,1.197,0.222
						c1.206,0.497,1.824,1.747,2.353,2.984c2.047,4.789,4.155,9.72,5.876,14.745c0.942,2.747,1.951,6.018,2.291,9.451
						c0.867,8.739-3.038,17.887-9.948,23.305c-4.168,3.267-9.34,5.245-13.904,6.99l-0.653,0.25c-8,3.061-16.272,6.225-24.15,9.935
						c-3.165,1.49-6.773,3.305-9.522,6c-1.132,1.109-2.132,1.697-2.973,1.748l-0.229,0.014l-0.006,0.229
						c-0.405,15.63-0.783,29.225-0.783,29.225c-0.002,0.05-0.008,0.099-0.019,0.148l-13.772,60.898l-0.069,0.305h0.313h93.024h0.209
						l0.037-0.206c2.795-15.687,5.174-29.842,5.972-44.224c0.384-6.601,0.266-13.581-0.385-22.633
						c-0.451-6.323-1.117-13.165-2.096-21.533l-0.043-0.363l-0.323,0.171c-1.697,0.9-3.549,1.782-5.503,2.62
						c-4.112,1.754-8.395,3.213-12.538,4.624l-1.969,0.672c-4.378,1.518-9.443,3.341-14.172,5.766
						c-4.273,2.198-7.891,4.746-10.754,7.573l-0.173,0.171l0.166,0.178c0.091,0.097,0.202,0.259,0.21,0.476
						c0.016,0.413-0.307,0.762-0.721,0.778l-1.348,0.042c-0.001,0-0.001,0-0.001,0c-0.436,0-0.761-0.316-0.774-0.719
						c-0.006-0.194,0.063-0.38,0.194-0.524c3.209-3.509,7.441-6.603,12.579-9.196c4.823-2.425,9.956-4.228,14.389-5.728l1.941-0.645
						c4.15-1.378,8.442-2.802,12.53-4.508c5.394-2.263,9.717-4.723,13.214-7.522c3.901-3.096,7.037-7.083,9.318-11.85
						c1.101-2.213,2.083-4.55,3.032-6.811c1.007-2.396,2.047-4.874,3.247-7.251c2.141-4.288,5.235-8.465,9.195-12.415
						c3.738-3.746,7.94-7.134,11.648-10.124c0.06-0.049,0.124-0.059,0.166-0.059c0.081,0,0.156,0.036,0.206,0.099
						c0.091,0.113,0.074,0.279-0.039,0.371c-3.672,3.008-7.834,6.416-11.519,10.168c-3.879,3.933-6.897,8.073-8.971,12.306
						c-1.156,2.331-2.168,4.794-3.147,7.176c-0.94,2.288-1.913,4.655-3.023,6.936c-2.264,4.844-5.54,9.073-9.475,12.235
						c-2.036,1.656-4.304,3.169-6.934,4.628l-0.148,0.082l0.021,0.168c0.439,3.435,0.821,6.609,1.168,9.704l0.006,0.056l0.03,0.048
						c1.624,2.614,3.419,5.047,5.333,7.23l0.389-0.313l-0.116-0.153c-0.046-0.059-0.091-0.119-0.135-0.18
						c-0.392-0.549-0.768-1.109-1.142-1.666c-0.871-1.297-1.772-2.638-2.852-3.795c1.111,1.149,2.022,2.48,2.902,3.766
						c0.381,0.557,0.761,1.111,1.154,1.651c1.298,1.778,2.805,3.479,4.478,5.056c3.128,2.958,6.882,5.492,11.158,7.531
						c3.758,1.799,8.067,3.21,12.807,4.194c4.105,0.842,8.491,1.345,13.409,1.538c0.138,0.005,0.246,0.121,0.241,0.259
						c-0.005,0.135-0.115,0.241-0.249,0.241c-1.829-0.088-3.68-0.234-5.672-0.448l-0.04-0.004l-0.039,0.009
						c-11.399,2.465-35.937,20.109-40.74,23.621l-0.534,0.39l0.659,0.061c2.87,0.263,6.05,0.853,7.874,3.231
						c0.454,0.593,0.786,1.253,1.107,1.891l1.212,2.404c0.718,1.424,1.461,2.896,1.742,4.519c0.32,1.847-0.072,3.57-1.074,4.726
						c-1.092,1.26-2.717,1.712-4.162,1.987l-0.235,0.045l0.035,0.237c0.174,1.195,0.286,2.35,0.342,3.533l0.022,0.471l0.377-0.283
						c0.916-0.687,1.828-1.14,2.711-1.347c0.398-0.094,0.807-0.141,1.214-0.141c1.317,0,2.521,0.486,3.302,1.334
						c0.649,0.703,0.985,1.615,1.182,2.24c0.576,1.836,0.578,3.643,0.005,5.086l-0.136,0.342h0.368h164.237h0.232l0.017-0.232
						c0.286-3.885,1.854-23.632,4.681-30.899c1.029-2.646,1.966-8.976,2.785-18.814l0.007-0.083l-0.044-0.07
						c-2.302-3.68-6.672-10.15-10.071-12.133l-0.131-0.077l-0.128,0.081c-0.497,0.314-0.952,0.588-1.391,0.836
						c-0.112,0.064-0.24,0.097-0.367,0.097c-0.271,0-0.522-0.146-0.654-0.382c-0.203-0.36-0.075-0.819,0.285-1.022
						c3.767-2.084,7.131-4.971,10.018-8.593c2.459-3.019,4.734-6.612,7.158-11.306c2.297-4.555,4.115-8.57,5.558-12.276
						c0.388-1.028,0.789-2.089,1.108-3.175l0.923-3.206c0.478-2.157,0.969-4.373,1.196-6.608c0.531-4.466,0.545-8.974,0.041-13.394
						c-0.548-4.443-1.587-8.837-3.088-13.06c-0.147-0.375-0.282-0.747-0.418-1.118c-0.244-0.67-0.496-1.362-0.799-2.025
						l-1.385-3.051l-1.597-2.965c-0.331-0.649-0.735-1.268-1.125-1.866c-0.216-0.331-0.431-0.662-0.636-0.999
						c-2.496-3.807-5.406-7.265-8.655-10.284c-0.113-0.105-0.119-0.273-0.02-0.38c0.051-0.055,0.119-0.084,0.194-0.084
						c0.066,0,0.13,0.025,0.178,0.069c3.313,3.023,6.288,6.493,8.842,10.315c0.209,0.337,0.433,0.674,0.657,1.012
						c0.398,0.6,0.81,1.219,1.147,1.862l1.652,3.002l1.435,3.088c0.308,0.661,0.57,1.359,0.823,2.035
						c0.142,0.379,0.284,0.757,0.435,1.133c1.559,4.262,2.652,8.71,3.247,13.211c0.552,4.487,0.579,9.072,0.079,13.625
						c-0.215,2.313-0.716,4.665-1.159,6.741l-0.918,3.297c-0.316,1.109-0.712,2.187-1.095,3.229
						c-1.446,3.81-3.194,7.765-5.501,12.445c-0.958,1.895-1.961,3.722-2.98,5.429l-0.087,0.145l0.103,0.135
						c0.115,0.15,0.17,0.309,0.164,0.471c-0.052,1.521-1.301,37.322-4.388,45.259c-2.696,6.933-4.28,26.472-4.57,30.319l-0.02,0.269
						h0.27h42.642h0.235l0.015-0.235c0.617-9.949-1.906-19.268-2.014-19.66c-0.054-0.191-0.034-0.388,0.056-0.56
						c0.905-1.714,1.717-3.716,2.413-5.949l0.058-0.186l-0.166-0.102L407.75,472.548z M393.973,418.497
						c1.133,0.759,1.633,2.297,1.163,3.577c-0.154,0.418-0.391,0.784-0.621,1.139l-6.76,10.435
						c-0.282,0.434-0.808,1.243-1.643,1.243l-0.018,0.123c-0.005,0-0.01,0.002-0.015,0.002c0,0,0,0,0,0l0.003-0.125
						c-0.558-0.012-1.06-0.393-1.494-1.13c-1.351-2.299-1.382-5.289-0.08-7.615c1.38-2.466,3.518-3.99,5.585-5.464
						c0.923-0.658,1.876-1.338,2.771-2.105l0.057-0.044c0.136-0.102,0.291-0.218,0.54-0.218
						C393.687,418.321,393.844,418.41,393.973,418.497z M393.461,418.065L393.461,418.065L393.461,418.065L393.461,418.065z
						 M371.732,410.729c3.366,0,6.105,2.168,6.105,4.833s-2.739,4.833-6.105,4.833c-3.367,0-6.105-2.168-6.105-4.833
						S368.365,410.729,371.732,410.729z M259.7,324.028c-0.579,1.707-1.937,3.612-4.009,3.837c-0.134,0.015-0.266,0.021-0.398,0.021
						h-0.003c-1.363,0-2.677-0.743-3.637-1.285c-1.448-0.818-2.946-1.664-4.354-2.605c-1.617-1.083-3.813-2.812-4.198-5.304
						c-0.242-1.569,0.306-3.183,0.747-4.48c0.104-0.304,0.237-0.801,0.406-1.43l0.026-0.097c1.134-4.215,2.505-8.712,4.433-8.713
						c0.093,0,0.189,0.011,0.286,0.032c1,0.223,2.166,1.76,3.372,3.452c0.317,0.445,0.585,0.821,0.8,1.078l0.782,0.929
						c1.037,1.225,2.108,2.492,3.024,3.825c0.986,1.285,1.913,2.547,2.505,3.985C260.357,319.392,260.436,321.854,259.7,324.028z
						 M246.977,474.304c-0.916-1.333-1.988-2.6-3.024-3.825l-0.782-0.929c-0.215-0.258-0.483-0.634-0.8-1.078
						c-1.206-1.692-2.372-3.229-3.372-3.452c-0.096-0.021-0.192-0.032-0.286-0.032c-1.928,0-3.299,4.498-4.433,8.713l-0.026,0.097
						c-0.169,0.629-0.303,1.127-0.406,1.43c-0.44,1.297-0.988,2.911-0.747,4.48c0.385,2.492,2.58,4.221,4.198,5.304
						c1.408,0.942,2.906,1.787,4.354,2.605c0.96,0.542,2.274,1.285,3.637,1.285h0.003c0.132,0,0.264-0.006,0.398-0.021
						c2.072-0.226,3.43-2.13,4.009-3.837c0.736-2.174,0.657-4.636-0.217-6.755C248.89,476.852,247.963,475.589,246.977,474.304z
						 M249.226,484.883c-0.505,1.49-1.748,3.301-3.589,3.501c-0.12,0.014-0.241,0.02-0.361,0.02c-1.124,0-2.201-0.558-3.393-1.231
						l-0.053-0.03c-1.417-0.801-2.881-1.629-4.252-2.546c-2.446-1.638-3.712-3.215-3.982-4.965
						c-0.222-1.448,0.282-2.932,0.726-4.242c0.106-0.313,0.25-0.844,0.444-1.57c1.55-5.762,2.767-8.331,3.948-8.331
						c0.057,0,0.114,0.006,0.176,0.02c0.827,0.184,1.972,1.708,3.074,3.253c0.31,0.435,0.603,0.845,0.823,1.108l0.806,0.958
						c1.024,1.212,2.084,2.466,2.988,3.781c0.959,1.248,1.867,2.483,2.44,3.871C249.849,480.489,249.924,482.823,249.226,484.883z
						 M246.581,474.609c-0.904-1.316-1.963-2.569-2.988-3.781l-0.806-0.958c-0.219-0.263-0.512-0.673-0.823-1.108
						c-1.102-1.545-2.247-3.069-3.074-3.253c-0.062-0.013-0.119-0.02-0.176-0.02c-1.18,0-2.398,2.569-3.948,8.331
						c-0.194,0.726-0.338,1.257-0.444,1.57c-0.445,1.31-0.948,2.794-0.726,4.242c0.27,1.75,1.536,3.327,3.982,4.965
						c1.371,0.917,2.835,1.745,4.252,2.546l0.053,0.03c1.192,0.674,2.27,1.231,3.393,1.231c0.12,0,0.241-0.006,0.361-0.02
						c1.841-0.2,3.084-2.011,3.589-3.501c0.698-2.06,0.623-4.394-0.205-6.404C248.448,477.092,247.54,475.857,246.581,474.609z
						 M249.699,485.044c-0.579,1.707-1.937,3.612-4.009,3.837c-0.134,0.015-0.266,0.021-0.398,0.021h-0.003
						c-1.363,0-2.677-0.743-3.637-1.285c-1.448-0.818-2.946-1.664-4.354-2.605c-1.617-1.083-3.813-2.812-4.198-5.304
						c-0.242-1.569,0.306-3.183,0.747-4.48c0.104-0.304,0.237-0.801,0.406-1.43l0.026-0.097c1.134-4.215,2.505-8.712,4.433-8.713
						c0.093,0,0.189,0.011,0.286,0.032c1,0.223,2.166,1.76,3.372,3.452c0.317,0.445,0.585,0.821,0.8,1.078l0.782,0.929
						c1.037,1.225,2.108,2.492,3.024,3.825c0.986,1.285,1.913,2.547,2.505,3.985C250.356,480.408,250.435,482.87,249.699,485.044z
						 M254.422,385.175l3.944-0.44c0.21-0.023,0.45-0.049,0.692-0.049c0.306,0,0.566,0.043,0.795,0.13
						c0.48,0.183,0.847,0.582,1.115,0.874c3.669,3.991,6.858,8.424,9.478,13.176c0.542,0.981,1.078,2.035,1.171,3.174
						c0.091,1.121-0.248,2.21-0.628,3.22c-0.984,2.619-2.189,4.596-3.684,6.042c-1.745,1.687-3.87,2.616-5.985,2.616
						c-0.181,0-0.36-0.008-0.54-0.022c-1.389-0.108-2.732-0.641-3.917-1.111l-17.664-6.997c-3.955-1.568-5.495-3.826-4.579-6.712
						c0.826-2.599,2.375-6.237,5.066-8.808c1.973-1.881,4.673-3.246,8.025-4.056C249.92,385.678,252.209,385.422,254.422,385.175z
						 M320.525,489.867c2.074,2.207,4.797,1.961,8.092-0.729l14.715-12.019c0.988-0.806,2.108-1.719,2.878-2.879
						c0.1-0.15,0.194-0.303,0.282-0.461c1.03-1.847,1.254-4.156,0.631-6.502c-0.535-2.01-1.674-4.026-3.482-6.16
						c-0.697-0.824-1.483-1.651-2.506-2.117c-1.04-0.474-2.221-0.518-3.342-0.523c-5.426-0.026-10.85,0.6-16.124,1.86
						c-0.385,0.092-0.912,0.217-1.306,0.548c-0.188,0.158-0.352,0.364-0.501,0.631c-0.118,0.211-0.211,0.433-0.294,0.628
						l-1.536,3.658c-0.862,2.053-1.754,4.176-2.365,6.367c-0.925,3.322-1.049,6.345-0.367,8.984
						C316.235,484.754,318.657,487.879,320.525,489.867z M316.149,472.303c0.603-2.163,1.488-4.27,2.345-6.308l1.544-3.676
						c0.08-0.189,0.163-0.385,0.264-0.565c0.117-0.209,0.242-0.369,0.383-0.487c0.282-0.235,0.65-0.337,1.102-0.445
						c5.231-1.25,10.615-1.871,16.004-1.846c1.112,0.006,2.189,0.047,3.138,0.479c0.93,0.425,1.67,1.205,2.332,1.985
						c1.76,2.078,2.866,4.03,3.38,5.966c0.581,2.185,0.362,4.43-0.603,6.159c-0.076,0.136-0.157,0.269-0.242,0.399
						c-0.731,1.099-1.772,1.947-2.779,2.768l-14.715,12.019c-3.099,2.531-5.524,2.784-7.412,0.775
						c-1.828-1.945-4.197-4.998-5.106-8.498C315.124,478.473,315.247,475.538,316.149,472.303z M328.302,488.75l14.715-12.019
						c1.007-0.821,2.048-1.669,2.779-2.768c0.086-0.129,0.166-0.262,0.242-0.399c0.964-1.729,1.184-3.974,0.603-6.159
						c-0.515-1.937-1.621-3.888-3.38-5.966c-0.661-0.78-1.402-1.56-2.332-1.985c-0.949-0.432-2.026-0.473-3.138-0.479
						c-5.389-0.025-10.773,0.596-16.004,1.846c-0.452,0.108-0.82,0.21-1.102,0.445c-0.141,0.118-0.266,0.278-0.383,0.487
						c-0.101,0.181-0.184,0.376-0.264,0.565l-1.544,3.676c-0.856,2.038-1.742,4.145-2.345,6.308
						c-0.902,3.235-1.025,6.17-0.365,8.724c0.908,3.5,3.278,6.553,5.106,8.498C322.778,491.534,325.202,491.281,328.302,488.75z
						 M318.032,465.801l1.536-3.658c0.082-0.195,0.176-0.417,0.294-0.628c0.149-0.267,0.313-0.473,0.501-0.631
						c0.394-0.331,0.921-0.456,1.306-0.548c5.273-1.26,10.697-1.886,16.124-1.86c1.121,0.005,2.302,0.049,3.342,0.523
						c1.023,0.467,1.809,1.293,2.506,2.117c1.809,2.135,2.948,4.15,3.482,6.16c0.624,2.345,0.4,4.654-0.631,6.502
						c-0.088,0.158-0.182,0.311-0.282,0.461c-0.77,1.16-1.89,2.073-2.878,2.879l-14.715,12.019c-3.296,2.69-6.018,2.936-8.092,0.729
						c-1.868-1.987-4.29-5.113-5.225-8.715c-0.682-2.639-0.559-5.662,0.367-8.984C316.278,469.978,317.17,467.855,318.032,465.801z
						 M257.309,447.596c4.766-0.35,9.565-1.664,13.886-3.81c2.161-1.083,4.215-2.372,6.108-3.834c0.849-0.645,1.72-1.389,2.739-2.34
						c0.267-0.248,0.53-0.505,0.796-0.766c0.593-0.58,1.206-1.18,1.895-1.705c0.045-0.034,0.097-0.052,0.152-0.052
						c0.079,0,0.151,0.036,0.199,0.098c0.084,0.109,0.063,0.267-0.046,0.351c-0.662,0.486-1.253,1.044-1.878,1.634
						c-0.268,0.253-0.537,0.508-0.815,0.759c-1.045,0.943-1.938,1.681-2.811,2.322c-1.936,1.444-4.03,2.71-6.226,3.765
						c-4.376,2.083-9.215,3.323-13.991,3.586l0,0.125c0,0,0,0,0,0v-0.125C257.314,447.603,257.309,447.601,257.309,447.596z
						 M277.142,333.22c-0.043,0.032-0.094,0.049-0.148,0.049c-0.081,0-0.154-0.037-0.202-0.102
						c-5.34-7.543-9.39-15.849-12.041-24.688c2.814,8.769,6.996,16.977,12.444,24.392c0.04,0.054,0.056,0.12,0.046,0.186
						C277.231,333.122,277.196,333.18,277.142,333.22z M239.86,414.93c3.367,0,6.106,2.168,6.106,4.833
						c0,2.665-2.739,4.833-6.106,4.833c-3.367,0-6.106-2.168-6.106-4.833C233.754,417.098,236.493,414.93,239.86,414.93z
						 M337.607,348.083c3.458,4.015,5.958,9.33,7.429,15.798c0.251,1.103,0.423,2.034,0.449,2.995
						c0.011,0.407-0.007,0.88-0.226,1.29c-0.375,0.702-1.179,0.952-1.806,0.952c-0.069,0-0.139-0.003-0.206-0.009
						c-0.713-0.063-1.36-0.388-2.016-0.744c-2.741-1.488-5.289-3.273-7.754-5c-2.661-1.863-5.413-3.79-8.361-5.309l-0.058,0.112
						c0,0,0,0-0.001,0l0.057-0.112c-0.786-0.405-1.764-0.91-2.348-1.76c-0.446-0.648-0.62-1.423-0.748-2.099
						c-0.864-4.575-0.413-9.252,0.024-13.774c0.013-0.135,0.121-0.233,0.25-0.233C327.883,340.395,333.461,343.272,337.607,348.083z
						 M349.94,441.977c0.063,0.022,0.114,0.067,0.143,0.127c0.029,0.06,0.033,0.128,0.011,0.191c-0.035,0.1-0.13,0.168-0.236,0.168
						c-0.028,0-0.055-0.005-0.082-0.014c-7.518-2.793-14.392-7.345-19.883-13.165C335.492,434.963,342.421,439.356,349.94,441.977z
						 M184.845,346.578c-0.172,0.705-0.605,1.3-1.035,1.849c-1.222,1.564-2.914,3.473-5.169,4.361
						c-0.843,0.333-1.685,0.501-2.501,0.501c-3.233,0-6.281-2.678-8.814-7.746c-0.508-1.016-1.019-2.224-0.96-3.488
						c0.094-2.044,1.613-3.653,2.748-4.686c1.912-1.741,4.08-3.158,6.443-4.214c0.431-0.191,0.937-0.395,1.469-0.395
						c0.06,0,0.121,0.003,0.182,0.008c0.981,0.098,1.683,0.924,2.24,1.72c1.972,2.811,3.621,5.848,4.903,9.027
						C184.724,344.446,185.102,345.526,184.845,346.578z M168.232,387.234c1.196-3.588,2.423-7.27,5.268-9.916
						c2.1-1.952,5.073-3.226,8.597-3.683c1.118-0.145,2.304-0.215,3.625-0.215c1.932,0,3.872,0.152,5.749,0.298
						c0.351,0.027,0.816,0.063,1.152,0.367c0.581,0.525,0.376,1.448,0.289,1.843l-1.124,5.117
						c-0.768,3.497-1.562,7.113-2.999,10.481c-1.63,3.819-3.851,6.723-6.603,8.629c-1.134,0.785-2.183,1.26-3.207,1.453
						c-0.377,0.071-0.775,0.107-1.183,0.107c-1.82,0-3.646-0.715-5.112-1.289c-0.453-0.178-1.082-0.366-1.749-0.565
						c-2.178-0.653-4.884-1.464-5.698-2.943c-0.753-1.369,0.23-3.194,1.02-4.66c0.249-0.463,0.479-0.891,0.624-1.245
						C167.377,389.797,167.812,388.494,168.232,387.234z M140.628,448.845c-0.016-2.816,0.679-5.56,1.351-8.213
						c0.148-0.587,0.267-1.297,0.394-2.048c0.295-1.754,0.629-3.735,1.457-4.93c0.42-0.607,0.86-0.901,1.346-0.902
						c0.038,0,0.075,0.002,0.114,0.005c0.791,0.064,1.607,0.938,2.363,2.527c1.715,3.609,3.707,7.456,6.645,11.136l0.475,0.589
						c1.041,1.29,2.117,2.623,2.839,4.156c0.726,1.539,1.068,3.246,1.308,4.713c0.808,4.945,0.9,9.972,0.273,14.941
						c-0.163,1.289-0.419,2.749-1.402,3.756c-0.665,0.682-1.571,1.048-2.371,1.372c-2.576,1.043-5.495,2.224-8.503,2.224
						c-0.053,0-0.23-0.01-0.294-0.138c-2.055-4.104-2.689-8.739-3.303-13.221c-0.28-2.045-0.565-4.127-0.976-6.131
						c-0.168-0.82-0.351-1.607-0.573-2.552C141.217,453.766,140.644,451.322,140.628,448.845z"/>
					<path style="fill:#71DCA9;" d="M410.714,427.718l-0.037-0.383l-0.335,0.189l-5.396,3.048c-3.298,1.861-6.595,3.96-7.528,7.338
						c-0.45,1.628-0.288,3.317-0.047,5.197c0.854,6.684,2.118,13.389,3.757,19.928c0.465,1.858,0.967,3.647,1.998,5.107
						c1.231,1.74,3.172,2.929,4.884,3.978l3.739,2.29l0.28,0.172l0.091-0.316c1.576-5.482,1.988-10.55,2.029-11.11L410.714,427.718z
						"/>
					<path style="fill:#71DCA9;" d="M393.23,418.926c-0.014,0.011-0.029,0.021-0.041,0.03c-0.92,0.787-1.879,1.471-2.807,2.132
						c-2.116,1.509-4.113,2.934-5.438,5.301c-1.217,2.175-1.188,4.969,0.074,7.118c0.342,0.578,0.703,0.875,1.075,0.883c0,0,0,0,0,0
						c0.518,0,0.935-0.542,1.242-1.015l6.759-10.435c0.215-0.33,0.436-0.672,0.571-1.038c0.386-1.053-0.041-2.367-0.972-2.991
						c-0.086-0.057-0.13-0.076-0.159-0.085l-0.263-0.087L393.23,418.926z"/>
				</g>
				<path style="fill:#71DCA9;" d="M345.872,474.336l-19.015,15.936c0,0-2.843,2.221-5.331,0.267s-5.687-7.553-5.687-7.553
					l-1.244-5.598l3.288-10.396l2.48-6.107c0,0,16.891-2.956,19.201-1.89c2.31,1.066,4.621,3.377,4.71,3.821
					C344.362,463.259,349.16,467.82,345.872,474.336"/>
				<path style="fill:#71DCA9;" d="M238.89,465.508l8.973,10.191c0,0,5.234,12.308-2.226,12.685l-4.129-0.985l-7.418-5.214
					l-1.155-3.643l1.599-6.042l1.955-5.954l1.511-1.244L238.89,465.508"/>
				<path style="fill:#4D9573;" d="M368.046,108.572l-0.168,13.843l-8.012,14.049c0,0-1.098,5.598-1.098,12.732
					c0,7.134-2.963,13.939-2.963,13.939s-3.402,6.585-13.171,6.037l-3.479-0.512l-1.789-17.269c0,0,5.159-24.695,7.463-27.219
					C347.134,121.646,368.046,108.572,368.046,108.572"/>
				<path style="fill:#4D9573;" d="M217.134,132.332c0,0-7.645-6.732-9.757-9.239c-2.111-2.507-12.009-9.765-29.164-4.751
					c0,0-21.51,6.466-16.1,24.677c0,0,6.466,18.211,13.856,24.81c7.39,6.598,14.78,15.968,22.698,16.76
					c7.918,0.792,21.985,1.671,24-21.288c0,0-7.643-12.715-5.741-20.032C218.829,135.951,217.134,132.332,217.134,132.332z"/>
			</g>
			<g>
				<g>
					<path style="fill:none;stroke:#0B1011;stroke-linecap:round;stroke-linejoin:round;stroke-miterlimit:10;" d="M279.319,155.355
						c6.969,1.457,12.594,2.238,12.718,0.999"/>
					<path style="fill:none;stroke:#0B1011;stroke-linecap:round;stroke-linejoin:round;stroke-miterlimit:10;" d="M292.476,156.464
						c0,0-14.598-30.622-34.463-35.78c0,0-13.939-2.085-9.658,15.037l4.171,12.951c0,0,1.813,0.508,4.662,1.272"/>
					
						<path style="fill:none;stroke:#0B1011;stroke-width:0.8787;stroke-linecap:round;stroke-linejoin:round;stroke-miterlimit:10;" d="
						M332.898,149.213l3.461-12.05c3.552-15.931-8.015-13.991-8.015-13.991c-16.485,4.8-26.905,31.755-26.905,31.755l6.951-1.902"/>
					<path style="fill:#0B1011;" d="M199.59,149.313c0.86-3.969,3.118-7.511,5.78-10.578c0.316-0.364,0.656-0.764,0.676-1.245
						c0.012-0.287-0.093-0.565-0.2-0.833c-2.973-7.49-7.71-14.273-13.718-19.642c6.548,0.052,13.016,3.073,17.26,8.061
						c1.356,1.593,2.5,3.38,4.046,4.789c1.638,1.493,3.709,2.546,5.002,4.346c1.353,1.883,1.65,4.458,0.831,6.627
						c-0.819,2.169-2.709,3.887-4.924,4.571c-1.244,0.384-2.581,0.463-3.769,0.993c-2.093,0.934-2.858,4.299-3.202,6.565
						c-0.344,2.266,0.051,3.647,0.675,5.853c0.141,0.499-0.094,1.023-0.45,1.401c-0.16,0.169-0.48,0.13-0.701,0.204
						c-1.284,0.431-3.185,1.084-4.51,0.449c-0.967-0.464-1.561-1.814-1.982-2.736C199.156,155.403,198.957,152.233,199.59,149.313z"
						/>
					<path style="fill:#0B1011;" d="M220.633,173.791c0,0-2.738,25.884-16.302,23.022l-0.404-11.799
						C203.927,185.014,215.78,187.729,220.633,173.791z"/>
					<path style="fill:#0B1011;" d="M335.979,252.81c0,0-1.984,9.505-13.637,9.918c0,0-10.166,1.736-23.39-7.521l14.794,3.719
						c0,0,9.091,1.818,13.802-0.992C332.259,255.124,335.979,252.81,335.979,252.81z"/>
					<path style="fill:#0B1011;" d="M312.897,237.866c0.289,0.012,11.466,10.029,23.489-0.846l-4.361-2.3l-5.341-0.402
						L312.897,237.866z"/>
					<path style="fill:#0B1011;" d="M319.392,316.525c0,0-8.049,14.488-28.829,2.634c-20.78-11.854-44.927-20.927-55.756-39.951
						c-10.829-19.024-13.902-36.732-13.902-36.732s7.448,11.689,21.204,17.836c0,0,6.162,15.823,18.455,23.433
						c0,0,18.146,8.927,36.146,10.829l12.439,1.463l9.571-1.876C318.72,294.162,317.051,311.11,319.392,316.525z"/>
					<path style="fill:#0B1011;" d="M277.937,199.069c0,0-9.489-3.882-14.018-1.941l6.398-4.313L277.937,199.069z"/>
					<path style="fill:#0B1011;" d="M339.544,195.547c0,0,4.96-2.372,9.705-0.359l-3.235-4.888L339.544,195.547z"/>
					<path style="fill:#0B1011;" d="M361.246,113.476c-2.81,0.871-15.51,6.939-17.699,8.904c0.876,2.05,0.14,2.845-0.627,4.938
						c-7.332,20.022-4.926,25.834-4.774,25.475c3.86-9.136,9.055-24.124,9.04-24.453c-0.057-1.236,2.018-3.566,3.051-4.247
						C353.741,121.785,359.377,115.071,361.246,113.476z"/>
					<path style="fill:none;stroke:#0B1011;stroke-width:2;stroke-linecap:round;stroke-linejoin:round;stroke-miterlimit:10;" d="
						M338.824,107.042c0,0,8.153,13.24,2.007,27.288c-6.146,14.049-2.195,32.927-0.878,34.902c0,0,13.829,4.39,6.366,20.634
						c0,0,20.125,27.143,11.747,43.251c-1.057,2.032-1.625,4.245-1.809,6.528c-0.088,1.089-0.805,2.348-3.013,3.452l-9.12,5.818
						c-1.446,11.39-2.567,22.478-9.176,32.303c-0.654,0.973-1.345,1.92-2.073,2.839c-1.776,2.245-3.768,4.332-6.044,6.068
						c-9.398,7.172-20.666,5.709-31.517,3.901c-10.729-1.788-21.835-4.285-31.552-9.328c-3.02-1.567-5.97-3.444-8.322-5.929
						c-11.634-12.293-13.61-17.781-13.61-17.781c-4.222-2.017-8.019-5.092-11.423-8.253c-3.982-3.698-7.523-7.861-10.645-12.303
						c-1.747-2.486-17.677-19.461-17.808-23.959c-0.141-4.866,3.07-25.708,2.12-31.216"/>
					<path style="fill:none;stroke:#0B1011;stroke-width:2;stroke-linecap:round;stroke-linejoin:round;stroke-miterlimit:10;" d="
						M337.896,100.881c2.369-1.375,20.491-6.008,23.469-6.71c5.9-1.39,12.397-0.771,17.694-3.718
						c-0.489,0.272-1.036,2.773-1.276,3.355c-0.498,1.207-1.034,2.398-1.605,3.572c-1.19,2.445-2.537,4.815-4.029,7.089
						c-1.076,1.639-2.86,3.214-3.456,5.059c-0.755,2.336-0.818,5.233-0.735,7.658c0.17,4.94,0.511,4.77-3.237,10.903
						c-3.748,6.133-6.814,11.584-6.133,17.887c0.681,6.303,1.061,26.412-18.635,23.257"/>
					<path style="fill:none;stroke:#0B1011;stroke-linecap:round;stroke-linejoin:round;stroke-miterlimit:10;" d="M256.47,203.626
						l-9.516-11.345l1.756-14.634c0,0-43.133-25.702-17.561-62.927c23.122-33.659,64.683-6.146,64.683-6.146
						s23.707-24.878,43.024-0.293"/>
					<path style="fill:none;stroke:#0B1011;stroke-linecap:round;stroke-linejoin:round;stroke-miterlimit:10;" d="M270.953,192.574
						c0,0-12.668,7.022-15.901,12.912"/>
					<g>
						<path style="fill:#0B1011;" d="M290.04,204.204c-2.935-0.762-5.82-1.719-8.63-2.864c-2.774-1.154-5.652-2.391-8.039-4.461
							c-2.368-2.033-4.24-4.658-5.326-7.607c-1.092-2.934-1.4-6.214-0.645-9.315c0.74-3.078,2.502-5.971,5.107-7.887
							c2.587-1.931,5.787-2.832,8.923-2.948c3.163-0.137,6.295,0.586,9.169,1.722c2.888,1.143,5.554,2.699,8.096,4.365
							c0.462,0.303,0.591,0.923,0.288,1.385c-0.303,0.462-0.923,0.591-1.385,0.288c-0.001-0.001-0.009-0.006-0.011-0.007
							c-2.461-1.653-5.002-3.166-7.697-4.266c-2.691-1.095-5.541-1.778-8.401-1.684c-2.846,0.072-5.707,0.862-7.971,2.518
							c-2.273,1.629-3.867,4.157-4.558,6.901c-0.701,2.746-0.469,5.716,0.503,8.414c0.961,2.707,2.662,5.153,4.831,7.056
							c2.156,1.921,4.878,3.144,7.618,4.316c2.744,1.153,5.565,2.123,8.439,2.903c0.323,0.087,0.514,0.42,0.427,0.743
							C290.691,204.096,290.361,204.287,290.04,204.204z"/>
					</g>
					<g>
						<path style="fill:#0B1011;" d="M318.55,176.316c1.872-2.348,4.369-4.027,6.968-5.24c2.602-1.206,5.365-2.098,8.255-2.428
							c2.874-0.322,5.901-0.052,8.603,1.214c2.665,1.244,4.979,3.368,6.178,6.131c0.593,1.374,0.834,2.92,0.812,4.347
							c-0.021,1.425-0.03,2.799-0.2,4.252c-0.16,1.439-0.614,2.913-1.378,4.176c-0.741,1.282-1.754,2.354-2.829,3.301
							c-2.184,1.877-4.667,3.226-7.074,4.613c-2.426,1.378-4.947,2.695-7.678,3.498c-0.23,0.068-0.471-0.064-0.538-0.294
							c-0.067-0.227,0.063-0.466,0.288-0.537c2.608-0.815,5.04-2.133,7.423-3.541c2.384-1.425,4.801-2.804,6.818-4.603
							c2.025-1.782,3.492-4.099,3.684-6.764c0.135-1.315,0.125-2.731,0.121-4.087c-0.008-1.354-0.238-2.607-0.763-3.789
							c-1.064-2.352-3.138-4.215-5.519-5.272c-2.377-1.07-5.115-1.285-7.743-0.943c-2.643,0.344-5.235,1.225-7.656,2.399
							c-2.41,1.173-4.618,2.744-6.194,4.794c-0.335,0.439-0.962,0.524-1.402,0.189c-0.439-0.335-0.524-0.962-0.189-1.402
							C318.539,176.33,318.548,176.32,318.55,176.316z"/>
					</g>
					<path style="fill:none;stroke:#0B1011;stroke-linecap:round;stroke-linejoin:round;stroke-miterlimit:10;" d="M167.907,123.843
						c6.983-5.758,16.525-7.978,25.504-6.841c5.094,0.646,10.182,2.386,14.023,5.794c3.362,2.983,5.639,7.11,9.285,9.738
						c0.326,0.235,0.682,0.464,1.083,0.495c0.644,0.049,1.204-0.418,1.647-0.888c2.24-2.375,3.531-5.62,3.536-8.884
						c0.005-3.264-1.277-6.513-3.51-8.894c-1.415-1.509-3.171-2.659-4.998-3.629c-4.685-2.489-9.888-3.862-15.119-4.746"/>
					<path style="fill:none;stroke:#0B1011;stroke-linecap:round;stroke-linejoin:round;stroke-miterlimit:10;" d="M343.167,122.694
						c9.416-4.668,18.945-9.411,26.882-16.3"/>
					<path style="fill:none;stroke:#0B1011;stroke-linecap:round;stroke-linejoin:round;stroke-miterlimit:10;" d="M203.199,184.777
						c2.784,0.135,5.656,0.257,8.272-0.706c3.697-1.36,6.33-4.702,8.069-8.237c1.914-3.89,2.982-8.193,3.109-12.526"/>
					<g>
						<path style="fill:#0B1011;" d="M195.833,154.344c0.43,1.974,1.617,3.769,3.245,4.954c1.628,1.186,3.708,1.707,5.703,1.497
							c0.499-0.054,0.992-0.153,1.471-0.296c0.479-0.133,0.926-0.333,1.242-0.63c0.318-0.303,0.395-0.652,0.232-1.073
							c-0.163-0.408-0.453-0.927-0.614-1.444c-0.687-2.099-0.431-4.358,0.273-6.368c0.355-1.012,0.828-1.981,1.415-2.883
							c0.3-0.448,0.604-0.885,0.987-1.296c0.373-0.41,0.87-0.782,1.406-0.993c1.08-0.413,2.089-0.496,3.05-0.824
							c0.961-0.298,1.878-0.71,2.63-1.324c1.517-1.219,2.445-3.164,2.429-5.105c0-1.949-0.846-3.907-2.311-5.167
							c-0.21-0.18-0.234-0.496-0.054-0.705c0.18-0.21,0.495-0.234,0.705-0.054c0.001,0.001,0.004,0.003,0.005,0.004
							c1.69,1.487,2.613,3.713,2.595,5.925c-0.01,2.233-1.076,4.41-2.821,5.79c-0.875,0.699-1.903,1.141-2.929,1.448
							c-1.02,0.33-2.117,0.436-2.989,0.771c-0.862,0.315-1.476,1.131-2.046,1.966c-0.558,0.839-1.014,1.751-1.358,2.702
							c-0.686,1.89-0.929,4.001-0.326,5.896c0.145,0.482,0.374,0.876,0.595,1.435c0.099,0.275,0.159,0.619,0.08,0.954
							c-0.077,0.334-0.271,0.619-0.495,0.828c-0.453,0.415-0.998,0.63-1.518,0.772c-0.52,0.15-1.054,0.252-1.591,0.305
							c-2.15,0.205-4.37-0.375-6.107-1.666c-1.731-1.287-2.969-3.203-3.408-5.312c-0.029-0.139,0.06-0.276,0.2-0.305
							C195.667,154.117,195.803,154.206,195.833,154.344z"/>
					</g>
					<g>
						<path style="fill:#0B1011;" d="M356.294,228.36c0.377,1.578,0.583,3.157,0.708,4.753c0.108,1.595,0.168,3.199-0.12,4.837
							c-0.362,1.618-1.02,3.163-2.184,4.413c-1.154,1.276-2.934,1.869-4.579,1.855c-3.346-0.051-6.358-1.527-9.041-3.226
							c-2.715-1.704-5.011-3.953-7.818-5.209c-1.386-0.649-2.886-0.993-4.407-1.042c-1.514-0.032-3.078,0.207-4.613,0.469
							c-3.078,0.551-6.095,1.443-9.09,2.415c-6.001,1.975-12.055,3.831-18.179,5.425c-6.12,1.605-12.312,2.974-18.586,3.895
							c-6.265,0.895-12.653,1.412-19.007,0.659c-3.165-0.376-6.331-1.136-9.242-2.559c-2.895-1.418-5.474-3.713-6.918-6.669
							c-1.481-2.941-1.817-6.299-1.549-9.49c0.292-3.215,1.109-6.328,2.399-9.302l0.029-0.053l0.009-0.013
							c3.9-5.791,8.169-11.311,12.436-16.808c0.169-0.218,0.483-0.258,0.702-0.089c0.218,0.169,0.258,0.483,0.089,0.701
							l-0.001,0.001c-4.272,5.494-8.529,10.99-12.412,16.744l0.037-0.065c-1.225,2.815-2.041,5.891-2.316,8.966
							c-0.26,3.069,0.067,6.243,1.444,8.977c1.342,2.748,3.724,4.885,6.481,6.242c2.77,1.357,5.835,2.105,8.93,2.473
							c6.212,0.743,12.541,0.244,18.757-0.64c6.227-0.909,12.39-2.264,18.488-3.858c6.103-1.583,12.134-3.426,18.133-5.395
							c3.01-0.973,6.067-1.877,9.211-2.437c1.572-0.265,3.15-0.512,4.797-0.479c1.634,0.052,3.273,0.432,4.748,1.125
							c2.996,1.357,5.293,3.633,7.926,5.277c1.311,0.839,2.674,1.596,4.113,2.149c1.435,0.548,2.945,0.953,4.447,0.945
							c1.497,0.001,2.962-0.493,3.958-1.583c1.006-1.063,1.643-2.531,1.964-3.978c0.264-1.479,0.217-3.062,0.11-4.609
							c-0.119-1.551-0.325-3.114-0.682-4.609l-0.002-0.009c-0.055-0.23,0.087-0.461,0.317-0.516
							C356.008,227.988,356.239,228.13,356.294,228.36z"/>
					</g>
					<g>
						<path style="fill:#0B1011;" d="M274.367,246.514c5.664,2.491,11.564,4.432,17.542,6.054c2.995,0.807,5.998,1.53,9.043,2.19
							c3.025,0.735,6.008,1.606,9.015,2.403l4.501,1.221c1.481,0.466,2.949,0.648,4.481,0.7c3.028,0.087,6.096-0.514,8.741-1.96
							c5.289-3.18,10.694-6.34,16.224-9.2c0.245-0.127,0.547-0.031,0.674,0.214c0.127,0.245,0.031,0.547-0.214,0.674l0,0
							l-0.005,0.003c-5.514,2.844-10.849,5.952-16.213,9.166c-2.822,1.538-6.065,2.161-9.235,2.065
							c-1.569-0.047-3.212-0.265-4.699-0.738l-4.493-1.225c-2.998-0.799-5.983-1.673-8.992-2.411
							c-3.026-0.665-6.064-1.405-9.066-2.224c-6.007-1.649-11.941-3.618-17.65-6.149c-0.216-0.096-0.314-0.349-0.218-0.565
							C273.898,246.516,274.151,246.418,274.367,246.514z"/>
					</g>
					<g>
						<path style="fill:#0B1011;" d="M319.221,267.432c-1.306,6.119-0.755,12.598,1.534,18.368c0.102,0.257-0.024,0.547-0.28,0.649
							c-0.257,0.102-0.547-0.024-0.649-0.28c-0.001-0.003-0.003-0.009-0.005-0.012c-2.209-6.016-2.588-12.655-1.102-18.839
							c0.033-0.138,0.172-0.223,0.311-0.19C319.166,267.16,319.25,267.296,319.221,267.432z"/>
					</g>
					<g>
						<path style="fill:#0B1011;" d="M312.101,202.185c0.13,1.386,0.981,2.626,2.035,3.557c1.068,0.942,2.359,1.624,3.632,2.364
							c2.571,1.482,4.887,3.426,6.794,5.712c1.91,2.283,3.427,4.903,4.43,7.718c1.001,2.816,1.483,5.812,1.444,8.803
							c-0.004,0.276-0.23,0.497-0.506,0.494c-0.276-0.004-0.497-0.23-0.494-0.506c0-0.001,0-0.006,0-0.007
							c0.077-2.874-0.346-5.768-1.274-8.495c-0.93-2.726-2.362-5.284-4.185-7.525c-1.822-2.245-4.04-4.162-6.533-5.646
							c-1.247-0.75-2.566-1.464-3.693-2.484c-1.107-1.008-2.035-2.367-2.163-3.942c-0.012-0.142,0.094-0.266,0.236-0.278
							C311.965,201.939,312.088,202.045,312.101,202.185z"/>
					</g>
					<g>
						<path style="fill:#0B1011;" d="M201.117,171.624c1.486,1.308,3.382,2.12,5.343,2.355c1.956,0.222,3.993-0.047,5.747-0.924
							c1.762-0.852,3.18-2.299,4.245-3.965c1.085-1.663,1.88-3.52,2.673-5.387c0.107-0.255,0.4-0.374,0.655-0.267
							c0.255,0.107,0.374,0.4,0.267,0.655c-0.001,0.002-0.004,0.008-0.005,0.011c-0.833,1.857-1.682,3.748-2.859,5.476
							c-1.152,1.728-2.717,3.275-4.652,4.162c-1.917,0.908-4.089,1.147-6.156,0.87c-2.072-0.291-4.063-1.189-5.607-2.606
							c-0.105-0.096-0.112-0.259-0.016-0.364c0.095-0.103,0.255-0.112,0.36-0.019L201.117,171.624z"/>
					</g>
					<g>
						<path style="fill:#0B1011;" d="M177.21,153.827c4.196,12.758,14.643,23.237,27.302,27.476
							c0.262,0.088,0.403,0.371,0.316,0.633c-0.088,0.262-0.371,0.403-0.633,0.316c-0.001,0-0.005-0.002-0.006-0.002
							c-12.917-4.504-23.371-15.297-27.469-28.265c-0.043-0.135,0.032-0.28,0.168-0.323
							C177.022,153.62,177.166,153.694,177.21,153.827z"/>
					</g>
					<g>
						<path style="fill:#0B1011;" d="M242.667,124.391c1.302-3.348,3.979-6.082,7.188-7.654c3.209-1.598,6.859-2.194,10.416-1.918
							c3.552,0.284,7.097,1.453,9.965,3.674c1.427,1.108,2.655,2.493,3.556,4.075c0.905,1.58,1.469,3.348,1.701,5.148
							c0.037,0.274-0.156,0.525-0.429,0.562c-0.274,0.037-0.525-0.156-0.562-0.429c0-0.003-0.001-0.01-0.001-0.013
							c-0.363-3.379-2.116-6.548-4.808-8.652c-2.677-2.126-6.062-3.298-9.485-3.609c-3.427-0.307-6.965,0.23-10.071,1.734
							c-3.107,1.481-5.698,4.065-6.992,7.276c-0.053,0.132-0.203,0.196-0.335,0.143
							C242.679,124.673,242.616,124.522,242.667,124.391z"/>
					</g>
					<g>
						<path style="fill:#0B1011;" d="M296.613,121.304c0.03,1.633,0.264,3.261,0.694,4.834c0.218,0.786,0.48,1.558,0.793,2.312
							c0.311,0.756,0.67,1.527,0.863,2.381c0.19,0.856,0.196,1.711,0.195,2.543c-0.006,0.837-0.047,1.671-0.104,2.501
							c-0.114,1.66-0.293,3.305-0.378,4.944c-0.345,6.55,0.91,13.171,3.623,19.122c0.115,0.251,0.004,0.548-0.247,0.662
							c-0.251,0.115-0.548,0.004-0.662-0.247c0-0.001-0.002-0.005-0.003-0.006c-2.706-6.132-3.899-12.907-3.467-19.575
							c0.108-1.666,0.307-3.311,0.439-4.952c0.106-1.626,0.265-3.313-0.018-4.857c-0.162-0.768-0.493-1.514-0.803-2.289
							c-0.312-0.779-0.573-1.58-0.787-2.391c-0.423-1.625-0.643-3.301-0.653-4.978c-0.001-0.142,0.114-0.258,0.256-0.259
							C296.495,121.05,296.61,121.164,296.613,121.304z"/>
					</g>
					<g>
						<path style="fill:#0B1011;" d="M313.573,171.217c0.802-1.091,1.818-2.019,2.945-2.756c1.122-0.749,2.343-1.324,3.58-1.821
							c1.242-0.493,2.502-0.904,3.77-1.294c1.266-0.382,2.656-0.732,4.107-0.486c0.272,0.046,0.456,0.305,0.409,0.577
							c-0.046,0.272-0.305,0.455-0.577,0.409c-0.005-0.001-0.013-0.002-0.019-0.004c-1.166-0.242-2.432,0.008-3.679,0.348
							c-1.261,0.347-2.521,0.714-3.742,1.157c-1.219,0.447-2.413,0.966-3.506,1.649c-1.099,0.672-2.083,1.519-2.876,2.529
							c-0.086,0.113-0.247,0.135-0.361,0.049C313.514,171.49,313.493,171.33,313.573,171.217z"/>
					</g>
					<g>
						<path style="fill:#0B1011;" d="M302.855,171.267c-4.395-3.063-9.764-4.662-15.066-4.519c-0.276,0.007-0.506-0.21-0.513-0.486
							c-0.007-0.276,0.21-0.506,0.486-0.513c0.004,0,0.011,0,0.015,0c5.523,0.018,10.986,1.842,15.378,5.101
							c0.114,0.085,0.138,0.246,0.053,0.36C303.126,171.321,302.968,171.346,302.855,171.267z"/>
					</g>
					<path style="fill:#0B1011;" d="M301.394,190.162c-6.813-3.504-10.809-12.338-18.959-11.07c-2.47,0.252-4.898,1.687-4.973,4.361
						c0.568,11.63,17.52,13.466,26.621,12.257c1.103-0.165,3.165-0.671,4.296-1.587c0.927-0.751,0.325-2.232-0.868-2.249
						C305.437,191.846,303.319,191.153,301.394,190.162z"/>
					<path style="fill:#0B1011;" d="M320.052,188.581c6.19-4.514,8.774-13.859,17.022-13.865c2.479-0.132,5.1,0.91,5.586,3.541
						c1.235,11.578-15.23,16.01-24.409,16.221c-1.116,0.008-3.23-0.174-4.489-0.905c-1.032-0.599-0.666-2.155,0.51-2.356
						C316.317,190.869,318.303,189.857,320.052,188.581z"/>
					<g>
						<path style="fill:#0B1011;" d="M310.812,126.01c1.302-3.348,3.979-6.082,7.188-7.654c3.209-1.598,6.859-2.194,10.416-1.918
							c3.552,0.284,7.097,1.453,9.965,3.674c1.427,1.108,2.655,2.493,3.556,4.075c0.905,1.58,1.469,3.348,1.701,5.148
							c0.037,0.274-0.155,0.525-0.429,0.562c-0.274,0.037-0.525-0.156-0.562-0.429c0-0.003-0.001-0.01-0.002-0.013
							c-0.363-3.379-2.116-6.548-4.808-8.652c-2.676-2.126-6.062-3.298-9.485-3.61c-3.427-0.307-6.965,0.23-10.071,1.734
							c-3.107,1.48-5.698,4.065-6.991,7.276c-0.053,0.132-0.203,0.196-0.335,0.142C310.823,126.293,310.761,126.142,310.812,126.01z
							"/>
					</g>
					<g>
						<path style="fill:#0B1011;" d="M314.685,255.367c3.348,0.604,6.838,0.279,9.979-0.906c0.258-0.097,0.547,0.033,0.645,0.292
							c0.097,0.258-0.033,0.547-0.291,0.644c-0.007,0.003-0.016,0.006-0.023,0.008c-3.368,1.093-7.005,1.247-10.413,0.467
							c-0.139-0.032-0.225-0.17-0.194-0.308C314.419,255.428,314.551,255.343,314.685,255.367z"/>
					</g>
					<path style="fill:none;stroke:#0B1011;stroke-width:2;stroke-linecap:round;stroke-linejoin:round;stroke-miterlimit:10;" d="
						M194.765,312.234c0,0,24.237-43.343,25.773-71.002"/>
					<path style="fill:none;stroke:#0B1011;stroke-width:2;stroke-linecap:round;stroke-linejoin:round;stroke-miterlimit:10;" d="
						M318.667,294.908c0.439,1.537-3.374,18.489,4.968,30.782"/>
					<g>
						<path style="fill:#0B1011;" d="M353.644,151.147c0.189-0.032,0.406,0.092,0.484,0.219c0.092,0.125,0.13,0.245,0.159,0.363
							c0.055,0.25,0.029,0.44,0.038,0.632c0.003,0.389-0.009,0.779-0.032,1.168c-0.047,0.778-0.147,1.554-0.302,2.32
							c-0.309,1.532-0.848,3.028-1.633,4.397c-1.562,2.731-4.168,4.944-7.301,5.766c-0.267,0.07-0.54-0.09-0.611-0.357
							c-0.07-0.267,0.09-0.54,0.357-0.611c0.004-0.001,0.011-0.003,0.015-0.004c2.849-0.663,5.351-2.645,6.887-5.18
							c0.774-1.272,1.328-2.683,1.663-4.147c0.169-0.732,0.285-1.477,0.35-2.228c0.033-0.375,0.054-0.752,0.061-1.129
							c-0.001-0.19,0.018-0.388-0.011-0.514c-0.031-0.162-0.101-0.204-0.068-0.183c-0.141,0.016-0.269-0.086-0.284-0.227
							S353.502,151.163,353.644,151.147z"/>
					</g>
					<g>
						<path style="fill:#0B1011;" d="M363.49,119.517c-3.97,3.877-6.567,9.097-7.276,14.545c-0.036,0.274-0.287,0.467-0.56,0.431
							c-0.274-0.036-0.467-0.287-0.431-0.56c0.001-0.004,0.002-0.011,0.002-0.015c0.903-5.652,3.745-10.932,7.911-14.774
							c0.104-0.096,0.267-0.09,0.364,0.015C363.594,119.261,363.589,119.42,363.49,119.517z"/>
					</g>
					<g>
						<path style="fill:#0B1011;" d="M205.072,93.546c10.03-0.795,20.186-0.115,30.043,2.018c0.27,0.058,0.441,0.325,0.383,0.594
							c-0.058,0.27-0.324,0.441-0.594,0.383c-0.002,0-0.006-0.001-0.008-0.002c-9.725-2.27-19.796-3.111-29.787-2.48
							c-0.142,0.009-0.264-0.099-0.273-0.241C204.826,93.678,204.932,93.557,205.072,93.546z"/>
					</g>
					<path style="fill:none;stroke:#0B1011;stroke-width:2;stroke-linecap:round;stroke-linejoin:round;stroke-miterlimit:10;" d="
						M204.075,185.257c0,0-30.685-2.013-44.734-49.427c0,0-10.098-15.146-18-19.317c0,0,10.317,0.659,15.805-1.317
						c5.488-1.976,18-7.683,27.878-8.341c0,0-26.122-50.049,1.098-64.976c27.219-14.927,79.244-12.293,117.658,20.415
						c0,0,31.829,22.61,36.439,46.317"/>
					<path style="fill:none;stroke:#0B1011;stroke-width:2;stroke-linecap:round;stroke-linejoin:round;stroke-miterlimit:10;" d="
						M282.635,147.159c0,1.2-0.16,2.36-0.47,3.46c-1.51,5.4-6.46,9.35-12.34,9.35c-5.63,0-10.4-3.63-12.12-8.68
						c-0.44-1.3-0.68-2.68-0.68-4.13c0-1.55,0.28-3.04,0.79-4.42c1.79-4.89,6.49-8.38,12.01-8.38c5.36,0,9.95,3.29,11.86,7.96
						C282.295,143.809,282.635,145.449,282.635,147.159z"/>
					<path style="fill:#0B1011;" d="M282.165,150.619c0.31-1.1,0.47-2.26,0.47-3.46c0-1.71-0.34-3.35-0.95-4.84l6.66,5.21
						L282.165,150.619z"/>
					<path style="fill:#0B1011;" d="M257.025,147.159c0,1.45,0.24,2.83,0.68,4.13c-2.91-0.78-8.44-2.22-8.44-2.22l8.55-6.33
						C257.305,144.119,257.025,145.609,257.025,147.159z"/>
					<circle style="fill:#0B1011;" cx="271.438" cy="146.285" r="7.683"/>
					<path style="fill:#FFFFFF;" d="M280.657,145.939c0,1.849-2.24,3.348-5.003,3.348c-2.763,0-5.003-1.499-5.003-3.348
						c0-1.849,2.24-3.349,5.003-3.349C278.418,142.59,280.657,144.089,280.657,145.939z"/>
					<path style="fill:#FFFFFF;" d="M268.301,145.556c0,0.702-0.569,1.271-1.271,1.271c-0.702,0-1.271-0.569-1.271-1.271
						s0.569-1.271,1.271-1.271C267.732,144.285,268.301,144.854,268.301,145.556z"/>
					<g>
						<path style="fill:#0B1011;" d="M260.755,161.111c1.445-0.401,2.895-0.625,4.363-0.792c1.466-0.161,2.94-0.235,4.415-0.247
							c1.474,0.012,2.951,0.055,4.419,0.203c1.471,0.126,2.931,0.345,4.387,0.592c0.272,0.046,0.456,0.304,0.409,0.577
							c-0.046,0.272-0.304,0.456-0.577,0.409c-0.004-0.001-0.008-0.001-0.011-0.002l-0.014-0.003c-1.42-0.281-2.847-0.537-4.287-0.7
							c-1.438-0.186-2.886-0.267-4.334-0.32c-1.449-0.028-2.901,0.005-4.346,0.123c-1.44,0.122-2.895,0.31-4.279,0.653l-0.015,0.004
							c-0.138,0.034-0.277-0.05-0.312-0.188C260.541,161.286,260.622,161.148,260.755,161.111z"/>
					</g>
					<path style="fill:none;stroke:#0B1011;stroke-width:2;stroke-linecap:round;stroke-linejoin:round;stroke-miterlimit:10;" d="
						M333.452,147.159c0,1.2-0.16,2.36-0.47,3.46c-1.51,5.4-6.46,9.35-12.34,9.35c-5.63,0-10.4-3.63-12.12-8.68
						c-0.44-1.3-0.68-2.68-0.68-4.13c0-1.55,0.28-3.04,0.79-4.42c1.79-4.89,6.49-8.38,12.01-8.38c5.36,0,9.95,3.29,11.86,7.96
						C333.112,143.809,333.452,145.449,333.452,147.159z"/>
					<path style="fill:#0B1011;" d="M332.982,150.619c0.31-1.1,0.47-2.26,0.47-3.46c0-1.71-0.34-3.35-0.95-4.84l6.66,5.21
						L332.982,150.619z"/>
					<path style="fill:#0B1011;" d="M307.842,147.159c0,1.45,0.24,2.83,0.68,4.13c-2.91-0.78-8.44-2.22-8.44-2.22l8.55-6.33
						C308.122,144.119,307.842,145.609,307.842,147.159z"/>
					<circle style="fill:#0B1011;" cx="322.255" cy="146.285" r="7.683"/>
					<path style="fill:#FFFFFF;" d="M331.475,145.939c0,1.849-2.24,3.348-5.003,3.348s-5.003-1.499-5.003-3.348
						c0-1.849,2.24-3.349,5.003-3.349S331.475,144.089,331.475,145.939z"/>
					<circle style="fill:#FFFFFF;" cx="317.847" cy="145.556" r="1.271"/>
					<g>
						<path style="fill:#0B1011;" d="M311.572,161.111c1.445-0.401,2.896-0.625,4.363-0.792c1.466-0.161,2.94-0.235,4.415-0.247
							c1.474,0.012,2.95,0.055,4.419,0.203c1.471,0.126,2.931,0.345,4.387,0.592c0.272,0.046,0.456,0.304,0.409,0.577
							c-0.046,0.272-0.304,0.456-0.577,0.409c-0.004-0.001-0.007-0.001-0.011-0.002l-0.014-0.003c-1.42-0.281-2.847-0.537-4.287-0.7
							c-1.438-0.186-2.886-0.267-4.335-0.32c-1.449-0.028-2.901,0.005-4.346,0.123c-1.439,0.122-2.895,0.31-4.279,0.653
							l-0.015,0.004c-0.138,0.034-0.277-0.05-0.312-0.188C311.358,161.286,311.439,161.148,311.572,161.111z"/>
					</g>
					<g>
						<path style="fill:#0B1011;" d="M338.137,228.839c0.59-4.93-0.275-10.054-2.483-14.554c-0.063-0.128-0.01-0.282,0.118-0.345
							c0.125-0.061,0.276-0.012,0.341,0.11c2.397,4.517,3.467,9.749,3.019,14.891c-0.024,0.275-0.266,0.479-0.541,0.455
							c-0.275-0.024-0.479-0.266-0.455-0.541C338.136,228.851,338.136,228.844,338.137,228.839z"/>
					</g>
					<g>
						<path style="fill:#0B1011;" d="M347.628,231.179c1.145-5.074,0.637-10.542-1.458-15.361c-0.057-0.13,0.003-0.282,0.133-0.339
							c0.128-0.056,0.276,0.001,0.336,0.126c2.288,4.854,2.998,10.458,1.968,15.778c-0.052,0.271-0.315,0.449-0.586,0.396
							c-0.271-0.052-0.449-0.315-0.396-0.586C347.626,231.19,347.627,231.183,347.628,231.179z"/>
					</g>
					<g>
						<path style="fill:#0B1011;" d="M306.864,230.118c-0.962-4.6-1.202-9.336-0.718-13.985c0.015-0.141,0.141-0.244,0.283-0.229
							c0.138,0.014,0.24,0.136,0.23,0.274c-0.318,4.61,0.084,9.256,1.18,13.719c0.066,0.268-0.098,0.539-0.366,0.605
							c-0.268,0.066-0.539-0.098-0.605-0.366C306.867,230.13,306.865,230.123,306.864,230.118z"/>
					</g>
					<g>
						<path style="fill:#0B1011;" d="M285.606,232.537c-0.379-2.441-0.739-4.917-0.734-7.427c0.002-2.495,0.411-5.066,1.6-7.307
							c0.066-0.126,0.222-0.174,0.348-0.108c0.123,0.065,0.172,0.217,0.112,0.341c-1.065,2.181-1.378,4.645-1.302,7.065
							c0.074,2.432,0.504,4.848,0.962,7.266c0.052,0.271-0.126,0.533-0.398,0.585c-0.271,0.052-0.533-0.127-0.585-0.398
							C285.608,232.548,285.606,232.541,285.606,232.537z"/>
					</g>
					<g>
						<path style="fill:#0B1011;" d="M263.5,232.853c-0.943-2.304-1.357-4.8-1.253-7.262c0.049-1.232,0.243-2.455,0.558-3.643
							c0.159-0.593,0.342-1.181,0.572-1.751c0.106-0.275,0.215-0.597,0.434-0.876c0.106-0.139,0.233-0.275,0.415-0.377
							c0.174-0.107,0.44-0.141,0.649-0.063l0.012,0.005c0.133,0.05,0.201,0.198,0.151,0.331c-0.05,0.133-0.197,0.201-0.33,0.151
							c-0.133-0.049-0.308,0.059-0.459,0.276c-0.151,0.203-0.233,0.464-0.333,0.753c-0.203,0.556-0.36,1.128-0.494,1.704
							c-0.265,1.152-0.411,2.331-0.418,3.511c-0.021,2.357,0.456,4.713,1.414,6.845c0.114,0.252,0.003,0.548-0.249,0.662
							c-0.251,0.114-0.548,0.003-0.662-0.249C263.505,232.866,263.502,232.858,263.5,232.853z"/>
					</g>
				</g>
				<path style="fill:none;stroke:#0B1011;stroke-linecap:round;stroke-linejoin:round;stroke-miterlimit:10;" d="M249.472,244.254
					c-1.731,10.764-1.388,26.158,10.359,37.734"/>
				<g>
					<path style="fill:#0B1011;" d="M264.735,308.398c2.783,8.72,6.989,16.97,12.393,24.325c0.164,0.223,0.116,0.536-0.107,0.699
						c-0.223,0.164-0.535,0.116-0.699-0.107c-0.001-0.002-0.004-0.005-0.005-0.007c-5.336-7.538-9.428-15.936-12.073-24.757
						c-0.041-0.136,0.036-0.28,0.173-0.321C264.551,308.189,264.693,308.264,264.735,308.398z"/>
				</g>
				<path style="fill:none;stroke:#0B1011;stroke-width:2;stroke-linecap:round;stroke-linejoin:round;stroke-miterlimit:10;" d="
					M321.122,319.782c0,0,25.024,7.024,30.732,8.342c8.201,1.893,16.4,3.996,24.176,7.267c7.255,3.052,14.932,7.116,20.492,12.737
					c4.699,4.751,8.317,10.568,10.507,16.881c2.42,6.973,2.714,14.221,3.434,21.505c0,0,1.537,15.146-0.878,24.585l5.049,52.024
					c0,0-0.659,10.537-4.829,18.439c0,0,2.854,10.098,1.976,20.854H85.366l14.049-62.122c0,0,0.439-15.805,0.878-32.927
					c0.262-10.223,2.471-20.417,5.195-30.241c2.422-8.737,5.998-17.55,12.366-24.197c0.374-0.39,0.755-0.774,1.142-1.151
					c5.153-5.016,11.314-8.865,17.563-12.425c8.564-4.879,17.385-9.155,26.734-12.327c12.293-4.171,15.366-4.61,20.634-7.024
					c5.268-2.415,10.558-7.375,10.558-7.375"/>
				<g>
					<path style="fill:#0B1011;" d="M370.24,344.461c3.371,3.076,6.348,6.57,8.881,10.36c0.601,0.968,1.288,1.886,1.818,2.897
						l1.65,2.998l1.443,3.103c0.482,1.034,0.838,2.121,1.263,3.18c1.567,4.285,2.664,8.741,3.263,13.272
						c0.558,4.536,0.579,9.137,0.08,13.685c-0.212,2.282-0.685,4.526-1.163,6.765l-0.922,3.312
						c-0.314,1.102-0.708,2.177-1.101,3.248c-1.623,4.274-3.498,8.383-5.511,12.469c-2.052,4.06-4.354,8.042-7.234,11.646
						c-2.838,3.624-6.354,6.798-10.427,9.096c-0.481,0.271-1.091,0.101-1.362-0.38c-0.271-0.481-0.101-1.091,0.38-1.362l0.007-0.004
						l0.014-0.008c3.817-2.112,7.168-5.062,9.924-8.519c2.795-3.433,5.078-7.291,7.131-11.265c2.014-3.994,3.928-8.096,5.547-12.252
						c0.394-1.044,0.788-2.088,1.101-3.155l0.923-3.205c0.481-2.17,0.962-4.346,1.188-6.564c0.525-4.419,0.547-8.906,0.041-13.341
						c-0.546-4.43-1.58-8.798-3.076-13.005c-0.407-1.039-0.745-2.108-1.208-3.124l-1.386-3.051l-1.59-2.95
						c-0.509-0.996-1.175-1.899-1.755-2.854c-2.449-3.736-5.335-7.186-8.612-10.231l-0.006-0.005
						c-0.208-0.193-0.22-0.519-0.027-0.728C369.708,344.284,370.032,344.271,370.24,344.461z"/>
				</g>
				<g>
					<path style="fill:#0B1011;" d="M329.812,429.099c5.577,5.677,12.462,10.035,19.941,12.642c0.261,0.091,0.398,0.376,0.308,0.637
						c-0.091,0.261-0.376,0.398-0.637,0.308c-0.003-0.001-0.007-0.003-0.01-0.004c-7.57-2.812-14.457-7.38-19.973-13.226
						c-0.098-0.103-0.093-0.266,0.011-0.364C329.554,428.995,329.714,428.999,329.812,429.099z"/>
				</g>
				<g>
					<path style="fill:#0B1011;" d="M186.738,423.345c1.587,1.672,2.749,3.644,4.066,5.452c1.321,1.809,2.818,3.486,4.447,5.021
						c3.257,3.079,7.053,5.56,11.094,7.487c4.044,1.935,8.361,3.263,12.751,4.174c4.396,0.902,8.879,1.357,13.368,1.533
						c0.276,0.01,0.491,0.242,0.481,0.518c-0.01,0.276-0.242,0.492-0.518,0.482l-0.006,0c-4.531-0.218-9.061-0.718-13.506-1.672
						c-4.439-0.963-8.807-2.349-12.898-4.352c-4.087-1.994-7.922-4.548-11.204-7.708c-1.642-1.576-3.15-3.295-4.476-5.146
						c-1.32-1.851-2.454-3.809-3.973-5.436c-0.097-0.104-0.092-0.267,0.012-0.364C186.479,423.238,186.641,423.243,186.738,423.345z
						"/>
				</g>
				<g>
					<path style="fill:#0B1011;" d="M257.031,447.339c4.79-0.344,9.497-1.647,13.784-3.777c2.14-1.072,4.176-2.348,6.067-3.808
						c0.951-0.723,1.85-1.511,2.721-2.325c0.87-0.809,1.701-1.717,2.709-2.486c0.219-0.168,0.533-0.127,0.701,0.092
						c0.168,0.219,0.127,0.533-0.092,0.701c-0.002,0.001-0.007,0.005-0.009,0.006c-0.931,0.683-1.758,1.551-2.669,2.374
						c-0.909,0.821-1.844,1.614-2.831,2.338c-1.962,1.463-4.064,2.731-6.266,3.789c-4.41,2.099-9.22,3.343-14.085,3.61
						c-0.142,0.008-0.263-0.101-0.271-0.243C256.783,447.47,256.891,447.349,257.031,447.339z"/>
				</g>
				<g>
					<path style="fill:#0B1011;" d="M227.218,359.09c-3.97,3.252-7.927,6.513-11.499,10.15c-3.576,3.626-6.693,7.686-8.925,12.241
						c-2.258,4.552-3.893,9.436-6.17,14.111c-2.198,4.703-5.458,9.038-9.544,12.32c-4.07,3.31-8.716,5.777-13.472,7.816
						c-4.766,2.033-9.682,3.644-14.524,5.303c-4.836,1.677-9.634,3.442-14.139,5.752c-4.49,2.31-8.681,5.207-12.022,8.917
						l-0.773-1.661l1.342-0.052c0.552-0.021,1.017,0.409,1.038,0.961c0.021,0.552-0.409,1.017-0.961,1.038l-0.008,0l-1.343,0.041
						l-0.01,0c-0.548,0.017-1.005-0.413-1.022-0.961c-0.008-0.268,0.092-0.516,0.259-0.7c3.58-3.914,8.007-6.906,12.651-9.25
						c4.662-2.344,9.548-4.092,14.422-5.741c4.885-1.631,9.752-3.185,14.454-5.148c4.686-1.965,9.217-4.336,13.154-7.486
						c3.955-3.139,7.057-7.183,9.249-11.763c2.261-4.545,3.939-9.427,6.282-14.066c2.33-4.666,5.583-8.83,9.242-12.479
						c3.659-3.667,7.671-6.919,11.668-10.141c0.221-0.178,0.546-0.144,0.724,0.078C227.471,358.589,227.437,358.911,227.218,359.09z
						"/>
				</g>
				<g>
					<path style="fill:#0B1011;" d="M184.032,411.925c0.966,7.513,1.833,15.041,2.45,22.6c0.622,7.549,0.978,15.169,0.623,22.769
						c-0.675,15.199-3.122,30.213-5.613,45.14c-0.091,0.545-0.606,0.913-1.151,0.822c-0.545-0.091-0.913-0.606-0.822-1.151
						c0-0.002,0.002-0.01,0.002-0.012c2.655-14.889,5.253-29.805,6.088-44.87c0.438-7.526,0.157-15.062-0.385-22.601
						c-0.537-7.536-1.326-15.059-2.215-22.569c-0.034-0.282,0.168-0.539,0.45-0.573C183.74,411.446,183.995,411.645,184.032,411.925
						z"/>
				</g>
				<path style="fill:#0B1011;" d="M242.649,419.763c0,1.321-1.369,2.393-3.057,2.393c-1.689,0-3.057-1.071-3.057-2.393
					c0-1.321,1.369-2.393,3.057-2.393C241.28,417.37,242.649,418.441,242.649,419.763z"/>
				
					<ellipse style="fill:none;stroke:#0B1011;stroke-linecap:round;stroke-linejoin:round;stroke-miterlimit:10;" cx="239.592" cy="419.763" rx="5.856" ry="4.583"/>
				<path style="fill:#0B1011;" d="M374.521,415.563c0,1.321-1.369,2.393-3.057,2.393s-3.057-1.071-3.057-2.393
					c0-1.321,1.369-2.393,3.057-2.393S374.521,414.241,374.521,415.563z"/>
				
					<ellipse style="fill:none;stroke:#0B1011;stroke-linecap:round;stroke-linejoin:round;stroke-miterlimit:10;" cx="371.463" cy="415.563" rx="5.856" ry="4.583"/>
				<path style="fill:none;stroke:#0B1011;stroke-width:2;stroke-linecap:round;stroke-linejoin:round;stroke-miterlimit:10;" d="
					M376.167,425.793c0,0-1.265,37.111-4.338,45.013c-3.073,7.902-4.678,31.331-4.678,31.331"/>
				<path style="fill:none;stroke:#0B1011;stroke-width:2;stroke-linecap:round;stroke-linejoin:round;stroke-miterlimit:10;" d="
					M184.016,482.583c1.878,1.884,3.295,2.849,5.552,4.255c0.574,0.358,1.177,0.715,1.566,1.269
					c0.395,0.562,0.524,1.264,0.633,1.942c0.665,4.158,0.455,7.505,0.272,11.712"/>
				<path style="fill:#0B1011;" d="M185.463,471.612c0,0,31.171-23.122,42.732-24.293c0,0-28.537,0.293-44.049-26.927
					c0,0,3.805,20.341,2.781,32.927C185.902,465.904,185.463,471.612,185.463,471.612z"/>
				<path style="fill:#0B1011;" d="M376.293,427.124l-1.463,26.488c0,0-7.902-13.61-12.439-14.488c0,0,10.244-6.585,13.171-13.317
					L376.293,427.124z"/>
				<g>
					<path style="fill:#0B1011;" d="M225.898,45.876c7.488,2.087,14.86,4.599,22.048,7.564c7.188,2.963,14.211,6.339,20.991,10.151
						c3.392,1.902,6.737,3.89,10.003,6.003c3.25,2.08,6.622,4.27,9.067,7.431c2.474,3.099,4.106,6.783,5.135,10.562
						c1.04,3.788,1.562,7.684,1.867,11.57c0.022,0.275-0.184,0.516-0.459,0.538c-0.275,0.022-0.516-0.184-0.538-0.459l0-0.004
						c-0.282-3.849-0.778-7.687-1.776-11.396c-0.986-3.701-2.554-7.272-4.917-10.264c-2.32-3.04-5.578-5.192-8.822-7.29
						c-3.241-2.121-6.563-4.118-9.931-6.031c-6.733-3.833-13.713-7.233-20.862-10.223c-7.15-2.993-14.486-5.536-21.943-7.656
						c-0.137-0.038-0.217-0.18-0.179-0.317C225.62,45.918,225.762,45.839,225.898,45.876z"/>
				</g>
				<path style="fill:none;stroke:#0B1011;stroke-linecap:round;stroke-linejoin:round;stroke-miterlimit:10;" d="M188.158,73.427
					c2.067,0.061,4.217,0.54,5.775,1.898c1.793,1.562,2.508,3.993,3.139,6.286c1.522,5.533,3.045,11.065,4.568,16.597
					c0.146,0.53,0.293,1.075,0.23,1.621c-0.074,0.645-0.437,1.224-0.864,1.713c-1.826,2.091-4.904,2.811-7.62,2.235
					c-2.716-0.576-5.083-2.286-6.939-4.35c-4.846-5.391-6.43-12.953-6.91-20.186C179.153,73.479,183.563,73.292,188.158,73.427z"/>
				<path style="fill:none;stroke:#0B1011;stroke-linecap:round;stroke-linejoin:round;stroke-miterlimit:10;" d="M266.358,40.009
					c-1.067,3.494-0.444,7.347,1.096,10.661c1.539,3.313,3.934,6.154,6.485,8.77c2.419,2.48,5.08,4.846,8.301,6.123
					c2.942,1.167,6.164,1.354,9.318,1.619c7.175,0.602,14.312,1.672,21.348,3.201c0.64,0.139,1.457,0.556,1.274,1.185"/>
				<path style="fill:none;stroke:#0B1011;stroke-linecap:round;stroke-linejoin:round;stroke-miterlimit:10;" d="M216.15,263.322
					c3.693,7.284,7.788,14.364,12.26,21.198c1.516,2.316,3.097,4.653,3.863,7.313c0.947,3.293,0.554,6.878-0.66,10.083
					c-1.214,3.205-3.21,6.062-5.456,8.651c-0.938,1.081-1.934,2.131-3.116,2.939c-3.501,2.393-8.062,2.346-12.3,2.205
					c-6.429-0.214-12.858-0.441-19.287-0.681"/>
				<path style="fill:none;stroke:#0B1011;stroke-linecap:round;stroke-linejoin:round;stroke-miterlimit:10;" d="M256.512,313.441
					c0.945,1.231,1.881,2.493,2.472,3.927c0.855,2.073,0.931,4.457,0.211,6.58c-0.598,1.761-1.949,3.468-3.798,3.669
					c-1.375,0.15-2.683-0.553-3.887-1.233c-1.468-0.829-2.937-1.659-4.338-2.596c-1.873-1.253-3.745-2.906-4.09-5.134
					c-0.227-1.472,0.258-2.951,0.736-4.361c0.6-1.769,2.399-10.591,4.859-10.044c1.321,0.294,3.175,3.415,4.036,4.446
					C253.999,310.237,255.372,311.784,256.512,313.441z"/>
				<path style="fill:none;stroke:#0B1011;stroke-linecap:round;stroke-linejoin:round;stroke-miterlimit:10;" d="M246.511,474.457
					c0.945,1.231,1.881,2.493,2.472,3.927c0.855,2.073,0.931,4.457,0.211,6.58c-0.597,1.761-1.949,3.468-3.798,3.669
					c-1.375,0.15-2.683-0.553-3.887-1.233c-1.468-0.829-2.937-1.659-4.338-2.596c-1.873-1.253-3.745-2.906-4.09-5.134
					c-0.227-1.472,0.258-2.951,0.736-4.361c0.6-1.769,2.399-10.591,4.859-10.044c1.321,0.294,3.175,3.415,4.036,4.446
					C243.998,471.254,245.371,472.8,246.511,474.457z"/>
				<path style="fill:none;stroke:#0B1011;stroke-linecap:round;stroke-linejoin:round;stroke-miterlimit:10;" d="M346.601,326.692
					c-5.316,0.761-10.494,2.474-15.214,5.033c1.395,1.953,3.595,3.139,5.718,4.259c2.011,1.061,4.022,2.122,6.033,3.182
					c1.801,0.95,3.612,1.905,5.546,2.542c3.752,1.237,7.831,1.227,11.719,0.522c3.888-0.706,7.619-2.082,11.29-3.543
					c0.206-0.082,0.427-0.177,0.537-0.37c0.185-0.326-0.043-0.724-0.263-1.027c-1.041-1.437-2.082-2.874-3.123-4.311"/>
				<path style="fill:none;stroke:#0B1011;stroke-linecap:round;stroke-linejoin:round;stroke-miterlimit:10;" d="M324.962,357.835
					c-0.843-0.434-1.721-0.898-2.257-1.679c-0.404-0.588-0.576-1.303-0.708-2.004c-0.851-4.507-0.413-9.146,0.029-13.711
					c5.833,0.214,11.314,3.384,15.124,7.806c3.81,4.422,6.079,9.999,7.374,15.69c0.221,0.97,0.416,1.952,0.443,2.946
					c0.011,0.398-0.009,0.813-0.197,1.165c-0.323,0.607-1.083,0.874-1.768,0.813c-0.685-0.061-1.314-0.387-1.918-0.715
					C335.411,365.068,330.655,360.767,324.962,357.835z"/>
				<path style="fill:none;stroke:#0B1011;stroke-linecap:round;stroke-linejoin:round;stroke-miterlimit:10;" d="M411.221,426.589
					c-2.223,1.255-4.445,2.51-6.668,3.765c-3.194,1.803-6.669,3.954-7.647,7.489c-0.474,1.713-0.279,3.532-0.054,5.295
					c0.859,6.719,2.116,13.387,3.763,19.957c0.455,1.814,0.959,3.663,2.038,5.19c1.24,1.755,3.125,2.925,4.958,4.048
					c1.48,0.906,2.959,1.812,4.439,2.718"/>
				<path style="fill:none;stroke:#0B1011;stroke-linecap:round;stroke-linejoin:round;stroke-miterlimit:10;" d="M409.715,407.685
					c-0.741,1.418-2.054,2.526-3.577,3.016c-0.479,0.154-1.028,0.242-1.465-0.007c-0.396-0.226-0.602-0.674-0.775-1.096
					c-2.996-7.315-3.332-15.656-1.114-23.243c1.591-5.445,4.436-10.487,5.71-16.014"/>
				<path style="fill:none;stroke:#0B1011;stroke-linecap:round;stroke-linejoin:round;stroke-miterlimit:10;" d="M392.758,418.766
					c0.138-0.101,0.29-0.206,0.46-0.201c0.126,0.004,0.241,0.069,0.346,0.139c1.032,0.69,1.497,2.119,1.069,3.284
					c-0.143,0.389-0.37,0.741-0.596,1.089c-2.253,3.478-4.507,6.957-6.76,10.435c-0.35,0.54-0.813,1.143-1.456,1.129
					c-0.569-0.013-0.997-0.516-1.285-1.007c-1.302-2.216-1.332-5.123-0.077-7.366C386.414,422.771,389.844,421.264,392.758,418.766z
					"/>
				<path style="fill:none;stroke:#0B1011;stroke-linecap:round;stroke-linejoin:round;stroke-miterlimit:10;" d="M239.59,390.448
					c2.161-2.063,5.005-3.292,7.91-3.993c2.192-0.53,4.44-0.781,6.682-1.031c1.314-0.147,2.629-0.293,3.944-0.44
					c0.459-0.051,0.938-0.1,1.369,0.065c0.41,0.157,0.725,0.487,1.022,0.81c3.656,3.978,6.833,8.395,9.442,13.126
					c0.532,0.964,1.051,1.976,1.14,3.074c0.086,1.063-0.238,2.114-0.613,3.111c-0.824,2.192-1.941,4.323-3.624,5.951
					c-1.683,1.628-3.997,2.707-6.332,2.525c-1.334-0.104-2.6-0.602-3.844-1.095c-5.888-2.333-11.775-4.665-17.663-6.998
					c-2.896-1.147-5.502-3.04-4.433-6.404C235.582,396.026,237.197,392.732,239.59,390.448z"/>
				<path style="fill:none;stroke:#0B1011;stroke-linecap:round;stroke-linejoin:round;stroke-miterlimit:10;" d="M315.412,481.323
					c-0.749-2.893-0.437-5.975,0.365-8.853c0.605-2.172,1.481-4.258,2.354-6.337c0.512-1.219,1.025-2.439,1.537-3.658
					c0.179-0.425,0.37-0.868,0.724-1.164c0.336-0.282,0.779-0.396,1.205-0.498c5.255-1.255,10.661-1.878,16.063-1.853
					c1.101,0.005,2.237,0.045,3.24,0.502c0.97,0.442,1.73,1.237,2.419,2.051c1.513,1.787,2.83,3.801,3.432,6.064
					c0.602,2.263,0.417,4.81-0.879,6.76c-0.741,1.114-1.793,1.978-2.829,2.824c-4.905,4.006-9.81,8.012-14.715,12.018
					c-2.412,1.97-5.335,3.325-7.752,0.752C318.331,487.54,316.241,484.526,315.412,481.323z"/>
				<path style="fill:none;stroke:#0B1011;stroke-linecap:round;stroke-linejoin:round;stroke-miterlimit:10;" d="M173.401,377.501
					c2.283-2.122,5.368-3.218,8.459-3.618c3.091-0.4,6.225-0.158,9.333,0.085c0.352,0.027,0.732,0.066,0.994,0.303
					c0.421,0.38,0.333,1.05,0.212,1.604c-0.375,1.706-0.749,3.411-1.124,5.116c-0.778,3.539-1.563,7.103-2.985,10.436
					c-1.423,3.333-3.538,6.458-6.516,8.522c-0.943,0.653-1.983,1.201-3.11,1.412c-2.083,0.39-4.186-0.397-6.159-1.169
					c-1.841-0.721-6.299-1.544-7.317-3.395c-0.913-1.658,1.045-4.195,1.655-5.689C168.731,386.488,169.586,381.049,173.401,377.501z
					"/>
				<path style="fill:none;stroke:#0B1011;stroke-linecap:round;stroke-linejoin:round;stroke-miterlimit:10;" d="M136.087,340.015
					c4.12-1.702,8.357-3.12,12.672-4.242c0.972-0.253,2.029-0.486,2.957-0.102c1.143,0.472,1.732,1.714,2.218,2.851
					c2.078,4.861,4.157,9.727,5.87,14.728c1.046,3.055,1.959,6.18,2.278,9.394c0.862,8.686-2.984,17.698-9.854,23.084
					c-4.079,3.198-8.998,5.101-13.839,6.953c-8.355,3.197-16.727,6.38-24.82,10.191c-3.436,1.618-6.878,3.389-9.59,6.048
					c-1.083,1.061-2.755,2.321-3.881,1.307c0.408-0.482,1.03-0.776,1.662-0.786"/>
				<path style="fill:none;stroke:#0B1011;stroke-linecap:round;stroke-linejoin:round;stroke-miterlimit:10;" d="M167.28,345.432
					c-0.526-1.053-0.99-2.188-0.935-3.364c0.083-1.793,1.34-3.305,2.667-4.513c1.886-1.717,4.048-3.131,6.377-4.17
					c0.483-0.215,0.998-0.419,1.524-0.366c0.897,0.09,1.544,0.876,2.062,1.614c1.96,2.793,3.599,5.812,4.875,8.977
					c0.374,0.928,0.722,1.938,0.485,2.91c-0.16,0.657-0.573,1.22-0.989,1.753c-1.378,1.763-2.983,3.462-5.065,4.283
					C172.979,354.644,169.312,349.496,167.28,345.432z"/>
				<path style="fill:none;stroke:#0B1011;stroke-linecap:round;stroke-linejoin:round;stroke-miterlimit:10;" d="M153.833,446.576
					c1.195,1.496,2.466,2.964,3.283,4.696c0.688,1.458,1.027,3.055,1.287,4.646c0.802,4.91,0.894,9.935,0.271,14.871
					c-0.164,1.297-0.419,2.676-1.332,3.612c-0.618,0.634-1.465,0.983-2.286,1.315c-2.726,1.103-5.54,2.224-8.48,2.206
					c-2.961-5.913-2.929-12.813-4.257-19.291c-0.666-3.251-1.691-6.468-1.711-9.786c-0.017-2.761,0.665-5.473,1.342-8.15
					c0.495-1.955,0.669-5.244,1.815-6.898c1.355-1.957,2.703,0.148,3.392,1.597C149.067,439.407,151.039,443.076,153.833,446.576z"
					/>
				<path style="fill:none;stroke:#0B1011;stroke-linecap:round;stroke-linejoin:round;stroke-miterlimit:10;" d="M184.917,471.548
					c3.23,0.225,6.867,0.658,8.837,3.227c0.436,0.568,0.76,1.211,1.083,1.85c0.404,0.801,0.808,1.603,1.212,2.404
					c0.719,1.425,1.446,2.877,1.719,4.45c0.273,1.573,0.028,3.314-1.018,4.52c-1.225,1.412-3.226,1.803-5.073,2.086"/>
				<path style="fill:none;stroke:#0B1011;stroke-linecap:round;stroke-linejoin:round;stroke-miterlimit:10;" d="M192.198,495.452
					c1.082-1.101,2.385-2.05,3.888-2.402c1.503-0.353,3.229-0.016,4.276,1.118c0.552,0.599,0.883,1.368,1.126,2.145
					c0.675,2.154,0.657,4.753-0.899,6.388"/>
			</g>
		</g>
	</g>
</g>
</svg>
