<?xml version="1.0" encoding="utf-8"?>
<!-- Generator: Adobe Illustrator 27.5.0, SVG Export Plug-In . SVG Version: 6.00 Build 0)  -->
<svg version="1.1" xmlns="http://www.w3.org/2000/svg" xmlns:xlink="http://www.w3.org/1999/xlink" x="0px" y="0px"
	 viewBox="0 0 500 500" style="enable-background:new 0 0 500 500;" xml:space="preserve">
<g id="BACKGROUND">
	<rect style="fill:#7367CA;" width="500" height="500"/>
</g>
<g id="OBJECTS">
	<g>
		<defs>
			<rect id="SVGID_1_" width="500" height="500"/>
		</defs>
		<clipPath id="SVGID_00000057111310646596381560000007485951579943384976_">
			<use xlink:href="#SVGID_1_"  style="overflow:visible;"/>
		</clipPath>
		<g style="clip-path:url(#SVGID_00000057111310646596381560000007485951579943384976_);">
			<g>
				<path style="opacity:0.4;fill:#BDEEFF;" d="M296.067,349.578c5.589-16.183,21.735-46.602,28.544-57.369
					c6.809-10.767,24.569-41.913,48.787-55.768c24.218-13.854,42.171-19.199,49.629-6.939c7.458,12.259,3.134,26.927-3.49,40.437
					c-6.623,13.51-19.924,38.561-25.288,46.824c-5.365,8.263-25.897,35.398-30.209,39.71c-4.312,4.312-24.057,23.089-26.133,23.089
					c-2.076,0-29.837-16.341-30.487-16.992c-0.65-0.651-5.833-3.856-5.833-3.856L296.067,349.578z"/>
				<path style="opacity:0.4;fill:#BDEEFF;" d="M360.142,391.045c1.801-9.263,22.534-19.021,28.446-20.225
					c5.911-1.204,20.726-4.01,23.126,5.041c2.4,9.051,2.794,16.092-2.293,27.767c-5.087,11.675-27.627,28.11-27.627,28.11
					l-7.302,4.422C374.491,436.161,365.959,396.863,360.142,391.045z"/>
				<path style="opacity:0.4;fill:#BDEEFF;" d="M208.372,348.685c-28.516-75.033-54.648-118.755-87.756-133.481
					c-33.108-14.726-56.234,4.701-40.562,56.423s89.178,112.346,89.178,112.346S208.372,366.196,208.372,348.685z"/>
				<path style="opacity:0.4;fill:#BDEEFF;" d="M153.117,391.189c-20.022-8.559-38.371-12.786-54.436-12.525
					c-16.064,0.261-24.379,6.118-24.379,14.727s2.053,20.669,18.684,26.573c16.631,5.905,39.913,5.878,39.913,5.878L153.117,391.189
					z"/>
				<path style="fill:#FFB727;" d="M217.947,340.121c-3.61,0-7.815,5.483-9.576,8.564c-1.761,3.081-4.598,8.706-4.598,8.706
					l-11.89,11.081c0,0-18.199,14.236-44.462,26.556c-26.263,12.32-26.994,71.619-26.994,71.619v35.788
					c0,0,257.622-0.326,257.035-0.913s0.001-9.522,0.001-12.13s-1.146-40.462-1.146-40.462l-4.305-26.198
					c0,0-7.24-26.958-11.302-29.708c-4.063-2.75-28.441-15.432-29.456-16.006c-1.014-0.574-29.668-18.303-29.668-18.303
					s-3.152-4.454-4.301-6.606c-1.149-2.152-7.463-8.121-8.121-8.121c-0.658,0-2.127-0.821-2.127-0.821s-8.715-3.392-8.461-3.645
					C278.831,339.268,217.947,340.121,217.947,340.121z"/>
				<g>
					<path style="fill:#383838;" d="M120.428,483c24.992,0,146.205,4.448,153.033,4.448c6.829,0,103.852-4.448,103.852-4.448
						l0.15,18.522c0,0-257.035,8.478-257.035,4.696S120.428,488.739,120.428,483z"/>
					<path style="fill:#383838;" d="M122.141,452.225c19.889-3.921,128.923,1.331,128.923,1.331s-13.465-9.09-16.969-10.187
						c-3.504-1.097-7.804-4.456-7.804-4.456l-0.866-6.587c0,0-60.533-2.953-67.399-2.953c-6.866,0-33.248,2.953-33.248,2.953
						L122.141,452.225z"/>
					<path style="fill:#383838;" d="M284.911,452.225c2.423,0,85.175-2.058,91.408-2.058c0-3.428-3.249-22.827-3.249-22.827
						l-81.301,3.746c0,0,0.913,3.708,0,7.267C290.855,441.913,284.911,452.225,284.911,452.225z"/>
					<path style="fill:#383838;" d="M136.646,404.162c10.536-2.749,63.017-5.741,63.017-5.741v-19.806
						c-15.503,1.668-27.033,2.842-27.033,2.842s-26.168,12.922-26.817,13.572C145.163,395.677,136.646,404.162,136.646,404.162z"/>
					<path style="fill:#383838;" d="M307.954,398.087l56.98,2.547c0,0-3.774-6.835-5.992-8.702
						c-2.217-1.867-15.394-8.415-15.394-8.415l-36.128-2.06L307.954,398.087z"/>
				</g>
				<path style="opacity:0.3;fill:#A38E74;" d="M202.846,361.311c-10.962,21.711-7.925,64.522-2.447,68.062
					c5.478,3.54,16.379-4.482,18.853,2.171c2.474,6.652,0.517,16.313,8.539,18.624c8.022,2.311,42.93,25.438,44.943,30.994
					c0,0-0.4-6.77-4.313-11.14c-3.913-4.37-14.739-13.304-14.739-13.304l-14.413-10.891l-12.261-5.022l-2.152-12.391l-1.565-4.37
					l-3.391-0.587l-11.87,2.022l-3.424-0.978c0,0-2.348-4.5-2.348-4.891s-3.13-26.804-3.13-26.804l2.054-24.554L202.846,361.311z"/>
				<path style="opacity:0.3;fill:#A38E74;" d="M275.074,498.923c2.998-18.466,20.411-49.379,21.39-55.249
					c0.978-5.87,0-11.152,0-11.152h14.478c0,0,1.37-35.609-3.522-51.065c0,0,0,27.391,0,32.87c0,5.478-2.348,11.348-2.348,11.348
					l-2.446,0.978l-11.622-0.664c0,0,2.036,6.045,1.546,9.273c-0.489,3.228-2.837,8.413-2.837,8.413l-7.337,13.696l-5.283,13.989
					l-2.739,11.25l-0.3,7.337L275.074,498.923z"/>
				<path style="opacity:0.3;fill:#A38E74;" d="M150.116,501c4.109-18.978,9.691-49.891,7.78-68.674
					c11.785,25.826,14.524,70.029,14.524,70.029L150.116,501z"/>
				<path style="opacity:0.3;fill:#A38E74;" d="M361.674,427.043c-2.015,29.348-14.341,73.761-14.341,73.761h22.696
					C372.964,476.348,361.674,427.043,361.674,427.043z"/>
				<path style="fill:#9B5B2F;" d="M214.889,346.57c0,0,4.129-4.24,5.423-11.775c1.294-7.535,1.514-8.192,1.045-9.331
					c-0.468-1.139-1.589-1.27-1.589-1.27s1.814-5.347,1.814-6.716c0-1.37,1.456-18.326,1.456-18.897
					c0-0.571-0.029-10.964-0.029-10.964l-1.93-2.002l-2.937,3.387c0,0-5.818-13.768-6.806-19.553
					c-0.988-5.785-1.404-9.612-1.404-9.612l-4.344,1.31l2.025-19.95l2.133-16.911l-7.782,3.133l0.286-3.133
					c0,0-4.605-0.113-11.494-3.107c-6.89-2.995-17.064-11.701-17.748-12.386c-0.685-0.685-9.614-16.982-9.614-21.698
					c0-4.715,1.877-15.407,1.877-15.407s8.273-13.406,7.96-13.899c-0.313-0.493-3.478-4.379-3.478-4.379s5.896-2.221,11.375-1.349
					c5.478,0.872,13.938,3.82,15.391,5.272c1.452,1.452,12.914,10.807,12.914,10.807l-1.32-15.354c0,0-3.393-2.728-4.967-3.687
					c-1.573-0.959-2.877-4.448-2.877-5.198s-0.585-3.685,8.789-8.315c9.374-4.631,26.508-11.223,26.508-11.223
					s15.337-5.036,15.337-5.425s-2.569-7.085-2.569-7.085l8.749,6.608c0,0,1.25-4.912,3.391-6.375
					c2.142-1.462,3.903-2.886,3.903-2.886s1.477,7.204,1.961,6.319c0.485-0.885,7.185-6.062,7.26-5.699
					c0.075,0.363,1.54,5.213,1.54,5.213s12.911,0.372,20.87,1.77c7.959,1.397,12.956,2.832,17.402,5.558
					c4.446,2.725,6.603,7.977,7.383,11.546c0.78,3.57-2.125,11.297-6.542,13.825c0,0.376,0.462,2.622,2.17,4.33
					c1.708,1.708,4.372,6.09,4.372,7.003c0,0.913,0.483,0.913,0.483,0.913s7.81-5.843,10.216-7.291
					c2.407-1.448,11.725-4.148,14.537-3.755c2.812,0.393,4.435,1.385,4.63,1.72c0.195,0.335-3.26,2.429-3.26,2.429
					s2.179,3.908,3.381,6.956c1.202,3.048,4.041,13.148,4.732,17.729c0.691,4.581-0.287,15.407-1.657,18.668
					c-1.37,3.261-6.801,10.911-8.194,12.574c-1.393,1.663-6.545,6.665-7.654,7.252c-1.109,0.587-11.152,4.248-11.152,4.248
					s2.378,8.096,2.185,7.903c-0.193-0.193-3.163,1.397-3.163,1.871c0,0.475-0.832,11.479-0.701,11.348
					c0.131-0.131-53.56,56.951-53.56,56.951l2.947,24.06l-3.579,0.217c0,0,0.743,5.848,2.409,9.228c1.666,3.38,5.184,7.9,5.184,7.9
					s-9.896,8.092-31.157,11.053S214.889,346.57,214.889,346.57z"/>
				<path style="fill:#7F4224;" d="M237.52,148.373c-12.534,1.888-20.95,8.458-17.786,26.238
					c3.165,17.78,13.102,30.823,17.786,32.976c4.683,2.153,7.697,2.544,5.864,6.196c-1.833,3.652-20.275,15.913-20.275,34.435
					s6.703,38.609,11.79,41.478c5.087,2.869,18.522,7.174,18.522,7.174s-6.522,1.174-10.304,0.261
					c-3.783-0.913-11.034-2.445-12.816-4.228c-1.782-1.782-6.05-5.322-6.668-4.703c-0.619,0.619-1.236,21.341-1.124,21.453
					c0.111,0.112,29.093,9.521,51.264,6.521c-0.655-2.348-2.787-27.391-2.787-27.391l54.192-47.769c0,0,0.636-13.829-5.429-19.894
					c-6.065-6.065-7.012-4.402-4.533-11.544c2.479-7.141,3.289-10.278,1.808-14.478c-1.481-4.201,4.697-7.744,4.697-10.377
					C321.718,182.087,237.52,148.373,237.52,148.373z"/>
				<path style="fill:#E8BE91;" d="M329.269,272.11c0,0-3.72,7.39-7.44,12.03c-3.72,4.64-13.3,11.64-19.62,13.21
					c-6.33,1.57-23.42,1.99-28.22,1.99c-4.81,0-10.55-0.82-19.95-3.85c-9.39-3.03-18.49-17.22-20.44-20.35
					c-1.96-3.13-3.5-22.01-3.5-26.21c0-2.46,3.81-9.35,7.68-15.15c2.74-4.11,5.51-7.67,6.97-8.72c3.52-2.55,13.7-7.13,13.7-7.13
					s-4.9-2.36-5.67-2.64c-0.78-0.27-4.12-3.34-5.94-5.94c-1.82-2.59-1.27-7.04-1.27-7.04s-5.12-2.909-7.77-3.879
					c-2.64-0.97-7.82-6.931-10.02-12.001c-2.2-5.08-5.33-15.67-3.69-23.62c1.64-7.96,9.21-10.73,14.03-12.3
					c4.82-1.58,14.07,0.2,18.76,1.47c4.7,1.27,15.69,3.52,25.04,3.52c5.78-0.73,9.93-2.3,14.09-3.96
					c4.16-1.66,10.71-2.69,15.02-2.16c4.3,0.52,6.31,4.45,8.41,7.83c2.1,3.39,3.09,8.17,3.09,8.17l-1.13,12.87
					c0,0-2.439,4.385-3.759,8.105c-1.32,3.72-9.176,9.428-9.176,9.428s3.105,3.397,3.745,5.407c0.64,2-0.16,4.74-1.38,7.33
					c-1.22,2.6-6.99,6.17-6.99,6.17s7.33,6.26,10.46,9.39c3.14,3.13,5.87,8.9,8.81,13.76c2.93,4.87,5.48,16.48,5.48,16.48l0.29,7.66
					L329.269,272.11z"/>
				<path style="fill:#C9915F;" d="M288.899,173.186c0,6.814,1.304,12.488,6.913,14.38s12.566,1.188,16.164-1.721
					c3.597-2.909,5.88-10.083,5.88-10.083s-3.848-4.435-4.761-4.435C312.181,171.326,288.899,173.186,288.899,173.186z"/>
				<path style="fill:#C9915F;" d="M238.421,172.158c-3.456,6.147-1.5,15.947,1.891,17.862c3.391,1.915,11.543,1.15,16.826,0
					c5.283-1.15,9.326-0.759,11.283-5.455c1.956-4.696,2.609-10.944,2.609-10.944L238.421,172.158z"/>
				<path style="fill:#FFFFFF;" d="M239.725,172.158c-2.837,5.821-2.923,8.462-0.337,10.516c2.587,2.054,4.641,4.5,8.26,4.011
					c3.62-0.489,9.098-0.175,9.098-1.262c0-1.086-4.206-12.238-4.206-12.238L239.725,172.158z"/>
				<path style="fill:#FFFFFF;" d="M303.284,166.778c-8.972,2.005-14.597,3.879-13.839,7.833c0.758,3.954,4.019,7.039,7.378,7.893
					s8.757,1.03,11.487,0.111c2.73-0.919,3.666-3.283,3.666-3.283L303.284,166.778z"/>
				<path style="fill:#232323;" d="M241.714,157.335c-2.918,1.861-3.241,3.72-1.833,5.676c1.409,1.956,4.908,2.157,7.532,2.402
					c2.625,0.246,16.963,0.287,16.963,0.287s-2.295-4.555-2.497-4.608c-0.202-0.053-10.509-0.605-10.797-0.893
					C250.796,159.913,242.92,159.681,241.714,157.335z"/>
				<path style="fill:#232323;" d="M292.6,148.044l3.815,5.038c0,0,11.014-2.456,13.598-1.802c2.584,0.654,3.937,1.158,3.937,1.158
					l0.416-6.514l-20.543,1.092L292.6,148.044z"/>
				<path style="fill:#232323;" d="M304.975,166.706c-3.816,1.555-4.577,7.243-2.608,9.463s5.073,3.819,7.969,3.441
					c2.896-0.378,4.797-1.125,5.955-2.283c1.158-1.158,0.823-5.098-0.195-6.377c-1.018-1.279-2.552-2.547-5.192-3.318
					C308.264,166.862,304.975,166.706,304.975,166.706z"/>
				<path style="fill:#232323;" d="M252.555,173.587c-1.824,3.706-1.916,4.734-0.672,7.033c1.244,2.299,4.226,5.302,4.522,5.223
					c0.296-0.079,7.357-1.596,10.035-4.618c2.678-3.022,4.25-6.968,4.25-6.968L252.555,173.587z"/>
				<path style="fill:#232323;" d="M268.975,202.728c-6.114-2.054-6.81-2.53-10.106-1.754c-3.296,0.776-4.372,3.587-4.372,3.587
					s-0.245,1.641,1.027,2.179c1.272,0.538,1.75,1.027,3.345,0.783c1.595-0.244,3.809-1.235,4.952-1.596
					C264.964,205.565,268.975,202.728,268.975,202.728z"/>
				<path style="fill:#232323;" d="M293.073,200.622c4.891-2.949,13.043-3.601,13.043,2.399s-9.848,0.978-10.891,0.261
					C294.181,202.565,293.073,200.622,293.073,200.622z"/>
				<path style="fill:#E8BE91;" d="M322.297,174.261c2.21-4.957,6.69-10.787,12.7-11.85c6.01-1.063,9.075,1.285,11.293,7.676
					c2.217,6.391,3.736,12.311,1.933,20.047c-1.803,7.736-1.411,11.844-4.868,15.301c-3.456,3.456-11.804,9.065-12.391,9.391
					c-0.587,0.326-5.664,2.913-5.664,2.435c0-0.479-3.003-12.103-3.003-12.103l5.08-0.205c0,0-3.848-14.062-5.413-19.279
					C320.399,180.456,322.297,174.261,322.297,174.261z"/>
				<path style="fill:#E8BE91;" d="M207.389,202.26l-0.01,0.06v0.02c-0.5,4.07-0.92,7.42-0.92,7.59c0,0.46-2.53,10.43-2.8,10.7
					c-0.27,0.27-6.46-1.11-8.61-1.89s-7.66-4.47-9.78-6.59c-2.12-2.12-6.2-5.35-10.5-12.78c-2-3.46-3.09-7.44-3.59-11.36
					c-0.58-4.49-0.38-8.92,0.07-12.44c0.85-6.59,7.63-10.7,14.15-11.94c6.52-1.24,15,6.98,15,6.98s6.72,6.59,8.18,11.28
					c0,0,0.06,1.07,0.13,2.27c0.1,1.45,0.23,3.09,0.35,3.21C209.189,187.5,208.189,195.77,207.389,202.26z"/>
				<path style="fill:#CC8B50;" d="M274.355,270.913c2.592-1.908,11.103-5.478,13.745-5.772c2.641-0.293,6.114-0.278,7.288,0.399
					c1.174,0.677,3,1.513,3,1.513s0.815-1.618,3.505-2.352c2.69-0.734,6.359,0,9.049,0c2.69,0,6.261,0.285,7.582-0.126
					c1.321-0.412,3.033-0.95,3.033-0.95s-6.065,6.799-7.288,7.533c-1.223,0.734-8.119,4.402-11.152,5.332
					c-3.033,0.929-5.576,2.25-9.88,1.076c-4.304-1.174-7.728-2.348-9.098-3.13c-1.37-0.783-3.864-1.921-5.38-2.526
					C277.241,271.304,274.355,270.913,274.355,270.913z"/>
				<path style="fill:#C9915F;" d="M329.269,272.11c0,0-3.72,7.39-7.44,12.03c-3.72,4.64-13.3,11.64-19.62,13.21
					c-6.33,1.57-23.42,1.99-28.22,1.99c-4.81,0-10.55-0.82-19.95-3.85c-9.39-3.03-18.49-17.22-20.44-20.35
					c-1.96-3.13-3.5-22.01-3.5-26.21c0-2.46,3.81-9.35,7.68-15.15c-1.2,15.57,3.25,35.09,21.79,42.02
					c19.87,7.44,40.86,10.18,50.91,5.87c9.79-4.19,17.02-19.92,18.4-19.69L329.269,272.11z"/>
				<path style="fill:#C9915F;" d="M324.377,195.391c-2.217-17.87,13.56-23.994,18.913-20.29c5.353,3.704,5.73,4.51,5.73,4.51
					s-2.473-15.132-6.319-16.828c-3.846-1.696-10.366-1.33-13.432,2.27c-3.066,3.6-8.404,11.608-8.404,11.608
					s1.095,11.873,1.432,12.21C322.634,189.206,324.377,195.391,324.377,195.391z"/>
				<path style="fill:#C9915F;" d="M208.709,184.16l-1.32,18.1l-0.01,0.06c-1.33-11.73-15.41-24.72-23.67-27.32
					c-8.23-2.59-12.5,9.06-12.53,13.01c-0.58-4.49-0.38-8.92,0.07-12.44c0.85-6.59,7.63-10.7,14.15-11.94c6.52-1.24,15,6.98,15,6.98
					s6.72,6.59,8.18,11.28C208.579,181.89,208.639,182.96,208.709,184.16z"/>
				<path style="fill:#CCD3DB;" d="M288.929,349.58c0,0.26-1.27,16.03-1.27,16.03l-6.55,26.9l-7.93,24.95l-6.65,31.01
					c0,0-7.53-21.13-8.12-22.7c-0.59-1.56-13.4-29.44-15.95-33.55c-2.54-4.11-18.39-24.75-20.44-28.08
					c-2.06-3.32-6.56-17.11-6.56-17.11c1.18,0.67,2.65,1.25,4.33,1.73c9.54,2.74,25.93,2.5,34.94,1
					c10.59-1.76,23.85-9.77,23.85-9.77s0.42,0.37,1.08,0.98C282.309,343.36,288.929,349.36,288.929,349.58z"/>
				<path style="fill:#9EA7AF;" d="M288.929,349.58c0,0.26-1.27,16.03-1.27,16.03l-6.55,26.9l-7.93,24.95l-6.65,31.01
					c0,0-7.53-21.13-8.12-22.7c-0.59-1.56-13.4-29.44-15.95-33.55c-2.54-4.11-18.39-24.75-20.44-28.08
					c-2.06-3.32-6.56-17.11-6.56-17.11c1.18,0.67,2.65,1.25,4.33,1.73c7.42,14.91,34.02,51.41,38.46,55.85
					c4.43,4.43,12.996-8.746,15.806-16.566c2.81-7.83,11.724-23.214,9.764-33.393c-1.41-7.33-3.9-11.77-4.16-13.68
					C282.309,343.36,288.929,349.36,288.929,349.58z"/>
			</g>
			<g>
				<g>
					<g>
						<path style="fill:#232323;" d="M207.401,152.615c0.015-0.002-0.162-0.214,0.08-0.072c0.025,0.014,0.052,0.229,0.067,0.267
							c0.089,0.22,0.097,0.471,0.12,0.702c0.063,0.625,0.117,1.251,0.17,1.876c0.107,1.252,0.191,2.506,0.291,3.759
							c0.2,2.509,0.361,5.02,0.453,7.535c0.183,4.99,0.219,9.977,0.02,14.967c-0.4,10.027-1.594,20.016-3.607,29.848
							c-1.136,5.55-2.538,11.043-4.192,16.461c-0.232,0.762,0.762,1.545,1.429,1.045c2.399-1.799,5.08-3.096,7.982-3.85
							c-0.403-0.384-0.805-0.767-1.208-1.151c-1.324,9.637-2.649,19.274-3.973,28.911c-0.376,2.74-0.753,5.48-1.13,8.22
							c-0.098,0.711,0.457,1.4,1.227,1.169c1.695-0.51,3.389-1.021,5.084-1.531c-0.419-0.304-0.839-0.607-1.258-0.911
							c0.881,10.322,3.722,20.39,8.35,29.656c0.365,0.73,1.312,0.496,1.693-0.042c0.881-1.241,1.762-2.482,2.643-3.723
							c-0.512,0.079-1.024,0.158-1.536,0.237c7.287,8.449,18.73,12.939,29.813,12.227c3.141-0.202,6.283-0.775,9.202-1.969
							c1.03-0.421,0.6-2.022-0.511-1.691c-5.11,1.527-10.356,2.187-15.667,1.453c-5.275-0.729-10.364-2.609-14.809-5.548
							c-2.487-1.644-4.729-3.639-6.676-5.895c-0.455-0.528-1.207-0.226-1.536,0.237c-0.881,1.241-1.762,2.482-2.643,3.723
							c0.564-0.014,1.129-0.028,1.693-0.042c-4.467-8.94-7.212-18.717-8.069-28.672c-0.054-0.625-0.62-1.103-1.258-0.911
							c-1.694,0.512-3.388,1.023-5.083,1.535c0.409,0.39,0.818,0.779,1.227,1.169c1.317-9.639,2.634-19.278,3.951-28.917
							c0.374-2.741,0.749-5.481,1.123-8.221c0.099-0.723-0.448-1.349-1.208-1.151c-3.044,0.793-5.916,2.171-8.432,4.061
							c0.476,0.348,0.953,0.697,1.429,1.045c3.298-10.837,5.567-21.969,6.768-33.233c1.202-11.269,1.311-22.638,0.322-33.927
							c-0.138-1.57-0.303-3.136-0.511-4.698c-0.107-0.804-0.221-1.608-0.339-2.411c-0.081-0.549-0.09-1.229-0.34-1.738
							c-0.281-0.573-1.314-1.14-1.661-0.318c-0.174,0.412,0.065,1.135,0.597,0.835C207.636,152.854,207.574,152.588,207.401,152.615
							L207.401,152.615z"/>
					</g>
					<g>
						<path style="fill:#232323;" d="M209.426,167.539c-3.673-4.59-8.444-8.551-13.505-11.529
							c-5.242-3.085-11.172-5.041-17.291-5.063c-3.395-0.012-6.8,0.6-9.932,1.921c-0.677,0.286-0.911,1.255-0.175,1.651
							c1.64,0.882,2.978,2.151,3.941,3.746c-0.008-0.303-0.015-0.607-0.022-0.91c-3.815,5.306-7.445,10.966-9.064,17.372
							c-1.629,6.445-0.87,13.345,1.229,19.594c3.478,10.351,10.894,19.222,20.222,24.833c5.241,3.153,11.126,5.266,17.205,6.004
							c0.485,0.059,0.956-0.144,1.089-0.654c0.111-0.424-0.173-1.031-0.654-1.09c-10.503-1.276-20.194-6.668-27.239-14.5
							c-3.473-3.861-6.303-8.348-8.199-13.187c-2.264-5.779-3.423-12.292-2.354-18.46c1.229-7.092,5.211-13.296,9.344-19.042
							c0.184-0.255,0.13-0.659-0.022-0.91c-1.114-1.847-2.701-3.359-4.605-4.375c-0.058,0.55-0.116,1.101-0.174,1.651
							c5.423-2.306,11.452-2.325,17.095-0.836c5.58,1.472,10.648,4.473,15.143,8.037c2.519,1.997,4.851,4.216,7.303,6.287
							C209.11,168.378,209.751,167.945,209.426,167.539L209.426,167.539z"/>
					</g>
					<g>
						<path style="fill:#232323;" d="M208.63,184.863c1.162-3.847-1.151-7.66-3.555-10.497c-1.319-1.558-2.779-2.999-4.256-4.405
							c-1.484-1.412-3.025-2.765-4.697-3.952c-3.207-2.275-7.046-3.774-11.03-3.288c-3.696,0.452-7.076,2.311-9.688,4.93
							c-6.156,6.174-6.703,15.489-4.689,23.542c1.83,7.32,5.68,14.143,10.899,19.581c5.004,5.215,11.435,9.185,18.523,10.776
							c0.887,0.199,1.776,0.351,2.679,0.454c0.46,0.053,0.905-0.134,1.032-0.62c0.108-0.417-0.167-0.959-0.62-1.033
							c-3.377-0.549-6.639-1.487-9.719-2.989c-3.046-1.485-5.858-3.405-8.387-5.657c-5.138-4.574-9.129-10.45-11.497-16.908
							c-2.685-7.324-3.707-16.318,0.723-23.199c1.87-2.904,4.688-5.323,7.94-6.533c3.405-1.267,6.995-1.002,10.247,0.592
							c3.457,1.694,6.285,4.417,9.018,7.073c1.399,1.361,2.764,2.779,3.922,4.355c1.081,1.471,2.143,3.184,2.518,4.99
							c0.188,0.904,0.319,1.827,0.324,2.751C208.315,185.014,208.579,185.032,208.63,184.863L208.63,184.863z"/>
					</g>
					<g>
						<path style="fill:#232323;" d="M207.609,199.694c0.613-1.9,0.779-3.764,0.396-5.729c-0.381-1.952-1.14-3.78-2.185-5.471
							c-2.128-3.442-5.354-6.066-8.866-8.006c-1.793-0.99-3.686-1.846-5.62-2.524c-1.045-0.366-2.201-0.612-3.295-0.31
							c-0.964,0.266-1.749,0.959-2.356,1.729c-2.515,3.188-3.566,7.348-2.189,11.244c0.725,2.05,1.954,3.855,3.355,5.5
							c0.707,0.83,1.47,1.624,2.269,2.365c0.813,0.753,1.769,1.32,2.659,1.969c0.513,0.374,1.02-0.438,0.627-0.856
							c-0.605-0.646-1.166-1.34-1.753-2.004c-0.57-0.646-1.216-1.226-1.799-1.862c-1.154-1.26-2.22-2.6-3.027-4.112
							c-0.767-1.438-1.24-3.029-1.251-4.665c-0.012-1.85,0.599-3.64,1.534-5.22c0.442-0.746,0.957-1.565,1.66-2.095
							c0.785-0.593,1.723-0.515,2.626-0.267c1.781,0.489,3.529,1.286,5.175,2.114c3.245,1.633,6.31,3.831,8.468,6.794
							c2.331,3.202,3.713,7.417,3.488,11.396C207.521,199.735,207.595,199.737,207.609,199.694L207.609,199.694z"/>
					</g>
					<g>
						<path style="fill:#232323;" d="M276.518,208.331c-0.858-2.867-3.784-4.897-6.33-6.19c-2.768-1.406-5.87-2.168-8.978-2.135
							c-2.58,0.027-6.224,0.525-7.518,3.145c-1.551,3.141,1.808,5.844,4.755,5.69c2.122-0.111,4.04-1.183,5.904-2.103
							c1.02-0.503,2.039-1.009,3.058-1.514c0.957-0.474,2.149-0.857,2.883-1.647c0.357-0.384,0.093-1.145-0.482-1.089
							c-0.87,0.085-1.6,0.549-2.374,0.931c-0.802,0.396-1.603,0.792-2.405,1.187c-1.471,0.727-2.929,1.549-4.469,2.123
							c-1.376,0.512-2.921,0.803-4.262,0.044c-0.953-0.539-1.702-1.592-1.28-2.714c0.409-1.089,1.665-1.687,2.697-2.016
							c1.191-0.38,2.47-0.492,3.715-0.507c2.657-0.031,5.324,0.567,7.729,1.695c1.35,0.634,2.622,1.431,3.795,2.351
							c1.177,0.923,2.232,1.97,3.459,2.832C276.469,208.45,276.535,208.385,276.518,208.331L276.518,208.331z"/>
					</g>
					<g>
						<path style="fill:#232323;" d="M287.948,206.396c0.294-0.455,0.502-0.954,0.796-1.413c0.303-0.473,0.675-0.919,1.044-1.342
							c0.714-0.82,1.618-1.486,2.553-2.036c2.241-1.319,4.853-1.811,7.4-2.138c1.17-0.15,2.685-0.651,3.562,0.369
							c0.699,0.812,1.507,2.034,1.64,3.113c0.339,2.742-3.937,1.737-5.431,1.309c-1.304-0.373-2.544-0.964-3.663-1.731
							c-0.537-0.368-1.024-0.796-1.502-1.238c-0.566-0.524-1.112-1.084-1.891-1.238c-0.818-0.162-1.243,0.751-0.738,1.344
							c0.498,0.585,1.177,1.088,1.757,1.602c0.569,0.504,1.183,0.966,1.825,1.374c1.219,0.774,2.571,1.352,3.969,1.711
							c2.414,0.621,6.73,1.184,7.301-2.151c0.254-1.484-0.452-2.821-1.245-4.022c-0.827-1.252-1.76-2.328-3.388-2.261
							c-1.544,0.064-3.15,0.384-4.664,0.684c-1.561,0.309-3.093,0.756-4.53,1.449c-1.356,0.654-2.514,1.576-3.481,2.724
							c-0.851,1.01-1.678,2.478-1.519,3.841C287.756,206.454,287.887,206.491,287.948,206.396L287.948,206.396z"/>
					</g>
					<g>
						<path style="fill:#232323;" d="M265.647,215.756c-3.659,1.571-7.897,0.792-11.261-1.148c-1.661-0.958-3.138-2.195-4.474-3.565
							c-1.319-1.352-2.724-2.866-3.572-4.569c-0.882-1.771-0.484-3.739,0.639-5.304c1.133-1.578,2.912-2.569,4.688-3.259
							c3.984-1.548,8.359-2.43,12.632-2.488c2.237-0.031,4.417,0.26,6.613,0.658c2.181,0.395,4.383,0.799,6.61,0.717
							c4.331-0.158,8.389-1.835,12.595-2.688c4.071-0.826,8.49-0.94,12.551,0.012c3.034,0.711,6.206,2.186,7.701,5.079
							c1.597,3.09,0.362,6.847-1.754,9.357c-2.516,2.986-6.262,4.395-9.873,5.562c-0.957,0.31-1.878,0.617-2.8,1.02
							c-0.359,0.157-0.601,0.454-0.535,0.866c0.055,0.343,0.396,0.711,0.779,0.655c2.146-0.316,4.21-0.981,6.22-1.796
							c1.996-0.81,3.912-1.806,5.592-3.165c2.943-2.381,5.164-6.172,4.831-10.062c-0.322-3.761-3.02-6.541-6.346-8.02
							c-3.802-1.69-8.173-2.019-12.28-1.734c-2.386,0.165-4.733,0.607-7.044,1.215c-2.271,0.598-4.517,1.303-6.828,1.735
							c-2.387,0.446-4.743,0.4-7.135,0.022c-2.391-0.378-4.754-0.87-7.18-0.971c-4.701-0.196-9.473,0.674-13.909,2.207
							c-3.753,1.297-7.928,3.984-7.822,8.479c0.051,2.17,1.397,3.916,2.719,5.516c1.328,1.608,2.797,3.112,4.461,4.374
							c3.347,2.539,7.526,4.081,11.746,3.226c0.999-0.202,1.949-0.54,2.861-0.993C266.59,216.437,266.19,215.523,265.647,215.756
							L265.647,215.756z"/>
					</g>
					<g>
						<path style="fill:#232323;" d="M259.914,216.828c-7.284,1.339-14.072,5.01-19.461,10.057
							c-5.667,5.308-9.558,12.274-10.842,19.952c-1.486,8.882,0.15,18.091,3.331,26.432c1.538,4.034,3.537,7.938,6.256,11.31
							c2.554,3.167,5.721,5.777,9.223,7.836c7.703,4.531,16.632,6.224,25.452,6.768c4.642,0.286,9.32,0.349,13.967,0.179
							c4.467-0.164,8.937-0.592,13.258-1.791c4.339-1.204,8.324-3.242,11.965-5.876c3.496-2.528,6.902-5.378,9.821-8.561
							c2.918-3.183,5.159-6.855,6.206-11.072c1.056-4.254,1.039-8.724,0.622-13.061c-0.754-7.847-2.984-15.501-6.455-22.573
							c-3.456-7.041-8.173-13.49-13.881-18.872c-1.393-1.313-2.869-2.455-4.372-3.633c-0.86-0.674-2.046,0.56-1.179,1.239
							c1.477,1.157,2.879,2.48,4.246,3.765c1.379,1.296,2.699,2.656,3.957,4.07c2.506,2.819,4.751,5.871,6.718,9.09
							c3.944,6.455,6.748,13.589,8.226,21.009c0.767,3.851,1.194,7.809,1.129,11.738c-0.069,4.23-0.851,8.471-2.968,12.178
							c-2.017,3.532-4.971,6.423-8.021,9.067c-3.282,2.844-6.757,5.539-10.655,7.491c-7.78,3.896-16.808,4.215-25.336,4.154
							c-8.883-0.064-18.001-0.704-26.335-4.031c-7.486-2.988-13.925-8.07-17.74-15.26c-1.992-3.754-3.471-7.787-4.565-11.888
							c-1.127-4.225-1.796-8.58-1.804-12.958c-0.015-7.916,2.391-15.583,7.363-21.785c4.461-5.564,10.519-9.84,17.114-12.512
							c1.628-0.66,3.282-1.271,4.96-1.795C260.551,217.357,260.344,216.749,259.914,216.828L259.914,216.828z"/>
					</g>
					<g>
						<path style="fill:#232323;" d="M278.119,215.299c2.488,3.921,4.539,8.23,6.258,12.539c1.712,4.292,2.939,8.795,3.632,13.364
							c0.194,1.279,0.318,2.565,0.491,3.846c0.18,1.331,0.503,2.632,0.67,3.965c0.051,0.407,0.596,0.39,0.632-0.015
							c0.11-1.22,0.289-2.439,0.282-3.666c-0.007-1.146-0.161-2.29-0.317-3.424c-0.323-2.349-0.775-4.676-1.38-6.969
							c-1.203-4.563-2.884-9.159-5.293-13.233c-1.383-2.339-2.963-4.487-4.669-6.596
							C278.284,214.936,277.991,215.097,278.119,215.299L278.119,215.299z"/>
					</g>
					<g>
						<path style="fill:#232323;" d="M290.897,253.272c-0.023,0.058-0.046,0.115-0.068,0.173c0.047-0.038,0.093-0.075,0.14-0.113
							c-0.265,0.079-0.355,0.366-0.434,0.609c-0.087,0.271-0.117,0.564-0.185,0.84c-0.147,0.598-0.232,1.209-0.325,1.817
							c-0.095,0.626-0.168,1.255-0.201,1.888c-0.021,0.385-0.104,1.313,0.436,1.375c0.536,0.062,0.682-0.867,0.755-1.243
							c0.122-0.622,0.2-1.25,0.261-1.881c0.059-0.612,0.125-1.225,0.129-1.839c0.002-0.441,0.195-1.278-0.253-1.546
							c0.041,0.068,0.082,0.135,0.123,0.203c-0.012-0.081-0.022-0.163-0.032-0.244C291.218,253.107,290.97,253.086,290.897,253.272
							L290.897,253.272z"/>
					</g>
					<g>
						<path style="fill:#232323;" d="M264.115,275.089c0.987-0.347,1.871-0.894,2.843-1.286c1.017-0.411,2.044-0.783,3.101-1.076
							c2.092-0.58,4.246-0.875,6.413-0.958c4.918-0.188,9.766,0.729,14.623,1.35c4.873,0.622,9.734,0.821,14.565-0.219
							c4.227-0.91,8.294-2.65,11.881-5.063c1.985-1.335,4.033-2.891,5.596-4.715c0.631-0.736,1.14-1.695,1.159-2.681
							c0.019-0.967-0.518-1.847-1.574-1.739c-0.331,0.034-0.647,0.425-0.403,0.745c0.979,1.284-0.779,2.834-1.613,3.623
							c-1.516,1.434-3.176,2.706-4.943,3.816c-3.513,2.206-7.431,3.737-11.507,4.508c-9.303,1.759-18.506-1.616-27.824-1.168
							c-2.324,0.112-4.668,0.436-6.886,1.157c-1.059,0.345-2.114,0.779-3.074,1.348c-0.98,0.581-1.902,1.169-2.569,2.1
							C263.813,274.958,263.975,275.138,264.115,275.089L264.115,275.089z"/>
					</g>
					<g>
						<path style="fill:#232323;" d="M298.69,267.479c1.027-1.367-2.329-2.439-3.131-2.67c-1.935-0.557-3.975-0.715-5.98-0.577
							c-4.149,0.284-8.053,1.804-11.708,3.712c-1.018,0.531-2.019,1.094-3.012,1.671c-0.931,0.541-2.165,1.108-2.652,2.134
							c-0.112,0.236,0.04,0.481,0.299,0.492c1.139,0.051,2.222-0.78,3.157-1.325c1.058-0.617,2.126-1.217,3.213-1.781
							c2.131-1.104,4.347-2.063,6.668-2.691c2.258-0.612,4.607-0.914,6.946-0.742c1.184,0.087,2.341,0.316,3.484,0.631
							c0.504,0.139,1.046,0.278,1.49,0.565c0.341,0.22,0.529,0.574,0.945,0.664C298.501,267.581,298.628,267.561,298.69,267.479
							L298.69,267.479z"/>
					</g>
					<g>
						<path style="fill:#232323;" d="M298.574,267.382c0.442-0.058,0.668-0.373,1-0.64c0.387-0.31,0.811-0.572,1.253-0.795
							c0.989-0.497,2.031-0.78,3.136-0.861c2.518-0.185,5.043,0.391,7.538,0.645c2.303,0.234,4.674,0.289,6.919-0.365
							c0.983-0.286,1.952-0.724,2.802-1.297c0.66-0.445,1.859-1.233,1.598-2.174c-0.039-0.138-0.173-0.284-0.321-0.306
							c-0.747-0.109-1.301,0.594-1.868,0.979c-0.66,0.449-1.376,0.789-2.134,1.037c-1.667,0.545-3.38,0.687-5.126,0.616
							c-3.807-0.155-7.899-1.406-11.639-0.169c-0.839,0.277-1.589,0.674-2.265,1.242c-0.502,0.422-1.327,1.175-1.146,1.904
							C298.346,267.298,298.467,267.396,298.574,267.382L298.574,267.382z"/>
					</g>
					<g>
						<path style="fill:#232323;" d="M275.811,271.883c6.344,0.926,11.324,5.641,17.687,6.486c6.669,0.886,13.576-1.547,19.086-5.21
							c1.47-0.977,2.867-2.081,4.136-3.309c0.608-0.589,1.174-1.214,1.704-1.873c0.57-0.71,1.12-1.401,1.285-2.315
							c0.075-0.414-0.36-0.791-0.748-0.546c-0.631,0.398-1.06,0.93-1.533,1.494c-0.521,0.62-1.079,1.209-1.652,1.782
							c-1.052,1.052-2.197,2.003-3.414,2.859c-2.586,1.819-5.454,3.269-8.453,4.269c-3.136,1.046-6.489,1.6-9.794,1.248
							c-3.057-0.325-5.859-1.586-8.624-2.851c-3.002-1.373-6.27-2.8-9.639-2.418C275.652,271.521,275.577,271.848,275.811,271.883
							L275.811,271.883z"/>
					</g>
					<g>
						<path style="fill:#232323;" d="M308.065,196.658c5.342-2.857,9.605-7.989,12.149-13.428
							c2.872-6.141,3.604-13.103,2.236-19.732c-1.18-5.717-4.101-12.445-9.764-14.995c-3.273-1.475-6.77-0.93-10.171-0.257
							c-3.734,0.739-7.378,1.785-10.981,3.005c-3.509,1.188-7.042,2.419-10.76,2.72c-3.763,0.305-7.528-0.151-11.21-0.916
							c-7.421-1.543-14.593-4.243-22.174-4.981c-6.076-0.591-12.57,0.33-17.672,3.895c-2.452,1.713-4.47,4.007-5.729,6.731
							c-1.383,2.992-1.897,6.299-1.864,9.578c0.033,3.285,0.597,6.566,1.421,9.74c0.849,3.27,2.04,6.46,3.63,9.444
							c3.021,5.665,7.691,10.597,13.598,13.26c1.398,0.63,2.845,1.125,4.335,1.483c1.154,0.277,1.6-1.513,0.446-1.789
							c-12.58-3.02-19.546-15.88-21.211-27.847c-0.824-5.925-0.281-12.496,4.076-17.007c3.842-3.978,9.582-5.666,14.991-5.749
							c7.268-0.111,14.25,2.27,21.209,4.047c3.512,0.897,7.08,1.626,10.7,1.901c3.585,0.273,7.151-0.023,10.632-0.928
							c3.436-0.894,6.738-2.227,10.139-3.238c3.41-1.014,6.982-1.971,10.533-2.304c1.619-0.152,3.247-0.077,4.784,0.496
							c1.276,0.476,2.428,1.258,3.421,2.181c2.077,1.931,3.533,4.46,4.557,7.083c2.396,6.132,2.731,13.022,0.936,19.357
							c-1.614,5.696-4.941,10.853-9.409,14.729c-1.079,0.936-2.226,1.822-3.378,2.665
							C307.014,196.182,307.489,196.966,308.065,196.658L308.065,196.658z"/>
					</g>
					<g>
						<path style="fill:#232323;" d="M239.536,172.355c1.955,0.289,3.911,0.533,5.856,0.892c1.991,0.367,3.98,0.738,5.989,0.992
							c4.086,0.516,8.214,0.719,12.329,0.798c2.333,0.045,4.667,0.054,7.001,0.063c-0.28-0.349-0.559-0.698-0.839-1.047
							c-1.151,6.356-7.804,9.291-13.365,10.783c-3.173,0.852-6.677,1.886-9.945,0.957c-2.628-0.747-4.77-2.698-6.293-4.906
							c-0.88-1.275-1.869-2.832-2.113-4.386c-0.257-1.635,0.839-2.738,2.112-3.549c0.594-0.378,0.353-1.448-0.41-1.381
							c-1.686,0.149-2.88,1.477-3.399,3.031c-0.596,1.784,0.151,3.598,0.962,5.18c1.441,2.813,3.613,5.424,6.432,6.931
							c3.41,1.822,7.16,1.413,10.788,0.55c3.677-0.875,7.436-1.932,10.635-4.013c3.096-2.013,5.574-5.094,6.232-8.789
							c0.097-0.545-0.263-1.047-0.839-1.048c-4.092-0.004-8.187-0.007-12.276-0.193c-2.081-0.095-4.161-0.238-6.233-0.461
							c-2.033-0.219-4.047-0.547-6.074-0.807c-2.16-0.276-4.439-0.52-6.557,0.116C239.397,172.109,239.386,172.333,239.536,172.355
							L239.536,172.355z"/>
					</g>
					<g>
						<path style="fill:#232323;" d="M252.917,174.525c-0.271-0.083-0.444-0.301-0.737-0.324c-0.277-0.022-0.544,0.101-0.766,0.254
							c-0.513,0.354-0.841,0.956-0.985,1.552c-0.311,1.287,0.105,2.734,0.544,3.945c0.85,2.346,2.445,4.853,4.619,6.182
							c0.793,0.485,1.62-0.674,0.952-1.3c-0.758-0.71-1.546-1.343-2.199-2.163c-0.641-0.805-1.199-1.692-1.62-2.632
							c-0.413-0.922-0.764-1.952-0.868-2.96c-0.054-0.52-0.024-1.039,0.308-1.464c0.137-0.175,0.317-0.315,0.438-0.503
							c0.118-0.182,0.089-0.353,0.317-0.407C253.017,174.684,253,174.551,252.917,174.525L252.917,174.525z"/>
					</g>
					<g>
						<path style="fill:#232323;" d="M297.503,169.156c-2.306-0.65-5.045-0.668-6.965,0.975c-1.85,1.585-2.239,4.361-1.497,6.59
							c0.817,2.455,2.905,4.282,5.117,5.489c2.185,1.192,4.607,1.86,7.08,2.07c4.897,0.416,9.954-1.181,13.67-4.402
							c2.011-1.743,3.448-4.003,2.956-6.752c-0.459-2.566-2.334-4.663-4.624-5.802c-2.863-1.424-6.267-1.66-9.412-1.506
							c-1.688,0.082-3.372,0.312-5.024,0.672c-1.707,0.371-3.475,0.787-4.892,1.848c-0.462,0.346-0.353,1.319,0.363,1.222
							c1.372-0.186,2.622-0.652,3.954-1.005c1.252-0.332,2.525-0.583,3.812-0.734c2.52-0.296,5.167-0.34,7.663,0.17
							c2.227,0.455,4.439,1.443,5.681,3.437c1.219,1.956,1.136,4.175-0.373,5.945c-2.781,3.264-7.208,5.044-11.425,5.258
							c-4.172,0.212-9.004-1.018-11.829-4.294c-1.496-1.736-2.169-4.38-0.865-6.424c1.372-2.15,4.383-2.181,6.61-2.69
							C297.54,169.215,297.534,169.164,297.503,169.156L297.503,169.156z"/>
					</g>
					<g>
						<path style="fill:#232323;" d="M304.149,167.451c-0.615-0.425-1.539-0.088-2.073,0.334c-0.737,0.582-1.143,1.506-1.314,2.408
							c-0.358,1.89-0.123,4.133,0.667,5.888c1.605,3.563,5.732,4.44,9.288,4.353c0.987-0.024,2.011-0.137,2.946-0.469
							c0.47-0.167,1.032-0.379,1.389-0.741c0.193-0.196,0.26-0.381,0.345-0.634c0.036-0.107,0.112-0.279,0.187-0.47
							c0.101-0.258-0.229-0.571-0.482-0.459c-0.371,0.165-0.742,0.14-1.148,0.347c-0.373,0.19-0.71,0.366-1.115,0.483
							c-0.88,0.255-1.803,0.3-2.715,0.293c-1.808-0.015-3.711-0.265-5.29-1.205c-1.752-1.043-2.459-2.941-2.613-4.895
							c-0.081-1.037-0.143-2.207,0.283-3.18c0.163-0.374,0.415-0.715,0.703-1.003c0.289-0.29,0.674-0.463,0.991-0.725
							C304.311,167.682,304.246,167.518,304.149,167.451L304.149,167.451z"/>
					</g>
					<g>
						<path style="fill:#232323;" d="M242.21,156.933c-0.962,0.197-1.699,0.567-2.346,1.323c-0.598,0.699-0.959,1.568-1.052,2.481
							c-0.202,1.979,0.906,3.784,2.727,4.556c1.969,0.835,4.33,0.737,6.425,0.883c2.575,0.179,5.15,0.351,7.725,0.521
							c2.9,0.191,5.812,0.334,8.706-0.023c0.393-0.048,0.748-0.329,0.727-0.764c-0.088-1.811-0.685-3.999-2.231-5.115
							c-0.812-0.586-1.745-0.624-2.712-0.607c-1.138,0.02-2.274-0.015-3.409-0.097c-2.273-0.163-4.53-0.504-6.782-0.84
							c-1.929-0.288-3.929-0.585-5.705-1.434c-0.741-0.354-1.965-1.528-2.735-0.623c-0.627,0.736,0.354,1.893,1.137,1.282
							c0.31-0.242,0.449-0.624,0.233-0.987c-0.01-0.017-0.02-0.033-0.03-0.05c-0.435-0.732-1.422-0.171-1.277,0.576
							c0.004,0.019,0.007,0.039,0.011,0.058c0.16-0.298,0.319-0.596,0.479-0.894c0.211,0.072,0.423,0.144,0.634,0.215
							c0.006,0.256,0.013,0.513,0.019,0.769c0.011-0.02,0.021-0.041,0.032-0.061c-0.151,0.122-0.302,0.245-0.453,0.367
							c-0.195-0.048-0.227-0.036-0.096,0.034c0.116,0.079,0.233,0.154,0.353,0.227c0.178,0.109,0.36,0.211,0.545,0.308
							c0.431,0.225,0.879,0.416,1.333,0.588c0.92,0.348,1.874,0.59,2.839,0.777c2.145,0.416,4.335,0.684,6.505,0.936
							c2.241,0.26,4.469,0.391,6.726,0.352c1.066-0.018,1.721,0.305,2.262,1.237c0.53,0.913,0.781,1.972,0.834,3.018
							c0.242-0.255,0.485-0.509,0.727-0.764c-4.426,0.553-8.937,0.022-13.365-0.267c-2.173-0.142-4.355-0.23-6.524-0.419
							c-1.628-0.142-3.588-0.55-4.251-2.256c-0.76-1.955,0.555-3.926,2.106-5.054C242.456,157.092,242.368,156.901,242.21,156.933
							L242.21,156.933z"/>
					</g>
					<g>
						<path style="fill:#232323;" d="M293.14,148.348c0.797,0.326,1.028,1.157,1.258,1.915c0.242,0.794,0.446,1.618,0.951,2.296
							c1.399,1.88,3.789,0.616,5.617,0.201c4.227-0.958,8.85-1.279,12.896,0.551c0.487,0.22,1.081,0.027,1.219-0.532
							c0.484-1.954,0.681-4.043,0.417-6.046c-0.121-0.917-0.638-1.517-1.579-1.605c-1.062-0.1-2.155-0.06-3.221-0.042
							c-4.326,0.076-8.635,0.561-12.938,0.975c-1.886,0.182-4.184,0.121-5.574,1.628c-0.323,0.35-0.306,0.89,0.03,1.226
							c0.235,0.234,0.478,0.373,0.768,0.531c0.482,0.262,1.26-0.228,1.001-0.81c-0.167-0.375-0.309-0.663-0.574-0.977
							c0.01,0.409,0.02,0.817,0.03,1.226c0.592-0.645,1.475-0.802,2.31-0.898c1.085-0.124,2.174-0.216,3.261-0.323
							c2.357-0.232,4.712-0.476,7.074-0.652c2.363-0.176,4.735-0.282,7.105-0.228c0.111,0.003,0.485-0.041,0.598,0.016
							c0.002-0.116,0.013-0.094,0.035,0.065c0.017,0.153,0.032,0.306,0.044,0.46c0.044,0.537,0.061,1.077,0.051,1.616
							c-0.022,1.163-0.188,2.303-0.466,3.432c0.406-0.177,0.813-0.354,1.219-0.532c-4.145-1.867-8.721-1.754-13.097-0.868
							c-1.114,0.225-2.216,0.503-3.309,0.813c-0.395,0.112-0.888,0.335-1.297,0.155c-0.348-0.153-0.564-0.567-0.714-0.893
							c-0.349-0.757-0.465-1.589-0.955-2.284c-0.467-0.663-1.152-1.186-1.996-1.09C292.994,147.71,292.776,148.199,293.14,148.348
							L293.14,148.348z"/>
					</g>
					<g>
						<path style="fill:#232323;" d="M320.966,178.818c-0.238,2.007,0.06,4.054,0.313,6.049c0.257,2.03,0.592,4.05,1.003,6.054
							c0.829,4.045,1.95,8.03,3.394,11.899c0.192,0.515,0.42,1.025,0.587,1.548c0.018,0.058,0.126,0.354,0.095,0.394
							c-0.066,0.085-0.543-0.009-0.638-0.018c-1.208-0.114-2.414-0.241-3.621-0.361c-0.379-0.038-0.788,0.406-0.739,0.776
							c0.384,2.871,0.975,5.711,1.807,8.487c0.826,2.757,1.946,5.396,3.007,8.068c0.539,1.356,1.049,2.725,1.454,4.128
							c0.18,0.623,0.362,1.259,0.473,1.898c0.042,0.244,0.1,0.349,0.014,0.414c-0.183,0.139-0.576,0.119-0.793,0.176
							c-2.129,0.564-2.683,2.965-2.793,4.875c-0.091,1.593-0.045,3.202-0.06,4.797c-0.016,1.713-0.054,3.427-0.032,5.14
							c0.014,1.107,1.676,1.052,1.709-0.042c0.09-3.016,0.057-6.039,0.083-9.056c0.008-0.992,0.046-2.033,0.432-2.964
							c0.143-0.344,0.342-0.689,0.642-0.918c0.377-0.288,0.856-0.278,1.289-0.424c1.428-0.48,1.24-1.849,0.959-3.038
							c-0.318-1.344-0.752-2.659-1.236-3.952c-1.004-2.68-2.212-5.279-3.137-7.989c-1.069-3.131-1.845-6.361-2.306-9.637
							c-0.246,0.259-0.493,0.518-0.739,0.777c1.129,0.105,2.258,0.21,3.387,0.315c0.878,0.082,1.94,0.039,2.236-0.989
							c0.254-0.883-0.286-1.814-0.591-2.613c-0.403-1.055-0.784-2.119-1.142-3.19c-1.427-4.271-2.51-8.635-3.213-13.083
							c-0.394-2.494-0.444-5.087-1.033-7.541C321.686,178.412,321.016,178.4,320.966,178.818L320.966,178.818z"/>
					</g>
					<g>
						<path style="fill:#232323;" d="M321.146,160.811c1.684-1.469,3.346-2.962,5.178-4.247c1.815-1.273,3.742-2.403,5.741-3.361
							c4.001-1.917,8.381-3.12,12.805-3.473c1.801-0.144,4.379-0.216,5.337,1.658c0.142-0.376,0.284-0.752,0.426-1.128
							c-1.499,0.613-2.984,1.262-4.475,1.894c-0.553,0.235-0.787,0.898-0.323,1.36c1.811,1.807,3.007,4.08,3.997,6.417
							c1.078,2.546,2.013,5.155,2.793,7.808c1.555,5.288,2.43,10.79,2.242,16.312c-0.177,5.21-1.312,10.442-3.582,15.15
							c-1.186,2.459-2.7,4.712-4.392,6.849c-1.727,2.181-3.512,4.357-5.452,6.354c-3.955,4.071-9.247,6.652-14.916,7.14
							c-1.231,0.106-1.192,2.036,0.047,1.929c5.323-0.458,10.388-2.577,14.441-6.06c2.185-1.877,3.997-4.148,5.811-6.373
							c1.823-2.236,3.577-4.54,4.996-7.058c5.598-9.932,5.822-21.907,3.009-32.728c-0.818-3.147-1.891-6.224-3.148-9.222
							c-1.168-2.787-2.523-5.568-4.732-7.689c-0.108,0.454-0.216,0.907-0.323,1.36c1.542-0.688,3.093-1.361,4.626-2.068
							c0.385-0.178,0.425-0.723,0.247-1.047c-1.011-1.83-3.152-2.354-5.099-2.391c-2.276-0.043-4.629,0.381-6.841,0.882
							c-4.637,1.051-9.133,2.975-13.049,5.676c-2.221,1.532-4.379,3.268-6.072,5.381
							C320.044,160.63,320.671,161.224,321.146,160.811L321.146,160.811z"/>
					</g>
					<g>
						<path style="fill:#232323;" d="M322.032,176.745c-0.284,0.26-0.573,0.515-0.859,0.773c0.155,0.113,0.309,0.227,0.464,0.34
							c0.702-1.327,1.237-2.74,1.927-4.079c0.666-1.293,1.451-2.535,2.33-3.694c1.754-2.312,3.946-4.397,6.511-5.782
							c2.38-1.286,5.404-2.104,8.029-1.071c2.792,1.099,4.084,4.041,4.967,6.697c2.052,6.175,2.758,12.772,2.025,19.241
							c-0.363,3.199-1.074,6.363-2.111,9.411c-0.527,1.55-1.121,3.093-1.867,4.552c-0.76,1.486-1.753,2.715-3.003,3.816
							c-2.676,2.355-5.603,4.602-8.653,6.449c-1.519,0.92-3.109,1.722-4.791,2.3c-1.269,0.436-3.375,0.823-3.213,2.612
							c0.098,1.081,1.679,1.058,1.693-0.042c0.004-0.306,1.134-0.555,1.429-0.645c0.818-0.25,1.619-0.552,2.402-0.895
							c1.512-0.663,2.958-1.458,4.346-2.351c2.835-1.824,5.584-3.935,8.117-6.158c2.638-2.315,4.017-5.416,5.16-8.669
							c1.129-3.213,1.882-6.552,2.267-9.935c0.779-6.839,0.111-13.899-2.179-20.406c-0.979-2.78-2.389-5.689-5.122-7.113
							c-2.684-1.399-5.909-1.04-8.621,0.087c-3.154,1.31-5.844,3.613-7.963,6.264c-1.073,1.343-1.995,2.785-2.747,4.331
							c-0.744,1.531-1.401,3.235-1.476,4.947c-0.013,0.292,0.413,0.378,0.543,0.133c0.179-0.337,0.352-0.676,0.532-1.013
							C322.217,176.757,322.103,176.68,322.032,176.745L322.032,176.745z"/>
					</g>
					<g>
						<path style="fill:#232323;" d="M323.357,190.757c0.268-1.527,0.608-3.121,1.32-4.51c0.737-1.436,1.797-2.664,2.901-3.829
							c2.01-2.122,4.292-4.857,7.469-4.859c2.763-0.002,6.095,1.843,6.531,4.762c0.216,1.45,0.207,3.003,0.152,4.466
							c-0.05,1.329-0.22,2.723-0.791,3.939c-0.716,1.526-1.976,2.441-3.434,3.208c-1.015,0.534-3.186,1.938-4.17,0.656
							c-0.483-0.629-1.595-0.251-1.334,0.602c0.556,1.815,2.717,2.097,4.266,1.517c1.695-0.635,3.506-1.594,4.822-2.85
							c2.611-2.493,2.679-6.387,2.514-9.742c-0.098-1.988-0.332-3.834-1.724-5.361c-1.196-1.312-2.88-2.255-4.587-2.705
							c-1.771-0.466-3.652-0.368-5.323,0.396c-1.698,0.777-3.04,2.118-4.327,3.438c-1.504,1.543-3.016,3.12-4.058,5.026
							c-0.507,0.927-0.916,1.937-1.091,2.982c-0.18,1.075-0.09,1.954,0.39,2.938C322.978,191.031,323.319,190.971,323.357,190.757
							L323.357,190.757z"/>
					</g>
					<g>
						<path style="fill:#232323;" d="M206.93,150.859c-1.719-1.106-3.587-2.173-4.847-3.826c-1.116-1.465-1.682-3.447-0.75-5.147
							c0.854-1.556,2.535-2.501,4.051-3.306c1.97-1.045,3.969-2.04,5.972-3.02c8.221-4.026,16.655-7.614,25.254-10.753
							c4.844-1.769,9.741-3.393,14.681-4.876c0.466-0.14,0.716-0.733,0.436-1.152c-1.472-2.198-2.396-4.704-2.659-7.34
							c-0.384,0.233-0.768,0.466-1.152,0.7c3.043,2.082,5.916,4.394,8.619,6.901c0.437,0.406,1.174,0.203,1.32-0.384
							c0.921-3.697,3.342-6.87,6.652-8.753c-0.406-0.154-0.813-0.308-1.219-0.462c0.749,2.198,1.333,4.443,1.839,6.708
							c0.149,0.668,1.042,0.794,1.478,0.352c2.243-2.273,4.739-4.253,7.461-5.922c-0.439-0.166-0.878-0.333-1.317-0.499
							c0.358,1.738,0.717,3.476,1.075,5.214c0.077,0.371,0.512,0.653,0.877,0.635c9.501-0.478,19.157,0.436,28.338,2.971
							c7.081,1.955,14.825,5.743,16.556,13.573c0.79,3.574,0.084,7.493-2.687,10.036c-0.942,0.864,0.498,2.229,1.436,1.368
							c2.707-2.483,3.767-6.27,3.431-9.858c-0.361-3.847-2.104-7.361-4.869-10.045c-3.042-2.953-6.954-4.813-10.942-6.123
							c-4.541-1.492-9.306-2.401-14.038-3.023c-5.724-0.752-11.504-0.987-17.27-0.686c0.292,0.212,0.585,0.423,0.877,0.635
							c-0.362-1.737-0.723-3.474-1.085-5.212c-0.119-0.571-0.864-0.778-1.317-0.499c-2.841,1.75-5.462,3.842-7.801,6.222
							c0.493,0.117,0.985,0.235,1.478,0.352c-0.51-2.264-1.189-4.483-1.947-6.675c-0.177-0.511-0.746-0.734-1.219-0.462
							c-3.652,2.098-6.332,5.677-7.331,9.767c0.44-0.128,0.88-0.256,1.32-0.384c-2.812-2.584-5.813-4.953-8.965-7.109
							c-0.474-0.324-1.207,0.141-1.152,0.7c0.29,2.908,1.263,5.688,2.891,8.118c0.145-0.384,0.291-0.768,0.436-1.152
							c-9.281,2.787-18.407,6.08-27.325,9.871c-4.448,1.891-8.846,3.902-13.184,6.032c-2.094,1.028-4.204,2.049-6.245,3.18
							c-1.61,0.891-3.272,2.015-4.149,3.689c-1.085,2.072-0.619,4.513,0.697,6.367c1.418,1.998,3.647,3.153,5.831,4.12
							C207.03,151.95,207.454,151.196,206.93,150.859L206.93,150.859z"/>
					</g>
					<g>
						<path style="fill:#232323;" d="M222.041,216.864c-1.241,1.728-1.898,3.945-2.256,6.031c-0.178,1.036-0.288,2.085-0.338,3.136
							c-0.045,0.962-0.21,2.218,0.12,3.139c0.378,1.055,1.545,0.919,2.245,0.294c0.847-0.757,1.586-1.683,2.362-2.513
							c0.193-0.206,0.385-0.412,0.578-0.618c0.082-0.088,0.164-0.177,0.247-0.265c0.028-0.03,0.055-0.059,0.083-0.088
							c0.154-0.115,0.169-0.15,0.046-0.106c-0.067-0.048,0.012,0.424,0.009,0.486c-0.013,0.288-0.091,0.581-0.127,0.867
							c-0.132,1.026-0.178,2.062-0.123,3.095c0.065,1.214,0.257,2.43,0.567,3.605c0.151,0.571,0.358,1.122,0.613,1.654
							c0.274,0.574,0.738,0.989,1.116,1.486c0.283,0.372,0.917,0.145,0.776-0.35c-0.14-0.492-0.149-1.019-0.252-1.519
							c-0.103-0.498-0.272-0.994-0.411-1.484c-0.279-0.984-0.482-1.979-0.57-2.998c-0.088-1.022-0.085-2.055,0.022-3.076
							c0.099-0.947,0.351-1.983-0.32-2.787c-0.603-0.724-1.636-0.808-2.333-0.171c-0.798,0.73-1.493,1.613-2.223,2.412
							c-0.301,0.329-0.869,0.754-1.059,1.16c-0.044,0.044-0.087,0.089-0.131,0.133c0.099,0.038,0.199,0.075,0.298,0.113
							c0.02-0.014-0.019-0.308-0.021-0.341c-0.017-0.303-0.028-0.607-0.035-0.911c-0.022-1.063,0.026-2.125,0.124-3.184
							c0.222-2.41,0.879-4.724,1.239-7.103C222.309,216.807,222.129,216.741,222.041,216.864L222.041,216.864z"/>
					</g>
					<g>
						<path style="fill:#232323;" d="M220.916,189.967c-0.451,0.989-0.841,1.921-1.142,2.97c-0.284,0.992-0.447,2.043-0.559,3.067
							c-0.112,1.024-0.177,2.043-0.166,3.074c0.009,0.877,0.005,1.828,0.384,2.639c0.646,1.383,2.096,1.519,3.416,1.173
							c1.043-0.273,2.286-0.966,3.364-0.537c0.472,0.188,1.101-0.271,0.75-0.788c-0.759-1.117-2.147-0.898-3.257-0.537
							c-0.734,0.239-2.194,1.027-2.849,0.27c-0.471-0.545-0.387-1.589-0.416-2.254c-0.043-0.965-0.047-1.94,0.002-2.904
							c0.051-0.997,0.166-1.979,0.266-2.97c0.104-1.034,0.228-2.101,0.41-3.124C221.138,189.932,220.97,189.847,220.916,189.967
							L220.916,189.967z"/>
					</g>
					<g>
						<path style="fill:#232323;" d="M257.913,129.72c-0.647-0.71-1.649-1.019-2.574-1.212c-0.957-0.199-1.937-0.295-2.913-0.335
							c-2.054-0.085-4.105,0.134-6.103,0.615c-0.561,0.135-0.617,0.827-0.285,1.199c0.79,0.884,1.934,1.163,3.051,1.397
							c0.469,0.098,1.19,0.146,1.59,0.428c0.217,0.153,0.188,0.208-0.126,0.345c-0.299,0.131-0.655,0.146-0.974,0.188
							c-1.393,0.185-2.814,0.303-4.191,0.588c-1.13,0.234-2.17,0.706-2.478,1.899c-0.127,0.493,0.483,0.777,0.827,0.455
							c0.979-0.916,2.404-1.032,3.661-1.201c0.855-0.115,1.712-0.224,2.566-0.346c0.695-0.099,1.413-0.221,1.898-0.78
							c0.413-0.476,0.572-1.202,0.241-1.766c-0.324-0.552-0.965-0.769-1.549-0.939c-1.187-0.347-2.653-0.318-3.535-1.301
							c-0.095,0.4-0.19,0.799-0.285,1.199c1.874-0.455,3.797-0.657,5.725-0.591c0.935,0.032,1.86,0.142,2.788,0.258
							c0.872,0.11,1.777,0.255,2.633,0.038C257.944,129.841,257.952,129.763,257.913,129.72L257.913,129.72z"/>
					</g>
					<g>
						<path style="fill:#232323;" d="M287.382,129.204c0.858,0.23,1.775-0.324,2.599-0.55c0.975-0.267,1.946-0.546,2.932-0.772
							c1.754-0.401,3.626-0.724,5.419-0.384c0.757,0.143,1.729,0.385,2.279,0.965c0.568,0.598-0.699,1.554-1.099,1.982
							c-1.314,1.404-2.738,2.703-4.26,3.878c-0.735,0.567-0.287,1.781,0.688,1.528c1.644-0.427,3.28-0.89,4.93-1.294
							c1.626-0.398,3.352-0.717,5.011-0.323c2.405,0.571,5.246,3.192,7.737,1.57c0.259-0.168,0.243-0.67-0.112-0.719
							c-1.337-0.183-2.608-0.606-3.834-1.165c-1.353-0.617-2.689-1.299-4.182-1.49c-1.642-0.21-3.284,0.057-4.881,0.44
							c-1.728,0.414-3.443,0.898-5.158,1.362c0.229,0.509,0.459,1.018,0.688,1.528c1.854-1.461,3.596-3.066,5.142-4.853
							c0.644-0.745,1.326-1.602,0.97-2.643c-0.331-0.968-1.401-1.473-2.291-1.799c-2.03-0.744-4.265-0.528-6.336-0.084
							c-1.19,0.255-2.403,0.565-3.541,1c-0.55,0.21-1.098,0.444-1.635,0.685c-0.506,0.228-0.906,0.386-1.178,0.882
							C287.215,129.049,287.272,129.175,287.382,129.204L287.382,129.204z"/>
					</g>
					<g>
						<path style="fill:#232323;" d="M222.543,285.796c-0.331,5.732-0.413,11.467-0.512,17.207
							c-0.085,4.941,0.016,9.986-1.109,14.83c-0.6,2.582-1.584,5.032-3.108,7.21c0.481,0.118,0.962,0.236,1.443,0.353
							c0.006-0.423,0.856-0.292,1.059-0.14c0.594,0.444,0.54,1.534,0.508,2.181c-0.098,2.024-0.492,4.063-0.994,6.023
							c-1.035,4.035-2.776,7.855-5.122,11.297c-0.625,0.917,0.894,1.752,1.511,0.835c2.237-3.33,3.925-7.024,4.969-10.899
							c0.527-1.954,0.879-3.948,1.08-5.961c0.158-1.575,0.391-3.778-1.153-4.792c-1.284-0.843-3.374-0.198-3.396,1.495
							c-0.011,0.832,1.041,0.931,1.443,0.353c2.797-4.017,3.726-8.915,4.071-13.712c0.392-5.447,0.304-10.951,0.363-16.409
							c0.035-3.303,0.023-6.593-0.062-9.895C223.518,285.125,222.58,285.167,222.543,285.796L222.543,285.796z"/>
					</g>
					<g>
						<path style="fill:#232323;" d="M270.931,298.781c-0.647,1.878-0.185,4.103,0.047,6.028c0.25,2.072,0.523,4.141,0.821,6.207
							c0.595,4.123,1.282,8.233,2.066,12.324c0.183-0.342,0.366-0.684,0.549-1.026c-1.041,0.31-2.085,0.185-3.029-0.351
							c-0.686-0.39-1.324,0.295-1.198,0.969c0.818,4.356,1.689,8.792,3.945,12.67c2.138,3.676,5.296,6.609,8.467,9.381
							c1.005,0.879,2.016,1.751,3.025,2.627c1.048,0.91,2.056,1.906,3.258,2.611c0.597,0.35,1.45-0.439,0.979-1.029
							c-0.746-0.935-1.651-1.671-2.552-2.452c-0.899-0.779-1.798-1.558-2.696-2.337c-1.577-1.368-3.151-2.743-4.626-4.221
							c-1.436-1.44-2.779-2.973-3.887-4.682c-1.18-1.819-2.027-3.8-2.663-5.868c-0.723-2.35-1.192-4.769-1.657-7.18
							c-0.399,0.323-0.798,0.646-1.198,0.969c1.322,0.743,2.857,0.909,4.308,0.47c0.456-0.138,0.635-0.589,0.549-1.026
							c-0.8-4.068-1.517-8.151-2.136-12.25c-0.306-2.025-0.589-4.053-0.85-6.085c-0.243-1.893-0.297-4.111-1.296-5.783
							C271.099,298.647,270.964,298.684,270.931,298.781L270.931,298.781z"/>
					</g>
					<g>
						<path style="fill:#232323;" d="M216.922,341.356c0.67,0.409,1.079-0.631,0.852-1.151c-0.65-1.489-2.519,0.141-3.156,0.715
							c-2.411,2.173-4.456,4.763-6.264,7.449c-3.714,5.52-6.251,11.826-7.859,18.262c-3.771,15.091-2.163,30.8,0.325,45.958
							c0.33,2.011,0.676,4.019,1.029,6.026c0.167,0.949,0.335,1.899,0.504,2.848c0.153,0.858,0.244,1.767,0.631,2.559
							c0.767,1.569,2.629,1.985,4.207,2.257c1.871,0.322,3.771,0.314,5.639-0.02c1.659-0.297,3.217-0.935,4.827-1.41
							c1.347-0.397,2.979-0.845,4.34-0.264c1.563,0.667,1.901,2.454,2.094,3.963c0.258,2.023,0.481,4.05,0.732,6.074
							c0.124,0.997,0.251,1.994,0.376,2.991c0.109,0.864,0.154,1.788,0.44,2.617c0.555,1.609,1.935,2.233,3.484,2.607
							c3.356,0.81,6.561,1.988,9.634,3.565c6.168,3.165,11.595,7.56,16.739,12.163c2.645,2.367,5.269,4.774,7.799,7.264
							c2.479,2.44,4.819,5.074,6.376,8.214c1.689,3.405,2.156,7.264,2.548,10.997c0.43,4.094,0.847,8.189,1.27,12.283
							c0.099,0.963,0.202,1.925,0.311,2.887c0.119,1.048,0.419,2.022,0.712,3.033c0.195,0.672,1.098,0.445,1.146-0.184
							c0.074-0.97,0.182-1.926,0.091-2.897c-0.095-1.017-0.197-2.032-0.302-3.048c-0.204-1.978-0.408-3.957-0.612-5.935
							c-0.383-3.713-0.656-7.46-1.29-11.142c-0.593-3.441-1.724-6.726-3.71-9.62c-1.92-2.798-4.352-5.194-6.826-7.498
							c-9.456-8.807-19.551-18.297-32.426-21.581c-0.738-0.188-1.538-0.293-2.236-0.606c-0.804-0.361-1.061-1.029-1.194-1.854
							c-0.307-1.894-0.488-3.815-0.741-5.717c-0.239-1.793-0.438-3.597-0.73-5.382c-0.241-1.472-0.692-3.004-1.878-4.001
							c-2.324-1.952-5.522-0.899-8.073-0.043c-1.672,0.561-3.315,1.057-5.09,1.146c-1.727,0.086-3.831-0.018-5.412-0.797
							c-0.789-0.389-0.975-1.092-1.135-1.895c-0.183-0.919-0.334-1.847-0.499-2.77c-0.35-1.952-0.695-3.905-1.027-5.86
							c-0.662-3.894-1.268-7.798-1.747-11.719c-0.942-7.714-1.399-15.525-0.767-23.284c1.035-12.697,5.277-25.461,13.889-35.053
							c0.521-0.58,1.043-1.156,1.578-1.723c0.238-0.252,0.461-0.525,0.721-0.755c0.13-0.115,0.436-0.372,0.649-0.39
							c0.558-0.046,0.376,0.533,0.12,0.488C216.874,341.101,216.798,341.28,216.922,341.356L216.922,341.356z"/>
					</g>
					<g>
						<path style="fill:#232323;" d="M214.456,345.582c1.42,9.417,5.946,18.253,11.262,26.041
							c5.155,7.553,11.161,14.481,16.322,22.03c2.677,3.916,5.048,7.999,7.088,12.282c2.18,4.579,4.162,9.259,6.175,13.914
							c3.945,9.12,7.727,18.331,10.714,27.816c2.944,9.35,5.104,18.984,5.732,28.784c0.079,1.239,0.156,2.474,0.259,3.711
							c0.078,0.932,1.422,0.902,1.452-0.036c0.155-4.897-0.565-9.889-1.389-14.706c-0.832-4.869-1.981-9.68-3.354-14.424
							c-2.762-9.544-6.415-18.803-10.305-27.937c-1.949-4.577-3.943-9.137-5.971-13.68c-2.012-4.506-4.169-8.927-6.799-13.109
							c-4.872-7.747-10.841-14.714-16.225-22.096c-2.693-3.693-5.265-7.49-7.451-11.508c-2.35-4.32-4.24-8.906-5.624-13.625
							c-0.351-1.196-0.692-2.395-1.037-3.592C215.173,344.992,214.381,345.088,214.456,345.582L214.456,345.582z"/>
					</g>
					<g>
						<path style="fill:#232323;" d="M276.589,338.945c3.492,1.22,7.071,2.585,10.094,4.775c0.665,0.482,1.293,1.062,1.575,1.852
							c0.306,0.857,0.317,1.761,0.281,2.66c-0.079,1.938-0.248,3.876-0.429,5.807c-0.737,7.874-2.237,15.662-4.109,23.339
							c-1.883,7.72-4.152,15.338-6.474,22.935c-2.345,7.672-4.785,15.323-6.87,23.07c-2.09,7.767-3.706,15.742-3.647,23.819
							c0.007,0.996,0.042,1.992,0.1,2.987c0.064,1.087,1.757,1.05,1.694-0.042c-0.482-8.237,0.912-16.428,2.908-24.393
							c1.982-7.908,4.476-15.684,6.861-23.477c2.371-7.748,4.71-15.512,6.666-23.378c1.941-7.809,3.491-15.721,4.311-23.731
							c0.207-2.025,0.357-4.055,0.451-6.088c0.081-1.756,0.132-3.557-1.006-5.012c-1.067-1.365-2.746-2.242-4.264-3.011
							c-1.656-0.839-3.396-1.549-5.186-2.043c-0.939-0.259-1.851-0.491-2.816-0.631C276.36,338.33,276.236,338.821,276.589,338.945
							L276.589,338.945z"/>
					</g>
					<g>
						<path style="fill:#232323;" d="M288.542,343.983c2.279,1.814,4.397,3.764,6.269,6.001c1.833,2.191,3.413,4.605,4.757,7.124
							c3.051,5.72,4.759,12.067,5.814,18.435c1.136,6.854,1.601,13.845,1.699,20.787c0.099,7.003-0.267,14.015-1.105,20.968
							c-0.234,1.943-0.504,3.881-0.811,5.814c-0.111,0.697-0.118,1.738-0.563,2.328c-0.454,0.602-1.526,0.556-2.193,0.605
							c-3.878,0.289-7.763-0.058-11.534-1c-0.648-0.162-1.263,0.469-1.06,1.114c1.28,4.056,2.645,8.49,1.092,12.669
							c-0.722,1.942-1.891,3.713-2.895,5.516c-1.035,1.858-2.031,3.739-2.988,5.639c-3.781,7.508-6.973,15.326-9.484,23.35
							c-1.428,4.563-3.004,9.528-2.115,14.343c0.163,0.882,1.565,0.62,1.535-0.246c-0.076-2.191,0.042-4.385,0.449-6.541
							c0.407-2.153,1.021-4.26,1.665-6.352c1.255-4.076,2.666-8.105,4.256-12.062c1.587-3.948,3.336-7.83,5.249-11.632
							c0.956-1.9,1.951-3.781,2.986-5.64c1.004-1.805,2.123-3.566,2.886-5.492c1.839-4.643,0.492-9.511-0.946-14.063
							c-0.353,0.371-0.707,0.743-1.06,1.114c3.516,0.876,7.158,1.268,10.78,1.118c1.444-0.06,3.428,0.031,4.528-1.089
							c1.064-1.083,1.077-2.952,1.289-4.358c1.097-7.265,1.685-14.606,1.759-21.953c0.074-7.346-0.346-14.719-1.353-21.998
							c-0.946-6.836-2.525-13.616-5.51-19.87c-2.856-5.984-7.153-11.829-12.981-15.198
							C288.618,343.217,288.221,343.728,288.542,343.983L288.542,343.983z"/>
					</g>
					<g>
						<path style="fill:#232323;" d="M216.122,345.783c-0.534-0.01-1.082-0.108-1.614-0.074c-0.343,0.022-0.595,0.41-0.389,0.72
							c1.174,1.765,3.245,2.308,5.175,2.843c2.127,0.589,4.278,1.07,6.452,1.449c4.38,0.764,8.829,1.151,13.275,1.16
							c8.861,0.019,17.74-1.504,26.096-4.451c2.35-0.828,4.656-1.775,6.916-2.822c1.143-0.53,2.273-1.089,3.388-1.676
							c1.111-0.585,2.255-1.156,3.261-1.91c0.843-0.632,0.09-1.794-0.845-1.369c-1.971,0.895-3.822,2.071-5.777,3.011
							c-1.919,0.922-3.88,1.756-5.872,2.507c-3.996,1.508-8.118,2.682-12.307,3.515c-8.389,1.668-17.094,1.993-25.575,0.844
							c-2.36-0.32-4.701-0.759-7.024-1.282c-2.152-0.485-4.741-0.889-6.437-2.409c-0.063,0.264-0.126,0.529-0.189,0.793
							c0.517-0.169,0.992-0.463,1.494-0.673C216.241,345.921,216.228,345.785,216.122,345.783L216.122,345.783z"/>
					</g>
					<g>
						<path style="fill:#232323;" d="M217.83,356.939c1.926,1.298,4.122,2.033,6.341,2.672c2.224,0.641,4.485,1.166,6.767,1.556
							c4.577,0.783,9.233,1.093,13.874,0.923c9.302-0.341,18.507-2.574,26.935-6.521c2.33-1.091,4.592-2.332,6.771-3.7
							c1.118-0.701,2.214-1.438,3.285-2.208c1.071-0.77,2.228-1.494,2.971-2.597c0.321-0.477-0.254-1.195-0.791-0.979
							c-1.087,0.436-1.934,1.213-2.876,1.898c-0.911,0.662-1.841,1.299-2.787,1.911c-1.891,1.223-3.847,2.344-5.856,3.362
							c-4.042,2.048-8.286,3.673-12.659,4.857c-8.739,2.365-17.986,3-26.96,1.763c-2.486-0.343-4.955-0.819-7.386-1.441
							c-2.491-0.638-4.916-1.514-7.453-1.944C217.731,356.445,217.601,356.784,217.83,356.939L217.83,356.939z"/>
					</g>
					<g>
						<path style="fill:#232323;" d="M204.714,355.286c-4.112,3.978-8.09,8.083-12.406,11.847c-4.323,3.77-8.872,7.279-13.6,10.526
							c-4.748,3.259-9.687,6.241-14.779,8.931c-5.055,2.671-10.279,4.862-15.526,7.112c-2.517,1.079-4.988,2.29-7.113,4.041
							c-2.284,1.882-3.813,4.388-5.343,6.88c-3.313,5.396-6.429,10.855-8.572,16.835c-2.112,5.897-3.404,12.053-4.378,18.229
							c-1.001,6.346-1.771,12.734-2.544,19.111c-1.599,13.183-2.824,26.521-1.57,39.79c0.154,1.624,0.385,3.184,0.783,4.767
							c0.185,0.737,1.327,0.536,1.306-0.21c-0.093-3.315-0.534-6.611-0.691-9.927c-0.155-3.269-0.177-6.543-0.104-9.814
							c0.147-6.639,0.704-13.263,1.442-19.86c0.72-6.435,1.535-12.865,2.43-19.277c0.853-6.116,1.88-12.232,3.591-18.174
							c1.734-6.024,4.344-11.599,7.528-16.987c1.542-2.609,3.03-5.371,4.907-7.758c1.755-2.232,4.058-3.8,6.581-5.051
							c2.518-1.249,5.169-2.213,7.745-3.33c2.574-1.116,5.117-2.302,7.624-3.561c5.036-2.529,9.922-5.352,14.63-8.449
							c9.447-6.214,18.281-13.523,25.973-21.82c0.961-1.036,1.842-2.14,2.712-3.252C205.681,355.45,205.122,354.891,204.714,355.286
							L204.714,355.286z"/>
					</g>
					<g>
						<path style="fill:#232323;" d="M143.261,396.663c2.032,0.958,3.059,2.926,4.09,4.813c1.183,2.164,2.151,4.439,3.025,6.743
							c1.781,4.697,3.251,9.526,4.765,14.314c3.157,9.982,5.885,20.082,6.968,30.522c0.305,2.942,0.524,5.893,0.69,8.846
							c0.085,1.519,0.13,3.04,0.228,4.558c0.047,0.725,0.074,1.469,0.177,2.188c0.114,0.792,0.302,1.559,0.388,2.361
							c0.056,0.522,0.803,0.513,0.82-0.02c0.022-0.693,0.061-1.359,0.165-2.043c0.107-0.704,0.052-1.445,0.045-2.155
							c-0.014-1.356-0.101-2.713-0.171-4.066c-0.143-2.749-0.322-5.497-0.581-8.238c-0.509-5.365-1.38-10.682-2.605-15.93
							c-1.214-5.205-2.728-10.334-4.346-15.426c-1.585-4.987-3.142-10.01-4.989-14.908c-0.979-2.597-2.102-5.145-3.486-7.554
							c-1.091-1.898-2.677-4.263-5.081-4.416C143.146,396.239,143.07,396.573,143.261,396.663L143.261,396.663z"/>
					</g>
					<g>
						<path style="fill:#232323;" d="M163.752,475.727c-0.078,0.624,0.058,1.239,0.155,1.856c0.109,0.696,0.183,1.393,0.275,2.091
							c0.185,1.406,0.317,2.809,0.417,4.223c0.097,1.376,0.147,2.754,0.141,4.134c-0.003,0.709,0.002,1.418-0.014,2.126
							c-0.017,0.753,0.048,1.486,0.034,2.236c-0.008,0.438,0.702,0.529,0.777,0.086c0.113-0.675,0.284-1.313,0.339-1.996
							c0.06-0.747,0.112-1.497,0.118-2.246c0.012-1.457-0.054-2.919-0.196-4.369c-0.135-1.377-0.371-2.756-0.649-4.11
							c-0.15-0.73-0.362-1.447-0.564-2.164c-0.183-0.649-0.355-1.329-0.761-1.877C163.806,475.692,163.757,475.69,163.752,475.727
							L163.752,475.727z"/>
					</g>
					<g>
						<path style="fill:#232323;" d="M301.402,359.05c2.359,1.709,4.691,3.434,7.119,5.047c2.344,1.556,4.703,3.088,7.09,4.578
							c4.845,3.025,9.753,5.947,14.702,8.797c4.987,2.872,10.048,5.612,15.158,8.258c2.536,1.313,5.085,2.597,7.648,3.856
							c1.232,0.605,2.473,1.194,3.704,1.801c1.132,0.558,2.263,1.167,3.102,2.134c0.851,0.982,1.396,2.224,1.958,3.383
							c0.601,1.236,1.18,2.483,1.734,3.741c1.121,2.543,2.152,5.125,3.1,7.737c1.898,5.23,3.46,10.581,4.734,15.997
							c2.631,11.188,4.008,22.629,4.631,34.096c0.653,12.009,0.42,24.021,0.128,36.036c-0.036,1.477,0.067,2.953,0.145,4.427
							c0.035,0.665,1.133,0.858,1.223,0.135c0.748-6.025,0.728-12.132,0.797-18.198c0.069-6.099,0.019-12.2-0.223-18.295
							c-0.463-11.696-1.649-23.383-4.05-34.849c-2.315-11.052-5.789-21.878-10.753-32.034c-0.573-1.172-1.152-2.337-1.995-3.342
							c-0.82-0.978-1.893-1.689-3.016-2.278c-2.507-1.316-5.098-2.484-7.63-3.753c-5.185-2.599-10.318-5.294-15.408-8.074
							c-5.09-2.78-10.134-5.634-15.112-8.609c-4.975-2.973-9.858-6.093-14.812-9.098c-1.199-0.727-2.414-1.423-3.605-2.164
							C301.344,358.113,301.015,358.769,301.402,359.05L301.402,359.05z"/>
					</g>
					<g>
						<path style="fill:#232323;" d="M358.451,393.25c0.105,1.954,0.42,3.867,0.69,5.803c0.264,1.897,0.515,3.796,0.741,5.697
							c0.456,3.845,0.822,7.703,1.106,11.564c0.563,7.644,0.762,15.319,0.597,22.982c-0.046,2.119-0.119,4.238-0.202,6.357
							c-0.042,1.056-0.075,2.116-0.053,3.173c0.024,1.13-0.009,2.286,0.113,3.408c0.041,0.374,0.572,0.467,0.677,0.075
							c0.25-0.933,0.339-1.903,0.503-2.855c0.163-0.947,0.247-1.907,0.328-2.864c0.165-1.95,0.221-3.913,0.276-5.868
							c0.108-3.832,0.124-7.666,0.047-11.498c-0.155-7.746-0.704-15.489-1.663-23.177c-0.273-2.186-0.57-4.371-0.912-6.547
							c-0.339-2.159-0.656-4.308-1.285-6.404C359.256,392.572,358.421,392.687,358.451,393.25L358.451,393.25z"/>
					</g>
					<g>
						<path style="fill:#232323;" d="M361.557,469.627c-0.499,1.344-0.865,2.716-0.978,4.151c-0.114,1.447-0.09,2.9-0.034,4.348
							c0.056,1.459,0.157,2.916,0.156,4.376c-0.001,0.741-0.018,1.485-0.074,2.224c-0.052,0.697-0.32,1.502-0.23,2.191
							c0.05,0.381,0.522,0.533,0.739,0.181c0.35-0.568,0.364-1.391,0.438-2.044c0.08-0.707,0.127-1.418,0.133-2.129
							c0.013-1.458-0.071-2.919-0.173-4.373c-0.206-2.91-0.491-6.011,0.258-8.866C361.832,469.531,361.61,469.485,361.557,469.627
							L361.557,469.627z"/>
					</g>
					<g>
						<path style="fill:#232323;" d="M277.454,461.948c0.484-1.312,1.088-2.632,1.664-3.911c0.578-1.283,1.07-2.606,1.628-3.898
							c0.545-1.263,1.167-2.488,1.74-3.737c0.288-0.629,0.529-1.276,0.821-1.901c0.286-0.612,0.6-1.22,0.761-1.88
							c0.063-0.259-0.253-0.413-0.437-0.24c-0.495,0.466-0.857,1.053-1.218,1.626c-0.369,0.586-0.759,1.142-1.095,1.75
							c-0.699,1.265-1.272,2.616-1.831,3.947c-0.538,1.28-1.056,2.581-1.417,3.922c-0.178,0.663-0.366,1.319-0.514,1.99
							c-0.166,0.751-0.242,1.508-0.391,2.261C277.128,462.067,277.389,462.124,277.454,461.948L277.454,461.948z"/>
					</g>
					<g>
						<path style="fill:#232323;" d="M212.507,349.577c-0.197,0.295-0.378,0.623-0.61,0.892c-0.185,0.215-0.349,0.349-0.494,0.596
							c-0.309,0.527-0.618,1.055-0.885,1.605c-0.509,1.049-0.988,2.109-1.408,3.197c-0.428,1.108-0.792,2.237-1.121,3.378
							c-0.171,0.595-0.279,1.187-0.393,1.795c-0.102,0.545-0.267,1.163-0.188,1.716c0.054,0.379,0.503,0.515,0.725,0.177
							c0.307-0.469,0.428-1.078,0.599-1.609c0.165-0.513,0.357-1.011,0.508-1.53c0.331-1.139,0.71-2.264,1.099-3.384
							c0.384-1.106,0.777-2.21,1.221-3.293c0.22-0.536,0.404-1.082,0.628-1.616c0.121-0.289,0.122-0.453,0.19-0.765
							c0.076-0.348,0.246-0.688,0.381-1.017C212.831,349.546,212.612,349.42,212.507,349.577L212.507,349.577z"/>
					</g>
					<g>
						<path style="fill:#232323;" d="M151.993,403.199c0.761,2.055,2.377,3.799,3.603,5.594c1.275,1.867,2.49,3.78,3.511,5.799
							c1.05,2.076,1.763,4.218,2.41,6.445c0.327,1.123,0.555,2.27,0.786,3.418c0.226,1.127,0.312,2.478,0.829,3.511
							c0.159,0.317,0.732,0.237,0.782-0.122c0.159-1.142-0.16-2.459-0.315-3.597c-0.167-1.222-0.361-2.448-0.607-3.656
							c-0.47-2.311-1.374-4.542-2.438-6.639c-1.056-2.082-2.311-4.06-3.671-5.955c-1.286-1.79-2.612-3.883-4.435-5.166
							C152.223,402.672,151.902,402.952,151.993,403.199L151.993,403.199z"/>
					</g>
				</g>
				<g>
					<path style="fill:#232323;" d="M209.092,350.562c-3.776-13.457-8.864-26.593-14.518-39.365
						c-5.65-12.764-12.091-25.166-19.253-37.146c-6.789-11.357-14.101-22.537-22.46-32.809
						c-7.637-9.385-16.433-18.135-26.996-24.192c-5.17-2.965-10.762-5.234-16.592-6.507c-5.8-1.266-12.078-1.64-17.769,0.336
						c-2.802,0.973-5.381,2.533-7.44,4.679c-2.115,2.205-3.634,4.907-4.756,7.731c-2.464,6.203-3.474,13.072-3.765,19.709
						c-0.612,13.937,2.575,27.915,7.962,40.715c5.425,12.892,13.013,24.735,21.33,35.935c8.194,11.034,16.917,21.765,26.121,31.973
						c9.062,10.049,18.831,19.519,29.753,27.541c2.642,1.94,5.346,3.793,8.115,5.547c0.915,0.58,1.72-0.895,0.811-1.471
						c-11.255-7.128-21.357-15.899-30.635-25.43c-9.362-9.617-17.952-19.975-26.26-30.507c-8.445-10.706-16.49-21.815-22.871-33.896
						c-6.431-12.178-11.091-25.426-12.426-39.189c-0.663-6.839-0.507-13.77,0.696-20.542c1.072-6.035,2.76-12.607,7.16-17.13
						c4.233-4.352,10.469-5.66,16.341-5.452c5.867,0.208,11.749,1.815,17.124,4.124c10.958,4.707,20.209,12.607,28.149,21.377
						c8.558,9.454,15.818,20.071,22.636,30.821c7.332,11.562,13.979,23.556,19.951,35.875c5.997,12.37,11.268,25.082,15.826,38.051
						c1.097,3.121,2.182,6.247,3.258,9.375C208.695,351.038,209.185,350.892,209.092,350.562L209.092,350.562z"/>
				</g>
				<g>
					<path style="fill:#232323;" d="M296.397,349.999c1.695-6.318,3.926-12.455,6.726-18.366c2.792-5.895,6.002-11.584,9.259-17.231
						c6.568-11.389,13.118-22.813,20.419-33.754c7.035-10.543,14.819-20.645,23.888-29.528c8.348-8.177,17.775-15.335,28.246-20.577
						c5.295-2.651,10.89-4.862,16.649-6.27c5.785-1.414,12.246-1.686,17.225,2.093c3.99,3.028,6.382,7.772,7.369,12.605
						c1.213,5.936-0.007,12.055-1.945,17.698c-2.059,5.994-4.958,11.697-7.721,17.389c-2.595,5.345-5.264,10.655-8.029,15.914
						c-5.535,10.527-11.457,20.858-17.948,30.826c-6.417,9.855-13.397,19.35-21.095,28.245c-7.674,8.868-16.057,17.153-25.214,24.49
						c-2.235,1.791-4.531,3.501-6.807,5.238c-0.498,0.38-0.585,0.992-0.152,1.467c0.963,1.058,2.743,0.493,3.081-0.837
						c0.279-1.098-1.426-1.522-1.705-0.426c0.019-0.074-0.024-0.061-0.05-0.006c-0.005,0.01,0.132,0.133-0.044-0.081
						c-0.051,0.489-0.102,0.978-0.152,1.467c4.945-3.386,9.593-7.27,14.067-11.251c4.474-3.981,8.753-8.18,12.842-12.555
						c8.214-8.789,15.651-18.284,22.472-28.187c6.863-9.963,13.097-20.35,18.89-30.967c5.859-10.737,11.443-21.698,16.429-32.87
						c2.707-6.064,5.025-12.417,5.348-19.113c0.253-5.236-0.975-10.613-3.796-15.063c-2.857-4.507-7.334-7.72-12.678-8.44
						c-6.355-0.856-12.819,1.194-18.71,3.387c-11.138,4.146-21.303,10.532-30.364,18.178c-9.55,8.058-17.79,17.51-25.15,27.581
						c-7.932,10.854-14.853,22.406-21.564,34.042c-6.611,11.461-13.652,22.925-17.999,35.488c-1.05,3.034-1.893,6.087-2.447,9.25
						C295.663,350.262,296.282,350.426,296.397,349.999L296.397,349.999z"/>
				</g>
				<g>
					<path style="fill:#232323;" d="M155.175,392.183c-3.96-3.406-9.049-5.263-14.029-6.608c-5.409-1.46-10.971-2.39-16.47-3.438
						c-6.035-1.149-12.062-2.404-18.124-3.404c-5.721-0.944-11.665-1.49-17.365-0.123c-4.456,1.069-8.812,3.323-11.81,6.851
						c-2.95,3.472-4.276,7.965-3.837,12.487c0.444,4.568,2.424,8.925,5.282,12.486c3.087,3.846,7.239,6.656,11.683,8.72
						c4.768,2.215,9.857,3.629,14.948,4.88c5.615,1.38,11.407,2.932,17.24,2.626c0.71-0.037,1.418-0.104,2.122-0.204
						c0.755-0.108,1.44-0.355,2.148-0.635c0.612-0.241,0.553-1.287-0.196-1.223c-2.851,0.241-5.646,0.509-8.51,0.245
						c-2.883-0.266-5.728-0.886-8.543-1.544c-4.931-1.153-9.885-2.335-14.643-4.088c-4.537-1.672-9.012-3.957-12.565-7.285
						c-3.186-2.984-5.604-6.855-6.726-11.085c-1.09-4.11-0.794-8.537,1.404-12.238c2.249-3.787,6.13-6.349,10.235-7.745
						c5.08-1.727,10.557-1.648,15.822-0.973c5.876,0.754,11.697,2.023,17.518,3.113c5.471,1.024,10.973,1.936,16.417,3.098
						c4.946,1.055,9.812,2.457,14.334,4.756c1.119,0.569,2.217,1.196,3.291,1.844C155.108,392.882,155.452,392.422,155.175,392.183
						L155.175,392.183z"/>
				</g>
				<g>
					<path style="fill:#232323;" d="M360.267,393.025c0.614-1.857,1.511-3.734,2.686-5.307c1.222-1.637,2.753-3.033,4.344-4.302
						c3.431-2.736,7.13-5.21,10.975-7.324c3.902-2.146,8.045-3.88,12.39-4.893c4.111-0.959,8.666-1.402,12.815-0.42
						c2.027,0.48,3.947,1.366,5.433,2.853c1.475,1.477,2.438,3.395,3.08,5.363c1.401,4.287,1.498,8.901,0.637,13.307
						c-1.765,9.028-7.275,16.659-13.506,23.197c-6.469,6.789-13.748,12.811-21.59,17.949c-0.973,0.638-1.955,1.261-2.945,1.872
						c-1.081,0.667-0.047,2.352,1.038,1.682c8.405-5.187,16.21-11.356,23.185-18.35c6.695-6.714,12.845-14.499,15.276-23.836
						c1.217-4.676,1.469-9.632,0.37-14.357c-1.02-4.386-3.369-8.618-7.641-10.514c-4.116-1.827-8.966-1.756-13.339-1.092
						c-4.595,0.699-8.992,2.216-13.164,4.244c-4.245,2.064-8.221,4.639-11.975,7.493c-1.725,1.311-3.409,2.689-4.88,4.286
						c-1.385,1.504-2.689,3.251-3.272,5.237c-0.284,0.969-0.311,1.889-0.171,2.882C360.033,393.139,360.219,393.169,360.267,393.025
						L360.267,393.025z"/>
				</g>
				<g>
					<path style="fill:#232323;" d="M125.086,303.357c2.051,2.582,4.012,5.236,6.062,7.823c2.041,2.574,4.179,5.075,6.32,7.566
						c4.322,5.03,8.733,9.989,13.226,14.867c1.26,1.368,2.521,2.732,3.822,4.061c1.302,1.331,2.664,2.582,4.024,3.852
						c0.348,0.325,0.781-0.173,0.495-0.52c-2.12-2.573-4.266-5.094-6.513-7.559c-2.234-2.451-4.461-4.907-6.68-7.371
						c-4.379-4.864-8.736-9.753-13.057-14.668c-2.448-2.785-5.065-5.42-7.5-8.211C125.189,303.087,124.994,303.242,125.086,303.357
						L125.086,303.357z"/>
				</g>
				<g>
					<path style="fill:#232323;" d="M175.033,307.243c1.449,4.853,3.674,9.434,6.227,13.795c2.552,4.358,5.378,8.547,7.859,12.948
						c1.415,2.51,2.711,5.084,3.967,7.676c0.23,0.474,0.971,0.112,0.826-0.373c-1.449-4.843-4.142-9.238-6.797-13.499
						c-2.66-4.269-5.482-8.472-7.861-12.907c-1.362-2.539-2.585-5.122-3.497-7.86C175.604,306.563,174.893,306.774,175.033,307.243
						L175.033,307.243z"/>
				</g>
				<g>
					<path style="fill:#232323;" d="M70.251,287.104c0.664,1.943,1.247,3.913,1.963,5.839c0.703,1.891,1.49,3.747,2.301,5.594
						c0.797,1.815,1.613,3.624,2.495,5.399c0.455,0.915,0.961,1.817,1.456,2.713c0.491,0.889,0.951,1.839,1.561,2.653
						c0.138,0.184,0.47,0.071,0.388-0.175c-0.305-0.919-0.78-1.795-1.182-2.674c-0.421-0.921-0.825-1.849-1.241-2.77
						c-0.838-1.856-1.737-3.684-2.569-5.543c-0.81-1.809-1.585-3.632-2.382-5.446c-0.832-1.894-1.725-3.756-2.483-5.682
						C70.484,286.823,70.184,286.907,70.251,287.104L70.251,287.104z"/>
				</g>
				<g>
					<path style="fill:#232323;" d="M74.922,420.037c1.632,3.053,4.07,5.697,6.718,7.901c2.655,2.21,5.635,4.052,8.819,5.393
						c1.825,0.768,3.682,1.316,5.65,1.564c0.235,0.03,0.311-0.272,0.089-0.356c-3.191-1.206-6.383-2.442-9.336-4.167
						c-2.91-1.7-5.583-3.816-7.937-6.227c-1.333-1.365-2.567-2.817-3.792-4.279C75.028,419.741,74.853,419.907,74.922,420.037
						L74.922,420.037z"/>
				</g>
				<g>
					<path style="fill:#232323;" d="M102.374,398.489c3.672,1.003,7.31,2.131,10.981,3.142c1.815,0.5,3.63,0.996,5.445,1.494
						c0.908,0.249,1.821,0.471,2.734,0.701c0.882,0.222,1.795,0.543,2.705,0.605c0.273,0.019,0.349-0.387,0.124-0.505
						c-0.807-0.424-1.763-0.622-2.632-0.887c-0.862-0.263-1.721-0.53-2.591-0.767c-1.856-0.505-3.714-0.995-5.58-1.462
						c-3.695-0.927-7.428-1.662-11.151-2.457C102.32,398.333,102.287,398.465,102.374,398.489L102.374,398.489z"/>
				</g>
				<g>
					<path style="fill:#232323;" d="M331.147,350.677c2.52-4.953,5.184-9.831,7.727-14.774c2.526-4.91,5.033-9.828,7.554-14.74
						c1.439-2.805,2.856-5.616,4.24-8.448c0.143-0.293-0.279-0.529-0.444-0.246c-2.799,4.803-5.435,9.705-7.979,14.65
						c-1.272,2.473-2.545,4.946-3.782,7.437c-1.216,2.45-2.501,4.888-3.607,7.391c-1.274,2.883-2.588,5.757-3.914,8.617
						C330.879,350.699,331.078,350.812,331.147,350.677L331.147,350.677z"/>
				</g>
				<g>
					<path style="fill:#232323;" d="M391.537,244.683c-1.17,1.669-2.1,3.566-3.12,5.331c-0.992,1.718-2.023,3.413-3.079,5.092
						c-1.057,1.68-2.173,3.316-3.268,4.971c-0.546,0.826-1.102,1.644-1.672,2.453c-0.585,0.831-1.403,1.695-1.809,2.626
						c-0.108,0.247,0.164,0.626,0.432,0.412c0.767-0.614,1.342-1.565,1.932-2.347c0.595-0.79,1.174-1.592,1.762-2.388
						c1.221-1.656,2.325-3.414,3.404-5.165c1.08-1.752,2.097-3.544,3.067-5.36c0.94-1.76,1.968-3.63,2.568-5.54
						C391.796,244.631,391.608,244.582,391.537,244.683L391.537,244.683z"/>
				</g>
				<g>
					<path style="fill:#232323;" d="M429.531,278.351c-1.525,4.503-2.758,9.1-4.339,13.586c-0.794,2.254-1.704,4.455-2.581,6.676
						c-0.427,1.08-0.87,2.151-1.339,3.214c-0.465,1.053-1.15,2.164-1.403,3.288c-0.071,0.316,0.354,0.597,0.582,0.32
						c0.731-0.884,1.173-2.113,1.659-3.146c0.525-1.115,1.052-2.235,1.542-3.365c0.939-2.166,1.759-4.392,2.536-6.62
						c1.581-4.53,2.955-9.156,3.474-13.939C429.67,278.286,429.553,278.285,429.531,278.351L429.531,278.351z"/>
				</g>
				<g>
					<path style="fill:#232323;" d="M350.471,241.695c1.866-3.232,4.364-6.129,6.997-8.76c2.674-2.673,5.622-5.063,8.639-7.334
						c1.657-1.246,3.364-2.471,4.928-3.833c0.134-0.117-0.046-0.319-0.19-0.235c-3.243,1.887-6.267,4.276-9.153,6.663
						c-2.925,2.419-5.751,5.076-8.029,8.127c-1.249,1.672-2.31,3.476-3.247,5.34C350.398,241.701,350.45,241.73,350.471,241.695
						L350.471,241.695z"/>
				</g>
				<g>
					<path style="fill:#232323;" d="M403.563,362.089c1.647-0.288,3.218-0.492,4.887-0.225c1.585,0.254,3.097,0.796,4.503,1.565
						c1.452,0.795,2.763,1.805,4.012,2.886c0.607,0.526,1.216,1.046,1.813,1.584c0.609,0.549,1.195,1.189,1.91,1.598
						c0.289,0.165,0.578-0.178,0.427-0.449c-0.433-0.779-1.145-1.437-1.757-2.077c-0.605-0.631-1.219-1.255-1.876-1.832
						c-1.334-1.172-2.807-2.244-4.399-3.038c-1.537-0.766-3.208-1.272-4.923-1.405c-1.608-0.125-3.414,0.096-4.762,1.025
						C403.198,361.858,403.341,362.127,403.563,362.089L403.563,362.089z"/>
				</g>
				<g>
					<path style="fill:#232323;" d="M234.103,137.691c-0.141-4.002-0.404-7.997-0.35-12.005c0.053-3.938,0.32-7.88,0.837-11.785
						c1.044-7.885,3.007-15.648,5.737-23.116c2.677-7.325,6.12-14.375,10.182-21.03c0.994-1.628,2.026-3.233,3.096-4.812
						c0.891-1.316,2.052-2.997,3.645-3.507c1.565-0.501,2.424,0.97,2.751,2.276c0.452,1.803,0.307,3.794,0.134,5.625
						c-0.095,1.012-0.237,2.035-0.473,3.025c-0.16,0.672-0.372,1.431-0.853,1.953c-0.449,0.488-1.006,0.462-1.524,0.076
						c-0.719-0.536-1.046-1.451-1.185-2.304c-0.281-1.715-0.131-3.641,0.086-5.363c0.182-1.444,0.47-3.022,1.323-4.239
						c0.365-0.52,0.831-0.891,1.402-1.161c-0.49-0.186-0.98-0.371-1.47-0.557c1.25,4.215,1.108,8.89-0.557,12.977
						c0.57-0.014,1.141-0.028,1.712-0.042c-2.481-3.322-0.922-8.062,0.316-11.57c-0.642-0.16-1.283-0.32-1.924-0.48
						c-1.151,4.336-1.059,8.966,0.247,13.257c0.229,0.754,1.472,1.009,1.817,0.193c1.638-3.872,1.461-8.375-0.536-12.085
						c-0.38-0.705-1.33-0.536-1.712,0.042c-1.954,2.96-1.85,7.266,0.209,10.146c0.331,0.463,1.15,0.709,1.562,0.162
						c1.996-2.651,2.539-6.221,1.47-9.365c-0.322-0.948-1.623-0.888-1.911,0.047c-0.657,2.129-0.625,4.436,0.067,6.553
						c0.266,0.816,1.387,0.938,1.817,0.192c1.259-2.18,1.485-4.89,0.68-7.268c-0.325-0.96-1.611-0.875-1.911,0.047
						c-0.69,2.113-0.909,4.367-0.661,6.575c0.055,0.489,0.366,0.904,0.883,0.953c0.449,0.042,0.998-0.243,1.07-0.737
						c0.222-1.527-0.312-2.997-1.619-3.867c-0.435-0.289-1.121-0.06-1.347,0.389c-0.845,1.673-0.957,3.676-0.235,5.416
						c0.354,0.851,1.668,0.98,1.911-0.047c0.225-0.947,0.367-1.911,0.428-2.883c0.058-0.915,0.105-1.939-0.101-2.84
						c-0.182-0.793-1.014-1.486-1.828-0.999c-0.759,0.454-0.848,1.676-0.005,2.092c1.144,0.565,2.104-1.172,0.958-1.737
						c-0.025-0.012-0.05-0.025-0.075-0.037c0.157,0.194,0.313,0.388,0.47,0.582c-0.008-0.028-0.016-0.055-0.024-0.083
						c0.004,0.176,0.009,0.352,0.013,0.527c-0.008,0.014-0.016,0.028-0.024,0.042c-0.116,0.121-0.231,0.243-0.347,0.365
						c0.026-0.021,0.051-0.041,0.077-0.062c-0.166,0.049-0.331,0.098-0.497,0.148c0.031-0.001,0.062-0.002,0.094-0.003
						c-0.168-0.041-0.336-0.082-0.504-0.123c0.035,0.022,0.069,0.044,0.103,0.066c-0.122-0.116-0.243-0.232-0.364-0.347
						c0.127,0.177,0.084,0.706,0.093,0.953c0.015,0.425,0.012,0.851-0.009,1.275c-0.042,0.875-0.181,1.734-0.383,2.585
						c0.637-0.016,1.274-0.031,1.911-0.047c-0.522-1.256-0.547-2.654,0.073-3.882c-0.449,0.13-0.898,0.259-1.347,0.389
						c0.506,0.337,0.738,1.065,0.653,1.649c0.651,0.072,1.302,0.144,1.953,0.216c-0.231-2.055-0.039-4.078,0.603-6.046
						c-0.637,0.016-1.274,0.031-1.911,0.047c0.643,1.901,0.491,3.989-0.518,5.735c0.606,0.064,1.212,0.128,1.817,0.192
						c-0.589-1.804-0.6-3.685-0.04-5.498c-0.637,0.016-1.274,0.031-1.911,0.047c0.822,2.419,0.559,5.343-1.008,7.422
						c0.521,0.054,1.041,0.108,1.562,0.162c-1.684-2.355-1.756-5.726-0.16-8.144c-0.57,0.014-1.141,0.028-1.712,0.042
						c1.632,3.032,1.831,6.906,0.487,10.082c0.606,0.064,1.211,0.128,1.817,0.192c-1.207-3.964-1.285-8.197-0.221-12.202
						c0.333-1.256-1.507-1.662-1.924-0.48c-1.42,4.024-2.899,9.317-0.079,13.094c0.393,0.526,1.404,0.714,1.712-0.042
						c1.874-4.597,2.133-9.747,0.72-14.51c-0.198-0.669-0.904-0.825-1.47-0.557c-3.237,1.529-3.676,5.932-3.815,9.061
						c-0.093,2.097-0.209,4.563,1.126,6.333c1.21,1.604,3.378,2.288,4.956,0.764c1.386-1.337,1.644-3.617,1.863-5.421
						c0.269-2.209,0.426-4.505,0.014-6.706c-0.331-1.769-1.243-3.531-3.039-4.15c-1.91-0.659-3.799,0.591-5.088,1.895
						c-1.463,1.48-2.557,3.343-3.675,5.085c-1.149,1.791-2.251,3.612-3.304,5.461c-2.134,3.745-4.069,7.604-5.79,11.557
						c-3.472,7.976-6.129,16.341-7.65,24.912c-0.768,4.327-1.265,8.707-1.46,13.097c-0.194,4.36-0.105,8.853,0.545,13.173
						c0.159,1.059,0.388,2.098,0.634,3.141C233.308,138.357,234.122,138.213,234.103,137.691L234.103,137.691z"/>
				</g>
				<g>
					<path style="fill:#232323;" d="M284.063,132.216c-0.066-4.033-0.2-8.069,0.022-12.101c0.219-3.966,0.711-7.92,1.472-11.819
						c1.536-7.874,4.123-15.534,7.535-22.789c3.457-7.35,7.733-14.322,12.665-20.773c1.235-1.616,2.507-3.208,3.828-4.755
						c1.122-1.314,2.563-2.788,4.321-3.162c1.644-0.35,2.725,0.862,3.11,2.329c0.477,1.817,0.231,3.877-0.059,5.702
						c-0.165,1.04-0.367,2.093-0.693,3.096c-0.211,0.648-0.522,1.373-1.056,1.822c-0.592,0.497-1.347,0.432-1.965,0.019
						c-0.75-0.502-1.139-1.328-1.295-2.195c-0.187-1.041-0.081-2.138,0.003-3.184c0.062-0.772,0.152-1.54,0.292-2.301
						c0.259-1.408,0.657-2.945,1.605-4.061c0.441-0.519,0.969-0.923,1.611-1.162c-0.412-0.221-0.824-0.442-1.236-0.663
						c1.276,4.292,0.845,8.966-1.211,12.946c0.571-0.014,1.141-0.028,1.712-0.042c-2.629-3.299-0.773-7.942,0.753-11.316
						c-0.61-0.24-1.22-0.48-1.83-0.72c-1.488,4.26-1.555,8.946-0.236,13.257c0.247,0.807,1.411,0.951,1.817,0.192
						c2.013-3.762,1.942-8.389-0.161-12.096c-0.299-0.527-1.163-0.649-1.562-0.163c-2.382,2.908-2.593,7.325-0.285,10.352
						c0.378,0.495,1.091,0.667,1.562,0.163c2.299-2.466,3.102-6.121,1.996-9.316c-0.249-0.719-1.478-1.041-1.817-0.192
						c-0.875,2.189-1.01,4.538-0.265,6.79c0.29,0.877,1.333,0.865,1.817,0.192c1.491-2.07,1.863-4.838,1.034-7.243
						c-0.252-0.73-1.465-1.029-1.817-0.193c-0.908,2.156-1.313,4.451-1.106,6.788c0.094,1.064,1.71,1.367,1.953,0.216
						c0.328-1.551-0.333-3.071-1.676-3.905c-0.475-0.295-1.072-0.045-1.347,0.389c-1.012,1.597-1.198,3.667-0.447,5.407
						c0.384,0.89,1.599,0.939,1.911-0.047c0.295-0.932,0.489-1.879,0.593-2.85c0.097-0.911,0.204-1.954-0.004-2.858
						c-0.186-0.812-1.038-1.485-1.863-1.012c-0.771,0.443-0.908,1.678-0.028,2.09c1.153,0.54,2.115-1.195,0.958-1.737
						c-0.028-0.013-0.057-0.027-0.085-0.04c0.157,0.194,0.313,0.388,0.47,0.582c-0.008-0.028-0.016-0.056-0.025-0.083
						c0.004,0.176,0.009,0.352,0.013,0.527c-0.002,0.015-0.004,0.03-0.006,0.045c-0.116,0.121-0.231,0.243-0.347,0.365
						c0.03-0.02,0.061-0.04,0.091-0.059c-0.166,0.049-0.331,0.098-0.497,0.148c0.036,0,0.072,0,0.108,0
						c-0.168-0.041-0.336-0.082-0.504-0.123c0.039,0.023,0.077,0.046,0.116,0.069c-0.121-0.116-0.243-0.231-0.364-0.347
						c0.131,0.171,0.07,0.714,0.07,0.961c0,0.419-0.017,0.84-0.06,1.257c-0.091,0.879-0.296,1.744-0.562,2.586
						c0.637-0.016,1.274-0.031,1.911-0.047c-0.562-1.303-0.477-2.671,0.285-3.874c-0.449,0.13-0.898,0.259-1.347,0.389
						c0.569,0.354,0.848,1.035,0.71,1.687c0.651,0.072,1.302,0.144,1.953,0.216c-0.175-1.971,0.089-3.95,0.859-5.78
						c-0.606-0.064-1.212-0.128-1.817-0.193c0.676,1.961,0.337,4.032-0.871,5.709c0.606,0.064,1.212,0.128,1.817,0.193
						c-0.565-1.707-0.57-3.574,0.103-5.257c-0.606-0.064-1.212-0.128-1.817-0.193c0.879,2.537,0.304,5.403-1.533,7.373
						c0.521,0.054,1.041,0.108,1.562,0.163c-1.744-2.288-1.818-5.678,0.034-7.94c-0.52-0.054-1.041-0.108-1.562-0.163
						c1.752,3.087,1.785,6.968,0.112,10.094c0.606,0.064,1.212,0.128,1.817,0.192c-1.224-4-1.116-8.256,0.262-12.202
						c0.368-1.054-1.368-1.743-1.83-0.72c-1.805,3.992-3.805,9.427-0.704,13.319c0.438,0.549,1.337,0.684,1.712-0.042
						c2.298-4.447,2.801-9.679,1.374-14.479c-0.146-0.49-0.734-0.85-1.236-0.663c-3.607,1.345-4.519,5.393-4.858,8.822
						c-0.21,2.119-0.442,4.624,0.901,6.445c1.223,1.658,3.52,2.527,5.322,1.207c1.672-1.224,2.156-3.511,2.511-5.427
						c0.41-2.205,0.682-4.559,0.296-6.786c-0.324-1.87-1.343-3.605-3.213-4.25c-2.049-0.706-4.15,0.38-5.709,1.657
						c-1.667,1.366-2.986,3.128-4.322,4.806c-1.389,1.744-2.73,3.527-4.025,5.342c-2.6,3.646-4.998,7.436-7.163,11.355
						c-4.306,7.793-7.74,16.133-9.881,24.784c-1.063,4.297-1.804,8.668-2.215,13.075c-0.402,4.316-0.48,8.797,0.045,13.104
						c0.134,1.096,0.344,2.167,0.572,3.248C283.258,132.891,284.072,132.732,284.063,132.216L284.063,132.216z"/>
				</g>
			</g>
		</g>
	</g>
</g>
</svg>
