<?xml version="1.0" encoding="utf-8"?>
<!-- Generator: Adobe Illustrator 27.5.0, SVG Export Plug-In . SVG Version: 6.00 Build 0)  -->
<svg version="1.1" xmlns="http://www.w3.org/2000/svg" xmlns:xlink="http://www.w3.org/1999/xlink" x="0px" y="0px"
	 viewBox="0 0 500 500" style="enable-background:new 0 0 500 500;" xml:space="preserve">
<g id="BACKGROUND">
	<rect style="fill:#B075B2;" width="500" height="500"/>
</g>
<g id="OBJECTS">
	<g>
		<defs>
			<rect id="SVGID_1_" width="500" height="500"/>
		</defs>
		<clipPath id="SVGID_00000084508022043635196990000009630687934859936408_">
			<use xlink:href="#SVGID_1_"  style="overflow:visible;"/>
		</clipPath>
		<g style="clip-path:url(#SVGID_00000084508022043635196990000009630687934859936408_);">
			<g>
				<path style="fill:#EDEDED;" d="M284.293,106.967c-0.139,0.019-0.267-0.076-0.29-0.214c-1.084-6.622-2.685-13.198-5.41-19.299
					c-17.699-0.477-50.703,15.903-59.687,25.756c-1.363,1.495-2.538,2.658-3.574,3.685c-5.598,5.544-5.933,5.876-2.033,28.545
					l0.113,0.656c1.838,10.68,4.161,24.202,5.873,38.471c1.842,0.761,3.686,1.516,5.503,2.382c2.147,1.023,4.388,1.911,6.601,2.835
					l0.005,0.002c0.117,0.049,0.201,0.139,0.253,0.245c0.002,0.002,0.005,0.002,0.007,0.004c6.436,4.944,8.947,7.012,9.87,8.055
					c3.002-8.546,1.307-18.726-4.62-25.725c-0.092-0.108-0.079-0.271,0.029-0.363c0.107-0.091,0.268-0.079,0.361,0.027
					c6.625,7.591,8.374,19.031,4.368,28.359c-0.767,2.897-2.914,11.126-4.452,17.039c0.519,1.472,3.425,8.826,9.925,10.695
					c2.075-2.544,8.734-10.317,11.903-9.584c2.5,0.577,5.427,4.994,6.883,7.444c0.646-0.906,1.565-2.152,2.576-3.376
					c2.982-3.604,4.848-4.743,6.237-3.816c1.601,1.067,5.941,5.026,7.812,6.752c1.305-1.925,4.351-5.922,7.556-6.582
					c1.257-0.259,2.408-0.013,3.433,0.73c2.896,2.1,5.238,3.976,6.502,5.014c2.519-3.517,5.891-7.518,7.957-7.043
					c0.287,0.068,5.572,1.328,8.241,2.835c5.711-5.698,5.976-5.715,6.457-5.715c1.599-0.303,2.906-0.003,3.965,0.591
					c1.151-0.825,3.848-2.542,5.929-2.182c0.498,0.086,0.93,0.297,1.298,0.596c1.754-0.84,6.175-2.688,9.01-1.521l-0.012-0.092
					c-0.073-0.97-0.412-2.098-0.938-3.328c-0.076-0.11-0.127-0.23-0.154-0.361c-3.146-6.963-12.206-17.053-16.774-21.898
					c-0.093-0.005-0.185-0.027-0.267-0.086c-0.003-0.002-0.008-0.006-0.011-0.008c-5.117-3.927-8.242-10.212-8.313-16.584
					c-0.001-0.142,0.112-0.259,0.255-0.26c0.14-0.002,0.255,0.109,0.26,0.248c0.171,4.713,2.069,9.3,5.144,12.813l6.998-24.713
					c0.02-0.07,0.048-0.139,0.082-0.203c0.071-0.131,7.046-13.242,4.727-25.683c-0.249-1.332-0.539-2.752-0.858-4.222
					c-0.543,8.344-2.06,21.743-2.29,23.75l-0.034,0.299l-0.194,0.231c-0.448,0.532-9.908,11.572-22.633,11.572
					c-1.731,0-3.522-0.204-5.359-0.667c-5.835-1.47-10.156-3.822-12.886-6.98l-0.034-0.002l-0.273-0.336
					c-0.001-0.002-0.002-0.003-0.004-0.005l-1.452-1.788l0.246,0.018c-1.358-2.351-1.606-4.463-1.6-5.641
					c0.001-1.48-0.735-21.721-0.742-21.925l-0.004-0.087l0.013-0.087c0.035-0.256,0.948-6.334,7.276-10.462
					c6.722-4.387,16.738-4.828,29.763-1.341l-0.004-0.079l1.256,0.414l0.187,0.031l0.088,0.064c0.702,0.261,4.047,1.567,6.417,3.47
					c-2.38-9.393-4.988-18.269-5.364-19.541c-14.93-4.795-34.395-10.542-45.733-11.3c2.516,6.149,3.928,12.663,4.841,19.182
					C284.532,106.817,284.433,106.948,284.293,106.967z M255.64,165.81c-1.408,0-2.859-0.136-4.349-0.438
					c-5.898-1.192-10.326-3.338-13.201-6.363l-0.034-0.001l-0.288-0.322c-0.002-0.002-0.003-0.003-0.004-0.005l-1.535-1.717
					l0.246,0.006c-1.468-2.284-1.815-4.382-1.865-5.558c-0.07-1.478-1.763-21.662-1.779-21.866l-0.008-0.087l0.008-0.087
					c0.023-0.258,0.647-6.372,6.773-10.795c6.508-4.699,16.49-5.614,29.668-2.748l-0.008-0.078l1.28,0.356
					c0.014,0.003,0.027,0.006,0.041,0.009l0.177,0.042l0.04,0.026c1.031,0.328,8.12,2.708,9.083,6.218
					c0.834,3.064-0.76,27.444-0.944,30.214l-0.021,0.301l-0.183,0.239C278.303,153.723,268.9,165.81,255.64,165.81z
					 M279.585,201.179c-0.155,0.228-0.466,0.288-0.694,0.133c-0.002-0.001-0.006-0.004-0.008-0.005
					c-3.57-2.527-6.983-5.271-10.212-8.214c-0.793-0.76-1.634-1.415-2.363-2.349c-0.355-0.469-0.597-1.064-0.682-1.637
					c-0.095-0.578-0.092-1.134-0.09-1.686c0.025-2.215,0.454-4.419,1.248-6.478c0.051-0.133,0.2-0.199,0.333-0.148
					c0.131,0.051,0.197,0.198,0.149,0.329c-0.734,2.016-1.109,4.16-1.093,6.299c0.007,1.077,0.058,2.135,0.695,2.905
					c0.623,0.779,1.518,1.474,2.309,2.2c3.26,2.862,6.695,5.52,10.277,7.957C279.681,200.64,279.74,200.951,279.585,201.179z
					 M313.483,213.96c-0.269,0.062-0.538-0.105-0.6-0.374c-0.001-0.004-0.002-0.012-0.003-0.016
					c-0.258-1.311-1.013-2.514-1.952-3.545c-0.94-1.04-2.08-1.914-3.223-2.81c-1.142-0.893-2.305-1.83-3.264-2.97
					c-0.962-1.13-1.748-2.404-2.323-3.765c-0.055-0.131,0.006-0.282,0.137-0.337c0.129-0.054,0.277,0.005,0.334,0.131
					c0.59,1.296,1.38,2.498,2.329,3.552c0.943,1.06,2.079,1.927,3.244,2.787c1.161,0.86,2.365,1.725,3.406,2.813
					c1.034,1.075,1.935,2.389,2.288,3.935C313.92,213.629,313.752,213.897,313.483,213.96z M317.753,199.156
					c0.008-0.012,0.016-0.025,0.025-0.036l3.347-4.447c0.086-0.114,0.247-0.136,0.361-0.051c0.107,0.081,0.133,0.23,0.064,0.342
					l-2.948,4.721c-0.147,0.234-0.455,0.306-0.69,0.16C317.678,199.699,317.607,199.39,317.753,199.156z M291.958,164.874
					c0.081-0.098,0.187-0.184,0.298-0.245c0,0,0.154-0.083,0.433-0.201c0.001,0,0.001-0.001,0.002-0.001
					c1.806-0.809,11.084-4.354,16.389,5.436c5.511,10.139,7.287,21.896,7.36,22.391c0.036,0.243-0.02,0.491-0.154,0.696
					c-0.115,0.174-2.904,4.276-10.575,4.509c-0.01,0.001-0.021,0.001-0.03,0.001c-0.191,0-0.38-0.055-0.541-0.159l-5.457-3.511
					l-2.984,3.076c-1.418,1.468-3.32,2.232-5.247,2.233c-1.279,0-2.57-0.337-3.739-1.028c-2.661-1.581-5.88-3.49-7.559-4.48
					c-2.242-1.307-5.319-3.101-5.721-5.712c-0.198-1.289,0.278-2.578,1.418-3.832C279.095,180.486,291.829,165.03,291.958,164.874z"
					/>
				<path style="fill:#F7BE27;" d="M252.016,239.495c-0.023-0.047-0.043-0.088-0.065-0.135c-1.191-1.891-2.363-4.197-3.383-6.394
					c-1.099,2.03-2.805,5.235-4.084,7.651l2.712,5.376L252.016,239.495z M246.535,242.558c-0.263-0.086-0.407-0.368-0.321-0.632
					c0.007-0.02,0.017-0.045,0.026-0.064c0.511-1.049,0.88-2.181,1.086-3.352c0.024-0.14,0.158-0.234,0.298-0.21
					c0.129,0.022,0.219,0.137,0.214,0.265c-0.05,1.236-0.274,2.476-0.67,3.672C247.081,242.499,246.799,242.643,246.535,242.558z"/>
				<path style="fill:#F7BE27;" d="M249.799,230.179c0.231,0.585,2.346,4.992,3.881,8.163c1.121,1.837,2.053,3.007,2.57,3.114
					c1.263-0.329,5.357-7.192,8.461-13.571c-1.688-2.997-4.54-7.032-6.123-7.397c-1.161-0.273-5.574,3.669-9.594,8.521
					c0.076,0.177,0.153,0.35,0.229,0.526C249.505,229.654,249.719,229.888,249.799,230.179z M256.488,226.018
					c0.104-0.256,0.397-0.379,0.653-0.275c0.256,0.105,0.379,0.397,0.275,0.653c-0.008,0.02-0.021,0.045-0.031,0.063
					c-0.578,0.991-1.026,2.072-1.319,3.204c-0.035,0.138-0.176,0.221-0.314,0.186c-0.127-0.033-0.207-0.154-0.192-0.28
					C255.703,228.361,256.014,227.162,256.488,226.018z"/>
				<path style="fill:#EDEDED;" d="M296.161,166.408c0.401,0.326,0.796,0.658,1.183,0.999c0.219,0.193,0.437,0.387,0.652,0.584
					c0.395,0.363,0.78,0.735,1.159,1.113c0.18,0.179,0.363,0.354,0.539,0.536c0.544,0.563,1.075,1.137,1.583,1.729
					c0.561,0.656,1.205,1.442,1.735,2.31c1.342,2.183,1.887,4.654,2.211,6.564c0.398,2.289,0.595,4.645,0.585,6.999
					c0,0.001,0,0.001,0,0.002c0,0,0,0.001,0,0.001c0,0.374,0,1.064-0.258,1.726c-0.035,0.09-0.082,0.178-0.127,0.266
					c-0.021,0.041-0.036,0.084-0.06,0.125c-0.148,0.255-0.346,0.493-0.609,0.694c-0.365,0.277-0.766,0.402-1.087,0.502l-0.214,0.069
					c-0.242,0.082-0.476,0.203-0.702,0.342c-0.071,0.044-0.139,0.097-0.208,0.146c-0.154,0.109-0.303,0.228-0.447,0.361
					c-0.071,0.066-0.142,0.134-0.21,0.206c-0.14,0.148-0.272,0.31-0.398,0.48c-0.052,0.071-0.108,0.136-0.157,0.21
					c-0.016,0.024-0.027,0.052-0.043,0.076l4.665,3.002c5.294-0.243,7.735-2.518,8.438-3.32c-0.37-2.187-2.303-12.537-7.072-21.311
					c-3.539-6.532-9.039-6.093-12.124-5.186c0.102,0.078,0.199,0.163,0.3,0.242C295.722,166.048,295.941,166.229,296.161,166.408z"
					/>
				
					<path style="fill:#0B1011;stroke:#0B1011;stroke-width:2;stroke-linecap:round;stroke-linejoin:round;stroke-miterlimit:10;" d="
					M282.958,229.982l-4.454,15.706l4.521-9.135c0.175-0.354,0.513-0.569,0.939-0.556c0.396,0.017,0.743,0.265,0.888,0.634
					l3.745,9.542l2.177-5.547C287.679,239.016,284.632,233.469,282.958,229.982z"/>
				<path style="fill:#F7BE27;" d="M289.193,255.58c-0.085-0.555-0.36-1.798-0.7-3.225l-1.048-2.461
					c-0.103-0.241-0.106-0.513-0.011-0.757l0.089-0.226l-3.707-9.445l-8.306,16.781l-0.126,0.446
					c2.117,2.934,5.025,6.947,6.387,8.786C286.945,258.542,288.628,256.314,289.193,255.58z M281.041,260.267
					c-0.001-0.017-0.002-0.035-0.002-0.051c0.012-1.637,0.139-3.267,0.376-4.876c0.021-0.141,0.152-0.238,0.292-0.217
					c0.132,0.02,0.226,0.137,0.22,0.267c-0.074,1.6-0.036,3.2,0.111,4.784c0.026,0.275-0.177,0.519-0.452,0.545
					C281.31,260.744,281.066,260.542,281.041,260.267z"/>
				<path style="fill:#F7BE27;" d="M264.098,254.4l6.6-5.247c-0.669-1.929-1.394-4.075-2.1-6.262l-2.032-5.773l-0.978-0.336
					l-5.739,8.013l0.503,3.023L264.098,254.4z M263.909,249.4c0.011-1.027,0.259-2.027,0.704-2.911
					c0.064-0.127,0.219-0.179,0.347-0.114c0.114,0.057,0.167,0.19,0.13,0.308c-0.266,0.871-0.324,1.787-0.183,2.649
					c0.045,0.274-0.141,0.532-0.415,0.576c-0.274,0.045-0.532-0.141-0.577-0.415c-0.005-0.028-0.007-0.056-0.007-0.083V249.4z"/>
				
					<path style="fill:#0B1011;stroke:#0B1011;stroke-width:2;stroke-linecap:round;stroke-linejoin:round;stroke-miterlimit:10;" d="
					M264.397,235.011c0.257-0.359,0.719-0.506,1.138-0.363l0.671,0.231c-0.355-1.333-0.66-2.589-0.892-3.715
					c-2.551,5.005-6.566,12.086-8.943,12.284c-0.039,0.003-0.078,0.005-0.117,0.005c-0.916,0-1.955-0.877-3.021-2.244l-2.844,3.834
					l3.132,0.307c0.531,0.052,1.134,0.111,1.731,0.341c0.598,0.23,1.08,0.587,1.563,0.964c0.52,0.406,1.02,0.842,1.527,1.269
					l-0.534-3.211c-0.044-0.262,0.019-0.53,0.174-0.747L264.397,235.011z"/>
				<path style="fill:#F7BE27;" d="M338.804,229.177c-0.218-0.543-0.512-1.27-0.858-2.119l-5.148-11.538
					c-0.135-0.203-0.301-0.315-0.553-0.359c-0.996-0.177-2.667,0.666-3.932,1.498c4.088,4.41,5.122,12.848,5.384,16.96
					c0.121-0.026,0.244-0.031,0.366-0.012l3.327-2.781L338.804,229.177z"/>
				<path style="fill:#F7BE27;" d="M334.496,245.757c0.129-0.017,0.249,0.067,0.282,0.19c0.125,0.472,0.192,0.961,0.224,1.455
					l1.766-7.558l-2.796-3.555l-0.536,0.448c-0.059,0.247-0.126,0.5-0.201,0.756c-0.305,1.772-0.882,3.364-1.86,4.593
					c-0.025,0.032-0.06,0.054-0.089,0.082c-0.027,0.026-0.051,0.052-0.081,0.075c-0.084,0.066-0.176,0.119-0.278,0.155
					c-0.012,0.004-0.021,0.015-0.034,0.019l-1.314,0.412l1.125,7.598c0.027,0.181-0.014,0.357-0.083,0.523
					c0.389,1.637,0.802,3.349,1.105,4.575l1.867-2.096l0.792-3.391c-0.049,0.004-0.099,0.008-0.15-0.003
					c-0.27-0.06-0.441-0.327-0.381-0.598c0.005-0.022,0.014-0.05,0.021-0.07c0.394-1.032,0.538-2.185,0.397-3.321
					C334.255,245.905,334.355,245.775,334.496,245.757z"/>
				<path style="fill:#F7BE27;" d="M328.984,240.896l0.896-0.265c0.395-0.857,1.01-2.311,1.404-3.604
					c0.907-5.875-1.696-14.708-3.63-17.871c-1.8-2.946-3.9-2.552-4.587-2.422c-0.008,0.001-0.016,0.003-0.023,0.004
					c-0.648,0.517-3.049,2.837-5.33,5.107c0.002,0.005,0.006,0.01,0.008,0.014c0.187,0.624,0.164,5.001,0.078,9.759l0.063,1.714
					l4.43,6.159c0.29,0.041,0.555,0.214,0.71,0.474l1.324,2.233l3.709-1.447c0.283-0.11,0.602-0.086,0.865,0.067
					C328.935,240.838,328.953,240.873,328.984,240.896z M326.102,230.432c-0.134,0.025-0.264-0.059-0.298-0.189
					c-0.616-2.378-1.486-4.682-2.588-6.857c-0.125-0.247-0.026-0.548,0.22-0.672c0.247-0.125,0.548-0.026,0.672,0.22
					c0.005,0.009,0.01,0.02,0.014,0.03c0.986,2.31,1.718,4.717,2.184,7.167C326.334,230.271,326.242,230.406,326.102,230.432z"/>
				<path style="fill:#F7BE27;" d="M328.514,250.502l-0.93-7.108l-3.402,1.004c-0.079,0.023-0.158,0.031-0.237,0.034
					c-0.012,0.001-0.023,0.005-0.035,0.005c-0.004,0-0.008,0.002-0.011,0.002c-0.015,0-0.028-0.01-0.043-0.01
					c-0.123-0.006-0.241-0.036-0.353-0.085c-0.04-0.018-0.075-0.039-0.113-0.062c-0.091-0.055-0.17-0.124-0.241-0.206
					c-0.018-0.021-0.045-0.03-0.061-0.052l-0.963-1.34l-3.44,6.635l4.854,7.73L328.514,250.502z M322.934,253.271
					c-0.277,0.002-0.503-0.221-0.505-0.498c0-0.025,0.002-0.054,0.005-0.077c0.155-1.036,0.21-2.095,0.159-3.157
					c-0.007-0.142,0.103-0.264,0.245-0.271c0.129-0.006,0.241,0.084,0.266,0.207c0.215,1.075,0.326,2.179,0.327,3.292
					C323.434,253.043,323.211,253.269,322.934,253.271z"/>
				<path style="fill:#F7BE27;" d="M274.278,253.261l7.333-25.859c-1.485-1.376-6.255-5.759-7.917-6.901
					c-1.006,0.132-4.125,3.614-6.836,7.627c0.244,3.007,1.9,8.753,3.685,14.263l2.36,6.704c0.048,0.136,0.054,0.276,0.043,0.414
					C273.443,250.932,273.902,252.218,274.278,253.261z M273.594,227.464c0.276-0.02,0.516,0.188,0.536,0.464
					c0.001,0.023,0.001,0.049,0,0.072l-0.243,3.366c-0.01,0.142-0.134,0.249-0.276,0.239c-0.13-0.009-0.23-0.113-0.239-0.239
					L273.13,228C273.11,227.724,273.318,227.484,273.594,227.464z"/>
				
					<path style="fill:#0B1011;stroke:#0B1011;stroke-width:2;stroke-linecap:round;stroke-linejoin:round;stroke-miterlimit:10;" d="
					M239.899,199.244c-0.99-0.956-4.48-3.762-8.021-6.509l-2.313,25.715c0.247,1.44,3.012,16.114,13.159,21.214
					c0.451-0.852,1.45-2.735,2.456-4.619c1.152-2.157,1.874-3.506,2.369-4.342c-0.065-0.149-0.133-0.303-0.196-0.449
					c-8.833-1.952-12.011-12.068-12.143-12.5c-0.054-0.176-0.058-0.364-0.011-0.543
					C235.905,214.498,239.155,202.013,239.899,199.244z"/>
				<path style="fill:#EDEDED;" d="M277.956,122.928c-0.466-1.7-4.194-3.503-6.44-4.379c0.065,0.896,0.116,1.797,0.174,2.696
					c0.059,0.915,0.125,1.827,0.177,2.744c0.064,1.124,0.115,2.251,0.168,3.377c0.039,0.804,0.084,1.606,0.118,2.41
					c0.052,1.263,0.089,2.525,0.128,3.787c0.021,0.671,0.049,1.343,0.066,2.013c0.049,1.931,0.083,3.858,0.101,5.78
					c0.027,3.296-0.091,6.471-1.811,9.099c-0.242,0.368-0.508,0.711-0.794,1.032c-1.713,1.926-4.146,3.056-6.522,3.871
					c-0.396,0.136-0.79,0.263-1.179,0.383c-0.869,0.269-1.742,0.522-2.619,0.758c-0.286,0.077-0.574,0.143-0.861,0.216
					c-0.592,0.152-1.184,0.306-1.779,0.443c-0.347,0.08-0.696,0.147-1.043,0.222c-0.539,0.116-1.078,0.235-1.62,0.339
					c-0.373,0.072-0.749,0.131-1.123,0.197c-0.518,0.091-1.036,0.185-1.557,0.265c-0.391,0.06-0.783,0.108-1.174,0.162
					c-0.507,0.069-1.014,0.142-1.523,0.201c-0.403,0.047-0.807,0.082-1.21,0.122c-0.5,0.05-0.999,0.101-1.501,0.141
					c-0.412,0.032-0.826,0.054-1.239,0.08c-0.495,0.031-0.99,0.063-1.486,0.083c-0.418,0.017-0.837,0.025-1.255,0.036
					c-0.361,0.009-0.72,0.027-1.081,0.031c2.562,1.998,6.119,3.466,10.618,4.375c13.264,2.68,23.778-9.415,25.278-11.244
					C277.677,141.415,278.515,124.982,277.956,122.928z"/>
				<path style="fill:#F7BE27;" d="M339.277,231.856c3.44,7.578,7.72,15.795,9.526,17.7c0.569-3.183-0.319-16.051-1.625-27.802
					c-0.362-0.804-2.317-5.015-4.465-7.256c-1.294-1.35-5.056-0.258-7.663,0.948c1.293,2.499,3.408,7.567,4.758,10.88l1.137,2.549
					c0.066,0.149,0.086,0.307,0.077,0.464c0.023,0.057,0.041,0.103,0.049,0.124c0.159,0.401,0.043,0.859-0.288,1.136
					L339.277,231.856z M339.836,219.018c-0.15-0.232-0.083-0.542,0.149-0.691c0.232-0.15,0.542-0.083,0.691,0.15
					c0.002,0.004,0.006,0.01,0.008,0.013c1.352,2.253,2.535,4.603,3.537,7.025c0.501,1.212,0.956,2.438,1.364,3.687
					c0.401,1.248,0.721,2.581,0.612,3.94c-0.012,0.142-0.135,0.247-0.277,0.236c-0.139-0.011-0.243-0.133-0.236-0.271
					c0.062-1.252-0.272-2.497-0.701-3.702c-0.438-1.212-0.927-2.413-1.457-3.59C342.465,223.459,341.231,221.185,339.836,219.018z"
					/>
				<path style="fill:#EDEDED;" d="M324.964,134.302c-0.042,1.932-0.1,3.861-0.173,5.783c-0.129,3.294-0.397,6.461-2.239,9.003
					l-0.001,0.002c-1.555,2.133-3.915,3.351-6.329,4.171c-0.805,0.273-1.615,0.502-2.404,0.706
					c-0.815,0.211-1.633,0.405-2.454,0.588c-0.26,0.058-0.521,0.108-0.781,0.163c-0.563,0.119-1.126,0.235-1.691,0.34
					c-0.311,0.058-0.623,0.11-0.934,0.164c-0.519,0.09-1.038,0.176-1.559,0.255c-0.329,0.05-0.659,0.096-0.989,0.142
					c-0.508,0.07-1.017,0.134-1.527,0.193c-0.334,0.039-0.667,0.077-1.002,0.111c-0.518,0.053-1.037,0.098-1.557,0.14
					c-0.322,0.026-0.643,0.054-0.965,0.076c-0.57,0.038-1.141,0.066-1.712,0.091c-0.27,0.012-0.539,0.029-0.809,0.038
					c-0.824,0.027-1.648,0.043-2.474,0.043c-0.009,0-0.018-0.001-0.027-0.001c-0.451,0-0.902-0.016-1.353-0.024
					c-0.442-0.008-0.883-0.009-1.326-0.025c-0.016-0.001-0.032,0-0.049-0.001c2.464,2.117,5.949,3.752,10.4,4.873
					c13.141,3.311,24.198-8.281,25.781-10.035c1.22-10.706,2.835-27.083,2.372-29.16c-0.385-1.719-4.023-3.697-6.224-4.679
					c0.026,1.058,0.037,2.117,0.054,3.176c0.012,0.741,0.03,1.481,0.038,2.222c0.012,1.222,0.01,2.444,0.01,3.666
					c0,0.721,0.007,1.443,0.003,2.164c-0.008,1.31-0.031,2.617-0.053,3.925C324.981,133.043,324.978,133.673,324.964,134.302z"/>
				
					<path style="fill:#0B1011;stroke:#0B1011;stroke-width:2;stroke-linecap:round;stroke-linejoin:round;stroke-miterlimit:10;" d="
					M317.545,242.151c-0.007,0.221-0.087,0.435-0.228,0.606c-0.103,0.126-0.391,0.465-0.807,0.895l0.779,4.012l3.527-6.802
					l-3.12-4.339C317.642,238.683,317.587,240.675,317.545,242.151z"/>
				<path style="fill:#515D5F;" d="M263.138,352.63c6.315-31.02-12.749-52.109-14.272-53.731
					c-2.441-1.364-34.465-19.804-32.77-46.03c-0.088-0.259-0.068-0.539,0.068-0.79c0.135-1.494,0.372-3.012,0.739-4.554
					c6.921-29.126-0.83-74.174-5.462-101.09l-0.112-0.656c-3.982-23.146-3.607-24.163,2.596-30.305
					c1.021-1.01,2.176-2.154,3.504-3.611c9.612-10.542,44.03-27.552,62.268-26.373c15.249,0.984,44.817,10.84,59.026,15.576
					c2.749,0.916,4.921,1.64,6.179,2.027c2.802,0.862,4.779,2.035,6.185,3.207c-7.359-28.935-64.51-64.403-66.925-65.889
					c-22.821-8.851-45.925-8.217-68.672,1.885c-33.631,14.936-55.185,45.672-57.265,51.133c-2.496,6.552-2.728,27.412-2.997,51.565
					c-0.104,9.337-0.211,18.993-0.449,28.883c-0.691,28.692-9.428,84.969-14.121,115.203c-1.274,8.21-2.195,14.143-2.57,17.048
					c-1.54,11.936-18.537,22.128-32.194,30.316c-2.48,1.487-4.822,2.892-6.896,4.205c-12.421,7.867-7.078,32.494-7.023,32.742
					c0.03,0.133,0.032,0.272,0.007,0.407l-39.36,127.011l113.976,0.375c-0.213-4.239-0.18-8.377-0.186-12.563
					c0.003-4.568,0.117-9.142,0.221-13.694l0.608-27.352c0.171-9.115,0.485-18.243,0.5-27.333
					c-0.018-9.081-0.497-18.188-2.397-27.034c-1.901-8.814-5.228-17.415-10.555-24.688c-5.264-7.313-12.742-12.876-21.042-16.374
					c-8.316-3.499-17.428-5.078-26.457-4.768c-2.243,0.078-4.549,0.182-6.338,1.283c-1.791,1.092-2.61,3.259-3.404,5.368
					l-4.882,12.778c-0.101,0.266-0.399,0.399-0.665,0.297c-0.266-0.102-0.4-0.397-0.298-0.663l4.822-12.801
					c0.403-1.062,0.797-2.161,1.378-3.213c0.566-1.047,1.381-2.056,2.45-2.719c1.059-0.668,2.252-1.005,3.417-1.198
					c1.172-0.192,2.332-0.246,3.477-0.288c9.189-0.356,18.476,1.204,26.996,4.741c8.497,3.532,16.226,9.218,21.679,16.72
					c5.512,7.453,8.944,16.233,10.922,25.197c1.976,9,2.497,18.217,2.558,27.354c0.026,9.15-0.245,18.255-0.374,27.376
					l-0.481,27.354c-0.08,4.566-0.178,9.109-0.172,13.661c0.015,4.191-0.002,8.44,0.22,12.565l24.944,0.095
					c3.291-25.49,5.286-51.153,6.374-76.845c1.093-26.162,1.244-52.37,0.274-78.536c-0.486-13.083-1.335-26.151-2.552-39.181
					c-1.152-13.025-3.205-26.013-3.616-39.177c-0.094-3.288-0.104-6.581,0.035-9.873c0.152-3.291,0.442-6.577,0.889-9.845
					c0.938-6.534,2.557-12.923,4.272-19.249c1.712-6.329,3.518-12.621,4.83-19.014c1.321-6.382,2.098-12.894,1.768-19.387
					c-0.016-0.284,0.202-0.527,0.486-0.542c0.284-0.016,0.527,0.202,0.542,0.486c0.359,6.61-0.412,13.22-1.723,19.661
					c-1.303,6.453-3.096,12.774-4.783,19.097c-1.691,6.321-3.276,12.669-4.179,19.118c-0.43,3.226-0.706,6.472-0.846,9.727
					c-0.126,3.256-0.106,6.518-0.002,9.778c0.447,13.055,2.541,26.012,3.737,39.083c1.258,13.059,2.148,26.151,2.674,39.257
					c1.05,26.212,0.976,52.459-0.041,78.669c-1.01,25.656-2.924,51.286-6.13,76.781l94.77,0.359
					C273.677,476.941,256.616,384.673,263.138,352.63z M277.13,62.052c3.875-0.183,7.772-0.005,11.61,0.588
					c3.84,0.573,7.622,1.551,11.274,2.88c3.655,1.33,7.169,3.032,10.486,5.081c3.287,2.061,6.413,4.665,8.383,8.162
					c0.136,0.241,0.051,0.546-0.19,0.681c-0.241,0.135-0.546,0.05-0.681-0.19c-0.001-0.001-0.003-0.006-0.004-0.007
					c-1.812-3.301-4.778-5.852-7.98-7.904c-3.234-2.044-6.687-3.764-10.278-5.113c-3.59-1.35-7.317-2.356-11.109-2.962
					c-3.79-0.627-7.645-0.844-11.487-0.702c-0.142,0.007-0.262-0.103-0.269-0.245C276.878,62.181,276.989,62.061,277.13,62.052z
					 M172.196,189.977c-0.629,8.22-0.795,16.476-1.078,24.726c-0.518,16.498-0.935,33.007-0.402,49.498l1.114,24.739
					c0.374,8.251,0.428,16.522,0.285,24.783c-0.332,16.525-1.658,33.03-3.974,49.398c-0.039,0.273-0.292,0.464-0.565,0.425
					c-0.273-0.039-0.464-0.292-0.425-0.565l0-0.002c2.35-16.322,3.714-32.786,4.085-49.275c0.162-8.245,0.13-16.493-0.224-24.737
					l-1.053-24.744c-0.493-16.521-0.035-33.042,0.523-49.542c0.304-8.248,0.489-16.507,1.14-24.751
					c0.647-8.235,1.836-16.469,4.149-24.427c0.04-0.136,0.183-0.215,0.319-0.175c0.137,0.04,0.215,0.183,0.175,0.32
					C173.986,173.565,172.821,181.764,172.196,189.977z M197.239,102.731c-0.103,0.256-0.394,0.381-0.65,0.279
					c-0.256-0.103-0.381-0.394-0.279-0.65l0.002-0.004c7.39-17.979,24.354-31.54,43.425-34.81c0.14-0.024,0.273,0.07,0.297,0.21
					c0.024,0.139-0.069,0.272-0.208,0.297C220.966,71.445,204.334,85.025,197.239,102.731z"/>
				<path style="fill:#0B1011;stroke:#0B1011;stroke-width:2;stroke-miterlimit:10;" d="M344.312,105.004
					c-1.28-0.394-3.462-1.121-6.223-2.041c-2.901-0.967-6.452-2.15-10.383-3.426c1.449,4.974,6.128,21.357,8.152,32.206
					c2.367,12.703-4.163,25.542-4.881,26.9l-6.836,24.14c2.386,2.423,13.806,14.245,18.608,23.198
					c0.57-1.184,0.911-1.889,0.961-1.989c0.116-0.238,11.669-30.467,11.968-54.39c0-0.016,0.009-0.03,0.01-0.046
					c-0.091-1.735-0.125-3.328-0.082-4.71c0.336-10.75-2.487-27.704-3.764-34.741C350.984,108.707,348.944,106.43,344.312,105.004z"
					/>
				<path style="fill:#424C4E;" d="M318.175,461.178c1.826-3.22,3.593-6.463,5.203-9.779c1.613-3.309,3.062-6.712,4.448-10.14
					c1.382-3.43,2.698-6.897,3.996-10.367c1.293-3.47,2.545-6.949,3.604-10.479c2.1-7.035,3.589-14.366,2.949-21.661
					c-0.527-7.299-3.472-14.252-7.664-20.253c-4.192-6.04-9.518-11.239-15.116-16.051c-2.806-2.414-5.711-4.691-8.622-7.015
					c-2.411-1.954-4.8-4.046-6.746-6.54c-0.391,14.784,2.108,112.07,2.957,144.264c1.025-4.259,2.504-8.405,4.327-12.352
					C310.628,473.976,314.534,467.619,318.175,461.178z"/>
				<path style="fill:#515D5F;" d="M392.643,359.721c-0.002-0.002-0.004-0.005-0.006-0.007c-0.424-0.491-1.713-1.986,1.175-21.373
					c2.898-19.46-43.953-29.07-44.427-29.164c-0.196-0.039-0.356-0.145-0.49-0.276c-1.217,6.591-2.142,13.24-2.969,19.896
					c-0.934,7.61-1.726,15.238-2.444,22.873c-1.413,15.272-2.565,30.571-3.45,45.881c-0.012,0.21-0.151,0.381-0.338,0.444
					c0.021,0.213,0.046,0.425,0.063,0.639c0.7,7.553-0.799,15.068-2.888,22.211c-1.055,3.585-2.3,7.1-3.579,10.591
					c-1.284,3.487-2.583,6.966-3.956,10.428c-1.376,3.459-2.819,6.896-4.438,10.269c-1.613,3.37-3.381,6.657-5.197,9.903
					c-3.624,6.494-7.467,12.838-10.479,19.542c-2.902,6.385-4.874,13.176-5.403,20.128l60.254,0.229
					c0.525-13.897,1.033-27.802,1.71-41.702c0.711-14.35,1.588-28.698,2.907-43.015c0.68-7.156,1.422-14.309,2.393-21.436
					c0.219-1.784,0.51-3.56,0.761-5.341c0.256-1.779,0.519-3.56,0.829-5.335c0.611-3.55,1.307-7.083,2.094-10.597
					c1.577-7.025,3.482-13.989,5.992-20.758c1.261-3.381,2.688-6.709,4.397-9.906c1.731-3.175,3.72-6.273,6.382-8.829
					c0.205-0.197,0.531-0.19,0.728,0.015c0.197,0.205,0.19,0.531-0.015,0.728l-0.004,0.004c-2.521,2.444-4.456,5.472-6.135,8.594
					c-1.661,3.146-3.055,6.438-4.285,9.79c-2.451,6.712-4.31,13.642-5.843,20.632c-0.765,3.497-1.439,7.014-2.028,10.544
					c-0.3,1.763-0.551,3.535-0.796,5.311c-0.24,1.776-0.518,3.546-0.726,5.326c-0.926,7.109-1.624,14.248-2.26,21.391
					c-1.232,14.292-2.022,28.624-2.648,42.962c-0.593,13.868-1.018,27.746-1.46,41.629l66.497,0.176
					c-0.85-7.438-25.586-50.049-25.586-76.703C406.972,397.73,393.865,362.903,392.643,359.721z"/>
				<path style="fill:#EDEDED;" d="M218.847,247.987c-0.336,1.413-0.558,2.805-0.686,4.177
					c16.891,13.077,59.241,41.449,99.161,32.883c0.096-0.021,0.196-0.029,0.291-0.019c0.398,0.031,9.84,0.651,11.222-9.023
					c1.047-7.332,2.104-14.007,2.666-17.482c-0.088,0.025-0.174,0.057-0.266,0.057c-0.044,0-0.089-0.003-0.133-0.009
					c-0.329-0.044-0.615-0.249-0.763-0.546c-0.053-0.106-0.158-0.324-1.268-4.952l-4.816,6.337c-0.189,0.25-0.484,0.395-0.796,0.395
					c-0.015,0-0.029,0-0.045-0.001c-0.327-0.015-0.627-0.189-0.802-0.467l-4.643-7.394c-0.009,0.026-0.011,0.055-0.022,0.08
					l-5.503,12.23c-0.136,0.302-0.412,0.517-0.738,0.575c-0.058,0.01-0.116,0.015-0.174,0.015c-0.267,0-0.526-0.107-0.716-0.302
					l-9.369-9.612l-7.165,7.467c-0.19,0.198-0.452,0.308-0.722,0.308c-0.06,0-0.12-0.005-0.18-0.016
					c-0.331-0.061-0.608-0.283-0.74-0.592l-2.118-4.973c-1.244,1.644-5.201,6.941-7.938,10.613
					c-0.195,0.263-0.497,0.402-0.803,0.402c-0.191,0-0.383-0.054-0.554-0.167c-0.195-0.131-0.351-0.234-7.875-10.672
					c-0.21-0.291-0.243-0.671-0.096-0.996c-0.33-0.89-1.013-2.75-1.86-5.149l-6.969,5.54c-0.178,0.142-0.397,0.217-0.622,0.217
					c-0.063,0-0.127-0.006-0.189-0.018c-0.287-0.056-0.535-0.233-0.68-0.487l-2.102-3.695c-0.171-0.042-0.335-0.114-0.469-0.247
					c-1.497-1.501-3.105-2.924-4.779-4.229c-0.373-0.291-0.71-0.543-1.053-0.675c-0.344-0.132-0.763-0.174-1.207-0.217l-4.151-0.407
					c-0.055-0.005-0.101-0.033-0.153-0.047l-1.187,1.599c-0.189,0.255-0.487,0.404-0.803,0.404c-0.028,0-0.057-0.001-0.085-0.003
					c-0.346-0.03-0.651-0.236-0.808-0.546l-3.256-6.452c-0.095-0.012-0.19-0.019-0.282-0.06
					c-12.214-5.428-14.924-22.468-15.033-23.191c-0.013-0.08-0.015-0.16-0.008-0.239l2.487-27.659
					c0.013-0.146,0.065-0.281,0.136-0.404c-1.921-0.872-3.846-1.73-5.737-2.71c-1.654-0.858-3.37-1.635-5.084-2.411
					C221.935,206.925,223.053,230.289,218.847,247.987z"/>
				<path style="fill:#0B1011;stroke:#0B1011;stroke-width:2;stroke-miterlimit:10;" d="M298.241,348.405
					c0.005-0.15,0.009-0.278,0.012-0.387c-2.474-2.253-17.176-16.204-14.32-27.053c2.204-8.378,8.594-17.507,14.231-25.561
					c1.666-2.381,3.245-4.644,4.653-6.786c-0.264,0.003-0.528,0.01-0.791,0.01c-34.758,0.001-68.516-22.228-83.991-34.037
					c-0.247,24.989,31.574,42.439,31.923,42.627c0.088,0.047,0.168,0.107,0.238,0.178c0.218,0.22,21.662,22.422,14.901,55.633
					c-3.063,15.048-1.001,45.277,5.382,78.891c6.171,32.507,14.892,59.762,22.288,69.744l8.643,0.033
					C300.968,485.195,297.735,363.361,298.241,348.405z"/>
				<path style="fill:#F7BE27;" d="M291.953,238.999l4.686-5.139c0.238-0.512,0.469-1.038,0.691-1.577
					c0.006-0.087,0.022-0.174,0.051-0.258l1.875-5.371c-1.038-0.864-3.604-2.957-6.895-5.344c-0.565-0.411-1.156-0.534-1.855-0.391
					c-2.53,0.521-5.432,4.354-6.642,6.249C286.294,232.735,289.819,238.299,291.953,238.999z M291.671,225.404
					c0.275-0.034,0.525,0.162,0.559,0.437c0.002,0.019,0.004,0.041,0.004,0.059l0.018,4.144c0.001,0.142-0.114,0.257-0.256,0.258
					c-0.132,0.001-0.24-0.098-0.256-0.225l-0.003-0.025l-0.497-4.04l-0.006-0.048C291.2,225.689,291.396,225.438,291.671,225.404z"
					/>
				<path style="fill:#515D5F;" d="M343.861,208.285c0.567,1.35,0.929,2.598,1.01,3.689l0.214,1.707
					c0.02,0.157-0.007,0.305-0.055,0.445c2.218,2.803,3.959,6.774,4.041,6.962c0.04,0.092,0.065,0.189,0.077,0.288
					c0.704,6.312,2.869,27.118,1.171,29.836c-0.276,0.444-0.712,0.692-1.204,0.692c-0.033,0-0.067-0.001-0.1-0.003
					c-2.383-0.163-7.367-9.996-11.331-18.714l-2.176,1.819l3.13,3.979c0.188,0.239,0.257,0.55,0.188,0.846l-3.341,14.301
					c-0.038,0.163-0.116,0.313-0.227,0.438l-1.379,1.548c0.004,0.073,0.02,0.143,0.007,0.218c-0.016,0.092-1.553,9.332-3.069,19.953
					c-1.545,10.8-11.775,10.798-13.201,10.741c-4.11,0.875-8.245,1.362-12.372,1.528c-1.601,2.504-3.466,5.171-5.441,7.994
					c-5.542,7.917-11.822,16.891-13.937,24.923c-2.491,9.469,11.061,22.586,13.624,24.961c0.409,0.069,0.605,0.299,0.695,0.652
					c1.995,2.896,4.689,5.268,7.472,7.497c2.9,2.29,5.851,4.577,8.684,6.989c5.664,4.818,11.089,10.047,15.41,16.2
					c3.563,5.039,6.294,10.815,7.47,16.933c0.939-14.39,2.103-28.761,3.507-43.111c0.759-7.637,1.592-15.267,2.567-22.88
					c0.945-7.288,1.994-14.568,3.435-21.784l13.887-111.965c-0.428-2.079-3.909-19.149-5.806-33.883
					c-2.66,20.637-10.542,42.262-11.311,43.801C345.434,205.02,344.843,206.244,343.861,208.285z"/>
				<path style="fill:#F7BE27;" d="M289.768,249.18c0.257,1.005,0.468,1.849,0.648,2.587l3.472,8.151l9.361-9.757l-0.171-1.623
					c-0.024-0.226,0.03-0.452,0.152-0.643l-0.157-6.781l-4.142-6.302c-0.068-0.089-0.144-0.187-0.208-0.271l-0.415,0.455
					c-1.395,2.896-3.19,5.528-5.241,6.014c-0.09,0.021-0.181,0.02-0.271,0.032l-0.067,0.073l-3.059,7.796l0.059,0.151
					C289.746,249.101,289.758,249.14,289.768,249.18z M294.328,254.753c0.186-1.989,0.545-3.955,1.069-5.869
					c0.038-0.137,0.179-0.218,0.316-0.18c0.13,0.036,0.209,0.166,0.185,0.296c-0.36,1.921-0.551,3.866-0.572,5.806
					c-0.003,0.276-0.23,0.498-0.506,0.495c-0.276-0.003-0.498-0.23-0.495-0.506C294.326,254.781,294.327,254.766,294.328,254.753z"
					/>
				<path style="fill:#F7BE27;" d="M307.936,242.469l2.952,2.003l3.727-1.765c0.356-0.334,0.678-0.668,0.94-0.965
					c0.086-3.013,0.179-6.779,0.241-10.191l-0.34-9.249c-1.413-0.793-5.55-2.136-7.921-2.694c-0.766,0.074-3.534,2.999-5.899,6.296
					l-0.351,1.005c-0.247,0.889-0.858,2.966-1.757,5.268c0.061,0.056,0.132,0.099,0.178,0.17l0.873,1.329
					c2.29,2.988,5.091,6.465,7.191,8.724C307.826,242.424,307.886,242.434,307.936,242.469z M310.122,225.288
					c0.275-0.026,0.519,0.176,0.545,0.451c0.001,0.014,0.002,0.028,0.002,0.041l0.063,5.858c0.001,0.142-0.113,0.259-0.255,0.26
					c-0.135,0.001-0.247-0.102-0.259-0.234l-0.548-5.833C309.645,225.558,309.847,225.314,310.122,225.288z"/>
				<path style="fill:#F7BE27;" d="M315.994,251.491l-1.22-6.286c-1.132,0.864-2.508,1.62-3.87,1.62
					c-0.559,0-1.117-0.128-1.652-0.428c-0.464-0.26-1.074-0.777-1.757-1.437l-2.249,3.499l0.047,2.037
					c0.001,0.03-0.013,0.057-0.015,0.086c-0.005,0.081-0.017,0.158-0.041,0.235c-0.013,0.043-0.029,0.083-0.049,0.124
					c-0.014,0.029-0.019,0.062-0.035,0.09l-1.784,3.003l7.856,8.06L315.994,251.491z M310.832,257.214
					c-0.276,0.017-0.514-0.193-0.531-0.469c-0.001-0.02-0.001-0.042,0-0.061l0.242-3.951c0.009-0.142,0.131-0.25,0.273-0.242
					c0.131,0.008,0.234,0.113,0.241,0.242l0.243,3.951C311.318,256.959,311.108,257.197,310.832,257.214z"/>
				
					<path style="fill:#0B1011;stroke:#0B1011;stroke-width:2;stroke-linecap:round;stroke-linejoin:round;stroke-miterlimit:10;" d="
					M306.064,243.487c-0.314-0.34-0.633-0.695-0.959-1.066l0.057,2.469L306.064,243.487z"/>
			</g>
			<g>
				<g>
					<g>
						<path style="fill:none;stroke:#0B1011;stroke-width:2;stroke-miterlimit:10;" d="M277.897,152.548
							c0,0-11.378,14.89-26.453,11.844c-6.872-1.389-10.769-3.904-12.977-6.373c7.891,0.19,15.808-0.9,23.335-3.234
							c3.034-0.94,6.211-2.234,7.953-4.879c1.615-2.466,1.672-5.597,1.648-8.542c-0.072-7.824-0.399-15.636-0.981-23.436
							c-0.018-0.274-0.037-0.549-0.064-0.824c0.803,0.223,7.713,2.629,8.517,5.56C279.689,125.654,277.897,152.548,277.897,152.548z
							"/>
						<path style="fill:#0B1011;stroke:#0B1011;stroke-width:2;stroke-miterlimit:10;" d="M269.755,149.906
							c-1.742,2.645-4.919,3.94-7.953,4.879c-7.527,2.334-15.444,3.424-23.335,3.234c-2.63-2.939-2.869-5.821-2.904-6.65
							c-0.072-1.518-1.782-21.907-1.782-21.907s1.867-20.447,36.532-12.373c0.009,0.001,0.028,0.004,0.045,0.015
							c0.027,0.275,0.046,0.55,0.064,0.824c0.581,7.8,0.908,15.612,0.981,23.436C271.427,144.309,271.369,147.44,269.755,149.906z"
							/>
						<path style="fill:none;stroke:#0B1011;stroke-width:2;stroke-linecap:round;stroke-linejoin:round;stroke-miterlimit:10;" d="
							M315.403,192.4c0,0-2.53,3.84-9.77,4.06l-5.72-3.68c0.64-1.4,1.73-2.61,3.17-3.1c0.35-0.12,0.73-0.2,1.02-0.42
							c0.59-0.45,0.66-1.29,0.66-2.02c0.01-2.29-0.18-4.58-0.57-6.83c-0.37-2.17-0.93-4.34-2.08-6.21
							c-0.47-0.77-1.05-1.49-1.64-2.18c-2.17-2.53-4.68-4.78-7.42-6.68c1.85-0.83,10.25-3.95,15.1,5
							C313.643,180.44,315.403,192.4,315.403,192.4z"/>
						
							<path style="fill:#0B1011;stroke:#0B1011;stroke-width:2;stroke-linecap:round;stroke-linejoin:round;stroke-miterlimit:10;" d="
							M304.763,187.24c0,0.73-0.07,1.57-0.66,2.02c-0.29,0.22-0.67,0.3-1.02,0.42c-1.44,0.49-2.53,1.7-3.17,3.1l-0.43-0.27
							l-3.55,3.66c-2.03,2.1-5.24,2.53-7.76,1.04c-2.66-1.58-5.88-3.49-7.56-4.48c-3.19-1.86-7.36-4.39-4.07-8.01
							c3.3-3.62,16.14-19.21,16.14-19.21s0.13-0.07,0.37-0.17c2.74,1.9,5.25,4.15,7.42,6.68c0.59,0.69,1.17,1.41,1.64,2.18
							c1.15,1.87,1.71,4.04,2.08,6.21C304.583,182.66,304.773,184.95,304.763,187.24z"/>
						<path style="fill:none;stroke:#0B1011;stroke-width:2;stroke-miterlimit:10;" d="M329.705,151.525
							c0,0-12.07,14.335-26.984,10.579c-6.799-1.713-10.572-4.409-12.661-6.98c7.873,0.563,15.833-0.151,23.461-2.126
							c3.075-0.795,6.31-1.938,8.175-4.498c1.729-2.387,1.935-5.511,2.05-8.454c0.298-7.818,0.341-15.637,0.129-23.456
							c-0.005-0.275-0.011-0.55-0.025-0.826c0.791,0.261,7.58,2.991,8.244,5.957C332.768,124.745,329.705,151.525,329.705,151.525z"
							/>
						<path style="fill:#0B1011;stroke:#0B1011;stroke-width:2;stroke-miterlimit:10;" d="M321.697,148.5
							c-1.866,2.56-5.1,3.703-8.175,4.498c-7.629,1.975-15.589,2.689-23.461,2.126c-2.488-3.061-2.59-5.95-2.587-6.78
							c0.001-1.52-0.743-21.967-0.743-21.967s2.833-20.336,37.077-10.631c0.009,0.002,0.027,0.005,0.044,0.018
							c0.014,0.276,0.02,0.551,0.025,0.826c0.212,7.819,0.169,15.638-0.129,23.456C323.632,142.989,323.426,146.114,321.697,148.5z"
							/>
						<path style="fill:none;stroke:#0B1011;stroke-width:2;stroke-linecap:round;stroke-linejoin:round;stroke-miterlimit:10;" d="
							M326.267,98.341c0,0,6.146,20.634,8.561,33.585c2.415,12.951-4.829,26.341-4.829,26.341l-7.024,24.805
							c0,0,20.195,20.195,20.854,28.976l0.22,1.756"/>
						<path style="fill:none;stroke:#0B1011;stroke-width:2;stroke-linecap:round;stroke-linejoin:round;stroke-miterlimit:10;" d="
							M332.853,256.171c0,0-1.537,9.22-3.073,19.976s-12.293,9.878-12.293,9.878c-41.005,8.801-83.834-20.492-100.415-33.402"/>
						<path style="fill:none;stroke:#0B1011;stroke-width:2;stroke-linecap:round;stroke-linejoin:round;stroke-miterlimit:10;" d="
							M247.682,229.317c-8.488-1.756-11.561-11.854-11.561-11.854s4.683-18,4.829-18.439c0.146-0.439-9.951-8.195-9.951-8.195
							l-2.488,27.658c0,0,2.598,17.159,14.451,22.427"/>
						<g>
							<path style="fill:#0B1011;" d="M302.544,200.273c0.59,1.296,1.38,2.498,2.329,3.552c0.944,1.06,2.079,1.927,3.244,2.787
								c1.161,0.86,2.365,1.725,3.407,2.813c1.033,1.075,1.935,2.389,2.288,3.935c0.062,0.269-0.105,0.538-0.374,0.6
								c-0.269,0.062-0.538-0.105-0.6-0.374c-0.001-0.004-0.003-0.012-0.004-0.016c-0.258-1.311-1.013-2.514-1.952-3.545
								c-0.94-1.04-2.08-1.914-3.223-2.81c-1.142-0.893-2.304-1.83-3.264-2.97c-0.962-1.13-1.748-2.404-2.323-3.765
								c-0.055-0.131,0.006-0.282,0.137-0.337C302.337,200.087,302.486,200.146,302.544,200.273z"/>
						</g>
						<path style="fill:none;stroke:#0B1011;stroke-width:2;stroke-linecap:round;stroke-linejoin:round;stroke-miterlimit:10;" d="
							M265.792,227.854c0,0-4.171-7.683-7.024-8.341c-2.854-0.659-10.976,9.329-10.976,9.329s5.817,13.829,8.451,13.61
							C258.877,242.232,265.792,227.854,265.792,227.854z"/>
						<path style="fill:none;stroke:#0B1011;stroke-width:2;stroke-linecap:round;stroke-linejoin:round;stroke-miterlimit:10;" d="
							M265.792,227.854c0,0,6.366-9.549,8.341-8.232c1.976,1.317,8.561,7.463,8.561,7.463l-8.341,29.415
							C274.353,256.5,266.121,234.549,265.792,227.854z"/>
						<path style="fill:none;stroke:#0B1011;stroke-width:2;stroke-linecap:round;stroke-linejoin:round;stroke-miterlimit:10;" d="
							M282.694,227.085c0,0,5.817-9.768,10.207-6.585c4.39,3.183,7.463,5.817,7.463,5.817s-3.402,12.732-7.573,13.72
							C288.621,241.024,282.694,227.085,282.694,227.085z"/>
						<path style="fill:none;stroke:#0B1011;stroke-width:2;stroke-linecap:round;stroke-linejoin:round;stroke-miterlimit:10;" d="
							M300.694,225.439c0,0,5.159-7.244,7.024-6.805c1.866,0.439,8.671,2.415,9,3.512c0.329,1.098-0.219,19.976-0.219,19.976
							s-4.061,4.939-6.805,3.402s-11.415-13.171-11.415-13.171L300.694,225.439z"/>
						<path style="fill:none;stroke:#0B1011;stroke-width:2;stroke-linecap:round;stroke-linejoin:round;stroke-miterlimit:10;" d="
							M316.389,221.707c0,0,5.927-5.927,6.256-5.927c0.329,0,3.402-1.098,5.817,2.854c2.415,3.951,6.366,17.451,2.085,22.829
							l-6.695,1.976l-7.024-9.768L316.389,221.707z"/>
						<path style="fill:none;stroke:#0B1011;stroke-width:2;stroke-linecap:round;stroke-linejoin:round;stroke-miterlimit:10;" d="
							M326.706,216.549c0,0,5.268-4.171,6.915-1.537c1.646,2.634,6.476,14.817,6.476,14.817l-7.354,6.146
							C332.743,235.976,332.743,221.598,326.706,216.549z"/>
						<path style="fill:none;stroke:#0B1011;stroke-width:2;stroke-linecap:round;stroke-linejoin:round;stroke-miterlimit:10;" d="
							M333.621,215.012c0,0,7.244-3.842,9.768-1.207c2.524,2.634,4.72,7.683,4.72,7.683s2.963,26.561,1.317,29.195
							c-1.646,2.634-11.415-19.098-11.415-19.098l1.976-2.305L333.621,215.012z"/>
						
							<polygon style="fill:none;stroke:#0B1011;stroke-width:2;stroke-linecap:round;stroke-linejoin:round;stroke-miterlimit:10;" points="
							293.515,261.702 288.319,249.502 291.821,240.578 298.824,232.896 304.021,240.804 304.247,250.519 						"/>
						
							<polygon style="fill:none;stroke:#0B1011;stroke-width:2;stroke-linecap:round;stroke-linejoin:round;stroke-miterlimit:10;" points="
							302.07,254.181 311.487,263.842 316.99,251.613 315.4,243.419 310.753,245.62 307.329,243.296 304.027,248.433 
							304.247,250.519 						"/>
						
							<polygon style="fill:none;stroke:#0B1011;stroke-width:2;stroke-linecap:round;stroke-linejoin:round;stroke-miterlimit:10;" points="
							323.414,258.805 317.487,249.366 322.097,240.476 323.853,243.439 328.353,241.683 329.67,250.573 						"/>
						<path style="fill:none;stroke:#0B1011;stroke-width:2;stroke-linecap:round;stroke-linejoin:round;stroke-miterlimit:10;" d="
							M331.189,257.58c-0.134-0.267-1.671-6.75-1.671-6.75l-1.136-8.688l2.165-0.679c0,0,1.844-3.798,2.045-5.937l1.27-0.936
							l3.943,5.012l-3.341,14.301L331.189,257.58z"/>
						<path style="fill:none;stroke:#0B1011;stroke-width:2;stroke-linecap:round;stroke-linejoin:round;stroke-miterlimit:10;" d="
							M281.737,267.136c-0.201-0.134-7.618-10.425-7.618-10.425l9.757-19.714l4.878,12.43c0,0,1.604,6.282,1.403,6.482
							S281.737,267.136,281.737,267.136z"/>
						
							<polygon style="fill:none;stroke:#0B1011;stroke-width:2;stroke-linecap:round;stroke-linejoin:round;stroke-miterlimit:10;" points="
							271.913,249.427 263.76,255.909 259.35,248.157 258.748,244.549 265.164,235.594 267.302,236.329 						"/>
						<path style="fill:none;stroke:#0B1011;stroke-width:2;stroke-linecap:round;stroke-linejoin:round;stroke-miterlimit:10;" d="
							M253.135,239.603l-6.148,8.287l-3.676-7.284c0,0,5.48-10.358,5.48-10.158C248.791,230.648,253.135,239.603,253.135,239.603z"
							/>
						<g>
							<path style="fill:#0B1011;" d="M219.019,185.441c4.15,1.291,8.288,2.679,12.325,4.343c0.256,0.104,0.379,0.396,0.275,0.652
								c-0.104,0.256-0.396,0.379-0.652,0.275c-0.005-0.002-0.014-0.006-0.019-0.008c-3.938-1.798-7.994-3.329-12.092-4.773
								c-0.134-0.047-0.204-0.194-0.157-0.328C218.744,185.47,218.887,185.401,219.019,185.441z"/>
						</g>
						<g>
							<path style="fill:#0B1011;" d="M283.957,106.754c-1.137-6.956-2.834-13.869-5.817-20.226c-0.117-0.25-0.01-0.548,0.24-0.665
								c0.25-0.117,0.548-0.01,0.665,0.24c0.001,0.003,0.004,0.008,0.005,0.011c2.89,6.546,4.434,13.556,5.416,20.563
								c0.02,0.141-0.078,0.271-0.219,0.291C284.108,106.987,283.979,106.891,283.957,106.754z"/>
						</g>
						<path style="fill:none;stroke:#0B1011;stroke-width:2;stroke-linecap:round;stroke-linejoin:round;stroke-miterlimit:10;" d="
							M249.227,245.938c1.384,0.136,2.768,0.272,4.152,0.408c0.498,0.049,1.002,0.099,1.469,0.279
							c0.482,0.186,0.901,0.502,1.308,0.819c1.711,1.335,3.34,2.776,4.873,4.312"/>
						<g>
							<path style="fill:#0B1011;" d="M316.894,169.896c0.226,6.203,3.436,12.194,8.396,15.795c0.223,0.162,0.273,0.475,0.111,0.698
								c-0.162,0.223-0.475,0.273-0.698,0.111c-0.003-0.002-0.008-0.006-0.011-0.008c-5.117-3.927-8.242-10.212-8.313-16.584
								c-0.002-0.142,0.112-0.259,0.255-0.26C316.774,169.646,316.889,169.757,316.894,169.896z"/>
						</g>
						<g>
							<path style="fill:#0B1011;" d="M240.307,200.901c4.52-9.027,3.142-20.751-3.449-28.535c-0.092-0.108-0.079-0.271,0.029-0.363
								c0.107-0.091,0.268-0.079,0.361,0.027c6.851,7.85,8.507,19.823,3.956,29.312c-0.12,0.249-0.418,0.354-0.667,0.235
								c-0.249-0.119-0.354-0.418-0.235-0.667C240.303,200.907,240.306,200.903,240.307,200.901z"/>
						</g>
						<g>
							<path style="fill:#0B1011;" d="M267.219,181.124c-0.734,2.016-1.109,4.16-1.093,6.299c0.007,1.077,0.058,2.135,0.695,2.905
								c0.623,0.779,1.518,1.474,2.309,2.2c3.26,2.862,6.694,5.52,10.277,7.957c0.228,0.155,0.288,0.466,0.133,0.695
								c-0.155,0.228-0.466,0.288-0.695,0.133c-0.002-0.001-0.006-0.004-0.008-0.005c-3.57-2.527-6.983-5.271-10.212-8.214
								c-0.793-0.76-1.634-1.415-2.363-2.349c-0.355-0.469-0.597-1.064-0.682-1.637c-0.094-0.578-0.092-1.134-0.09-1.686
								c0.025-2.215,0.454-4.419,1.248-6.479c0.051-0.133,0.2-0.199,0.333-0.148C267.201,180.846,267.267,180.993,267.219,181.124z"
								/>
						</g>
						<g>
							<path style="fill:#0B1011;" d="M321.504,194.965l-2.947,4.721c-0.146,0.234-0.455,0.306-0.69,0.16
								c-0.234-0.146-0.306-0.455-0.16-0.69c0.008-0.012,0.016-0.025,0.025-0.036l3.347-4.447c0.086-0.114,0.247-0.136,0.361-0.051
								C321.548,194.703,321.573,194.853,321.504,194.965z"/>
						</g>
						<g>
							<path style="fill:#0B1011;" d="M345.638,233.107c0.062-1.252-0.272-2.497-0.701-3.702c-0.438-1.212-0.927-2.413-1.457-3.59
								c-1.061-2.355-2.296-4.63-3.69-6.797c-0.15-0.232-0.083-0.542,0.15-0.691s0.542-0.083,0.691,0.15
								c0.003,0.004,0.006,0.01,0.009,0.013c1.352,2.253,2.535,4.603,3.537,7.025c0.501,1.212,0.956,2.438,1.364,3.687
								c0.4,1.248,0.721,2.581,0.612,3.94c-0.012,0.142-0.135,0.247-0.277,0.236C345.736,233.367,345.631,233.245,345.638,233.107z"
								/>
						</g>
						<g>
							<path style="fill:#0B1011;" d="M325.759,230.243c-0.615-2.378-1.486-4.682-2.588-6.857c-0.125-0.247-0.026-0.548,0.22-0.672
								c0.247-0.125,0.548-0.026,0.672,0.22c0.005,0.009,0.01,0.02,0.014,0.03c0.986,2.31,1.718,4.717,2.184,7.167
								c0.026,0.14-0.065,0.275-0.205,0.301C325.922,230.458,325.793,230.373,325.759,230.243z"/>
						</g>
						<g>
							<path style="fill:#0B1011;" d="M310.173,231.666l-0.548-5.833c-0.026-0.275,0.176-0.519,0.451-0.545
								c0.275-0.026,0.519,0.176,0.545,0.452c0.001,0.013,0.002,0.028,0.002,0.041l0.063,5.858c0.001,0.142-0.113,0.259-0.255,0.26
								C310.297,231.901,310.185,231.798,310.173,231.666z"/>
						</g>
						<g>
							<path style="fill:#0B1011;" d="M291.691,230.051l-0.497-4.04l-0.006-0.047c-0.034-0.275,0.162-0.525,0.437-0.559
								c0.275-0.034,0.525,0.162,0.559,0.437c0.002,0.019,0.004,0.041,0.004,0.059l0.018,4.144c0.001,0.142-0.114,0.257-0.256,0.258
								c-0.132,0.001-0.24-0.098-0.256-0.225L291.691,230.051z"/>
						</g>
						<g>
							<path style="fill:#0B1011;" d="M273.327,231.366L273.084,228c-0.02-0.276,0.188-0.516,0.464-0.536
								c0.276-0.02,0.516,0.188,0.536,0.464c0.002,0.023,0.001,0.049,0,0.072l-0.243,3.366c-0.01,0.142-0.134,0.249-0.276,0.239
								C273.436,231.595,273.336,231.492,273.327,231.366z"/>
						</g>
						<g>
							<path style="fill:#0B1011;" d="M255.513,229.569c0.144-1.208,0.455-2.407,0.929-3.552c0.104-0.256,0.397-0.379,0.653-0.275
								c0.256,0.105,0.379,0.397,0.275,0.653c-0.008,0.02-0.021,0.045-0.031,0.063c-0.578,0.991-1.026,2.072-1.319,3.204
								c-0.035,0.138-0.176,0.221-0.314,0.186C255.579,229.817,255.499,229.695,255.513,229.569z"/>
						</g>
						<g>
							<path style="fill:#0B1011;" d="M281.881,255.39c-0.074,1.6-0.036,3.2,0.111,4.784c0.026,0.275-0.177,0.519-0.452,0.545
								c-0.275,0.026-0.519-0.177-0.545-0.452c-0.001-0.017-0.002-0.035-0.002-0.051c0.012-1.637,0.139-3.267,0.376-4.876
								c0.021-0.141,0.152-0.238,0.293-0.217C281.793,255.142,281.886,255.26,281.881,255.39z"/>
						</g>
						<g>
							<path style="fill:#0B1011;" d="M295.853,249c-0.36,1.921-0.551,3.866-0.572,5.806c-0.003,0.276-0.23,0.498-0.506,0.495
								c-0.276-0.003-0.498-0.23-0.495-0.506c0-0.013,0.001-0.028,0.002-0.042c0.186-1.989,0.545-3.955,1.069-5.868
								c0.038-0.137,0.179-0.218,0.316-0.18C295.798,248.74,295.877,248.87,295.853,249z"/>
						</g>
						<g>
							<path style="fill:#0B1011;" d="M311.013,252.732l0.243,3.951c0.017,0.276-0.193,0.514-0.469,0.531
								c-0.276,0.017-0.514-0.193-0.531-0.469c-0.001-0.02-0.001-0.042,0-0.061l0.243-3.951c0.009-0.142,0.131-0.25,0.273-0.242
								C310.902,252.498,311.005,252.604,311.013,252.732z"/>
						</g>
						<g>
							<path style="fill:#0B1011;" d="M323.059,249.475c0.215,1.075,0.326,2.179,0.327,3.292c0.002,0.277-0.221,0.503-0.498,0.505
								c-0.277,0.002-0.503-0.221-0.505-0.498c0-0.025,0.002-0.054,0.006-0.077c0.155-1.036,0.209-2.095,0.159-3.157
								c-0.007-0.142,0.103-0.264,0.245-0.271C322.922,249.261,323.034,249.351,323.059,249.475z"/>
						</g>
						<g>
							<path style="fill:#0B1011;" d="M334.732,245.947c0.315,1.188,0.341,2.47,0.056,3.706c-0.06,0.27-0.327,0.441-0.598,0.381
								c-0.27-0.06-0.441-0.327-0.382-0.598c0.005-0.022,0.014-0.05,0.021-0.07c0.394-1.032,0.538-2.185,0.397-3.321
								c-0.018-0.141,0.082-0.271,0.223-0.289C334.58,245.741,334.699,245.824,334.732,245.947z"/>
						</g>
						<g>
							<path style="fill:#0B1011;" d="M265.044,246.683c-0.266,0.871-0.324,1.787-0.183,2.649c0.045,0.274-0.141,0.532-0.415,0.576
								c-0.274,0.045-0.532-0.141-0.576-0.415c-0.005-0.028-0.007-0.056-0.007-0.083l0-0.01c0.011-1.027,0.258-2.027,0.703-2.911
								c0.064-0.127,0.22-0.179,0.347-0.115C265.028,246.432,265.081,246.565,265.044,246.683z"/>
						</g>
						<g>
							<path style="fill:#0B1011;" d="M247.792,238.564c-0.05,1.236-0.274,2.476-0.671,3.672c-0.086,0.263-0.368,0.407-0.632,0.322
								c-0.263-0.086-0.407-0.368-0.321-0.632c0.007-0.021,0.017-0.045,0.026-0.064c0.511-1.049,0.88-2.181,1.085-3.352
								c0.024-0.14,0.158-0.235,0.298-0.21C247.707,238.321,247.796,238.437,247.792,238.564z"/>
						</g>
						<g>
							<path style="fill:#0B1011;" d="M304.799,188.854c3.389,1.501,7.048,2.224,10.702,2.943c0.271,0.053,0.448,0.316,0.394,0.587
								c-0.053,0.271-0.316,0.447-0.587,0.394c-0.007-0.001-0.015-0.003-0.021-0.005c-3.62-0.878-7.317-1.773-10.707-3.454
								c-0.127-0.063-0.179-0.218-0.116-0.345C304.525,188.851,304.674,188.798,304.799,188.854z"/>
						</g>
						<g>
							<path style="fill:#0B1011;" d="M329.793,151.454c-2.645-0.554-5.258-1.283-7.818-2.182c-0.261-0.091-0.398-0.377-0.306-0.638
								c0.091-0.261,0.377-0.398,0.638-0.307c0.009,0.003,0.02,0.007,0.028,0.011c2.461,1.034,4.994,1.908,7.579,2.614
								c0.137,0.037,0.218,0.179,0.181,0.316C330.058,151.402,329.925,151.481,329.793,151.454z"/>
						</g>
						<g>
							<path style="fill:#0B1011;" d="M277.435,152.913l-7.662-2.415c-0.264-0.083-0.41-0.364-0.327-0.627
								c0.083-0.264,0.364-0.41,0.628-0.327c0.009,0.003,0.02,0.007,0.029,0.01l7.502,2.873c0.133,0.051,0.199,0.2,0.148,0.333
								C277.704,152.887,277.564,152.953,277.435,152.913z"/>
						</g>
						<g>
							<path style="fill:#0B1011;" d="M327.716,259.485l-0.298,6.901c-0.012,0.276-0.245,0.49-0.521,0.478
								c-0.276-0.012-0.49-0.245-0.478-0.521c0-0.011,0.001-0.024,0.003-0.035l0.781-6.863c0.016-0.141,0.144-0.243,0.285-0.227
								C327.623,259.234,327.722,259.352,327.716,259.485z"/>
						</g>
						<g>
							<path style="fill:#0B1011;" d="M319.354,260.927l0.243,4.829c0.014,0.276-0.199,0.511-0.475,0.525
								c-0.276,0.014-0.511-0.199-0.525-0.475c-0.001-0.017-0.001-0.034,0-0.05l0.242-4.829c0.007-0.142,0.128-0.252,0.27-0.244
								C319.243,260.689,319.347,260.797,319.354,260.927z"/>
						</g>
						<g>
							<path style="fill:#0B1011;" d="M302.814,261.644c0.197,2.074,0.132,4.182-0.199,6.259c-0.043,0.273-0.299,0.46-0.572,0.417
								s-0.459-0.299-0.417-0.572c0.002-0.013,0.005-0.027,0.008-0.039c0.473-1.963,0.699-3.996,0.665-6.035
								c-0.003-0.142,0.111-0.26,0.253-0.262C302.688,261.409,302.801,261.512,302.814,261.644z"/>
						</g>
						<g>
							<path style="fill:#0B1011;" d="M289.222,264.172l-0.236,5.141c-0.013,0.276-0.247,0.49-0.523,0.477
								c-0.276-0.013-0.49-0.247-0.477-0.523c0.001-0.016,0.002-0.032,0.004-0.047l0.719-5.096c0.02-0.141,0.15-0.239,0.291-0.219
								C289.133,263.923,289.227,264.041,289.222,264.172z"/>
						</g>
						<g>
							<path style="fill:#0B1011;" d="M268.179,258.39c-0.439,1.622-0.725,3.278-0.854,4.938c-0.021,0.276-0.262,0.482-0.538,0.46
								c-0.276-0.021-0.482-0.262-0.46-0.538c0.001-0.016,0.004-0.033,0.006-0.048c0.297-1.702,0.753-3.368,1.356-4.971
								c0.05-0.133,0.199-0.201,0.332-0.15C268.146,258.129,268.213,258.264,268.179,258.39z"/>
						</g>
						<g>
							<path style="fill:#0B1011;" d="M252.824,252.359c-0.229,1.468-0.577,2.924-1.041,4.349c-0.085,0.263-0.368,0.407-0.631,0.322
								c-0.263-0.085-0.407-0.368-0.322-0.631c0.006-0.018,0.013-0.036,0.02-0.052c0.596-1.317,1.089-2.687,1.47-4.095
								c0.037-0.137,0.179-0.219,0.316-0.182C252.765,252.105,252.844,252.231,252.824,252.359z"/>
						</g>
						<g>
							<path style="fill:#0B1011;" d="M266.351,216.311c-0.289-2.419-0.928-4.784-1.883-6.999c-0.109-0.254,0.007-0.548,0.261-0.658
								c0.254-0.109,0.548,0.008,0.658,0.261c0.004,0.01,0.009,0.021,0.012,0.031c0.84,2.364,1.333,4.838,1.466,7.32
								c0.008,0.142-0.101,0.263-0.243,0.271C266.484,216.545,266.367,216.444,266.351,216.311z"/>
						</g>
						<g>
							<path style="fill:#0B1011;" d="M280.469,216.759c-0.579-2.57-1.746-4.989-3.37-7.016c-0.173-0.216-0.138-0.53,0.078-0.703
								c0.216-0.173,0.531-0.138,0.703,0.078c0.006,0.008,0.013,0.017,0.019,0.025c1.586,2.248,2.641,4.84,3.076,7.519
								c0.023,0.14-0.073,0.273-0.213,0.296C280.626,216.979,280.499,216.89,280.469,216.759z"/>
						</g>
						<g>
							<path style="fill:#0B1011;" d="M296.7,216.47c-0.514-2.13-1.576-4.105-3.035-5.683c-0.188-0.203-0.175-0.52,0.028-0.707
								c0.203-0.188,0.52-0.175,0.707,0.028c0.008,0.009,0.017,0.02,0.025,0.029c1.447,1.815,2.406,3.982,2.78,6.231
								c0.023,0.14-0.072,0.273-0.212,0.296C296.859,216.686,296.732,216.6,296.7,216.47z"/>
						</g>
						<g>
							<path style="fill:#0B1011;" d="M325.977,212.247c-0.7-1.714-1.846-3.223-3.268-4.341c-0.217-0.171-0.255-0.485-0.085-0.703
								c0.171-0.217,0.486-0.255,0.703-0.084c0.011,0.009,0.024,0.02,0.034,0.029c1.45,1.355,2.522,3.071,3.101,4.925
								c0.042,0.136-0.033,0.28-0.169,0.323C326.164,212.436,326.028,212.369,325.977,212.247z"/>
						</g>
						<g>
							<path style="fill:#0B1011;" d="M334.127,209.678c-0.82-1.17-1.863-2.165-3.042-2.916c-0.233-0.149-0.302-0.458-0.153-0.691
								c0.149-0.233,0.458-0.302,0.691-0.154c0.016,0.01,0.033,0.023,0.047,0.034c1.19,0.959,2.176,2.142,2.894,3.455
								c0.068,0.125,0.022,0.282-0.102,0.35C334.346,209.82,334.202,209.783,334.127,209.678z"/>
						</g>
						<g>
							<path style="fill:#0B1011;" d="M224.937,126.132c0.13-3.042,1.744-5.764,3.664-7.97c1.955-2.215,4.281-4.113,6.877-5.532
								c2.579-1.452,5.391-2.467,8.283-3.084c2.891-0.635,5.876-0.802,8.832-0.62c0.276,0.017,0.485,0.254,0.468,0.53
								c-0.017,0.276-0.254,0.485-0.53,0.468c-0.001,0-0.003,0-0.004,0l-0.013-0.001c-2.858-0.215-5.758-0.095-8.576,0.484
								c-2.819,0.561-5.568,1.509-8.095,2.887c-2.545,1.345-4.831,3.158-6.764,5.288c-1.9,2.12-3.469,4.714-3.628,7.574
								c-0.007,0.142-0.128,0.252-0.27,0.245C225.041,126.393,224.932,126.272,224.937,126.132z"/>
						</g>
						<g>
							<path style="fill:#0B1011;" d="M309.126,106.883c5.55-1.533,11.759-0.561,16.622,2.656c0.23,0.152,0.293,0.462,0.141,0.693
								c-0.152,0.23-0.463,0.294-0.693,0.141c-0.003-0.002-0.009-0.006-0.012-0.008c-4.52-3.185-10.488-4.324-15.928-2.984
								c-0.138,0.034-0.278-0.05-0.312-0.188C308.911,107.058,308.993,106.921,309.126,106.883z"/>
						</g>
					</g>
					<path style="fill:none;stroke:#0B1011;stroke-width:2;stroke-linecap:round;stroke-linejoin:round;stroke-miterlimit:10;" d="
						M51.363,501.805L90.95,373.61c0,0-5.707-25.464,7.463-33.805c13.171-8.341,36.878-20.195,38.634-33.805
						s15.805-95.707,16.683-132.146c0.878-36.439,0-71.561,3.512-80.781c3.512-9.219,56.195-81.219,127.317-53.561
						c0,0,60.585,36.878,67.61,67.171c0,0,4.829,24.146,4.39,38.195c-0.439,14.049,7.024,50.049,7.024,50.049l-14.049,113.268
						c0,0,48.293,9.659,45.219,30.293c-3.073,20.634-1.317,20.634-1.317,20.634s14.488,36.878,14.488,66.293
						c0,29.415,25.709,77.707,25.709,77.707L51.363,501.805z"/>
					<path style="fill:none;stroke:#0B1011;stroke-width:2;stroke-linecap:round;stroke-linejoin:round;stroke-miterlimit:10;" d="
						M353.34,111.073c0,0-1.171-4.683-8.78-7.024c-7.61-2.341-46.829-16.39-64.976-17.561c-18.146-1.171-52.39,16.098-61.463,26.049
						c-9.073,9.951-10.537,5.854-5.854,33.073c4.683,27.219,12.585,72.585,5.561,102.146c-7.024,29.561,31.61,50.341,31.61,50.341
						s21.366,21.659,14.634,54.732c-6.732,33.073,11.707,128.407,28.098,149.773"/>
					<path style="fill:none;stroke:#0B1011;stroke-width:2;stroke-linecap:round;stroke-linejoin:round;stroke-miterlimit:10;" d="
						M342.706,208.282c1.114-2.314,1.781-3.698,1.854-3.843c0.585-1.171,11.78-31.409,12.072-54.823"/>
					<path style="fill:none;stroke:#0B1011;stroke-width:2;stroke-linecap:round;stroke-linejoin:round;stroke-miterlimit:10;" d="
						M302.414,503.51c0,0-3.765-138.951-3.219-155.071c0.053-1.554,0-0.878,0-0.878s-17.268-15.22-14.341-26.341
						c2.927-11.122,13.463-23.707,19.61-33.366"/>
					<g>
						<path style="fill:#0B1011;" d="M299.939,346.807c2.012,3.027,4.798,5.476,7.672,7.778c2.9,2.29,5.851,4.577,8.684,6.99
							c5.664,4.818,11.089,10.047,15.41,16.2c4.317,6.105,7.419,13.292,8.005,20.859c0.7,7.553-0.799,15.068-2.888,22.211
							c-1.055,3.585-2.3,7.1-3.579,10.591c-1.284,3.487-2.583,6.966-3.956,10.428c-1.377,3.459-2.819,6.896-4.438,10.269
							c-1.613,3.37-3.381,6.657-5.197,9.903c-3.625,6.493-7.467,12.838-10.479,19.542c-3.035,6.679-5.072,13.799-5.484,21.088
							c-0.031,0.551-0.503,0.973-1.055,0.942c-0.551-0.031-0.973-0.503-0.942-1.055l0-0.005l0-0.007
							c0.468-7.558,2.634-14.935,5.773-21.734c3.117-6.83,7.023-13.187,10.664-19.627c1.826-3.22,3.593-6.463,5.203-9.779
							c1.613-3.309,3.062-6.712,4.447-10.14c1.382-3.43,2.698-6.897,3.997-10.367c1.293-3.47,2.545-6.949,3.604-10.479
							c2.1-7.035,3.589-14.366,2.949-21.661c-0.526-7.299-3.472-14.252-7.663-20.253c-4.192-6.04-9.518-11.239-15.116-16.051
							c-2.806-2.415-5.711-4.691-8.622-7.015c-2.886-2.339-5.75-4.868-7.848-8.059c-0.156-0.238-0.09-0.557,0.147-0.713
							C299.465,346.505,299.783,346.57,299.939,346.807z"/>
					</g>
					<g>
						<path style="fill:#0B1011;" d="M349.372,306.076c-1.498,7.512-2.546,15.113-3.492,22.72
							c-0.934,7.61-1.726,15.238-2.444,22.873c-1.413,15.272-2.564,30.571-3.45,45.881c-0.015,0.276-0.251,0.487-0.527,0.472
							c-0.276-0.015-0.487-0.251-0.472-0.527l0-0.004c0.968-15.32,2.2-30.619,3.695-45.895c0.759-7.637,1.592-15.267,2.567-22.88
							c0.987-7.611,2.075-15.216,3.619-22.745c0.029-0.139,0.165-0.229,0.304-0.201C349.31,305.799,349.4,305.937,349.372,306.076z"
							/>
					</g>
					<g>
						<path style="fill:#0B1011;" d="M392.196,335.762c-2.521,2.444-4.455,5.472-6.135,8.594c-1.661,3.146-3.055,6.438-4.285,9.79
							c-2.451,6.712-4.31,13.642-5.843,20.632c-0.764,3.497-1.439,7.014-2.028,10.544c-0.3,1.763-0.551,3.535-0.796,5.311
							c-0.24,1.776-0.518,3.546-0.727,5.326c-0.926,7.109-1.624,14.248-2.26,21.391c-1.232,14.292-2.022,28.624-2.647,42.962
							c-0.614,14.34-1.046,28.69-1.505,43.046c-0.018,0.552-0.48,0.985-1.032,0.967c-0.552-0.018-0.985-0.479-0.967-1.031l0-0.007
							c0.544-14.348,1.062-28.704,1.761-43.055c0.711-14.35,1.587-28.698,2.907-43.015c0.68-7.156,1.422-14.308,2.393-21.436
							c0.219-1.784,0.509-3.56,0.761-5.341c0.256-1.779,0.519-3.56,0.829-5.335c0.61-3.55,1.307-7.083,2.094-10.597
							c1.578-7.025,3.483-13.989,5.993-20.758c1.261-3.381,2.688-6.709,4.397-9.906c1.731-3.175,3.72-6.273,6.382-8.829
							c0.205-0.197,0.531-0.19,0.728,0.015c0.197,0.205,0.19,0.531-0.015,0.728L392.196,335.762z"/>
					</g>
					<g>
						<path style="fill:#0B1011;" d="M91.654,366.443l4.823-12.801c0.403-1.062,0.797-2.161,1.378-3.213
							c0.566-1.047,1.381-2.056,2.45-2.719c1.059-0.668,2.252-1.005,3.417-1.198c1.172-0.192,2.332-0.246,3.477-0.288
							c9.189-0.356,18.476,1.204,26.996,4.741c8.497,3.532,16.226,9.218,21.679,16.72c5.512,7.453,8.944,16.233,10.922,25.197
							c1.976,9,2.497,18.217,2.558,27.354c0.026,9.15-0.245,18.255-0.374,27.376l-0.481,27.354
							c-0.08,4.566-0.178,9.109-0.172,13.661c0.016,4.535-0.019,9.145,0.269,13.583l0.003,0.05c0.036,0.551-0.382,1.026-0.933,1.062
							c-0.551,0.036-1.027-0.382-1.062-0.933l0-0.003c-0.289-4.664-0.234-9.183-0.241-13.765c0.003-4.568,0.117-9.142,0.221-13.694
							l0.608-27.352c0.171-9.115,0.485-18.243,0.5-27.333c-0.019-9.081-0.497-18.188-2.397-27.034
							c-1.901-8.814-5.227-17.415-10.555-24.688c-5.264-7.313-12.742-12.876-21.042-16.374c-8.316-3.499-17.428-5.078-26.457-4.768
							c-2.243,0.078-4.549,0.182-6.338,1.283c-1.791,1.092-2.609,3.259-3.404,5.368l-4.882,12.778
							c-0.101,0.266-0.399,0.399-0.665,0.297C91.686,367.004,91.552,366.709,91.654,366.443z"/>
					</g>
					<g>
						<path style="fill:#0B1011;" d="M206.792,190.123c0.359,6.61-0.412,13.22-1.723,19.661c-1.302,6.453-3.095,12.773-4.783,19.097
							c-1.691,6.321-3.276,12.669-4.179,19.118c-0.43,3.226-0.705,6.472-0.845,9.727c-0.126,3.256-0.106,6.518-0.002,9.778
							c0.447,13.055,2.541,26.012,3.737,39.083c1.258,13.059,2.148,26.152,2.674,39.257c1.05,26.212,0.976,52.459-0.041,78.669
							c-1.032,26.208-2.998,52.391-6.33,78.429c-0.07,0.548-0.571,0.935-1.119,0.865c-0.548-0.07-0.935-0.571-0.865-1.119l0-0.003
							l0.001-0.005c3.399-25.948,5.439-52.078,6.547-78.238c1.093-26.162,1.244-52.37,0.274-78.536
							c-0.486-13.083-1.335-26.151-2.552-39.181c-1.152-13.026-3.205-26.013-3.615-39.177c-0.094-3.288-0.104-6.581,0.035-9.873
							c0.152-3.291,0.442-6.577,0.889-9.845c0.937-6.534,2.557-12.923,4.272-19.249c1.712-6.329,3.518-12.621,4.83-19.014
							c1.321-6.382,2.098-12.894,1.767-19.387c-0.015-0.284,0.202-0.527,0.486-0.542
							C206.533,189.622,206.776,189.839,206.792,190.123z"/>
					</g>
					<g>
						<path style="fill:#0B1011;" d="M277.084,62.052c3.875-0.183,7.772-0.005,11.61,0.588c3.841,0.573,7.622,1.551,11.274,2.88
							c3.655,1.33,7.169,3.032,10.486,5.081c3.287,2.061,6.413,4.665,8.384,8.162c0.135,0.241,0.05,0.546-0.19,0.681
							c-0.241,0.135-0.546,0.05-0.681-0.19c-0.001-0.001-0.003-0.006-0.004-0.007c-1.811-3.301-4.778-5.852-7.98-7.904
							c-3.234-2.044-6.687-3.764-10.279-5.113c-3.59-1.35-7.317-2.356-11.109-2.962c-3.791-0.627-7.646-0.844-11.487-0.702
							c-0.142,0.007-0.263-0.103-0.269-0.245C276.832,62.181,276.943,62.061,277.084,62.052z"/>
					</g>
					<g>
						<path style="fill:#0B1011;" d="M239.78,68.053c-18.861,3.392-35.492,16.973-42.587,34.679
							c-0.103,0.256-0.394,0.381-0.65,0.279c-0.257-0.103-0.381-0.394-0.279-0.65l0.002-0.004
							c7.39-17.979,24.354-31.54,43.425-34.81c0.14-0.024,0.273,0.07,0.297,0.21C240.012,67.895,239.919,68.028,239.78,68.053z"/>
					</g>
					<g>
						<path style="fill:#0B1011;" d="M176.219,165.649c-2.279,7.916-3.445,16.114-4.069,24.328
							c-0.629,8.22-0.795,16.476-1.078,24.726c-0.517,16.498-0.934,33.007-0.402,49.498l1.114,24.739
							c0.374,8.251,0.427,16.522,0.285,24.783c-0.332,16.525-1.658,33.03-3.974,49.398c-0.039,0.273-0.292,0.464-0.565,0.425
							c-0.273-0.039-0.464-0.292-0.425-0.565l0-0.002c2.35-16.322,3.714-32.786,4.085-49.275c0.162-8.245,0.13-16.493-0.224-24.737
							l-1.053-24.744c-0.493-16.521-0.035-33.042,0.523-49.542c0.304-8.248,0.489-16.507,1.14-24.751
							c0.647-8.235,1.836-16.469,4.149-24.427c0.04-0.136,0.183-0.215,0.319-0.175C176.181,165.369,176.259,165.513,176.219,165.649
							z"/>
					</g>
					<g>
						
							<rect x="274.428" y="107.067" transform="matrix(-0.9999 -0.0146 0.0146 -0.9999 564.2155 221.9)" style="fill:#0B1011;" width="16.976" height="3.658"/>
						
							<rect x="271.871" y="101.726" transform="matrix(-0.0146 0.9999 -0.9999 -0.0146 390.6581 -177.9006)" style="fill:#0B1011;" width="22.244" height="3.659"/>
					</g>
					<path style="fill:#0B1011;" d="M167.883,441.138c0,0-15.229-91.228-59.961-92.049c-10.686-0.196,0-0.937,0-0.937
						s6.324-3.279,14.522-0.468c8.198,2.811,36.538,9.603,43.097,42.16C165.541,389.843,171.631,424.977,167.883,441.138z"/>
					<g>
						<path style="fill:#0B1011;" d="M292.526,317.285c1.315,5.539,3.527,10.857,6.492,15.708c2.958,4.86,6.7,9.226,11.031,12.907
							c4.316,3.713,9.091,6.874,13.629,10.389c4.527,3.495,8.906,7.416,12.005,12.367c0.147,0.234,0.076,0.543-0.159,0.689
							c-0.234,0.146-0.543,0.076-0.689-0.159l-0.002-0.004c-2.965-4.815-7.223-8.698-11.695-12.2
							c-4.479-3.522-9.246-6.725-13.584-10.51c-4.36-3.758-8.124-8.214-11.079-13.15c-2.965-4.929-5.162-10.319-6.45-15.922
							c-0.032-0.139,0.055-0.277,0.193-0.309C292.356,317.061,292.494,317.147,292.526,317.285z"/>
					</g>
					<g>
						<path style="fill:#0B1011;" d="M263.994,377.879c-1.565-4.045-2.08-8.383-2.293-12.654c-0.213-4.285-0.19-8.56-0.613-12.803
							c-0.402-4.236-1.135-8.466-2.613-12.448c-1.452-3.982-3.725-7.664-6.805-10.576c-0.729-0.768-1.585-1.403-2.38-2.101
							c-0.859-0.623-1.679-1.297-2.579-1.865c-1.748-1.208-3.607-2.255-5.463-3.303c-3.735-2.062-7.589-3.943-11.247-6.209
							c-3.664-2.231-7.123-4.939-9.857-8.3c-2.757-3.334-4.886-7.138-6.575-11.092c-3.326-7.946-5.248-16.409-6.118-24.952
							c-0.828-8.552-0.497-17.22,1.084-25.68c0.814-4.238,2.176-8.349,3.755-12.336c1.568-3.99,3.319-7.905,4.77-11.893
							c1.398-3.986,2.059-8.212,2.321-12.444c0.258-4.24,0.112-8.504-0.243-12.748c-0.023-0.275,0.181-0.517,0.456-0.54
							c0.275-0.023,0.517,0.181,0.54,0.456l0,0.001c0.348,4.279,0.486,8.589,0.215,12.891c-0.277,4.295-0.957,8.603-2.403,12.697
							c-1.485,4.049-3.241,7.946-4.811,11.914c-1.578,3.958-2.927,8.002-3.738,12.171c-1.583,8.357-1.933,16.957-1.132,25.432
							c0.841,8.464,2.734,16.879,6.001,24.734c1.658,3.908,3.746,7.654,6.439,10.927c2.67,3.297,6.038,5.949,9.662,8.17
							c3.613,2.25,7.455,4.138,11.203,6.218c1.865,1.058,3.736,2.118,5.506,3.347c0.909,0.577,1.744,1.265,2.614,1.9
							c0.81,0.713,1.677,1.362,2.422,2.149c3.142,2.984,5.466,6.772,6.931,10.824c1.493,4.056,2.222,8.335,2.617,12.604
							c0.415,4.276,0.382,8.571,0.584,12.829c0.201,4.25,0.704,8.529,2.228,12.496c0.052,0.132-0.014,0.282-0.146,0.333
							C264.195,378.078,264.046,378.012,263.994,377.879z"/>
					</g>
					<g>
						<path style="fill:#0B1011;" d="M207.292,110.85c-1.823,0.686-3.377,1.97-4.554,3.516c-1.182,1.55-2.022,3.355-2.524,5.238
							c-1.009,3.804-0.796,7.81-0.575,11.776c0.016,0.276-0.195,0.512-0.471,0.527c-0.276,0.016-0.512-0.195-0.527-0.471
							c0-0.003,0-0.008-0.001-0.011c-0.139-3.971-0.285-8.084,0.844-12.024c0.566-1.96,1.48-3.826,2.753-5.427
							c1.267-1.596,2.936-2.922,4.878-3.608c0.134-0.048,0.281,0.022,0.329,0.156C207.491,110.654,207.423,110.8,207.292,110.85z"/>
					</g>
					<path style="fill:#0B1011;" d="M393.657,360.585c0,0-8.506-12.219-9.823-13.372c0,0,5.524-12.695,10.957-13.848
						c0,0,0.348,2.488-0.037,4.793c-0.384,2.305-1.646,13.061-1.646,13.061s0.055,6.366,0.165,7.518"/>
					<path style="fill:#0B1011;" d="M90.95,373.61c0,0,10.976-25.134,22.281-26.451c11.305-1.317,0,0,0,0s-8.781-0.768-10.866,0
						c-2.085,0.768-4.72,4.061-5.268,5.707c-0.549,1.646-6.805,18-6.805,18L90.95,373.61"/>
				</g>
				<path style="fill:#F75843;" d="M307.607,137.41c0.214,2.356,1.937,4.2,4.055,4.2c2.118,0,3.841-1.844,4.055-4.2H307.607z"/>
				<path style="fill:#F75843;" d="M253.217,136.71c-0.003,0.073-0.019,0.142-0.019,0.217c0,2.586,1.835,4.683,4.098,4.683
					c2.263,0,4.098-2.097,4.098-4.683c0-0.074-0.016-0.143-0.019-0.217H253.217z"/>
				<g>
					<path style="fill:#FFFFFF;" d="M262.467,139.081c0,0.878-0.712,1.59-1.59,1.59c-0.878,0-1.59-0.712-1.59-1.59
						c0-0.878,0.712-1.59,1.59-1.59C261.755,137.491,262.467,138.203,262.467,139.081z"/>
					<circle style="fill:#FFFFFF;" cx="258.107" cy="138.153" r="0.461"/>
				</g>
				<g>
					<path style="fill:#FFFFFF;" d="M317.052,139.081c0,0.878-0.712,1.59-1.59,1.59s-1.59-0.712-1.59-1.59
						c0-0.878,0.712-1.59,1.59-1.59S317.052,138.203,317.052,139.081z"/>
					<circle style="fill:#FFFFFF;" cx="312.693" cy="138.153" r="0.461"/>
				</g>
			</g>
		</g>
	</g>
</g>
</svg>
