<?xml version="1.0" encoding="utf-8"?>
<!-- Generator: Adobe Illustrator 27.5.0, SVG Export Plug-In . SVG Version: 6.00 Build 0)  -->
<svg version="1.1" xmlns="http://www.w3.org/2000/svg" xmlns:xlink="http://www.w3.org/1999/xlink" x="0px" y="0px"
	 viewBox="0 0 500 500" style="enable-background:new 0 0 500 500;" xml:space="preserve">
<g id="BACKGROUND">
	<rect style="fill:#FFDDD3;" width="500" height="500"/>
</g>
<g id="OBJECTS">
	<g>
		<defs>
			<rect id="SVGID_1_" width="500" height="500"/>
		</defs>
		<clipPath id="SVGID_00000125566968817116538410000008461175208969024180_">
			<use xlink:href="#SVGID_1_"  style="overflow:visible;"/>
		</clipPath>
		<g style="clip-path:url(#SVGID_00000125566968817116538410000008461175208969024180_);">
			<g>
				<ellipse style="fill:#0B1011;" cx="281.053" cy="72.805" rx="42.732" ry="21.293"/>
				<g>
					<path style="fill:none;stroke:#0B1011;stroke-linecap:round;stroke-linejoin:round;stroke-miterlimit:10;" d="M327.187,147.065
						c0.287-1.02,0.433-2.092,0.433-3.191c0-1.541-0.294-3.042-0.875-4.461c-1.824-4.458-6.116-7.339-10.935-7.339
						c-4.931,0-9.379,3.104-11.071,7.724c-0.484,1.31-0.729,2.68-0.729,4.076c0,1.297,0.211,2.58,0.627,3.81
						c1.629,4.784,6.12,8,11.172,8C321.089,155.684,325.768,152.14,327.187,147.065z M317.423,150.683
						c-4.243,0-7.683-3.44-7.683-7.683c0-4.243,3.44-7.683,7.683-7.683c4.243,0,7.683,3.44,7.683,7.683
						C325.106,147.243,321.666,150.683,317.423,150.683z"/>
					<g>
						<path style="fill:#E2C597;" d="M341.485,192.777l-0.051-0.094l-0.103-0.028c-0.942-0.256-1.947-0.387-2.988-0.387
							c-1.921,0-3.581,0.432-4.657,0.795l-0.061,0.036c-0.74,0.447-1.498,0.879-2.232,1.296l-0.353,0.201
							c-2.348,1.333-4.897,2.677-7.627,3.477c-0.02,0.006-0.038,0.009-0.056,0.009c-0.08,0-0.15-0.053-0.174-0.132
							c-0.03-0.098,0.025-0.198,0.124-0.228c2.704-0.842,5.19-2.211,7.475-3.564l0.798-0.477c2.089-1.247,4.249-2.536,6.061-4.151
							c0.415-0.364,0.806-0.756,1.162-1.162l0.08-0.092l-0.023-0.12c-0.031-0.165-0.014-0.323,0.052-0.471
							c2.379-5.174,2.78-9.617,1.191-13.204c-1.058-2.387-2.807-3.941-4.087-4.824c0,0-0.064-0.044-0.081-0.044
							c-0.257-0.137-0.539-0.274-0.839-0.408c-1.652-0.743-3.535-1.119-5.597-1.119c-0.743,0-1.51,0.05-2.278,0.15
							c-2.492,0.33-5.095,1.146-7.737,2.423c-2.691,1.307-4.804,2.946-6.28,4.873c-0.143,0.186-0.359,0.293-0.59,0.293
							c-0.166,0-0.324-0.055-0.458-0.158c-0.163-0.122-0.266-0.298-0.293-0.497c-0.027-0.198,0.026-0.394,0.148-0.553
							c1.658-2.08,3.972-3.819,6.888-5.176c2.787-1.297,5.537-2.107,8.173-2.408c0.715-0.08,1.431-0.12,2.128-0.12
							c0.917,0,1.82,0.07,2.684,0.209l0.416,0.067l-0.141-0.397c-1.229-3.463-2.831-12.461-1.897-21.862l0.087-0.872l-0.534,0.695
							l-0.5,0.651l-0.042,0.054l-0.008,0.068c-0.085,0.708-0.217,1.386-0.394,2.014c-1.221,4.365-4.544,7.814-8.891,9.228
							l-1.163,0.378l1.218,0.109c1.239,0.11,2.549,0.288,4.247,0.576c0.066,0.011,0.123,0.047,0.162,0.102
							c0.039,0.055,0.054,0.121,0.043,0.187c-0.02,0.121-0.124,0.208-0.246,0.208c0,0-0.044,0.112-0.078,0.115l0.017-0.123
							c-1.18-0.234-2.737-0.525-4.307-0.703c-1.011-0.131-2.025-0.198-2.794-0.242c-0.48,0.041-0.883,0.061-1.269,0.061
							c-0.578,0-1.178-0.044-1.835-0.133c-1.124,0.012-2.011,0.05-2.83,0.117c-1.723,0.146-3.095,0.356-4.319,0.66
							c1.216-0.353,2.55-0.595,4.306-0.795c0.07-0.008,0.142-0.013,0.214-0.018c0.066-0.005,0.132-0.009,0.197-0.016l1.183-0.117
							l-1.13-0.37c-4.028-1.318-7.249-4.502-8.616-8.516c-0.049-0.144-0.089-0.29-0.13-0.436l-0.05-0.176l-0.039-0.136l-0.137-0.036
							c-2.387-0.634-5.582-1.468-6.806-1.787l6.778-5.018l0.071-0.053l0.022-0.086c0.128-0.496,0.26-0.929,0.406-1.323
							c1.942-5.306,7.051-8.87,12.713-8.87c5.533,0,10.461,3.308,12.555,8.426c0.379,0.927,0.657,1.939,0.825,3.008l0.008,0.053
							l0.03,0.045l0.807,1.227l0.355,0.54l0.101-0.638c0.538-3.967,1.524-7.605,2.932-10.821c4.714-10.781,0.623-21.389-1.354-25.45
							l-0.026-0.055l-0.056-0.052l-0.054-0.041c-5.336-6.791-11.513-10.401-18.358-10.73c-0.34-0.016-0.679-0.024-1.016-0.024
							c-12.571,0-23.166,10.955-23.272,11.066c-0.047,0.049-0.112,0.077-0.181,0.077c-0.049,0-0.097-0.014-0.138-0.041
							c-0.158-0.104-16.02-10.445-33.541-10.447c-12.903,0-23.263,5.56-30.797,16.527c-7.037,10.245-9.482,20.571-7.265,30.693
							c4.263,19.469,24.543,31.756,24.747,31.878c0.085,0.051,0.132,0.147,0.121,0.245l-1.73,14.418l-0.013,0.108l0.07,0.083
							l9.096,10.751l0.189,0.223l0.191-0.221c3.78-4.376,10.432-8.542,13.116-10.13l0.222-0.131l-0.138-0.218
							c-0.693-1.09-1.258-2.225-1.681-3.372c-1.118-3.005-1.344-6.261-0.637-9.17c0.764-3.179,2.543-5.929,5.012-7.745
							c3.001-2.24,6.433-2.813,8.784-2.899c0.256-0.011,0.51-0.017,0.764-0.017c2.62,0,5.414,0.579,8.304,1.721
							c2.495,0.988,4.978,2.327,8.051,4.342c0.346,0.227,0.443,0.693,0.216,1.038c-0.139,0.212-0.374,0.339-0.628,0.339
							c-0.146,0-0.288-0.043-0.41-0.123c-2.932-1.97-5.392-3.333-7.75-4.296c-2.791-1.136-5.472-1.711-7.97-1.711
							c-0.178,0-0.355,0.003-0.533,0.009c-3.073,0.078-5.954,0.989-8.111,2.566c-2.233,1.6-3.929,4.167-4.653,7.041
							c-0.688,2.694-0.507,5.734,0.51,8.56c0.41,1.153,0.974,2.297,1.678,3.398l0.047,0.073l0.082,0.029
							c0.043,0.015,0.102,0.046,0.137,0.11c0.013,0.022,0.029,0.061,0.022,0.14l-0.007,0.088l0.05,0.073
							c0.825,1.196,1.798,2.289,2.892,3.249c2.137,1.904,4.744,3.1,7.684,4.358c2.741,1.152,5.591,2.132,8.472,2.914
							c0.19,0.051,0.302,0.247,0.251,0.436c-0.042,0.155-0.183,0.263-0.344,0.263c-0.03,0-0.06-0.004-0.089-0.011
							c-2.921-0.759-5.814-1.719-8.598-2.853c-2.314-0.962-4.558-1.942-6.561-3.337l-0.032-0.022l-0.037-0.012
							c-2.065-0.634-5.083-1.39-7.729-1.39c-0.68,0-1.31,0.05-1.874,0.15l-0.054,0.009l-0.045,0.031
							c-3.699,2.569-6.483,4.962-8.275,7.113l-0.037,0.045l-0.014,0.057c-0.015,0.061-0.039,0.105-0.073,0.134
							c-0.012,0.01-0.038,0.022-0.062,0.033l-0.056,0.025l-0.038,0.048c-0.682,0.86-1.197,1.68-1.532,2.439
							c-2.708,6.128-4.166,13.954-4.227,14.284c-0.006,0.031-0.023,0.065-0.053,0.104l-0.039,0.051l-0.01,0.064
							c-0.314,2.084,0.047,4.45,1.015,6.664c0.888,2.036,2.284,3.951,4.149,5.694c3.024,2.801,7.067,5.06,12.358,6.907
							c4.073,1.405,8.622,2.471,13.908,3.259c4.408,0.657,9.069,1.089,14.251,1.321c2.816,0.131,5.702,0.195,8.825,0.195
							c1.747,0,3.597-0.021,5.497-0.063c5.564-0.122,10.91-0.149,16.464-0.834c6.227-0.769,12.415-1.843,18.536-3.219
							c2.319-0.521,4.761-1.159,6.415-2.865c1.016-1.048,1.639-2.409,2.162-3.772c2.769-7.223,3.079-14.26,1.146-21.709
							C347.142,204.414,344.54,198.432,341.485,192.777z M334.416,230.35c0.009,0.066-0.009,0.132-0.049,0.185
							c-0.041,0.053-0.099,0.087-0.166,0.096l-0.034,0.002c-0.124,0-0.231-0.093-0.247-0.217c-0.072-0.752-0.134-1.482-0.195-2.212
							c-0.117-1.386-0.238-2.82-0.415-4.21c-0.247-1.833-0.718-4.162-2.178-5.942c0.686,0.76,1.23,1.695,1.627,2.768
							c0.333,0.889,0.589,1.884,0.805,3.132c0.233,1.405,0.408,2.83,0.576,4.208C334.229,228.89,334.318,229.62,334.416,230.35z
							 M321.111,163.854c-0.004,0-0.009,0-0.014,0l0.016-0.123c-0.324-0.067-0.674-0.101-1.04-0.101
							c-0.962,0-1.932,0.229-2.754,0.453c-1.131,0.311-2.461,0.692-3.762,1.163c-1.45,0.532-2.579,1.063-3.553,1.672
							c-1.161,0.71-2.151,1.58-2.94,2.586l-0.009,0.006c-0.002,0-0.003-0.001-0.004-0.001c0.76-1.046,1.729-1.953,2.879-2.705
							c0.967-0.646,2.09-1.217,3.536-1.799c1.297-0.516,2.624-0.94,3.751-1.287c0.893-0.269,1.939-0.557,3.034-0.557
							c0.328,0,0.65,0.027,0.958,0.079c0.136,0.023,0.228,0.153,0.205,0.289c-0.021,0.121-0.124,0.208-0.246,0.208l-0.039,0.113
							C321.121,163.849,321.118,163.854,321.111,163.854z M335.689,176.437c0.316,2.971-0.56,5.669-2.606,7.998
							c-4.578,5.212-14.387,7.762-21.563,7.927l-0.061,0c-1.29,0-3.189-0.228-4.297-0.871c-0.366-0.212-0.539-0.591-0.464-1.012
							c0.063-0.347,0.333-0.787,0.89-0.882c1.914-0.327,3.894-1.229,5.885-2.681c2.275-1.659,4.07-3.964,5.807-6.194
							c3.052-3.918,5.935-7.619,11.068-7.623c0.147-0.008,0.281-0.011,0.416-0.011C332.846,173.089,335.233,173.969,335.689,176.437
							z M308.031,204.698c0.73,0.53,1.535,0.993,2.314,1.441c0.761,0.438,1.548,0.89,2.278,1.411
							c2.977,2.057,5.517,4.788,7.349,7.898c1.842,3.081,2.993,6.636,3.331,10.281c0.343,3.621-0.112,7.341-1.316,10.758
							c-0.035,0.1-0.13,0.167-0.236,0.167c-0.028,0-0.056-0.005-0.083-0.014c-0.13-0.046-0.199-0.189-0.153-0.319
							c1.221-3.346,1.709-6.995,1.411-10.559c-0.294-3.6-1.393-7.122-3.177-10.185c-1.78-3.103-4.27-5.84-7.2-7.913
							c-0.709-0.52-1.484-0.977-2.233-1.419c-0.778-0.459-1.582-0.934-2.331-1.488c-1.212-0.891-2.693-2.38-2.872-4.418
							C305.332,202.472,307.035,203.986,308.031,204.698z M305.119,200.081L305.119,200.081L305.119,200.081L305.119,200.081z
							 M273.548,160.271c-0.003,0-0.006,0-0.009,0l0.016-0.121c-1.19-0.236-2.747-0.527-4.316-0.705
							c-1.011-0.131-2.024-0.198-2.793-0.242c-0.48,0.041-0.884,0.061-1.271,0.061c-0.579,0-1.18-0.044-1.837-0.133
							c-1.123,0.012-2.01,0.05-2.829,0.117c-1.723,0.146-3.095,0.356-4.319,0.66l-0.017,0.004c0,0-0.006,0-0.007-0.006
							c1.239-0.351,2.573-0.593,4.33-0.794c0.07-0.008,0.141-0.012,0.212-0.018c0.066-0.005,0.132-0.009,0.198-0.016l1.182-0.117
							l-1.129-0.369c-4.028-1.319-7.249-4.502-8.616-8.517c-0.049-0.144-0.089-0.29-0.13-0.436l-0.049-0.175l-0.039-0.136
							l-0.137-0.036c-2.387-0.634-5.582-1.468-6.805-1.787l6.778-5.018l0.071-0.053l0.022-0.086c0.128-0.496,0.26-0.929,0.406-1.323
							c1.942-5.306,7.051-8.87,12.714-8.87c5.533,0,10.461,3.308,12.554,8.426c0.178,0.434,0.34,0.915,0.496,1.471l0.022,0.079
							l0.065,0.05l4.918,3.847l-4.655,2.327l-0.108,0.054l-0.025,0.118c-0.06,0.283-0.127,0.564-0.205,0.841
							c-1.22,4.364-4.544,7.814-8.891,9.228l-1.163,0.378l1.218,0.109c1.24,0.11,2.549,0.288,4.246,0.576
							c0.136,0.023,0.228,0.152,0.205,0.288c-0.021,0.121-0.124,0.208-0.246,0.208l-0.038,0.11
							C273.56,160.266,273.557,160.271,273.548,160.271z M280.111,137.571c-0.002,0-0.004,0-0.006,0
							c-0.155,0-0.259-0.093-0.275-0.215c-0.372-3.469-2.16-6.684-4.904-8.829c-2.591-2.058-5.917-3.325-9.616-3.661
							c-0.622-0.056-1.253-0.084-1.875-0.084c-2.959,0-5.839,0.637-8.328,1.841c-3.248,1.548-5.841,4.248-7.115,7.407l-0.007,0.005
							c-0.001,0-0.001,0-0.003-0.001c1.236-3.199,3.811-5.94,7.062-7.533c2.572-1.281,5.556-1.957,8.632-1.957
							c0.548,0,1.105,0.022,1.655,0.064c3.76,0.301,7.16,1.553,9.832,3.623c1.422,1.104,2.629,2.487,3.491,4.001
							c0.86,1.501,1.437,3.249,1.671,5.056C280.344,137.427,280.248,137.553,280.111,137.571z M298.618,132.206
							c1.236-3.199,3.811-5.94,7.062-7.533c2.572-1.281,5.556-1.957,8.632-1.957c0.548,0,1.105,0.022,1.655,0.064
							c3.76,0.3,7.16,1.553,9.832,3.623c1.422,1.104,2.629,2.487,3.491,4.001c0.86,1.501,1.437,3.249,1.671,5.056
							c0.018,0.138-0.078,0.264-0.215,0.282c-0.002,0-0.004,0-0.006,0c-0.155,0-0.259-0.092-0.275-0.215
							c-0.372-3.469-2.159-6.684-4.903-8.829c-2.592-2.058-5.917-3.325-9.616-3.662c-0.622-0.056-1.253-0.084-1.875-0.084
							c-2.959,0-5.839,0.637-8.328,1.841c-3.248,1.548-5.841,4.248-7.114,7.408l-0.007,0.005
							C298.62,132.207,298.619,132.207,298.618,132.206z M280.8,164.388c-0.004-0.138,0.105-0.253,0.243-0.257
							c5.462,0.018,10.871,1.812,15.238,5.052c-4.24-2.937-9.409-4.561-14.564-4.561c-0.221,0-0.44,0.003-0.661,0.009l-0.003,0.125
							c-0.001,0-0.002,0-0.003,0v-0.125C280.913,164.631,280.803,164.524,280.8,164.388z M301.496,192.063
							c-1.088,0.881-3.136,1.379-4.175,1.534c-1.558,0.207-3.317,0.317-5.081,0.317c-9.983,0-20.81-3.242-21.254-12.339
							c0.075-2.671,2.605-3.881,4.748-4.1c0.527-0.082,1.04-0.122,1.538-0.122c4.258,0,7.332,2.887,10.587,5.943
							c2.06,1.935,4.19,3.935,6.694,5.223c2.192,1.127,4.287,1.713,6.228,1.74c0.565,0.008,0.9,0.4,1.016,0.734
							C301.938,191.396,301.825,191.797,301.496,192.063z M292.078,133.992c-0.047,0.687-0.106,1.371-0.164,2.054
							c-0.081,0.949-0.164,1.931-0.215,2.894c-0.347,6.595,0.914,13.247,3.645,19.238c0.057,0.125,0.002,0.274-0.124,0.331
							c-0.033,0.015-0.068,0.023-0.103,0.023c-0.098,0-0.187-0.057-0.228-0.146c-2.686-6.088-3.878-12.817-3.447-19.461
							c0.063-0.973,0.159-1.956,0.251-2.906c0.066-0.682,0.133-1.362,0.188-2.041l0.034-0.504c0.101-1.476,0.205-3.001-0.055-4.418
							c-0.143-0.677-0.4-1.31-0.672-1.979l-0.144-0.357c-0.299-0.747-0.561-1.542-0.778-2.362c-0.418-1.605-0.635-3.259-0.644-4.915
							c0.045,1.653,0.281,3.301,0.718,4.896c0.226,0.814,0.496,1.602,0.803,2.342l0.161,0.385c0.262,0.623,0.533,1.267,0.689,1.955
							c0.191,0.86,0.19,1.762,0.189,2.487C292.176,132.25,292.143,133.04,292.078,133.992z M296.164,220.448L296.164,220.448
							L296.164,220.448L296.164,220.448z M297.018,236.624c-0.067-0.003-0.128-0.031-0.174-0.08
							c-0.045-0.049-0.069-0.113-0.066-0.18c0.372-5.22,0.163-10.485-0.622-15.658c0.962,5.156,1.334,10.432,1.122,15.678
							c-0.005,0.135-0.115,0.24-0.249,0.24v0.122c-0.002,0-0.004,0.001-0.005,0.001L297.018,236.624z M273.429,219.872
							c-1.007,3.761-1.326,7.788-0.907,11.648c0.007,0.066-0.012,0.132-0.054,0.184c-0.042,0.052-0.101,0.085-0.168,0.092
							l-0.027,0.001c-0.128,0-0.234-0.096-0.248-0.223C271.758,227.592,272.231,223.658,273.429,219.872z M255.491,228.125
							c0.025,0.062,0.024,0.13-0.002,0.191c-0.026,0.062-0.075,0.109-0.137,0.134c-0.03,0.012-0.061,0.018-0.093,0.018
							c-0.103,0-0.194-0.062-0.232-0.157c-0.476-1.396-0.627-2.987-0.454-4.745c0.165-1.68,0.577-3.276,0.958-4.615
							c-0.278,1.276-0.624,2.952-0.701,4.634C254.749,225.3,254.972,226.828,255.491,228.125z"/>
						<path style="fill:#E2C597;" d="M323.892,242.4c-0.129,0.107-0.259,0.213-0.39,0.318c-2.551,2.039-6.984,4.859-10.41,4.436
							c-4.114-0.508-8.29-1.658-11.975-3.59l-0.056-0.029l-0.063,0.001c-0.746,0.007-1.493,0.01-2.24,0.01
							c-3.233,0-6.198-0.067-9.066-0.204c-5.197-0.239-9.872-0.679-14.293-1.344c-5.309-0.799-9.88-1.876-13.975-3.294
							c-5.277-1.852-9.173-4.017-12.261-6.811l-0.355,0.351c0.567,0.642,1.082,1.188,1.574,1.669
							c1.508,1.489,3.261,2.936,5.208,4.302c1.795,1.274,3.729,2.476,5.747,3.572c6.883,3.762,14.926,6.796,25.309,9.548
							c1.948,0.5,4.255,1.079,6.607,1.588l1.655,0.374l1.631,0.439l3.28,0.89l6.561,1.78c0.376,0.094,0.745,0.198,1.113,0.302
							c0.711,0.201,1.447,0.408,2.164,0.518c0.99,0.166,2.079,0.251,3.232,0.251l0.107,0c2.324-0.025,4.526-0.449,6.545-1.259
							c0.987-0.419,1.929-0.918,2.968-1.572c0,0,2.856-1.716,2.912-1.75c3.538-2.126,7.168-4.089,10.802-6.044
							c0.955-0.514,1.918-0.666,2.878-1.097c1.625-0.73,3.24-2.421,4.291-3.82c1.288-1.713,2.11-3.838,1.981-5.977
							c-3.045,0.594-6.091,1.189-9.136,1.783c-2.335,0.456-4.675,0.913-6.949,1.612c-1.091,0.336-2.174,0.731-3.147,1.329
							C325.336,241.174,324.622,241.798,323.892,242.4z M318.349,252.974c0.024,0.063,0.021,0.13-0.006,0.191
							c-0.027,0.061-0.077,0.107-0.139,0.131c-1.941,0.63-3.956,0.947-6,0.947c-1.451,0-2.895-0.162-4.291-0.482
							c1.11,0.185,2.247,0.286,3.382,0.286c2.324,0,4.589-0.41,6.733-1.219c0.029-0.011,0.058-0.016,0.088-0.016
							C318.219,252.812,318.313,252.877,318.349,252.974z"/>
					</g>
					<path style="fill:none;stroke:#0B1011;stroke-linecap:round;stroke-linejoin:round;stroke-miterlimit:10;" d="M265.176,133.903
						c-4.931,0-9.38,3.104-11.071,7.724c-0.484,1.311-0.729,2.681-0.729,4.076c0,1.298,0.211,2.579,0.627,3.809
						c1.629,4.785,6.12,8.001,11.173,8.001c5.28,0,9.958-3.544,11.377-8.619c0.288-1.021,0.433-2.094,0.433-3.191
						c0-1.541-0.294-3.042-0.875-4.462C274.287,136.784,269.995,133.903,265.176,133.903z M266.789,152.512
						c-4.243,0-7.683-3.44-7.683-7.683c0-4.243,3.44-7.683,7.683-7.683c4.243,0,7.683,3.44,7.683,7.683
						C274.472,149.072,271.032,152.512,266.789,152.512z"/>
					<path style="fill:#E0D6D4;" d="M373.562,422.31c-1.11-0.01-0.8,1.18-1.21,1.74c-0.71,0.95-2.23,1.75-3.18,2.47
						c-2.23,1.68-4.52,3.3-6.93,4.72c-3.85,2.27-8.05,4.03-12.49,4.57c-4.43,0.57-8.95-0.08-13.27-1.29
						c-4.33-1.21-8.5-2.95-12.66-4.73c-0.13-0.05-0.28,0.01-0.33,0.14c-0.06,0.13,0,0.28,0.13,0.34c4.14,1.81,8.32,3.6,12.69,4.86
						c4.35,1.27,8.96,1.98,13.53,1.44c1.53-0.18,3.03-0.5,4.5-0.93c3.2,0.97,13.35,4.4,16.5,9.89c-0.43,5.37-0.77,9.82-0.84,10.7
						c-6.42,15.63-5.01,33.6-3.25,46.13c-0.01,0-191.59,0.03-191.59,0.03c-0.52-4.28,0.78-14.38,0.79-14.46l1.54-9.96
						c1.79-0.32,5.29-1.36,7.18-4.67c0.06,0.01,0.11,0.02,0.16,0.04c0.05,0.01,0.11,0.02,0.16,0.02c0.4,0.03,0.75-0.28,0.77-0.69
						l0.19-3.34l39.47-23.87c3.54,0.53,7.11,0.84,10.69,0.91c15.55,0.29,31.16-3.83,44.55-11.78c0.24-0.14,0.32-0.45,0.18-0.69
						c-0.15-0.23-0.45-0.31-0.69-0.17c-13.19,7.92-28.62,12.09-44.02,11.88c-15.41-0.21-30.74-4.79-43.75-13.09
						c-1.96-1.38-3.29-2.51-4.02-3.18c0.04-0.41,0.09-0.83,0.12-1.24c0.39-4.98,0.58-9.96,0.61-14.94
						c0.05-9.96-0.56-19.95-2.16-29.82c-1.63-9.82-4.28-19.6-8.92-28.55c-1.03-2.41-2.22-4.66-3.5-6.89
						c-1.31-2.23-2.71-4.4-4.25-6.49c-3.06-4.16-6.62-8.02-10.8-11.16c-0.15-0.11-0.31-0.17-0.48-0.19
						c-1.62-1.55-3.18-2.89-4.63-4.05l21.46-11.38c4.51,6.38,9.8,12.16,15.59,17.35c6.02,5.39,12.56,10.15,19.41,14.4
						c6.85,4.23,14,7.96,21.35,11.23c3.67,1.62,7.39,3.2,11.22,4.48c3.83,1.29,7.73,2.36,11.69,3.15
						c7.92,1.59,16.06,2.12,24.11,1.51c8.02-0.6,16.1-2.12,23.5-5.49c3.69-1.69,7.19-3.84,10.26-6.52c3.08-2.66,5.7-5.85,7.73-9.38
						c2.01-3.54,3.43-7.4,4.26-11.37c0.74-3.66,1.06-7.38,0.79-11.14c2.69,0.19,19.1,1.51,35.51,6.35
						c6.81,10.63,11.58,22.75,11.58,22.75C387.442,390,373.562,422.31,373.562,422.31z"/>
					<g>
						<path style="fill:#754D2B;" d="M154.448,465.768c-11.036-2.208-21.145-3.906-30.904-5.191
							c-11.523-1.517-21.735-2.379-31.217-2.635l-0.78-0.018l-8.182,44.99l90.337-0.02l-0.057-0.551
							c-0.317-3.076,0.149-8.506,0.456-11.47l0.377-3.64c0.063-0.275,0.126-0.55,0.188-0.826l2.413-15.58l-0.444-0.109
							C169.572,468.976,162.315,467.357,154.448,465.768z"/>
						<path style="fill:#F7BE27;" d="M176.071,462.665c-1.748-0.473-3.556-0.962-5.358-1.344c-1.158-0.262-2.315-0.529-3.472-0.796
							c-3.813-0.88-7.755-1.79-11.669-2.487c-8.794-1.796-18.533-3.28-30.65-4.669c-9.753-1.092-19.875-1.74-30.947-1.98
							c-11.396-0.199-20.792,0.109-29.569,0.967l-0.313,0.031l-0.108,0.295c-1.213,3.325-1.916,5.367-2.213,6.432l-0.221,0.774
							l0.792-0.145c3.346-0.613,6.866-1.085,10.461-1.402l0.021-0.003c6.089-0.799,12.08-1.108,17.802-0.923l0.12,0.004l0.109-0.051
							c0.114-0.054,0.211-0.07,0.295-0.058c0.183,0.034,0.285,0.165,0.33,0.24l0.141,0.235l0.708,0.015
							c9.486,0.223,19.707,1.049,31.247,2.527c9.773,1.252,19.895,2.916,30.942,5.086c10.766,2.136,20.48,4.349,29.699,6.765
							l0.593,0.155l0.388-7.229l-6.972-1.864C177.507,463.054,176.789,462.859,176.071,462.665z"/>
						<path style="fill:#FFEDC3;" d="M325.143,322.284l-0.135-0.135c-0.046-0.056-0.082-0.125-0.099-0.196l-1.093-4.394
							l-10.151-2.466l3.484,8.195l0.169,0.254c0.059,0.088,0.086,0.186,0.078,0.275l-0.007,0.069l0.012,0.068
							c0.01,0.051,0.01,0.11,0,0.161c-6.182,33.815-41.722,30.147-43.28,29.97c-50.476-0.842-87.561-43.839-91.624-48.739
							l-0.315-0.38l-0.384,0.311c-0.274,0.221-6.57,5.348-5.338,7.642l0.088,0.153c8.199,12.002,19.948,22.848,34.921,32.238
							c6.586,4.119,13.703,7.909,21.154,11.266c3.517,1.572,7.296,3.205,11.106,4.499c3.938,1.347,7.823,2.413,11.543,3.169
							c5.895,1.218,11.864,1.83,17.815,1.83c2.012,0,4.022-0.07,6.026-0.21c9.105-0.635,16.71-2.371,23.249-5.307
							c3.815-1.719,7.217-3.854,10.109-6.347c3.04-2.6,5.607-5.686,7.629-9.172c1.963-3.402,3.393-7.159,4.248-11.168
							c0.829-3.927,1.101-7.763,0.807-11.401L325.143,322.284z"/>
						<path style="fill:#754D2B;" d="M404.355,482.675c0.045-0.197,0.089-0.394,0.133-0.589l5.028-18.65l-0.662,0.01
							c-2.886,0.046-5.819,0.153-8.716,0.319c-5.513,0.305-10.964,0.738-16.201,1.289c-2.778,0.289-5.495,0.597-8.08,0.917
							l-4.03,0.523l-3.499,0.504l-0.069,0.344c-2.61,12.983-1.239,26.246,0.019,35.092l0.061,0.43l37.74-0.01l0.015-0.485
							c0.176-5.841-1.427-13.845-1.951-16.282v-2.55L404.355,482.675z"/>
						<path style="fill:#F7BE27;" d="M431.466,463.283c-0.758-1.841-1.545-3.914-2.407-6.337l-0.102-0.285l-0.299-0.043
							c-4.367-0.621-9.032-1.007-14.263-1.181l-0.005,0c-4.679-0.109-9.528-0.049-14.824,0.185
							c-4.848,0.243-9.822,0.622-14.786,1.126c-5.001,0.516-9.503,1.087-13.761,1.747l-0.293,0.045l-0.101,0.278
							c-0.865,2.382-1.586,4.878-2.143,7.42l-0.157,0.717l7.515-1.135c2.585-0.359,5.224-0.698,8.069-1.037
							c5.243-0.63,10.693-1.145,16.201-1.533c5.812-0.419,11.136-0.596,16.273-0.528c4.395,0.081,9.503,0.25,14.525,1.248
							l0.912,0.175L431.466,463.283z"/>
					</g>
					<g>
						<path style="fill:#754D2B;" d="M365.006,99.749c-0.298-0.841-1.334-1.102-1.63-1.14l0-0.001
							c-0.07-0.009-0.162-0.047-0.252-0.104c-1.713-1.246-4.036-1.886-6.88-1.886c-8.788,0-20.143,5.955-23.414,7.78l-0.436,0.243
							l0.243,0.436c0.891,1.602,3.827,7.402,4.197,14.774l0.038,0.762l0.683-0.339l0.332-0.165c0.684-0.339,1.367-0.678,2.053-1.022
							c1.76-0.996,4.151-2.232,6.755-3.493c3.094-1.668,5.843-3.285,8.338-4.909c-0.268,0.174-0.531,0.35-0.802,0.522l-0.031,0.02
							l-0.028,0.024c-0.665,0.572-1.767,1.741-3.044,3.094c-2.382,2.525-5.644,5.983-7.894,7.465
							c-1.021,0.673-3.285,3.095-3.277,4.627c-0.238,0.967-4.888,14.39-8.603,23.349l-0.152,0.152l0.089,0.227
							c-0.079,8.007,1.347,14.678,2.133,16.48l0.111,0.256l0.276,0.04c1.172,0.168,2.305,0.253,3.367,0.253
							c3.882,0,7.031-1.122,9.358-3.335c5.88-5.591,5.178-16.49,4.822-19.697c-0.684-6.337,2.273-11.761,6.21-18.194
							c3.271-5.358,3.361-5.625,3.204-9.517l-0.04-1.112c-0.12-3.382,0.467-6.597,0.828-8.213l0.305-1.365l-1.1,0.856
							c-1.763,1.381-3.683,2.739-5.704,4.053c2.494-1.625,4.736-3.258,6.814-4.957l0.085-0.07l0.048-0.1
							c0.023-0.049,0.032-0.072,0.046-0.093C365.019,102.243,365.295,100.58,365.006,99.749z M343.562,161.685
							c0.038,0.189,0.057,0.377,0.057,0.559c0,1.574-1.28,2.854-2.854,2.854c-1.573,0-2.853-1.28-2.853-2.854
							c0-1.573,1.28-2.854,2.853-2.854c1.061,0,2.028,0.596,2.525,1.556l0.227,0.439l-0.012,0.01L343.562,161.685z"/>
						<path style="fill:#754D2B;" d="M326.029,252.813l-0.143,0.084l-0.065,0.153c-3.336,7.912-11.061,10.069-11.778,10.254
							c-11.074-0.118-28.147-10.764-31.462-12.901l-0.061-0.039l-0.07-0.02c-8.452-2.465-15.183-5.144-21.183-8.433
							c-2.021-1.101-3.956-2.308-5.754-3.587c-1.952-1.373-3.706-2.826-5.217-4.321c-1.724-1.691-3.154-3.459-4.251-5.256
							c-0.959-1.596-2.087-3.752-2.303-6.274l0.199-0.154l-0.035-0.283c-0.092-0.737-0.115-1.466-0.066-2.167l0.076-1.097
							l-0.026,0.019l0.035-0.179c0.264-1.371,1.71-8.495,4.207-14.146c0.325-0.735,0.818-1.53,1.465-2.364l0.249-0.32l-0.262-0.309
							l-9.354-11.055l1.718-14.318l0.038-0.314l-0.267-0.169c-2.092-1.321-20.556-13.436-24.595-31.867
							c-2.234-10.194,0.222-20.588,7.302-30.894c7.587-11.046,18.002-16.647,30.955-16.647c16.062,0,30.635,8.57,33.393,10.288
							l0.333,0.208l0.281-0.275c1.853-1.814,11.678-10.864,23.163-10.864c0.343,0,0.687,0.008,1.032,0.025
							c5.441,0.259,10.496,2.589,15.023,6.924l0.718-0.695c-4.57-5.152-15.125-12.512-20.069-15.685
							c-0.116-0.075-0.194-0.19-0.218-0.32c-0.04-0.18,0.02-0.319,0.077-0.406c1.082-1.556,4.493-3.267,9.595-4.804l1.194-0.36
							l-1.111-0.565c-7.215-3.667-17.903-5.472-18.355-5.547c-0.148-0.025-0.277-0.119-0.355-0.26
							c-0.072-0.13-0.079-0.287-0.017-0.43c1.923-4.542,11.851-9.537,16.031-11.473l1.222-0.566l-1.296-0.368
							c-7.697-2.188-16.544-3.298-26.296-3.298c-23.13,0-43.865,6.216-44.737,6.481l-0.038,0.012l-0.036,0.018l-52.53,25.72
							l-0.359,0.176l0.092,0.389c0.857,3.615,1.401,11.168,1.548,13.397l0.025,0.387l0.381,0.072
							c0.585,0.11,1.149,0.226,1.708,0.345c-0.588-0.125-1.184-0.246-1.801-0.361l-0.259-0.048c0,0-0.186,0.186-0.189,0.189
							c-0.062,0.058-0.179,0.138-0.343,0.138l-0.052-0.003c-1.841-0.152-3.631-0.23-5.32-0.23c-10.523,0-18.07,2.96-22.432,8.799
							c-1.486,1.987-2.613,4.338-3.351,6.985l-0.379,1.362l1.151-0.818c0.225-0.16,0.468-0.3,0.698-0.454
							c-0.569,0.381-1.137,0.766-1.675,1.185l-0.193,0.15v0.196c-2.399,11.135,1.904,23.782,2.793,26.207
							c1.485,4.578,3.357,9.044,5.73,13.236c5.306,9.378,13.591,17.864,24.179,20.956c0.855,0.25,1.896,0.298,2.713,0.627
							c0.194,0.078,0.487-0.012,0.653,0.117c1.302,1.007,0.849,5.941,0.832,7.611c-0.114,10.885-3.769,21.344-8.469,31.041
							c-0.001,0.003-0.594,1.225-0.594,1.225l1.246-0.55c2.81-1.24,6.076-1.573,7.013-1.645c0,0,0.049-0.004,0.052-0.004
							c0.191,0,0.353,0.099,0.44,0.251c0.097,0.168,0.091,0.365-0.015,0.526c-2.456,3.757-1.914,8.795-1.372,11.464l0.196,0.968
							l0.664-0.731c3.318-3.654,9.7-3.696,9.97-3.696c0.185,0,0.351,0.099,0.444,0.265c1.711,3.122,3.615,6.164,5.658,9.035
							l0.087,0.122l0.139,0.054c0.18,0.07,0.302,0.238,0.312,0.43l0.008,0.149l0.059,0.08l-0.308,2.874
							c-2.807,26.2-23.075,63.628-25.377,67.81l-0.177,0.321l0.253,0.265c4.862,5.1,10.147,9.941,15.723,14.4l-0.123-0.037
							l2.21,1.683c15.099,11.703,39.081,25.745,67.613,26.209c0.031,0.004,0.059,0.007,0.086,0.009
							c0.384,0.05,2.155,0.258,4.795,0.258c8.639,0,29.456-2.377,36.146-24.391l0.433-1.426l-0.045,0.032
							c0.297-1.103,0.553-2.224,0.764-3.339l0.029-0.153l-0.063-0.143l-0.08-0.18l-0.017-0.038l-0.023-0.034
							c-1.671-2.534-2.98-5.224-3.89-7.994l-0.292-0.888l-0.577,0.735c-1.736,2.213-5.684,5.924-12.619,5.924
							c-4.438,0-9.4-1.547-14.748-4.598c-4.405-2.513-9.03-4.937-13.502-7.281c-16.52-8.659-33.602-17.612-42.067-32.483
							c-8.611-15.128-12.287-29.317-13.468-34.715l-0.592-2.706c8.746,11.912,17.454,17.178,19.918,18.51l1.078,0.582L235.215,258
							c0.073,0.23,0.146,0.47,0.22,0.692l0.025,0.076l0.047,0.064c0.034,0.046,0.051,0.074,0.057,0.096
							c0.106,0.275,2.389,5.881,13.516,17.631c5.038,5.327,12.571,8.174,19.396,10.362c7.277,2.333,14.798,3.932,22.346,5.092
							c11.884,1.826,23.988,1.056,33.134-7.843c5.719-5.565,8.758-12.8,10.054-20.559c0.514-3.076,1.534-5.911,1.933-9.062
							c0.288-2.275,0.576-4.549,0.864-6.824l0.121-0.953l-0.85,0.448C332.751,248.972,329.37,250.854,326.029,252.813z
							 M313.565,284.117L313.565,284.117C313.565,284.117,313.565,284.117,313.565,284.117c-0.002-0.004-0.004-0.009-0.005-0.013
							C313.562,284.109,313.564,284.113,313.565,284.117z M231.141,233.827c-0.02,0.264-0.04,0.531-0.048,0.823
							C231.101,234.358,231.12,234.091,231.141,233.827z M231.09,235.187c-0.001,0.219-0.005,0.432,0,0.665
							C231.085,235.619,231.089,235.406,231.09,235.187z M233.058,229.153c0.054-0.079,0.107-0.158,0.163-0.236
							C233.165,228.996,233.112,229.074,233.058,229.153z M231.353,232.559c0.073-0.262,0.163-0.527,0.269-0.794
							C231.517,232.032,231.425,232.298,231.353,232.559z M231.736,231.489c0.105-0.243,0.217-0.487,0.345-0.732
							C231.954,231.002,231.84,231.246,231.736,231.489z M232.297,230.367c0.081-0.144,0.165-0.287,0.253-0.431
							C232.462,230.08,232.378,230.224,232.297,230.367z M236.644,224.947c-0.004,0.004-0.007,0.008-0.011,0.011
							C236.636,224.955,236.64,224.951,236.644,224.947z M231.31,232.735c-0.07,0.284-0.127,0.565-0.153,0.84
							C231.183,233.3,231.239,233.019,231.31,232.735z M170.239,151.784L170.239,151.784L170.239,151.784L170.239,151.784z
							 M216.26,121.391c-0.005,3.153-1.214,6.27-3.312,8.621C215.047,127.66,216.256,124.543,216.26,121.391z M212.721,130.277
							c-0.121,0.128-0.239,0.238-0.356,0.338C212.481,130.514,212.599,130.407,212.721,130.277z M211.839,130.98
							c-0.017,0.009-0.034,0.014-0.051,0.022C211.805,130.994,211.822,130.989,211.839,130.98z M212.209,130.74
							c-0.057,0.043-0.113,0.083-0.169,0.119C212.096,130.822,212.152,130.783,212.209,130.74z M186.685,115.136
							c5.718,0.725,10.567,2.728,14.023,5.794c1.473,1.308,2.756,2.856,3.997,4.353c1.592,1.921,3.238,3.907,5.288,5.385
							c0.31,0.223,0.674,0.465,1.083,0.495l0.019,0.001l0.069,0.002c0.105,0,0.21-0.02,0.316-0.046l-0.653,0.198l0.484,0.58
							c1.098,1.316,1.72,3.062,1.706,4.792c-0.009,2.088-0.993,4.106-2.631,5.401c-0.72,0.575-1.623,1.02-2.763,1.362
							c-0.461,0.149-0.941,0.252-1.405,0.351c-0.574,0.123-1.117,0.239-1.619,0.432c-0.998,0.364-1.673,1.262-2.279,2.151
							c-0.58,0.873-1.055,1.818-1.415,2.813c-0.562,1.547-1.075,3.882-0.332,6.218c0.094,0.314,0.22,0.591,0.353,0.884
							c0.082,0.18,0.168,0.369,0.253,0.584c0.045,0.125,0.119,0.397,0.059,0.656c-0.048,0.207-0.171,0.411-0.349,0.577
							c-0.317,0.291-0.722,0.494-1.309,0.656c-0.491,0.142-0.996,0.239-1.508,0.289c-0.263,0.025-0.533,0.038-0.8,0.038
							c-0.275,0-0.55-0.013-0.822-0.04l-0.874-0.706c-0.624-0.505-1.08-1.503-1.413-2.232l-0.027-0.06
							c-1.148-2.514-1.426-5.537-0.781-8.511c0.744-3.432,2.598-6.819,5.669-10.356c0.325-0.374,0.77-0.887,0.798-1.552
							c0.017-0.404-0.128-0.771-0.234-1.038c-2.915-7.344-7.555-14.061-13.42-19.424l-0.116-0.106
							C186.261,115.099,186.474,115.109,186.685,115.136z M185.529,115.026c-1.166-0.111-2.342-0.174-3.502-0.174
							c-1.864,0-3.705,0.146-5.504,0.427c1.805-0.284,3.645-0.439,5.505-0.439C183.189,114.841,184.361,114.915,185.529,115.026z
							 M231.143,237.164c-0.012-0.209-0.017-0.403-0.026-0.604C231.126,236.761,231.131,236.956,231.143,237.164z M231.247,238.57
							c-0.016-0.181-0.027-0.353-0.041-0.53C231.22,238.217,231.231,238.389,231.247,238.57z M243.037,219.434
							c-1.056,0.8-2.551,1.982-4.126,3.379c1.962-1.746,3.731-3.093,4.508-3.669L243.037,219.434z M237.227,224.373
							c0.172-0.167,0.345-0.331,0.517-0.494C237.572,224.042,237.4,224.207,237.227,224.373z M238.118,223.533
							c0.243-0.225,0.486-0.446,0.725-0.659C238.603,223.087,238.361,223.31,238.118,223.533z M197.484,105.117
							c-0.479-0.115-0.959-0.23-1.458-0.338C196.524,104.887,197.005,105.002,197.484,105.117z M205.31,107.695
							c-0.176-0.078-0.347-0.16-0.526-0.235C204.963,107.535,205.134,107.617,205.31,107.695z M204.002,107.149
							c-0.268-0.106-0.53-0.216-0.804-0.318C203.472,106.933,203.735,107.043,204.002,107.149z M202.497,106.586
							c-0.318-0.112-0.631-0.227-0.957-0.334C201.866,106.359,202.179,106.474,202.497,106.586z M200.874,106.048
							c-0.356-0.111-0.709-0.224-1.076-0.329C200.165,105.824,200.517,105.937,200.874,106.048z M199.198,105.558
							c-0.408-0.111-0.812-0.224-1.234-0.329C198.386,105.334,198.791,105.447,199.198,105.558z M165.704,118.95
							c-0.46,0.254-0.915,0.515-1.359,0.791C164.789,119.465,165.243,119.204,165.704,118.95z M176.106,115.358
							c-0.729,0.123-1.453,0.263-2.166,0.431C174.654,115.619,175.377,115.481,176.106,115.358z M173.124,116.005
							c-0.574,0.15-1.147,0.305-1.708,0.484C171.977,116.31,172.55,116.156,173.124,116.005z M170.474,116.818
							c-0.509,0.18-1.016,0.362-1.513,0.566C169.458,117.181,169.965,116.998,170.474,116.818z M168.018,117.798
							c-0.48,0.215-0.958,0.435-1.424,0.673C167.061,118.233,167.537,118.013,168.018,117.798z M231.558,241.353
							c0.009,0.068,0.017,0.135,0.026,0.203C231.575,241.488,231.567,241.421,231.558,241.353z M231.354,239.64
							c0.014,0.134,0.027,0.266,0.042,0.402C231.381,239.905,231.368,239.774,231.354,239.64z"/>
					</g>
				</g>
				<path style="fill:#B47742;" d="M283.032,145.16c-0.765-1.656-1.447-3.351-2.042-5.076c-0.283-0.819-0.69-1.722-0.812-2.582
					c-0.079-0.554,0.022-1.086-0.096-1.652c-0.403-1.932-1.353-3.693-2.692-5.137c-2.503-2.698-6.064-4.241-9.557-5.194
					c-1.323-0.361-2.669-0.641-4.026-0.84c-0.496-0.073-1.127-0.251-1.632-0.191c-5.018,0.587-9.964,2.627-12.829,6.974
					c-0.509,0.772-0.905,1.601-1.235,2.46l-0.032-0.095c-0.855,1.997-1.299,4.164-1.443,6.337c-0.015,0.094-0.031,0.188-0.046,0.282
					c-0.174,1.08-0.306,2.17-0.596,3.225c-0.149,0.544-0.34,1.076-0.531,1.607c-0.262,0.731-0.525,1.463-0.788,2.194
					c0.444-0.078,0.831-0.336,1.216-0.571c0.935-0.569,1.93-1.021,2.951-1.417c0.558-0.152,1.11-0.34,1.628-0.589
					c0.421-0.143,0.842-0.284,1.263-0.422l-0.105-0.306c0.241-0.197,0.471-0.409,0.672-0.657c1.101-1.356,1.289-3.249,2.233-4.719
					c0.44-0.685,1.032-1.258,1.654-1.783c2.614-2.212,5.907-3.695,9.328-3.83s6.943,1.165,9.212,3.729
					c0.804,0.909,1.438,1.951,2.005,3.02c0.347,0.653,0.624,1.442,1.022,2.106c0.151,0.252,0.32,0.485,0.516,0.687
					c0.724,0.744,1.462,1.458,2.351,2.009c0.482,0.299,0.987,0.56,1.499,0.804c0.243,0.116,1.273,0.398,1.38,0.618
					C283.342,145.821,283.185,145.492,283.032,145.16z"/>
				<path style="fill:#B47742;" d="M297.042,140.769c-0.5,1.595-1.047,3.176-1.507,4.783c2.503-1.298,5.292-2.689,7.102-4.928
					c0.848-1.049,1.324-2.503,2.091-3.638c0.795-1.178,1.732-2.269,2.865-3.135c2.536-1.938,5.839-2.595,9.03-2.667
					c1.544-0.035,3.116,0.058,4.572,0.574c2.256,0.798,4.069,2.562,5.367,4.573c0.778,1.206,1.393,2.508,1.937,3.833
					c0.275,0.669,0.473,1.403,0.796,2.048c0.091,0.182,0.974,1.083,0.976,1.055c0.164-2.231,0.296-4.465,0.396-6.7
					c0.047-1.058,0.078-1.952-0.245-2.974c-0.287-0.906-0.714-1.763-1.211-2.57c-2.719-4.408-7.617-7.317-12.762-7.903
					c-5.145-0.586-10.45,1.071-14.55,4.234c-1.508,1.164-2.764,3.079-3.311,4.905c-0.301,1.008-0.124,2.243-0.274,3.295
					c-0.161,1.133-0.416,2.25-0.719,3.353C297.421,139.532,297.235,140.152,297.042,140.769z"/>
				<path style="fill:#E2C597;" d="M211.237,147.415c-0.694-3.851,1.467-7.753,0.964-11.633c-0.282-2.171-2.806-4.062-4.065-5.854
					c-4.765-6.785-10.731-11.701-18.798-13.617s-16.732-0.458-24.311,2.901c-1.262,0.559-2.365,1.278-3.156,2.409
					c-0.782,1.117-1.162,1.981-1.27,3.34c-1.109,14.071,3.429,28.664,10.834,40.426c0.961,1.527,1.927,3.059,3.1,4.429
					c2.274,2.655,5.244,4.605,8.197,6.475c1.615,1.023,3.238,2.033,4.868,3.031c2.466,1.509,4.999,3.01,7.809,3.692
					c3.658,0.887,7.656,0.275,10.881-1.665c5.558-3.345,7.061-9.632,8.367-15.548c0.416-1.886,1.176-3.955,1.178-5.901
					C215.84,155.238,212.029,151.808,211.237,147.415z"/>
				<path style="fill:#E2C597;" d="M337.102,121.341l24.951-15.073c0,0-1.244,9.219-1.024,12.585
					c0.22,3.366-4.829,9.585-4.829,9.585s-5.488,9.878-4.902,17.195c0.585,7.317,0.073,15-3.585,17.268
					c-3.659,2.268-4.39,5.195-9.659,4.61c-5.268-0.585-5.488-1.244-5.488-1.244l-1.683-19.39L337.102,121.341z"/>
				<ellipse style="fill:#FFFFFF;" cx="264.736" cy="145.927" rx="13.244" ry="12.439"/>
				<ellipse style="fill:#FFFFFF;" cx="315.809" cy="144.171" rx="13.244" ry="12.439"/>
				<path style="fill:#E2C597;" d="M246.069,228.687c-1.85,6.714-3.432,13.547-3.816,20.501c-0.384,6.954,0.475,14.073,3.333,20.424
					c2.172,4.826,5.554,9.182,9.913,12.22c4.736,3.301,9.656,4.4,15.233,5.732c9.396,2.243,18.858,4.22,28.355,5.99
					c9.434,1.758,19.12-3.054,25.254-10.078c4.703-5.385,7.747-11.978,10.042-18.691c1.412-4.13,1.842-8.306,2.426-12.614
					l0.585-5.122l-11.509,5.848c0,0-7.661,6.883-18.052,4.981c-10.39-1.902-23.707-6.878-23.707-6.878l-12.439-4.098l-13.317-6.293
					c0,0-7.024-4.976-8.049-6.146C248.736,232.651,247.241,230.792,246.069,228.687z"/>
				<path style="fill:#898989;" d="M187.412,413.15c-0.02,4.95-0.19,9.89-0.55,14.82c-0.1,1.23-0.2,2.46-0.33,3.69
					c-0.15,1.26-0.15,2.48-0.24,3.73l-0.4,7.44l-1.16,21.64l-6.39-1.68c-2.5-0.65-4.99-1.37-7.52-1.89
					c-5.05-1.13-10.08-2.35-15.18-3.23c-10.15-2.04-20.42-3.42-30.7-4.56c-10.28-1.11-20.62-1.67-30.97-1.86
					c-9.78-0.13-19.57,0.08-29.32,1.06c6.28-17.11,22.87-58.67,36.27-85.25c16.26-32.24,50.77-39.79,51.12-39.87
					c0.09-0.01,0.18-0.05,0.26-0.09l2.05-1.09c1.45,1.16,3.01,2.5,4.63,4.05c-0.35-0.05-0.7,0.09-0.92,0.39
					c-0.33,0.44-0.24,1.07,0.2,1.4c3.99,2.98,7.44,6.69,10.43,10.72c1.5,2.02,2.88,4.13,4.15,6.3c1.26,2.17,2.45,4.43,3.43,6.69
					c0.01,0.02,0.04,0.08,0.04,0.08c4.55,8.68,7.21,18.29,8.85,28C186.782,393.37,187.422,403.27,187.412,413.15z"/>
				<path style="fill:#898989;" d="M428.212,456.05c-4.58-0.58-9.2-0.88-13.81-0.99c-4.96-0.08-9.91,0.05-14.85,0.31
					c-4.94,0.28-9.87,0.7-14.79,1.24c-4.5,0.5-8.98,1.09-13.45,1.82c0.2-0.53,0.38-1.06,0.6-1.58c0.04-0.1,0.06-0.2,0.07-0.31
					c0.8-10.29,1.59-20.59,2.46-30.88c0.08-0.95,0.62-3.34-0.88-3.35c0,0,13.88-32.31-0.75-70.36c0,0-4.77-12.12-11.58-22.75
					c13.59,4.01,27.18,10.43,32.95,20.63c7.63,13.47,14.69,39.15,21.51,63.99C419.972,429.36,424.052,444.23,428.212,456.05z"/>
			</g>
			<g>
				<g>
					<g>
						<g>
							<path style="fill:#0B1011;" d="M71.595,444.795c4.508-0.668,9.032-0.96,13.565-1.13c4.531-0.191,9.066-0.174,13.598-0.11
								c9.065,0.185,18.113,0.858,27.128,1.795l6.756,0.756l6.735,0.922c4.498,0.566,8.956,1.391,13.432,2.102
								c4.468,0.757,8.908,1.674,13.363,2.503l13.287,2.879c0.27,0.058,0.441,0.325,0.383,0.595
								c-0.058,0.27-0.325,0.441-0.594,0.383l-0.002,0l-0.013-0.003l-13.249-2.933c-4.443-0.847-8.87-1.783-13.326-2.557
								c-4.464-0.73-8.91-1.573-13.396-2.158l-6.718-0.95l-6.739-0.785c-8.991-0.976-18.017-1.687-27.06-1.912
								c-4.521-0.084-9.045-0.121-13.563,0.049c-4.514,0.149-9.044,0.423-13.498,1.062l-0.013,0.002
								c-0.141,0.02-0.271-0.078-0.291-0.218C71.358,444.945,71.454,444.815,71.595,444.795z"/>
						</g>
						<g>
							<path style="fill:#0B1011;" d="M377.13,450.069c3.541-0.935,7.129-1.557,10.741-2.046c3.612-0.473,7.244-0.817,10.887-0.953
								c3.641-0.134,7.291-0.172,10.933,0.024c3.645,0.137,7.276,0.524,10.897,0.973c0.274,0.034,0.469,0.284,0.435,0.558
								c-0.034,0.274-0.284,0.469-0.558,0.435c-0.001,0-0.002,0-0.003,0l-0.016-0.002c-3.585-0.484-7.183-0.909-10.8-1.085
								c-3.614-0.235-7.24-0.237-10.86-0.144c-3.622,0.095-7.237,0.397-10.834,0.827c-3.592,0.445-7.185,1.029-10.683,1.911
								l-0.011,0.003c-0.138,0.035-0.278-0.049-0.313-0.187C376.912,450.244,376.994,450.105,377.13,450.069z"/>
						</g>
						<path style="fill:#0B1011;" d="M182.385,303.26c0,0,9.314,1.693,9.06,1.778c-0.254,0.085-4.403,5.419-4.403,5.419
							L182.385,303.26z"/>
						<path style="fill:#0B1011;" d="M91.149,456.932l-5.175,23.714c0,0-19.157-6.257-24.564-20.702
							C61.41,459.944,74.928,456.314,91.149,456.932z"/>
						<path style="fill:#0B1011;" d="M432.921,465.502c0,0-11.974,12.422-27.753,16.227c0,0,4.812-15.331,4.812-18.465
							C409.98,463.264,427.326,462.48,432.921,465.502z"/>
						<path style="fill:#0B1011;" d="M176.382,478.107c0,0,6.248-0.257,8.645-5.478l-7.532-2.397L176.382,478.107z"/>
						<path style="fill:#0B1011;" d="M226.102,445.049l-40.829,24.695l2.415-41.049
							C187.688,428.695,199.431,441.098,226.102,445.049z"/>
						<path style="fill:#0B1011;" d="M371.785,448.854l1.61-25.464c0,0-12.395,10.883-20.04,11.968
							C353.355,435.358,371.785,440.219,371.785,448.854z"/>
						<path style="fill:none;stroke:#0B1011;stroke-width:2;stroke-linecap:round;stroke-linejoin:round;stroke-miterlimit:10;" d="
							M405.59,481.927c21.366-6.732,27.219-16.683,27.219-16.683c-12.293-28.683-24-91.61-37.756-115.902
							c-13.756-24.293-69.659-27.512-69.659-27.512l-1.171-4.683l-11.415-2.78l4.098,9.658
							c-6.293,34.39-42.732,29.561-42.732,29.561c-54.293-0.878-91.902-49.317-91.902-49.317s-8.195,6.146-6.146,9.073
							l-24.293,12.878c0,0-35.122,7.317-51.805,40.39c-16.683,33.073-39.805,93.073-38.927,93.366
							c0.878,0.293,4.683,13.463,25.756,20.781l-4.098,22.659l323.781-0.062c0.488-7.315-2.194-18.653-2.194-18.653l5.608-20.97"/>
						<g>
							<path style="fill:#0B1011;" d="M367.635,466.582c0.801-0.163,1.397-0.241,2.09-0.36l2.013-0.311l4.031-0.584
								c2.689-0.373,5.382-0.717,8.078-1.039c5.392-0.648,10.802-1.153,16.224-1.534c5.422-0.391,10.863-0.597,16.318-0.529
								c5.449,0.1,10.938,0.337,16.368,1.635c0.537,0.128,0.868,0.668,0.74,1.205c-0.129,0.537-0.668,0.868-1.205,0.74
								c-0.003-0.001-0.007-0.002-0.01-0.003l-0.018-0.005c-5.121-1.311-10.544-1.642-15.911-1.816
								c-5.385-0.148-10.791-0.025-16.188,0.284c-5.398,0.298-10.794,0.721-16.177,1.287c-2.692,0.28-5.381,0.583-8.068,0.915
								l-4.026,0.522l-2.009,0.28l-1.924,0.289l-0.149,0.022c-0.277,0.042-0.536-0.149-0.577-0.426
								C367.194,466.887,367.372,466.636,367.635,466.582z"/>
						</g>
						<path style="fill:none;stroke:#0B1011;stroke-width:2;stroke-linecap:round;stroke-linejoin:round;stroke-miterlimit:10;" d="
							M367.877,503.211c-1.976-13.61-3.262-31.382,3.104-46.748c0,0,2.195-28.097,2.634-32.927c0,0,13.723-35.368-0.546-71.368"/>
						<g>
							<path style="fill:#0B1011;" d="M325.639,321.862c0.415,4.091,0.1,8.147-0.713,12.128c-0.826,3.972-2.243,7.833-4.26,11.369
								c-2.023,3.531-4.645,6.724-7.726,9.385c-3.072,2.674-6.569,4.829-10.258,6.513c-7.407,3.37-15.48,4.894-23.506,5.496
								c-8.05,0.604-16.188,0.078-24.105-1.516c-3.962-0.785-7.863-1.86-11.69-3.146c-3.837-1.283-7.548-2.86-11.223-4.48
								c-7.351-3.267-14.502-6.998-21.353-11.235c-6.842-4.245-13.388-9.006-19.406-14.391
								c-6.008-5.389-11.495-11.405-16.096-18.078c-0.314-0.455-0.199-1.077,0.256-1.391c0.455-0.314,1.077-0.199,1.391,0.256
								l0.004,0.006c8.957,13.118,21.316,23.664,34.781,32.107c6.754,4.224,13.821,7.957,21.093,11.233
								c3.644,1.629,7.307,3.206,11.064,4.483c3.758,1.284,7.59,2.361,11.483,3.153c7.782,1.607,15.773,2.165,23.706,1.611
								c7.916-0.552,15.848-2.017,23.078-5.264c3.602-1.622,7.004-3.698,9.99-6.271c2.995-2.561,5.544-5.632,7.521-9.042
								c1.97-3.415,3.367-7.156,4.191-11.021c0.814-3.853,1.135-7.88,0.76-11.764l-0.004-0.037c-0.027-0.283,0.18-0.534,0.463-0.562
								C325.36,321.375,325.611,321.579,325.639,321.862z"/>
						</g>
						<g>
							<path style="fill:#0B1011;" d="M316.596,327.368c-1.978,1.63-4.1,3.053-6.371,4.253c-2.272,1.173-4.729,2.129-7.387,2.305
								c-0.276,0.018-0.514-0.19-0.532-0.466c-0.018-0.276,0.19-0.514,0.466-0.532c0.005,0,0.01-0.001,0.014-0.001l0.017-0.001
								c2.428-0.08,4.833-0.907,7.082-1.983c2.246-1.095,4.399-2.442,6.381-3.971l0.009-0.007c0.112-0.087,0.274-0.066,0.361,0.047
								C316.721,327.123,316.703,327.28,316.596,327.368z"/>
						</g>
						<g>
							<path style="fill:#0B1011;" d="M204.07,325.17c0.189,0.017,0.404,0.051,0.586,0.099l0.431,0.124l0.86,0.249l1.714,0.504
								l3.429,0.996c2.287,0.658,4.58,1.298,6.878,1.915c4.596,1.237,9.212,2.393,13.85,3.451c4.642,1.038,9.305,1.979,13.991,2.772
								c4.691,0.757,9.404,1.369,14.134,1.708l0.007,0.001c0.275,0.02,0.483,0.259,0.463,0.534c-0.02,0.275-0.259,0.483-0.535,0.463
								l-0.004,0c-4.771-0.382-9.506-1.038-14.212-1.839c-4.7-0.836-9.369-1.82-14.014-2.9c-4.641-1.1-9.256-2.298-13.848-3.576
								c-2.296-0.638-4.587-1.298-6.871-1.977l-3.423-1.026l-1.709-0.519l-0.853-0.255l-0.426-0.127
								c-0.107-0.024-0.183-0.057-0.283-0.109l-0.266-0.14c-0.09-0.048-0.125-0.16-0.077-0.25
								C203.925,325.201,203.997,325.164,204.07,325.17z"/>
						</g>
						<g>
							<path style="fill:#0B1011;" d="M282.043,340.382c1.283,1.255,2.674,2.427,4.129,3.479c1.456,1.046,3.013,1.985,4.676,2.541
								c0.827,0.268,1.694,0.425,2.509,0.316c0.815-0.101,1.54-0.504,2.058-1.134c0.512-0.632,0.887-1.413,1.094-2.257
								c0.138-0.408,0.183-0.854,0.28-1.277l0.157-1.315l0.005-0.039c0.033-0.274,0.281-0.47,0.555-0.437
								c0.274,0.033,0.47,0.281,0.437,0.556c0,0.003-0.001,0.008-0.001,0.011l-0.197,1.388c-0.114,0.459-0.172,0.924-0.334,1.376
								c-0.249,0.911-0.684,1.812-1.333,2.571c-0.649,0.763-1.63,1.277-2.625,1.37c-0.997,0.107-1.959-0.103-2.846-0.41
								c-1.777-0.64-3.346-1.646-4.812-2.747c-1.465-1.111-2.836-2.319-4.122-3.633c-0.099-0.102-0.098-0.265,0.004-0.364
								c0.1-0.098,0.26-0.098,0.36,0L282.043,340.382z"/>
						</g>
						
							<line style="fill:none;stroke:#0B1011;stroke-width:2;stroke-linecap:round;stroke-linejoin:round;stroke-miterlimit:10;" x1="86.858" y1="480.756" x2="91.057" y2="457.803"/>
						<path style="fill:none;stroke:#0B1011;stroke-width:2;stroke-linecap:round;stroke-linejoin:round;stroke-miterlimit:10;" d="
							M177.573,470.841"/>
						<path style="fill:none;stroke:#0B1011;stroke-width:2;stroke-linecap:round;stroke-linejoin:round;stroke-miterlimit:10;" d="
							M177.521,471.219l-2.565,16.561c0,0-1.361,10.477-0.775,14.867"/>
						<g>
							<path style="fill:#0B1011;" d="M61.002,459.47c5.159-1.016,10.387-1.59,15.619-1.918c5.234-0.334,10.48-0.389,15.717-0.25
								c10.476,0.246,20.918,1.201,31.299,2.531c10.383,1.331,20.708,3.075,30.975,5.092c10.267,2.037,20.474,4.315,30.611,6.996
								l-0.929,0.668l1.597-29.76l0.399-7.44c0.086-1.244,0.09-2.471,0.243-3.729c0.124-1.224,0.227-2.456,0.321-3.687
								c0.367-4.928,0.539-9.875,0.554-14.819c0.013-9.886-0.628-19.784-2.247-29.517c-1.646-9.706-4.304-19.317-8.85-27.996
								l-0.031-0.064l-0.008-0.02c-0.979-2.26-2.169-4.518-3.432-6.685c-1.275-2.17-2.652-4.281-4.149-6.299
								c-2.988-4.034-6.439-7.741-10.429-10.721l-0.004-0.003c-0.442-0.331-0.533-0.957-0.203-1.4
								c0.331-0.443,0.957-0.533,1.4-0.203l0.003,0.002c4.182,3.146,7.739,7.004,10.804,11.167c1.535,2.084,2.942,4.255,4.243,6.487
								c1.296,2.244,2.486,4.509,3.527,6.933l-0.039-0.084c4.651,8.961,7.303,18.752,8.937,28.592
								c1.604,9.866,2.211,19.854,2.161,29.818c-0.034,4.984-0.225,9.965-0.614,14.936c-0.1,1.243-0.208,2.485-0.339,3.73
								c-0.153,1.206-0.164,2.467-0.253,3.698l-0.425,7.429l-1.699,29.717c-0.023,0.406-0.371,0.716-0.777,0.693
								c-0.05-0.003-0.106-0.013-0.152-0.025c-10.062-2.699-20.259-5.013-30.486-7.079c-10.235-2.048-20.526-3.823-30.872-5.186
								c-10.343-1.362-20.744-2.35-31.166-2.631c-5.21-0.157-10.425-0.12-15.623,0.194c-5.196,0.307-10.38,0.859-15.483,1.845
								c-0.279,0.056-0.55-0.125-0.606-0.404C60.541,459.798,60.723,459.526,61.002,459.47z"/>
						</g>
						<g>
							<path style="fill:#0B1011;" d="M62.972,452.476c10.304-1.129,20.658-1.362,31.001-1.223
								c10.342,0.184,20.683,0.749,30.969,1.86c10.28,1.138,20.545,2.521,30.693,4.553c5.099,0.887,10.129,2.108,15.181,3.23
								c2.534,0.527,5.021,1.249,7.527,1.892l7.507,1.976c0.267,0.07,0.426,0.344,0.356,0.611c-0.07,0.267-0.344,0.427-0.611,0.356
								l-0.002,0l-0.018-0.005l-7.478-2c-2.497-0.651-4.974-1.381-7.499-1.916c-5.033-1.138-10.046-2.376-15.13-3.281
								c-10.116-2.066-20.352-3.486-30.606-4.662c-10.261-1.149-20.579-1.753-30.9-1.977c-10.317-0.18-20.671,0.015-30.924,1.098
								l-0.011,0.001c-0.141,0.015-0.268-0.088-0.283-0.229C62.729,452.618,62.83,452.491,62.972,452.476z"/>
						</g>
						<g>
							<path style="fill:#0B1011;" d="M370.059,458.624c4.883-0.82,9.785-1.463,14.702-2.011c4.917-0.54,9.847-0.96,14.787-1.248
								c4.942-0.258,9.893-0.382,14.847-0.306c4.953,0.124,9.907,0.446,14.831,1.13c0.274,0.038,0.464,0.29,0.426,0.564
								c-0.038,0.273-0.29,0.465-0.564,0.426l-0.004-0.001l-0.008-0.001c-4.862-0.715-9.778-1.076-14.702-1.24
								c-4.927-0.115-9.859-0.033-14.788,0.184c-4.927,0.247-9.849,0.625-14.759,1.125c-4.908,0.506-9.813,1.109-14.682,1.886
								c-0.14,0.025-0.274-0.069-0.298-0.209C369.823,458.784,369.92,458.65,370.059,458.624z"/>
						</g>
						<g>
							<path style="fill:#0B1011;" d="M192.375,432.52c13.009,8.297,28.344,12.881,43.749,13.09
								c15.405,0.209,30.836-3.959,44.025-11.877c0.237-0.142,0.544-0.065,0.686,0.171c0.142,0.237,0.066,0.544-0.171,0.686
								l-0.002,0.001c-13.394,7.945-29.002,12.067-44.549,11.776c-15.547-0.292-30.967-4.996-44.015-13.414
								c-0.119-0.077-0.154-0.237-0.077-0.356C192.097,432.479,192.256,432.444,192.375,432.52z"/>
						</g>
						<g>
							<path style="fill:#0B1011;" d="M323.822,429.794c4.154,1.772,8.327,3.518,12.658,4.729c4.315,1.21,8.836,1.856,13.269,1.29
								c4.435-0.547,8.642-2.301,12.491-4.575c3.865-2.278,7.426-5.051,10.954-7.865c0.216-0.172,0.53-0.137,0.703,0.079
								c0.172,0.216,0.137,0.53-0.079,0.703l-0.004,0.003c-3.56,2.788-7.179,5.557-11.132,7.84
								c-3.935,2.278-8.269,4.045-12.842,4.567c-4.571,0.541-9.179-0.168-13.534-1.43c-4.372-1.265-8.548-3.059-12.689-4.868
								c-0.13-0.057-0.19-0.209-0.133-0.339C323.542,429.798,323.693,429.739,323.822,429.794z"/>
						</g>
						<g>
							<path style="fill:#0B1011;" d="M404.96,482.23c-1.01,3.298-2.235,6.519-3.66,9.637c1.116-3.241,2.015-6.545,2.691-9.883
								c0.055-0.271,0.319-0.446,0.59-0.391c0.271,0.055,0.446,0.319,0.391,0.59C404.969,482.199,404.965,482.215,404.96,482.23z"/>
						</g>
						<g>
							<path style="fill:#0B1011;" d="M175.912,482.832c-1.389,5.727-3.291,11.312-5.672,16.669
								c2.073-5.484,3.644-11.141,4.694-16.877c0.05-0.272,0.31-0.452,0.582-0.402c0.272,0.05,0.452,0.31,0.402,0.582
								C175.916,482.813,175.914,482.824,175.912,482.832z"/>
						</g>
					</g>
					<g>
						<path style="fill:#0B1011;" d="M192.86,147.446c0.86-3.969,3.118-7.511,5.78-10.578c0.316-0.364,0.656-0.764,0.676-1.245
							c0.012-0.287-0.094-0.565-0.2-0.833c-2.973-7.49-7.71-14.273-13.718-19.642c6.549,0.053,13.016,3.073,17.26,8.061
							c1.356,1.593,2.5,3.38,4.046,4.789c1.638,1.493,3.709,2.546,5.002,4.346c1.353,1.883,1.65,4.458,0.831,6.627
							s-2.708,3.887-4.924,4.571c-1.244,0.384-2.581,0.463-3.769,0.993c-2.093,0.934-2.858,4.299-3.202,6.565
							c-0.344,2.266,0.051,3.647,0.675,5.853c0.141,0.499-0.094,1.023-0.45,1.401c-0.16,0.169-0.48,0.13-0.701,0.204
							c-1.284,0.431-3.185,1.084-4.51,0.449c-0.967-0.463-1.561-1.814-1.982-2.736C192.426,153.536,192.228,150.366,192.86,147.446z
							"/>
						<path style="fill:#0B1011;" d="M213.904,171.924c0,0-2.738,25.884-16.302,23.022l-0.404-11.798
							C197.198,183.148,209.051,185.862,213.904,171.924z"/>
						<path style="fill:#0B1011;" d="M300.214,243.387c0.359,0,14.73,9.557,29.101-1.796L300.214,243.387z"/>
						<path style="fill:#0B1011;" d="M281.465,250.273c0.265,0.177,20.075,13.442,32.633,13.531c0,0,9.021-2.034,12.47-11.231
							c0,0-6.016,5.349-13,5.041c-7.572-0.334-17.599-3.538-17.599-3.538L281.465,250.273z"/>
						<path style="fill:#0B1011;" d="M312.663,314.658c0,0-8.049,14.488-28.829,2.634c-20.781-11.854-44.927-20.927-55.756-39.951
							c-10.829-19.024-13.902-36.732-13.902-36.732s7.448,11.689,21.204,17.836c0,0,6.162,15.823,18.455,23.432
							c0,0,18.146,8.927,36.146,10.829l12.439,1.463l9.572-1.876C311.991,292.295,310.322,309.244,312.663,314.658z"/>
						<path style="fill:#0B1011;" d="M271.207,197.203c0,0-9.489-3.882-14.018-1.941l6.398-4.313L271.207,197.203z"/>
						<path style="fill:#0B1011;" d="M332.815,193.68c0,0,4.96-2.372,9.705-0.359l-3.235-4.888L332.815,193.68z"/>
						<path style="fill:#0B1011;" d="M354.517,111.61c-2.81,0.871-15.51,6.939-17.699,8.904c0.876,2.05,0.14,2.845-0.627,4.938
							c-7.332,20.022-4.926,25.834-4.774,25.475c3.86-9.136,9.055-24.125,9.04-24.454c-0.057-1.236,2.018-3.566,3.051-4.247
							C347.011,119.918,352.648,113.204,354.517,111.61z"/>
						<path style="fill:none;stroke:#0B1011;stroke-width:2;stroke-linecap:round;stroke-linejoin:round;stroke-miterlimit:10;" d="
							M193.175,104.146c0,0-0.658-10.756-1.756-14.268l53.342-26.122c0,0,41.707-12.951,73.976-2.415c0,0-15.805,6.585-18.22,12.293
							c0,0,13.39,2.195,20.634,6.805c0,0-9.659,2.415-11.634,5.268c0,0,20.195,12.951,22.39,19.098c0,0,8.342,13.61,2.195,27.659
							c-6.146,14.049-2.195,32.927-0.878,34.902c0,0,13.829,4.39,6.366,20.634c0,0,20.854,32.268,6.146,47.415
							c0,0-0.22,7.902-5.488,10.537l-2.854,1.098c-1.446,11.39-2.567,22.478-9.175,32.303c-0.654,0.973-1.346,1.92-2.073,2.839
							c-1.776,2.245-3.768,4.332-6.044,6.068c-9.398,7.172-20.666,5.709-31.517,3.901c-10.73-1.788-21.835-4.285-31.552-9.328
							c-3.02-1.567-5.97-3.444-8.322-5.929c-11.634-12.293-13.61-17.78-13.61-17.78s-15.146-6.805-27.439-29.195
							c0,0-8.341,0-10.756,5.268c0,0-2.854-8.341,0.878-14.049c0,0-7.464,0.439-10.098,3.951c0,0,12.951-22.61,9.658-41.707
							c0,0-22.61-1.976-33.366-35.122C163.98,148.268,145.322,100.195,193.175,104.146z"/>
						<path style="fill:none;stroke:#0B1011;stroke-width:2;stroke-linecap:round;stroke-linejoin:round;stroke-miterlimit:10;" d="
							M332.098,104.246c0,0,21.976-12.947,31.345-6.133c0,0,5.451,0.681-1.022,7.666c0,0-1.363,4.6-1.193,9.54
							c0.17,4.94,0.511,4.77-3.237,10.903c-3.748,6.133-6.814,11.584-6.133,17.887s1.061,26.412-18.634,23.257"/>
						<path style="fill:none;stroke:#0B1011;stroke-linecap:round;stroke-linejoin:round;stroke-miterlimit:10;" d="
							M249.883,201.829l-9.659-11.415l1.756-14.634c0,0-43.133-25.702-17.561-62.927c23.122-33.659,64.683-6.146,64.683-6.146
							s23.707-24.878,43.024-0.293"/>
						<path style="fill:none;stroke:#0B1011;stroke-linecap:round;stroke-linejoin:round;stroke-miterlimit:10;" d="
							M264.224,190.707c0,0-13.317,7.463-16.098,13.756c-2.781,6.293-4.244,14.341-4.244,14.341"/>
						<g>
							<path style="fill:#0B1011;" d="M283.311,202.337c-2.935-0.762-5.82-1.719-8.63-2.864c-2.774-1.154-5.652-2.391-8.039-4.461
								c-2.368-2.033-4.24-4.658-5.326-7.606c-1.092-2.935-1.4-6.214-0.645-9.315c0.74-3.079,2.502-5.971,5.107-7.887
								c2.587-1.931,5.787-2.832,8.923-2.947c3.163-0.137,6.295,0.586,9.169,1.721c2.888,1.143,5.554,2.699,8.096,4.366
								c0.462,0.303,0.591,0.923,0.288,1.385c-0.303,0.462-0.923,0.591-1.385,0.288c-0.002-0.001-0.009-0.006-0.011-0.007
								c-2.461-1.653-5.001-3.166-7.697-4.266c-2.691-1.095-5.541-1.778-8.401-1.684c-2.846,0.072-5.707,0.862-7.971,2.518
								c-2.273,1.629-3.867,4.157-4.558,6.9c-0.701,2.746-0.469,5.716,0.503,8.415c0.961,2.707,2.662,5.153,4.831,7.056
								c2.156,1.921,4.878,3.144,7.618,4.316c2.743,1.153,5.565,2.123,8.439,2.903c0.323,0.087,0.514,0.42,0.427,0.743
								C283.962,202.23,283.632,202.42,283.311,202.337z"/>
						</g>
						<g>
							<path style="fill:#0B1011;" d="M311.821,174.45c1.872-2.348,4.369-4.027,6.968-5.24c2.602-1.206,5.365-2.099,8.255-2.428
								c2.874-0.322,5.901-0.052,8.603,1.215c2.665,1.244,4.979,3.367,6.178,6.131c0.593,1.374,0.834,2.92,0.812,4.347
								c-0.021,1.425-0.03,2.799-0.2,4.252c-0.16,1.439-0.614,2.913-1.378,4.176c-0.741,1.282-1.754,2.354-2.829,3.301
								c-2.184,1.877-4.667,3.226-7.074,4.613c-2.426,1.377-4.947,2.695-7.678,3.498c-0.23,0.068-0.471-0.064-0.538-0.294
								c-0.067-0.227,0.063-0.466,0.288-0.537c2.608-0.815,5.041-2.133,7.423-3.541c2.384-1.425,4.801-2.804,6.819-4.603
								c2.025-1.782,3.491-4.099,3.684-6.763c0.135-1.314,0.125-2.731,0.121-4.087c-0.008-1.354-0.238-2.607-0.763-3.789
								c-1.063-2.353-3.138-4.215-5.519-5.272c-2.377-1.07-5.115-1.285-7.743-0.943c-2.643,0.344-5.234,1.225-7.656,2.399
								c-2.41,1.173-4.618,2.744-6.194,4.794c-0.335,0.439-0.962,0.524-1.402,0.189s-0.524-0.962-0.189-1.402
								C311.81,174.464,311.818,174.453,311.821,174.45z"/>
						</g>
						<path style="fill:none;stroke:#0B1011;stroke-linecap:round;stroke-linejoin:round;stroke-miterlimit:10;" d="
							M161.178,121.977c6.983-5.758,16.525-7.978,25.504-6.841c5.094,0.646,10.182,2.386,14.023,5.794
							c3.362,2.983,5.639,7.11,9.285,9.738c0.326,0.235,0.682,0.464,1.083,0.495c0.644,0.049,1.204-0.418,1.648-0.888
							c2.24-2.375,3.531-5.62,3.536-8.884c0.005-3.264-1.277-6.513-3.51-8.894c-1.415-1.509-3.171-2.659-4.998-3.629
							c-4.685-2.489-9.888-3.862-15.119-4.745"/>
						<path style="fill:none;stroke:#0B1011;stroke-linecap:round;stroke-linejoin:round;stroke-miterlimit:10;" d="
							M336.438,120.828c9.416-4.668,18.945-9.411,26.882-16.3"/>
						<path style="fill:none;stroke:#0B1011;stroke-linecap:round;stroke-linejoin:round;stroke-miterlimit:10;" d="M196.47,182.91
							c2.784,0.135,5.656,0.257,8.272-0.706c3.697-1.36,6.33-4.702,8.069-8.236c1.914-3.89,2.982-8.193,3.109-12.527"/>
						<g>
							<path style="fill:#0B1011;" d="M189.104,152.477c0.43,1.974,1.617,3.769,3.245,4.954c1.628,1.186,3.708,1.707,5.703,1.497
								c0.499-0.054,0.992-0.153,1.471-0.296c0.479-0.133,0.926-0.333,1.242-0.63c0.318-0.303,0.395-0.652,0.232-1.073
								c-0.163-0.408-0.453-0.927-0.614-1.444c-0.686-2.099-0.431-4.358,0.274-6.368c0.355-1.012,0.828-1.981,1.415-2.883
								c0.3-0.448,0.604-0.885,0.987-1.296c0.373-0.41,0.87-0.782,1.406-0.993c1.08-0.413,2.089-0.497,3.05-0.824
								c0.961-0.298,1.878-0.711,2.63-1.324c1.517-1.219,2.445-3.164,2.429-5.105c0-1.949-0.845-3.907-2.311-5.167
								c-0.21-0.18-0.234-0.495-0.054-0.705c0.18-0.21,0.495-0.234,0.705-0.054c0.001,0.001,0.004,0.003,0.005,0.004
								c1.69,1.487,2.613,3.713,2.595,5.925c-0.01,2.233-1.076,4.41-2.821,5.789c-0.875,0.699-1.903,1.141-2.929,1.448
								c-1.02,0.331-2.117,0.436-2.989,0.771c-0.862,0.315-1.476,1.131-2.046,1.966c-0.558,0.84-1.014,1.751-1.358,2.702
								c-0.686,1.89-0.929,4.001-0.326,5.896c0.145,0.482,0.374,0.876,0.595,1.435c0.099,0.275,0.159,0.62,0.08,0.954
								c-0.077,0.334-0.271,0.619-0.495,0.828c-0.452,0.415-0.998,0.629-1.517,0.773c-0.52,0.15-1.054,0.251-1.591,0.305
								c-2.15,0.205-4.37-0.375-6.107-1.666c-1.731-1.287-2.969-3.203-3.408-5.312c-0.029-0.139,0.06-0.275,0.2-0.304
								C188.938,152.25,189.074,152.339,189.104,152.477z"/>
						</g>
						<g>
							<path style="fill:#0B1011;" d="M244.299,218.905c-0.382,2.2,0.051,4.624,0.972,6.727c0.929,2.131,2.382,4.015,4.091,5.611
								c3.453,3.198,7.812,5.298,12.27,6.854c4.485,1.547,9.157,2.546,13.862,3.248c4.709,0.702,9.463,1.106,14.226,1.319
								c4.763,0.222,9.536,0.236,14.306,0.132c2.387-0.047,4.766-0.138,7.159-0.254c2.406-0.109,4.761-0.152,7.144-0.344
								c4.748-0.35,9.487-0.927,14.13-1.923c2.32-0.498,4.61-1.127,6.827-1.932c2.199-0.828,4.349-1.85,6.13-3.311l0.009-0.007
								c0.213-0.175,0.528-0.144,0.704,0.069c0.175,0.213,0.144,0.528-0.069,0.704l-0.001,0.001
								c-1.93,1.577-4.166,2.623-6.429,3.474c-2.278,0.825-4.61,1.461-6.963,1.963c-4.709,1.004-9.485,1.578-14.269,1.925
								c-2.384,0.191-4.81,0.232-7.179,0.337c-2.381,0.113-4.78,0.202-7.173,0.246c-4.788,0.098-9.581,0.078-14.369-0.151
								c-4.787-0.22-9.571-0.632-14.319-1.346c-4.744-0.714-9.463-1.727-14.019-3.305c-4.528-1.59-8.986-3.73-12.575-7.059
								c-1.776-1.663-3.304-3.643-4.287-5.904c-0.967-2.264-1.451-4.747-1.011-7.273c0.04-0.233,0.262-0.388,0.494-0.348
								c0.233,0.041,0.388,0.262,0.348,0.495L244.299,218.905z"/>
						</g>
						<g>
							<path style="fill:#0B1011;" d="M244.092,222.463c0.17,2.088,1.113,4.225,2.26,6.091c1.16,1.895,2.604,3.617,4.202,5.18
								c1.592,1.571,3.34,2.987,5.177,4.276c1.83,1.299,3.746,2.483,5.723,3.557c7.909,4.323,16.537,7.216,25.254,9.526
								c2.186,0.561,4.379,1.106,6.596,1.585l1.657,0.374l1.641,0.442l3.281,0.89l6.561,1.78c1.099,0.274,2.186,0.651,3.249,0.813
								c1.086,0.182,2.196,0.253,3.3,0.248c2.21-0.024,4.414-0.423,6.453-1.241c1.022-0.434,1.953-0.938,2.928-1.551l2.917-1.753
								c3.908-2.308,7.859-4.528,11.895-6.624c0.245-0.127,0.547-0.032,0.674,0.213c0.127,0.245,0.032,0.547-0.213,0.674l0,0
								l-0.006,0.003c-4.005,2.073-7.956,4.286-11.849,6.578l-2.908,1.743c-0.941,0.592-2.005,1.173-3.07,1.618
								c-2.168,0.867-4.495,1.282-6.811,1.304c-1.159,0.004-2.317-0.071-3.465-0.265c-1.178-0.186-2.24-0.564-3.336-0.837
								l-6.548-1.786l-3.274-0.893l-1.638-0.443l-1.655-0.376c-2.21-0.481-4.411-1.03-6.611-1.598
								c-8.763-2.336-17.445-5.255-25.449-9.642c-2.001-1.09-3.943-2.294-5.804-3.618c-1.867-1.313-3.649-2.76-5.279-4.373
								c-1.636-1.605-3.122-3.379-4.326-5.351c-1.19-1.98-2.181-4.096-2.379-6.543c-0.019-0.235,0.156-0.441,0.391-0.46
								s0.441,0.156,0.46,0.391L244.092,222.463z"/>
						</g>
						<g>
							<path style="fill:#0B1011;" d="M312.492,265.565c-1.306,6.119-0.755,12.598,1.534,18.368c0.102,0.257-0.024,0.547-0.28,0.649
								c-0.257,0.102-0.547-0.024-0.649-0.28c-0.001-0.003-0.003-0.009-0.005-0.012c-2.209-6.016-2.588-12.654-1.102-18.839
								c0.033-0.138,0.172-0.223,0.31-0.19C312.436,265.294,312.521,265.429,312.492,265.565z"/>
						</g>
						<g>
							<path style="fill:#0B1011;" d="M305.372,200.318c0.165,1.717,1.391,3.168,2.801,4.176c1.427,1.036,3.096,1.785,4.592,2.852
								c3.007,2.078,5.56,4.818,7.419,7.975c1.88,3.146,3.026,6.73,3.365,10.385c0.346,3.656-0.105,7.388-1.33,10.864
								c-0.092,0.261-0.377,0.397-0.638,0.306c-0.26-0.092-0.397-0.377-0.305-0.638c0-0.001,0.002-0.007,0.003-0.008
								c1.212-3.32,1.69-6.913,1.395-10.447c-0.289-3.534-1.354-7.007-3.144-10.08c-1.769-3.083-4.222-5.778-7.129-7.835
								c-1.433-1.051-3.08-1.809-4.569-2.91c-1.466-1.077-2.801-2.647-2.973-4.597c-0.012-0.142,0.092-0.266,0.234-0.279
								C305.234,200.07,305.359,200.178,305.372,200.318z"/>
						</g>
						<g>
							<path style="fill:#0B1011;" d="M296.413,220.659c0.95,5.174,1.324,10.462,1.111,15.735c-0.011,0.276-0.244,0.491-0.52,0.48
								c-0.276-0.011-0.491-0.244-0.48-0.52c0-0.005,0.001-0.011,0.001-0.016c0.37-5.191,0.163-10.432-0.621-15.595
								c-0.021-0.141,0.075-0.272,0.216-0.293C296.258,220.43,296.387,220.523,296.413,220.659z"/>
						</g>
						<g>
							<path style="fill:#0B1011;" d="M331.326,217.877c0.734,0.837,1.282,1.824,1.664,2.857c0.387,1.033,0.632,2.106,0.817,3.176
								c0.356,2.144,0.567,4.27,0.854,6.407c0.037,0.274-0.155,0.525-0.429,0.562s-0.526-0.156-0.562-0.429
								c-0.001-0.005-0.001-0.011-0.002-0.017l-0.002-0.019c-0.204-2.128-0.338-4.285-0.607-6.388
								c-0.281-2.083-0.795-4.196-2.124-5.815c-0.091-0.109-0.076-0.271,0.033-0.363
								C331.074,217.76,331.234,217.774,331.326,217.877z"/>
						</g>
						<g>
							<path style="fill:#0B1011;" d="M341.578,217.901c0.992,1.361,1.524,3.003,1.791,4.635c0.271,1.64,0.307,3.293,0.328,4.919
								c0.004,0.276-0.217,0.503-0.494,0.507c-0.276,0.004-0.503-0.217-0.507-0.493c0-0.008,0-0.018,0-0.025
								c0.059-1.617,0.102-3.222-0.078-4.801c-0.178-1.571-0.601-3.128-1.465-4.449c-0.078-0.119-0.045-0.279,0.074-0.357
								C341.344,217.761,341.498,217.791,341.578,217.901z"/>
						</g>
						<g>
							<path style="fill:#0B1011;" d="M273.681,219.942c-1.023,3.763-1.331,7.705-0.914,11.551c0.03,0.275-0.169,0.521-0.443,0.551
								c-0.275,0.03-0.521-0.169-0.551-0.443c-0.001-0.006-0.001-0.015-0.002-0.021c-0.267-3.986,0.22-8.004,1.417-11.784
								c0.043-0.136,0.188-0.211,0.323-0.168C273.642,219.671,273.717,219.81,273.681,219.942z"/>
						</g>
						<g>
							<path style="fill:#0B1011;" d="M255.785,219.01c-0.35,1.52-0.639,3.053-0.709,4.585c-0.072,1.527,0.092,3.06,0.644,4.437
								c0.103,0.257-0.022,0.548-0.278,0.65c-0.256,0.103-0.548-0.022-0.65-0.278c-0.003-0.008-0.007-0.02-0.01-0.028
								c-0.537-1.576-0.617-3.243-0.46-4.835c0.157-1.599,0.536-3.145,0.966-4.659c0.039-0.137,0.181-0.216,0.318-0.177
								C255.737,218.742,255.816,218.878,255.785,219.01z"/>
						</g>
						<g>
							<path style="fill:#0B1011;" d="M194.388,169.758c1.486,1.308,3.382,2.12,5.343,2.355c1.956,0.222,3.993-0.047,5.748-0.924
								c1.762-0.852,3.179-2.299,4.245-3.965c1.085-1.663,1.88-3.52,2.672-5.387c0.107-0.255,0.4-0.374,0.655-0.267
								c0.255,0.107,0.374,0.4,0.267,0.655c-0.001,0.002-0.004,0.008-0.005,0.011c-0.833,1.857-1.682,3.748-2.859,5.476
								c-1.152,1.728-2.717,3.275-4.652,4.162c-1.917,0.908-4.089,1.147-6.157,0.87c-2.072-0.291-4.063-1.189-5.607-2.606
								c-0.105-0.096-0.112-0.259-0.016-0.364c0.095-0.103,0.255-0.111,0.36-0.019L194.388,169.758z"/>
						</g>
						<g>
							<path style="fill:#0B1011;" d="M170.481,151.961c4.196,12.758,14.643,23.237,27.302,27.476
								c0.262,0.088,0.403,0.371,0.316,0.633c-0.088,0.262-0.371,0.403-0.633,0.316c-0.001,0-0.005-0.002-0.006-0.002
								c-12.917-4.505-23.372-15.297-27.469-28.265c-0.043-0.136,0.032-0.28,0.168-0.323
								C170.293,151.753,170.437,151.827,170.481,151.961z"/>
						</g>
						<path style="fill:none;stroke:#0B1011;stroke-width:2;stroke-linecap:round;stroke-linejoin:round;stroke-miterlimit:10;" d="
							M277.982,145.704c0,1.2-0.16,2.36-0.47,3.46c-1.51,5.4-6.46,9.35-12.34,9.35c-5.63,0-10.4-3.63-12.12-8.68
							c-0.44-1.3-0.68-2.68-0.68-4.13c0-1.55,0.28-3.04,0.79-4.42c1.79-4.89,6.49-8.38,12.01-8.38c5.36,0,9.95,3.29,11.86,7.96
							C277.642,142.354,277.982,143.994,277.982,145.704z"/>
						<path style="fill:#0B1011;" d="M277.512,149.164c0.31-1.1,0.47-2.26,0.47-3.46c0-1.71-0.34-3.35-0.95-4.84l6.66,5.21
							L277.512,149.164z"/>
						<path style="fill:#0B1011;" d="M252.372,145.704c0,1.45,0.24,2.83,0.68,4.13c-2.91-0.78-8.44-2.22-8.44-2.22l8.55-6.33
							C252.652,142.664,252.372,144.154,252.372,145.704z"/>
						
							<ellipse transform="matrix(0.2305 -0.9731 0.9731 0.2305 64.3591 371.0448)" style="fill:#0B1011;" cx="266.785" cy="144.829" rx="7.683" ry="7.683"/>
						<path style="fill:#FFFFFF;" d="M276.005,144.483c0,1.849-2.24,3.349-5.003,3.349s-5.003-1.499-5.003-3.349
							c0-1.849,2.24-3.348,5.003-3.348S276.005,142.633,276.005,144.483z"/>
						<circle style="fill:#FFFFFF;" cx="262.377" cy="144.1" r="1.271"/>
						<g>
							<path style="fill:#0B1011;" d="M247.744,133.932c1.302-3.348,3.979-6.082,7.188-7.654c3.209-1.598,6.859-2.194,10.416-1.918
								c3.552,0.284,7.097,1.453,9.965,3.674c1.427,1.108,2.655,2.493,3.555,4.075c0.905,1.58,1.469,3.348,1.701,5.148
								c0.037,0.274-0.156,0.525-0.429,0.562c-0.274,0.037-0.525-0.156-0.562-0.429c0-0.003-0.001-0.01-0.001-0.013
								c-0.363-3.379-2.116-6.548-4.808-8.652c-2.677-2.126-6.062-3.298-9.485-3.609c-3.427-0.307-6.965,0.23-10.071,1.733
								c-3.107,1.481-5.698,4.065-6.992,7.276c-0.053,0.132-0.203,0.196-0.335,0.143
								C247.756,134.215,247.693,134.064,247.744,133.932z"/>
						</g>
						<g>
							<path style="fill:#0B1011;" d="M289.883,119.438c0.03,1.633,0.264,3.261,0.694,4.834c0.218,0.786,0.48,1.558,0.793,2.312
								c0.311,0.756,0.67,1.527,0.863,2.381c0.19,0.855,0.196,1.711,0.195,2.543c-0.006,0.837-0.047,1.671-0.104,2.501
								c-0.114,1.66-0.293,3.305-0.378,4.944c-0.345,6.55,0.91,13.171,3.623,19.122c0.115,0.251,0.004,0.548-0.247,0.662
								c-0.251,0.115-0.548,0.004-0.662-0.247c0-0.001-0.002-0.005-0.002-0.006c-2.706-6.133-3.899-12.907-3.467-19.575
								c0.107-1.666,0.307-3.311,0.439-4.952c0.106-1.626,0.265-3.313-0.018-4.857c-0.162-0.768-0.493-1.514-0.803-2.289
								c-0.312-0.779-0.573-1.58-0.787-2.391c-0.423-1.625-0.643-3.301-0.653-4.978c-0.001-0.142,0.114-0.258,0.256-0.259
								C289.765,119.183,289.881,119.297,289.883,119.438z"/>
						</g>
						<g>
							<path style="fill:#0B1011;" d="M306.844,169.35c0.802-1.091,1.818-2.019,2.945-2.756c1.122-0.749,2.343-1.324,3.58-1.821
								c1.242-0.493,2.503-0.904,3.77-1.294c1.266-0.382,2.656-0.733,4.108-0.486c0.272,0.046,0.455,0.305,0.409,0.577
								c-0.046,0.272-0.305,0.455-0.577,0.409c-0.005-0.001-0.013-0.003-0.018-0.003c-1.166-0.242-2.432,0.008-3.679,0.348
								c-1.261,0.347-2.521,0.714-3.742,1.157c-1.219,0.447-2.413,0.966-3.506,1.649c-1.099,0.672-2.084,1.519-2.876,2.529
								c-0.086,0.113-0.247,0.135-0.361,0.049C306.785,169.624,306.764,169.463,306.844,169.35z"/>
						</g>
						<g>
							<path style="fill:#0B1011;" d="M296.125,169.4c-4.395-3.063-9.764-4.662-15.066-4.519c-0.276,0.007-0.506-0.21-0.513-0.486
								c-0.007-0.276,0.21-0.506,0.486-0.513c0.004,0,0.011,0,0.015,0c5.523,0.018,10.986,1.842,15.378,5.101
								c0.114,0.085,0.138,0.246,0.053,0.36C296.396,169.454,296.239,169.479,296.125,169.4z"/>
						</g>
						<path style="fill:#0B1011;" d="M294.664,188.296c-6.813-3.504-10.809-12.338-18.959-11.07
							c-2.47,0.252-4.899,1.687-4.973,4.361c0.568,11.63,17.52,13.466,26.621,12.257c1.103-0.165,3.165-0.671,4.296-1.587
							c0.927-0.751,0.325-2.232-0.868-2.249C298.708,189.979,296.59,189.286,294.664,188.296z"/>
						<path style="fill:#0B1011;" d="M313.323,186.715c6.19-4.514,8.774-13.859,17.022-13.865c2.479-0.132,5.1,0.91,5.586,3.541
							c1.235,11.578-15.23,16.01-24.409,16.221c-1.116,0.008-3.23-0.174-4.489-0.905c-1.032-0.599-0.666-2.155,0.51-2.356
							C309.588,189.002,311.574,187.99,313.323,186.715z"/>
						<g>
							<path style="fill:#0B1011;" d="M256.103,159.655c1.445-0.401,2.896-0.625,4.363-0.792c1.466-0.161,2.94-0.235,4.415-0.247
								c1.474,0.012,2.95,0.055,4.419,0.203c1.471,0.126,2.931,0.345,4.387,0.592c0.272,0.046,0.456,0.304,0.409,0.577
								c-0.046,0.272-0.304,0.456-0.577,0.409c-0.004-0.001-0.007-0.001-0.011-0.002l-0.014-0.003
								c-1.42-0.281-2.847-0.537-4.287-0.7c-1.438-0.186-2.886-0.267-4.335-0.32c-1.449-0.028-2.901,0.005-4.346,0.123
								c-1.44,0.122-2.895,0.31-4.279,0.653l-0.015,0.004c-0.138,0.034-0.278-0.05-0.312-0.188
								C255.888,159.83,255.969,159.693,256.103,159.655z"/>
						</g>
						<path style="fill:none;stroke:#0B1011;stroke-width:2;stroke-linecap:round;stroke-linejoin:round;stroke-miterlimit:10;" d="
							M328.616,143.874c0,1.2-0.16,2.36-0.47,3.46c-1.51,5.4-6.46,9.35-12.34,9.35c-5.63,0-10.4-3.63-12.12-8.68
							c-0.44-1.3-0.68-2.68-0.68-4.13c0-1.55,0.28-3.04,0.79-4.42c1.79-4.89,6.49-8.38,12.01-8.38c5.36,0,9.95,3.29,11.86,7.96
							C328.276,140.524,328.616,142.164,328.616,143.874z"/>
						<path style="fill:#0B1011;" d="M328.146,147.334c0.31-1.1,0.47-2.26,0.47-3.46c0-1.71-0.34-3.35-0.95-4.84l3.161,4.803
							L328.146,147.334z"/>
						<path style="fill:#0B1011;" d="M303.006,143.874c0,1.45,0.24,2.83,0.68,4.13c-2.91-0.78-8.44-2.22-8.44-2.22l8.55-6.33
							C303.286,140.834,303.006,142.324,303.006,143.874z"/>
						<circle style="fill:#0B1011;" cx="317.419" cy="143" r="7.683"/>
						<path style="fill:#FFFFFF;" d="M326.346,142.654c0,1.849-2.174,3.348-4.857,3.348c-2.682,0-4.857-1.499-4.857-3.348
							c0-1.849,2.174-3.349,4.857-3.349C324.172,139.305,326.346,140.804,326.346,142.654z"/>
						<path style="fill:#FFFFFF;" d="M314.282,142.271c0,0.702-0.569,1.271-1.271,1.271c-0.702,0-1.271-0.569-1.271-1.271
							s0.569-1.271,1.271-1.271C313.713,141,314.282,141.569,314.282,142.271z"/>
						<g>
							<path style="fill:#0B1011;" d="M298.378,132.103c1.302-3.348,3.979-6.082,7.188-7.654c3.209-1.598,6.859-2.194,10.416-1.918
								c3.552,0.284,7.097,1.453,9.965,3.674c1.427,1.108,2.655,2.493,3.555,4.075c0.905,1.58,1.469,3.348,1.701,5.148
								c0.037,0.274-0.156,0.525-0.429,0.562c-0.274,0.037-0.525-0.156-0.562-0.429c0-0.003-0.001-0.01-0.002-0.013
								c-0.363-3.379-2.115-6.548-4.808-8.652c-2.677-2.126-6.062-3.298-9.485-3.609c-3.427-0.307-6.965,0.23-10.071,1.734
								c-3.107,1.48-5.698,4.065-6.992,7.276c-0.053,0.132-0.203,0.196-0.335,0.143C298.39,132.385,298.327,132.234,298.378,132.103
								z"/>
						</g>
						<g>
							<path style="fill:#0B1011;" d="M306.737,157.826c1.445-0.401,2.895-0.625,4.363-0.792c1.466-0.161,2.94-0.235,4.415-0.247
								c1.474,0.012,2.95,0.055,4.419,0.203c1.471,0.126,2.931,0.346,4.387,0.592c0.272,0.046,0.456,0.304,0.409,0.577
								c-0.046,0.272-0.304,0.456-0.577,0.409c-0.004-0.001-0.007-0.001-0.011-0.002l-0.014-0.003
								c-1.42-0.281-2.847-0.537-4.287-0.7c-1.438-0.186-2.886-0.267-4.335-0.32c-1.449-0.028-2.901,0.005-4.346,0.123
								c-1.44,0.122-2.895,0.31-4.279,0.653l-0.015,0.004c-0.138,0.034-0.277-0.05-0.312-0.188
								C306.522,158.001,306.603,157.863,306.737,157.826z"/>
						</g>
						<g>
							<path style="fill:#0B1011;" d="M250.712,64.529c7.281-1.907,14.984-1.891,22.352-0.474
								c7.389,1.422,14.455,4.222,21.058,7.775c0.243,0.131,0.334,0.434,0.203,0.677c-0.131,0.243-0.434,0.334-0.677,0.203
								l-0.005-0.003c-6.495-3.587-13.447-6.428-20.726-7.91c-7.258-1.478-14.863-1.576-22.077,0.229
								c-0.138,0.035-0.278-0.049-0.312-0.187C250.494,64.703,250.576,64.565,250.712,64.529z"/>
						</g>
						<g>
							<path style="fill:#0B1011;" d="M307.956,253.5c3.348,0.604,6.838,0.279,9.979-0.906c0.258-0.097,0.547,0.033,0.645,0.291
								c0.098,0.258-0.033,0.547-0.291,0.645c-0.007,0.003-0.016,0.006-0.023,0.008c-3.368,1.092-7.005,1.247-10.413,0.466
								c-0.139-0.032-0.225-0.17-0.193-0.308C307.69,253.561,307.821,253.476,307.956,253.5z"/>
						</g>
						<path style="fill:none;stroke:#0B1011;stroke-width:2;stroke-linecap:round;stroke-linejoin:round;stroke-miterlimit:10;" d="
							M188.036,310.367c0,0,24.237-43.343,25.773-71.002"/>
						<path style="fill:none;stroke:#0B1011;stroke-width:2;stroke-linecap:round;stroke-linejoin:round;stroke-miterlimit:10;" d="
							M311.937,293.041c0.439,1.537-3.374,18.489,4.968,30.782"/>
						<g>
							<path style="fill:#0B1011;" d="M346.914,149.281c0.189-0.032,0.406,0.092,0.485,0.219c0.092,0.125,0.13,0.245,0.159,0.362
								c0.054,0.25,0.029,0.44,0.038,0.632c0.003,0.389-0.009,0.779-0.032,1.168c-0.047,0.778-0.147,1.554-0.302,2.32
								c-0.309,1.532-0.848,3.028-1.633,4.397c-1.562,2.731-4.168,4.944-7.301,5.766c-0.267,0.07-0.54-0.09-0.611-0.357
								c-0.07-0.267,0.09-0.54,0.357-0.611c0.004-0.001,0.011-0.003,0.015-0.004c2.849-0.663,5.351-2.645,6.887-5.18
								c0.774-1.272,1.328-2.683,1.663-4.147c0.168-0.732,0.284-1.477,0.35-2.228c0.033-0.375,0.054-0.752,0.061-1.129
								c-0.001-0.19,0.018-0.388-0.011-0.514c-0.031-0.162-0.102-0.204-0.068-0.183c-0.141,0.016-0.269-0.086-0.284-0.227
								S346.773,149.296,346.914,149.281z"/>
						</g>
						<g>
							<path style="fill:#0B1011;" d="M356.761,117.651c-3.97,3.877-6.567,9.097-7.276,14.545c-0.036,0.274-0.286,0.467-0.56,0.431
								c-0.274-0.036-0.467-0.286-0.431-0.56c0.001-0.004,0.002-0.011,0.002-0.015c0.903-5.652,3.745-10.932,7.911-14.774
								c0.105-0.096,0.267-0.09,0.364,0.015C356.865,117.394,356.86,117.554,356.761,117.651z"/>
						</g>
						<g>
							<path style="fill:#0B1011;" d="M198.342,91.679c10.03-0.795,20.186-0.115,30.043,2.018c0.27,0.058,0.441,0.325,0.383,0.594
								c-0.058,0.27-0.325,0.441-0.594,0.383c-0.002,0-0.006-0.001-0.008-0.002c-9.726-2.27-19.796-3.111-29.787-2.48
								c-0.142,0.009-0.264-0.099-0.273-0.241C198.097,91.811,198.203,91.69,198.342,91.679z"/>
						</g>
					</g>
					<path style="fill:none;stroke:#0B1011;stroke-linecap:round;stroke-linejoin:round;stroke-miterlimit:10;" d="M246.224,229.488
						c0,0-13.171,30.878,6.878,50.634"/>
					<g>
						<path style="fill:#0B1011;" d="M258.006,306.531c2.783,8.72,6.989,16.97,12.393,24.325c0.163,0.222,0.116,0.535-0.107,0.699
							c-0.223,0.164-0.536,0.116-0.699-0.107c-0.001-0.002-0.004-0.006-0.005-0.007c-5.336-7.538-9.428-15.936-12.073-24.757
							c-0.041-0.136,0.036-0.28,0.173-0.32C257.822,306.322,257.964,306.398,258.006,306.531z"/>
					</g>
				</g>
				<path style="fill:#F75843;" d="M281.968,242.561c0,0-9.219,12.732-12.622,28.537c-3.402,15.805-17.561,26.012-28.756,12.512
					c-11.195-13.5-6.585-43.134-3.732-49.939c2.854-6.805,7.793-8.122,7.793-8.122s5.927,11.524,21.293,14.378
					C265.944,239.927,278.236,242.342,281.968,242.561z"/>
				<g>
					<g>
						<path style="fill:#0B1011;" d="M316.771,140.075c0.043-0.923,0.022-1.867-0.28-2.739c-0.978-2.827-4.485-3.901-7.47-3.714
							c-2.111,0.132-4.183,0.717-6.076,1.661c-1.417,2.921-2.212,6.195-2.212,9.652c0,5.912,2.325,11.282,6.114,15.275
							c0.449-0.512,0.901-1.021,1.342-1.534C312.731,153.405,316.448,147.025,316.771,140.075z"/>
						<path style="fill:#FFFFFF;" d="M334.19,136.3c-1.376-0.23-2.757-0.673-3.828-1.567c-1.274-1.063-1.978-2.642-2.641-4.163
							c-0.897-2.058-1.801-4.142-2.171-6.356c-0.082-0.491-0.13-0.991-0.15-1.493c-0.701-0.065-1.411-0.102-2.13-0.102
							c-8.955,0-16.69,5.173-20.325,12.665c1.892-0.944,3.964-1.529,6.076-1.661c2.985-0.187,6.492,0.887,7.47,3.714
							c0.302,0.873,0.323,1.817,0.28,2.739c-0.323,6.95-4.039,13.33-8.58,18.602c-0.441,0.512-0.893,1.022-1.342,1.534
							c3.177,3.348,7.384,5.725,12.123,6.631c2.062-4.685,4.492-9.207,7.273-13.504c1.731-2.676,3.617-5.289,6-7.405
							c2.383-2.116,5.313-3.721,8.479-4.085c1.243-0.143,2.554-0.082,3.667,0.491c0.507,0.261,0.949,0.624,1.356,1.026
							c-0.213-3.026-1.033-5.884-2.343-8.458C340.576,136.314,337.305,136.821,334.19,136.3z"/>
						<path style="fill:#0B1011;" d="M327.721,130.57c0.663,1.521,1.367,3.1,2.641,4.163c1.071,0.894,2.452,1.337,3.828,1.567
							c3.115,0.521,6.386,0.014,9.212-1.392c-3.406-6.692-10.111-11.454-18.002-12.187c0.02,0.501,0.068,1.002,0.15,1.493
							C325.92,126.427,326.824,128.512,327.721,130.57z"/>
						<path style="fill:#0B1011;" d="M340.723,141.848c-3.166,0.364-6.096,1.968-8.479,4.085c-2.383,2.116-4.269,4.729-6,7.405
							c-2.781,4.297-5.211,8.82-7.273,13.504c1.392,0.267,2.829,0.411,4.299,0.411c12.447,0,22.537-9.992,22.537-22.317
							c0-0.529-0.025-1.051-0.062-1.57c-0.407-0.402-0.849-0.764-1.356-1.026C343.277,141.767,341.966,141.706,340.723,141.848z"/>
					</g>
					<g>
						<path style="fill:#0B1011;" d="M265.405,140.075c0.043-0.923,0.022-1.867-0.28-2.739c-0.978-2.827-4.485-3.901-7.47-3.714
							c-2.111,0.132-4.183,0.717-6.076,1.661c-1.417,2.921-2.212,6.195-2.212,9.652c0,5.912,2.325,11.282,6.114,15.275
							c0.449-0.512,0.901-1.021,1.343-1.534C261.366,153.405,265.082,147.025,265.405,140.075z"/>
						<path style="fill:#FFFFFF;" d="M282.824,136.3c-1.376-0.23-2.757-0.673-3.828-1.567c-1.274-1.063-1.978-2.642-2.641-4.163
							c-0.897-2.058-1.801-4.142-2.171-6.356c-0.082-0.491-0.13-0.991-0.15-1.493c-0.702-0.065-1.411-0.102-2.13-0.102
							c-8.955,0-16.69,5.173-20.325,12.665c1.892-0.944,3.964-1.529,6.076-1.661c2.985-0.187,6.492,0.887,7.47,3.714
							c0.302,0.873,0.322,1.817,0.28,2.739c-0.323,6.95-4.04,13.33-8.58,18.602c-0.441,0.512-0.894,1.022-1.343,1.534
							c3.177,3.348,7.384,5.725,12.123,6.631c2.062-4.685,4.492-9.207,7.273-13.504c1.731-2.676,3.617-5.289,6-7.405
							c2.383-2.116,5.313-3.721,8.479-4.085c1.243-0.143,2.554-0.082,3.667,0.491c0.507,0.261,0.949,0.624,1.356,1.026
							c-0.213-3.026-1.033-5.884-2.343-8.458C289.21,136.314,285.939,136.821,282.824,136.3z"/>
						<path style="fill:#0B1011;" d="M276.355,130.57c0.663,1.521,1.367,3.1,2.641,4.163c1.071,0.894,2.452,1.337,3.828,1.567
							c3.115,0.521,6.386,0.014,9.212-1.392c-3.406-6.692-10.111-11.454-18.002-12.187c0.02,0.501,0.068,1.002,0.15,1.493
							C274.554,126.427,275.458,128.512,276.355,130.57z"/>
						<path style="fill:#0B1011;" d="M289.357,141.848c-3.166,0.364-6.096,1.968-8.479,4.085c-2.383,2.116-4.269,4.729-6,7.405
							c-2.781,4.297-5.211,8.82-7.273,13.504c1.392,0.267,2.828,0.411,4.299,0.411c12.447,0,22.537-9.992,22.537-22.317
							c0-0.529-0.025-1.051-0.062-1.57c-0.407-0.402-0.849-0.764-1.356-1.026C291.911,141.767,290.6,141.706,289.357,141.848z"/>
					</g>
					<g>
						
							<ellipse style="fill:none;stroke:#0B1011;stroke-width:2;stroke-linecap:round;stroke-linejoin:round;stroke-miterlimit:10;" cx="272.124" cy="144.936" rx="22.537" ry="22.317"/>
						
							<ellipse style="fill:none;stroke:#0B1011;stroke-width:2;stroke-linecap:round;stroke-linejoin:round;stroke-miterlimit:10;" cx="323.27" cy="144.936" rx="22.537" ry="22.317"/>
						<g>
							<path style="fill:#0B1011;" d="M301.612,139.448c-2.884-1.527-4.799-1.527-7.683,0c-0.616-1.164-0.924-1.746-1.541-2.91
								c4.04-2.139,6.724-2.138,10.764,0C302.536,137.702,302.228,138.284,301.612,139.448z"/>
						</g>
					</g>
				</g>
				<g>
					<path style="fill:#C6C1BB;" d="M332.122,102.88c0,0-5.07-3.68-17.33-5.77c0.04-0.19,0.07-0.38,0.1-0.57
						c0.36-2.12,0.55-4.31,0.55-6.54c0-1.09-0.05-2.17-0.13-3.24c-1.58-18.98-16.81-33.86-35.36-33.86
						c-19.6,0-35.48,16.61-35.48,37.1c0,0.21,0,0.42,0.01,0.63c0.05,3.64,0.61,7.14,1.6,10.45c0.16,0.54,0.34,1.08,0.52,1.61
						c-10.28,2.57-21.65,5.98-34.18,10.43c0,0-7.91-9.95-20.2-9.66h-7.31c0,0-1.18-28.09,21.65-36.29c0,0,22.05-15.88,45.84-22.11
						c5.99-1.57,12.08-2.53,17.97-2.47c0,0,1.3,0.17,3.49,0.52c8.84,1.41,32.13,5.72,41.29,13.23
						C315.152,56.34,334.762,68.63,332.122,102.88z"/>
					<path style="fill:none;stroke:#0B1011;stroke-width:2;stroke-linecap:round;stroke-linejoin:round;stroke-miterlimit:10;" d="
						M332.122,102.88c0,0-5.07-3.68-17.33-5.77c0.04-0.19,0.07-0.38,0.1-0.57c0.36-2.12,0.55-4.31,0.55-6.54
						c0-1.09-0.05-2.17-0.13-3.24c-1.58-18.98-16.81-33.86-35.36-33.86c-19.6,0-35.48,16.61-35.48,37.1c0,0.21,0,0.42,0.01,0.63
						c0.05,3.64,0.61,7.14,1.6,10.45c0.16,0.54,0.34,1.08,0.52,1.61c-10.28,2.57-21.65,5.98-34.18,10.43c0,0-7.91-9.95-20.2-9.66
						h-7.31c0,0-1.18-28.09,21.65-36.29c0,0,22.05-15.88,45.84-22.11c5.99-1.57,12.08-2.53,17.97-2.47c0,0,1.3,0.17,3.49,0.52
						c8.84,1.41,32.13,5.72,41.29,13.23C315.152,56.34,334.762,68.63,332.122,102.88z"/>
					<path style="fill:#FFFFFF;" d="M315.442,90c0,2.23-0.19,4.42-0.55,6.54c-11.66-0.73-47.98-2.32-68.81,4.54
						c-0.99-3.31-1.55-6.81-1.6-10.45c11.35-2.63,42.06-8.59,70.83-3.87C315.392,87.83,315.442,88.91,315.442,90z"/>
					
						<path style="fill:none;stroke:#0B1011;stroke-width:1.9797;stroke-linecap:round;stroke-linejoin:round;stroke-miterlimit:10;" d="
						M315.442,90c0,2.23-0.19,4.42-0.55,6.54c-11.66-0.73-47.98-2.32-68.81,4.54c-0.99-3.31-1.55-6.81-1.6-10.45
						c11.35-2.63,42.06-8.59,70.83-3.87C315.392,87.83,315.442,88.91,315.442,90z"/>
					<path style="fill:#FFEDC3;" d="M275.312,37.2c0,2.13-0.52,4.14-1.45,5.91c-2.19-0.35-3.49-0.52-3.49-0.52
						c-5.89-0.06-11.98,0.9-17.97,2.47c-1.69-2.16-2.7-4.89-2.7-7.86c0-7.08,5.73-13.18,12.8-13.18
						C269.572,24.02,275.312,30.12,275.312,37.2z"/>
					
						<path style="fill:none;stroke:#0B1011;stroke-width:1.9797;stroke-linecap:round;stroke-linejoin:round;stroke-miterlimit:10;" d="
						M275.312,37.2c0,2.13-0.52,4.14-1.45,5.91c-2.19-0.35-3.49-0.52-3.49-0.52c-5.89-0.06-11.98,0.9-17.97,2.47
						c-1.69-2.16-2.7-4.89-2.7-7.86c0-7.08,5.73-13.18,12.8-13.18C269.572,24.02,275.312,30.12,275.312,37.2z"/>
					<path style="fill:#F7BE27;" d="M171.151,164.195c0,0-14.634,40.098-10.098,44.927c4.537,4.829,13.464,7.171,19.61,6.293
						c6.146-0.878,12.146-1.756,12.146-1.756s7.903-15.512,4.39-30.439C197.2,183.219,183.151,181.463,171.151,164.195z"/>
					
						<path style="fill:none;stroke:#0B1011;stroke-width:1.9797;stroke-linecap:round;stroke-linejoin:round;stroke-miterlimit:10;" d="
						M171.151,164.195c0,0-14.634,40.098-10.098,44.927c4.537,4.829,13.464,7.171,19.61,6.293
						c6.146-0.878,12.146-1.756,12.146-1.756s7.903-15.512,4.39-30.439C197.2,183.219,183.151,181.463,171.151,164.195z"/>
					<g>
						<path style="fill:#0B1011;" d="M173.909,172.497c-2.183,6.61-3.876,13.378-5.045,20.234
							c-0.592,3.427-1.039,6.877-1.367,10.337l-0.221,2.597c-0.068,0.869-0.14,1.718-0.015,2.5c0.199,1.584,1.591,2.637,3.023,3.571
							c0.231,0.151,0.297,0.461,0.146,0.692c-0.151,0.231-0.461,0.297-0.692,0.146c-0.003-0.002-0.01-0.007-0.013-0.009
							c-0.721-0.496-1.471-1.012-2.119-1.7c-0.652-0.668-1.153-1.602-1.273-2.556c-0.137-0.948-0.038-1.853,0.037-2.717l0.253-2.611
							c0.371-3.478,0.86-6.943,1.496-10.381c1.255-6.879,3.036-13.658,5.303-20.267c0.046-0.135,0.193-0.206,0.327-0.16
							C173.882,172.218,173.953,172.363,173.909,172.497z"/>
					</g>
					<g>
						<path style="fill:#0B1011;" d="M208.416,67.675c-0.221,0.905-0.796,1.61-1.287,2.278c-0.512,0.662-0.901,1.357-1.15,2.138
							c-0.507,1.554-0.546,3.242-0.592,4.92c-0.097,3.362-0.03,6.728,0.2,10.082c0.447,6.709,1.549,13.368,3.252,19.863
							c0.071,0.267-0.088,0.541-0.355,0.611c-0.267,0.071-0.541-0.088-0.612-0.355c0-0.001-0.002-0.006-0.002-0.007
							c-1.641-6.577-2.671-13.304-3.04-20.066c-0.191-3.38-0.218-6.769-0.08-10.15c0.068-1.679,0.12-3.418,0.682-5.082
							c0.271-0.827,0.73-1.617,1.259-2.282c0.511-0.672,1.034-1.32,1.224-2.074c0.034-0.138,0.174-0.222,0.312-0.188
							C208.366,67.399,208.449,67.538,208.416,67.675z"/>
					</g>
					<g>
						<path style="fill:#0B1011;" d="M269.202,44.311c2.029,1.601,3.654,3.739,4.66,6.165c0.106,0.255-0.014,0.548-0.269,0.654
							s-0.548-0.014-0.654-0.269c-0.004-0.009-0.008-0.021-0.012-0.031c-0.793-2.322-2.2-4.458-4.056-6.125
							c-0.106-0.095-0.115-0.258-0.02-0.364C268.942,44.239,269.096,44.228,269.202,44.311z"/>
					</g>
				</g>
				<g>
					<path style="fill:#0B1011;" d="M282.346,242.316l0.009,0.062c0.017,0.115,0.008,0.296-0.062,0.44
						c-0.091,0.174-0.102,0.162-0.127,0.206l-0.149,0.215l-0.294,0.435l-0.579,0.879c-0.386,0.587-0.751,1.188-1.121,1.785
						c-0.725,1.204-1.436,2.418-2.104,3.656c-1.346,2.47-2.585,4.999-3.704,7.579c-1.105,2.587-2.081,5.225-2.934,7.902
						c-0.376,1.353-0.809,2.691-1.108,4.063c-0.345,1.349-0.613,2.761-1.036,4.133c-0.812,2.745-1.978,5.396-3.533,7.813
						c-1.548,2.415-3.497,4.614-5.89,6.264c-2.368,1.652-5.265,2.705-8.221,2.576c-2.964-0.102-5.741-1.415-8.004-3.198
						c-2.233-1.835-4.138-4.059-5.541-6.578c-1.418-2.504-2.447-5.204-3.163-7.968c-1.436-5.536-1.881-11.262-1.788-16.939
						c0.107-5.682,0.699-11.352,1.901-16.919c0.31-1.391,0.656-2.774,1.115-4.143c0.457-1.384,1.113-2.68,1.881-3.914
						c1.572-2.437,3.736-4.572,6.632-5.582c0.205-0.072,0.427,0.018,0.529,0.201l0.025,0.044c0.826,1.484,1.92,2.902,3.074,4.204
						c1.166,1.305,2.44,2.521,3.825,3.594c2.74,2.187,5.861,3.89,9.182,5.02c3.302,1.162,6.843,1.642,10.338,2.321
						c1.75,0.316,3.501,0.623,5.254,0.906l2.63,0.397l1.313,0.167l0.731,0.084C281.756,242.064,282.089,242.196,282.346,242.316z
						 M281.58,242.743l-0.063,0.032c-0.179,0.091-0.254,0.206-0.338,0.215c-0.019,0.011-0.148-0.01-0.261-0.021l-0.336-0.039
						l-1.336-0.171l-2.651-0.403c-1.762-0.286-3.518-0.595-5.272-0.913l-5.255-0.989l-2.635-0.595
						c-0.877-0.209-1.728-0.526-2.592-0.784c-3.421-1.167-6.64-2.927-9.465-5.185c-1.428-1.109-2.741-2.363-3.944-3.713
						c-1.2-1.362-2.302-2.777-3.209-4.408l0.554,0.246c-1.204,0.4-2.418,1.161-3.426,2.05c-1.025,0.898-1.911,1.957-2.646,3.114
						c-0.724,1.161-1.356,2.405-1.785,3.707c-0.442,1.312-0.785,2.673-1.09,4.04c-1.189,5.484-1.783,11.112-1.893,16.729
						c-0.097,5.614,0.343,11.267,1.744,16.687c0.699,2.706,1.7,5.333,3.067,7.75c1.344,2.425,3.182,4.566,5.311,6.32
						c2.154,1.696,4.74,2.911,7.473,3.007c2.726,0.121,5.425-0.846,7.675-2.412c2.27-1.562,4.151-3.672,5.649-6.007
						c1.506-2.336,2.643-4.912,3.435-7.582c0.412-1.33,0.672-2.701,1.028-4.09c0.305-1.391,0.743-2.745,1.125-4.115
						c0.865-2.709,1.854-5.375,2.972-7.987c1.133-2.605,2.384-5.156,3.745-7.648c0.675-1.249,1.394-2.474,2.128-3.69
						c0.375-0.603,0.745-1.21,1.136-1.804l0.587-0.891l0.3-0.442l0.153-0.22c0.025-0.028,0.065-0.114,0.025-0.011
						C281.471,242.592,281.513,242.699,281.58,242.743z"/>
				</g>
				<g>
					<path style="fill:#0B1011;" d="M255.023,240.934c-1.163,2.573-2.243,5.179-3.083,7.861c-0.842,2.679-1.429,5.437-1.667,8.233
						c-0.505,5.623-0.185,11.288,0.17,16.943c0.009,0.142-0.099,0.264-0.241,0.273c-0.141,0.009-0.262-0.098-0.273-0.238
						c-0.436-5.647-0.842-11.343-0.413-17.039c0.202-2.859,0.764-5.689,1.583-8.43c0.817-2.744,1.876-5.401,3.01-8.01
						c0.11-0.253,0.405-0.369,0.658-0.259c0.253,0.11,0.369,0.405,0.259,0.658C255.025,240.929,255.023,240.933,255.023,240.934z"/>
				</g>
				<path style="fill:#0B1011;" d="M281.968,242.561l-2.195,3.073c0,0-14.927-1.976-27.659-11.415
					C252.114,234.219,267.48,242.671,281.968,242.561z"/>
				<g>
					<path style="fill:none;stroke:#0B1011;stroke-width:2;stroke-linecap:round;stroke-linejoin:round;stroke-miterlimit:10;" d="
						M311.785,400.976c-22.024-8.238-42.525-20.712-62.415-33.256c-7.368-4.647-14.687-9.455-21.123-15.326
						c-5.203-4.747-9.775-10.14-14.189-15.628c-10.81-13.44-21.131-28.464-22.712-45.64c1.634-0.519,3.514-0.184,4.869,0.868"/>
					<path style="fill:#F7BE27;" d="M315.482,396.15h-5.2c-10.44,0-18.91,8.46-18.91,18.91v30.07c0,10.45,8.47,18.92,18.91,18.92
						h5.2c10.44,0,18.91-8.47,18.91-18.92v-30.07C334.392,404.61,325.922,396.15,315.482,396.15z M312.302,408.15
						c-2.79,0-5.05-2.17-5.05-4.83c0-2.67,2.26-4.83,5.05-4.83c2.78,0,5.04,2.16,5.04,4.83
						C317.342,405.98,315.082,408.15,312.302,408.15z"/>
					<path style="fill:none;stroke:#0B1011;stroke-width:2;stroke-linecap:round;stroke-linejoin:round;stroke-miterlimit:10;" d="
						M315.482,396.15h-5.2c-10.44,0-18.91,8.46-18.91,18.91v30.07c0,10.45,8.47,18.92,18.91,18.92h5.2
						c10.44,0,18.91-8.47,18.91-18.92v-30.07C334.392,404.61,325.922,396.15,315.482,396.15z M312.302,408.15
						c-2.79,0-5.05-2.17-5.05-4.83c0-2.67,2.26-4.83,5.05-4.83c2.78,0,5.04,2.16,5.04,4.83
						C317.342,405.98,315.082,408.15,312.302,408.15z"/>
					<path style="fill:none;stroke:#0B1011;stroke-width:2;stroke-linecap:round;stroke-linejoin:round;stroke-miterlimit:10;" d="
						M311.911,400.985c6.502-14.608,10.633-30.267,12.183-46.181c0.568-5.825,0.79-11.724-0.07-17.513
						c-1.579-10.628-6.704-20.358-11.895-29.765"/>
					<g>
						<g>
							<path style="fill:#C6B695;" d="M325.505,436.235v3.192l1.464,0.564v2.88l-8.4-3.672v-2.784l8.4-3.672v2.928L325.505,436.235z
								 M323.465,437.016l-2.112,0.816l2.112,0.816V437.016z"/>
							<path style="fill:#C6B695;" d="M323.789,426.552v1.98h1.92v2.16h-1.92v1.98h-2.04v-1.98h-1.92v-2.16h1.92v-1.98H323.789z"/>
						</g>
						<g>
							<path style="fill:#C6B695;" d="M312.136,445.312v5.17l2.37,0.913v4.664l-13.602-5.946v-4.509l13.602-5.946v4.741
								L312.136,445.312z M308.832,446.575l-3.421,1.321l3.421,1.321V446.575z"/>
							<path style="fill:#C6B695;" d="M301.526,429.087c0.415-0.933,1.01-1.652,1.788-2.157c0.777-0.505,1.684-0.758,2.721-0.758
								s1.943,0.253,2.721,0.758c0.777,0.505,1.373,1.224,1.787,2.157c0.415,0.932,0.622,2.027,0.622,3.284v1.962h3.342v4.586
								h-13.602v-6.549C300.904,431.114,301.111,430.019,301.526,429.087z M307.21,431.263c-0.278-0.311-0.671-0.466-1.176-0.466
								c-0.505,0-0.897,0.156-1.176,0.466c-0.278,0.311-0.417,0.777-0.417,1.4v1.671h3.186v-1.671
								C307.627,432.04,307.488,431.573,307.21,431.263z"/>
							<path style="fill:#C6B695;" d="M311.047,413.365h3.459v11.309h-13.602v-11.057h3.458v6.549h1.594v-5.752h3.303v5.752h1.788
								V413.365z"/>
						</g>
					</g>
				</g>
			</g>
		</g>
	</g>
</g>
</svg>
