<?xml version="1.0" encoding="utf-8"?>
<!-- Generator: Adobe Illustrator 27.5.0, SVG Export Plug-In . SVG Version: 6.00 Build 0)  -->
<svg version="1.1" xmlns="http://www.w3.org/2000/svg" xmlns:xlink="http://www.w3.org/1999/xlink" x="0px" y="0px"
	 viewBox="0 0 500 500" style="enable-background:new 0 0 500 500;" xml:space="preserve">
<g id="BACKGROUND">
	<rect style="fill:#5DC9F9;" width="500" height="500"/>
</g>
<g id="OBJECTS">
	<g>
		<defs>
			<rect id="SVGID_1_" width="500" height="500"/>
		</defs>
		<clipPath id="SVGID_00000058564496483841898910000012415935963852138682_">
			<use xlink:href="#SVGID_1_"  style="overflow:visible;"/>
		</clipPath>
		<g style="clip-path:url(#SVGID_00000058564496483841898910000012415935963852138682_);">
			<g>
				<g>
					<path style="fill:#477344;" d="M180.324,148.435c-11.451-0.136-20.836-2.675-24.14-5.863c-3.304-3.188-4.216-6.802-4.216-9.274
						s3.558-3.53,7.387-4.965c3.829-1.434,18.295-3.567,18.295-3.567s5.155-23.502,6.798-26.851
						c1.643-3.349,7.266-11.512,12.34-13.837c5.074-2.326,10.222-3.081,17.607-4.642c7.385-1.561,20.611-2.137,25.045-2.137
						c4.434,0,15.35,2.335,21.123,3.441c5.773,1.107,10.568,3.211,13.667,5.182c3.098,1.971,8.874,4.119,11.313,8.362
						c2.439,4.244,7.081,18.876,8.158,22.701c1.076,3.825,4.438,16.314,4.438,16.314s7.986,3.887,10.823,5.648
						c2.837,1.761,7.367,5.354,7.492,6.785c0.125,1.431-1.036,6.715-1.036,6.715l-22.071,11L180.324,148.435z"/>
					<path style="fill:#305B2D;" d="M177.024,148.327c-5.412-3.022-11.412-9.544-2.477-12.609c8.935-3.065,23.576-4.63,33.408-4.63
						c9.832,0,44.071,2.576,61.092,6.098c17.022,3.522,26.413,5.38,30.815,8.022c4.402,2.641,6.359,8.054,6.359,8.054l-9.862,7.626
						L177.024,148.327z"/>
					<path style="fill:#305B2D;" d="M178.387,124.174l1.679-10.024c42.677,7.677,88.262,2.786,92.371-1.323
						c4.109-4.109,8.088-22.174,8.088-22.174c9.261,6,12.252,23.066,12.964,25.604c0.713,2.539,4.514,15.874,4.514,15.874
						s-4.696,0.13-8.478-1.826c-3.783-1.957-25.314-4.937-28.505-5.142c-3.191-0.206-36.191-2.216-40.886-2.189
						c-4.696,0.027-31.174,0.727-33.913,0.964C183.481,124.174,178.387,124.174,178.387,124.174z"/>
					<path style="fill:#428C4E;" d="M191.318,95.87c4.048-12.185,28.697-16.304,48.126-14.087C258.873,84,253.134,90,253.134,95.87
						C253.134,101.739,188.199,105.261,191.318,95.87z"/>
				</g>
				<path style="fill:#FF8D2A;" d="M290.236,296.641c6.723,4.924,26.549,24.921,28.506,28.749c1.957,3.828,0,34.611,0,34.611
					s32.107,21.565,40.665,33.793c15.422,22.034,18.477,43.551,21.971,55.032c3.494,11.48,6.816,53.774,6.816,53.774l-260.089,5.504
					c0,0-2.886-4.624-4.733-15.45c-1.847-10.826,1.093-34.712,1.093-34.712s4.523-39.828,6.011-45.166
					c1.488-5.338,4.409-13.45,6.987-16.028c2.578-2.578,11.877-11.877,12.934-12.934c1.057-1.057-0.219-3.216,2.155-5.938
					c2.374-2.722,21.808-17.54,21.808-18.555s14.337-10.633,14.337-10.633s6.883-12.928,9.622-17.911
					c2.739-4.982,12.757-15.046,14.609-16.898c1.852-1.852,17.855-12.439,20.183-14.083
					C235.438,298.152,290.236,296.641,290.236,296.641z"/>
				<path style="fill:#9B5B2F;" d="M180.432,155.489c-0.408-6.456,2.761-17.613,2.761-17.613s13.747-3.029,40.066-1.911
					s51.984,4.338,72.021,12.866v12.678c4.874-6.598,12.611-9.041,19.744-10.32c7.133-1.279,15.034-1.54,18.571,4.809
					c3.537,6.35,7.165,14.832,8.432,24.945c1.268,10.113-2.449,21.638-5.091,26.846c-2.641,5.208-11.368,10.417-13.686,11.13
					s-12.128,2.115-16.153,1.88c-4.025-0.235-8.932-0.594-8.932-0.594c2.315,7.225,2.612,24.012,2.612,25.545
					c0,1.532-0.833,13.242-2.292,15.453c-1.46,2.211-5.049,3.515-5.049,3.515l-1.127-0.363l-4.595,9.44l-1.173,1.365l4.933,37.981
					l0.208,3.072l-6.677,3.785c0,0,7.82,19.611,7.553,26.492c-25.731,10.154-57.036,145.053-57.036,145.053
					s-4.435-93.587-24.539-138.199c1.274-2.253,7.265-2.892,9.05-5.022c1.785-2.13,9.929-11.559,9.929-11.559
					s4.253-5.404,4.523-9.093s0.319-15.101,0.319-15.101l-0.141-16.071l-49.23-73.891c0,0-8.035-3.305-12.177-4.546
					c-4.142-1.242-14.405-6.845-20.972-15.259s-5.506-25.106-5.506-25.106s2.07-14.408,10.287-19.755
					c8.217-5.347,12.519-6.548,15.191-5.926C174.931,152.636,180.432,155.489,180.432,155.489z"/>
				<path style="fill:#7F4224;" d="M279.873,153.913c8.087,10.826,8.87,23.005,6.652,31.915
					c-2.217,8.911-19.315,13.476-27.592,15.432c-8.277,1.957-16.844,4.449-16.206,5.087c0.638,0.638,10.896,7.17,20.304,13.237
					c9.407,6.067,19.581,16.06,19.581,20.259s5.217,13.59-1.696,21.938c-6.913,8.348-14.269,23.348-14.269,23.348l8.535-7.917
					c0,0,2.805,8.799,3.301,8.303c0.496-0.496,7.78-9.125,7.78-9.125l1.452,14.946c0,0-21.625,10.88-25.952,12.576
					c-4.327,1.696-26.366,4.174-26.366,4.174s-2.035-11.59-0.732-11.59c1.303,0,10.739-0.528,13.038-1.708
					c2.298-1.18,7.774-4.203,7.774-4.203l-29.596-86.019L279.873,153.913z"/>
				<path style="fill:#E8BE91;" d="M179.566,166.63c-2.411-3.326-4.302-7.183-10.563-5.744c-6.261,1.439-11.022,6.918-12.522,11.678
					s-3.652,12.911-1.891,16.662c1.761,3.751,4.565,11.121,7.109,13.664c2.543,2.544,8.625,9.081,10.508,10.508
					c1.883,1.427,11.096,5.805,11.096,5.805l1.812,0.595l1.106-14.951l-2.918,2.087c0,0-0.539-4.304-0.539-7.044
					c0-2.739,2.35-13.37,2.35-13.37L179.566,166.63z"/>
				<path style="fill:#F7E7D5;" d="M242.047,151.565c-9.652,1.304-15.522,2.609-24.652,1.044c-9.13-1.565-16.304-5.61-22.696-2.479
					c-6.391,3.131-11.794,8.218-12.94,12.457c-1.147,4.239-2.321,8.632-1.147,12.957c1.174,4.325,7.143,13.943,7.942,14.742
					c0.799,0.799,6.927,6.004,6.927,6.004s5.473-5.24,9.519-6.004c4.046-0.764,13.307-0.54,15.524,0
					c2.217,0.54,7.346,2.223,9.237,4.114c1.891,1.891,6.676,6.861,6.676,6.861s-0.652-0.13,3.652-1.826
					c4.304-1.696,8.189-2.004,15.638-3.937c7.449-1.933,17.383-5.473,21.09-7.942c3.707-2.469,7.561-4.775,7.561-9.526
					c0-4.751-0.37-11.575-0.37-14.585c0-3.01-2.244-7.641-4.135-9.532c-1.891-1.891-2.702-4.402-6.112-4.94
					c-3.41-0.538-5.627-0.538-11.236-0.538C256.916,148.435,242.047,151.565,242.047,151.565z"/>
				<path style="fill:#E0CEBD;" d="M187.264,170.87c5.804-0.978,24.587-2.304,27.326-1.152c2.739,1.152,7.282,0.391,6.413,6.413
					c-0.869,6.022-4.326,11.695-7.783,12.152c-3.456,0.457-16.109,4.044-20.152,0c-4.043-4.043-6.522-7.07-6.848-10.252
					C185.894,174.848,187.264,170.87,187.264,170.87z"/>
				<path style="fill:#E0CEBD;" d="M233.753,171.059c5.804-0.978,24.587-2.304,27.326-1.152c2.739,1.152,7.282,0.391,6.413,6.413
					c-0.869,6.022-4.326,11.695-7.782,12.152c-3.456,0.457-16.109,4.043-20.152,0c-4.044-4.043-6.522-7.07-6.848-10.252
					C232.383,175.037,233.753,171.059,233.753,171.059z"/>
				<path style="fill:#2A85BC;" d="M191.359,173.514c5.753-2.253,8.71-7.34,8.71-7.34c3.76,5.478,8.651,7.712,8.651,7.712
					c-4.565,9.179-6.196,20.514-6.196,20.514C193.264,186.587,191.359,173.514,191.359,173.514z"/>
				<path style="fill:#2A85BC;" d="M240.006,172.597c5.753-2.352,8.711-7.662,8.711-7.662c3.76,5.719,8.651,8.051,8.651,8.051
					c-4.565,9.582-6.196,21.414-6.196,21.414C241.911,186.244,240.006,172.597,240.006,172.597z"/>
				<path style="fill:#FFF6EB;" d="M202.492,174.878l10.337-0.871c0,0-1.696,5.993-3.033,7.33c-1.337,1.337-7.109,4.368-9.098,4.368
					c-1.989,0-4.525,0.458-5.719-0.389c-1.194-0.848-3.705-2.217-3.346-3.098C191.992,181.337,202.492,174.878,202.492,174.878z"/>
				<path style="fill:#FFF6EB;" d="M247.525,174.725l16.433-1.82c0,0-1.696,6.972-3.033,8.309c-1.337,1.337-7.109,4.368-9.098,4.368
					c-1.989,0-4.524,0.458-5.719-0.389c-1.194-0.848-7.007-2.739-6.649-3.62C239.818,180.693,247.525,174.725,247.525,174.725z"/>
				<path style="fill:#F7E7D5;" d="M277.79,251.93c-0.46,2.81-6.92,17.16-7.87,18.92c-0.95,1.76-10.27,13.37-12.74,16.76
					c-2.48,3.39-10.18,7.63-12.39,8.06c-2.22,0.43-10.38,0.53-15.14,0.97c-4.75,0.44-22.95,1.66-22.95,1.66s-5.48-0.97-7.96-1.66
					c-2.48-0.68-7.37-4.66-10.76-8.06c-3.4-3.39-9.98-12.29-11.35-14.21c-1.37-1.92-5.5-13.57-6.58-16.3
					c-0.62-1.55-0.97-6.59-1.15-10.92c-0.16-3.3-0.2-6.18-0.2-6.78c0-1.4,5.72-8.06,7.48-9.81c1.75-1.76,14.41-11.49,29.67-16.39
					c0,0,33.61-2.84,33.66-2.9c0.17,0,4.81,2.41,9.91,4.99c0.66,0.33,1.48,0.82,2.41,1.41c6.41,4.08,18.16,13.28,18.16,13.28
					s7.99,9.57,8.36,10.47C278.72,242.32,278.24,249.13,277.79,251.93z"/>
				<path style="fill:#E0CEBD;" d="M277.79,251.93c-0.46,2.81-6.92,17.16-7.87,18.92c-0.95,1.76-10.27,13.37-12.74,16.76
					c-2.48,3.39-10.18,7.63-12.39,8.06c-2.22,0.43-10.38,0.53-15.14,0.97c-4.75,0.44-22.95,1.66-22.95,1.66s-5.48-0.97-7.96-1.66
					c-2.48-0.68-7.37-4.66-10.76-8.06c-3.4-3.39-9.98-12.29-11.35-14.21c-1.37-1.92-5.5-13.57-6.58-16.3
					c-0.62-1.55-0.97-6.59-1.15-10.92c1.86,4.4,4.75,9.63,8.97,13.2c8.62,7.27,50.28-1.96,67.24-5.56
					c16.84-3.59,13.03-25.83,6.72-37.12c6.41,4.08,18.16,13.28,18.16,13.28s7.99,9.57,8.36,10.47
					C278.72,242.32,278.24,249.13,277.79,251.93z"/>
				<path style="fill:#B72039;" d="M220.525,190.286c-11.237-1.542-18.892,0.293-20.989,2.699
					c-2.098,2.406-9.38,10.552-8.217,18.284s5.459,15.216,9.767,16.626c4.309,1.41,12.817,3.527,18.541,1.621
					c5.724-1.907,15.284-3.666,17.678-9.83c2.394-6.164,4.695-7.401,0.675-15.652C233.96,195.783,227.047,191.181,220.525,190.286z"
					/>
				<path style="fill:#DD3348;" d="M217.303,193.528c-7.604-0.863-12.784,0.164-14.204,1.512c-1.419,1.348-6.348,5.91-5.561,10.24
					c0.787,4.33,3.694,8.522,6.61,9.312c2.916,0.789,8.673,1.975,12.547,0.908c3.874-1.068,10.343-2.053,11.963-5.505
					c1.62-3.452,3.177-4.145,0.456-8.766C226.394,196.607,221.716,194.029,217.303,193.528z"/>
				<path style="fill:#B72039;" d="M214.025,255.603c-6.283,1.615-22.718,6.571-26.5,8.397c-3.783,1.826-9.302,3.733-9.302,5.584
					c0,1.851-3.354,2.242-1.592,4.786c1.763,2.543,6.169,11.149,9.575,10.172c3.406-0.977,12.797-4.629,15.797-4.629
					s9.747-1.696,13.678,0c3.931,1.696,13.583,5.87,17.366,7.174c3.783,1.304,5.739,1.826,9.391,1.826
					c3.652,0,9.081-1.829,12.83-2.781c3.749-0.951,7.355-4.837,7.355-7.354s-2.379-5.697-4.499-9.194
					c-2.12-3.497-10.207-9.106-15.033-10.932c-4.826-1.826-10.956-2.87-14.609-2.87S214.025,255.603,214.025,255.603z"/>
				<path style="fill:#B72039;" d="M207.71,161.152c-2.544-1.859-2.585-4.696-6.624-3.766c-4.039,0.929-11.205,6.823-12.305,7.924
					c-1.101,1.1-5.82,3.815-3.301,3.815c2.519,0,7.899-2.054,7.899-2.054s4.5-3.571,5.967-3.962c1.467-0.391,2.544-0.391,3.815,0
					c1.272,0.391,2.788,0.44,3.228,0c0.44-0.44,1.565-1.125,1.565-1.125L207.71,161.152z"/>
				<path style="fill:#B72039;" d="M249.233,160.63c1.194,0.62,1.487,0.62,3.248,0c1.761-0.62,4.141-0.359,6.163,0.457
					c2.022,0.815,5.054,2.315,6.717,3c1.663,0.685,4.957,2.478,5.804,2.804c0.848,0.326,2.87-0.522-1.109-3.391
					c-3.978-2.87-9.003-5.772-10.094-6.391c-1.091-0.62-1.433-2.081-3.961-1.635c-2.527,0.445-3.897,1.065-4.924,2.092
					c-1.027,1.027-2.543,2.054-2.38,2.478C248.862,160.467,249.233,160.63,249.233,160.63z"/>
				<path style="fill:#232323;" d="M248.149,174.771c2.248,0.497-1.7,3.86-3.07,4.708c-1.369,0.848-6,3.163-7.369,1.272
					c-1.37-1.891-3.216-5.872-3.216-5.872S247.665,174.664,248.149,174.771z"/>
				<path style="fill:#232323;" d="M187.704,174.212c0.342,3.033,2.054,7.043,3.864,7.63c1.81,0.587,7.631-2.054,8.756-3.424
					c1.125-1.37,1.932-3.146,1.932-3.146L187.704,174.212z"/>
				<path style="fill:#E8BE91;" d="M296.735,177.685c2.833-8.217,10.17-14.087,14.279-15.456c4.109-1.37,9.489-3.228,12.13-1.957
					c2.641,1.272,6.46,4.815,8.434,6.79c1.975,1.975,5.359,12.678,5.359,16.493c0,3.815-1.272,11.543-2.054,14.38
					c-0.783,2.837-8.804,11.958-8.804,11.958s-9.978,6.629-12.326,7.216c-2.348,0.587-12.228,1.37-12.228,1.37
					s-3.824-0.22-3.898-0.294c-0.074-0.074-5.005-14.772-5.005-14.772s4.448-3.568,4.963-4.963
					c0.515-1.395,0.041-9.613,0.041-10.591S296.735,177.685,296.735,177.685z"/>
				<path style="fill:#B72039;" d="M319.674,356.644c8.217,3.948,27.503,16.323,29.451,17.936c1.948,1.614,9.485,7.97,10.283,8.767
					c0.798,0.798-5.167,1.714-5.167,1.714s-10.262,4.217-14.663,20.817c-4.401,16.6-8.314,43.078-8.314,43.078l-2.947,52.057
					l-75.383,0.638c0,0-0.191-16.826,1.765-26.478c1.956-9.652,10.826-47.478,10.826-47.478l10.957-33c0,0,6.13-16.826,9.261-21.652
					c3.13-4.826,4.494-4.257,4.494-4.257s13.245,15.866,16.506,23.953c3.261,8.087,7.304,13.304,7.304,13.304
					s3.913-14.478,3.652-18.261S319.674,356.644,319.674,356.644z"/>
				<path style="fill:#B72039;" d="M198.654,350.476c6.469,6.469,12.792,41.276,13.614,44.345
					c0.822,3.069,7.083,36.917,7.083,38.874c0,1.956,5.283,41.674,5.283,41.674l1.234,27.229l-81.647-0.946l-2.152-31.174
					l-0.253-23.674l3.97-35.413l4.611-27.579c0,0,2.072-6.228,4.178-8.334c2.106-2.106,20.706-15.984,21.929-17.745
					c1.223-1.761,10.537-8.691,10.757-8.869c0.22-0.178,0.542,0.358,0.542,0.358s-5.283,22.549-5.283,26.56s0.147,4.842,0.489,4.011
					c0.342-0.831,7.141-15.799,7.141-15.799s6.311-13.101,6.729-13.518C197.296,350.059,198.654,350.476,198.654,350.476z"/>
				<path style="fill:#910F2B;" d="M352.824,385.909c2.961-1.583,5.438-1.844,6.237-1.044c0.799,0.799,1.948,5.45,2.758,7.776
					c0.81,2.326,1.206,6.164,1.206,6.164L352.824,385.909z"/>
				<path style="fill:#C66C22;" d="M292.655,313.304c7.109,5.283,10.239,10.5,10.5,15.196s-2.478,10.826-4.043,12
					s-6.814,6.711-7.026,6.193c-0.213-0.519-7.403-27.519-7.403-27.519l7.712-2.935L292.655,313.304z"/>
				<path style="fill:#C66C22;" d="M233.829,309.946c-18,8.609-28.859,37.859-28.859,37.859l6.395,6.395c0,0,5.681-2.375,8.67-5.878
					c2.989-3.503,12.747-15.869,12.747-15.869s2.221-6.855,2.221-9.105s0-13.402,0-13.402H233.829z"/>
				<path style="fill:#910F2B;" d="M314.047,407.87c-0.913-0.913-22.304-19.435-29.478-19.435c-7.174,0-6.124,2.1-6.124,1.05
					s11.792-20.698,11.792-20.698s5.158,2.04,9.332,9.344C303.742,385.435,314.047,407.87,314.047,407.87z"/>
				<path style="fill:#910F2B;" d="M182.724,382.636c6.105-6.853,23.127-8.614,23.127-8.614s-4.454-20.547-6.127-22.221
					c-1.674-1.674-3.59-1.881-3.59-0.931c0,0.949-7.565,18.522-7.565,18.522L182.724,382.636z"/>
				<path style="fill:#910F2B;" d="M352.824,385.909c-17.06,9.634-25.082,42.7-28.995,74.787
					c-3.913,32.087-1.761,40.956-1.761,40.956l6.248-0.638c0,0,0.208-33.666,1.578-45.014c1.37-11.348,5.714-29.898,5.326-30.287
					c-0.388-0.388,6.74-25.409,9.283-29.974C347.047,391.174,352.824,385.909,352.824,385.909z"/>
				<path style="fill:#910F2B;" d="M145.526,413.71c0,17.247,2.412,73.79,7.303,91.203c0,0-7.172,1.149-7.303-0.208
					s-3.71-33.248-3.71-42.64c0-9.391,1.13-25.337,1.13-25.337L145.526,413.71z"/>
				<path style="fill:#DD3348;" d="M170.829,478.696c0,2.809-2.278,5.087-5.087,5.087c-2.809,0-5.087-2.277-5.087-5.087
					c0-2.81,2.277-5.087,5.087-5.087C168.552,473.609,170.829,475.886,170.829,478.696z"/>
				<path style="fill:#DD3348;" d="M194.016,436.186c0,2.809-2.277,5.087-5.087,5.087c-2.809,0-5.087-2.277-5.087-5.087
					c0-2.81,2.277-5.087,5.087-5.087C191.738,431.099,194.016,433.377,194.016,436.186z"/>
				<path style="fill:#DD3348;" d="M194.016,395.491c0,2.81-2.277,5.087-5.087,5.087c-2.809,0-5.087-2.277-5.087-5.087
					c0-2.809,2.277-5.087,5.087-5.087C191.738,390.404,194.016,392.681,194.016,395.491z"/>
				<path style="fill:#DD3348;" d="M194.016,489.706c0,2.809-2.277,5.087-5.087,5.087c-2.809,0-5.087-2.277-5.087-5.087
					c0-2.81,2.277-5.087,5.087-5.087C191.738,484.619,194.016,486.896,194.016,489.706z"/>
				<path style="fill:#DD3348;" d="M207.966,459.539c0,2.809-2.278,5.087-5.087,5.087c-2.81,0-5.087-2.277-5.087-5.087
					c0-2.81,2.277-5.087,5.087-5.087C205.688,454.452,207.966,456.729,207.966,459.539z"/>
				<path style="fill:#DD3348;" d="M306.205,448.582c0,2.809-2.277,5.087-5.087,5.087c-2.809,0-5.087-2.278-5.087-5.087
					c0-2.81,2.278-5.087,5.087-5.087C303.927,443.495,306.205,445.772,306.205,448.582z"/>
				<path style="fill:#DD3348;" d="M278.76,453.669c0,2.809-2.278,5.087-5.087,5.087c-2.809,0-5.087-2.277-5.087-5.087
					c0-2.809,2.278-5.087,5.087-5.087C276.482,448.582,278.76,450.859,278.76,453.669z"/>
				<circle style="fill:#DD3348;" cx="171.873" cy="446.36" r="5.087"/>
				<path style="fill:#DD3348;" d="M165.742,416.099c0,2.81-2.277,5.087-5.087,5.087c-2.809,0-5.087-2.277-5.087-5.087
					c0-2.809,2.278-5.087,5.087-5.087C163.465,411.013,165.742,413.29,165.742,416.099z"/>
				<path style="fill:#DD3348;" d="M207.966,416.099c0,2.81-2.278,5.087-5.087,5.087c-2.81,0-5.087-2.277-5.087-5.087
					c0-2.809,2.277-5.087,5.087-5.087C205.688,411.013,207.966,413.29,207.966,416.099z"/>
				<path style="fill:#DD3348;" d="M325.353,421.186c0,2.809-2.277,5.087-5.087,5.087c-2.809,0-5.087-2.277-5.087-5.087
					c0-2.81,2.278-5.087,5.087-5.087C323.076,416.099,325.353,418.377,325.353,421.186z"/>
				<path style="fill:#DD3348;" d="M315.179,480.665c0,2.809-2.277,5.087-5.087,5.087c-2.809,0-5.087-2.277-5.087-5.087
					c0-2.809,2.277-5.087,5.087-5.087C312.902,475.578,315.179,477.855,315.179,480.665z"/>
				<path style="fill:#DD3348;" d="M293.471,419.817c0,2.81-2.277,5.087-5.087,5.087c-2.81,0-5.087-2.277-5.087-5.087
					c0-2.809,2.277-5.087,5.087-5.087C291.193,414.73,293.471,417.007,293.471,419.817z"/>
				<path style="fill:#DD3348;" d="M339.541,382.636c0,2.81-2.277,5.087-5.087,5.087c-2.81,0-5.087-2.277-5.087-5.087
					c0-2.809,2.277-5.087,5.087-5.087C337.263,377.549,339.541,379.826,339.541,382.636z"/>
				<path style="fill:#DD3348;" d="M299.768,403.12c0,2.81-2.277,5.087-5.087,5.087c-2.81,0-5.087-2.277-5.087-5.087
					c0-2.809,2.277-5.087,5.087-5.087C297.49,398.033,299.768,400.31,299.768,403.12z"/>
				<path style="fill:#DD3348;" d="M289.769,481.839c0,2.809-2.278,5.087-5.087,5.087c-2.809,0-5.087-2.277-5.087-5.087
					c0-2.809,2.277-5.087,5.087-5.087C287.492,476.752,289.769,479.029,289.769,481.839z"/>
				<path style="fill:#FF9D45;" d="M356.503,402.371c12.13,18.998,24.457,91.781,24.457,101.563c-2.348,0-32.478-1.337-32.478-1.337
					S336.547,404.113,356.503,402.371z"/>
				<path style="fill:#FF9D45;" d="M306.205,323.217c10.818,20.382-15.968,26.87-15.968,32.739c0,5.87,9.854,21.522,17.158,17.609
					c7.304-3.913,11.217-34.203,9.652-41.493C315.481,324.783,306.205,323.217,306.205,323.217z"/>
				<path style="fill:#C9915F;" d="M297.763,191.678c8.849-19.668,21.664-27.298,28.023-24.559c6.359,2.739,7.893,3.828,7.893,3.828
					s-7.588-8.85-9.969-9.969c-2.381-1.119-4.622-2.483-8.929-0.617c-4.307,1.866-11.336,6.385-12.54,8.234
					c-1.204,1.849-5.02,8.697-5.02,8.697L297.763,191.678z"/>
				<path style="fill:#C9915F;" d="M179.566,166.63c-2.476-3.913-6.681-6.196-10.107-5.457c-3.426,0.739-10.025,4.772-11.224,7.951
					c-1.199,3.179-2.913,8.548-3.27,8.905c-0.357,0.357,3.472-7.585,14.494-7.585c4.598,0,11.056,8.217,13.843,13.402
					c0,0-2.582-8.049-2.979-10.334C179.927,171.228,179.566,166.63,179.566,166.63z"/>
				<path style="fill:#7F4224;" d="M181.293,144.236c7.797-2.323,45.232-2.895,69.754,0c24.522,2.895,44.235,9.025,44.235,9.025
					s2.745-3.131-0.528-4.37c-3.272-1.239-31.185-8.673-44.359-10.108c-13.174-1.435-27.687-2.832-34.714-2.938
					c-7.026-0.106-17.811-1.111-20.701,0c-2.89,1.111-12.68,2.996-12.68,2.996L181.293,144.236z"/>
			</g>
			<g>
				<g>
					<path style="fill:#232323;" d="M222.232,191.215c-0.434-0.334-0.861-0.706-1.355-0.94c-0.558-0.265-1.113-0.519-1.697-0.722
						c-1.169-0.407-2.364-0.71-3.588-0.891c-2.466-0.363-4.934-0.302-7.382,0.162c-4.457,0.844-8.544,3.172-11.652,6.463
						c-3.218,3.408-5.288,7.757-5.892,12.406c-0.643,4.953-0.062,10.327,2.754,14.564c2.383,3.586,5.995,6.181,9.985,7.71
						c4.523,1.734,9.47,1.854,14.196,0.982c4.983-0.919,9.875-2.944,14.175-5.611c4.059-2.517,7.353-6.068,8.322-10.868
						c0.908-4.503-0.078-9.281-2.424-13.201c-2.399-4.008-6.057-7.125-10.083-9.422c-1.012-0.577-1.996-1.02-3.11-1.362
						c-0.906-0.278-1.3,1.004-0.578,1.471c1.81,1.17,3.737,2.136,5.498,3.392c1.723,1.229,3.311,2.676,4.682,4.289
						c2.734,3.216,4.401,7.287,4.402,11.531c0.001,4.344-1.931,8.146-5.29,10.866c-1.739,1.408-3.707,2.525-5.702,3.525
						c-2.134,1.07-4.353,1.973-6.639,2.666c-4.446,1.348-9.256,1.894-13.832,0.882c-3.832-0.847-7.455-2.734-10.195-5.564
						c-3.118-3.219-4.431-7.394-4.536-11.817c-0.108-4.575,1.069-9.026,3.661-12.813c2.271-3.317,5.561-5.973,9.303-7.445
						c4.272-1.681,9.083-1.856,13.511-0.694c0.543,0.142,1.089,0.282,1.625,0.45c0.532,0.166,1.08,0.25,1.622,0.388
						C222.227,191.667,222.425,191.363,222.232,191.215L222.232,191.215z"/>
				</g>
				<g>
					<path style="fill:#232323;" d="M185.456,173.217c1.69,1.04,3.798,1.462,5.733,1.792c2.073,0.353,4.181,0.572,6.281,0.692
						c4.152,0.238,8.314,0.074,12.434-0.488c1.164-0.159,2.324-0.346,3.478-0.563c1.146-0.215,2.476-0.351,3.551-0.808
						c-0.226-0.502-0.452-1.004-0.678-1.506c-0.34,0.216-0.613,0.354-0.798,0.735c-0.172,0.355,0.003,0.711,0.364,0.835
						c0.408,0.14,0.712,0.027,1.113-0.064c0.912-0.205,0.674-1.703-0.261-1.63c-0.999,0.078-2.001,0.42-2.984,0.62
						c-0.999,0.203-2.004,0.385-3.012,0.537c-2.015,0.306-4.044,0.517-6.079,0.636c-4.117,0.24-8.236,0.12-12.333-0.339
						c-2.219-0.248-4.554-0.731-6.787-0.537C185.431,173.133,185.416,173.192,185.456,173.217L185.456,173.217z"/>
				</g>
				<g>
					<path style="fill:#232323;" d="M188.267,174.096c0.118-0.215-0.052-0.426-0.259-0.505c-0.582-0.224-0.893,0.397-0.948,0.871
						c-0.172,1.487,0.419,3.018,1.111,4.301c0.711,1.316,1.639,2.525,2.603,3.665c0.954,1.128,2.05,2.168,3.35,2.888
						c5.031,2.789,11.809,0.519,15.625-3.332c1-1.009,1.864-2.187,2.476-3.471c0.306-0.641,0.56-1.315,0.739-2.002
						c0.19-0.725,0.431-1.595,0.125-2.303c-0.215-0.498-0.878-0.635-1.181-0.125c-0.287,0.483-0.298,0.978-0.408,1.52
						c-0.105,0.514-0.25,1.024-0.439,1.513c-0.358,0.93-0.875,1.824-1.487,2.608c-1.312,1.681-3.035,3.007-4.961,3.912
						c-2.093,0.984-4.562,1.497-6.869,1.185c-2.565-0.347-4.488-1.807-6.121-3.738c-0.903-1.068-1.767-2.214-2.425-3.45
						c-0.313-0.588-0.554-1.206-0.726-1.849c-0.092-0.344-0.149-0.686-0.177-1.041c-0.013-0.165-0.019-0.331-0.033-0.496
						c-0.003-0.058-0.006-0.116-0.009-0.174c-0.023-0.196-0.031-0.185-0.024,0.034C188.243,174.114,188.261,174.108,188.267,174.096
						L188.267,174.096z"/>
				</g>
				<g>
					<path style="fill:#232323;" d="M232.582,174.783c0.445,0.614,1.743,0.592,2.428,0.65c1.1,0.093,2.218,0.075,3.321,0.072
						c2.214-0.007,4.424-0.068,6.635-0.182c4.419-0.227,8.829-0.626,13.217-1.197c1.259-0.164,2.517-0.342,3.772-0.534
						c0.597-0.091,1.194-0.186,1.79-0.283c0.62-0.101,1.276-0.142,1.812-0.491c0.467-0.304,0.376-1.068-0.187-1.202
						c-0.984-0.234-2.225,0.187-3.211,0.341c-1.053,0.164-2.107,0.319-3.162,0.464c-2.192,0.3-4.39,0.558-6.592,0.772
						c-4.324,0.421-8.661,0.656-13.003,0.785c-1.229,0.036-2.458,0.054-3.686,0.09c-0.616,0.018-1.229,0.076-1.84,0.158
						c-0.444,0.06-0.987,0.075-1.281,0.447C232.57,174.704,232.558,174.749,232.582,174.783L232.582,174.783z"/>
				</g>
				<g>
					<path style="fill:#232323;" d="M234.44,175.08c-0.34,0.45-0.311,0.941-0.179,1.477c0.162,0.654,0.387,1.294,0.684,1.9
						c0.6,1.225,1.419,2.343,2.375,3.315c2.076,2.11,4.782,3.504,7.65,4.183c3.049,0.722,6.293,0.693,9.353,0.051
						c2.745-0.576,5.508-1.817,7.31-4.039c1.043-1.286,1.732-2.791,2.205-4.37c0.234-0.781,0.414-1.577,0.568-2.377
						c0.078-0.405,0.171-0.815,0.201-1.227c0.035-0.481-0.122-0.846-0.275-1.292c-0.082-0.238-0.452-0.391-0.63-0.15
						c-0.167,0.225-0.389,0.444-0.529,0.688c-0.163,0.284-0.212,0.659-0.269,0.975c-0.12,0.67-0.249,1.339-0.41,2.001
						c-0.315,1.298-0.746,2.569-1.437,3.718c-1.372,2.281-3.736,3.596-6.247,4.275c-5.158,1.395-11.434,0.76-15.617-2.779
						c-1.04-0.88-1.96-1.915-2.684-3.07c-0.356-0.568-0.687-1.169-0.97-1.777c-0.271-0.582-0.416-1.187-1.009-1.516
						C234.503,175.052,234.459,175.055,234.44,175.08L234.44,175.08z"/>
				</g>
				<g>
					<path style="fill:#232323;" d="M202.221,175.429c-0.018,0.017-0.035,0.034-0.053,0.051c-0.219-0.04-0.378,0.047-0.503,0.219
						c-1.228,1.698-2.543,3.17-4.405,4.197c-0.867,0.478-1.801,0.822-2.768,1.033c-0.497,0.109-1.002,0.171-1.511,0.194
						c-0.277,0.012-0.825,0.139-0.991-0.13c-0.395-0.639-1.521-0.364-1.455,0.433c0.124,1.513,2.043,1.362,3.114,1.225
						c1.32-0.169,2.577-0.556,3.77-1.146c2.203-1.09,4.352-3.064,5.077-5.479c0.043-0.144-0.009-0.338-0.126-0.435
						c-0.016-0.036-0.032-0.072-0.048-0.108C202.318,175.439,202.264,175.396,202.221,175.429L202.221,175.429z"/>
				</g>
				<g>
					<path style="fill:#232323;" d="M247.971,174.779c-0.042,0.08-0.211,0.215-0.283,0.356c-0.118,0.229-0.208,0.47-0.328,0.699
						c-0.243,0.463-0.5,0.917-0.81,1.34c-0.171,0.233-0.337,0.426-0.401,0.714c-0.062,0.275,0.122,0.02-0.139,0.112
						c-0.097,0.034-0.185,0.112-0.269,0.168c-0.473,0.311-0.922,0.66-1.415,0.942c-1.056,0.605-2.275,0.945-3.477,1.107
						c-0.638,0.086-1.279,0.138-1.923,0.16c-0.643,0.022-1.389-0.114-1.942,0.278c-0.289,0.205-0.43,0.703-0.1,0.96
						c0.606,0.47,1.351,0.372,2.081,0.348c0.747-0.025,1.489-0.091,2.227-0.211c1.373-0.224,2.728-0.637,3.929-1.351
						c0.515-0.307,1.022-0.666,1.413-1.126c0.151-0.178,0.261-0.47,0.416-0.622c0.109-0.107,0.306-0.133,0.427-0.248
						c0.116-0.11,0.213-0.269,0.303-0.4c0.329-0.483,0.588-1.02,0.728-1.589c0.072-0.293,0.116-0.615,0.125-0.917
						c0.008-0.299-0.121-0.427-0.19-0.678C248.298,174.651,248.052,174.627,247.971,174.779L247.971,174.779z"/>
				</g>
				<g>
					<path style="fill:#232323;" d="M209.373,162.244c-1.28-1.708-2.906-3.061-4.68-4.234c-0.815-0.539-1.67-1.148-2.62-1.422
						c-0.967-0.279-1.885-0.008-2.729,0.484c-1.914,1.115-3.734,2.434-5.53,3.726c-1.796,1.291-3.557,2.63-5.282,4.015
						c-0.987,0.793-1.969,1.593-2.928,2.42c-0.765,0.66-1.539,1.64-1.098,2.7c0.128,0.308,0.38,0.537,0.732,0.53
						c4.616-0.101,8.064-3.33,11.777-5.626c0.919-0.568,1.92-1.197,2.989-1.434c1.134-0.251,2.27,0.124,3.367,0.383
						c1.727,0.407,3.914,0.553,5.148-0.995c0.596-0.748-0.447-1.782-1.091-1.04c-1.266,1.458-3.463,0.568-5.023,0.249
						c-1.095-0.224-2.183-0.276-3.258,0.077c-0.964,0.316-1.872,0.837-2.735,1.363c-3.525,2.146-6.84,5.434-11.21,5.534
						c0.244,0.176,0.488,0.353,0.732,0.53c-0.197-0.473,0.339-0.88,0.661-1.166c0.463-0.413,0.947-0.804,1.424-1.2
						c0.967-0.802,1.947-1.588,2.939-2.358c1.961-1.524,3.967-2.99,6.016-4.394c1.004-0.689,2.002-1.401,3.04-2.037
						c0.473-0.29,0.953-0.529,1.524-0.444c0.556,0.084,1.065,0.405,1.545,0.678c2.091,1.189,4.028,2.627,6.063,3.904
						C209.285,162.574,209.476,162.382,209.373,162.244L209.373,162.244z"/>
				</g>
				<g>
					<path style="fill:#232323;" d="M248.299,160.829c1.065-1.441,2.622-2.449,4.147-3.346c0.806-0.474,1.663-1.058,2.597-1.233
						c1.075-0.202,2.147,0.27,3.1,0.711c3.698,1.714,7.025,4.06,10.055,6.776c1.744,1.564,3.386,3.236,4.969,4.962
						c0.191-0.495,0.382-0.99,0.573-1.485c-1.751-0.141-3.3-1.131-4.74-2.055c-1.583-1.015-3.187-1.969-4.88-2.793
						c-1.765-0.86-3.583-1.608-5.418-2.304c-1.672-0.635-3.605-1.556-5.421-0.981c-0.918,0.29-1.596,0.988-2.463,1.363
						c-0.418,0.181-1.227,0.201-1.442-0.327c-0.232-0.57-1.145-0.67-1.294,0.032c-0.371,1.75,1.716,2.465,3.096,2.014
						c0.872-0.285,1.529-0.949,2.353-1.32c0.945-0.426,1.996-0.084,2.919,0.236c3.973,1.378,7.822,3.092,11.364,5.368
						c1.854,1.191,3.725,2.312,5.97,2.49c0.807,0.064,1.026-0.992,0.573-1.486c-3.016-3.281-6.27-6.397-9.982-8.887
						c-1.838-1.233-3.792-2.352-5.853-3.169c-1.076-0.427-2.219-0.768-3.387-0.612c-1.078,0.144-2.002,0.705-2.905,1.277
						c-1.778,1.128-3.721,2.493-3.975,4.744C248.25,160.827,248.28,160.854,248.299,160.829L248.299,160.829z"/>
				</g>
				<g>
					<path style="fill:#232323;" d="M195.69,195.704c-0.599,0.472-1.397-0.423-1.795-0.824c-0.615-0.619-1.211-1.256-1.829-1.872
						c-1.184-1.179-2.326-2.401-3.403-3.679c-2.111-2.505-3.967-5.262-5.357-8.234c-2.638-5.643-3.444-12.28-0.884-18.096
						c2.146-4.878,6.213-8.958,11.169-10.967c6.447-2.612,13.31-0.964,19.824,0.484c3.583,0.796,7.208,1.507,10.893,1.511
						c1.75,0.002,3.506-0.165,5.213-0.556c1.762-0.404,3.283-1.18,4.689-2.305c0.305-0.245,0.127-0.889-0.315-0.699
						c-3.013,1.293-6.348,1.993-9.625,1.991c-3.508-0.003-6.947-0.681-10.358-1.436c-6.841-1.516-14.094-3.227-20.855-0.451
						c-5.258,2.159-9.65,6.396-11.963,11.595c-2.711,6.094-2.12,12.943,0.545,18.953c1.593,3.592,3.865,6.807,6.473,9.732
						c1.303,1.462,2.672,2.88,4.159,4.156c0.852,0.731,2.781,2.693,3.862,1.245C196.35,195.962,196.038,195.43,195.69,195.704
						L195.69,195.704z"/>
				</g>
				<g>
					<path style="fill:#232323;" d="M235.443,153.63c4.2-1.366,8.593-2.386,12.937-3.174c4.345-0.788,8.768-1.197,13.184-1.248
						c4.087-0.047,8.514-0.027,12.342,1.593c3.477,1.471,6.028,4.323,7.611,7.704c1.82,3.886,2.191,8.316,2.051,12.552
						c-0.131,3.984-0.693,8.141-2.965,11.521c-1.985,2.953-5.106,4.936-8.272,6.42c-3.673,1.722-7.623,2.922-11.5,4.084
						c-4.334,1.299-8.729,2.398-13.174,3.242c-3.363,0.639-7.235,1.176-9.917,3.505c-0.671,0.583-1.09,1.202-1.43,2.021
						c-0.179,0.431,0.274,1.08,0.749,0.714c0.684-0.527,1.414-1.023,2.133-1.501c0.701-0.466,1.447-0.866,2.228-1.179
						c1.699-0.68,3.5-1.071,5.291-1.421c4.476-0.874,8.907-1.874,13.289-3.145c4.092-1.187,8.223-2.454,12.132-4.165
						c3.433-1.503,6.805-3.454,9.195-6.408c2.665-3.294,3.665-7.396,3.994-11.544c0.353-4.451,0.169-9.093-1.299-13.346
						c-1.253-3.629-3.487-6.94-6.676-9.13c-3.497-2.401-7.862-2.941-12.001-3.043c-9.051-0.224-18.379,1.074-26.857,4.317
						c-1.061,0.406-2.088,0.889-3.131,1.338C235.18,153.414,235.252,153.693,235.443,153.63L235.443,153.63z"/>
				</g>
				<g>
					<path style="fill:#232323;" d="M239.443,211.343c1.266,0.978,2.759,1.639,4.173,2.374c1.415,0.736,2.816,1.503,4.205,2.286
						c2.847,1.605,5.652,3.272,8.368,5.092c5.361,3.592,10.445,7.637,15.09,12.118c1.28,1.235,2.474,2.535,3.626,3.889
						c1.2,1.409,2.184,2.931,3.209,4.465c0.184,0.276,0.569,0.077,0.508-0.229c-0.627-3.147-2.888-5.816-5.068-8.043
						c-2.319-2.368-4.82-4.572-7.38-6.674c-5.098-4.187-10.59-7.878-16.374-11.049c-1.655-0.908-3.356-1.734-5.076-2.512
						c-1.656-0.748-3.376-1.607-5.186-1.888C239.449,211.157,239.355,211.275,239.443,211.343L239.443,211.343z"/>
				</g>
				<g>
					<path style="fill:#232323;" d="M277.916,240.347c0.078,2.213,0.122,4.43-0.058,6.64c-0.188,2.292-0.659,4.561-1.313,6.764
						c-1.285,4.329-3.317,8.433-5.511,12.366c-2.196,3.936-4.507,7.831-6.929,11.632c-2.313,3.63-4.849,7.152-7.927,10.177
						c-3.172,3.118-7.023,5.768-11.235,7.263c-0.717,0.254-0.399,1.335,0.343,1.137c8.405-2.24,14.455-9.072,19.069-16.09
						c2.553-3.883,4.882-7.934,7.167-11.979c2.304-4.079,4.428-8.27,5.789-12.767c1.441-4.76,2.395-10.345,0.719-15.162
						C278.009,240.267,277.913,240.279,277.916,240.347L277.916,240.347z"/>
				</g>
				<g>
					<path style="fill:#232323;" d="M193.886,218.608c-1.08,0.171-2.084,0.718-3.039,1.223c-1.091,0.577-2.18,1.155-3.26,1.751
						c-2.073,1.144-4.121,2.372-6.069,3.72c-3.562,2.466-6.672,5.544-9.347,8.941c-0.751,0.954-1.468,1.926-2.128,2.947
						c-0.604,0.935-1.472,1.988-1.751,3.075c-0.084,0.326,0.327,0.689,0.625,0.457c0.764-0.594,1.299-1.544,1.894-2.304
						c0.64-0.818,1.287-1.63,1.931-2.445c1.308-1.659,2.698-3.263,4.179-4.771c3.135-3.192,6.757-5.649,10.575-7.947
						c1.117-0.673,2.211-1.384,3.3-2.101c1.089-0.717,2.319-1.407,3.131-2.454C193.952,218.669,193.938,218.6,193.886,218.608
						L193.886,218.608z"/>
				</g>
				<g>
					<path style="fill:#232323;" d="M168.619,239.76c-0.351,1.001-0.409,2.13-0.46,3.187c-0.053,1.092-0.073,2.183-0.047,3.276
						c0.053,2.149,0.225,4.295,0.526,6.424c0.608,4.298,1.663,8.526,3.156,12.603c2.986,8.156,7.669,15.686,13.696,21.942
						c1.661,1.724,3.417,3.388,5.313,4.852c1.943,1.501,3.955,2.958,6.2,3.97c0.377,0.17,0.824-0.326,0.458-0.625
						c-1.632-1.333-3.348-2.557-4.982-3.89c-1.64-1.337-3.237-2.739-4.748-4.221c-3.029-2.97-5.729-6.262-8.065-9.802
						c-4.674-7.084-7.904-15.122-9.356-23.488c-0.41-2.361-0.673-4.752-0.794-7.145c-0.06-1.183-0.092-2.369-0.096-3.553
						c-0.003-1.179,0.075-2.385-0.132-3.546C169.222,239.37,168.718,239.476,168.619,239.76L168.619,239.76z"/>
				</g>
				<g>
					<path style="fill:#232323;" d="M197.102,295.624c2.293,1.834,5.218,2.387,8.078,2.677c3.011,0.306,6.039,0.216,9.058,0.098
						c6.704-0.262,13.405-0.617,20.1-1.062c1.901-0.126,3.802-0.254,5.701-0.404c0.909-0.071,1.817-0.146,2.725-0.221
						c0.476-0.04,0.943-0.084,1.413-0.173c0.49-0.092,0.909-0.31,1.388-0.445c0.287-0.081,0.314-0.588-0.015-0.625
						c-0.369-0.041-0.718-0.159-1.084-0.207c-0.404-0.052-0.837-0.033-1.241-0.008c-0.826,0.05-1.652,0.12-2.478,0.178
						c-1.652,0.116-3.304,0.237-4.957,0.35c-3.306,0.226-6.613,0.43-9.921,0.611c-3.308,0.181-6.618,0.34-9.928,0.477
						c-3.01,0.124-6.031,0.273-9.043,0.128c-3.294-0.158-6.435-0.944-9.635-1.666C197.106,295.297,196.962,295.511,197.102,295.624
						L197.102,295.624z"/>
				</g>
				<g>
					<path style="fill:#232323;" d="M176.953,273.099c0.344-2.633,2.732-4.244,4.892-5.41c2.782-1.503,5.731-2.758,8.645-3.977
						c6.022-2.519,12.217-4.668,18.612-6.021c11.413-2.414,23.507-2.116,34.333,2.542c4.997,2.15,9.625,5.172,13.408,9.099
						c1.962,2.036,4.076,4.418,4.838,7.203c0.395,1.444,0.233,2.937-0.564,4.213c-0.759,1.216-1.939,2.169-3.079,3.013
						c-4.607,3.411-10.452,5.01-16.153,4.744c-2.98-0.139-5.862-0.827-8.636-1.913c-3.005-1.176-5.862-2.697-8.838-3.941
						c-5.858-2.449-12.193-4.132-18.588-3.85c-3.175,0.14-6.236,0.835-9.213,1.928c-2.925,1.074-5.835,2.441-8.943,2.895
						c-1.471,0.215-2.946,0.183-4.39-0.177c-0.982-0.245-1.36,1.281-0.38,1.524c6.578,1.634,12.581-2.855,18.807-4.12
						c6.501-1.321,13.287-0.078,19.453,2.121c6.185,2.205,11.865,5.969,18.499,6.738c5.863,0.68,11.9-0.711,16.969-3.709
						c1.234-0.73,2.415-1.563,3.515-2.482c1.1-0.919,2.161-2.01,2.731-3.347c1.281-3.005-0.296-6.199-2.109-8.605
						c-3.435-4.559-7.961-8.247-12.979-10.94c-10.579-5.68-22.93-6.993-34.684-5.173c-6.742,1.044-13.304,2.997-19.633,5.524
						c-3.095,1.236-6.132,2.613-9.126,4.076c-2.488,1.216-5.241,2.413-6.936,4.707c-0.716,0.97-1.109,2.053-1.105,3.264
						C176.301,273.391,176.904,273.478,176.953,273.099L176.953,273.099z"/>
				</g>
				<g>
					<path style="fill:#232323;" d="M186.243,275.13c3.544-2.328,7.773-2.809,11.866-3.47c4.095-0.661,8.206-1.074,12.349-1.261
						c8.172-0.368,16.451,0.121,24.367,2.296c2.211,0.607,4.39,1.34,6.506,2.221c1.028,0.428,2.044,0.885,3.044,1.376
						c1.059,0.521,2.043,1.165,3.221,1.356c0.466,0.075,0.703-0.414,0.418-0.761c-0.679-0.829-1.585-1.263-2.529-1.74
						c-0.932-0.471-1.879-0.914-2.838-1.328c-1.908-0.823-3.866-1.533-5.854-2.136c-4.003-1.215-8.126-1.98-12.284-2.415
						c-8.464-0.885-16.955-0.151-25.324,1.227c-2.351,0.387-4.736,0.801-7.016,1.504c-2.153,0.663-4.294,1.526-6.013,3.022
						C186.095,275.074,186.177,275.173,186.243,275.13L186.243,275.13z"/>
				</g>
				<g>
					<path style="fill:#232323;" d="M212.534,230.667c-0.738,0.918-0.852,2.445-0.995,3.578c-0.168,1.33-0.223,2.67-0.189,4.01
						c0.033,1.343,0.155,2.681,0.315,4.014c0.152,1.27,0.214,2.624,0.903,3.738c0.089,0.145,0.312,0.106,0.355-0.055
						c0.318-1.19,0.034-2.398-0.108-3.596c-0.153-1.296-0.269-2.596-0.317-3.9c-0.047-1.275-0.028-2.558,0.115-3.826
						c0.068-0.6,0.164-1.197,0.288-1.787c0.13-0.621,0.38-1.262,0.339-1.902C213.219,230.613,212.77,230.374,212.534,230.667
						L212.534,230.667z"/>
				</g>
				<g>
					<path style="fill:#232323;" d="M212.051,249.253c-0.029,0.224-0.146,0.428-0.188,0.652c-0.044,0.236-0.062,0.466-0.066,0.706
						c-0.009,0.469-0.003,0.932,0.084,1.396c0.18,0.96,0.482,1.901,0.947,2.762c0.22,0.408,0.481,0.932,0.982,1.022
						c0.493,0.089,0.535-0.398,0.413-0.78c-0.147-0.458-0.48-0.872-0.692-1.305c-0.2-0.411-0.398-0.815-0.549-1.248
						c-0.175-0.5-0.325-1.024-0.444-1.54c-0.059-0.257-0.114-0.514-0.172-0.771c-0.064-0.285-0.216-0.595-0.229-0.885
						C212.133,249.216,212.057,249.203,212.051,249.253L212.051,249.253z"/>
				</g>
				<g>
					<path style="fill:#232323;" d="M256.96,229.615c0.29,0.568,0.901,1.006,1.353,1.447c0.513,0.502,1.054,0.974,1.57,1.474
						c1.006,0.975,2.032,1.928,3.017,2.925c1.99,2.015,3.806,4.203,5.88,6.128c0.217,0.202,0.558-0.07,0.403-0.327
						c-1.485-2.46-3.518-4.552-5.558-6.562c-1.023-1.008-2.064-2.003-3.163-2.928c-0.537-0.452-1.059-0.923-1.628-1.336
						c-0.516-0.375-1.068-0.902-1.69-1.072C256.992,229.322,256.896,229.491,256.96,229.615L256.96,229.615z"/>
				</g>
				<g>
					<path style="fill:#232323;" d="M264.829,246.184c0.36,1.227,0.756,2.441,1.317,3.595c0.278,0.573,0.574,1.134,0.909,1.676
						c0.167,0.27,0.339,0.538,0.515,0.802c0.166,0.25,0.328,0.564,0.601,0.705c0.181,0.093,0.452-0.033,0.428-0.26
						c-0.031-0.3-0.217-0.529-0.374-0.78c-0.168-0.27-0.333-0.541-0.492-0.816c-0.309-0.532-0.616-1.066-0.907-1.608
						c-0.6-1.117-1.2-2.237-1.683-3.409C265.064,245.898,264.768,245.977,264.829,246.184L264.829,246.184z"/>
				</g>
				<g>
					<path style="fill:#232323;" d="M285.15,216.851c-0.264-0.28-0.414-0.543-0.428-0.936c-0.224,0.036-0.448,0.072-0.672,0.108
						c0.514,1.566,1.522,3.025,2.285,4.48c0.801,1.528,1.576,3.068,2.33,4.62c0.372,0.766,0.749,1.532,1.096,2.31
						c0.32,0.716,0.663,1.501,0.634,2.302c-0.02,0.557-0.241,1.296-0.806,1.536c-0.47,0.2-1.037-0.034-1.141-0.536
						c-0.377,0.232-0.754,0.465-1.132,0.697c1.17,0.902,1.538,2.502,1.021,3.873c-0.576,1.528-2.003,2.322-3.342,3.091
						c-0.448,0.257-0.253,1.114,0.305,1.026c2.01-0.315,3.728-1.862,4.4-3.778c0.632-1.804,0.113-4.035-1.436-5.209
						c-0.549-0.416-1.284-0.005-1.132,0.697c0.344,1.587,2.419,1.987,3.561,1.01c1.484-1.27,1.06-3.321,0.329-4.865
						c-0.953-2.012-2.013-3.981-3.071-5.939c-0.533-0.987-1.073-1.97-1.622-2.947c-0.52-0.925-1.009-1.914-1.714-2.715
						c-0.256-0.29-0.758,0.114-0.528,0.429c0.264,0.363,0.566,0.669,0.963,0.884C285.137,217.036,285.216,216.921,285.15,216.851
						L285.15,216.851z"/>
				</g>
				<g>
					<path style="fill:#232323;" d="M294.209,150.646c0.163,3.822,0.312,7.632,0.562,11.451c0.244,3.723,0.521,7.445,0.787,11.166
						c0.273,3.815,0.545,7.63,0.831,11.445c0.14,1.861,0.279,3.722,0.419,5.582c0.13,1.735,0.313,3.479,0.296,5.221
						c-0.018,1.785-0.3,3.643-1.345,5.137c-0.88,1.258-2.215,2.179-3.785,2.173c-0.67-0.002-0.934,0.72-0.675,1.247
						c3.815,7.774,6.427,16.16,7.722,24.722c1.293,8.548,1.34,17.313,0.039,25.863c-0.329,2.161-0.553,4.595-1.47,6.602
						c-0.415,0.907-1.022,1.752-1.966,2.154c-0.788,0.336-1.759,0.392-2.439-0.197c-0.378-0.328-1.11-0.327-1.338,0.206
						c-3.406,7.961-8.116,15.33-13.87,21.798c0.475,0.113,0.951,0.226,1.426,0.34c-1.279-3.324-1.929-6.816-1.919-10.378
						c0.003-0.919-1.149-1.034-1.598-0.391c-2.69,3.844-5.704,7.567-9.103,10.81c-2.979,2.842-6.957,5.637-11.287,4.651
						c0.217,0.271,0.434,0.542,0.651,0.814c-0.165,0.075-0.329,0.15-0.494,0.225c0.966,0.509,1.785-0.976,0.819-1.484
						c-0.924-0.486-2.175,0.187-2.043,1.301c0.045,0.381,0.26,0.716,0.651,0.814c4.69,1.17,9.107-1.608,12.43-4.649
						c3.741-3.424,6.972-7.509,9.869-11.656c-0.533-0.131-1.065-0.261-1.598-0.391c-0.007,3.699,0.668,7.376,2,10.827
						c0.218,0.566,0.974,0.849,1.426,0.34c5.85-6.586,10.608-14.073,14.138-22.142c-0.446,0.069-0.892,0.137-1.338,0.206
						c1.435,1.264,3.538,1.151,5.079,0.117c1.733-1.163,2.455-3.253,2.879-5.201c0.98-4.503,1.493-9.142,1.689-13.744
						c0.397-9.327-0.737-18.737-3.29-27.715c-1.44-5.061-3.347-9.981-5.673-14.701c-0.225,0.416-0.45,0.831-0.675,1.247
						c3.071,0.006,5.406-2.544,6.23-5.324c0.506-1.707,0.527-3.533,0.432-5.297c-0.104-1.941-0.284-3.88-0.432-5.818
						c-0.61-7.956-1.254-15.909-1.888-23.863c-0.361-4.524-0.86-9.021-1.352-13.53C294.95,150.125,294.187,150.126,294.209,150.646
						L294.209,150.646z"/>
				</g>
				<g>
					<path style="fill:#232323;" d="M184.505,185.037c-0.449,0.94-0.635,1.931-0.835,2.946c-0.197,1.001-0.386,2.003-0.559,3.008
						c-0.353,2.051-0.674,4.107-0.963,6.168c-0.488,3.484-1.315,7.424,0.523,10.661c0.2,0.353,0.712,0.465,1.048,0.248
						c1.172-0.756,2.331-1.54,3.527-2.259c-0.388-0.284-0.777-0.568-1.165-0.852c-1.025,2.961-1.593,6.064-1.827,9.186
						c-0.115,1.541-0.141,3.089-0.077,4.634c0.032,0.772,0.087,1.543,0.164,2.312c0.039,0.384,0.08,0.769,0.133,1.151
						c0.063,0.453,0.221,0.677,0.528,1.008c0.269,0.291,0.81,0.196,0.984-0.151c0.363-0.728,0.182-1.384,0.104-2.166
						c-0.073-0.73-0.126-1.463-0.158-2.197c-0.066-1.505-0.047-3.014,0.057-4.518c0.209-3.013,0.802-5.974,1.604-8.881
						c0.175-0.636-0.604-1.24-1.165-0.852c-1.147,0.795-2.338,1.53-3.509,2.288c0.349,0.083,0.699,0.165,1.048,0.248
						c-0.831-1.456-0.968-3.128-0.893-4.773c0.083-1.824,0.38-3.644,0.636-5.45c0.275-1.939,0.579-3.875,0.912-5.805
						c0.159-0.925,0.315-1.851,0.479-2.776c0.174-0.984,0.376-1.947,0.326-2.951C185.405,184.8,184.725,184.579,184.505,185.037
						L184.505,185.037z"/>
				</g>
				<g>
					<path style="fill:#232323;" d="M184.055,158.616c-1.042-1.587-2.484-2.819-4.028-3.91c-1.561-1.104-3.271-1.982-5.103-2.539
						c-3.753-1.141-7.721-0.563-11.249,1.035c-6.967,3.156-12.328,9.688-15.29,16.618c-2.993,7.002-3.719,14.8-1.876,22.203
						c1.797,7.219,5.906,13.914,11.634,18.678c6.582,5.475,14.902,8.361,22.739,11.519c1.063,0.428,2.125,0.856,3.188,1.285
						c0.92,0.371,1.685-0.985,0.755-1.368c-3.978-1.638-7.973-3.237-11.933-4.916c-3.693-1.565-7.347-3.28-10.694-5.505
						c-6.047-4.02-10.671-9.95-13.13-16.782c-2.445-6.793-2.608-14.165-0.493-21.066c2.119-6.916,6.513-13.432,12.555-17.503
						c3.082-2.077,6.7-3.51,10.468-3.315c3.75,0.194,7.133,2.046,9.999,4.358c0.688,0.555,1.359,1.094,2.074,1.615
						C183.91,159.197,184.205,158.844,184.055,158.616L184.055,158.616z"/>
				</g>
				<g>
					<path style="fill:#232323;" d="M180.023,166.198c-0.816-2.755-3.618-4.761-6.263-5.563c-2.968-0.9-6.146-0.371-8.889,0.979
						c-5.999,2.952-8.937,9.392-10.473,15.566c-0.884,3.552-1.309,7.121-0.583,10.741c0.632,3.147,1.872,6.204,3.305,9.068
						c2.608,5.212,6.252,9.917,10.592,13.801c4.865,4.354,10.609,7.69,16.849,9.628c0.93,0.289,1.282-1.168,0.365-1.463
						c-10.408-3.349-19.407-10.608-24.979-20.004c-3.099-5.226-5.634-11.391-4.831-17.565c0.41-3.15,1.238-6.361,2.476-9.291
						c1.182-2.797,2.833-5.448,5.182-7.412c2.462-2.06,5.709-3.364,8.95-3.046c1.608,0.158,3.089,0.767,4.457,1.605
						c1.368,0.838,2.393,2.021,3.463,3.189C179.804,166.606,180.085,166.408,180.023,166.198L180.023,166.198z"/>
				</g>
				<g>
					<path style="fill:#232323;" d="M183.422,191.072c-0.31-1.514-1.368-2.741-2.388-3.854c-1.042-1.137-2.416-2.041-3.838-2.63
						c-2.713-1.124-5.792-1.009-8.334,0.52c-1.178,0.708-2.202,1.729-2.814,2.968c-0.802,1.626-0.839,3.46-0.613,5.226
						c0.423,3.301,1.407,6.755,3.806,9.186c1.219,1.235,2.853,2.131,4.561,2.455c1.363,0.259,4.017,0.395,4.694-1.147
						c0.127-0.289,0.027-0.693-0.331-0.761c-0.681-0.129-1.229,0.109-1.895,0.235c-0.609,0.115-1.255,0.117-1.867,0.017
						c-1.247-0.204-2.449-0.749-3.416-1.565c-2.191-1.848-3.185-4.702-3.697-7.438c-0.295-1.579-0.515-3.29-0.015-4.849
						c0.329-1.028,1.042-1.933,1.892-2.586c1.929-1.481,4.49-1.856,6.795-1.157c1.473,0.447,2.684,1.287,3.874,2.234
						c1.236,0.985,2.159,2.285,3.38,3.272C183.316,191.28,183.448,191.197,183.422,191.072L183.422,191.072z"/>
				</g>
				<g>
					<path style="fill:#232323;" d="M295.07,162.285c2.578-3.108,5.626-5.6,9.281-7.337c3.765-1.789,7.88-2.873,11.975-3.582
						c4.463-0.772,9.27-0.837,13.134,1.856c3.352,2.337,5.465,6.201,7,9.889c3.756,9.023,5.346,18.976,4.464,28.717
						c-0.799,8.819-4.099,17.693-11.504,23.035c-7.77,5.605-17.556,5.616-26.716,4.924c-1.177-0.089-2.353-0.189-3.53-0.291
						c-0.505-0.044-0.925,0.494-0.913,0.96c0.014,0.553,0.453,0.87,0.96,0.914c9.662,0.846,20.064,1.57,28.812-3.442
						c4.039-2.314,7.423-5.686,9.802-9.681c2.392-4.018,3.784-8.591,4.472-13.197c1.495-10.006,0.232-20.513-3.305-29.973
						c-1.541-4.121-3.472-8.352-6.691-11.448c-1.575-1.515-3.423-2.693-5.502-3.382c-2.276-0.754-4.737-0.891-7.114-0.724
						c-4.428,0.311-8.958,1.404-13.106,2.974c-3.87,1.465-7.785,3.585-10.539,6.747c-0.667,0.766-1.205,1.633-1.68,2.528
						C294.146,162.196,294.743,162.68,295.07,162.285L295.07,162.285z"/>
				</g>
				<g>
					<path style="fill:#232323;" d="M297.205,179.694c2.454-6.999,7.022-13.133,13.6-16.728c3.521-1.924,7.549-3.153,11.518-1.987
						c3.449,1.013,6.378,3.506,8.376,6.444c2.325,3.42,3.442,7.556,3.963,11.619c0.558,4.347,0.724,8.884,0.388,13.256
						c-0.167,2.171-0.534,4.334-1.258,6.393c-0.681,1.937-1.726,3.767-2.951,5.41c-2.339,3.136-5.339,5.778-8.633,7.871
						c-6.469,4.111-14.203,6.143-21.857,5.627c-0.933-0.063-1.86-0.169-2.784-0.311c-1.115-0.171-1.549,1.541-0.427,1.714
						c8.103,1.243,16.532-0.255,23.75-4.131c7.492-4.023,14.234-10.8,15.757-19.428c0.808-4.576,0.615-9.403,0.23-14.015
						c-0.379-4.54-1.268-9.109-3.46-13.149c-1.842-3.394-4.735-6.382-8.242-8.054c-1.742-0.831-3.618-1.335-5.551-1.41
						c-2.287-0.089-4.576,0.471-6.681,1.334c-7.233,2.964-13.315,9.106-15.923,16.509c-0.322,0.916-0.563,1.85-0.756,2.801
						C296.14,180.079,297.001,180.275,297.205,179.694L297.205,179.694z"/>
				</g>
				<g>
					<path style="fill:#232323;" d="M297.787,187.97c0.327,0.282,0.499-0.448,0.617-0.69c0.164-0.336,0.336-0.67,0.526-0.992
						c0.411-0.698,0.941-1.35,1.511-1.924c1.163-1.171,2.622-2.031,4.193-2.525c3.212-1.009,7.439-0.805,10.174,1.339
						c2.603,2.04,3.65,5.682,3.974,8.84c0.345,3.361-0.188,6.975-2.226,9.757c-1.018,1.39-2.388,2.528-3.935,3.285
						c-1.512,0.739-3.206,0.951-4.861,1.111c-0.791,0.076-0.892,1.106-0.15,1.362c3.659,1.265,7.912-1.317,10.133-4.111
						c2.685-3.376,3.459-7.883,2.875-12.084c-0.561-4.031-2.182-8.406-5.993-10.406c-3.799-1.994-8.908-1.819-12.638,0.244
						c-1.906,1.055-3.489,2.714-4.346,4.723c-0.225,0.528-0.884,2.04-0.185,2.463c0.372,0.225,0.862-0.247,0.456-0.485
						c-0.031-0.018-0.068-0.009-0.093,0.014c-0.011,0.01-0.022,0.02-0.032,0.03C297.772,187.933,297.773,187.958,297.787,187.97
						L297.787,187.97z"/>
				</g>
				<g>
					<path style="fill:#232323;" d="M181.111,156.116c0.076-0.75-0.032-1.535-0.036-2.29c-0.004-0.765,0.019-1.529,0.056-2.292
						c0.072-1.494,0.215-2.979,0.457-4.456c0.241-1.471,0.545-2.929,0.94-4.366c0.203-0.738,0.443-1.461,0.672-2.191
						c0.233-0.739,0.339-1.471,0.451-2.234c0.08-0.544-0.557-0.783-0.872-0.343c-0.473,0.662-0.868,1.301-1.152,2.067
						c-0.278,0.751-0.499,1.527-0.711,2.299c-0.413,1.51-0.743,3.046-0.961,4.596c-0.217,1.545-0.361,3.106-0.394,4.666
						c-0.016,0.763,0,1.528,0.033,2.29c0.036,0.806,0.028,1.677,0.24,2.459C180.044,157.089,181.042,156.797,181.111,156.116
						L181.111,156.116z"/>
				</g>
				<g>
					<path style="fill:#232323;" d="M179.651,139.893c1.998-0.351,3.972-0.831,5.964-1.217c1.958-0.38,3.916-0.734,5.891-1.018
						c3.956-0.57,7.938-0.869,11.93-1.032c8.065-0.329,16.142,0.096,24.178,0.782c7.903,0.674,15.801,1.51,23.681,2.418
						c7.706,0.888,15.401,1.966,22.987,3.61c7.525,1.631,14.954,3.831,22.001,6.958c0.891,0.395,1.775,0.806,2.653,1.229
						c0.904,0.436,1.661-0.932,0.755-1.368c-7.005-3.372-14.412-5.816-21.963-7.63c-7.649-1.838-15.435-3.036-23.236-4.007
						c-7.897-0.983-15.821-1.81-23.745-2.54c-8.157-0.751-16.349-1.296-24.545-1.124c-7.998,0.168-16.183,0.996-23.857,3.346
						c-0.978,0.299-1.923,0.626-2.861,1.034C179.134,139.483,179.277,139.959,179.651,139.893L179.651,139.893z"/>
				</g>
				<g>
					<path style="fill:#232323;" d="M179.385,147.728c-3.538-0.229-7.043-0.598-10.519-1.309c-3.177-0.65-6.431-1.454-9.386-2.82
						c-2.538-1.173-5.06-2.934-6.142-5.617c-0.937-2.325-0.887-5.275,1.047-7.085c1.15-1.077,2.726-1.591,4.2-2.049
						c1.681-0.522,3.397-0.92,5.124-1.256c3.531-0.687,7.105-1.186,10.672-1.641c7.105-0.907,14.249-1.491,21.404-1.825
						c14.403-0.672,28.836-0.309,43.227,0.465c7.182,0.386,14.359,0.863,21.533,1.379c7.038,0.506,14.16,0.898,21.042,2.551
						c6.656,1.598,13.007,4.225,19.222,7.055c2.993,1.363,6.021,2.705,8.937,4.226c2.502,1.305,5.027,3.054,5.706,5.966
						c0.288,1.234,0.176,2.637-0.604,3.678c-0.757,1.011,0.671,2.39,1.436,1.368c1.795-2.398,1.569-5.58,0.043-8.071
						c-1.652-2.696-4.618-4.228-7.379-5.542c-6.497-3.092-13.02-6.153-19.849-8.45c-3.473-1.168-7.019-2.123-10.63-2.753
						c-3.656-0.638-7.359-0.975-11.058-1.237c-7.576-0.538-15.153-1.075-22.735-1.523c-15.236-0.901-30.512-1.389-45.771-0.827
						c-7.578,0.279-15.149,0.827-22.679,1.73c-3.775,0.452-7.544,0.981-11.29,1.635c-3.379,0.59-7.132,1.207-10.157,2.916
						c-2.449,1.384-3.717,3.924-3.572,6.709c0.146,2.807,1.562,5.326,3.686,7.123c2.36,1.996,5.303,3.126,8.23,4.003
						c3.514,1.053,7.109,1.751,10.758,2.12c1.846,0.186,3.679,0.272,5.533,0.221C180.157,148.848,180.106,147.775,179.385,147.728
						L179.385,147.728z"/>
				</g>
				<g>
					<path style="fill:#232323;" d="M178.917,123.436c0.591-2.911,1.009-5.852,1.669-8.751c0.652-2.864,1.447-5.696,2.377-8.481
						c0.943-2.824,2.032-5.601,3.252-8.317c1.141-2.538,2.414-5.068,4.132-7.271c6.425-8.238,17.738-10.257,27.497-11.471
						c12.24-1.522,24.69-1.318,36.866,0.656c2.956,0.479,5.919,1.026,8.776,1.944c2.701,0.868,5.273,2.086,7.747,3.467
						c2.521,1.408,4.941,2.988,7.335,4.602c2.257,1.522,4.656,3.038,6.345,5.218c1.664,2.148,2.648,4.708,3.468,7.273
						c0.92,2.877,1.753,5.784,2.599,8.683c1.749,6,3.4,12.027,5.011,18.066c0.401,1.503,0.724,3.05,1.212,4.527
						c0.152,0.46,0.72,0.864,1.217,0.653c0.904-0.385,1.429-1.117,1.359-2.119c-0.079-1.125-1.835-1.088-1.756,0.043
						c0.01,0.142-0.039,0.169-0.168,0.205c0.406,0.217,0.811,0.435,1.217,0.653c-0.309-1.607-0.816-3.196-1.239-4.776
						c-0.414-1.549-0.825-3.099-1.258-4.643c-0.876-3.127-1.767-6.251-2.672-9.369c-0.893-3.08-1.806-6.154-2.739-9.222
						c-0.824-2.71-1.617-5.449-2.871-7.999c-1.253-2.547-3.055-4.624-5.312-6.334c-2.303-1.744-4.76-3.32-7.206-4.855
						c-2.501-1.571-5.075-3.037-7.779-4.231c-2.782-1.228-5.669-2.11-8.647-2.719c-12.279-2.512-25.105-3.005-37.568-1.835
						c-5.691,0.534-11.458,1.309-16.966,2.881c-4.817,1.375-9.52,3.487-13.239,6.91c-4.195,3.86-6.581,9.285-8.588,14.514
						c-2.188,5.701-3.769,11.629-4.718,17.662c-0.227,1.443-0.383,2.859-0.43,4.319C177.821,123.931,178.795,124.04,178.917,123.436
						L178.917,123.436z"/>
				</g>
				<g>
					<path style="fill:#232323;" d="M234.759,297.389c-0.287,1.058-0.345,2.196-0.422,3.288c-0.085,1.202-0.105,2.416-0.103,3.62
						c0.003,2.37-0.006,4.741-0.006,7.111c0,2.329-0.004,4.657-0.014,6.986c-0.01,2.227,0.05,4.465-0.166,6.685
						c-0.207,2.132-0.757,4.186-1.749,6.088c-0.942,1.808-2.153,3.455-3.382,5.076c-2.334,3.077-4.686,6.156-7.348,8.96
						c-1.464,1.542-3.021,3.005-4.725,4.281c-0.821,0.615-1.673,1.189-2.556,1.713c-0.934,0.554-2.021,0.907-2.709,1.761
						c-0.326,0.404-0.08,0.944,0.433,0.977c1.012,0.064,1.821-0.459,2.684-0.943c0.866-0.486,1.704-1.023,2.512-1.599
						c1.578-1.125,3.054-2.395,4.437-3.751c2.827-2.771,5.272-5.898,7.662-9.045c2.57-3.384,5.239-6.807,6.1-11.07
						c0.447-2.215,0.5-4.487,0.502-6.739c0.002-2.391-0.026-4.783-0.051-7.174c-0.029-2.744-0.074-5.487-0.127-8.23
						c-0.026-1.329-0.055-2.662-0.141-3.989c-0.086-1.32-0.198-2.745-0.581-4.012C234.97,297.26,234.792,297.267,234.759,297.389
						L234.759,297.389z"/>
				</g>
				<g>
					<path style="fill:#232323;" d="M234.209,298.758c-6.881,2.36-12.992,6.916-18.519,11.553
						c-5.126,4.301-9.812,9.122-13.975,14.36c-8.199,10.318-14.464,22.305-17.633,35.13c-1.782,7.212-2.572,14.669-2.257,22.093
						c0.038,0.9,1.419,1.374,1.824,0.447c2.709-6.216,5.417-12.431,8.126-18.647c1.336-3.065,2.656-6.137,4.008-9.195
						c1.05-2.375,2.353-4.985,5.121-5.597c6.004-1.327,9.736,5.289,11.927,9.715c2.699,5.454,4.549,11.299,5.938,17.211
						c1.403,5.972,2.338,12.04,3.19,18.111c0.926,6.6,1.822,13.204,2.726,19.808c1.84,13.452,3.652,26.909,5.363,40.378
						c1.712,13.47,3.109,26.98,4.825,40.448c0.22,1.725,0.481,3.44,0.754,5.158c0.139,0.876,1.474,0.914,1.428-0.035
						c-0.337-7.041-1.226-14.044-2.037-21.043c-0.812-7.008-1.662-14.011-2.541-21.01c-1.758-14-3.63-27.985-5.538-41.966
						c-0.942-6.908-1.885-13.816-2.845-20.721c-0.868-6.248-1.791-12.5-3.184-18.656c-1.381-6.102-3.249-12.099-5.937-17.758
						c-2.304-4.85-5.497-10.751-11.383-11.616c-2.668-0.392-5.3,0.395-7.089,2.465c-1.923,2.223-2.892,5.219-4.048,7.874
						c-2.813,6.461-5.625,12.921-8.438,19.382c-0.69,1.585-1.38,3.169-2.07,4.754c0.608,0.149,1.216,0.298,1.824,0.447
						c-0.552-12.937,2.367-25.841,7.854-37.535c5.517-11.756,13.507-22.291,23.156-30.965c6.038-5.428,12.697-9.852,19.837-13.684
						C235.114,299.395,234.744,298.574,234.209,298.758L234.209,298.758z"/>
				</g>
				<g>
					<path style="fill:#232323;" d="M286.732,274.426c-0.228,1.3-0.181,2.636-0.21,3.957c-0.031,1.393-0.019,2.765,0.062,4.157
						c0.163,2.767,0.386,5.531,0.65,8.291c0.524,5.479,1.289,10.935,2.212,16.36c0.527,3.098,1.113,6.185,1.754,9.26
						c0.206-0.385,0.412-0.769,0.618-1.154c-2.781,0.609-5.405,1.855-7.63,3.632c-0.339,0.271-0.526,0.633-0.406,1.073
						c1.235,4.51,2.468,9.02,3.701,13.531c0.611,2.235,1.219,4.471,1.834,6.706c0.307,1.117,0.615,2.234,0.922,3.351
						c0.154,0.559,0.307,1.117,0.461,1.676c0.077,0.279,0.159,0.557,0.231,0.838c0.117,0.459-0.024,0.201,0.243,0.036
						c0.16-0.048,0.32-0.095,0.48-0.143c0.374,0.781,0.576,0.962,0.607,0.541c0.016-0.082,0.054-0.153,0.113-0.213
						c0.276-0.323,0.064-0.798-0.359-0.812c-0.786-0.024-1.654,0.56-1.495,1.438c0.191,1.059,1.648,1.279,2.198,0.373
						c0.521-0.858,0.081-1.879-0.16-2.75c-0.319-1.157-0.639-2.313-0.959-3.47c-1.267-4.586-2.546-9.169-3.822-13.753
						c-0.732-2.631-1.462-5.262-2.193-7.893c-0.135,0.358-0.271,0.715-0.406,1.073c2.111-1.698,4.532-2.87,7.176-3.461
						c0.516-0.115,0.715-0.695,0.618-1.154c-2.277-10.704-3.812-21.542-4.822-32.436c-0.144-1.552-0.288-3.092-0.5-4.635
						c-0.203-1.472-0.282-2.99-0.66-4.425C286.956,274.297,286.755,274.296,286.732,274.426L286.732,274.426z"/>
				</g>
				<g>
					<path style="fill:#232323;" d="M290.94,311.696c3.809,4.115,8.446,7.913,10.514,13.295c0.99,2.578,1.225,5.341,0.516,8.022
						c-0.754,2.848-2.411,5.368-4.352,7.549c-4.031,4.529-9.366,7.623-13.535,12.008c-4.568,4.805-6.88,11.205-9.549,17.155
						c-5.833,13.001-11.954,25.91-16.835,39.31c-4.771,13.097-8.589,26.514-12.282,39.947c-1.891,6.879-3.777,13.76-5.647,20.645
						c-1.812,6.668-3.514,13.401-4.075,20.309c-0.07,0.859-0.176,1.748-0.152,2.61c0.022,0.802,0.281,1.617,0.475,2.393
						c0.123,0.493,0.865,0.451,0.978-0.024c0.19-0.797,0.479-1.599,0.529-2.418c0.053-0.87,0.081-1.741,0.152-2.61
						c0.143-1.766,0.372-3.524,0.658-5.272c0.575-3.517,1.383-6.991,2.272-10.44c1.795-6.962,3.76-13.883,5.656-20.818
						c3.72-13.609,7.484-27.223,12.157-40.542c4.797-13.675,10.936-26.795,16.856-40.007c1.445-3.225,2.862-6.464,4.344-9.672
						c1.366-2.959,2.885-5.86,5.041-8.328c4.064-4.653,9.53-7.775,13.753-12.262c3.97-4.218,6.745-9.612,5.583-15.526
						c-1.069-5.441-5.154-10.039-9.302-13.48c-1.062-0.881-2.194-1.645-3.35-2.395C290.999,310.923,290.687,311.424,290.94,311.696
						L290.94,311.696z"/>
				</g>
				<g>
					<path style="fill:#232323;" d="M287.823,296.274c2.958,2.44,5.975,4.821,8.753,7.469c2.768,2.638,5.493,5.293,8.131,8.063
						c2.665,2.798,5.254,5.666,7.832,8.544c2.423,2.705,5.201,5.444,6.204,9.042c0.518,1.857,0.575,3.801,0.524,5.717
						c-0.054,2.046-0.207,4.09-0.319,6.133c-0.235,4.282-0.47,8.563-0.705,12.845c-0.464,8.461-0.902,16.923-1.398,25.382
						c-0.478,8.14-1.132,16.307-2.969,24.271c-0.233,1.009-0.486,2.012-0.756,3.012c0.602-0.094,1.204-0.188,1.806-0.281
						c-2.492-5.176-4.985-10.352-7.477-15.527c-2.115-4.391-4.138-8.857-6.68-13.024c-2.395-3.926-5.315-7.567-9.081-10.255
						c-1.95-1.392-4.19-2.287-6.593-1.629c-2.249,0.616-4.078,2.3-5.648,3.946c-2.045,2.146-3.993,4.387-5.849,6.699
						c-1.884,2.348-3.746,4.734-5.221,7.363c-0.444,0.79,0.713,1.703,1.311,0.962c1.596-1.977,3.051-4.056,4.621-6.055
						c1.572-2.003,3.216-3.949,4.927-5.835c1.52-1.676,3.066-3.503,5.068-4.621c0.854-0.477,1.819-0.779,2.806-0.714
						c1.103,0.073,2.114,0.614,3.021,1.207c3.628,2.371,6.421,5.904,8.687,9.545c2.449,3.935,4.394,8.16,6.401,12.33
						c2.672,5.551,5.345,11.103,8.017,16.654c0.389,0.808,1.601,0.477,1.806-0.281c2.18-8.059,3.043-16.395,3.593-24.703
						c0.568-8.576,0.972-17.165,1.444-25.747c0.238-4.323,0.475-8.646,0.713-12.97c0.118-2.154,0.236-4.308,0.35-6.463
						c0.104-1.976,0.193-3.966-0.037-5.936c-0.232-1.983-0.788-3.868-1.768-5.613c-0.914-1.626-2.118-3.072-3.35-4.463
						c-2.569-2.899-5.194-5.755-7.847-8.577c-5.333-5.675-10.961-11.16-17.348-15.649c-0.793-0.557-1.618-1.054-2.454-1.544
						C287.915,295.319,287.431,295.951,287.823,296.274L287.823,296.274z"/>
				</g>
				<g>
					<path style="fill:#232323;" d="M253.359,501.003c0.312-4.635,0.553-9.278,0.967-13.906c0.413-4.624,0.966-9.233,1.661-13.824
						c1.388-9.176,3.323-18.267,5.595-27.263c2.285-9.047,4.929-18,7.753-26.893c2.798-8.812,5.766-17.571,8.772-26.314
						c2.571-7.477,5.415-15.2,10.69-21.241c0.659-0.754,1.354-1.475,2.078-2.167c0.824-0.785-0.456-1.999-1.278-1.217
						c-5.897,5.613-9.265,13.177-11.997,20.707c-3.126,8.617-5.968,17.355-8.779,26.079c-2.888,8.964-5.616,17.983-8.003,27.095
						c-2.386,9.107-4.423,18.307-5.912,27.605c-0.737,4.6-1.34,9.22-1.782,13.858c-0.441,4.623-0.862,9.343-0.741,13.991
						c0.03,1.172,0.066,2.341,0.125,3.511C252.536,501.58,253.322,501.543,253.359,501.003L253.359,501.003z"/>
				</g>
				<g>
					<path style="fill:#232323;" d="M319.495,356.969c0.621,0.427,1.217,0.9,1.897,1.225c0.754,0.361,1.505,0.729,2.252,1.105
						c1.383,0.697,2.751,1.418,4.115,2.15c2.767,1.483,5.476,3.071,8.131,4.747c5.313,3.355,10.376,7.104,15.149,11.191
						c2.67,2.287,5.244,4.685,7.719,7.181c0.209-0.542,0.418-1.085,0.627-1.627c-7.781-0.127-13.359,7.199-16.719,13.354
						c-3.774,6.915-5.797,14.63-7.437,22.286c-3.778,17.644-6.187,35.594-7.276,53.603c-0.613,10.132-0.795,20.289-0.554,30.437
						c0.029,1.226,1.933,1.181,1.904-0.047c-0.417-17.649,0.445-35.329,2.619-52.849c1.087-8.755,2.494-17.47,4.22-26.122
						c1.53-7.67,3.169-15.448,6.351-22.632c1.699-3.835,3.835-7.59,6.649-10.722c2.654-2.952,6.159-5.483,10.288-5.423
						c0.845,0.012,1.181-1.07,0.627-1.627c-8.972-9.02-19.272-16.69-30.507-22.662c-1.553-0.825-3.128-1.608-4.72-2.354
						c-0.835-0.391-1.675-0.771-2.518-1.142c-0.832-0.367-1.663-0.558-2.548-0.759C319.334,356.187,319.158,356.738,319.495,356.969
						L319.495,356.969z"/>
				</g>
				<g>
					<path style="fill:#232323;" d="M352.711,385.979c0.203,0.41,0.374,0.859,0.62,1.242c0.267,0.416,0.589,0.809,0.883,1.207
						c0.571,0.775,1.121,1.565,1.685,2.345c1.131,1.562,2.208,3.163,3.279,4.767c2.167,3.242,4.189,6.577,6.087,9.983
						c3.756,6.738,6.932,13.807,9.459,21.096c2.709,7.818,4.612,15.87,5.963,24.028c1.426,8.61,2.3,17.301,3.24,25.974
						c0.971,8.957,1.942,17.914,2.912,26.872c0.121,1.115,0.236,2.231,0.386,3.343c0.597-0.178,1.194-0.355,1.791-0.533
						c-0.393-0.647-0.996-1.095-1.418-1.716c-0.416-0.614-0.839-1.206-1.295-1.793c-0.225-0.29-0.804-0.117-0.642,0.29
						c0.272,0.685,0.547,1.354,0.879,2.013c0.361,0.716,0.446,1.512,0.829,2.225c0.45,0.837,1.868,0.412,1.791-0.533
						c-0.368-4.506-0.951-9.003-1.438-13.498c-0.492-4.54-0.983-9.081-1.475-13.622c-0.952-8.793-1.816-17.604-3.142-26.351
						c-1.269-8.372-2.992-16.674-5.64-24.726c-2.439-7.417-5.542-14.617-9.273-21.476c-3.735-6.866-8.11-13.384-13.188-19.329
						c-0.3-0.351-0.603-0.703-0.918-1.041c-0.337-0.362-0.776-0.634-1.172-0.931C352.795,385.722,352.642,385.839,352.711,385.979
						L352.711,385.979z"/>
				</g>
				<g>
					<path style="fill:#232323;" d="M358.508,384.991c0.157,0.062,0.385,0.317,0.503,0.435c0.174,0.173,0.36,0.418,0.505,0.621
						c0.343,0.48,0.547,1.068,0.705,1.632c0.451,1.612,0.703,3.302,1.049,4.94c0.377,1.781,0.754,3.563,1.131,5.344
						c0.18,0.85,0.364,1.699,0.553,2.547c0.209,0.94,0.549,1.687,1.029,2.51c0.219,0.376,0.701,0.141,0.737-0.219
						c0.051-0.506,0.125-0.954,0.081-1.466c-0.042-0.487-0.136-0.964-0.236-1.441c-0.203-0.972-0.414-1.942-0.628-2.912
						c-0.426-1.939-0.853-3.878-1.279-5.816c-0.36-1.637-0.598-3.387-1.303-4.921c-0.257-0.559-0.616-1.088-1.097-1.478
						c-0.257-0.208-0.526-0.276-0.844-0.333c-0.362-0.065-0.462,0.048-0.792,0.096C358.415,384.56,358.252,384.889,358.508,384.991
						L358.508,384.991z"/>
				</g>
				<g>
					<path style="fill:#232323;" d="M198.326,351.072c0.861,0.521,1.081,1.631,1.365,2.525c0.383,1.204,0.756,2.412,1.135,3.617
						c0.773,2.457,1.526,4.921,2.275,7.386c1.47,4.837,2.866,9.697,4.189,14.576c2.658,9.805,5.024,19.692,7.096,29.638
						c2.083,10.002,3.863,20.068,5.334,30.178c1.463,10.054,2.622,20.152,3.473,30.275c0.852,10.124,1.396,20.273,1.63,30.43
						c0.029,1.275,0.083,2.52,0.233,3.787c0.126,1.068,1.563,1.019,1.654-0.041c0.222-2.568,0.061-5.157-0.018-7.731
						c-0.079-2.575-0.178-5.15-0.297-7.723c-0.238-5.147-0.555-10.29-0.952-15.428c-0.797-10.323-1.913-20.621-3.345-30.876
						c-1.424-10.198-3.16-20.352-5.207-30.444c-2.048-10.1-4.408-20.134-7.085-30.086c-1.339-4.976-2.754-9.93-4.245-14.862
						c-0.746-2.466-1.512-4.926-2.31-7.376c-0.766-2.351-1.409-4.848-2.462-7.089c-0.39-0.831-0.951-1.561-1.805-1.947
						C198.191,349.523,197.57,350.614,198.326,351.072L198.326,351.072z"/>
				</g>
				<g>
					<path style="fill:#232323;" d="M187.212,348.251c-2.468,1.675-4.784,3.554-7.127,5.397c-2.348,1.847-4.691,3.699-7.023,5.567
						c-4.668,3.738-9.317,7.499-13.97,11.256c-2.064,1.667-4.305,3.25-6.084,5.232c-1.748,1.947-2.717,4.305-3.327,6.822
						c-1.34,5.524-2.244,11.193-3.2,16.794c-1.949,11.419-3.486,22.911-4.469,34.454c-0.977,11.468-1.395,22.988-1.09,34.495
						c0.305,11.52,1.351,23.017,3.251,34.385c0.235,1.403,0.623,2.747,1.067,4.095c0.225,0.683,1.314,0.55,1.276-0.205
						c-0.143-2.838-0.649-5.598-1.064-8.405c-0.415-2.803-0.777-5.614-1.09-8.43c-0.625-5.629-1.051-11.28-1.296-16.939
						c-0.494-11.392-0.255-22.811,0.554-34.183c0.809-11.377,2.194-22.707,3.996-33.968c0.908-5.671,1.925-11.325,3.017-16.964
						c0.494-2.547,0.853-5.245,1.888-7.643c1.038-2.404,2.911-4.111,4.9-5.738c9.067-7.421,18.229-14.728,27.167-22.305
						c1.118-0.948,2.206-1.913,3.263-2.929C188.267,348.639,187.694,347.923,187.212,348.251L187.212,348.251z"/>
				</g>
				<g>
					<path style="fill:#232323;" d="M150.13,382.277c-3.297,2.372-6.161,5.353-8.894,8.349c-2.735,2.997-5.271,6.253-7.251,9.803
						c-4.326,7.755-5.452,16.644-6.642,25.302c-1.294,9.411-2.563,18.827-3.501,28.281c-0.934,9.425-1.53,18.893-1.456,28.367
						c0.034,4.272,0.084,8.6,0.648,12.841c0.251,1.884,0.606,3.764,1.193,5.574c0.554,1.707,1.274,3.49,2.438,4.878
						c0.578,0.69,1.312,1.312,2.003,1.888c0.582,0.485,1.249-0.269,0.791-0.832c-0.578-0.711-0.959-1.481-1.403-2.274
						c-0.417-0.745-0.838-1.498-1.187-2.278c-0.747-1.665-1.228-3.449-1.568-5.237c-0.741-3.899-0.805-7.936-0.891-11.892
						c-0.2-9.265,0.271-18.533,1.103-27.758c0.838-9.285,2.046-18.531,3.307-27.766c1.162-8.509,1.897-17.466,5.475-25.384
						c3.315-7.336,8.89-13.225,14.46-18.902c0.697-0.711,1.292-1.524,1.902-2.31C150.927,382.579,150.551,381.974,150.13,382.277
						L150.13,382.277z"/>
				</g>
				<g>
					<path style="fill:#232323;" d="M197.708,219.589c0.02,0.572,0.57,1.218,0.913,1.657c0.464,0.594,1.002,1.13,1.521,1.676
						c0.961,1.011,1.878,2.082,3.204,2.612c1.35,0.539,2.824,0.832,4.237,1.16c1.51,0.351,2.983,0.623,4.536,0.522
						c0.444-0.029,0.697-0.711,0.224-0.916c-2.617-1.133-5.499-1.311-8.184-2.238c-1.246-0.43-2.133-1.435-3.061-2.323
						c-0.531-0.508-1.053-1.037-1.637-1.485c-0.429-0.328-1.019-0.832-1.569-0.858C197.79,219.393,197.705,219.494,197.708,219.589
						L197.708,219.589z"/>
				</g>
				<g>
					<path style="fill:#232323;" d="M269.372,90.707c0.506,0.249,0.996,0.573,1.502,0.836c0.518,0.27,1.027,0.551,1.529,0.848
						c1.048,0.62,2.071,1.288,3.078,1.971c1.033,0.7,2.066,1.399,3.098,2.1c1.078,0.732,2.116,1.441,3.397,1.759
						c0.252,0.062,0.514-0.244,0.345-0.473c-0.786-1.071-1.839-1.775-2.934-2.5c-1.103-0.73-2.195-1.48-3.316-2.184
						c-1.034-0.649-2.084-1.257-3.213-1.726c-0.545-0.226-1.107-0.43-1.678-0.575c-0.304-0.077-0.592-0.146-0.905-0.172
						c-0.318-0.027-0.558,0.007-0.875-0.002C269.34,90.588,269.318,90.68,269.372,90.707L269.372,90.707z"/>
				</g>
				<g>
					<path style="fill:#232323;" d="M276,101.713c0.791,0.486,1.636,0.89,2.471,1.324c0.876,0.455,1.729,0.973,2.593,1.454
						c1.641,0.913,3.489,2.112,5.441,1.822c0.383-0.057,0.568-0.548,0.188-0.769c-0.839-0.487-1.716-0.849-2.603-1.245
						c-0.906-0.405-1.779-0.877-2.653-1.344c-0.86-0.459-1.728-0.856-2.637-1.2c-0.453-0.171-0.908-0.289-1.387-0.351
						c-0.225-0.029-0.473-0.125-0.7-0.113c-0.222,0.012-0.455,0.07-0.678,0.106C275.876,101.423,275.888,101.644,276,101.713
						L276,101.713z"/>
				</g>
				<g>
					<path style="fill:#232323;" d="M281.505,108.998c0.042,0.037,0.148,0.178,0.153,0.103c-0.007,0.115,0.077,0.243,0.178,0.294
						c0.482,0.243,0.928,0.579,1.376,0.88c0.47,0.315,0.979,0.573,1.458,0.875c0.443,0.279,0.88,0.567,1.301,0.88
						c0.453,0.337,0.943,0.887,1.483,1.048c-0.102-0.056-0.203-0.112-0.305-0.168c0.395,0.301,0.957,0.943,1.492,0.905
						c0.25-0.018,0.387-0.195,0.411-0.432c0.055-0.536-0.63-1.11-0.965-1.46c0.061,0.099,0.122,0.198,0.182,0.296
						c-0.251-0.561-0.839-0.938-1.325-1.299c-0.489-0.364-0.996-0.708-1.525-1.01c-0.525-0.299-1.064-0.579-1.639-0.771
						c-0.256-0.085-0.523-0.124-0.783-0.201c-0.305-0.09-0.605-0.111-0.914-0.182c-0.109-0.025-0.262,0-0.334,0.097
						c-0.066-0.004-0.131-0.001-0.196,0.009C281.493,108.869,281.452,108.951,281.505,108.998L281.505,108.998z"/>
				</g>
				<g>
					<path style="fill:#232323;" d="M175.228,143.561c-0.511-0.262-0.96-0.662-1.383-1.051c-0.412-0.378-0.811-0.791-1.132-1.249
						c-0.288-0.41-0.595-0.875-0.523-1.4c0.067-0.486,0.418-0.895,0.76-1.218c0.838-0.791,1.978-1.328,3.011-1.813
						c0.576-0.271,1.168-0.505,1.742-0.776c0.54-0.255,1.266-0.422,1.696-0.846c0.215-0.212,0.092-0.591-0.192-0.661
						c-0.671-0.166-1.625,0.174-2.27,0.373c-0.715,0.221-1.409,0.55-2.078,0.882c-1.217,0.604-2.562,1.299-3.399,2.407
						c-0.896,1.187-0.796,2.627,0.178,3.741c0.43,0.492,0.95,0.94,1.52,1.262c0.622,0.352,1.244,0.523,1.925,0.718
						C175.3,143.991,175.429,143.664,175.228,143.561L175.228,143.561z"/>
				</g>
				<g>
					<path style="fill:#232323;" d="M328.788,171.995c0.466,1.028,0.687,2.157,0.982,3.242c0.265,0.978,0.551,1.948,0.739,2.945
						c0.19,1.005,0.283,2.024,0.345,3.044c0.03,0.493,0.024,0.989,0.076,1.479c0.057,0.538-0.013,1.135,0.18,1.646
						c0.116,0.309,0.518,0.359,0.694,0.073c0.283-0.458,0.294-1.026,0.375-1.546c0.088-0.563,0.099-1.115,0.084-1.687
						c-0.029-1.109-0.191-2.217-0.411-3.303c-0.221-1.094-0.501-2.198-0.97-3.214c-0.476-1.034-1.144-1.936-1.756-2.888
						C328.984,171.563,328.685,171.768,328.788,171.995L328.788,171.995z"/>
				</g>
				<g>
					<path style="fill:#232323;" d="M161.327,195.497c-0.186-1.336-0.634-2.651-0.939-3.964c-0.338-1.453-0.564-2.963-0.55-4.457
						c0.014-1.447,0.139-2.915,0.386-4.341c0.126-0.727,0.285-1.449,0.372-2.182c0.093-0.781,0.02-1.347-0.257-2.072
						c-0.095-0.249-0.521-0.299-0.572,0.014c-0.474,2.934-1.104,5.832-0.856,8.828c0.225,2.718,0.507,5.997,2.285,8.212
						C161.234,195.582,161.338,195.574,161.327,195.497L161.327,195.497z"/>
				</g>
			</g>
		</g>
	</g>
</g>
</svg>
