<?xml version="1.0" encoding="utf-8"?>
<!-- Generator: Adobe Illustrator 27.5.0, SVG Export Plug-In . SVG Version: 6.00 Build 0)  -->
<svg version="1.1" xmlns="http://www.w3.org/2000/svg" xmlns:xlink="http://www.w3.org/1999/xlink" x="0px" y="0px"
	 viewBox="0 0 500 500" style="enable-background:new 0 0 500 500;" xml:space="preserve">
<g id="BACKGROUND">
	<rect style="fill:#EAEAEA;" width="500" height="500"/>
</g>
<g id="OBJECTS">
	<g>
		<defs>
			<rect id="SVGID_1_" width="500" height="500"/>
		</defs>
		<clipPath id="SVGID_00000182522893795256102030000011954916025397545617_">
			<use xlink:href="#SVGID_1_"  style="overflow:visible;"/>
		</clipPath>
		<g style="clip-path:url(#SVGID_00000182522893795256102030000011954916025397545617_);">
			<g>
				<path style="fill:#EFB614;" d="M357.845,339.554c9.353,0,17.641,2.394,23.303,8.875c5.662,6.481,14.429,17.647,18.887,29.393
					c4.458,11.746,11.673,40.027,11.673,40.027s2.932,26.402,3.092,40.232c0.16,13.83-0.613,44.876-0.613,44.876l-28.603-1.433
					c0,0-2.18-28.045-2.18-34.437s-3.348-30.599-7.435-39.522c-4.086-8.923-14.412-33.551-14.786-34.277
					c-0.374-0.726-19.051-23.652-24.285-29.252c-5.233-5.6-12.792-9.488-11.591-10.689
					C326.508,352.147,357.845,339.554,357.845,339.554z"/>
				<path style="fill:#474747;" d="M193.826,293.413c-10.15,5.87-19.089,16.438-20.107,20.674c-1.88,7.826,0.35,17.093,0.791,19.501
					c1.242,6.782,10.755,17.805,10.755,17.805s-13.945,3.442-19.506,6.334c-5.561,2.892-12.22,10.684-12.22,10.684
					s-19.587,20.238-20.638,21.364c-1.051,1.125-11.33,12.339-14.464,25.989c-3.134,13.65-10.479,46.399-10.479,46.399
					s-2.087,24.945-2.087,25.337s1.09,14.547,1.09,14.547s279.388,5.188,279.336,4.124c-0.051-1.065-1.007-20.873-1.089-22.512
					c-0.082-1.639-2.304-26.538-2.304-26.538l-5.289-24.547c0,0-9.697-26.455-14.525-36.438c-4.827-9.983-8.64-14.867-8.64-14.867
					l-17.063-17.232l-7.949-8.505l10.846-3.121c0,0,9.605-3.855,12.429-6.471c2.824-2.617,6.516-8.08,6.516-8.08
					s2.365-12.555,2.365-14.707c0-2.152-3.266-11.935-4.309-13.63c-1.043-1.696-9.957-12.216-9.957-12.216
					s-14.939-13.059-15.631-13.532c-0.691-0.474-7.386-4.289-9.939-5.355c-2.553-1.067-10.934-4.44-10.934-4.44
					s-6.065-2.674-6.442-3.051c-0.377-0.377-9.332-7.139-9.152-6.96C295.41,264.147,193.826,293.413,193.826,293.413z"/>
				<path style="fill:#383838;" d="M353.46,381.269l6.107,9.384c-7.321,7.321-29.168,55.826-31.948,78
					c-2.78,22.174-3.823,37.787-3.823,37.787s-12.261,2.576-12.261,0.838s2.955-54.538,2.955-54.538l25.479-62.609L353.46,381.269z"
					/>
				<path style="fill:#383838;" d="M246.084,371.217c-2.963-3.587-4.202-6-2.31-7.891c1.891-1.891,6.686-4.826,10.615-2.413
					c3.929,2.413,7.255,6.391,6.668,8.544c-0.587,2.152-4.304,3.159-4.304,3.159s-3.652,8.384,0,27.558
					c3.652,19.174,9.261,32.087,9.261,32.087s-4.476,4.565-5.369,2.283C259.752,432.261,250.1,420,250.1,406.957
					C250.1,393.913,246.084,371.217,246.084,371.217z"/>
				<path style="fill:#383838;" d="M283.654,281.011c11.837,5.652,17.707,14.159,18.685,17.781c0.978,3.622,1.81,8.953-1.761,12.524
					c-3.571,3.571-20.446,15.457-23.87,16.826c-3.424,1.37-17.346,10.247-17.346,10.247l-57.598,7.886c0,0-7.36-6.361-9.186-12.361
					c-1.826-6-2.82-13.37-2.82-13.37l6.863-10.891l5.397-3.179L283.654,281.011z"/>
				<path style="fill:#9B5B2F;" d="M252.593,133.537c-14.357-1.155-29.74-2.846-36.798-1.723c-7.057,1.124-27.18,4.221-27.18,4.221
					l-14.506,3.657c0,0,1.077,4.355,1.284,6.221c0.207,1.866-0.881,12.059-0.881,12.059s-4.719-5.05-7.817-6.681
					c-3.098-1.631-11.169-3.444-11.169-3.444s-7.849,1.592-8.573,1.843c-0.724,0.251-8.945,3.369-8.678,3.636
					s0.17,28.572,0.623,30.806c0.453,2.233,3.952,11.699,3.952,11.699s4.181,9.604,4.681,9.604s5.043,4.695,7.486,6.256
					c2.443,1.561,6,3.28,6.744,3.514c0.745,0.234,3.531,0.878,3.531,0.878l-2.789,4.286c0,0,1.885,1.07,4.567,1.07
					c2.682,0,4.144-0.928,4.144-0.928s-4.581,7.496-4.581,10.231c0,2.735-0.104,8.14,0.697,8.941
					c0.801,0.801,0.801,0.801,0.801,0.801l35.273,57.026l-1.853,25.474l3.208-0.775c0,0-1.939,20.543-1.939,21.275
					c0,0.732-1.819,2.379-1.819,2.379s9.774,5.294,12.877,6.3c3.104,1.006,10.743,3.093,16.017,2.269
					c5.274-0.824,13.486-3.333,14.082-3.929c0.596-0.596,15.385-12.116,15.385-12.116l-2.904-10.834l2.904-2.031
					c0,0-5.154-8.339-6.035-13.817c-0.88-5.478-2.215-17.765-2.215-17.765l16.596-7.181l7.12-2.226l3.543,1.724
					c0,0,3.935-4.104,5.283-7.039c1.348-2.935,3.507-12.958,3.507-12.958l5.886,2.727c0,0,1.762-6.006,2.004-7.422
					c0.242-1.415-0.342-9.723-0.342-9.723s-2.348-6.269-2.348-7.051c0-0.783-4.402-6.946-4.402-6.946s8.793-4.309,8.793-6.655
					s-1.205-6.389-1.205-6.715c0-0.326,6.075-2.152,6.075-2.152l13.448-3.931l7.338-3.162c0,0,3.378-1.984,3.738-2.882
					c0.36-0.897,3.291-4.373,3.291-4.373l5.886-18.239l0.584-9.366l-0.355-7.336l-3.864-14.035l-3.136-6.52l-8.309-1.745
					l-9.587,0.534l-10.613,3.844l-5.916,3.824l-17.601-13.52l-18.872-10.67L252.593,133.537z"/>
				<path style="fill:#7F4224;" d="M278.659,159.889c4.571,8.241,4.962,21.285-2.733,30.546
					c-7.696,9.261-19.174,13.203-19.174,13.203c1.043,8.188-4.88,13.184-4.88,13.184c15.315,6.743,24.492,22.917,25.316,31.656
					c0.825,8.739-6.023,32.804-7.914,34.696s-7.475,4.946-7.475,4.946l-29.236-74.076l34.033-34.304L278.659,159.889z"/>
				<path style="fill:#E8BE91;" d="M266.605,192.33c-3.92,2.6-14.73,7.97-14.73,7.97s0.92,3.7,0.72,5.46
					c-0.2,1.76-5.04,7.14-5.04,7.14l-7.04,3.92l9.78,5c0,0,5.65,4.74,10.27,8.42c0.68,0.54,1.34,1.06,1.96,1.54
					c4.79,3.72,10.56,14.91,10.56,14.91s1.03,8.91,1.03,9.55c0,0.64-6.36,19.37-6.36,19.37s-6.65,13.87-6.65,14.04
					c0,0.03-14.82,5.62-15.5,5.62c-0.69,0-8.61,1.76-12.43,2.74c-3.81,0.98-12.91,0.76-19.37,0.76c-6.45,0-15.36-1.26-15.36-1.26
					s-8.7-1.54-11.03-2.47c-2.33-0.93-5.35-2.59-7.73-4.97c-2.37-2.38-9.95-18.72-10.14-18.91c-0.2-0.2-4.36-16-4.82-16.73
					c-0.46-0.73,0.12-2.87,0.9-6.29c0.33-1.44,2.54-5.93,5.15-10.85c3.62-6.82,7.99-14.46,9.1-15.85c1.9-2.39,11.14-9.94,11.14-9.94
					s-5.87-4.76-9.13-10.17c-3.26-5.42,2.35-9.2,2.35-9.2s-1.73-0.62-3.27-2.15c-1.53-1.53-6.78-9.59-8.39-14.17
					c-1.62-4.59-0.41-11.07,0.98-13.55c1.39-2.48,6.24-14.28,13.15-16.63c6.92-2.35,15.61,1.19,17.32,2.32
					c1.71,1.12,9.54,4.79,13.01,5.91c3.47,1.13,9.29,0,14.48-1.12c0,0,4.4-0.39,7.14-0.78c2.74-0.39,9.68-2.25,13.94-2.84
					c4.25-0.59,11.01,0.29,13.84,0.78c2.84,0.49,9.59,4.01,11.43,8.14c1.83,4.14,0.12,15.44-1.32,19.76
					C275.105,182.11,270.515,189.72,266.605,192.33z"/>
				<path style="fill:#C9915F;" d="M210.97,169.109c3.522,10.435-9.946,20.152-18.571,18.571
					c-8.625-1.582-15.046-11.297-13.156-17.2C193.557,166.044,210.97,169.109,210.97,169.109z"/>
				<path style="fill:#C9915F;" d="M226.328,168.874c-1.956,11.844,5.087,21.137,14.576,21.137c9.489,0,17.911-8.659,17.075-16.656
					C251.078,167.902,226.328,168.874,226.328,168.874z"/>
				<path style="fill:#C9915F;" d="M274.115,256.24c0,0.64-6.36,19.37-6.36,19.37s-6.65,13.87-6.65,14.04
					c0,0.03-14.82,5.62-15.5,5.62c-0.69,0-8.61,1.76-12.43,2.74c-3.81,0.98-12.91,0.76-19.37,0.76c-6.45,0-15.36-1.26-15.36-1.26
					s-8.7-1.54-11.03-2.47c-2.33-0.93-5.35-2.59-7.73-4.97c-2.37-2.38-9.95-18.72-10.14-18.91c-0.2-0.2-4.36-16-4.82-16.73
					c-0.46-0.73,0.12-2.87,0.9-6.29c0.33-1.44,2.54-5.93,5.15-10.85c4.19,21.1,46.85,21.97,67.59,9.4
					c20.74-12.56,22.2-16.45,22.2-16.45c0.68,0.54,1.34,1.06,1.96,1.54c4.79,3.72,10.56,14.91,10.56,14.91
					S274.115,255.6,274.115,256.24z"/>
				<path style="fill:#E8BE91;" d="M292.545,174.043c3.562-8.405,10.772-15.998,16.675-16.314
					c7.782-0.416,16.108,2.513,18.847,9.413c2.739,6.901,2.935,22.869,0.88,29.423c-2.054,6.554-11.054,16.924-15.359,18.783
					c-4.304,1.859-18.365,6.918-18.365,5.905s-8.342-22.242-8.342-22.242l8.342-4.781c0,0,0.418-6.665,0-10.284
					C294.807,180.326,292.545,174.043,292.545,174.043z"/>
				<path style="fill:#E8BE91;" d="M171.492,165.172c-4.349-5.781-11.83-9.367-15.133-9.041s-7.412,0.522-9.89,4.565
					c-2.478,4.043-2.739,14.178-2.413,15.73c0.326,1.552,1.601,12.704,3.474,16.813c1.873,4.109,6.439,12.978,7.286,13.826
					c0.848,0.848,11.436,6.87,11.436,6.87s4.053-8.934,3.645-9.206c-0.407-0.273-4.202-2.706-5.337-4.946
					c-1.135-2.24-1.396-4.196-1.396-4.196l7.19-16.132l1.875-8.521L171.492,165.172z"/>
				<path style="fill:#C9915F;" d="M295.321,192.254c4.344-16.819,22.8-21.971,27.757-19.493c4.957,2.478,6.652,7.63,6.652,7.63
					c-0.783-13.239-4.63-22.193-15.848-22.673c-11.217-0.48-16.079,6.804-17.724,9.423c-1.645,2.619-3.332,7.708-3.332,7.708
					L295.321,192.254z"/>
				<path style="fill:#C9915F;" d="M171.492,165.172c-6.728-6.728-10.936-9.55-14.458-9.55c-3.522,0-10.37,0.248-12.391,7.878
					c-2.022,7.63-1.224,15.065-1.224,15.065c1.876-5.087,12.292-8.413,19.084-5.739c6.792,2.674,7.444,8.609,7.444,8.609
					C172.035,177.065,171.492,165.172,171.492,165.172z"/>
				<path style="fill:#EFB614;" d="M299.185,154.88l-1.85,1.99l-4,2.07l-4.04-4.37c0,0-8.94-6.21-11.25-7.5
					c-2.3-1.3-23.7-12.53-23.7-13.11c0-0.59-2.25-3.25-3.01-4.07c-0.76-0.81-9.09-7.35-10.45-8.7
					c-1.36-1.36-18.37-11.49-18.37-11.49s-23.26-9.97-22.2-12.76c0.92-2.39,2.51-5.19,3.31-6.54c0.3-0.5,0.49-0.8,0.49-0.8
					s6.07-7.3,9.5-8.58c3.43-1.29,16.92-2.5,16.92-2.5s8.88,0.19,11.22,0.47c2.34,0.28,16.78,3.31,16.78,3.31s12.9,5.27,17.99,8.1
					s12.1,17.38,12.69,18.64c0.6,1.26,7.32,22.4,7.32,22.4s0.08,0.76,0.22,2.02c0.01,0.01,0.01,0.01,0,0.02
					C297.365,138.95,298.995,153.67,299.185,154.88z"/>
				<path style="fill:#474747;" d="M253.555,132.58c0,0-0.19,1.14-0.39,1.34c-0.2,0.21-10.4-1.78-13.12-1.78
					c-2.72,0-22.23-0.14-27.12,0.5c-4.89,0.63-20.12,3.39-20.12,3.39l-18.7,3.66c0,0-9.97-3.61-12.34-4.5
					c-1.63-0.61-6.82-2.97-10.55-4.85c-1.68-0.86-3.07-1.61-3.68-2.06c-1.97-1.43-11.31-7.24-14.14-10.27s-2.27-5.12-1.29-10.28
					c0.97-5.16,12.6-10.44,14.55-11.39c1.96-0.96,16.18-6.41,23.53-6.41c7.36,0,23.77,4.38,27.92,6.03
					c2.72,1.08,13.95,7.26,21.35,11.36c3.86,2.16,6.68,3.75,6.68,3.75s18.06,12.83,26.61,20.74
					C253.025,132.07,253.295,132.33,253.555,132.58z"/>
				<path style="fill:#EFB614;" d="M151.426,368.087c-3.652,1.761-14.34,11.927-13.948,13.431c0.391,1.504,2.177,5.221,3.986,9.086
					c1.81,3.864,12.114,32.918,12.114,32.918s11.217,37.826,11.478,38.478c0.261,0.652,17.115,39,17.115,39h15.76l-15.398-57.501
					l-13.303-42.934c0,0-9.13-20.572-9.13-20.821c0-0.248-6.016-9.636-6.016-9.636L151.426,368.087z"/>
				<path style="fill:#EFB614;" d="M339.542,364.21c-2.703,0.5-8.834,15.616-8.834,15.616l-12.522,32.054l-7.043,21.424
					l-8.12,33.163l-5.87,35.804l20.152-0.489c0,0-0.783-14.087,1.467-21.815s7.63-29.25,7.63-29.25l10.272-32.967l13.337-31.076
					c0,0,3.447-5.87,3.447-7.5s-1.891-4.645-4.015-6.878C347.321,370.062,341.532,363.722,339.542,364.21z"/>
				<path style="fill:#FFF6EB;" d="M211.557,272.413c6.587-1.891,16.141-4.859,18.522-7.239c2.381-2.38,8.478-9.522,10.435-10.63
					c1.957-1.109,3.913-3.522,6.065-1.37c2.152,2.152,1.696,8.413-0.228,10.044s-10.337,7.304-13.533,8.87
					c-3.196,1.565-11.478,4.026-15,4.026c-3.522,0-8.45-1.306-8.45-2.438C209.367,272.543,211.557,272.413,211.557,272.413z"/>
				<path style="fill:#FFF6EB;" d="M179.991,170.641c0.163,3.261,5.772,12.141,12.326,11.272c6.554-0.869,12.065-5.043,12.62-6.674
					c0.554-1.63,2.108-6.13,2.108-6.13L179.991,170.641z"/>
				<path style="fill:#FFF6EB;" d="M228.22,169.337c-0.652,2.38,1.565,8.38,4.826,10.663c3.261,2.283,10.174,4.306,12.848,3.751
					c2.674-0.555,9.033-4.015,9.554-6.492c0.522-2.476,0.541-3.879,0.541-3.879l-15.947-3.143L228.22,169.337z"/>
				<path style="fill:#232323;" d="M177.721,161.397l1.522,3.503c0,0,19.89-5.839,19.89-6.437c0-0.598-1.272-3.583-1.516-3.583
					C197.372,154.879,177.721,161.397,177.721,161.397z"/>
				<path style="fill:#232323;" d="M244.084,157.729l-4.042,5.457l12.798,3.836c0,0,6.168,1.762,6.31,1.621
					c0.142-0.141,1.989-3.479,1.989-3.479L244.084,157.729z"/>
				<path style="fill:#7F4224;" d="M175.742,143.087c17.097-3.391,50.631-6,56.82-6c6.19,0,11.483,0.334,21.032,2.384
					c9.549,2.05,30.793,16.638,30.793,16.638l3.765,10.074c0,0,6.999-5.283,5.187-7.244c-1.813-1.961-14.913-11.681-20.506-14.674
					c-5.593-2.993-19.668-10.342-19.668-10.342l-31.555-1.785c0,0-8.163,0-9.206,0c-1.043,0-19.599,3.895-19.599,3.895
					l-18.696,3.657L175.742,143.087z"/>
				<path style="fill:#7F4224;" d="M203.601,310.826c17.543,3.522,48.4-0.814,48.4-0.814l-0.888-16.07c0,0-7.655,3.865-26.839,4.102
					c-19.184,0.237-22.95,0.237-22.95,0.237S203.601,307.435,203.601,310.826z"/>
				<path style="fill:#232323;" d="M228.448,202.5c6.293-2.478,15.065-3.913,15.946-1.337c0.88,2.576-1.891,5.511-4.533,5.348
					C237.22,206.348,228.448,202.5,228.448,202.5z"/>
				<path style="fill:#232323;" d="M206.339,200.772c-5.25-2.641-10.859-5.48-12.946-4.941c-2.087,0.539-4.794,3.213-2.902,5.104
					c1.891,1.891,3.848,2.446,6.75,1.891C200.144,202.272,205.442,201.669,206.339,200.772z"/>
				<path style="fill:#383838;" d="M204.008,371.38c-3.08,0-5.975,0.518-4.643-2.969c1.332-3.487,2.91-6.884,5.577-7.107
					c2.667-0.223,7.942-1.17,9.422-0.28s3.481,2.37,3.481,3.481s-3.481,3.906-3.481,3.906s3.715,64.816,3.144,64.816
					c-0.571,0-9.546,2.849-9.069,1.316C208.915,433.011,204.008,371.38,204.008,371.38z"/>
				<path style="fill:#EFB614;" d="M204.942,365.616c0.941,0.091,7.202,0,7.202,0l-0.489,33.254l1.957,31.696l-8.877,2.662
					c0,0,0.562-14.401,0.855-16.651s0.489-22.5,0.196-23.674c-0.294-1.174-1.957-13.206-1.761-14.576
					C204.22,376.957,204.942,365.616,204.942,365.616z"/>
				<path style="fill:#EFB614;" d="M248.596,365.616c-3.093,6.841-3.299,25.721-3,29.536c0.298,3.815,2.842,19.467,4.505,23.772
					c1.663,4.304,8.022,19.957,8.022,19.957l5.346-4.337c0,0-7.205-16.402-8.477-21.587c-1.272-5.185-3.228-22.109-3.228-23.185
					c0-1.076,0.268-14.835,1.308-17.591c1.04-2.757,1.92-4.615,1.92-4.615L248.596,365.616z"/>
				<path style="fill:#383838;" d="M138.433,384.032l-4.576,4.744c0,0,10.396,19.974,14.211,35.039
					c3.815,15.065,21.424,78.652,21.424,78.652l11.837,1.286l-17.902-45.503l-11.388-39.053L138.433,384.032z"/>
				<path style="fill:#383838;" d="M286.23,344.277c3.913,2.158,9.261,3.537,13.044,4.152c3.783,0.615,13.565,2.31,17.739,3.223
					c4.174,0.913,10.606,3.921,10.606,3.921s10.597-1.662,18.126-5.648c7.529-3.986,10.784-8.349,11.442-9.36
					c0.658-1.011,3.441-8.585,3.441-8.585s-0.375-13.002-1.028-14.893c-0.652,6.913-3.848,16.892-14.022,20.772
					c-10.174,3.88-27.703,0.568-38.895,2.126C295.491,341.543,286.23,344.277,286.23,344.277z"/>
				<path style="fill:#F9CDA5;" d="M204.942,216.822c-14.475,2.008-31.407,17.178-20.712,22.395
					c10.696,5.217,39.551,5.521,47.348-2.276C239.375,229.145,222.523,214.384,204.942,216.822z"/>
				<path style="fill:#F9CDA5;" d="M212.796,203.638c-8.217-5.377-19.826-10.281-16.435-10.281c3.391,0,10.14,5.1,20.722,3.894
					c10.582-1.207,20.104-2.839,22.582-1.42C242.144,197.25,219.187,204.58,212.796,203.638z"/>
				<path style="fill:#FFCD39;" d="M296.755,133.46c-5.39-13.65-21.42-26.82-31.13-34.72c-9.79-7.96-46.68-14.87-62-8.34
					c0.3-0.5,0.49-0.8,0.49-0.8s6.07-7.3,9.5-8.58c3.43-1.29,16.92-2.5,16.92-2.5s8.88,0.19,11.22,0.47
					c2.34,0.28,16.78,3.31,16.78,3.31s12.9,5.27,17.99,8.1s12.1,17.38,12.69,18.64c0.6,1.26,7.32,22.4,7.32,22.4
					S296.615,132.2,296.755,133.46z"/>
				<path style="fill:#383838;" d="M253.555,132.58c0,0-0.19,1.14-0.39,1.34c-0.2,0.21-10.4-1.78-13.12-1.78
					c-2.72,0-22.23-0.14-27.12,0.5c-4.89,0.63-20.12,3.39-20.12,3.39l-18.7,3.66c0,0-9.97-3.61-12.34-4.5
					c-1.63-0.61-6.82-2.97-10.55-4.85c11.79-8.42,41.58-26.2,68.12-22.99l0.12-0.03c3.86,2.16,6.68,3.75,6.68,3.75
					s18.06,12.83,26.61,20.74C253.025,132.07,253.295,132.33,253.555,132.58z"/>
			</g>
			<g>
				<g>
					<path style="fill:#232323;" d="M179.196,170.516c0.447,0.102,0.859,0.343,1.315,0.439c0.492,0.104,1.021,0.092,1.521,0.14
						c0.996,0.097,1.991,0.214,2.992,0.256c1.966,0.082,3.944-0.026,5.903-0.184c3.977-0.321,7.924-0.959,11.907-1.204
						c1.097-0.067,2.197-0.105,3.296-0.096c0.549,0.004,1.099,0.02,1.647,0.048c0.58,0.03,1.185,0.141,1.763,0.073
						c1.043-0.123,1.223-1.491,0.202-1.832c-0.935-0.312-2.093-0.247-3.073-0.268c-0.981-0.021-1.962-0.003-2.943,0.042
						c-2.009,0.093-4.011,0.301-6.008,0.536c-4,0.469-7.994,1.102-12.031,1.122c-1.113,0.006-2.222-0.035-3.334-0.068
						c-0.576-0.017-1.212-0.089-1.782,0.026c-0.555,0.112-0.936,0.388-1.432,0.613C178.983,170.232,179.044,170.482,179.196,170.516
						L179.196,170.516z"/>
				</g>
				<g>
					<path style="fill:#232323;" d="M224.883,168.311c0.206,0.409,0.674,0.547,1.073,0.726c0.544,0.245,1.123,0.43,1.691,0.61
						c1.059,0.336,2.135,0.618,3.233,0.793c2.271,0.361,4.581,0.117,6.862,0.402c4.418,0.551,8.671,1.974,13.058,2.696
						c2.428,0.4,5.018,0.685,7.462,0.264c-0.266-0.59-0.531-1.179-0.797-1.769c-0.285,0.195-0.417,0.405-0.645,0.648
						c-0.204,0.219-0.448,0.38-0.642,0.615c-0.225,0.272-0.065,0.703,0.31,0.7c0.285-0.003,0.542-0.071,0.822-0.096
						c0.34-0.031,0.617,0.002,0.952-0.098c1.046-0.312,0.808-1.963-0.307-1.915c-2.149,0.094-4.212,0.11-6.347-0.216
						c-2.141-0.327-4.249-0.832-6.356-1.324c-2.115-0.494-4.235-0.967-6.391-1.243c-1.078-0.138-2.161-0.238-3.248-0.264
						c-1.173-0.027-2.345,0.045-3.518-0.018c-1.228-0.066-2.423-0.321-3.62-0.59c-0.637-0.143-1.27-0.318-1.915-0.421
						c-0.502-0.08-1.114-0.258-1.566,0.031C224.829,167.947,224.799,168.144,224.883,168.311L224.883,168.311z"/>
				</g>
				<g>
					<path style="fill:#232323;" d="M228.748,169.476c-0.414-0.398-1.058-0.358-1.471,0.043c-0.505,0.49-0.571,1.369-0.559,2.019
						c0.029,1.52,0.513,2.98,1.263,4.292c1.584,2.771,4.24,4.885,7.003,6.402c2.918,1.602,6.247,2.605,9.598,2.498
						c3.027-0.096,5.899-1.187,8.231-3.113c1.197-0.988,2.225-2.207,2.959-3.577c0.6-1.121,1.747-3.407,0.492-4.437
						c-0.143-0.117-0.32-0.143-0.484-0.05c-1.007,0.568-1.012,1.936-1.442,2.898c-0.471,1.053-1.121,1.997-1.918,2.829
						c-1.619,1.689-3.763,2.834-6.058,3.276c-5.357,1.031-11.294-1.518-15.045-5.297c-0.978-0.986-1.854-2.13-2.389-3.421
						c-0.259-0.625-0.47-1.287-0.562-1.958c-0.045-0.332-0.102-0.732-0.065-1.069c0.02-0.179,0.153-0.708,0.313-0.761
						C228.854,169.967,228.936,169.656,228.748,169.476L228.748,169.476z"/>
				</g>
				<g>
					<path style="fill:#232323;" d="M206.874,169.605c-1.228,1.716-1.962,3.697-3.316,5.342c-1.358,1.65-3.033,3.001-4.911,4.018
						c-1.855,1.005-3.934,1.696-6.036,1.917c-1.323,0.139-2.693,0.127-3.916-0.462c-1.129-0.544-2.118-1.364-3.018-2.227
						c-0.959-0.92-1.809-1.933-2.535-3.047c-0.384-0.59-0.734-1.202-1.047-1.832c-0.141-0.285-0.273-0.572-0.395-0.866
						c-0.064-0.155-0.357-0.73-0.318-0.831c-0.08,0.145-0.159,0.29-0.239,0.435c0.064-0.047,0.116-0.105,0.156-0.173
						c0.143-0.186,0.086-0.135-0.171,0.153c-0.236,0.006-0.472,0.012-0.708,0.017c0.535,0.228,1.098-0.137,1.065-0.742
						c-0.025-0.457-0.444-0.99-0.958-0.913c-1.99,0.301-0.751,2.591-0.234,3.681c0.604,1.273,1.36,2.469,2.238,3.571
						c1.769,2.219,4.247,4.611,7.155,5.093c2.677,0.444,5.639-0.232,8.096-1.314c2.328-1.026,4.456-2.499,6.181-4.375
						c1.735-1.888,3.69-4.656,3.275-7.355C207.21,169.498,206.992,169.441,206.874,169.605L206.874,169.605z"/>
				</g>
				<g>
					<path style="fill:#232323;" d="M179.018,165.529c1.761-0.018,3.57-0.557,5.258-1.027c1.778-0.495,3.533-1.073,5.256-1.733
						c3.233-1.238,6.444-3.105,10-3.053c0.566,0.008,1.096-0.648,0.87-1.203c-0.422-1.036-0.84-2.074-1.268-3.107
						c-0.408-0.985-0.964-1.636-2.116-1.391c-2.155,0.458-4.291,1.15-6.392,1.806c-4.167,1.302-8.281,2.812-12.28,4.567
						c-1.042,0.457-1.791,1.137-1.49,2.375c0.27,1.108,0.883,2.238,1.668,3.058c0.713,0.745,1.874-0.259,1.371-1.113
						c-0.278-0.472-0.585-0.932-0.823-1.426c-0.108-0.223-0.201-0.453-0.282-0.687c-0.045-0.125-0.085-0.252-0.119-0.38
						c-0.092,0.142-0.082,0.17,0.028,0.086c0.412-0.271,0.948-0.423,1.401-0.614c0.512-0.216,1.026-0.429,1.541-0.638
						c2.098-0.852,4.219-1.647,6.36-2.382c2.141-0.735,4.303-1.412,6.482-2.028c0.535-0.151,1.071-0.299,1.608-0.443
						c0.307-0.082,0.614-0.163,0.922-0.243c0.115-0.03,0.231-0.06,0.346-0.089c0.194-0.024,0.157-0.069-0.111-0.135
						c0.079,0.505,0.441,1.076,0.637,1.553c0.243,0.591,0.488,1.182,0.732,1.773c0.29-0.401,0.58-0.802,0.87-1.203
						c-3.639-0.035-6.868,1.736-10.136,3.099c-1.669,0.696-3.37,1.314-5.096,1.852c-1.786,0.557-3.686,0.892-5.419,1.588
						C178.248,164.626,178.328,165.536,179.018,165.529L179.018,165.529z"/>
				</g>
				<g>
					<path style="fill:#232323;" d="M243.698,157.545c-0.95,0.214-1.618,1.232-2.195,1.965c-0.691,0.878-1.38,1.758-2.07,2.637
						c-0.346,0.441-0.286,1.005,0.202,1.315c5.94,3.764,13.326,3.788,19.809,6.142c0.402,0.146,0.915-0.126,1.107-0.483
						c0.483-0.9,1.137-1.83,1.463-2.799c0.323-0.961-0.198-1.679-0.986-2.173c-1.693-1.062-3.683-1.592-5.502-2.39
						c-3.704-1.624-7.1-4.103-11.13-4.929c-1.235-0.253-1.591,1.432-0.463,1.858c1.638,0.618,3.288,1.122,4.877,1.873
						c1.595,0.754,3.11,1.661,4.692,2.441c1.542,0.76,3.172,1.298,4.748,1.977c0.17,0.073,2.058,0.923,2,1.041
						c-0.081-0.276-0.152-0.319-0.213-0.129c-0.058,0.108-0.116,0.217-0.174,0.325c-0.116,0.216-0.232,0.433-0.348,0.649
						c-0.232,0.433-0.464,0.866-0.697,1.299c0.369-0.161,0.738-0.322,1.107-0.483c-3.284-1.19-6.693-1.839-10.099-2.568
						c-3.239-0.694-6.465-1.49-9.379-3.121c0.11,0.38,0.219,0.761,0.329,1.141c0.642-0.914,1.285-1.828,1.926-2.743
						c0.539-0.769,1.313-1.691,1.243-2.666C243.936,157.594,243.823,157.517,243.698,157.545L243.698,157.545z"/>
				</g>
				<g>
					<path style="fill:#232323;" d="M211.778,204.555c-0.966-1.261-2.31-2.235-3.608-3.133c-1.343-0.928-2.739-1.777-4.164-2.574
						c-1.461-0.816-2.959-1.564-4.485-2.25c-1.432-0.643-2.993-1.47-4.568-1.657c-2.63-0.312-6.145,1.739-5.72,4.728
						c0.191,1.337,1.072,2.473,2.194,3.187c1.253,0.796,2.835,0.938,4.283,0.873c1.872-0.084,3.747-0.369,5.609-0.572
						c0.969-0.105,1.938-0.211,2.906-0.317c0.949-0.103,1.867-0.009,2.461-0.862c0.155-0.222,0.071-0.58-0.116-0.755
						c-0.586-0.546-1.168-0.422-1.907-0.34c-0.727,0.08-1.453,0.16-2.18,0.24c-1.493,0.165-2.987,0.329-4.48,0.494
						c-2.151,0.237-5.296,0.82-6.627-1.421c-0.539-0.908-0.285-1.847,0.522-2.492c0.98-0.784,2.295-1.118,3.507-0.795
						c1.338,0.355,2.64,0.963,3.904,1.52c1.283,0.565,2.547,1.176,3.79,1.824c1.378,0.718,2.722,1.496,4.046,2.307
						c1.371,0.839,2.714,1.82,4.191,2.46C211.605,205.137,212.002,204.847,211.778,204.555L211.778,204.555z"/>
				</g>
				<g>
					<path style="fill:#232323;" d="M220.347,207.204c1.187-0.647,2.35-1.324,3.599-1.849c1.235-0.519,2.504-0.938,3.781-1.342
						c2.972-0.941,5.959-1.912,9.046-2.405c1.499-0.24,3.021-0.365,4.539-0.322c0.641,0.018,1.399-0.008,2.014,0.203
						c0.492,0.168,0.634,0.686,0.604,1.168c-0.069,1.122-0.996,2.058-1.974,2.504c-1.275,0.582-2.791,0.523-4.144,0.322
						c-1.563-0.232-3.109-0.636-4.583-1.208c-0.733-0.285-1.449-0.619-2.145-0.986c-0.737-0.388-1.411-0.914-2.232-1.093
						c-0.656-0.143-1.329,0.618-0.896,1.227c0.505,0.711,1.225,1.086,1.982,1.495c0.763,0.412,1.549,0.775,2.354,1.096
						c1.557,0.622,3.165,1.09,4.822,1.355c3.11,0.499,7.075,0.145,8.456-3.206c0.573-1.39,0.466-3.246-0.867-4.175
						c-0.639-0.445-1.39-0.525-2.148-0.59c-0.936-0.079-1.878-0.087-2.816-0.038c-3.641,0.192-7.175,1.217-10.617,2.355
						c-1.775,0.587-3.566,1.161-5.268,1.939c-1.535,0.702-3.074,1.664-3.89,3.184C219.83,207.088,220.111,207.333,220.347,207.204
						L220.347,207.204z"/>
				</g>
				<g>
					<path style="fill:#232323;" d="M193.307,212.343c-2.79-2.527-6.223-4.281-8.507-7.361c-1.921-2.59-3.056-6.288-1.759-9.404
						c1.445-3.47,5.551-4.727,8.988-5.03c3.96-0.349,7.878,0.466,11.701,1.416c3.91,0.972,7.787,2.145,11.787,2.694
						c4.11,0.564,8.225,0.304,12.343-0.014c7.228-0.559,16.431-1.444,21.695,4.701c1.007,1.175,1.805,2.652,1.998,4.204
						c0.218,1.75-0.322,3.404-1.273,4.862c-2.011,3.083-5.502,5.315-8.862,6.66c-0.879,0.352-1.729,0.77-2.608,1.123
						c-0.636,0.256-0.585,1.361,0.206,1.284c4.107-0.398,7.911-2.674,10.837-5.514c2.837-2.752,4.639-6.61,3.196-10.528
						c-1.302-3.534-4.46-6.174-7.897-7.524c-4.081-1.603-8.514-1.774-12.844-1.558c-4.423,0.221-8.838,0.817-13.273,0.642
						c-4.397-0.174-8.652-1.362-12.888-2.463c-4.135-1.075-8.375-2.107-12.678-1.992c-3.895,0.104-8.505,1.12-11.024,4.364
						c-2.356,3.034-2.199,7.215-0.641,10.573c1.721,3.709,5.145,6.199,8.558,8.235c0.832,0.497,1.752,0.818,2.661,1.145
						C193.316,212.965,193.521,212.537,193.307,212.343L193.307,212.343z"/>
				</g>
				<g>
					<path style="fill:#232323;" d="M189.736,212.126c-1.408,0.811-2.809,1.637-4.091,2.641c-1.23,0.963-2.432,1.992-3.555,3.079
						c-2.302,2.23-4.416,4.641-6.343,7.201c-3.834,5.092-6.972,10.715-9.137,16.718c-1.214,3.365-2.023,6.866-2.286,10.436
						c-0.035,0.473,0.665,0.499,0.792,0.088c1.832-5.919,3.748-11.83,6.627-17.34c2.879-5.511,6.489-10.566,10.77-15.076
						c1.213-1.278,2.455-2.531,3.743-3.734c1.28-1.195,2.492-2.456,3.783-3.639C190.247,212.308,189.967,211.993,189.736,212.126
						L189.736,212.126z"/>
				</g>
				<g>
					<path style="fill:#232323;" d="M164.732,251.838c-0.46,1.31-0.292,2.864-0.133,4.222c0.171,1.463,0.413,2.919,0.692,4.365
						c0.559,2.897,1.316,5.763,2.25,8.562c1.882,5.642,4.429,11.061,7.59,16.099c0.879,1.402,1.817,2.758,2.811,4.081
						c1.012,1.346,2.183,2.543,3.385,3.716c0.379,0.37,1.028-0.139,0.727-0.591c-1.609-2.417-3.224-4.838-4.802-7.279
						c-1.583-2.449-3.022-4.992-4.307-7.61c-2.54-5.173-4.469-10.614-5.823-16.214c-0.379-1.569-0.707-3.148-1.007-4.733
						c-0.289-1.528-0.451-3.278-1.24-4.639C164.838,251.753,164.753,251.778,164.732,251.838L164.732,251.838z"/>
				</g>
				<g>
					<path style="fill:#232323;" d="M234.313,215.033c0.724,0.387,1.406,0.786,2.166,1.1c0.758,0.313,1.522,0.611,2.269,0.948
						c1.503,0.676,3.021,1.315,4.501,2.039c2.964,1.45,5.826,3.129,8.542,5.002c5.411,3.732,10.287,8.337,14.299,13.546
						c1.143,1.484,2.219,3.019,3.223,4.6c0.494,0.777,0.968,1.566,1.428,2.364c0.48,0.833,1.081,1.563,1.606,2.362
						c0.34,0.517,1.273,0.162,1.031-0.465c-0.311-0.804-0.546-1.612-0.952-2.38c-0.4-0.757-0.854-1.489-1.306-2.216
						c-0.888-1.429-1.835-2.822-2.836-4.174c-2.027-2.737-4.267-5.32-6.698-7.706c-4.821-4.734-10.433-8.732-16.509-11.689
						c-1.704-0.829-3.451-1.622-5.243-2.243c-0.894-0.31-1.807-0.584-2.719-0.838c-0.93-0.259-1.805-0.343-2.763-0.417
						C234.262,214.857,234.238,214.993,234.313,215.033L234.313,215.033z"/>
				</g>
				<g>
					<path style="fill:#232323;" d="M272.775,242.619c0.084,0.831,0.053,1.679,0.103,2.514c0.051,0.84,0.049,1.686,0.083,2.528
						c0.069,1.693,0.084,3.385,0.001,5.077c-0.168,3.393-0.694,6.767-1.47,10.072c-1.535,6.535-4.159,12.759-7.279,18.686
						c-0.874,1.66-1.789,3.3-2.653,4.965c-0.883,1.702-1.69,3.435-2.524,5.162c-0.174,0.361,0.325,0.795,0.599,0.44
						c1.059-1.368,2.132-2.729,3.077-4.178c0.921-1.413,1.762-2.875,2.584-4.348c1.673-2.999,3.155-6.126,4.468-9.299
						c2.654-6.417,4.51-13.194,4.834-20.157c0.089-1.923,0.065-3.848-0.099-5.767c-0.084-0.981-0.212-1.953-0.445-2.91
						c-0.108-0.442-0.161-0.908-0.289-1.344c-0.151-0.514-0.398-0.998-0.554-1.513C273.14,242.316,272.749,242.363,272.775,242.619
						L272.775,242.619z"/>
				</g>
				<g>
					<path style="fill:#232323;" d="M181.625,291.516c3.297,3.803,8.353,5.603,13.16,6.567c5.153,1.033,10.44,1.229,15.679,1.388
						c11.157,0.338,22.447-0.041,33.356-2.592c2.999-0.701,5.959-1.571,8.848-2.638c2.942-1.086,5.907-2.327,8.608-3.931
						c0.869-0.516,0.065-1.751-0.813-1.316c-2.456,1.216-4.895,2.419-7.458,3.402c-2.507,0.961-5.07,1.771-7.668,2.448
						c-5.278,1.375-10.684,2.193-16.116,2.645c-5.452,0.453-10.929,0.551-16.397,0.451c-5.163-0.094-10.387-0.211-15.506-0.946
						c-2.742-0.393-5.468-0.996-8.078-1.934c-2.652-0.954-5.097-2.228-7.465-3.75C181.644,291.225,181.535,291.413,181.625,291.516
						L181.625,291.516z"/>
				</g>
				<g>
					<path style="fill:#232323;" d="M172.181,167.77c-0.483,0.799-0.576,1.932-0.712,2.843c-0.148,0.991-0.316,1.98-0.503,2.964
						c-0.381,2.008-0.842,4.002-1.414,5.964c-1.158,3.967-2.752,7.799-4.746,11.419c-0.554,1.006-1.165,1.976-1.741,2.97
						c-0.6,1.036-1.154,2.042-1.621,3.144c-0.161,0.38,0.262,0.708,0.581,0.426c0.371-0.328,0.77-0.64,1.085-1.023
						c0.357-0.434,0.676-0.899,1.003-1.354c0.609-0.845,1.136-1.745,1.647-2.652c1.04-1.843,1.976-3.745,2.805-5.692
						c1.636-3.845,2.923-7.885,3.653-12.004c0.205-1.157,0.372-2.318,0.492-3.486c0.058-0.569,0.113-1.135,0.114-1.708
						c0-0.566-0.003-1.24-0.227-1.767C172.521,167.637,172.288,167.593,172.181,167.77L172.181,167.77z"/>
				</g>
				<g>
					<path style="fill:#232323;" d="M162.971,194.885c-0.356,0.355-0.571,0.694-0.517,1.23c0.054,0.54,0.225,1.03,0.424,1.532
						c0.42,1.057,0.977,2.042,1.638,2.967c0.644,0.9,1.37,1.764,2.197,2.503c0.409,0.366,0.855,0.713,1.309,1.023
						c0.43,0.294,1.041,0.684,1.565,0.745c0.246,0.029,0.48-0.206,0.328-0.45c-0.246-0.395-0.673-0.682-1.003-1.004
						c-0.36-0.35-0.758-0.659-1.117-1.012c-0.718-0.704-1.422-1.42-2.036-2.219c-0.598-0.778-1.126-1.613-1.604-2.469
						c-0.244-0.437-0.475-0.879-0.682-1.335c-0.168-0.372-0.429-0.973-0.283-1.39C163.234,194.877,163.056,194.801,162.971,194.885
						L162.971,194.885z"/>
				</g>
				<g>
					<path style="fill:#232323;" d="M170.285,202.054c-1.918,6.211-4.214,12.31-8.359,17.411c-0.328,0.403-0.276,0.972,0.192,1.249
						c2.996,1.767,6.847,1.71,9.799-0.122c-0.378-0.36-0.755-0.72-1.133-1.079c-0.829,1.811-1.658,3.622-2.491,5.432
						c-0.819,1.781-1.717,3.548-2.394,5.389c-0.651,1.77-0.818,3.585-0.522,5.447c0.146,0.918,0.355,1.84,0.685,2.71
						c0.348,0.917,0.86,1.688,1.299,2.551c0.242,0.476,0.953,0.111,0.826-0.373c-0.23-0.87-0.35-1.77-0.58-2.646
						c-0.218-0.831-0.471-1.652-0.602-2.503c-0.275-1.774-0.018-3.463,0.635-5.126c0.65-1.657,1.45-3.265,2.186-4.886
						c0.789-1.738,1.582-3.475,2.374-5.213c0.322-0.705-0.406-1.532-1.133-1.079c-2.477,1.543-5.663,1.575-8.179,0.102
						c0.064,0.416,0.128,0.832,0.192,1.249c4.199-5.202,7.442-11.687,7.412-18.489C170.492,201.954,170.319,201.943,170.285,202.054
						L170.285,202.054z"/>
				</g>
				<g>
					<path style="fill:#232323;" d="M284.321,161.404c0.507,0.992,1.245,1.894,1.87,2.82c0.652,0.967,1.335,1.93,1.901,2.951
						c1.127,2.033,2.23,4.057,3.116,6.211c1.73,4.207,2.82,8.699,3.133,13.24c0.176,2.559-0.064,5.15,0.344,7.684
						c0.036,0.225,0.415,0.261,0.501,0.053c0.906-2.191,0.891-4.635,0.768-6.973c-0.126-2.376-0.457-4.745-0.973-7.068
						c-1.029-4.636-2.863-9.107-5.415-13.113c-0.711-1.117-1.54-2.177-2.375-3.203c-0.793-0.974-1.699-2.033-2.764-2.711
						C284.354,161.249,284.289,161.34,284.321,161.404L284.321,161.404z"/>
				</g>
				<g>
					<path style="fill:#232323;" d="M295.188,193.243c-1.465,0.798-2.596,2.082-3.946,3.057c-1.379,0.995-2.891,1.813-4.484,2.404
						c-0.532,0.198-0.674,0.704-0.451,1.193c2.491,5.466,4.648,11.081,6.421,16.821c0.896,2.903,1.697,5.835,2.399,8.79
						c0.336,1.416,0.79,2.891,0.911,4.344c0.122,1.465-0.732,2.39-1.792,3.273c-1.216,1.013-2.551,1.894-3.921,2.684
						c-1.386,0.799-2.769,1.66-4.236,2.305c-0.417,0.183-0.253,0.792,0.208,0.688c1.473-0.333,2.91-0.702,4.281-1.353
						c1.334-0.633,2.583-1.438,3.757-2.329c1.089-0.826,2.297-1.728,2.918-2.982c0.732-1.477,0.337-3.07,0.004-4.597
						c-1.362-6.241-3.159-12.386-5.373-18.377c-1.267-3.427-2.67-6.802-4.21-10.115c-0.15,0.398-0.301,0.795-0.451,1.193
						c1.76-0.668,3.408-1.561,4.891-2.724c1.37-1.074,2.847-2.383,3.273-4.133C295.415,193.272,295.288,193.189,295.188,193.243
						L295.188,193.243z"/>
				</g>
				<g>
					<path style="fill:#232323;" d="M286.201,236.993c1.138,0.531,1.925,1.675,2.573,2.706c0.718,1.143,1.38,2.329,1.985,3.535
						c1.213,2.419,2.109,5.005,2.707,7.643c1.178,5.197,1.105,10.706-0.285,15.854c-0.126,0.466-0.247,1.602-0.802,1.757
						c-0.58,0.162-1.342-0.446-1.781-0.741c-1.461-0.982-2.841-2.116-4.521-2.691c-0.289-0.099-0.563,0.287-0.388,0.532
						c1.025,1.434,2.536,2.381,3.977,3.362c1.089,0.742,2.637,1.634,3.859,0.628c0.523-0.43,0.73-1.069,0.919-1.695
						c0.234-0.776,0.435-1.563,0.607-2.355c0.33-1.519,0.548-3.062,0.668-4.612c0.471-6.059-0.74-12.235-3.42-17.684
						c-0.748-1.521-1.622-2.96-2.644-4.314c-0.834-1.104-1.903-2.378-3.441-2.032C286.165,236.896,286.157,236.972,286.201,236.993
						L286.201,236.993z"/>
				</g>
				<g>
					<path style="fill:#232323;" d="M286.348,265.363c-0.363,1.34-0.336,2.808-0.48,4.188c-0.142,1.366-0.414,2.722-0.789,4.044
						c-0.768,2.709-1.978,5.279-3.602,7.581c-0.824,1.168-1.772,2.259-2.793,3.259c-0.293,0.287-0.83,1.007-1.268,0.998
						c-0.41-0.009-0.872-0.674-1.141-0.916c-1.132-1.02-2.411-1.091-3.722-0.326c-0.586,0.341-1.11,0.777-1.694,1.122
						c-0.602,0.355-1.241,0.624-1.9,0.851c-1.473,0.506-3.006,0.799-4.504,1.218c-0.772,0.216-1.533,0.466-2.266,0.79
						c-0.746,0.329-1.454,0.64-1.89,1.356c-0.309,0.507,0.231,0.988,0.723,0.895c0.686-0.131,1.252-0.56,1.893-0.829
						c0.709-0.299,1.45-0.524,2.192-0.725c1.377-0.373,2.78-0.653,4.136-1.1c1.412-0.465,2.571-1.177,3.806-1.98
						c0.54-0.351,1.171-0.744,1.778-0.331c0.477,0.324,0.822,0.817,1.286,1.161c0.451,0.334,0.964,0.541,1.534,0.486
						c0.817-0.08,1.419-0.691,1.985-1.225c1.054-0.994,1.997-2.087,2.849-3.258c1.732-2.378,3.064-5.069,3.875-7.898
						c0.442-1.542,0.726-3.121,0.875-4.718c0.143-1.537,0.187-3.277-0.47-4.705C286.674,265.111,286.394,265.192,286.348,265.363
						L286.348,265.363z"/>
				</g>
				<g>
					<path style="fill:#232323;" d="M279.766,213.085c-0.154,0.311-0.061,0.589,0.059,0.905c0.17,0.448,0.351,0.891,0.519,1.341
						c0.325,0.871,0.639,1.741,0.893,2.636c0.521,1.839,0.841,3.725,0.939,5.635c0.167-0.231,0.334-0.463,0.501-0.694
						c-0.755,0.279-1.511,0.557-2.267,0.835c-0.614,0.226-1.341,0.393-1.893,0.753c-0.523,0.342-0.675,0.919-0.578,1.511
						c0.122,0.737,0.367,1.459,0.515,2.193c0.294,1.464,0.451,2.955,0.488,4.448c0.038,1.554-0.096,3.096,0.052,4.647
						c0.03,0.316,0.526,0.525,0.673,0.165c0.998-2.439,0.802-5.308,0.453-7.872c-0.087-0.642-0.194-1.281-0.323-1.916
						c-0.07-0.343-0.146-0.685-0.229-1.026c-0.053-0.218-0.264-0.647-0.223-0.864c0.06-0.313,1.375-0.633,1.703-0.756
						c0.679-0.255,1.357-0.51,2.036-0.765c0.285-0.107,0.52-0.371,0.502-0.694c-0.115-1.993-0.449-3.971-1.061-5.873
						c-0.29-0.899-0.637-1.779-1.041-2.633c-0.218-0.461-0.471-0.931-0.745-1.362c-0.195-0.307-0.403-0.647-0.79-0.693
						C279.878,212.997,279.801,213.015,279.766,213.085L279.766,213.085z"/>
				</g>
				<g>
					<path style="fill:#232323;" d="M272.413,192.88c0.006,1.138,0.495,2.344,0.796,3.434c0.345,1.255,0.63,2.546,0.753,3.844
						c0.109,1.155,0.098,2.329-0.109,3.473c-0.1,0.553-0.233,1.107-0.405,1.643c-0.163,0.508-0.357,1.044-0.337,1.586
						c0.006,0.166,0.191,0.267,0.333,0.181c0.965-0.585,1.281-2.01,1.447-3.041c0.2-1.243,0.214-2.51,0.068-3.76
						c-0.153-1.307-0.461-2.578-0.859-3.829c-0.376-1.183-0.794-2.601-1.588-3.574C272.478,192.794,272.412,192.834,272.413,192.88
						L272.413,192.88z"/>
				</g>
				<g>
					<path style="fill:#232323;" d="M226.748,153.483c-3.77-0.18-7.545,0.086-11.212-1.018c-3.405-1.025-6.409-3.074-9.602-4.587
						c-6.026-2.855-12.853-4.661-19.46-2.865c-2.893,0.786-5.635,2.255-7.74,4.409c-2.434,2.49-3.915,5.824-5.196,9.014
						c-1.273,3.17-2.204,6.453-2.388,9.878c-0.154,2.872,0.2,5.779,0.973,8.548c1.719,6.158,5.676,12.096,11.235,15.404
						c0.902,0.537,1.585-0.818,0.77-1.396c-4.553-3.227-8.04-7.634-9.876-12.93c-0.896-2.583-1.393-5.288-1.43-8.024
						c-0.043-3.166,0.608-6.249,1.664-9.225c0.568-1.601,1.242-3.165,1.971-4.7c0.718-1.513,1.516-3.021,2.563-4.336
						c1.805-2.267,4.282-3.853,7.021-4.755c6.248-2.057,12.887-0.437,18.682,2.241c3.476,1.606,6.723,3.796,10.43,4.864
						c3.758,1.083,7.919,1.038,11.712,0.204C227.295,154.114,227.142,153.502,226.748,153.483L226.748,153.483z"/>
				</g>
				<g>
					<path style="fill:#232323;" d="M222.441,151.14c1.715,1.33,4.017,1.808,6.136,2.055c2.278,0.266,4.578,0.221,6.856-0.018
						c4.826-0.505,9.492-1.911,14.243-2.834c8.625-1.676,18.527-1.064,25.14,5.414c3.155,3.09,5.077,7.263,5.766,11.605
						c0.068,0.426,0.793,0.632,0.854,0.094c0.227-1.996,0.036-3.932-0.682-5.818c-0.731-1.921-1.805-3.697-3.099-5.288
						c-2.735-3.36-6.454-5.702-10.559-7.027c-4.37-1.411-9.105-1.631-13.641-1.063c-5.096,0.639-10.008,2.193-15.041,3.157
						c-2.629,0.503-5.288,0.852-7.97,0.801c-1.335-0.026-2.672-0.143-3.985-0.388c-1.316-0.246-2.6-0.637-3.915-0.877
						C222.446,150.937,222.348,151.068,222.441,151.14L222.441,151.14z"/>
				</g>
				<g>
					<path style="fill:#232323;" d="M275.842,164.982c0.15,0.813,0.378,1.594,0.438,2.424c0.055,0.767,0.14,1.528,0.205,2.294
						c0.132,1.552,0.118,3.133-0.066,4.68c-0.357,3.01-1.26,5.937-2.722,8.594c-2.857,5.193-7.525,9.12-12.61,12.028
						c-1.522,0.87-3.09,1.661-4.684,2.391c-1.626,0.745-3.319,1.348-4.905,2.172c-0.738,0.383-0.176,1.499,0.582,1.293
						c1.648-0.449,3.217-1.188,4.771-1.893c1.496-0.678,2.971-1.402,4.408-2.197c2.768-1.53,5.396-3.321,7.746-5.442
						c4.588-4.142,8.053-9.68,8.697-15.917c0.19-1.838,0.165-3.687-0.093-5.517c-0.12-0.854-0.278-1.689-0.579-2.498
						c-0.311-0.835-0.581-1.712-0.989-2.503C275.978,164.773,275.821,164.869,275.842,164.982L275.842,164.982z"/>
				</g>
				<g>
					<path style="fill:#232323;" d="M174.612,157.911c-0.823-1.023-1.506-2.119-2.415-3.078c-0.9-0.95-1.908-1.815-2.931-2.63
						c-2.066-1.646-4.313-3.005-6.828-3.845c-5.304-1.772-11.145-1.112-16.334,0.729c-1.473,0.523-2.897,1.157-4.286,1.875
						c-1.395,0.722-2.663,1.647-3.915,2.588c-0.297,0.223-0.109,0.827,0.293,0.65c2.396-1.055,4.812-2.103,7.249-3.06
						c2.42-0.951,4.953-1.674,7.542-1.966c2.628-0.296,5.304-0.19,7.876,0.448c2.453,0.609,4.699,1.768,6.761,3.212
						c1.17,0.819,2.259,1.743,3.346,2.668c1.101,0.936,2.329,1.67,3.462,2.555C174.527,158.132,174.702,158.023,174.612,157.911
						L174.612,157.911z"/>
				</g>
				<g>
					<path style="fill:#232323;" d="M138.798,152.97c-0.561,1.784-0.612,3.657-0.736,5.514c-0.122,1.823-0.18,3.65-0.251,5.475
						c-0.143,3.634-0.307,7.276-0.327,10.913c-0.019,3.536,0.143,7.084,0.836,10.56c0.69,3.46,1.995,6.737,3.44,9.942
						c0.798,1.771,1.636,3.521,2.488,5.266c0.912,1.869,1.968,3.645,3.015,5.439c0.178,0.305,0.693,0.084,0.572-0.258
						c-0.599-1.682-1.163-3.376-1.866-5.018c-0.692-1.616-1.425-3.215-2.158-4.813c-1.43-3.119-2.79-6.299-3.624-9.636
						c-0.852-3.411-1.082-6.938-1.113-10.444c-0.032-3.581,0.086-7.164,0.155-10.745c0.04-2.072,0.12-4.146,0.12-6.218
						c0-2,0.11-4.027-0.346-5.985C138.976,152.857,138.827,152.878,138.798,152.97L138.798,152.97z"/>
				</g>
				<g>
					<path style="fill:#232323;" d="M147.161,204.589c0.33,0.85,0.954,1.546,1.546,2.228c0.619,0.713,1.313,1.371,2.002,2.016
						c1.41,1.322,2.903,2.555,4.491,3.657c1.579,1.096,3.26,2.041,5.043,2.764c0.839,0.34,1.694,0.64,2.567,0.879
						c0.444,0.122,0.895,0.24,1.349,0.32c0.234,0.042,0.503,0.095,0.742,0.065c0.232-0.03,0.421-0.158,0.645-0.218
						c0.196-0.052,0.204-0.319,0.044-0.415c-0.211-0.127-0.35-0.301-0.575-0.402c-0.183-0.082-0.379-0.123-0.573-0.167
						c-0.452-0.102-0.903-0.195-1.35-0.316c-0.904-0.244-1.792-0.548-2.655-0.912c-1.647-0.695-3.217-1.576-4.702-2.57
						c-1.53-1.024-2.965-2.184-4.328-3.42c-0.701-0.636-1.362-1.317-2.064-1.951c-0.655-0.592-1.273-1.246-2.064-1.654
						C147.219,204.463,147.133,204.519,147.161,204.589L147.161,204.589z"/>
				</g>
				<g>
					<path style="fill:#232323;" d="M172.7,166.874c-0.886-2.81-2.999-5.28-5.164-7.222c-2.207-1.978-4.857-3.516-7.765-4.171
						c-2.785-0.627-5.799-0.51-8.469,0.538c-2.824,1.108-5.034,3.18-6.408,5.88c-3.284,6.454-2.399,14.28-0.918,21.091
						c0.79,3.634,1.7,7.279,2.788,10.836c0.939,3.068,2.202,6.013,3.976,8.694c1.829,2.766,4.105,5.252,6.712,7.301
						c1.293,1.016,2.66,1.94,4.096,2.743c1.477,0.826,3.038,1.614,4.691,2c0.698,0.163,1.145-0.863,0.47-1.197
						c-1.242-0.616-2.532-1.125-3.761-1.774c-1.229-0.649-2.414-1.383-3.54-2.197c-2.269-1.64-4.329-3.62-6.047-5.831
						c-1.748-2.249-3.174-4.74-4.197-7.399c-1.257-3.268-2.068-6.71-2.918-10.1c-1.669-6.658-3.091-13.818-1.16-20.583
						c0.795-2.787,2.263-5.455,4.74-7.072c2.238-1.461,4.962-2.011,7.609-1.851c3.109,0.189,6.035,1.508,8.485,3.391
						c1.285,0.988,2.439,2.132,3.502,3.352c1.054,1.21,1.971,2.523,3.06,3.705C172.572,167.108,172.738,166.996,172.7,166.874
						L172.7,166.874z"/>
				</g>
				<g>
					<path style="fill:#232323;" d="M170.506,180.107c0.002-0.756-0.293-1.531-0.536-2.239c-0.253-0.737-0.55-1.461-0.902-2.156
						c-0.714-1.41-1.756-2.545-3.111-3.359c-1.432-0.86-3.062-1.383-4.63-1.932c-1.862-0.652-3.717-1.439-5.678-1.694
						c-0.542-0.07-0.889,0.623-0.365,0.93c2.953,1.734,6.513,2.106,9.569,3.63c1.381,0.689,2.474,1.689,3.273,3.009
						c0.375,0.619,0.669,1.281,0.933,1.954c0.264,0.675,0.45,1.432,0.863,2.032C170.098,180.539,170.505,180.428,170.506,180.107
						L170.506,180.107z"/>
				</g>
				<g>
					<path style="fill:#232323;" d="M288.508,167.338c2.489-5.464,6.911-9.416,12.319-11.91c2.962-1.366,6.097-2.318,9.267-3.063
						c1.694-0.398,3.403-0.777,5.14-0.922c1.676-0.14,3.311,0.013,4.958,0.335c1.741,0.342,3.457,0.815,5.215,1.071
						c1.688,0.245,3.468,0.317,5.029-0.48c0.263-0.134,0.104-0.516-0.155-0.52c-1.675-0.027-3.332-0.045-4.992-0.329
						c-1.606-0.275-3.184-0.689-4.783-0.999c-1.631-0.317-3.277-0.5-4.939-0.391c-1.786,0.117-3.55,0.486-5.291,0.886
						c-6.248,1.435-12.473,3.694-17.244,8.126c-2.34,2.173-4.302,4.837-5.273,7.902
						C287.621,167.478,288.316,167.759,288.508,167.338L288.508,167.338z"/>
				</g>
				<g>
					<path style="fill:#232323;" d="M328.263,152.57c0.253,1.047,0.7,2.059,1.12,3.051c0.411,0.972,0.789,1.957,1.174,2.94
						c0.785,2.004,1.478,4.045,2.085,6.11c1.214,4.132,2.028,8.379,2.353,12.675c0.615,8.144-0.543,16.347-3.605,23.933
						c-1.685,4.174-4.068,7.907-6.431,11.714c-0.175,0.282,0.226,0.542,0.45,0.33c2.958-2.81,5.083-6.498,6.761-10.182
						c1.698-3.729,2.904-7.663,3.637-11.693c1.553-8.534,0.95-17.328-1.319-25.678c-0.644-2.371-1.428-4.699-2.34-6.981
						c-0.457-1.142-0.963-2.259-1.495-3.368c-0.53-1.103-1.101-2.218-1.893-3.155C328.549,152.018,328.199,152.306,328.263,152.57
						L328.263,152.57z"/>
				</g>
				<g>
					<path style="fill:#232323;" d="M326.693,211.67c-0.839,0.353-1.438,0.943-2.156,1.485c-0.762,0.575-1.563,1.096-2.398,1.559
						c-1.742,0.966-3.604,1.696-5.476,2.367c-4.237,1.517-8.494,3.035-12.837,4.224c-1.216,0.333-2.44,0.636-3.673,0.899
						c-0.655,0.14-1.312,0.268-1.971,0.383c-0.63,0.11-1.319,0.118-1.864,0.479c-0.477,0.316-0.347,1.009,0.183,1.174
						c0.553,0.172,1.111,0.021,1.668-0.074c0.582-0.099,1.163-0.208,1.741-0.326c1.157-0.237,2.307-0.511,3.448-0.813
						c2.328-0.616,4.622-1.351,6.897-2.141c4.035-1.401,8.269-2.725,11.984-4.871c0.925-0.534,1.82-1.128,2.639-1.815
						c0.814-0.683,1.627-1.395,1.883-2.463C326.771,211.698,326.733,211.653,326.693,211.67L326.693,211.67z"/>
				</g>
				<g>
					<path style="fill:#232323;" d="M292.841,176.218c1.945-6.927,5.942-13.649,12.849-16.539c6.26-2.619,14.267-1.35,18.852,3.845
						c2.544,2.882,3.713,6.721,4.262,10.457c0.613,4.17,0.703,8.485,0.618,12.693c-0.088,4.365-0.639,8.783-2.402,12.815
						c-1.534,3.508-3.809,6.643-6.534,9.322c-5.977,5.877-13.931,9.285-21.996,11.168c-1.039,0.243-2.085,0.451-3.134,0.645
						c-0.824,0.152-0.447,1.42,0.38,1.257c8.66-1.713,17.265-4.655,24.065-10.469c3.046-2.604,5.677-5.74,7.568-9.282
						c2.137-4.004,3.114-8.41,3.412-12.915c0.297-4.481,0.176-9.092-0.296-13.559c-0.425-4.028-1.362-8.136-3.693-11.521
						c-4.227-6.139-12.374-8.305-19.381-6.345c-7.224,2.021-12.879,8.569-14.721,15.724c-0.224,0.868-0.353,1.748-0.449,2.638
						C292.203,176.503,292.752,176.535,292.841,176.218L292.841,176.218z"/>
				</g>
				<g>
					<path style="fill:#232323;" d="M295.205,185.339c-0.154-0.283,0.373-0.891,0.536-1.093c0.336-0.42,0.682-0.833,1.026-1.246
						c0.692-0.831,1.394-1.655,2.122-2.456c1.439-1.582,3.054-3.036,4.959-4.034c3.415-1.791,8.11-1.674,10.67-4.896
						c0.322-0.405-0.137-1.131-0.62-0.764c-2.736,2.077-6.116,2.507-9.234,3.739c-3.388,1.339-5.99,3.907-8.143,6.779
						c-0.606,0.808-1.253,1.631-1.769,2.5c-0.368,0.619-0.497,1.344,0.245,1.691C295.139,185.625,295.281,185.48,295.205,185.339
						L295.205,185.339z"/>
				</g>
				<g>
					<path style="fill:#232323;" d="M173.888,139.42c-0.335,0.276-0.221,0.715-0.161,1.092c0.099,0.62,0.196,1.236,0.319,1.854
						c0.247,1.235,0.483,2.474,0.639,3.724c0.308,2.47,0.391,4.973,0.229,7.457c-0.033,0.51-0.401,2.615,0.662,2.429
						c0.968-0.169,0.826-2.24,0.862-2.932c0.13-2.49,0.01-4.987-0.361-7.453c-0.201-1.333-0.444-2.662-0.833-3.954
						C175.172,141.395,174.423,138.979,173.888,139.42L173.888,139.42z"/>
				</g>
				<g>
					<path style="fill:#232323;" d="M173.735,140.521c4.798-1.749,9.934-2.4,14.938-3.309c5.246-0.953,10.489-1.942,15.751-2.802
						c5.292-0.865,10.59-1.376,15.954-1.407c5.216-0.031,10.444,0.033,15.658,0.197c2.958,0.093,5.914,0.243,8.863,0.496
						c2.937,0.252,5.852,0.716,8.793,0.898c0.82,0.051,0.894-1.185,0.154-1.393c-2.572-0.723-5.247-0.978-7.902-1.224
						c-2.622-0.242-5.253-0.399-7.884-0.501c-5.326-0.208-10.659-0.206-15.988-0.198c-5.366,0.008-10.661,0.379-15.965,1.204
						c-5.328,0.829-10.616,1.904-15.916,2.893c-2.971,0.555-5.942,1.107-8.913,1.664c-2.749,0.516-5.549,1.05-8.046,2.365
						C172.618,139.728,173.077,140.761,173.735,140.521L173.735,140.521z"/>
				</g>
				<g>
					<path style="fill:#232323;" d="M175.501,140.056c-1.414-0.954-2.894-1.668-4.494-2.257c-1.577-0.58-3.174-1.104-4.755-1.673
						c-3.24-1.166-6.442-2.435-9.587-3.838c-3.064-1.366-6.077-2.849-9.034-4.433c-2.701-1.446-5.363-3.003-7.815-4.846
						c-2.393-1.799-4.787-3.892-6.454-6.404c-1.708-2.574-1.873-5.578-0.603-8.386c1.263-2.793,3.59-4.88,6.081-6.578
						c2.549-1.738,5.282-3.232,8.073-4.541c11.054-5.185,23.779-7.175,35.833-4.982c12.95,2.356,24.573,9.111,35.709,15.806
						c5.997,3.605,11.91,7.351,17.732,11.234c5.17,3.448,10.277,7.055,14.602,11.552c1.038,1.08,2.024,2.208,2.939,3.395
						c0.31,0.402,0.82,0.583,1.284,0.303c0.402-0.242,0.605-0.884,0.303-1.285c-3.93-5.218-9.004-9.345-14.334-13.058
						c-5.747-4.004-11.687-7.749-17.659-11.406c-5.895-3.61-11.846-7.173-18.004-10.318c-5.943-3.035-12.146-5.656-18.653-7.204
						c-12.446-2.961-25.667-1.629-37.467,3.21c-2.97,1.218-5.855,2.647-8.614,4.287c-2.685,1.597-5.372,3.394-7.36,5.842
						c-1.884,2.32-3.16,5.308-2.906,8.344c0.27,3.223,2.335,5.807,4.541,8.014c4.558,4.56,10.386,7.721,16.145,10.497
						c3.144,1.515,6.347,2.902,9.599,4.168c3.256,1.269,6.58,2.299,9.886,3.42c1.604,0.543,3.224,1.062,4.806,1.663
						C175.617,140.705,175.749,140.223,175.501,140.056L175.501,140.056z"/>
				</g>
				<g>
					<path style="fill:#232323;" d="M254.725,133.822c0.575,0.441,1.061,0.829,1.718,1.156c0.717,0.357,1.446,0.694,2.165,1.046
						c1.375,0.673,2.74,1.367,4.093,2.083c2.707,1.433,5.365,2.958,7.981,4.55c5.236,3.186,10.262,6.708,15.047,10.538
						c1.309,1.048,2.6,2.119,3.872,3.213c0.663,0.571,1.322,1.147,1.974,1.73c0.642,0.573,1.198,1.237,2.046,1.467
						c0.44,0.119,0.907-0.337,0.744-0.783c-0.274-0.753-0.808-1.15-1.394-1.676c-0.597-0.536-1.199-1.066-1.805-1.592
						c-1.157-1.003-2.33-1.987-3.519-2.952c-2.405-1.952-4.874-3.823-7.401-5.615c-4.997-3.545-10.216-6.768-15.638-9.622
						c-1.549-0.815-3.113-1.602-4.691-2.36c-0.789-0.379-1.584-0.747-2.381-1.108c-0.387-0.175-0.778-0.342-1.178-0.487
						c-0.416-0.15-0.833-0.177-1.267-0.257C254.743,133.09,254.386,133.563,254.725,133.822L254.725,133.822z"/>
				</g>
				<g>
					<path style="fill:#232323;" d="M200.62,98.005c0.226-0.46,0.494-0.905,0.713-1.365c0.227-0.479,0.395-0.992,0.613-1.477
						c0.446-0.996,0.932-1.982,1.452-2.941c1.024-1.888,2.244-3.667,3.678-5.269c2.924-3.264,6.599-5.633,10.892-6.622
						c2.628-0.606,5.335-0.758,8.021-0.872c2.809-0.119,5.621-0.244,8.433-0.199c5.56,0.088,11.03,1.08,16.425,2.371
						c2.696,0.645,5.378,1.351,8.057,2.062c2.583,0.685,5.176,1.401,7.648,2.425c4.3,1.781,8.127,4.493,11.403,7.784
						c7.091,7.125,11.259,16.476,14.377,25.892c1.704,5.146,3.263,10.348,3.725,15.773c0.453,5.325,0.231,10.696,1.088,15.986
						c0.211,1.3,0.489,2.586,0.852,3.852c0.352,1.232,2.259,0.659,1.906-0.577c-1.514-5.291-1.401-10.827-1.661-16.275
						c-0.134-2.799-0.393-5.584-0.93-8.337c-0.539-2.763-1.316-5.472-2.158-8.156c-3.093-9.856-7.106-19.711-14.037-27.531
						c-3.138-3.541-6.869-6.617-11.082-8.794c-4.829-2.495-10.239-3.674-15.474-4.992c-5.498-1.385-11.057-2.615-16.729-2.99
						c-2.933-0.194-5.874-0.125-8.808,0.007c-2.772,0.125-5.564,0.212-8.318,0.558c-2.524,0.317-4.991,0.895-7.306,1.965
						c-1.949,0.901-3.73,2.117-5.334,3.54c-3.252,2.886-5.777,6.714-7.292,10.778c-0.184,0.493-0.373,0.992-0.52,1.498
						c-0.153,0.529-0.196,1.109-0.267,1.657C199.94,98.111,200.433,98.384,200.62,98.005L200.62,98.005z"/>
				</g>
				<g>
					<path style="fill:#232323;" d="M209.994,272.615c1.427,0.377,2.889,0.198,4.332-0.053c1.49-0.259,2.959-0.607,4.406-1.051
						c2.82-0.865,5.549-2.048,8.113-3.505c2.566-1.458,4.966-3.212,7.146-5.201c1.115-1.017,2.171-2.101,3.157-3.245
						c1.008-1.17,1.905-2.437,2.964-3.563c1.057-1.124,2.345-2.118,3.915-2.346c1.268-0.184,2.565,0.218,3.283,1.322
						c1.489,2.291,0.411,5.061-1.249,6.91c-0.999,1.114-2.182,2.038-3.371,2.938c-1.324,1.001-2.675,1.968-4.058,2.886
						c-2.697,1.792-5.524,3.428-8.508,4.696c-3.287,1.397-6.782,2.405-10.356,2.651c-3.332,0.23-7.011,0.032-9.79-2.022
						c-0.915-0.676-1.973,0.404-1.222,1.284c2.153,2.524,6.297,2.805,9.378,2.791c3.392-0.015,6.774-0.694,9.967-1.817
						c3.27-1.15,6.385-2.733,9.334-4.546c2.913-1.791,5.772-3.783,8.365-6.016c2.273-1.958,4.287-4.616,3.946-7.782
						c-0.311-2.887-2.514-5.217-5.566-4.87c-3.556,0.404-5.574,3.386-7.669,5.923c-2.03,2.457-4.374,4.654-6.958,6.52
						c-2.878,2.078-6.031,3.78-9.363,5.01c-1.662,0.614-3.367,1.113-5.094,1.512c-1.708,0.394-3.498,0.561-5.11,1.256
						C209.845,272.36,209.826,272.571,209.994,272.615L209.994,272.615z"/>
				</g>
				<g>
					<path style="fill:#232323;" d="M200.376,297.519c0.156,2.194,0.75,4.323,1.071,6.5c0.329,2.235,0.508,4.5,0.535,6.76
						c0.052,4.501-0.486,8.957-1.678,13.301c-0.273,0.994,0.922,1.415,1.587,0.873c1.046-0.852,2.091-1.704,3.136-2.557
						c-0.38,0.059-0.76,0.117-1.14,0.176c0.364,0.246,0.013,1.972-0.019,2.35c-0.092,1.072-0.183,2.143-0.275,3.215
						c-0.187,2.185-0.374,4.369-0.562,6.554c-0.349,4.062-0.738,8.149-2.236,11.978c0.639-0.016,1.279-0.031,1.918-0.047
						c-0.122-0.572,0.061-1.228,0.265-1.762c0.172-0.45-0.409-0.73-0.753-0.551c-1.01,0.527-1.401,1.532-1.459,2.625
						c-0.026,0.488,0.429,0.913,0.886,0.956c0.534,0.05,0.887-0.264,1.074-0.74c1.653-4.211,1.939-8.786,2.303-13.249
						c0.195-2.391,0.39-4.781,0.586-7.172c0.093-1.137,0.245-2.285,0.272-3.426c0.023-0.969-0.259-1.83-1.088-2.387
						c-0.377-0.253-0.832-0.077-1.14,0.176c-1.042,0.856-2.084,1.711-3.125,2.567c0.529,0.291,1.058,0.582,1.587,0.873
						c1.203-4.476,1.794-9.161,1.649-13.798c-0.072-2.303-0.324-4.587-0.731-6.855c-0.404-2.25-0.886-4.56-2.063-6.539
						C200.815,297.07,200.353,297.195,200.376,297.519L200.376,297.519z"/>
				</g>
				<g>
					<path style="fill:#232323;" d="M251.07,295.873c-0.513,0.414-0.517,1.048-0.502,1.674c0.022,0.893,0.147,1.799,0.244,2.686
						c0.18,1.639,0.403,3.274,0.625,4.908c0.416,3.072,0.884,6.144,1.606,9.162c0.706,2.949,1.67,5.842,3.05,8.548
						c0.324,0.635,0.686,1.245,1.04,1.863c0.205,0.359,0.664,1.048,0.257,1.356c-0.456,0.345-1.072,0.399-1.519,0.8
						c-0.553,0.496-0.78,1.201-0.778,1.931c0.002,0.845,0.318,1.683,0.554,2.483c0.28,0.952,0.56,1.903,0.84,2.854
						c0.28,0.952,0.56,1.903,0.84,2.855c0.254,0.864,0.356,2.004,1.281,2.394c0.331,0.14,0.633,0.058,0.838-0.242
						c0.503-0.736,0.147-1.475-0.081-2.251c-0.257-0.872-0.514-1.744-0.771-2.616c-0.477-1.62-1.019-3.235-1.428-4.873
						c-0.111-0.444-0.221-0.922,0.213-1.185c0.549-0.333,1.172-0.413,1.616-0.929c1.059-1.229,0.312-2.776-0.388-3.966
						c-3.088-5.249-4.246-11.311-5.142-17.259c-0.264-1.754-0.485-3.515-0.772-5.265c-0.159-0.967-0.325-1.932-0.506-2.895
						c-0.136-0.724-0.278-1.714-1.034-2.033C251.128,295.86,251.094,295.854,251.07,295.873L251.07,295.873z"/>
				</g>
				<g>
					<path style="fill:#232323;" d="M203.22,306.487c-2.855-1.931-5.898,1.076-7.652,3.118c-2.214,2.578-4.385,5.308-5.636,8.5
						c-2.69,6.867,0.195,14.092,3.648,20.111c1.678,2.924,3.667,5.765,6.285,7.927c2.809,2.321,6.24,3.804,9.557,5.241
						c3.33,1.443,6.759,2.711,10.325,3.425c3.115,0.624,6.321,0.824,9.49,0.614c6.373-0.421,12.609-2.427,18.11-5.656
						c2.765-1.623,5.342-3.569,7.67-5.773c2.508-2.374,4.752-5.014,7.332-7.312c5.261-4.687,12.21-6.365,18.4-9.437
						c6.268-3.111,12.085-7.125,17.241-11.853c2.469-2.264,4.809-4.854,5.594-8.206c0.784-3.348,0.087-6.873-1.343-9.946
						c-1.474-3.168-3.769-5.875-6.114-8.431c-2.229-2.429-4.468-4.946-7.209-6.813c-1.329-0.906-2.673-1.419-4.21-1.841
						c-1.093-0.299-1.514,1.408-0.425,1.706c1.402,0.384,2.833,1.261,4.005,2.102c1.25,0.896,2.374,1.967,3.452,3.059
						c2.241,2.27,4.496,4.607,6.39,7.179c1.917,2.603,3.467,5.58,3.778,8.844c0.147,1.547,0.026,3.09-0.461,4.57
						c-0.479,1.456-1.357,2.76-2.352,3.911c-2.135,2.469-4.747,4.601-7.332,6.58c-2.601,1.991-5.334,3.808-8.173,5.441
						c-2.902,1.669-5.913,3.123-9.01,4.39c-3.063,1.253-6.191,2.414-9.057,4.089c-5.651,3.302-9.342,8.863-14.408,12.879
						c-4.72,3.742-10.244,6.429-16.116,7.78c-6.009,1.383-12.229,1.213-18.144-0.527c-3.344-0.984-6.549-2.369-9.701-3.845
						c-3.108-1.456-5.966-3.128-8.268-5.717c-2.117-2.382-3.753-5.212-5.184-8.046c-1.521-3.012-2.775-6.293-2.994-9.689
						c-0.212-3.289,0.734-6.31,2.422-9.108c0.846-1.402,1.83-2.711,2.858-3.983c0.978-1.212,1.943-2.51,3.191-3.462
						c1.074-0.819,2.367-1.516,3.732-1.038C203.397,307.443,203.591,306.738,203.22,306.487L203.22,306.487z"/>
				</g>
				<g>
					<path style="fill:#232323;" d="M295.001,264.66c2.447,3.495,6.427,5.862,10.163,7.778c3.945,2.024,8.099,3.59,12.199,5.262
						c4.113,1.678,8.213,3.469,11.949,5.895c4.325,2.809,8.223,6.34,12.03,9.803c7.046,6.41,13.939,13.798,17.034,23.003
						c2.767,8.23,2.567,18.175-3.116,25.172c-2.839,3.496-6.669,5.951-10.713,7.838c-2.061,0.961-4.195,1.768-6.34,2.52
						c-2.292,0.803-4.612,1.647-6.968,2.239c-1.275,0.32-2.616,0.485-3.931,0.436c-0.973-0.036-1.134,1.499-0.188,1.701
						c2.776,0.592,5.511-0.441,8.125-1.294c2.243-0.732,4.48-1.488,6.678-2.35c4.327-1.698,8.54-3.808,12.049-6.901
						c3.453-3.044,5.908-7.019,7.135-11.453c1.241-4.485,1.238-9.241,0.388-13.795c-1.82-9.748-7.939-17.997-14.866-24.819
						c-3.679-3.624-7.607-7.05-11.654-10.258c-3.867-3.066-8.035-5.492-12.557-7.455c-8.226-3.571-17.097-6.015-24.248-11.649
						c-0.886-0.698-1.755-1.405-2.639-2.102C295.245,264.006,294.76,264.316,295.001,264.66L295.001,264.66z"/>
				</g>
				<g>
					<path style="fill:#232323;" d="M261.853,359.155c1.101-1.448,2.047-3.013,3.224-4.409c1.204-1.427,2.528-2.746,4.013-3.882
						c3.288-2.515,7.104-4.2,11.036-5.43c4.247-1.329,8.646-2.26,13.03-3.003c4.511-0.764,9.073-1.242,13.643-1.458
						c2.333-0.11,4.673-0.146,6.993-0.431c2.293-0.281,4.868-0.642,6.627-2.258c0.37-0.339,0.068-1.121-0.462-1.043
						c-2.064,0.305-4.024,1.032-6.105,1.297c-2.129,0.271-4.278,0.325-6.421,0.417c-4.657,0.2-9.295,0.677-13.897,1.421
						c-4.489,0.726-8.97,1.664-13.309,3.035c-4,1.264-7.933,2.961-11.321,5.466c-1.72,1.272-3.323,2.724-4.664,4.396
						c-1.313,1.637-2.498,3.559-2.772,5.669C261.444,359.138,261.699,359.357,261.853,359.155L261.853,359.155z"/>
				</g>
				<g>
					<path style="fill:#232323;" d="M191.014,366.793c0.686-2.555,0.228-5.282-0.629-7.743c-0.892-2.563-2.244-4.917-3.82-7.116
						c-3.116-4.348-6.945-8.183-9.409-12.978c-2.477-4.82-3.531-10.295-3.569-15.686c-0.02-2.788,0.205-5.592,0.993-8.277
						c0.674-2.298,1.795-4.436,3.167-6.392c1.542-2.2,3.434-4.155,5.41-5.967c1.038-0.952,2.109-1.866,3.197-2.759
						c1.078-0.885,2.227-1.697,3.209-2.689c0.709-0.716-0.247-1.863-1.098-1.354c-1.098,0.657-2.071,1.502-3.063,2.309
						c-0.962,0.783-1.914,1.579-2.843,2.401c-1.862,1.648-3.641,3.403-5.201,5.343c-1.52,1.89-2.852,3.944-3.796,6.184
						c-1.1,2.607-1.644,5.354-1.841,8.169c-0.385,5.475,0.301,11.156,2.242,16.304c0.977,2.591,2.284,5.021,3.882,7.281
						c1.589,2.248,3.385,4.339,5.113,6.479c1.935,2.397,3.753,4.869,5.119,7.642c1.358,2.757,1.921,5.679,1.947,8.738
						C190.026,367.259,190.867,367.338,191.014,366.793L191.014,366.793z"/>
				</g>
				<g>
					<path style="fill:#232323;" d="M193.265,304.343c-1.429,0.958-2.562,2.478-3.574,3.847c-1.087,1.472-1.988,3.095-2.714,4.772
						c-1.475,3.408-2.203,7.153-1.85,10.866c0.099,1.046,0.274,2.086,0.57,3.096c0.273,0.93,0.577,2.168,1.309,2.846
						c0.358,0.331,0.968,0.072,0.956-0.424c-0.014-0.558-0.254-1.09-0.423-1.616c-0.177-0.552-0.326-1.114-0.446-1.682
						c-0.226-1.07-0.384-2.145-0.435-3.238c-0.106-2.265,0.194-4.53,0.814-6.708c0.599-2.105,1.507-4.115,2.566-6.027
						c0.511-0.923,1.05-1.84,1.644-2.712c0.613-0.901,1.294-1.854,1.775-2.836C193.514,304.409,193.385,304.263,193.265,304.343
						L193.265,304.343z"/>
				</g>
				<g>
					<path style="fill:#232323;" d="M306.8,291.024c0.142,1.056,0.615,2.057,1.039,3.027c0.434,0.993,0.873,1.98,1.337,2.96
						c0.898,1.898,1.899,3.754,2.343,5.824c0.757,3.529-0.181,7.256-1.822,10.4c-0.983,1.884-2.227,3.599-3.511,5.284
						c-0.535,0.702,0.321,1.537,0.995,0.948c2.948-2.574,5.034-6.349,5.887-10.153c0.417-1.859,0.531-3.785,0.246-5.672
						c-0.32-2.116-1.172-4.017-2.15-5.904c-0.615-1.186-1.24-2.366-1.915-3.518c-0.66-1.127-1.251-2.394-2.198-3.308
						C306.965,290.831,306.783,290.892,306.8,291.024L306.8,291.024z"/>
				</g>
				<g>
					<path style="fill:#232323;" d="M339.953,302.905c1.997,1.888,3.671,4.151,5.264,6.384c1.61,2.257,3.118,4.613,4.275,7.138
						c2.083,4.544,2.914,9.659,1.192,14.456c-0.86,2.396-2.468,4.5-4.188,6.339c-0.281,0.3,0.021,0.903,0.447,0.727
						c4.788-1.985,6.575-7.938,6.548-12.717c-0.033-5.895-2.917-11.374-6.334-16.013c-1.877-2.548-3.911-5.566-7.058-6.58
						C339.946,302.591,339.844,302.803,339.953,302.905L339.953,302.905z"/>
				</g>
				<g>
					<path style="fill:#232323;" d="M204.408,365.788c-0.136,1.039-0.36,2.069-0.483,3.107c-0.131,1.103-0.194,2.213-0.254,3.322
						c-0.117,2.174-0.128,4.341-0.087,6.518c0.083,4.397,0.53,8.778,1.008,13.146c0.486,4.435,0.803,8.864,0.775,13.327
						c-0.027,4.413-0.314,8.82-0.744,13.21c-0.488,4.983-1.171,9.943-1.871,14.899c-0.093,0.657,0.41,1.229,1.1,1.048
						c1.368-0.36,2.733-0.727,4.099-1.091c1.248-0.332,2.577-0.574,3.775-1.065c1.035-0.425,1.863-1.127,2.157-2.245
						c0.315-1.196,0.13-2.572,0.099-3.793c-0.14-5.635-0.498-11.262-0.852-16.887c-0.354-5.623-0.706-11.248-0.835-16.881
						c-0.13-5.664,0.154-11.299,0.306-16.957c0.042-1.572,0.061-3.145,0.028-4.717c-0.032-1.494-0.01-3.071-0.286-4.544
						c-0.286-1.532-1.532-1.792-2.89-1.751c-1.51,0.045-3.013,0.285-4.469,0.682c-1.08,0.294-0.579,1.963,0.504,1.668
						c1.2-0.327,2.417-0.534,3.66-0.595c0.315-0.015,1.161-0.182,1.405,0.054c0.276,0.266,0.181,1.217,0.204,1.555
						c0.182,2.642,0.17,5.293,0.095,7.939c-0.149,5.246-0.416,10.473-0.321,15.723c0.19,10.491,1.195,20.943,1.598,31.425
						c0.057,1.479,0.102,2.96,0.131,4.44c0.021,1.09,0.289,2.501-0.842,3.113c-1.068,0.578-2.448,0.756-3.611,1.066
						c-1.487,0.396-2.975,0.789-4.46,1.189c0.367,0.349,0.733,0.699,1.1,1.048c1.186-8.783,2.332-17.601,2.512-26.473
						c0.091-4.456-0.101-8.9-0.571-13.332c-0.465-4.382-1.007-8.746-1.236-13.15c-0.13-2.497-0.192-4.995-0.266-7.494
						c-0.037-1.228-0.045-2.456-0.079-3.683c-0.035-1.27-0.17-2.525-0.177-3.797C204.63,365.688,204.425,365.659,204.408,365.788
						L204.408,365.788z"/>
				</g>
				<g>
					<path style="fill:#232323;" d="M247.275,365.923c-1.389,4.916-2.144,10.07-2.568,15.158c-0.402,4.818-0.373,9.659,0.064,14.473
						c0.881,9.695,3.25,19.203,6.401,28.395c1.779,5.19,3.802,10.298,5.988,15.329c0.234,0.539,0.808,0.853,1.364,0.517
						c1.173-0.71,2.347-1.419,3.52-2.129c0.932-0.564,2.137-1.128,2.303-2.334c0.084-0.613-0.155-1.156-0.388-1.706
						c-0.257-0.606-0.509-1.213-0.758-1.822c-0.482-1.183-0.947-2.372-1.396-3.567c-1.81-4.818-3.354-9.735-4.625-14.722
						c-2.533-9.943-3.993-20.175-4.265-30.434c-0.135-5.09,0.116-10.544,2.988-14.937c0.346-0.53-0.061-1.16-0.58-1.331
						c-2.164-0.715-4.334-1.411-6.503-2.109c-1.15-0.37-1.597,1.454-0.454,1.82c2.17,0.694,4.339,1.389,6.514,2.066
						c-0.193-0.444-0.386-0.887-0.579-1.331c-2.473,3.929-3.151,8.582-3.218,13.146c-0.072,4.934,0.325,9.903,0.893,14.801
						c1.172,10.113,3.419,20.101,6.721,29.732c0.929,2.709,1.941,5.388,3.034,8.035c0.251,0.607,0.643,1.259,0.786,1.899
						c0.113,0.509-0.653,0.775-1.017,0.993c-1.315,0.788-2.629,1.576-3.944,2.364c0.455,0.172,0.91,0.345,1.364,0.517
						c-3.81-8.862-7.222-17.913-9.563-27.283c-2.32-9.289-3.553-18.887-3.052-28.469c0.297-5.69,1.354-11.313,1.629-16.997
						C247.955,365.607,247.374,365.571,247.275,365.923L247.275,365.923z"/>
				</g>
				<g>
					<path style="fill:#232323;" d="M246.301,370.76c-1.188-1.889-3.098-4.255-1.607-6.499c1.335-2.01,4.279-2.584,6.478-3.036
						c1.233-0.253,2.385-0.18,3.479,0.471c1.033,0.615,1.87,1.555,2.611,2.488c0.783,0.986,1.538,2.064,2.083,3.203
						c0.434,0.907,0.529,1.84-0.181,2.621c-0.724,0.797-1.765,1.077-2.809,1c-0.757-0.056-1.41-0.022-2.121,0.273
						c-0.531,0.22-1.051,0.595-1.597,0.752c-0.319,0.091-0.392,0.434-0.265,0.701c0.309,0.649,1.039,0.836,1.704,0.704
						c0.324-0.064,0.607-0.214,0.915-0.333c0.421-0.163,0.737-0.183,1.186-0.16c1.362,0.071,2.661-0.221,3.753-1.079
						c1.014-0.796,1.716-1.984,1.646-3.305c-0.082-1.561-1.067-3.002-1.938-4.241c-1.686-2.398-4.025-5.04-7.215-4.969
						c-1.597,0.035-3.272,0.565-4.776,1.071c-1.405,0.472-2.78,1.18-3.766,2.315c-1.062,1.222-1.499,2.756-1.173,4.349
						c0.355,1.73,1.47,3.191,2.693,4.408C245.871,371.963,246.655,371.324,246.301,370.76L246.301,370.76z"/>
				</g>
				<g>
					<path style="fill:#232323;" d="M212.12,369.23c0.578,0.316,1.306-0.037,1.879-0.239c0.737-0.259,1.453-0.641,2.118-1.048
						c1.231-0.753,2.239-1.689,2.105-3.253c-0.124-1.452-1.055-2.738-2.193-3.592c-1.218-0.913-2.666-1.257-4.165-1.346
						c-2.67-0.159-5.399,0.574-7.691,1.936c-2.266,1.346-4.401,3.488-5.37,5.975c-0.645,1.655-0.029,3.147,1.334,4.197
						c1.2,0.924,3.025,1.733,4.397,0.682c0.824-0.631,0.052-1.979-0.866-1.403c-0.847,0.531-1.998-0.2-2.646-0.761
						c-0.348-0.301-0.702-0.673-0.787-1.144c-0.1-0.558,0.211-1.136,0.467-1.608c0.982-1.809,2.462-3.31,4.206-4.393
						c1.746-1.085,3.729-1.775,5.788-1.894c2.209-0.128,4.831,0.373,5.839,2.624c0.243,0.542,0.379,1.23,0.062,1.77
						c-0.333,0.566-1.052,0.91-1.593,1.243c-0.56,0.345-1.139,0.659-1.695,1.011c-0.488,0.309-1.058,0.485-1.271,1.055
						C212.013,369.11,212.06,369.197,212.12,369.23L212.12,369.23z"/>
				</g>
				<g>
					<path style="fill:#232323;" d="M136.985,381.676c0.846,1.757,1.687,3.531,2.408,5.345c0.741,1.863,1.38,3.768,2.055,5.656
						c1.425,3.984,2.859,7.965,4.27,11.954c2.836,8.019,5.691,16.029,8.295,24.127c2.591,8.058,4.763,16.224,7.143,24.344
						c2.377,8.111,5.552,15.896,8.832,23.674c3.365,7.982,6.685,15.986,10.113,23.941c0.427,0.99,0.903,1.946,1.419,2.892
						c0.418,0.768,1.637,0.197,1.383-0.624c-0.64-2.068-1.498-4.049-2.34-6.042c-0.859-2.033-1.718-4.067-2.577-6.1
						c-1.686-3.99-3.371-7.98-5.057-11.971c-3.289-7.786-6.653-15.551-9.158-23.633c-1.263-4.075-2.364-8.197-3.518-12.304
						c-1.155-4.112-2.382-8.204-3.67-12.277c-2.564-8.11-5.368-16.142-8.267-24.138c-1.443-3.981-2.948-7.942-4.456-11.899
						c-0.754-1.979-1.501-3.961-2.277-5.931c-0.7-1.778-1.415-3.591-2.403-5.233c-0.482-0.801-1.073-1.498-1.733-2.157
						C137.191,381.043,136.845,381.385,136.985,381.676L136.985,381.676z"/>
				</g>
				<g>
					<path style="fill:#232323;" d="M137.345,381.888c3.197-3.667,6.45-7.236,10.353-10.173c0.981-0.738,1.986-1.444,3.019-2.106
						c0.526-0.338,0.984-0.678,1.505-0.164c0.424,0.418,0.777,0.923,1.142,1.392c1.488,1.919,2.874,3.919,4.138,5.993
						c5.118,8.401,8.541,17.66,11.716,26.929c3.577,10.444,6.852,20.99,9.943,31.588c3.079,10.56,5.976,21.172,8.81,31.8
						c2.862,10.733,5.676,21.479,8.506,32.221c0.355,1.347,0.726,2.636,1.241,3.931c0.304,0.763,1.681,0.703,1.551-0.249
						c-0.39-2.844-1.247-5.6-1.978-8.374c-0.734-2.788-1.468-5.576-2.202-8.363c-1.443-5.48-2.884-10.961-4.338-16.438
						c-2.912-10.97-5.877-21.927-9.027-32.832c-3.137-10.858-6.458-21.665-10.091-32.368c-3.249-9.572-6.67-19.288-12.091-27.883
						c-1.338-2.121-2.778-4.185-4.358-6.133c-0.697-0.859-1.41-1.929-2.321-2.574c-1.072-0.758-2.118-0.208-3.084,0.439
						c-4.098,2.743-7.935,6.113-10.967,10.015c-0.734,0.945-1.392,1.925-2.002,2.954
						C136.615,381.819,137.092,382.178,137.345,381.888L137.345,381.888z"/>
				</g>
				<g>
					<path style="fill:#232323;" d="M296.991,504.165c0.347-1.236,0.728-2.449,0.965-3.709c0.228-1.215,0.45-2.427,0.654-3.646
						c0.417-2.487,0.773-4.983,1.156-7.475c0.774-5.031,1.58-10.058,2.444-15.074c1.712-9.936,3.683-19.834,6.193-29.601
						c2.478-9.64,5.489-19.137,8.834-28.509c3.338-9.35,7.013-18.576,10.84-27.735c1.929-4.617,3.897-9.218,5.88-13.812
						c0.908-2.103,1.714-4.304,2.797-6.324c0.742-1.384,2.02-3.201,3.837-2.564c1.026,0.359,1.9,1.201,2.721,1.884
						c0.877,0.73,1.73,1.49,2.558,2.276c1.688,1.604,3.285,3.319,4.736,5.142c0.685,0.862,1.384,1.783,1.738,2.838
						c0.358,1.068,0.232,2.133-0.167,3.171c-0.422,1.1-1.064,2.118-1.629,3.148c-0.583,1.062-1.156,2.13-1.717,3.204
						c-4.403,8.426-8.135,17.191-11.45,26.098c-3.345,8.988-6.255,18.129-8.992,27.319c-2.808,9.429-5.653,18.876-8.057,28.417
						c-2.439,9.682-4.277,19.636-4.064,29.66c0.025,1.176,0.079,2.352,0.163,3.525c0.092,1.279,0.357,2.524,0.52,3.793
						c0.14,1.086,1.858,1.056,1.717-0.042c-0.161-1.254-0.156-2.538-0.247-3.8c-0.091-1.264-0.146-2.53-0.169-3.796
						c-0.046-2.576,0.046-5.154,0.249-7.722c0.402-5.086,1.258-10.128,2.34-15.11c2.15-9.895,5.125-19.609,7.963-29.322
						c2.738-9.37,5.569-18.721,8.795-27.937c3.216-9.189,6.843-18.243,11.164-26.972c1.094-2.21,2.232-4.398,3.416-6.562
						c1.08-1.972,2.432-4.091,2.122-6.444c-0.298-2.262-1.873-4.066-3.298-5.741c-1.561-1.836-3.248-3.564-5.045-5.169
						c-0.875-0.782-1.772-1.545-2.703-2.26c-0.827-0.635-1.725-1.26-2.778-1.428c-1.924-0.307-3.462,0.869-4.521,2.358
						c-1.257,1.768-1.977,3.925-2.831,5.902c-1.02,2.358-2.036,4.717-3.046,7.08c-3.98,9.311-7.858,18.669-11.45,28.138
						c-3.592,9.468-6.893,19.05-9.695,28.783c-2.84,9.869-5.113,19.892-6.982,29.989c-1.877,10.14-3.54,20.362-4.771,30.601
						c-0.144,1.197-0.265,2.393-0.383,3.593c-0.124,1.266-0.097,2.528-0.108,3.803C296.689,504.308,296.945,504.328,296.991,504.165
						L296.991,504.165z"/>
				</g>
				<g>
					<path style="fill:#232323;" d="M337.999,365.529c-0.104-1.652-1.29-3.047-2.316-4.266c-1.122-1.334-2.363-2.555-3.705-3.667
						c-2.686-2.226-5.671-3.995-8.929-5.243c-3.811-1.46-7.86-2.105-11.881-2.685c-4.127-0.596-8.231-1.248-12.292-2.209
						c-2.274-0.538-4.531-1.146-6.766-1.827c-2.276-0.694-4.491-1.548-6.748-2.292c-1.098-0.362-1.565,1.219-0.701,1.784
						c0.544,0.355,1.004,0.657,1.631,0.846c0.586,0.177,1.053-0.536,0.751-1.029c-0.342-0.558-0.767-0.929-1.249-1.364
						c-0.378,0.515-0.755,1.031-1.133,1.546c1.891,0.806,3.883,1.43,5.841,2.051c1.963,0.622,3.944,1.188,5.94,1.697
						c3.94,1.005,7.934,1.753,11.958,2.327c3.979,0.568,7.994,1.052,11.865,2.178c3.362,0.978,6.537,2.533,9.386,4.569
						c1.542,1.102,2.959,2.38,4.277,3.739c1.259,1.298,2.332,3.054,3.944,3.922C337.927,365.636,338.003,365.595,337.999,365.529
						L337.999,365.529z"/>
				</g>
				<g>
					<path style="fill:#232323;" d="M184.894,350.919c-1.212-0.289-2.536-0.067-3.753,0.105c-1.279,0.18-2.551,0.426-3.808,0.724
						c-2.424,0.574-4.806,1.385-7.092,2.371c-4.691,2.023-9.041,4.745-12.882,8.115c-1.086,0.953-2.128,1.956-3.119,3.006
						c-0.959,1.016-2.203,2.139-2.712,3.452c-0.282,0.726,0.721,1.362,1.314,0.961c0.516-0.35,0.856-0.812,1.257-1.283
						c0.426-0.5,0.862-0.991,1.309-1.472c0.827-0.89,1.69-1.747,2.585-2.568c1.777-1.631,3.685-3.115,5.695-4.448
						c4.064-2.697,8.542-4.759,13.23-6.106c1.325-0.381,2.66-0.715,4.009-0.999c1.308-0.275,2.764-0.375,3.992-0.916
						C185.327,351.68,185.406,351.041,184.894,350.919L184.894,350.919z"/>
				</g>
				<g>
					<path style="fill:#232323;" d="M138.668,382.767c-3.069,2.412-5.914,5.246-8.551,8.122c-2.656,2.898-5.119,6.03-7.115,9.422
						c-4.081,6.937-6.071,14.861-7.794,22.65c-1.912,8.646-3.775,17.304-5.543,25.98c-1.75,8.589-3.468,17.207-4.453,25.924
						c-0.971,8.598-1.308,17.391,0.094,25.962c0.174,1.063,0.459,2.109,0.724,3.153c0.213,0.84,1.655,0.642,1.535-0.246
						c-0.569-4.231-1.039-8.503-1.159-12.773c-0.119-4.254,0.063-8.512,0.447-12.749c0.777-8.584,2.393-17.069,4.081-25.512
						c1.723-8.618,3.577-17.21,5.433-25.801c1.667-7.713,3.281-15.576,6.767-22.714c3.438-7.039,8.816-12.807,14.237-18.365
						c0.693-0.71,1.359-1.426,1.997-2.186C139.754,383.177,139.2,382.349,138.668,382.767L138.668,382.767z"/>
				</g>
				<g>
					<path style="fill:#232323;" d="M353.692,381.35c0.734,1.915,1.766,3.641,2.79,5.414c1.038,1.797,2.057,3.604,3.042,5.43
						c1.953,3.621,3.796,7.303,5.527,11.035c3.473,7.49,6.555,15.135,9.102,22.991c2.547,7.856,4.591,15.876,6.109,23.994
						c1.587,8.488,2.501,17.061,3.038,25.676c0.58,9.294,0.95,18.604,1.399,27.905c0.057,1.179,0.167,2.334,0.341,3.502
						c0.155,1.034,1.59,1.041,1.647-0.04c0.122-2.341-0.054-4.677-0.167-7.016c-0.113-2.337-0.226-4.674-0.339-7.011
						c-0.226-4.671-0.437-9.344-0.694-14.013c-0.489-8.887-1.28-17.737-2.773-26.516c-1.391-8.178-3.316-16.265-5.752-24.195
						c-2.451-7.979-5.431-15.786-8.889-23.383c-1.717-3.773-3.592-7.473-5.594-11.102c-1.994-3.615-4.028-7.279-6.397-10.665
						c-0.582-0.831-1.216-1.567-1.926-2.289C353.964,380.871,353.59,381.085,353.692,381.35L353.692,381.35z"/>
				</g>
				<g>
					<path style="fill:#232323;" d="M357.954,340.261c2.895-0.158,5.892-0.026,8.712,0.681c2.864,0.718,5.587,1.941,8.069,3.535
						c4.982,3.2,8.946,7.764,12.394,12.518c6.862,9.462,12.026,20.05,15.818,31.086c3.814,11.098,6.298,22.627,7.94,34.236
						c1.787,12.628,2.679,25.395,2.984,38.14c0.327,13.653-0.108,27.324-1.302,40.929c-0.149,1.701-0.288,3.365-0.282,5.073
						c0.003,0.889,1.384,1.062,1.569,0.173c0.708-3.401,0.859-6.918,1.114-10.38c0.254-3.446,0.46-6.896,0.616-10.347
						c0.316-6.958,0.435-13.926,0.355-20.891c-0.152-13.241-0.952-26.508-2.648-39.644c-1.537-11.908-3.864-23.751-7.554-35.189
						c-3.647-11.302-8.647-22.227-15.376-32.037c-6.566-9.572-15.739-19.308-28.249-19.32c-1.459-0.001-2.888,0.326-4.262,0.795
						C357.511,339.734,357.572,340.282,357.954,340.261L357.954,340.261z"/>
				</g>
				<g>
					<path style="fill:#232323;" d="M371.344,398.123c1.627,2.711,3.024,5.559,4.412,8.397c1.364,2.789,2.598,5.634,3.762,8.511
						c2.343,5.787,4.163,11.767,5.543,17.854c0.389,1.715,0.772,3.433,1.099,5.161c0.163,0.863,0.359,1.71,0.575,2.561
						c0.209,0.826,0.346,1.74,0.687,2.517c0.07,0.16,0.346,0.206,0.384-0.009c0.129-0.732,0.051-1.502,0.03-2.244
						c-0.023-0.803-0.062-1.603-0.167-2.4c-0.206-1.554-0.455-3.117-0.768-4.652c-0.639-3.127-1.432-6.228-2.38-9.276
						c-1.873-6.027-4.281-11.843-7.249-17.412c-1.696-3.182-3.684-6.167-5.709-9.144
						C371.471,397.851,371.258,397.98,371.344,398.123L371.344,398.123z"/>
				</g>
				<g>
					<path style="fill:#232323;" d="M404.996,428.132c0.327,1.731,0.542,3.501,0.813,5.245c0.263,1.692,0.518,3.389,0.758,5.085
						c0.472,3.334,0.852,6.675,1.054,10.037c0.408,6.788,0.269,13.634-0.517,20.391c-0.217,1.869-0.526,3.74-0.679,5.614
						c-0.077,0.947-0.193,1.879-0.323,2.82c-0.132,0.958-0.313,1.969-0.284,2.936c0.01,0.357,0.527,0.506,0.695,0.17
						c0.76-1.515,1.017-3.31,1.446-4.94c0.438-1.662,0.715-3.367,0.933-5.072c0.444-3.464,0.731-6.963,0.816-10.454
						c0.168-6.875-0.28-13.807-1.48-20.584c-0.339-1.917-0.694-3.855-1.25-5.721c-0.268-0.899-0.507-1.805-0.784-2.702
						c-0.301-0.975-0.707-1.912-1.042-2.874C405.117,427.983,404.976,428.029,404.996,428.132L404.996,428.132z"/>
				</g>
				<g>
					<path style="fill:#232323;" d="M159.971,464.612c0.477,0.671,0.724,1.487,0.937,2.275c0.278,1.029,0.55,2.059,0.856,3.08
						c0.658,2.19,1.353,4.367,2.06,6.542c0.707,2.175,1.421,4.347,2.162,6.511c0.379,1.108,0.802,2.188,1.218,3.279
						c0.37,0.97,0.668,2.196,1.36,2.987c0.334,0.382,0.858,0.01,0.89-0.395c0.084-1.063-0.483-2.29-0.752-3.306
						c-0.298-1.128-0.629-2.236-0.985-3.35c-0.721-2.258-1.475-4.505-2.231-6.751c-0.744-2.209-1.515-4.406-2.302-6.599
						c-0.614-1.712-1.219-3.667-2.891-4.613C160.091,464.158,159.828,464.41,159.971,464.612L159.971,464.612z"/>
				</g>
				<g>
					<path style="fill:#232323;" d="M320.704,413.394c-1.274,3.116-2.556,6.234-3.695,9.402c-1.159,3.224-2.105,6.518-3.026,9.816
						c-1.827,6.545-3.447,13.182-4.623,19.876c-0.332,1.886-0.611,3.779-0.864,5.677c-0.122,0.915-0.209,1.831-0.285,2.751
						c-0.08,0.977-0.257,1.962-0.226,2.943c0.008,0.262,0.359,0.279,0.438,0.048c0.269-0.788,0.391-1.618,0.573-2.43
						c0.191-0.851,0.421-1.694,0.598-2.548c0.347-1.672,0.719-3.34,1.063-5.013c0.672-3.273,1.344-6.547,2.081-9.806
						c1.494-6.605,3.322-13.104,5.089-19.638c0.995-3.68,1.927-7.37,3.02-11.024C320.873,413.367,320.738,413.311,320.704,413.394
						L320.704,413.394z"/>
				</g>
				<g>
					<path style="fill:#232323;" d="M159.347,429.225c0.246,0.129,0.318,0.304,0.516,0.467c0.165,0.136,0.401,0.204,0.605,0.254
						c0.511,0.127,1.044,0.061,1.557-0.022c1.096-0.179,2.132-0.621,3.121-1.112c2.001-0.994,3.965-2.375,6.233-2.657
						c-0.254-0.242-0.509-0.485-0.763-0.727c-0.004,2.298,0.965,4.411,1.168,6.673c0.153,1.699-0.161,3.857-1.939,4.602
						c-1.747,0.731-3.807-0.227-5.117-1.39c-0.812-0.72-1.512-1.553-2.204-2.386c-0.667-0.803-1.368-1.939-2.361-2.345
						c-0.696-0.285-1.269,0.337-0.963,1.013c0.387,0.855,1.246,1.557,1.855,2.269c0.636,0.743,1.266,1.496,1.971,2.177
						c1.269,1.227,2.826,2.203,4.604,2.443c1.694,0.229,3.446-0.241,4.528-1.634c1.027-1.322,1.303-3.063,1.163-4.697
						c-0.198-2.294-1.206-4.443-1.215-6.761c-0.002-0.372-0.368-0.779-0.763-0.727c-2.256,0.294-4.197,1.446-6.169,2.503
						c-0.934,0.501-1.886,0.994-2.908,1.289c-0.473,0.137-0.938,0.198-1.423,0.263c-0.244,0.033-0.548,0.055-0.781,0.14
						c-0.257,0.093-0.389,0.26-0.685,0.249C159.313,429.105,159.294,429.197,159.347,429.225L159.347,429.225z"/>
				</g>
				<g>
					<path style="fill:#232323;" d="M323.611,412.908c1.143,2.081,3.454,3.48,5.595,4.363c0.546,0.225,1.1,0.423,1.671,0.577
						c0.277,0.075,0.558,0.131,0.835,0.205c0.454,0.121,0.52,0.233,0.46,0.696c-0.131,1.008-0.389,2.038-0.726,2.995
						c-0.676,1.919-2.177,3.706-4.423,3.086c-2.497-0.689-3.531-3.334-3.793-5.675c-0.131-1.171-0.129-2.357,0.204-3.495
						c0.142-0.486,0.365-0.939,0.637-1.365c0.268-0.421,0.648-0.944,1.082-1.191c0.445-0.253,0.108-0.89-0.353-0.784
						c-0.576,0.132-1.102,0.232-1.557,0.632c-0.479,0.42-0.828,0.938-1.073,1.524c-0.476,1.14-0.647,2.389-0.614,3.62
						c0.077,2.865,1,6.103,3.622,7.641c2.428,1.423,5.252,0.671,6.743-1.664c0.668-1.046,1.047-2.279,1.313-3.483
						c0.27-1.222,0.81-2.963-0.617-3.65c-0.667-0.321-1.476-0.392-2.184-0.606c-0.812-0.246-1.596-0.551-2.353-0.936
						c-1.508-0.767-2.795-1.841-4.196-2.772C323.701,412.504,323.521,412.744,323.611,412.908L323.611,412.908z"/>
				</g>
				<g>
					<path style="fill:#232323;" d="M262.792,92.776c0.335,0.431,0.569,0.94,0.865,1.404c0.26,0.407,0.533,0.805,0.794,1.212
						c0.561,0.875,1.147,1.734,1.704,2.612c1.124,1.771,2.105,3.635,2.957,5.551c0.856,1.925,1.586,3.906,2.225,5.913
						c0.32,1.005,0.602,2.027,0.969,3.016c0.369,0.991,0.815,1.95,1.176,2.94c0.099,0.272,0.575,0.237,0.535-0.086
						c-0.136-1.089-0.208-2.164-0.41-3.248c-0.193-1.037-0.517-2.052-0.844-3.054c-0.674-2.064-1.449-4.093-2.346-6.07
						c-0.892-1.967-1.913-3.875-3.094-5.684c-0.56-0.858-1.155-1.7-1.85-2.455c-0.374-0.407-0.753-0.808-1.163-1.177
						c-0.42-0.377-0.9-0.663-1.319-1.035C262.887,92.522,262.698,92.655,262.792,92.776L262.792,92.776z"/>
				</g>
				<g>
					<path style="fill:#232323;" d="M276.427,127.193c0.02,0.394,0.007,0.784,0.048,1.176c0.04,0.385,0.11,0.767,0.165,1.15
						c0.116,0.809,0.229,1.619,0.346,2.428c0.116,0.804,0.227,1.61,0.313,2.419c0.077,0.727,0.172,1.562,0.503,2.222
						c0.094,0.187,0.414,0.179,0.499-0.012c0.32-0.723,0.318-1.641,0.263-2.415c-0.057-0.812-0.152-1.618-0.292-2.42
						c-0.14-0.797-0.342-1.586-0.599-2.352c-0.122-0.362-0.238-0.737-0.39-1.088c-0.18-0.416-0.437-0.778-0.674-1.161
						C276.558,127.059,276.422,127.095,276.427,127.193L276.427,127.193z"/>
				</g>
				<g>
					<path style="fill:#232323;" d="M138.837,108.06c-0.474,0.939-0.812,1.742-0.888,2.812c-0.074,1.041,0.083,2.125,0.41,3.115
						c0.658,1.987,1.913,3.711,3.368,5.191c3.177,3.23,7.233,5.442,11.101,7.722c1.167,0.688,2.333,1.376,3.5,2.064
						c0.602,0.355,1.209,0.695,1.822,1.028c0.658,0.357,1.343,0.608,2.02,0.924c0.572,0.267,0.959-0.486,0.464-0.841
						c-0.946-0.68-1.844-1.368-2.848-1.973c-0.984-0.592-1.986-1.158-2.978-1.736c-1.89-1.102-3.792-2.185-5.658-3.326
						c-3.378-2.067-6.984-4.505-8.937-8.063c-0.556-1.013-0.935-2.137-1.091-3.282c-0.148-1.086-0.181-2.412,0.161-3.459
						C139.369,107.975,138.96,107.817,138.837,108.06L138.837,108.06z"/>
				</g>
				<g>
					<path style="fill:#232323;" d="M252.705,251.967c0.06,0.326,0.332,0.467,0.492,0.732c0.152,0.252,0.253,0.588,0.297,0.888
						c0.112,0.754,0.034,1.575-0.071,2.325c-0.131,0.936-0.378,1.834-0.657,2.734c-0.138,0.445-0.284,0.885-0.461,1.316
						c-0.1,0.243-0.251,0.514-0.277,0.776c-0.006,0.063-0.022,0.358,0.003,0.272c0.033-0.113-0.15,0.284-0.147,0.278
						c-0.227,0.552,0.472,1.233,0.924,0.678c0.104-0.128,0.202-0.268,0.311-0.391c-0.027,0.003-0.054,0.005-0.082,0.008
						c0.102-0.027,0.191-0.077,0.266-0.148c0.244-0.199,0.402-0.539,0.546-0.814c0.298-0.57,0.568-1.164,0.773-1.774
						c0.397-1.179,0.6-2.432,0.68-3.67c0.064-0.975,0-2.111-0.57-2.949c-0.263-0.386-0.685-0.742-1.145-0.869
						C253.18,251.244,252.612,251.463,252.705,251.967L252.705,251.967z"/>
				</g>
				<g>
					<path style="fill:#232323;" d="M187.45,171.023c-0.677,0.311-0.403,1.268-0.17,1.78c0.346,0.76,0.714,1.524,1.227,2.187
						c1.032,1.334,2.462,2.217,4.186,2.195c3.674-0.045,5.936-3.513,5.872-6.919c-0.013-0.692-0.859-0.968-1.331-0.514
						c-1.756,1.689-3.184,3.66-4.605,5.629c-0.544,0.753,0.669,1.58,1.283,0.942c0.771-0.801,1.475-1.656,2.119-2.563
						c0.612-0.863,1.294-1.818,1.197-2.93c-0.035-0.402-0.308-0.743-0.725-0.782c-0.364-0.034-0.824,0.199-0.878,0.605
						c-0.154,1.171-0.436,2.327-0.885,3.421c0.501,0.197,1.003,0.394,1.504,0.591c0.439-1.173,0.602-2.741,0.018-3.896
						c-0.228-0.452-0.62-0.818-1.128-0.911c-0.72-0.131-1.255,0.365-1.632,0.915c-0.703,1.025-0.954,2.385-0.949,3.611
						c0.002,0.632,0.226,1.277,0.88,1.489c0.69,0.224,1.18-0.217,1.522-0.768c0.658-1.061,1.064-2.294,1.206-3.531
						c0.071-0.611,0.096-1.23-0.42-1.658c-0.539-0.448-1.32-0.316-1.814,0.132c-0.859,0.779-1.399,2.22-1.631,3.327
						c-0.125,0.598-0.164,1.287,0.138,1.843c0.325,0.597,0.981,0.85,1.616,0.604c1.818-0.703,3.131-5.685,0.321-5.813
						c-1.143-0.052-2.181,1.026-2.819,1.867c-0.713,0.94-1.172,2.562-0.128,3.465c1.14,0.986,2.398-0.306,2.77-1.368
						c0.373-1.068,0.142-2.492-0.756-3.24c-0.498-0.414-1.191-0.556-1.774-0.223c-0.55,0.314-0.814,0.924-0.991,1.502
						c-0.355,1.159-0.348,2.767,0.365,3.8c0.432,0.627,1.185,0.887,1.895,0.584c0.688-0.294,1.034-0.977,1.135-1.686
						c0.192-1.34-0.174-2.978-1.309-3.829c-1.15-0.863-2.917-0.392-3.126,1.136c-0.155,1.131,0.432,2.848,1.552,3.317
						c0.7,0.293,1.492-0.237,1.278-1.034c-0.391-1.456-1.346-2.676-2.641-3.44c-0.495-0.292-1.16,0.018-1.293,0.564
						c-0.379,1.558,0.086,3.18,1.217,4.312c0.256,0.257,0.778,0.345,1.083,0.113c1.132-0.86,0.393-2.229-0.113-3.244
						c-0.525-1.054-1.174-2.114-2.46-2.199c-0.454-0.03-0.92,0.466-0.871,0.915c0.161,1.472,0.818,2.821,1.957,3.785
						c0.652,0.552,1.738-0.014,1.461-0.9c-0.4-1.28-1.159-2.419-2.214-3.25c-0.345-0.271-0.802-0.34-1.16-0.041
						c-0.302,0.253-0.479,0.798-0.199,1.144c0.888,1.098,1.776,2.18,2.824,3.13c0.633,0.574,1.785-0.252,1.214-0.986
						c-0.816-1.05-1.701-2.037-2.537-3.072c-0.453,0.368-0.906,0.736-1.359,1.103c0.828,0.651,1.42,1.476,1.732,2.485
						c0.487-0.3,0.974-0.6,1.461-0.9c-0.766-0.652-1.288-1.531-1.395-2.542c-0.29,0.305-0.58,0.61-0.871,0.915
						c0.299,0.021,0.67,0.916,0.772,1.109c0.148,0.28,0.285,0.565,0.406,0.858c0.043,0.105,0.151,0.487,0.189,0.431
						c0.104-0.109,0.208-0.219,0.312-0.328c-0.029,0.022-0.059,0.045-0.088,0.067c0.361,0.038,0.722,0.075,1.083,0.113
						c-0.684-0.683-0.947-1.652-0.721-2.589c-0.431,0.188-0.862,0.376-1.293,0.564c0.91,0.536,1.528,1.38,1.802,2.396
						c0.426-0.345,0.852-0.689,1.278-1.034c-0.245-0.102-0.335-0.267-0.433-0.508c-0.084-0.208-0.364-0.817-0.235-1.041
						c0.001-0.002,0.068-0.072,0.185-0.028c0.313,0.117,0.501,0.502,0.613,0.789c0.139,0.354,0.199,0.723,0.195,1.102
						c-0.002,0.172-0.107,0.447-0.086,0.603c0.002,0.012-0.05,0.085-0.044,0.094c-0.048-0.076,0.255,0.028,0.248,0.04
						c0.007-0.012-0.158-0.41-0.17-0.453c-0.051-0.189-0.084-0.374-0.1-0.569c-0.036-0.468,0.01-0.927,0.15-1.376
						c0.016-0.05,0.181-0.372,0.167-0.401c-0.021-0.046-0.224-0.004-0.23,0.01c-0.004,0.008,0.087,0.07,0.099,0.099
						c0.134,0.308,0.25,0.563,0.222,0.912c-0.02,0.256-0.102,0.549-0.262,0.755c0.07-0.091-0.158,0.171-0.157,0.152
						c0.064,0.018,0.127,0.036,0.191,0.054c0.165,0.099,0.224,0.107,0.178,0.024c0.025-0.032-0.014-0.409,0.009-0.493
						c0.172-0.649,0.873-1.337,1.424-1.691c0.052-0.034,0.233-0.144,0.254-0.14c-0.098-0.019-0.002,0.029,0.004,0.145
						c0.017,0.365-0.034,0.712-0.133,1.064c-0.123,0.433-0.349,0.775-0.573,1.158c-0.024,0.042-0.128,0.111-0.132,0.154
						c0.384,0.285,0.545,0.324,0.481,0.116c-0.014-0.043-0.019-0.088-0.015-0.133c0.029-0.239,0.036-0.445,0.097-0.683
						c0.109-0.428,0.257-0.842,0.447-1.241c0.11-0.231,0.233-0.457,0.365-0.677c0.044-0.073,0.094-0.143,0.136-0.217
						c0.096-0.173,0.011-0.099,0.037-0.09c-0.123-0.068-0.246-0.135-0.369-0.203c-0.036-0.141-0.049-0.124-0.038,0.053
						c-0.005,0.057-0.01,0.114-0.015,0.171c-0.017,0.154-0.044,0.309-0.072,0.462c-0.063,0.338-0.147,0.672-0.252,0.999
						c-0.101,0.316-0.227,0.619-0.375,0.916c-0.064,0.128-0.131,0.255-0.202,0.379c-0.042,0.075-0.085,0.149-0.13,0.222
						c-0.094,0.163-0.117,0.197-0.07,0.1c0.137-0.041,0.273-0.081,0.41-0.122c-0.011-0.002-0.022-0.005-0.034-0.007
						c0.122,0.067,0.244,0.134,0.366,0.202c0.013,0.01-0.007-0.126-0.004-0.226c0.004-0.141,0.011-0.281,0.022-0.421
						c0.02-0.265,0.057-0.527,0.111-0.787c0.053-0.256,0.117-0.517,0.212-0.761c0.059-0.152,0.138-0.304,0.219-0.446
						c0.049-0.086,0.209-0.245,0.216-0.326c0.009-0.091-0.171-0.095-0.184-0.061c-0.008,0.021,0.066,0.149,0.074,0.169
						c0.096,0.247,0.11,0.534,0.122,0.795c0.028,0.643-0.096,1.249-0.32,1.85c-0.32,0.857,1.154,1.446,1.504,0.591
						c0.504-1.232,0.864-2.493,1.037-3.815c-0.534-0.059-1.068-0.118-1.602-0.177c0.071,0.815-0.646,1.629-1.1,2.253
						c-0.536,0.736-1.127,1.431-1.752,2.092c0.428,0.314,0.856,0.628,1.283,0.942c1.324-1.871,2.666-3.74,4.319-5.339
						c-0.444-0.171-0.888-0.343-1.331-0.514c0.053,2.415-1.313,5.013-3.92,5.333c-1.199,0.147-2.297-0.289-3.138-1.14
						c-0.43-0.435-0.794-0.944-1.119-1.46c-0.168-0.266-0.321-0.542-0.47-0.819c-0.076-0.141-0.159-0.262-0.252-0.393
						c-0.065-0.092-0.12-0.262-0.18-0.194C188.257,171.276,187.843,170.842,187.45,171.023L187.45,171.023z"/>
				</g>
				<g>
					<path style="fill:#232323;" d="M237.671,170.432c-1.265,0.19-0.704,2.129-0.533,2.936c0.267,1.263,0.833,2.526,1.805,3.405
						c2.045,1.848,5.217,1.502,7.222-0.194c1.147-0.97,1.91-2.333,2.298-3.773c0.186-0.69-0.584-1.145-1.155-0.845
						c-2.097,1.102-3.968,2.545-5.829,3.999c-0.797,0.622-0.074,1.894,0.843,1.366c0.987-0.568,1.923-1.208,2.808-1.925
						c0.805-0.652,1.684-1.352,1.892-2.426c0.165-0.855-1.112-1.479-1.501-0.59c-0.476,1.085-1.071,2.11-1.809,3.038
						c0.393,0.375,0.787,0.75,1.18,1.124c0.74-0.991,1.333-2.261,1.264-3.531c-0.072-1.309-1.246-2.142-2.419-1.342
						c-1.022,0.698-1.627,1.845-2.043,2.976c-0.206,0.56-0.41,1.175-0.088,1.735c0.343,0.597,1.097,0.751,1.666,0.384
						c0.976-0.629,1.776-1.825,2.283-2.844c0.254-0.511,0.575-1.121,0.497-1.704c-0.094-0.699-0.753-1.128-1.43-1.068
						c-0.618,0.055-1.103,0.516-1.53,0.926c-0.483,0.464-0.903,0.994-1.265,1.556c-0.575,0.891-1.247,2.803,0.263,3.228
						c1.213,0.341,2.417-1.116,2.945-2.024c0.571-0.983,0.985-2.555-0.199-3.285c-1.058-0.652-2.421,0.092-3.327,0.69
						c-1.001,0.661-1.934,1.904-1.464,3.164c0.558,1.495,2.33,0.865,3.065-0.087c0.715-0.926,0.992-2.356,0.357-3.402
						c-0.291-0.479-0.785-0.824-1.356-0.831c-0.719-0.009-1.234,0.525-1.616,1.067c-0.716,1.017-1.133,2.462-0.86,3.699
						c0.157,0.711,0.722,1.279,1.473,1.299c0.78,0.021,1.401-0.522,1.737-1.184c0.61-1.202,0.755-2.962-0.071-4.108
						c-0.848-1.176-2.723-1.314-3.374,0.137c-0.477,1.062-0.374,2.877,0.581,3.648c0.599,0.483,1.483,0.137,1.498-0.665
						c0.028-1.518-0.56-2.943-1.594-4.044c-0.401-0.427-1.121-0.259-1.391,0.214c-0.799,1.399-0.779,3.078-0.01,4.483
						c0.177,0.323,0.666,0.52,1.016,0.385c1.328-0.511,0.969-2.077,0.767-3.177c-0.213-1.161-0.543-2.326-1.753-2.765
						c-0.432-0.157-1.006,0.211-1.083,0.651c-0.255,1.465,0.014,2.942,0.84,4.188c0.48,0.724,1.661,0.411,1.642-0.488
						c-0.029-1.345-0.449-2.65-1.232-3.746c-0.255-0.356-0.696-0.528-1.11-0.334c-0.363,0.171-0.658,0.643-0.485,1.054
						c0.546,1.301,1.105,2.589,1.845,3.791c0.454,0.738,1.765,0.21,1.426-0.643c-0.491-1.236-1.066-2.432-1.581-3.659
						c-0.532,0.24-1.063,0.48-1.595,0.72c0.612,0.855,0.941,1.808,0.96,2.861c0.547-0.163,1.094-0.326,1.642-0.489
						c-0.553-0.84-0.794-1.824-0.617-2.822c-0.361,0.217-0.722,0.434-1.083,0.651c-0.117-0.043,0.031,0.038,0.064,0.101
						c0.043,0.08,0.081,0.153,0.114,0.238c0.115,0.292,0.176,0.611,0.24,0.917c0.065,0.311,0.116,0.622,0.15,0.938
						c0.011,0.1-0.008,0.421,0.043,0.516c0.02,0.038,0.006-0.011,0.006-0.011c0.129-0.08,0.258-0.159,0.388-0.239
						c-0.035,0.013-0.069,0.027-0.103,0.04c0.339,0.128,0.678,0.257,1.016,0.385c-0.466-0.85-0.424-1.851,0.051-2.684
						c-0.464,0.071-0.928,0.143-1.392,0.214c0.721,0.766,1.065,1.754,1.047,2.799c0.499-0.221,0.999-0.443,1.498-0.665
						c-0.218-0.175-0.244-0.405-0.262-0.676c-0.016-0.231-0.093-0.709,0.049-0.921c0.254-0.378,0.558,0.677,0.575,0.903
						c0.031,0.405-0.015,0.809-0.15,1.193c-0.055,0.157-0.194,0.324-0.231,0.48c-0.12,0.512-0.072,0.076-0.077,0.067
						c0.036,0.067,0.234,0.05,0.229,0.055c0.037-0.032-0.025-0.437-0.021-0.516c0.008-0.179,0.034-0.353,0.072-0.528
						c0.093-0.432,0.254-0.834,0.493-1.205c0.042-0.064,0.29-0.336,0.279-0.368c-0.004-0.012-0.198-0.024-0.19-0.044
						c-0.005,0.013,0.029,0.04,0.026,0.053c-0.009,0.039,0.074,0.29,0.079,0.353c0.015,0.2-0.012,0.386-0.076,0.576
						c-0.09,0.271-0.259,0.558-0.499,0.724c-0.022,0.015-0.15,0.07-0.158,0.087c-0.045,0.092,0.217,0.277,0.316,0.184
						c0.05-0.048,0.065-0.32,0.117-0.418c0.326-0.613,1.256-1.122,1.911-1.293c0.105-0.028,0.186-0.044,0.293-0.034
						c-0.245-0.023-0.019-0.119-0.08,0.043c-0.142,0.377-0.223,0.727-0.444,1.079c-0.208,0.332-0.484,0.643-0.794,0.883
						c0.026-0.02-0.258,0.174-0.258,0.175c0.148,0.092,0.297,0.183,0.445,0.275c0-0.063,0.009-0.124,0.029-0.183
						c0.107-0.138,0.155-0.398,0.248-0.562c0.233-0.409,0.509-0.787,0.822-1.139c0.152-0.17,0.311-0.334,0.476-0.49
						c0.083-0.078,0.168-0.154,0.254-0.229c0.124-0.109,0.026-0.077,0.061-0.052c-0.101-0.096-0.202-0.192-0.303-0.288
						c-0.01-0.153-0.031-0.143-0.065,0.033c-0.015,0.036-0.029,0.072-0.044,0.108c-0.061,0.153-0.133,0.302-0.206,0.449
						c-0.159,0.319-0.338,0.63-0.539,0.924c-0.177,0.26-0.376,0.504-0.588,0.737c-0.131,0.144-0.419,0.54-0.615,0.586
						c0.145-0.003,0.29-0.007,0.435-0.011c-0.012-0.007-0.024-0.015-0.036-0.022c0.1,0.096,0.2,0.191,0.301,0.286
						c-0.009,0.071-0.002,0.056,0.021-0.044c0.023-0.08,0.048-0.16,0.075-0.238c0.04-0.12,0.081-0.239,0.127-0.356
						c0.103-0.268,0.226-0.529,0.364-0.781c0.119-0.218,0.25-0.432,0.407-0.625c0.099-0.122,0.208-0.24,0.322-0.348
						c0.056-0.053,0.248-0.161,0.269-0.22c0.094-0.039,0.089-0.061-0.016-0.067c-0.061-0.006-0.114-0.031-0.159-0.073
						c-0.015,0.01,0.042,0.124,0.038,0.16c-0.027,0.246-0.023,0.48-0.076,0.727c-0.127,0.594-0.373,1.168-0.737,1.657
						c-0.263,0.352-0.317,0.823,0.028,1.153c0.297,0.283,0.877,0.318,1.152-0.028c0.826-1.04,1.52-2.158,2.053-3.375
						c-0.501-0.197-1.001-0.394-1.502-0.59c-0.15,0.778-1.02,1.332-1.608,1.787c-0.751,0.581-1.539,1.111-2.357,1.592
						c0.281,0.455,0.562,0.911,0.843,1.366c1.845-1.47,3.705-2.943,5.797-4.05c-0.385-0.281-0.77-0.563-1.155-0.845
						c-0.614,2.306-2.621,4.407-5.184,4.03c-1.198-0.176-2.145-0.879-2.733-1.928c-0.298-0.531-0.505-1.121-0.676-1.704
						c-0.096-0.327-0.173-0.659-0.245-0.992c-0.033-0.157-0.08-0.296-0.132-0.446c-0.037-0.109-0.043-0.27-0.107-0.23
						C238.192,170.97,238.077,170.371,237.671,170.432L237.671,170.432z"/>
				</g>
			</g>
		</g>
	</g>
</g>
</svg>
