<?xml version="1.0" encoding="utf-8"?>
<!-- Generator: Adobe Illustrator 27.5.0, SVG Export Plug-In . SVG Version: 6.00 Build 0)  -->
<svg version="1.1" xmlns="http://www.w3.org/2000/svg" xmlns:xlink="http://www.w3.org/1999/xlink" x="0px" y="0px"
	 viewBox="0 0 500 500" style="enable-background:new 0 0 500 500;" xml:space="preserve">
<g id="BACKGROUND">
	<rect style="fill:#6EDC9E;" width="500" height="500"/>
</g>
<g id="OBJECTS">
	<g>
		<defs>
			<rect id="SVGID_1_" width="500" height="500"/>
		</defs>
		<clipPath id="SVGID_00000080902533433186484860000013744403813510839231_">
			<use xlink:href="#SVGID_1_"  style="overflow:visible;"/>
		</clipPath>
		<g style="clip-path:url(#SVGID_00000080902533433186484860000013744403813510839231_);">
			<g>
				<g>
					<path style="fill:#E2C597;" d="M353.309,220.046c-0.804-3.206-1.003-6.557-1.872-9.801c-1.628-6.075-4.174-11.91-7.158-17.435
						l-0.051-0.094l-0.103-0.028c-0.942-0.256-1.947-0.386-2.988-0.386c-1.921,0-3.581,0.432-4.657,0.795l-0.061,0.036
						c-0.74,0.447-1.498,0.879-2.232,1.296l-0.353,0.201c-2.348,1.333-4.897,2.677-7.627,3.477c-0.02,0.006-0.038,0.009-0.056,0.009
						c-0.08,0-0.15-0.053-0.174-0.132c-0.03-0.098,0.025-0.198,0.124-0.228c2.704-0.842,5.19-2.211,7.475-3.564l0.798-0.477
						c2.089-1.247,4.249-2.536,6.061-4.151c0.415-0.364,0.806-0.756,1.162-1.162l0.08-0.092l-0.023-0.12
						c-0.031-0.165-0.014-0.324,0.053-0.471c2.379-5.174,2.78-9.617,1.19-13.204c-1.058-2.387-2.806-3.941-4.086-4.824
						c0,0-0.064-0.044-0.081-0.044c-0.257-0.137-0.539-0.274-0.839-0.408c-1.652-0.743-3.535-1.119-5.597-1.119
						c-0.743,0-1.51,0.05-2.278,0.15c-2.492,0.33-5.095,1.145-7.737,2.423c-2.691,1.307-4.804,2.946-6.28,4.873
						c-0.143,0.186-0.359,0.293-0.59,0.293c-0.166,0-0.324-0.055-0.458-0.158c-0.163-0.122-0.266-0.298-0.293-0.497
						c-0.027-0.198,0.026-0.394,0.148-0.552c1.658-2.08,3.972-3.819,6.888-5.176c2.787-1.297,5.537-2.107,8.173-2.408
						c0.715-0.08,1.431-0.12,2.128-0.12c0.917,0,1.82,0.07,2.685,0.209l0.416,0.067l-0.141-0.397
						c-1.229-3.463-2.831-12.461-1.897-21.862l0.082-1.305h0.045l0.101-0.638c0.538-3.967,1.524-7.606,2.932-10.821
						c4.714-10.781,0.623-21.389-1.354-25.45l-0.026-0.054l-0.056-0.052l-0.054-0.041c-5.336-6.791-11.513-10.401-18.358-10.73
						c-0.34-0.016-0.679-0.024-1.016-0.024c-12.571,0-23.166,10.955-23.272,11.066c-0.047,0.049-0.112,0.077-0.181,0.077
						c-0.049,0-0.097-0.014-0.138-0.041c-0.158-0.104-16.02-10.445-33.541-10.447c-12.903-0.001-23.263,5.56-30.797,16.527
						c-7.037,10.244-9.482,20.571-7.265,30.693c4.263,19.469,24.543,31.756,24.748,31.878c0.085,0.051,0.132,0.147,0.12,0.245
						l-1.73,14.418l-0.013,0.108l0.07,0.083l9.096,10.751l0.189,0.223l0.191-0.221c3.78-4.376,10.432-8.542,13.116-10.13
						l0.222-0.131l-0.139-0.218c-0.693-1.09-1.258-2.225-1.681-3.372c-1.118-3.005-1.344-6.261-0.637-9.17
						c0.764-3.179,2.543-5.929,5.012-7.745c3.001-2.24,6.433-2.813,8.784-2.899c0.256-0.011,0.51-0.017,0.764-0.017
						c2.62,0,5.414,0.579,8.304,1.721c2.495,0.987,4.978,2.327,8.051,4.342c0.346,0.227,0.443,0.693,0.216,1.039
						c-0.139,0.212-0.374,0.339-0.628,0.339c-0.146,0-0.288-0.042-0.41-0.123c-2.932-1.97-5.392-3.333-7.75-4.296
						c-2.791-1.136-5.473-1.711-7.97-1.711c-0.178,0-0.356,0.003-0.533,0.009c-3.073,0.077-5.954,0.989-8.111,2.566
						c-2.233,1.6-3.929,4.167-4.653,7.041c-0.688,2.694-0.507,5.734,0.51,8.56c0.41,1.153,0.974,2.297,1.678,3.398l0.047,0.073
						l0.082,0.029c0.043,0.015,0.102,0.046,0.137,0.11c0.013,0.022,0.029,0.061,0.022,0.14l-0.007,0.088l0.05,0.073
						c0.825,1.196,1.798,2.289,2.892,3.249c2.137,1.904,4.744,3.1,7.684,4.358c2.741,1.152,5.591,2.132,8.472,2.914
						c0.19,0.051,0.302,0.247,0.251,0.436c-0.042,0.155-0.183,0.263-0.344,0.263c-0.03,0-0.06-0.004-0.089-0.011
						c-2.921-0.759-5.814-1.719-8.598-2.853c-2.314-0.962-4.558-1.942-6.561-3.337l-0.032-0.022l-0.037-0.012
						c-2.065-0.634-5.083-1.39-7.729-1.39c-0.68,0-1.31,0.05-1.874,0.15l-0.054,0.01l-0.045,0.031
						c-3.699,2.569-6.483,4.962-8.275,7.113l-0.037,0.045l-0.014,0.057c-0.015,0.061-0.039,0.105-0.073,0.134
						c-0.012,0.01-0.038,0.022-0.062,0.033l-0.056,0.025l-0.038,0.048c-0.682,0.86-1.197,1.68-1.532,2.439
						c-2.708,6.128-4.167,13.954-4.227,14.284c-0.006,0.031-0.023,0.065-0.053,0.104l-0.039,0.051c0,0-0.01,0.064-0.01,0.064
						c-1.202,7.957,5.657,14.958,11.561,19.147c1.796,1.274,3.729,2.476,5.747,3.571c6.884,3.762,14.926,6.796,25.309,9.548
						c1.948,0.5,4.255,1.079,6.607,1.588l1.655,0.374l1.631,0.44l3.28,0.89l6.561,1.78c0.376,0.094,0.745,0.198,1.112,0.302
						c0.711,0.201,1.447,0.408,2.164,0.518c0.991,0.166,2.079,0.251,3.232,0.251l0.107,0c2.324-0.025,4.526-0.449,6.545-1.259
						c0.987-0.419,1.929-0.918,2.968-1.572l2.912-1.75c3.985-2.353,7.734-4.443,11.46-6.389l0.054-0.028l0.021-0.03
						c0.056-0.043,0.111-0.073,0.18-0.101l0.1-0.04c0,0,0.047-0.019,0.074-0.035c0.014-0.005,0.033-0.01,0.054-0.015l2.62-1.009
						c0.978-0.483,1.819-1.227,2.534-2.198c1.315-1.226,2.36-2.738,2.858-4.457c0.381-1.314,0.437-2.709,0.868-4.007
						c0.574-1.729,1.77-3.168,2.685-4.743C353.416,226.957,354.138,223.353,353.309,220.046z"/>
				</g>
				<g>
					<path style="fill:#5C6A6D;" d="M367.835,99.771c-0.108-0.473-0.385-0.903-0.893-1.257c-2.61-1.822-6.065-2.753-9.21-2.914
						c-2.626-0.134-5.278,0.288-7.738,1.215c-2.247,0.846-3.661,2.623-5.898,3.512c-2.908,1.156-5.742,2.578-8.474,4.103
						l-0.436,0.243l0.243,0.436c0.891,1.602,3.826,7.402,4.197,14.774l0.038,0.762l0.684-0.339l0.332-0.165
						c0.684-0.339,1.367-0.679,2.053-1.022c1.76-0.996,4.151-2.232,6.755-3.493c3.093-1.668,5.843-3.285,8.338-4.909
						c-0.268,0.174-0.531,0.35-0.802,0.522l-0.031,0.02l-0.028,0.024c-0.665,0.572-1.767,1.741-3.044,3.094
						c-2.382,2.525-5.644,5.983-7.894,7.465c-1.021,0.673-3.285,3.095-3.277,4.627c-0.238,0.967-4.888,14.389-8.603,23.349
						l-0.152,0.152l0.089,0.227c-0.079,8.007,1.347,14.678,2.133,16.48l0.111,0.256l0.276,0.039
						c1.172,0.168,2.305,0.253,3.367,0.253c3.882,0,7.031-1.122,9.358-3.335c5.88-5.59,5.178-16.49,4.822-19.697
						c-0.683-6.337,2.273-11.761,6.21-18.194c3.271-5.358,3.361-5.625,3.204-9.517l-0.04-1.112c-0.12-3.382,0.467-6.597,0.828-8.213
						l0.305-1.365l-1.1,0.856c-1.763,1.381-3.683,2.739-5.704,4.053c2.494-1.625,4.736-3.258,6.814-4.957l0.086-0.07l0.048-0.1
						c0.023-0.049,0.032-0.072,0.046-0.093C365.943,104.296,368.271,101.681,367.835,99.771z M346.354,161.718
						c0.038,0.189,0.057,0.377,0.057,0.559c0,1.574-1.28,2.854-2.854,2.854c-1.573,0-2.854-1.28-2.854-2.854
						c0-1.574,1.28-2.854,2.854-2.854c1.061,0,2.028,0.596,2.525,1.556l0.227,0.439l-0.012,0.01L346.354,161.718z"/>
					<path style="fill:#5C6A6D;" d="M164.722,115.842c-0.105,1.82,0.246,3.826-0.058,5.603c-0.298,1.745-0.772,3.407-0.884,5.222
						c-0.231,3.747,0.096,7.519,0.748,11.21c0.609,3.452,1.485,6.889,2.691,10.183c10.532,32.461,32.739,34.844,32.962,34.864
						c0.05,0.005,0.105,0.019,0.178,0.044c0,0,0.073,0.027,0.086,0.028h0.033l0.033,0.001c0.519,0.02,1.047,0.034,1.578,0.034
						c0.076,0,0.143-0.004,0.218-0.005c-0.357,0.312-0.621,0.762-0.737,1.227c-0.206,0.827-0.079,1.695-0.05,2.546
						c0.05,1.512-0.219,3.015-0.487,4.504c-1.051,5.842-2.073,11.691-3.153,17.528c-0.1,0.542-0.224,1.085-0.366,1.629l-0.076-0.016
						c0,0-0.041,0.12-0.079,0.232l0.091,0.004c-1.018,3.758-2.929,7.536-4.592,10.968c0,0.001-0.594,1.225-0.594,1.225l1.246-0.55
						c2.81-1.24,6.076-1.573,7.013-1.646c0,0,0.049-0.004,0.052-0.004c0.191,0,0.352,0.099,0.44,0.251
						c0.097,0.168,0.091,0.365-0.015,0.526c-2.456,3.757-1.914,8.795-1.372,11.464l0.197,0.968l0.664-0.731
						c3.318-3.654,9.7-3.696,9.97-3.696c0.185,0,0.351,0.099,0.444,0.265c1.711,3.122,3.615,6.164,5.658,9.035l0.087,0.122
						l0.139,0.054c0.18,0.07,0.302,0.238,0.312,0.43l0.008,0.149l0.058,0.08l-0.308,2.874c-2.807,26.2-23.075,63.628-25.377,67.81
						l-0.177,0.321l0.253,0.265c4.862,5.1,10.147,9.941,15.723,14.4l-0.123-0.037l2.21,1.683
						c15.099,11.703,39.081,25.745,67.613,26.209c0.031,0.004,0.059,0.007,0.086,0.009c0.384,0.05,2.155,0.258,4.795,0.258
						c8.639,0,29.456-2.377,36.146-24.391l0.433-1.426l-0.045,0.032c0.297-1.103,0.553-2.224,0.764-3.339l0.029-0.153l-0.064-0.143
						l-0.08-0.18l-0.017-0.038l-0.023-0.034c-1.671-2.534-2.98-5.224-3.89-7.994l-0.292-0.888l-0.577,0.735
						c-1.736,2.213-5.683,5.924-12.619,5.924c-4.438,0-9.4-1.547-14.748-4.598c-4.405-2.513-9.03-4.937-13.502-7.281
						c-16.52-8.659-33.602-17.612-42.067-32.483c-8.611-15.128-12.287-29.317-13.468-34.715l-0.592-2.707
						c8.746,11.912,17.454,17.178,19.918,18.51l1.078,0.583l-0.238-0.765c0.073,0.23,0.146,0.47,0.22,0.692l0.025,0.076l0.047,0.064
						c0.034,0.046,0.051,0.074,0.057,0.096c0.106,0.275,2.389,5.881,13.516,17.63c5.038,5.327,12.571,8.174,19.396,10.363
						c7.277,2.333,14.798,3.932,22.346,5.092c11.884,1.826,23.988,1.056,33.134-7.843c5.719-5.565,8.758-12.8,10.054-20.559
						c0.514-3.076,1.534-5.911,1.933-9.062c0.288-2.275,0.576-4.549,0.864-6.824l0.121-0.953l-0.85,0.448
						c-3.328,1.753-6.709,3.635-10.05,5.594l-0.143,0.084l-0.065,0.153c-3.335,7.912-11.061,10.069-11.778,10.254
						c-11.074-0.118-28.147-10.764-31.462-12.901l-0.061-0.039l-0.07-0.02c-8.452-2.465-15.183-5.144-21.183-8.433
						c-2.02-1.101-3.956-2.307-5.754-3.587c-1.951-1.373-3.706-2.826-5.217-4.321c-1.724-1.691-3.154-3.46-4.251-5.256
						c-0.959-1.596-2.087-3.752-2.303-6.274l0.199-0.154l-0.036-0.283c-0.093-0.737-0.115-1.466-0.066-2.167l0.076-1.097
						l-0.025,0.019l0.035-0.179c0.264-1.371,1.71-8.495,4.207-14.146c0.325-0.735,0.818-1.53,1.465-2.364l0.249-0.32l-0.262-0.309
						l-9.354-11.055l1.718-14.318l0.038-0.314l-0.267-0.169c-2.092-1.321-20.556-13.436-24.595-31.867
						c-2.234-10.194,0.222-20.588,7.302-30.894c7.587-11.046,18.002-16.647,30.956-16.647c16.061,0,30.635,8.57,33.393,10.288
						l0.333,0.208l0.281-0.275c1.853-1.814,11.678-10.865,23.163-10.865c0.343,0,0.687,0.008,1.032,0.025
						c5.441,0.259,10.496,2.589,15.023,6.924l0.718-0.695c-4.57-5.152-15.125-12.512-20.069-15.685
						c-0.116-0.075-0.194-0.19-0.218-0.32c-0.04-0.181,0.02-0.319,0.077-0.406c1.082-1.557,4.493-3.267,9.595-4.804l1.194-0.36
						l-1.111-0.565c-7.215-3.667-17.903-5.473-18.355-5.548c-0.147-0.025-0.277-0.119-0.355-0.26
						c-0.073-0.13-0.079-0.287-0.018-0.43c1.923-4.542,11.851-9.537,16.031-11.473l1.222-0.566l-1.296-0.368
						c-7.697-2.188-16.544-3.298-26.296-3.298c-23.13,0-43.865,6.216-44.737,6.481l-0.038,0.012l-0.036,0.018l-52.53,25.72
						l-0.359,0.176l0.092,0.389c0.857,3.615,1.401,11.168,1.548,13.397l0.025,0.387l0.381,0.072c0.585,0.11,1.149,0.226,1.708,0.345
						c-0.588-0.125-1.184-0.246-1.801-0.361l-0.259-0.048c0,0-0.186,0.186-0.189,0.189c-0.958,0.91-3.503-0.005-4.544-0.361
						c-1.836-0.628-3.76-0.972-5.695-1.081c-3.865-0.218-7.752,0.479-11.417,1.681c-2.466,0.808-4.893,1.857-6.909,3.491
						c-2.038,1.652-4.031,4.306-4.031,7.05c-0.361,2.316-0.716,4.727-0.028,6.968c0.417-0.27,0.834-0.54,1.251-0.81
						 M184.819,114.885c-1.864,0-3.705,0.146-5.504,0.427c1.805-0.284,3.646-0.439,5.505-0.439c1.161,0,2.333,0.075,3.502,0.186
						C187.156,114.948,185.98,114.885,184.819,114.885z M200.863,159.096c-0.263,0.025-0.533,0.038-0.8,0.038
						c-0.275,0-0.55-0.013-0.822-0.04l-0.874-0.706c-0.625-0.505-1.08-1.503-1.413-2.232l-0.027-0.06
						c-1.148-2.514-1.426-5.537-0.781-8.511c0.744-3.432,2.598-6.819,5.669-10.356c0.325-0.374,0.77-0.887,0.798-1.552
						c0.017-0.404-0.128-0.771-0.234-1.038c-2.915-7.344-7.555-14.061-13.42-19.424l-0.116-0.106
						c0.212,0.023,0.425,0.034,0.637,0.061c5.718,0.724,10.567,2.728,14.023,5.794c1.473,1.308,2.756,2.856,3.997,4.353
						c1.592,1.921,3.238,3.907,5.289,5.384c0.309,0.223,0.674,0.465,1.083,0.495l0.019,0.001l0.069,0.002
						c0.105,0,0.21-0.02,0.316-0.046l-0.653,0.198l0.484,0.58c1.098,1.316,1.72,3.062,1.706,4.792
						c-0.009,2.088-0.993,4.106-2.631,5.401c-0.72,0.575-1.623,1.02-2.763,1.362c-0.461,0.149-0.941,0.252-1.405,0.351
						c-0.574,0.123-1.117,0.239-1.619,0.432c-0.997,0.364-1.673,1.262-2.279,2.151c-0.58,0.873-1.055,1.818-1.415,2.813
						c-0.562,1.547-1.076,3.882-0.332,6.218c0.094,0.314,0.22,0.591,0.353,0.884c0.082,0.18,0.168,0.369,0.253,0.584
						c0.045,0.125,0.12,0.396,0.058,0.656c-0.048,0.207-0.171,0.411-0.349,0.577c-0.317,0.291-0.722,0.494-1.309,0.656
						C201.879,158.949,201.374,159.045,200.863,159.096z M215.741,130.044c2.098-2.351,3.307-5.468,3.312-8.621
						C219.048,124.576,217.839,127.693,215.741,130.044z M245.83,219.467c-1.056,0.8-2.551,1.982-4.126,3.379
						c1.962-1.746,3.731-3.093,4.508-3.669L245.83,219.467z M316.358,284.15C316.358,284.15,316.358,284.15,316.358,284.15
						c-0.002-0.004-0.004-0.009-0.005-0.013C316.354,284.141,316.356,284.146,316.358,284.15L316.358,284.15z"/>
				</g>
				<path style="fill:#E2C597;" d="M214.03,147.447c-0.694-3.851,1.467-7.753,0.964-11.633c-0.282-2.171-2.806-4.062-4.065-5.853
					c-4.765-6.785-10.731-11.702-18.798-13.617c-8.067-1.915-16.732-0.458-24.311,2.901c-1.262,0.559-2.365,1.278-3.156,2.409
					c-0.782,1.117-1.162,1.981-1.27,3.34c-1.11,14.071,3.429,28.664,10.834,40.426c0.961,1.527,1.927,3.059,3.1,4.429
					c2.274,2.655,5.244,4.604,8.197,6.475c1.615,1.023,3.238,2.033,4.868,3.031c2.466,1.509,4.999,3.011,7.809,3.692
					c3.658,0.887,7.656,0.275,10.881-1.665c5.558-3.345,7.061-9.632,8.367-15.548c0.416-1.886,1.176-3.954,1.178-5.901
					C218.632,155.27,214.822,151.84,214.03,147.447z"/>
				<path style="fill:#E2C597;" d="M339.895,121.374l24.951-15.073c0,0-1.244,9.22-1.024,12.585c0.22,3.366-4.829,9.585-4.829,9.585
					s-5.488,9.878-4.902,17.195c0.585,7.317,0.073,15-3.585,17.268c-3.659,2.268-4.39,5.195-9.659,4.61
					c-5.268-0.585-5.488-1.244-5.488-1.244l-1.683-19.39L339.895,121.374z"/>
				<path style="fill:#E2C597;" d="M248.861,228.72c-1.85,6.714-3.432,13.547-3.816,20.501c-0.384,6.954,0.475,14.073,3.333,20.424
					c2.172,4.826,5.554,9.182,9.913,12.22c4.736,3.301,9.656,4.4,15.233,5.731c9.396,2.243,18.858,4.22,28.355,5.99
					c9.434,1.758,19.12-3.054,25.254-10.078c4.703-5.385,7.747-11.977,10.042-18.691c1.412-4.13,1.842-8.306,2.426-12.614
					l0.585-5.122l-11.509,5.848c0,0-7.661,6.883-18.052,4.981c-10.39-1.902-23.707-6.878-23.707-6.878l-12.439-4.098l-13.317-6.293
					c0,0-7.024-4.976-8.049-6.146C251.528,232.684,250.034,230.824,248.861,228.72z"/>
				<path style="fill:#0B1011;" d="M223.527,445.485l-42,26.927c0,0,2.488-35.415,0-49.463l-0.293-1.61l1.317,0.146
					c0,0,9.951,14.78,20.927,19.024C203.478,440.509,212.844,445.338,223.527,445.485z"/>
				<path style="fill:#0B1011;" d="M370.248,451.883c-0.085,0.427-4.82-11.705-12.394-14.322c0,0,10.603-6.61,14.046-14.046
					C371.901,423.515,371.488,445.686,370.248,451.883z"/>
				<path style="fill:#5C6A6D;" d="M414.748,461.371l-0.008-0.085l-9.041-51.941c2.376-9.287,0.894-24.438,0.878-24.588
					c-0.098-1-2.437-24.672-3.732-29.851c-0.214-0.856-0.339-1.966,0.283-2.397c0.148-0.103,0.333-0.161,0.567-0.18l2.223-0.174
					l-1.608-1.545c-2.323-2.23-5.376-5.2-6.733-6.681c-0.327-0.357-0.435-0.739-0.322-1.135c0.321-1.12,2.617-2.506,6.142-3.709
					l2.156-0.736l-2-1.089c-13.815-7.522-48.65-9.555-49-9.575l-0.028-0.002h-0.028c-0.251-0.004-1.91-0.249-6.529-1.316
					c-4.916-1.134-23.696-6.371-29.335-7.949l-1.968-0.551c-0.295-0.798-0.564-1.62-0.805-2.466l-0.555-1.947l-1.209,1.623
					c-1.341,1.8-5.236,5.988-12.425,5.988c-4.35,0-9.228-1.524-14.499-4.531c-4.413-2.517-9.042-4.943-13.518-7.289
					c-16.456-8.625-33.472-17.544-41.865-32.288c-8.58-15.074-12.24-29.207-13.416-34.584l-1.315-6.018l-0.656,6.125
					c-2.926,27.323-24.602,66.35-25.523,67.998l-0.193,0.163l-0.096,0.228c-0.209,0.204-5.34,4.988-10.55,7.377
					c-3.154,1.445-5.561,2.195-9.549,3.436c-2.745,0.854-6.136,1.909-11.085,3.588c-7.958,2.7-26.948,11.161-39.514,16.76
					c-3.114,1.388-5.784,2.577-7.712,3.422l-2.065,0.905l2.057,0.923c0.642,0.288,1.211,0.604,1.575,0.818
					c-7.535,4.11-14.326,15.282-16.896,19.894l-1.154,2.07l2.288-0.618l5.884-1.59c-0.07,0.206-7.03,20.83-7.464,37.756
					c-0.434,16.926-0.873,32.769-0.878,32.927l-13.773,60.901l-0.276,1.221h1.251h93.024h0.838l0.147-0.825
					c1.179-6.616,2.284-12.959,3.228-19.164l0.159,0.156l0.104,0.101l0.005,0.002c1.753,1.743,3.059,2.663,5.448,4.152l0.085,0.053
					c0.549,0.341,1.112,0.691,1.48,1.215c0.386,0.549,0.515,1.204,0.634,1.942c0.619,3.876,0.475,7.116,0.309,10.868l-0.02,0.456
					l-0.046,1.044h1.045h173.145h0.929h1.078h46.643h0.94l0.058-0.938c0.624-10.071-1.931-19.508-2.04-19.905
					c3.909-7.423,4.738-17.265,4.82-18.362L414.748,461.371z"/>
				<path style="fill:#E2C597;" d="M373.397,413.72c0,2.485-2.651,4.499-5.92,4.499c-3.27,0-5.92-2.014-5.92-4.499
					c0-2.485,2.651-4.499,5.92-4.499C370.746,409.221,373.397,411.235,373.397,413.72z"/>
				<path style="fill:#E2C597;" d="M241.218,417.879c0,2.608-2.518,4.723-5.624,4.723c-3.106,0-5.625-2.114-5.625-4.723
					c0-2.608,2.518-4.723,5.625-4.723C238.7,413.156,241.218,415.271,241.218,417.879z"/>
				<path style="fill:#754D2B;" d="M415.38,434.732c0,0,7.464-23.854-0.439-32.195l-33.512,0.732l-8.781,17.707l-0.146,12
					C372.502,432.976,390.648,426.537,415.38,434.732z"/>
				<path style="fill:#754D2B;" d="M184.892,440.878c0,0,4.537-21.512-1.024-30c0,0-24.585-10.976-56.634-8.634
					s-37.61,8.195-37.61,8.195l-1.317,29.415c0,0,22.39-7.464,39.366-6.585C144.648,434.146,162.795,431.512,184.892,440.878z"/>
				<path style="fill:#754D2B;" d="M339.356,311.732c0,0,40.61,6.805,51.585,23.049c0,0-2.415,16.463-32.268,65.634
					c0,0-26.78,45.659-80.78,86.049l-25.463,14.707l-64.306-0.508l-0.876-14.309l-7.013-5.42l-0.025-5.006
					c0,0,51.366-25.683,78.366-60.805c0,0,39.512-42.146,60.366-72.878L339.356,311.732z"/>
				<path style="fill:#FFFFFF;" d="M331.527,226.122c0,0,6.951-8.488,4.098-19.171c0,0,1.098-1.537,3.146,0
					c2.049,1.537,10.098,8.195,9.805,18.366c-0.293,10.171-2.049,8.561-2.049,8.561S337.6,226.561,331.527,226.122z"/>
				<path style="fill:#FFFFFF;" d="M297.575,231.683c0,0-11.341-10.537-11.488-22.39c0,0,0-3.585-3.22-1.317
					c-3.22,2.268-10.756,11.781-9.073,23.927l1.61,6.366C275.405,238.268,289.161,237.463,297.575,231.683z"/>
				<path style="fill:#FFFFFF;" d="M260.844,237.463c0,0-1.244-4.829,4.463-4.024l0.732,0.585c0,0,0.951-4.244,4.244-2.781
					c3.293,1.463,3.146,3.659,3.146,3.659l2.488,3.439C275.917,238.342,265.673,239.512,260.844,237.463z"/>
				<path style="fill:#B47742;" d="M331.527,226.122l2.032-3.755c0,0-4.493-1.712-5.884-2.354
					c-1.391-0.642-11.875-1.926-17.011-0.321c-5.135,1.605-9.95,4.172-11.234,4.172c-1.284,0-4.814,0.963-8.131,0
					c0,0,6.026,7.718,6.276,7.818c0.25,0.099,15.87-6.32,20.256-5.785c0,0,5.777-0.642,7.275-0.321
					C326.604,225.898,331.527,226.122,331.527,226.122z"/>
				<polygon style="fill:#B47742;" points="348.283,229.415 351.063,232.634 348.429,235.195 346.527,233.878 				"/>
				<path style="fill:#B47742;" d="M274.783,236.293c0.037-0.219-1.207-7.134-1.207-7.134s-4.171-1.463-8.012,0.256
					c-3.841,1.719-6.146,4.354-6.146,4.354s-1.61,1.463-3.439,1.463c0,0,1.845,0.608,4.171,2.158
					c0.11,0.073,0.695,0.073,0.695,0.073s-1.024-3.366,0.659-3.732c1.683-0.366,3.256-1.024,3.732-0.476
					c0.476,0.549,0.768,1.098,0.768,0.988s0.622-2.89,1.793-2.963c1.171-0.073,2.963-0.805,3.512,0.329
					c0.549,1.134,2.195,3.768,2.195,3.768L274.783,236.293z"/>
				<path style="fill:#B47742;" d="M327.722,135.463l-63.951,2.634c0,0,4.976-29.268,32.781-27.805
					C296.551,110.293,322.892,106.195,327.722,135.463z"/>
				<ellipse style="fill:#FFFFFF;" cx="295.965" cy="136.488" rx="18.466" ry="18.754"/>
			</g>
			<g>
				<g>
					<g>
						<g>
							<path style="fill:#0B1011;" d="M297.436,232.002c-1.619-1.51-3.047-3.148-4.385-4.878c-1.328-1.733-2.538-3.56-3.574-5.488
								c-2.076-3.84-3.489-8.125-3.628-12.55l0.018,0.114c-0.198-0.594-0.667-1.164-1.216-1.208
								c-0.566-0.076-1.236,0.266-1.81,0.692c-1.156,0.904-2.196,2.086-3.131,3.285c-1.872,2.426-3.346,5.165-4.318,8.068
								c-0.964,2.906-1.4,5.982-1.261,9.038c0.12,3.061,0.855,6.076,1.959,8.937l0.002,0.006c0.099,0.257-0.029,0.547-0.286,0.646
								c-0.258,0.1-0.547-0.029-0.646-0.286l0-0.001c-1.133-2.952-1.889-6.079-2.007-9.259c-0.138-3.175,0.323-6.373,1.33-9.384
								c1.015-3.009,2.544-5.834,4.486-8.34c0.985-1.25,2.017-2.437,3.32-3.456c0.663-0.469,1.463-0.968,2.483-0.861
								c0.5,0.056,0.967,0.332,1.286,0.676c0.327,0.355,0.536,0.727,0.69,1.191c0.011,0.032,0.016,0.065,0.018,0.097l0,0.018
								c0.123,4.247,1.474,8.402,3.492,12.156c1.006,1.884,2.188,3.676,3.485,5.378c1.3,1.693,2.723,3.326,4.264,4.77l0.014,0.013
								c0.173,0.162,0.181,0.433,0.02,0.605C297.879,232.154,297.609,232.164,297.436,232.002z"/>
						</g>
						<g>
							<path style="fill:#0B1011;" d="M331.538,225.881c0.885-1.364,1.653-2.854,2.311-4.364c0.659-1.515,1.196-3.083,1.584-4.682
								c0.381-1.6,0.607-3.236,0.602-4.869c-0.002-1.633-0.253-3.257-0.77-4.794l-0.007-0.021c-0.051-0.152-0.01-0.314,0.092-0.424
								c0.637-0.678,1.59-0.889,2.408-0.654c0.805,0.208,1.446,0.762,1.953,1.206c1.074,0.902,2.153,1.858,3.134,2.896
								c1.971,2.071,3.641,4.47,4.735,7.142c1.108,2.663,1.604,5.575,1.494,8.454c-0.122,2.883-0.826,5.704-1.865,8.366
								c-0.1,0.257-0.39,0.384-0.648,0.284c-0.257-0.1-0.384-0.39-0.284-0.648l0.002-0.005c1.013-2.575,1.693-5.286,1.817-8.036
								c0.11-2.746-0.353-5.509-1.402-8.05c-1.035-2.549-2.628-4.855-4.529-6.862c-0.951-1.01-1.98-1.928-3.058-2.838
								c-0.54-0.48-1.013-0.863-1.585-1.019c-0.537-0.173-1.141,0.015-1.481,0.361l0.085-0.444c0.548,1.642,0.807,3.369,0.805,5.087
								c0,1.718-0.241,3.423-0.641,5.079c-0.407,1.655-0.964,3.267-1.646,4.821c-0.685,1.557-1.458,3.054-2.401,4.499
								c-0.129,0.198-0.395,0.254-0.593,0.125c-0.198-0.129-0.254-0.395-0.125-0.593L331.538,225.881z"/>
						</g>
						<g>
							<path style="fill:#0B1011;" d="M291.883,223.701c3.448,0.923,7.094,0.073,10.41-1.172c3.348-1.25,6.636-2.889,10.245-3.613
								c3.577-0.755,7.293-0.842,10.909-0.27c1.808,0.286,3.591,0.738,5.319,1.353c1.753,0.582,3.339,1.538,4.996,1.898
								c0.27,0.059,0.441,0.325,0.382,0.595c-0.059,0.27-0.325,0.441-0.595,0.382c-0.003,0-0.01-0.002-0.013-0.003
								c-1.881-0.448-3.421-1.428-5.09-1.993c-1.665-0.614-3.389-1.071-5.141-1.368c-3.504-0.595-7.121-0.552-10.614,0.145
								c-3.509,0.66-6.767,2.235-10.179,3.47c-1.706,0.617-3.473,1.127-5.29,1.372c-1.813,0.245-3.694,0.201-5.476-0.301
								c-0.137-0.038-0.216-0.181-0.178-0.318C291.605,223.744,291.747,223.665,291.883,223.701z"/>
						</g>
						<g>
							<path style="fill:#0B1011;" d="M255.387,234.73c0.645,0.347,1.466,0.193,2.18-0.125c0.717-0.327,1.414-0.791,2.018-1.31
								c0.591-0.53,1.149-1.2,1.733-1.792c0.643-0.603,1.384-1.066,2.129-1.473c1.489-0.813,3.097-1.467,4.806-1.769
								c1.702-0.3,3.507-0.239,5.183,0.357c0.26,0.092,0.396,0.378,0.304,0.639c-0.092,0.26-0.378,0.396-0.639,0.304
								c-0.003-0.001-0.009-0.003-0.012-0.005c-1.466-0.564-3.109-0.669-4.694-0.428c-1.592,0.241-3.137,0.821-4.593,1.571
								c-0.727,0.375-1.423,0.791-2.014,1.318c-0.603,0.581-1.126,1.193-1.793,1.763c-0.677,0.55-1.394,1.006-2.204,1.354
								c-0.788,0.327-1.792,0.528-2.654,0.047c-0.124-0.069-0.169-0.226-0.099-0.35C255.107,234.708,255.263,234.664,255.387,234.73
								z"/>
						</g>
						<g>
							<path style="fill:#0B1011;" d="M260.509,237.711c-0.052-0.762-0.189-1.49-0.165-2.283c0.022-0.399,0.087-0.841,0.321-1.255
								c0.232-0.421,0.619-0.721,0.995-0.91c0.77-0.356,1.495-0.528,2.339-0.55c0.826-0.004,1.738,0.277,2.342,1.002
								c0.177,0.212,0.148,0.528-0.064,0.704c-0.212,0.177-0.527,0.148-0.704-0.064c-0.002-0.003-0.006-0.008-0.009-0.011
								c-0.336-0.426-0.948-0.664-1.573-0.667c-0.619-0.006-1.357,0.161-1.915,0.416c-0.571,0.262-0.803,0.703-0.841,1.386
								c-0.032,0.673,0.087,1.4,0.121,2.1l0.004,0.083c0.011,0.235-0.17,0.434-0.405,0.445
								C260.722,238.119,260.525,237.942,260.509,237.711z"/>
						</g>
						<g>
							<path style="fill:#0B1011;" d="M266.223,238.31c-0.56-1.489-0.913-3.222-0.356-4.878c0.272-0.808,0.757-1.574,1.47-2.114
								c0.718-0.546,1.639-0.799,2.54-0.691c0.451,0.049,0.899,0.208,1.295,0.461c0.401,0.261,0.699,0.613,0.941,0.953
								c0.467,0.678,0.859,1.348,1.261,2.024c0.795,1.343,1.581,2.667,2.619,3.735c0.193,0.198,0.189,0.514-0.009,0.707
								c-0.198,0.193-0.514,0.189-0.707-0.009l-0.004-0.004c-1.139-1.193-1.946-2.595-2.731-3.941
								c-0.391-0.671-0.787-1.353-1.202-1.966c-0.401-0.607-0.908-0.957-1.578-1.039c-0.651-0.086-1.351,0.099-1.878,0.497
								c-0.543,0.403-0.943,1.008-1.173,1.675c-0.472,1.346-0.206,2.886,0.314,4.291c0.082,0.222-0.031,0.468-0.253,0.551
								C266.552,238.644,266.306,238.531,266.223,238.31z"/>
						</g>
						<g>
							<path style="fill:#0B1011;" d="M348.287,229.113c0.945,0.802,1.799,1.727,2.533,2.75c0.162,0.224,0.112,0.538-0.112,0.7
								c-0.224,0.162-0.538,0.112-0.7-0.112c-0.013-0.017-0.026-0.04-0.036-0.058c-0.553-1.04-1.24-2.021-2.042-2.91
								c-0.096-0.105-0.088-0.269,0.018-0.364C348.043,229.031,348.189,229.031,348.287,229.113z"/>
						</g>
						<g>
							<path style="fill:#0B1011;" d="M340.269,210.837c3.739,5.665,4.445,13.224,1.756,19.55c-0.108,0.254-0.402,0.373-0.656,0.264
								c-0.254-0.108-0.372-0.402-0.264-0.656c0.001-0.003,0.004-0.008,0.005-0.012c2.702-5.934,2.235-13.27-1.273-18.868
								c-0.076-0.12-0.039-0.279,0.081-0.355C340.036,210.687,340.192,210.721,340.269,210.837z"/>
						</g>
						<g>
							<path style="fill:#0B1011;" d="M283.171,212.262c-2.02,3.761-2.819,8.116-2.498,12.347c0.322,4.243,1.745,8.366,3.909,12.014
								c0.141,0.238,0.062,0.544-0.175,0.685c-0.238,0.141-0.544,0.063-0.685-0.175c-0.001-0.002-0.004-0.006-0.005-0.008
								c-2.163-3.807-3.55-8.085-3.8-12.466c-0.249-4.369,0.659-8.826,2.803-12.645c0.07-0.124,0.227-0.168,0.35-0.098
								C283.193,211.984,283.237,212.139,283.171,212.262z"/>
						</g>
						<g>
							<path style="fill:#0B1011;" d="M270.017,234.605c0.105,1.324,0.514,2.607,1.17,3.719c0.141,0.238,0.061,0.546-0.177,0.686
								c-0.238,0.141-0.546,0.061-0.686-0.177c-0.01-0.016-0.021-0.039-0.029-0.056c-0.581-1.322-0.848-2.757-0.793-4.162
								c0.006-0.142,0.125-0.253,0.268-0.248C269.902,234.372,270.007,234.477,270.017,234.605z"/>
						</g>
						<g>
							<path style="fill:#0B1011;" d="M263.334,235.092c0.066,0.974,0.424,1.907,0.989,2.644c0.169,0.22,0.127,0.535-0.093,0.704
								c-0.22,0.169-0.535,0.127-0.704-0.093c-0.016-0.021-0.03-0.042-0.042-0.065l-0.005-0.009
								c-0.534-0.993-0.756-2.114-0.66-3.188c0.013-0.142,0.138-0.247,0.28-0.234C263.228,234.862,263.326,234.967,263.334,235.092z
								"/>
						</g>
						<path style="fill:#0B1011;" d="M195.653,147.479c0.86-3.969,3.118-7.511,5.78-10.578c0.316-0.364,0.656-0.764,0.676-1.245
							c0.012-0.287-0.094-0.565-0.2-0.833c-2.973-7.49-7.71-14.272-13.718-19.642c6.549,0.053,13.016,3.073,17.26,8.061
							c1.356,1.593,2.5,3.38,4.046,4.789c1.638,1.493,3.709,2.546,5.002,4.346c1.353,1.883,1.651,4.458,0.831,6.627
							c-0.819,2.169-2.709,3.887-4.924,4.571c-1.244,0.384-2.581,0.463-3.769,0.993c-2.093,0.934-2.858,4.299-3.202,6.566
							c-0.344,2.266,0.051,3.647,0.675,5.852c0.141,0.499-0.094,1.023-0.45,1.401c-0.16,0.169-0.48,0.13-0.701,0.204
							c-1.283,0.431-3.185,1.084-4.51,0.449c-0.967-0.463-1.561-1.814-1.982-2.736C195.219,153.568,195.02,150.398,195.653,147.479z
							"/>
						<path style="fill:#0B1011;" d="M216.696,171.957c0,0-2.738,25.884-16.302,23.022l-0.404-11.799
							C199.99,183.18,211.843,185.895,216.696,171.957z"/>
						<path style="fill:#0B1011;" d="M284.257,250.306c0.265,0.177,20.075,13.442,32.633,13.531c0,0,9.021-2.034,12.47-11.231
							c0,0-6.016,5.349-13,5.041c-7.572-0.334-17.599-3.537-17.599-3.537L284.257,250.306z"/>
						<path style="fill:#0B1011;" d="M315.456,314.691c0,0-8.049,14.488-28.829,2.634c-20.78-11.854-44.927-20.927-55.756-39.951
							c-10.829-19.024-13.902-36.732-13.902-36.732s7.448,11.689,21.204,17.836c0,0,6.162,15.823,18.455,23.432
							c0,0,18.146,8.927,36.146,10.829l12.439,1.463l9.572-1.876C314.783,292.328,313.114,309.276,315.456,314.691z"/>
						<path style="fill:#0B1011;" d="M274,197.235c0,0-9.489-3.882-14.018-1.941l6.398-4.313L274,197.235z"/>
						<path style="fill:#0B1011;" d="M335.607,193.713c0,0,4.96-2.372,9.705-0.359l-3.235-4.888L335.607,193.713z"/>
						<path style="fill:#0B1011;" d="M357.309,111.642c-2.81,0.871-15.511,6.939-17.699,8.904c0.876,2.05,0.139,2.845-0.627,4.938
							c-7.332,20.022-4.926,25.834-4.774,25.475c3.86-9.136,9.055-24.124,9.04-24.454c-0.057-1.236,2.018-3.566,3.051-4.247
							C349.804,119.95,355.44,113.237,357.309,111.642z"/>
						<path style="fill:none;stroke:#0B1011;stroke-width:2;stroke-linecap:round;stroke-linejoin:round;stroke-miterlimit:10;" d="
							M195.913,104.176c0.119-1.651-1.939-14.149-1.701-14.265c0,0,53.341-26.122,53.341-26.122s41.707-12.951,73.976-2.415
							c0,0-15.805,6.585-18.219,12.293c0,0,13.39,2.195,20.634,6.805c0,0-9.659,2.415-11.634,5.268c0,0,20.195,12.951,22.39,19.098
							c0,0,8.341,13.61,2.195,27.659c-6.146,14.049-2.195,32.927-0.878,34.902c0,0,13.829,4.39,6.366,20.634
							c0,0,20.854,32.268,6.146,47.415c0,0-0.219,7.902-5.488,10.537c0,0-2.854,1.098-2.854,1.098
							c-1.446,11.39-2.567,22.478-9.175,32.303c-0.654,0.973-1.345,1.92-2.073,2.84c-1.776,2.245-3.768,4.332-6.044,6.068
							c-9.398,7.172-20.666,5.709-31.517,3.901c-10.729-1.789-21.835-4.285-31.552-9.328c-3.02-1.567-5.97-3.444-8.322-5.929
							c-11.634-12.293-13.61-17.781-13.61-17.781s-15.146-6.805-27.439-29.195c0,0-8.341,0-10.756,5.268
							c0,0-2.854-8.342,0.878-14.049c0,0-7.463,0.439-10.098,3.951c0,0,12.951-22.61,9.659-41.707c0,0-22.61-1.976-33.366-35.122
							c-2.251-6.936-3.928-14.054-3.525-21.413c0.111-2.037,0.064-4.076,0.047-6.115c-0.013-1.584-0.405-3.115-0.148-4.685
							c0.513-3.142,2.483-5.959,4.991-7.859c3.143-2.381,7.067-3.506,10.965-4.097c3.049-0.462,6.144-0.626,9.225-0.492
							c1.235,0.054,2.53,0.011,3.749,0.137C193.386,103.914,194.564,104.352,195.913,104.176z"/>
						<path style="fill:none;stroke:#0B1011;stroke-width:2;stroke-linecap:round;stroke-linejoin:round;stroke-miterlimit:10;" d="
							M334.89,104.279c9.28-5.015,24.731-13.596,33.487-4.231c-0.563,6.126-4.78,3.022-4.355,15.304
							c0.17,4.94,0.51,4.77-3.238,10.902c-13.189,13.064,4.638,43.138-24.767,41.144"/>
						<path style="fill:none;stroke:#0B1011;stroke-linecap:round;stroke-linejoin:round;stroke-miterlimit:10;" d="
							M252.675,201.862l-9.658-11.415l1.756-14.634c0,0-43.133-25.702-17.561-62.927c23.122-33.659,64.683-6.146,64.683-6.146
							s23.707-24.878,43.024-0.293"/>
						<path style="fill:none;stroke:#0B1011;stroke-linecap:round;stroke-linejoin:round;stroke-miterlimit:10;" d="M267.017,190.74
							c0,0-13.317,7.463-16.097,13.756c-2.781,6.293-4.244,14.341-4.244,14.341"/>
						<g>
							<path style="fill:#0B1011;" d="M286.104,202.37c-2.935-0.762-5.82-1.719-8.63-2.864c-2.774-1.154-5.652-2.391-8.039-4.461
								c-2.368-2.033-4.24-4.658-5.326-7.606c-1.092-2.935-1.4-6.214-0.645-9.315c0.74-3.079,2.502-5.971,5.107-7.887
								c2.587-1.931,5.787-2.832,8.923-2.948c3.163-0.138,6.295,0.586,9.168,1.722c2.888,1.143,5.554,2.698,8.096,4.365
								c0.462,0.303,0.591,0.923,0.288,1.385c-0.303,0.462-0.923,0.591-1.385,0.288c-0.002-0.001-0.009-0.006-0.011-0.007
								c-2.461-1.653-5.002-3.166-7.697-4.266c-2.691-1.095-5.541-1.778-8.401-1.684c-2.846,0.072-5.707,0.862-7.972,2.518
								c-2.272,1.629-3.867,4.157-4.558,6.9c-0.701,2.746-0.469,5.716,0.503,8.414c0.961,2.707,2.662,5.153,4.831,7.056
								c2.156,1.921,4.878,3.143,7.618,4.316c2.743,1.153,5.565,2.123,8.439,2.903c0.323,0.087,0.514,0.42,0.427,0.743
								C286.754,202.262,286.425,202.453,286.104,202.37z"/>
						</g>
						<g>
							<path style="fill:#0B1011;" d="M314.613,174.482c1.872-2.348,4.369-4.027,6.968-5.24c2.602-1.206,5.365-2.099,8.255-2.428
								c2.874-0.322,5.901-0.052,8.603,1.214c2.665,1.243,4.979,3.367,6.178,6.131c0.593,1.374,0.834,2.92,0.812,4.347
								c-0.021,1.425-0.029,2.799-0.2,4.252c-0.16,1.439-0.614,2.913-1.378,4.176c-0.741,1.282-1.754,2.354-2.829,3.301
								c-2.184,1.877-4.667,3.226-7.074,4.613c-2.426,1.377-4.947,2.695-7.678,3.498c-0.23,0.068-0.471-0.064-0.538-0.294
								c-0.067-0.227,0.063-0.466,0.288-0.537c2.608-0.815,5.04-2.133,7.423-3.541c2.384-1.425,4.801-2.804,6.819-4.603
								c2.025-1.782,3.492-4.099,3.684-6.763c0.135-1.315,0.125-2.731,0.121-4.087c-0.008-1.355-0.238-2.607-0.763-3.789
								c-1.064-2.352-3.138-4.215-5.519-5.272c-2.377-1.07-5.115-1.285-7.743-0.943c-2.643,0.344-5.234,1.225-7.656,2.399
								c-2.41,1.173-4.618,2.744-6.194,4.794c-0.335,0.439-0.962,0.524-1.402,0.189c-0.439-0.335-0.524-0.962-0.189-1.402
								C314.603,174.496,314.611,174.486,314.613,174.482z"/>
						</g>
						<path style="fill:none;stroke:#0B1011;stroke-linecap:round;stroke-linejoin:round;stroke-miterlimit:10;" d="M163.97,122.009
							c6.983-5.758,16.525-7.978,25.504-6.841c5.094,0.646,10.182,2.386,14.023,5.794c3.362,2.983,5.639,7.109,9.285,9.738
							c0.326,0.235,0.682,0.464,1.083,0.495c0.644,0.049,1.204-0.419,1.647-0.888c2.24-2.374,3.531-5.619,3.536-8.884
							c0.005-3.264-1.277-6.513-3.51-8.894c-1.415-1.509-3.171-2.659-4.998-3.629c-4.685-2.489-9.888-3.862-15.119-4.745"/>
						<path style="fill:none;stroke:#0B1011;stroke-linecap:round;stroke-linejoin:round;stroke-miterlimit:10;" d="M339.231,120.86
							c9.416-4.668,18.945-9.411,26.882-16.3"/>
						<path style="fill:none;stroke:#0B1011;stroke-linecap:round;stroke-linejoin:round;stroke-miterlimit:10;" d="
							M199.263,182.943c2.784,0.135,5.656,0.257,8.272-0.706c3.697-1.36,6.33-4.702,8.069-8.236
							c1.914-3.89,2.982-8.193,3.109-12.527"/>
						<g>
							<path style="fill:#0B1011;" d="M191.896,152.51c0.43,1.975,1.617,3.769,3.245,4.954c1.628,1.186,3.708,1.707,5.703,1.497
								c0.499-0.054,0.992-0.153,1.471-0.296c0.479-0.133,0.926-0.333,1.242-0.63c0.318-0.303,0.395-0.652,0.232-1.073
								c-0.163-0.408-0.453-0.927-0.614-1.444c-0.687-2.099-0.431-4.359,0.273-6.368c0.355-1.012,0.828-1.981,1.415-2.883
								c0.3-0.449,0.604-0.885,0.987-1.296c0.373-0.41,0.87-0.782,1.406-0.993c1.08-0.413,2.089-0.497,3.05-0.824
								c0.961-0.298,1.878-0.71,2.63-1.324c1.517-1.219,2.445-3.164,2.429-5.105c0-1.949-0.845-3.907-2.311-5.167
								c-0.21-0.18-0.234-0.495-0.054-0.705c0.18-0.21,0.495-0.234,0.705-0.054c0.001,0.001,0.004,0.003,0.005,0.004
								c1.69,1.487,2.613,3.712,2.595,5.925c-0.01,2.233-1.076,4.41-2.821,5.789c-0.875,0.699-1.903,1.141-2.929,1.448
								c-1.02,0.331-2.117,0.436-2.989,0.771c-0.862,0.315-1.476,1.131-2.046,1.966c-0.558,0.839-1.014,1.751-1.358,2.702
								c-0.686,1.89-0.929,4.001-0.326,5.896c0.145,0.482,0.374,0.876,0.595,1.435c0.099,0.275,0.159,0.62,0.08,0.954
								c-0.077,0.334-0.271,0.619-0.495,0.828c-0.453,0.415-0.998,0.63-1.518,0.773c-0.52,0.15-1.054,0.252-1.591,0.305
								c-2.15,0.205-4.37-0.375-6.107-1.666c-1.731-1.287-2.969-3.203-3.408-5.312c-0.029-0.139,0.06-0.275,0.2-0.304
								C191.73,152.283,191.866,152.372,191.896,152.51z"/>
						</g>
						<g>
							<path style="fill:#0B1011;" d="M247.095,218.922c-0.454,2.308,0.062,4.75,1.046,6.914c0.989,2.188,2.503,4.085,4.304,5.719
								c1.81,1.69,3.393,3.595,5.542,4.61c2.135,1.058,4.547,1.51,6.958,1.772c9.712,1.06,19.641-0.535,28.615-4.41
								c4.526-1.866,8.964-4.036,13.67-5.615c4.701-1.576,9.608-2.537,14.56-2.839c4.935-0.297,10.044,0.129,14.693,2.094
								c4.746,1.881,8.055,5.992,12.569,7.55c0.262,0.089,0.402,0.372,0.313,0.634c-0.089,0.261-0.372,0.402-0.634,0.313
								l-0.004-0.001c-2.43-0.846-4.489-2.348-6.46-3.803c-1.972-1.474-3.939-2.872-6.17-3.789
								c-4.446-1.888-9.41-2.322-14.252-2.035c-4.864,0.29-9.692,1.229-14.316,2.773c-4.629,1.546-9.053,3.699-13.617,5.576
								c-9.087,3.912-19.206,5.532-29.065,4.439c-2.459-0.272-4.967-0.733-7.256-1.868c-1.138-0.553-2.201-1.345-3.097-2.197
								c-0.918-0.844-1.773-1.731-2.655-2.57c-1.834-1.666-3.454-3.688-4.489-5.995c-1.034-2.286-1.599-4.89-1.098-7.442
								c0.046-0.232,0.271-0.383,0.503-0.338c0.232,0.046,0.383,0.271,0.338,0.503L247.095,218.922z"/>
						</g>
						<g>
							<path style="fill:#0B1011;" d="M246.884,222.496c0.17,2.088,1.113,4.225,2.261,6.091c1.16,1.895,2.604,3.617,4.202,5.18
								c1.592,1.571,3.34,2.988,5.177,4.276c1.83,1.299,3.746,2.483,5.723,3.557c7.909,4.323,16.537,7.216,25.254,9.526
								c2.186,0.561,4.379,1.106,6.596,1.585l1.657,0.374l1.641,0.442l3.281,0.89l6.561,1.78c1.099,0.274,2.186,0.651,3.249,0.813
								c1.086,0.182,2.196,0.252,3.3,0.248c2.21-0.024,4.414-0.423,6.453-1.241c1.022-0.434,1.953-0.938,2.928-1.551l2.917-1.753
								c3.908-2.308,7.859-4.528,11.895-6.624c0.245-0.127,0.547-0.032,0.674,0.213c0.127,0.245,0.032,0.547-0.213,0.674l-0.001,0
								l-0.006,0.003c-4.005,2.073-7.956,4.286-11.849,6.578l-2.908,1.742c-0.942,0.593-2.004,1.173-3.07,1.618
								c-2.168,0.868-4.495,1.282-6.811,1.304c-1.159,0.004-2.317-0.071-3.465-0.265c-1.178-0.186-2.24-0.564-3.336-0.837
								l-6.548-1.786l-3.274-0.893l-1.638-0.443l-1.655-0.376c-2.21-0.481-4.411-1.03-6.611-1.598
								c-8.763-2.336-17.445-5.255-25.449-9.642c-2-1.09-3.943-2.294-5.803-3.618c-1.867-1.314-3.649-2.76-5.279-4.373
								c-1.635-1.604-3.122-3.379-4.326-5.351c-1.189-1.98-2.181-4.096-2.379-6.543c-0.019-0.235,0.156-0.441,0.391-0.46
								c0.235-0.019,0.441,0.156,0.46,0.391L246.884,222.496z"/>
						</g>
						<g>
							<path style="fill:#0B1011;" d="M315.284,265.598c-1.306,6.119-0.755,12.598,1.534,18.368c0.102,0.257-0.024,0.547-0.28,0.649
								s-0.547-0.024-0.649-0.28c-0.001-0.003-0.004-0.009-0.005-0.012c-2.209-6.016-2.588-12.655-1.102-18.839
								c0.033-0.138,0.172-0.223,0.311-0.19C315.229,265.326,315.313,265.462,315.284,265.598z"/>
						</g>
						<g>
							<path style="fill:#0B1011;" d="M308.165,200.351c0.172,1.685,1.366,3.106,2.744,4.097c1.397,1.017,3.033,1.746,4.526,2.771
								c2.996,2.002,5.542,4.669,7.453,7.738c0.146,0.234,0.074,0.543-0.16,0.689c-0.234,0.146-0.543,0.074-0.689-0.16
								c-0.001-0.003-0.005-0.009-0.007-0.011c-1.768-2.99-4.167-5.626-7.026-7.631c-1.408-1.02-3.025-1.781-4.478-2.886
								c-1.431-1.083-2.72-2.647-2.876-4.564c-0.012-0.142,0.094-0.266,0.236-0.278C308.027,200.105,308.15,200.212,308.165,200.351
								z"/>
						</g>
						<g>
							<path style="fill:#0B1011;" d="M258.578,219.043c-0.35,1.52-0.639,3.053-0.71,4.585c-0.072,1.527,0.092,3.059,0.644,4.437
								c0.103,0.256-0.022,0.548-0.278,0.65c-0.256,0.103-0.548-0.022-0.65-0.278c-0.003-0.008-0.007-0.02-0.01-0.027
								c-0.537-1.576-0.617-3.243-0.461-4.835c0.157-1.599,0.536-3.145,0.967-4.659c0.039-0.137,0.181-0.216,0.318-0.177
								C258.53,218.775,258.608,218.91,258.578,219.043z"/>
						</g>
						<g>
							<path style="fill:#0B1011;" d="M197.18,169.79c1.486,1.308,3.382,2.12,5.343,2.355c1.956,0.222,3.993-0.047,5.747-0.924
								c1.762-0.852,3.179-2.299,4.245-3.965c1.085-1.663,1.88-3.52,2.673-5.387c0.107-0.255,0.4-0.374,0.655-0.267
								c0.255,0.107,0.374,0.4,0.267,0.655c-0.001,0.002-0.004,0.008-0.005,0.011c-0.833,1.857-1.682,3.748-2.859,5.477
								c-1.152,1.728-2.717,3.275-4.652,4.162c-1.917,0.908-4.089,1.147-6.156,0.87c-2.072-0.291-4.063-1.189-5.607-2.606
								c-0.105-0.096-0.112-0.259-0.016-0.364c0.095-0.103,0.255-0.111,0.36-0.019L197.18,169.79z"/>
						</g>
						<g>
							<path style="fill:#0B1011;" d="M173.273,151.993c4.196,12.758,14.643,23.237,27.302,27.476
								c0.262,0.088,0.403,0.371,0.316,0.633c-0.088,0.262-0.371,0.403-0.633,0.316c-0.001,0-0.005-0.002-0.006-0.002
								c-12.917-4.505-23.372-15.297-27.469-28.265c-0.043-0.135,0.032-0.28,0.168-0.323
								C173.085,151.786,173.229,151.86,173.273,151.993z"/>
						</g>
						<g>
							<path style="fill:#0B1011;" d="M309.636,169.383c0.802-1.091,1.818-2.019,2.945-2.756c1.122-0.749,2.343-1.324,3.58-1.821
								c1.242-0.493,2.502-0.903,3.77-1.294c1.266-0.382,2.656-0.732,4.107-0.485c0.272,0.046,0.455,0.305,0.409,0.577
								c-0.046,0.272-0.305,0.456-0.577,0.409c-0.005-0.001-0.014-0.003-0.019-0.004c-1.166-0.242-2.432,0.008-3.679,0.348
								c-1.261,0.347-2.521,0.714-3.742,1.157c-1.219,0.447-2.414,0.966-3.506,1.649c-1.099,0.672-2.084,1.519-2.876,2.529
								c-0.086,0.113-0.247,0.135-0.361,0.049C309.577,169.656,309.556,169.495,309.636,169.383z"/>
						</g>
						<g>
							<path style="fill:#0B1011;" d="M298.918,169.433c-4.395-3.063-9.764-4.662-15.066-4.519c-0.276,0.007-0.506-0.21-0.513-0.486
								c-0.007-0.276,0.21-0.506,0.486-0.513c0.004,0,0.011,0,0.015,0c5.523,0.018,10.986,1.842,15.378,5.101
								c0.114,0.085,0.138,0.246,0.053,0.36C299.189,169.487,299.032,169.512,298.918,169.433z"/>
						</g>
						<path style="fill:#0B1011;" d="M297.457,188.328c-6.813-3.504-10.809-12.338-18.959-11.07
							c-2.47,0.252-4.899,1.687-4.973,4.361c0.568,11.63,17.52,13.467,26.621,12.258c1.103-0.165,3.165-0.671,4.296-1.587
							c0.927-0.751,0.325-2.232-0.868-2.249C301.5,190.012,299.382,189.319,297.457,188.328z"/>
						<path style="fill:#0B1011;" d="M316.115,186.747c6.19-4.514,8.774-13.859,17.022-13.864c2.479-0.132,5.1,0.91,5.586,3.541
							c1.235,11.578-15.23,16.01-24.409,16.221c-1.116,0.008-3.23-0.174-4.489-0.905c-1.032-0.599-0.666-2.155,0.51-2.356
							C312.38,189.035,314.366,188.023,316.115,186.747z"/>
						<path style="fill:#0B1011;" d="M276.879,137.059c-0.102,2.328,0.185,4.561,0.8,6.68c-4.618-1.458-13.396-5.093-13.396-5.093
							l14.177-8.628C277.543,132.198,276.989,134.571,276.879,137.059z"/>
						<path style="fill:#0B1011;" d="M315.719,135.852c0.103,2.328-0.185,4.561-0.8,6.68c4.618-1.458,12.693-6.959,12.693-6.959
							l-13.474-6.763C315.055,130.99,315.61,133.363,315.719,135.852z"/>
						<circle style="fill:#0B1011;" cx="299.332" cy="134.317" r="12.349"/>
						<ellipse style="fill:#FFFFFF;" cx="305.874" cy="133.76" rx="7.806" ry="5.382"/>
						<path style="fill:#FFFFFF;" d="M294.289,133.145c0,1.128-0.915,2.043-2.043,2.043c-1.128,0-2.043-0.915-2.043-2.043
							c0-1.128,0.915-2.043,2.043-2.043C293.375,131.102,294.289,132.017,294.289,133.145z"/>
						<g>
							<path style="fill:#0B1011;" d="M282.162,158.148c2.323-0.645,4.654-1.005,7.013-1.274c2.356-0.258,4.725-0.378,7.096-0.397
								c2.369,0.02,4.742,0.088,7.102,0.327c2.364,0.202,4.711,0.555,7.051,0.952c0.438,0.074,0.732,0.489,0.658,0.927
								c-0.074,0.438-0.489,0.732-0.927,0.658c-0.006-0.001-0.012-0.002-0.018-0.003l-0.022-0.004
								c-2.282-0.452-4.576-0.863-6.89-1.125c-2.311-0.299-4.638-0.429-6.967-0.514c-2.329-0.046-4.662,0.008-6.985,0.197
								c-2.314,0.197-4.653,0.498-6.878,1.049l-0.024,0.006c-0.222,0.055-0.446-0.08-0.501-0.302
								C281.817,158.428,281.947,158.208,282.162,158.148z"/>
						</g>
						<g>
							<path style="fill:#0B1011;" d="M253.505,64.561c7.281-1.907,14.983-1.891,22.352-0.474
								c7.389,1.422,14.455,4.222,21.057,7.775c0.243,0.131,0.334,0.434,0.203,0.677c-0.131,0.243-0.434,0.334-0.677,0.203
								l-0.005-0.003c-6.495-3.586-13.447-6.428-20.726-7.91c-7.258-1.478-14.863-1.577-22.077,0.229
								c-0.138,0.035-0.278-0.049-0.312-0.187C253.286,64.736,253.369,64.597,253.505,64.561z"/>
						</g>
						<g>
							<path style="fill:#0B1011;" d="M310.748,253.533c3.348,0.604,6.838,0.279,9.979-0.906c0.258-0.098,0.547,0.033,0.645,0.291
								c0.097,0.258-0.033,0.547-0.291,0.645c-0.007,0.003-0.016,0.006-0.023,0.008c-3.368,1.093-7.005,1.247-10.413,0.467
								c-0.139-0.032-0.225-0.17-0.194-0.309C310.482,253.594,310.614,253.508,310.748,253.533z"/>
						</g>
						<path style="fill:none;stroke:#0B1011;stroke-width:2;stroke-linecap:round;stroke-linejoin:round;stroke-miterlimit:10;" d="
							M216.602,239.398c-1.148,20.666-14.604,49.236-21.519,62.792l-3.917,8.094c0,0-5.907,5.469-11.175,7.883
							c-5.268,2.415-8.342,2.854-20.634,7.024c-12.293,4.171-51.585,22.39-50.488,21.512c1.097-0.878,4.829,1.317,4.829,1.317
							c-9.659,5.268-18,21.951-18,21.951l8.122-2.195c0,0-7.024,20.634-7.463,37.756c-0.023,0.892-0.046,1.78-0.069,2.663"/>
						<path style="fill:none;stroke:#0B1011;stroke-width:2;stroke-linecap:round;stroke-linejoin:round;stroke-miterlimit:10;" d="
							M314.73,293.074c0.439,1.537-3.374,18.489,4.968,30.782"/>
						<g>
							<path style="fill:#0B1011;" d="M349.707,149.313c0.189-0.032,0.406,0.092,0.485,0.219c0.092,0.125,0.13,0.245,0.159,0.362
								c0.055,0.25,0.029,0.44,0.038,0.632c0.003,0.389-0.009,0.779-0.032,1.168c-0.047,0.778-0.147,1.554-0.302,2.32
								c-0.309,1.532-0.848,3.028-1.633,4.397c-1.562,2.732-4.168,4.944-7.301,5.766c-0.267,0.07-0.54-0.09-0.611-0.357
								c-0.07-0.267,0.09-0.54,0.357-0.611c0.004-0.001,0.011-0.003,0.015-0.004c2.849-0.662,5.351-2.645,6.887-5.18
								c0.774-1.272,1.328-2.683,1.663-4.147c0.169-0.732,0.284-1.477,0.35-2.228c0.033-0.375,0.054-0.752,0.061-1.129
								c-0.001-0.19,0.019-0.388-0.011-0.514c-0.031-0.162-0.101-0.204-0.068-0.183c-0.141,0.016-0.269-0.086-0.284-0.227
								C349.464,149.456,349.566,149.329,349.707,149.313z"/>
						</g>
						<g>
							<path style="fill:#0B1011;" d="M359.553,117.683c-3.969,3.877-6.567,9.097-7.276,14.545c-0.036,0.274-0.286,0.467-0.56,0.431
								c-0.274-0.036-0.467-0.286-0.431-0.561c0.001-0.004,0.001-0.011,0.002-0.015c0.903-5.652,3.745-10.932,7.911-14.774
								c0.104-0.096,0.267-0.09,0.364,0.015C359.657,117.427,359.652,117.586,359.553,117.683z"/>
						</g>
						<g>
							<path style="fill:#0B1011;" d="M201.135,91.712c10.03-0.795,20.186-0.115,30.043,2.018c0.27,0.058,0.441,0.325,0.383,0.594
								c-0.058,0.27-0.324,0.441-0.594,0.383c-0.002,0-0.006-0.001-0.008-0.002c-9.726-2.27-19.796-3.111-29.787-2.48
								c-0.142,0.009-0.264-0.099-0.273-0.241C200.889,91.844,200.995,91.723,201.135,91.712z"/>
						</g>
						
							<ellipse transform="matrix(0.1455 -0.9894 0.9894 0.1455 117.7501 409.5161)" style="fill:none;stroke:#0B1011;stroke-width:2;stroke-linecap:round;stroke-linejoin:round;stroke-miterlimit:10;" cx="295.941" cy="136.593" rx="19.3" ry="19.301"/>
						<g>
							<path style="fill:#0B1011;" d="M324.958,229.764c-0.305,6.329-2.017,12.602-4.994,18.236
								c-0.129,0.244-0.431,0.338-0.676,0.209c-0.244-0.129-0.338-0.431-0.209-0.676c0.002-0.003,0.004-0.008,0.006-0.011
								c3.048-5.426,4.897-11.546,5.358-17.789c0.01-0.142,0.134-0.248,0.276-0.238
								C324.859,229.505,324.965,229.625,324.958,229.764z"/>
						</g>
					</g>
					<path style="fill:none;stroke:#0B1011;stroke-linecap:round;stroke-linejoin:round;stroke-miterlimit:10;" d="M249.017,229.52
						c0,0-13.171,30.878,6.878,50.634"/>
					<g>
						<path style="fill:#0B1011;" d="M260.799,306.564c2.783,8.72,6.989,16.97,12.393,24.325c0.164,0.222,0.116,0.535-0.107,0.699
							c-0.223,0.163-0.535,0.116-0.699-0.107c-0.001-0.002-0.004-0.005-0.005-0.007c-5.336-7.538-9.428-15.936-12.073-24.757
							c-0.041-0.136,0.036-0.28,0.173-0.32C260.614,306.355,260.756,306.43,260.799,306.564z"/>
					</g>
					<path style="fill:none;stroke:#0B1011;stroke-width:2;stroke-linecap:round;stroke-linejoin:round;stroke-miterlimit:10;" d="
						M407.918,432.732l6.78,28.558c0,0-0.659,10.537-4.829,18.439c0,0,2.854,10.098,1.976,20.854H81.429l14.049-62.122"/>
					<path style="fill:none;stroke:#0B1011;stroke-width:2;stroke-linecap:round;stroke-linejoin:round;stroke-miterlimit:10;" d="
						M389.827,332.456c6.349,1.508,12.066,3.444,15.602,5.907c0,0-10.317,2.854-7.902,5.488
						c2.415,2.634,10.317,10.098,10.317,10.098s-6.366-4.39-5.049,0.878s3.732,29.854,3.732,29.854s0.987,9.727,0.136,18.448"/>
					<path style="fill:none;stroke:#0B1011;stroke-width:2;stroke-linecap:round;stroke-linejoin:round;stroke-miterlimit:10;" d="
						M317.185,317.948c0,0,7.703,2.162,15.536,4.312"/>
					<g>
						<path style="fill:#0B1011;" d="M380.24,362.554c2.76,6.508,4.367,13.511,4.696,20.588c0.338,7.074-0.652,14.233-2.987,20.946
							c-1.169,3.35-2.591,6.578-4.048,9.777c-1.461,3.203-3.051,6.365-4.857,9.419c-1.801,3.055-3.883,5.973-6.294,8.629
							c-2.419,2.646-5.25,4.958-8.406,6.745c-0.481,0.272-1.091,0.103-1.363-0.378c-0.272-0.481-0.103-1.091,0.378-1.363
							l0.009-0.005l0.015-0.008c2.963-1.635,5.654-3.772,7.991-6.269c2.329-2.508,4.375-5.298,6.165-8.257
							c1.795-2.958,3.396-6.047,4.879-9.202c1.484-3.159,2.926-6.338,4.104-9.593c2.346-6.503,3.393-13.462,3.144-20.388
							c-0.241-6.927-1.736-13.816-4.375-20.243c-0.109-0.263,0.017-0.564,0.279-0.672
							C379.83,362.171,380.129,362.295,380.24,362.554z"/>
					</g>
					<g>
						<path style="fill:#0B1011;" d="M333.692,433.917c3.768,2.516,7.855,4.539,12.124,5.99c0.262,0.089,0.401,0.373,0.313,0.634
							c-0.089,0.261-0.373,0.401-0.634,0.313c-0.005-0.002-0.012-0.004-0.017-0.006c-4.298-1.634-8.366-3.834-12.079-6.508
							c-0.115-0.083-0.142-0.244-0.058-0.359C333.422,433.868,333.578,433.841,333.692,433.917z"/>
					</g>
					<g>
						<path style="fill:#0B1011;" d="M186.857,427.003c4.519,6.187,11.019,10.725,18.067,13.595
							c3.537,1.442,7.225,2.496,10.985,3.154c3.76,0.666,7.583,0.953,11.411,1.093c0.276,0.01,0.492,0.242,0.481,0.518
							c-0.01,0.276-0.242,0.491-0.518,0.481l-0.005,0c-3.852-0.183-7.717-0.514-11.526-1.231c-3.809-0.709-7.546-1.821-11.115-3.321
							c-7.124-2.986-13.675-7.66-18.198-13.988c-0.083-0.116-0.056-0.276,0.06-0.359
							C186.614,426.863,186.774,426.889,186.857,427.003z"/>
					</g>
					<g>
						<path style="fill:none;" d="M133.591,433.152"/>
					</g>
					<g>
						<path style="fill:#0B1011;" d="M223.281,357.256c-4.417,3.639-8.822,7.296-12.678,11.463c-1.923,2.083-3.69,4.301-5.228,6.661
							c-1.531,2.363-2.772,4.902-3.899,7.512c-2.256,5.206-4.1,10.73-7.302,15.689c-3.204,4.977-7.854,8.86-12.881,11.783
							c-0.476,0.28-1.089,0.121-1.369-0.355c-0.28-0.476-0.121-1.089,0.355-1.369c0.002-0.002,0.014-0.008,0.016-0.009
							c4.886-2.753,9.322-6.366,12.413-11.019c3.111-4.658,5.025-10.076,7.382-15.332c1.18-2.629,2.499-5.24,4.12-7.665
							c1.624-2.418,3.473-4.669,5.464-6.766c3.995-4.195,8.488-7.814,12.957-11.392c0.222-0.178,0.546-0.142,0.724,0.08
							C223.532,356.757,223.498,357.077,223.281,357.256z"/>
					</g>
					<g>
						<path style="fill:#0B1011;" d="M183.019,439.771l0.17,3.892l0.059,0.951c0.001,0.023,0.012,0.095,0.004,0.044
							c-0.467-0.02,0.954-0.316-1.141-0.122c-0.027,0.04-0.052,0.176-0.046,0.15c-0.002,0.012-0.003,0.02-0.002,0.011l0.001-0.039
							v-0.223l-0.005-0.227l-0.002-0.04l0,0.004c0.501-0.06-1.124,0.23,1.209,0.118l0.023-0.107l-0.002,0.101l0.002,1.936
							c0.029,2.592,0.032,5.213-0.073,7.823c-0.172,5.223-0.586,10.432-1.147,15.62c-1.113,10.379-2.797,20.672-4.512,30.937
							c-0.091,0.545-0.607,0.913-1.151,0.822c-0.545-0.091-0.913-0.607-0.821-1.151c0-0.002,0.002-0.009,0.002-0.011
							c1.829-10.239,3.619-20.477,4.839-30.781c0.615-5.151,1.083-10.317,1.311-15.492c0.133-2.588,0.138-5.171,0.234-7.781
							l0.071-1.966l0.009-0.143c0.01-0.051-0.015,0.033,0.029-0.168c2.339-0.123,0.712,0.193,1.215,0.138l0.002,0.034l0.002,0.082
							l-0.003,0.261l-0.01,0.265l-0.006,0.083l-0.008,0.072c0.005-0.016-0.023,0.129-0.052,0.18
							c-2.107,0.201-0.683-0.118-1.155-0.143c-0.021-0.132-0.016-0.141-0.021-0.199l-0.025-0.999l-0.025-3.91
							c-0.002-0.284,0.227-0.516,0.512-0.518C182.779,439.272,183.007,439.496,183.019,439.771z"/>
					</g>
					<g>
						<path style="fill:none;" d="M312.336,451.082"/>
					</g>
					<g>
						<path style="fill:#0B1011;" d="M304.721,341.467l3.072,0.578c1.024,0.203,2.051,0.391,3.081,0.709
							c1.043,0.294,2.026,0.902,2.853,1.53l2.509,1.854l0.01,0.007c0.222,0.164,0.269,0.477,0.105,0.699
							c-0.164,0.222-0.477,0.269-0.7,0.105c-0.005-0.003-0.011-0.008-0.015-0.012l-2.441-1.955
							c-0.806-0.656-1.603-1.194-2.561-1.511c-0.948-0.334-1.966-0.565-2.974-0.805l-3.043-0.696
							c-0.139-0.031-0.226-0.169-0.194-0.308C304.453,341.528,304.586,341.442,304.721,341.467z"/>
					</g>
					<path style="fill:#0B1011;" d="M238.712,417.929c0,1.321-1.369,2.393-3.057,2.393c-1.688,0-3.057-1.071-3.057-2.393
						c0-1.321,1.369-2.393,3.057-2.393C237.343,415.536,238.712,416.607,238.712,417.929z"/>
					
						<ellipse style="fill:none;stroke:#0B1011;stroke-linecap:round;stroke-linejoin:round;stroke-miterlimit:10;" cx="235.655" cy="417.929" rx="5.856" ry="4.583"/>
					<path style="fill:#0B1011;" d="M370.584,413.729c0,1.321-1.369,2.393-3.057,2.393s-3.057-1.071-3.057-2.393
						c0-1.322,1.369-2.393,3.057-2.393S370.584,412.407,370.584,413.729z"/>
					
						<ellipse style="fill:none;stroke:#0B1011;stroke-linecap:round;stroke-linejoin:round;stroke-miterlimit:10;" cx="367.527" cy="413.729" rx="5.856" ry="4.583"/>
					<path style="fill:none;stroke:#0B1011;stroke-width:2;stroke-linecap:round;stroke-linejoin:round;stroke-miterlimit:10;" d="
						M372.231,423.959c0,0-1.265,37.111-4.338,45.013c-3.073,7.902-4.678,31.331-4.678,31.331"/>
					<path style="fill:none;stroke:#0B1011;stroke-width:2;stroke-linecap:round;stroke-linejoin:round;stroke-miterlimit:10;" d="
						M180.08,480.749c1.878,1.884,3.295,2.849,5.552,4.256c0.574,0.358,1.177,0.715,1.566,1.269
						c0.395,0.562,0.524,1.264,0.633,1.942c0.665,4.158,0.455,7.505,0.272,11.712"/>
					<path style="fill:#0B1011;" d="M182.909,439.776c0.277,4.1,0.366,8.205,0.081,11.709c-1.024,12.585-1.463,24.113-1.463,24.113
						s44.854-24.802,43.902-30.11c0,0-23.019,0.221-38.873-17.958l-1.224,12.543L182.909,439.776z"/>
					<path style="fill:#0B1011;" d="M372.356,425.29l-1.464,26.488c0,0-7.902-13.61-12.439-14.488c0,0,10.244-6.585,13.171-13.317
						L372.356,425.29z"/>
					<path style="fill:none;stroke:#0B1011;stroke-width:2;stroke-linecap:round;stroke-linejoin:round;stroke-miterlimit:10;" d="
						M252.209,501.024c98.049-48,139.39-165.805,139.39-165.805c-7.024-14.927-52.024-23.049-52.024-23.049
						s-8.353,13.299-22.292,32.526c-1.41,1.945-2.878,3.951-4.399,6.01c-1.141,1.544-2.313,3.118-3.514,4.718
						c-3.986,5.311-8.294,10.916-12.882,16.695l-22.301,26.708c-27.644,31.373-61.03,62.735-93.978,77.611"/>
					<path style="fill:#0B1011;" d="M339.255,311.109l-19.967,7.475c0,0,13.311,3.686,13.618,3.584
						C333.214,322.065,339.255,311.109,339.255,311.109z"/>
					<path style="fill:none;stroke:#0B1011;stroke-width:2;stroke-linecap:round;stroke-linejoin:round;stroke-miterlimit:10;" d="
						M185.248,440.887c0,0,4.04-21.303-1.469-29.934c0,0-35.076-18.732-94.026-0.735c0,0-3.122,28.098-0.918,30.852
						C88.835,441.07,126.666,423.073,185.248,440.887z"/>
					<polygon style="fill:#0B1011;" points="88.453,441.902 93.612,445.854 95.478,438.46 					"/>
					<path style="fill:none;stroke:#0B1011;stroke-width:2;stroke-linecap:round;stroke-linejoin:round;stroke-miterlimit:10;" d="
						M381.429,404.146l33.659-1.171c7.463,11.854,0,31.756,0,31.756s-20.049-8.488-42.293-1.61"/>
					<path style="fill:#0B1011;" d="M415.354,435.653c0,0-6.795,7.162-6.703,6.795c0.092-0.367-1.01-9.641-1.01-9.641
						L415.354,435.653z"/>
					<polygon style="fill:#0B1011;" points="193.383,300.334 195.784,299.573 194.024,302.135 					"/>
					<g>
						<path style="fill:#0B1011;" d="M272.88,118.929c3.069-2.899,6.677-5.128,10.535-6.774c3.863-1.63,8.021-2.613,12.227-2.76
							c2.1-0.084,4.212,0.003,6.292,0.318c1.048,0.111,2.07,0.368,3.105,0.557c1.012,0.282,2.048,0.487,3.039,0.841
							c4.01,1.269,7.817,3.129,11.354,5.383c0.233,0.148,0.301,0.458,0.153,0.69c-0.148,0.233-0.457,0.301-0.69,0.153l-0.005-0.003
							c-3.454-2.249-7.168-4.106-11.08-5.387c-0.967-0.357-1.977-0.565-2.965-0.852c-1.009-0.194-2.007-0.456-3.029-0.574
							c-2.03-0.328-4.093-0.432-6.148-0.37c-4.114,0.103-8.197,1.026-12.009,2.59c-3.8,1.573-7.405,3.76-10.413,6.548l-0.016,0.015
							c-0.104,0.097-0.267,0.09-0.363-0.014C272.772,119.188,272.777,119.026,272.88,118.929z"/>
					</g>
				</g>
				<g>
					<g>
						<path style="fill:#0B1011;" d="M306.731,387.205l-12.118-4.648l0.229,0.006l-24.126,8.072
							c-0.262,0.088-0.545-0.054-0.633-0.315c-0.088-0.262,0.054-0.545,0.315-0.633c0.001,0,0.005-0.002,0.006-0.002l24.226-7.767
							c0.076-0.025,0.16-0.02,0.229,0.007l12.058,4.8c0.132,0.053,0.197,0.202,0.144,0.334
							C307.01,387.191,306.862,387.255,306.731,387.205z"/>
					</g>
					<path style="fill:#0B1011;" d="M278.697,371.366c0,0-65.415-33.805-85.317-70.683l-4.976,5.268
						c0,0,37.317,46.537,88.537,67.756L278.697,371.366z"/>
					<path style="fill:#6EDC9E;" d="M288.484,362.373c0.912,0.438,19.035,24.732,19.035,24.732s-17.507,47.796-17.09,47.796
						c0.417,0-19.869-44.739-19.869-44.739l10.421-24.315C280.981,365.846,285.01,360.705,288.484,362.373z"/>
					<path style="fill:none;stroke:#0B1011;stroke-width:2;stroke-linecap:round;stroke-linejoin:round;stroke-miterlimit:10;" d="
						M288.484,362.373c0.912,0.438,19.035,24.732,19.035,24.732s-17.507,47.796-17.09,47.796c0.417,0-19.869-44.739-19.869-44.739
						l10.421-24.315C280.981,365.846,285.01,360.705,288.484,362.373z"/>
					<g>
						<path style="fill:#0B1011;" d="M286.638,362.136l8.544,20.535c0.021,0.051,0.028,0.107,0.023,0.158l-4.695,50.452
							c-0.026,0.275-0.269,0.477-0.544,0.452c-0.275-0.026-0.477-0.269-0.452-0.544l0-0.003l5.031-50.419l0.023,0.158l-8.407-20.591
							c-0.054-0.132,0.009-0.282,0.141-0.336C286.434,361.943,286.584,362.005,286.638,362.136z"/>
					</g>
					<g>
						<path style="fill:#0B1011;" d="M306.731,387.205l-12.118-4.648l0.229,0.006l-24.126,8.072
							c-0.262,0.088-0.545-0.054-0.633-0.315c-0.088-0.262,0.054-0.545,0.315-0.633c0.001,0,0.005-0.002,0.006-0.002l24.226-7.767
							c0.076-0.025,0.16-0.02,0.229,0.007l12.058,4.8c0.132,0.053,0.197,0.202,0.144,0.334
							C307.01,387.191,306.862,387.255,306.731,387.205z"/>
					</g>
					<path style="fill:#0B1011;" d="M296.551,373.415c0,0,22.683-22.537,21.073-56.781l3.659,0.878c0,0,1.171,34.244-21.951,59.122"
						/>
				</g>
				<path style="fill:#EF972D;" d="M186.209,177.902c-16.829,22.244-3.073,42.585-3.073,42.585
					c14.049,18.585,23.634,1.463,23.634,1.463c16.244-35.341-6.805-48.732-6.805-48.732s-7.134,1.207-3.183,8.342
					c0,0,14.488,11.744,5.707,31.5c0,0-5.378,9.219-11.085-0.768c0,0-7.683-13.28-0.11-31.171"/>
				<path style="fill:none;stroke:#0B1011;stroke-width:2;stroke-linecap:round;stroke-linejoin:round;stroke-miterlimit:10;" d="
					M186.209,177.902c-16.829,22.244-3.073,42.585-3.073,42.585c14.049,18.585,23.634,1.463,23.634,1.463
					c16.244-35.341-6.805-48.732-6.805-48.732s-7.134,1.207-3.183,8.342c0,0,14.488,11.744,5.707,31.5c0,0-5.378,9.219-11.085-0.768
					c0,0-7.683-13.28-0.11-31.171"/>
			</g>
		</g>
	</g>
</g>
</svg>
